M48
;Layer_Color=9474304
;FILE_FORMAT=2:4
INCH,LZ
;TYPE=PLATED
T01F00S00C0.0118
T02F00S00C0.0120
T03F00S00C0.0280
%
T01
X04859Y00912
X052655Y00818
X05331Y00734
X05859Y00555
X061995Y00478
X062526Y003884
X020602Y026721
X02031Y02776
X01748Y029
X01902Y03757
X023075Y043363
X024035Y04372
X02603Y04455
X02872Y046774
X029743Y046616
X037149Y045438
X037235Y044408
X047938Y037632
X051885Y03881
X05279Y03829
X03457Y04777
X02465Y04818
T02
X053621Y005296
X053202Y006442
X053841Y008142
X055633Y008762
X056756Y008286
X05745Y007282
X057502Y006064
X056887Y00501
X055804Y004449
X054588Y004553
X061994Y003909
X062311Y002731
X062719Y001581
X06368Y00083
X064895Y000715
X065983Y001267
X066607Y002315
X066566Y003534
X065881Y004544
X064762Y00503
X063057Y004507
X023707Y023671
X022619Y02312
X021404Y023235
X020443Y023986
X020035Y025136
X020304Y026326
X021171Y027184
X022485Y027434
X023604Y026948
X02429Y025939
X024331Y02472
X01491Y04176
X01724Y04155
X01747Y03988
X01905Y03923
X020178Y040014
X021271Y039472
X022484Y039599
X023442Y040354
X023841Y041507
X02356Y042694
X021374Y043784
X020256Y043294
X019579Y04228
X01955Y04106
X019906Y037337
X020838Y036549
X021204Y035385
X020888Y034207
X019987Y033383
X018787Y033168
X017658Y033631
X016956Y034629
X016896Y035848
X017498Y036909
X030163Y046057
X031181Y045384
X032401Y045368
X033441Y046006
X037199Y044946
X038416Y044863
X039609Y044609
X040483Y043758
X040766Y042571
X040362Y04142
X039407Y040662
X038194Y040532
X037102Y041078
X036472Y042123
X036499Y043343
X053654Y040152
X052919Y039178
X05274Y037971
X053356Y036918
X054401Y036287
X05562Y036319
X056634Y036998
X057126Y038115
X05694Y03932
X056137Y040239
X054967Y040585
X033979Y047101
X03384Y048313
X033076Y049263
X03192Y049656
X030631Y049302
X029835Y048378
X029664Y04717
T03
X04541Y01386
X04875Y01365
X04913Y01011
X05286Y01057
X05399Y00903
X05257Y00598
X05726Y00383
X0591Y00294
X06133Y00199
X05921Y00738
X06357Y0055
X0456Y01733
X044Y0196
X04242Y02227
X04576Y02305
X04398Y02556
X04565Y02766
X04227Y02844
X04246Y01592
X04064Y01718
X03455Y02199
X03246Y02068
X03031Y02209
X027949Y020972
X02615Y02272
X0239Y02222
X01918Y02544
X02013Y02994
X01835Y03085
X02156Y02866
X02053Y0322
X01759Y03269
X01728Y03747
X01726Y03918
X01867Y04139
X01846Y04328
X02145Y0445
X02295Y04552
X02603Y04325
X02815Y04432
X02187Y03817
X02075Y03766
X038Y039
X03958Y03807
X04088Y03692
X03958Y03514
X04238Y03427
X04094Y03217
X04391Y03126
X04569Y0323
X04385Y03718
X04242Y03947
X04021Y03991
X04303Y04334
X04185Y04638
X03822Y04626
X03411Y04545
X03532Y04387
X03571Y04241
X04744Y04003
X04871Y04129
X05006Y04004
X05227Y04009
X0513Y04126
X05415Y04128
X05679Y0412
X05692Y03579
X05392Y03558
X05233Y03644
X05133Y03562
X04995Y03639
X04744Y0364
X04058Y04767
X03915Y04899
X036639Y047836
X03502Y04964
X02992Y04966
X02823Y0491
X02662Y04899
X02601Y04758
X02754Y04784
X02887Y04791
X02422Y04725
X02147Y04746
X03072Y05194
M30
