G04*
G04 #@! TF.GenerationSoftware,Altium Limited,Altium Designer,24.10.1 (45)*
G04*
G04 Layer_Color=8421504*
%FSLAX25Y25*%
%MOIN*%
G70*
G04*
G04 #@! TF.SameCoordinates,83C887BF-E30F-42F8-BBC8-2091E9C979B4*
G04*
G04*
G04 #@! TF.FilePolarity,Positive*
G04*
G01*
G75*
%ADD14P,0.01670X4X113.0*%
%ADD15P,0.01670X4X245.0*%
%ADD16P,0.01670X4X155.0*%
G04:AMPARAMS|DCode=17|XSize=12.6mil|YSize=9.45mil|CornerRadius=0mil|HoleSize=0mil|Usage=FLASHONLY|Rotation=20.000|XOffset=0mil|YOffset=0mil|HoleType=Round|Shape=Rectangle|*
%AMROTATEDRECTD17*
4,1,4,-0.00430,-0.00659,-0.00754,0.00229,0.00430,0.00659,0.00754,-0.00229,-0.00430,-0.00659,0.0*
%
%ADD17ROTATEDRECTD17*%

G04:AMPARAMS|DCode=18|XSize=18.11mil|YSize=16.54mil|CornerRadius=0mil|HoleSize=0mil|Usage=FLASHONLY|Rotation=290.000|XOffset=0mil|YOffset=0mil|HoleType=Round|Shape=Rectangle|*
%AMROTATEDRECTD18*
4,1,4,-0.01087,0.00568,0.00467,0.01134,0.01087,-0.00568,-0.00467,-0.01134,-0.01087,0.00568,0.0*
%
%ADD18ROTATEDRECTD18*%

G04:AMPARAMS|DCode=19|XSize=56.1mil|YSize=17.72mil|CornerRadius=0mil|HoleSize=0mil|Usage=FLASHONLY|Rotation=200.000|XOffset=0mil|YOffset=0mil|HoleType=Round|Shape=Rectangle|*
%AMROTATEDRECTD19*
4,1,4,0.02333,0.01792,0.02939,0.00127,-0.02333,-0.01792,-0.02939,-0.00127,0.02333,0.01792,0.0*
%
%ADD19ROTATEDRECTD19*%

%ADD20R,0.01378X0.00984*%
%ADD21P,0.01670X4X180.0*%
%ADD22P,0.01670X4X90.0*%
G04:AMPARAMS|DCode=23|XSize=12.6mil|YSize=9.45mil|CornerRadius=0mil|HoleSize=0mil|Usage=FLASHONLY|Rotation=315.000|XOffset=0mil|YOffset=0mil|HoleType=Round|Shape=Rectangle|*
%AMROTATEDRECTD23*
4,1,4,-0.00780,0.00111,-0.00111,0.00780,0.00780,-0.00111,0.00111,-0.00780,-0.00780,0.00111,0.0*
%
%ADD23ROTATEDRECTD23*%

G04:AMPARAMS|DCode=24|XSize=18.11mil|YSize=16.54mil|CornerRadius=0mil|HoleSize=0mil|Usage=FLASHONLY|Rotation=135.000|XOffset=0mil|YOffset=0mil|HoleType=Round|Shape=Rectangle|*
%AMROTATEDRECTD24*
4,1,4,0.01225,-0.00056,0.00056,-0.01225,-0.01225,0.00056,-0.00056,0.01225,0.01225,-0.00056,0.0*
%
%ADD24ROTATEDRECTD24*%

G04:AMPARAMS|DCode=25|XSize=56.1mil|YSize=17.72mil|CornerRadius=0mil|HoleSize=0mil|Usage=FLASHONLY|Rotation=135.000|XOffset=0mil|YOffset=0mil|HoleType=Round|Shape=Rectangle|*
%AMROTATEDRECTD25*
4,1,4,0.02610,-0.01357,0.01357,-0.02610,-0.02610,0.01357,-0.01357,0.02610,0.02610,-0.01357,0.0*
%
%ADD25ROTATEDRECTD25*%

%ADD26R,0.13780X0.01378*%
%ADD27R,0.01654X0.01811*%
G04:AMPARAMS|DCode=28|XSize=18.11mil|YSize=16.54mil|CornerRadius=0mil|HoleSize=0mil|Usage=FLASHONLY|Rotation=215.000|XOffset=0mil|YOffset=0mil|HoleType=Round|Shape=Rectangle|*
%AMROTATEDRECTD28*
4,1,4,0.00267,0.01197,0.01216,-0.00158,-0.00267,-0.01197,-0.01216,0.00158,0.00267,0.01197,0.0*
%
%ADD28ROTATEDRECTD28*%

G04:AMPARAMS|DCode=29|XSize=12.6mil|YSize=9.45mil|CornerRadius=0mil|HoleSize=0mil|Usage=FLASHONLY|Rotation=305.000|XOffset=0mil|YOffset=0mil|HoleType=Round|Shape=Rectangle|*
%AMROTATEDRECTD29*
4,1,4,-0.00748,0.00245,0.00026,0.00787,0.00748,-0.00245,-0.00026,-0.00787,-0.00748,0.00245,0.0*
%
%ADD29ROTATEDRECTD29*%

G04:AMPARAMS|DCode=30|XSize=56.1mil|YSize=17.72mil|CornerRadius=0mil|HoleSize=0mil|Usage=FLASHONLY|Rotation=125.000|XOffset=0mil|YOffset=0mil|HoleType=Round|Shape=Rectangle|*
%AMROTATEDRECTD30*
4,1,4,0.02335,-0.01790,0.00883,-0.02806,-0.02335,0.01790,-0.00883,0.02806,0.02335,-0.01790,0.0*
%
%ADD30ROTATEDRECTD30*%

%ADD31P,0.01670X4X80.0*%
%ADD32P,0.01670X4X170.0*%
%ADD33P,0.01670X4X95.0*%
%ADD34P,0.01670X4X365.0*%
G04:AMPARAMS|DCode=35|XSize=12.6mil|YSize=9.45mil|CornerRadius=0mil|HoleSize=0mil|Usage=FLASHONLY|Rotation=230.000|XOffset=0mil|YOffset=0mil|HoleType=Round|Shape=Rectangle|*
%AMROTATEDRECTD35*
4,1,4,0.00043,0.00786,0.00767,0.00179,-0.00043,-0.00786,-0.00767,-0.00179,0.00043,0.00786,0.0*
%
%ADD35ROTATEDRECTD35*%

G04:AMPARAMS|DCode=36|XSize=18.11mil|YSize=16.54mil|CornerRadius=0mil|HoleSize=0mil|Usage=FLASHONLY|Rotation=140.000|XOffset=0mil|YOffset=0mil|HoleType=Round|Shape=Rectangle|*
%AMROTATEDRECTD36*
4,1,4,0.01225,0.00051,0.00162,-0.01215,-0.01225,-0.00051,-0.00162,0.01215,0.01225,0.00051,0.0*
%
%ADD36ROTATEDRECTD36*%

G04:AMPARAMS|DCode=37|XSize=56.1mil|YSize=17.72mil|CornerRadius=0mil|HoleSize=0mil|Usage=FLASHONLY|Rotation=50.000|XOffset=0mil|YOffset=0mil|HoleType=Round|Shape=Rectangle|*
%AMROTATEDRECTD37*
4,1,4,-0.01124,-0.02718,-0.02482,-0.01579,0.01124,0.02718,0.02482,0.01579,-0.01124,-0.02718,0.0*
%
%ADD37ROTATEDRECTD37*%

%ADD38R,0.01181X0.01181*%
%ADD39R,0.00945X0.01260*%
%ADD40R,0.01181X0.01181*%
%ADD41R,0.05610X0.01772*%
%ADD42R,0.01260X0.00945*%
%ADD43P,0.01670X4X203.0*%
G04:AMPARAMS|DCode=44|XSize=56.1mil|YSize=17.72mil|CornerRadius=0mil|HoleSize=0mil|Usage=FLASHONLY|Rotation=158.000|XOffset=0mil|YOffset=0mil|HoleType=Round|Shape=Rectangle|*
%AMROTATEDRECTD44*
4,1,4,0.02933,-0.00230,0.02269,-0.01872,-0.02933,0.00230,-0.02269,0.01872,0.02933,-0.00230,0.0*
%
%ADD44ROTATEDRECTD44*%

G04:AMPARAMS|DCode=45|XSize=12.6mil|YSize=9.45mil|CornerRadius=0mil|HoleSize=0mil|Usage=FLASHONLY|Rotation=338.000|XOffset=0mil|YOffset=0mil|HoleType=Round|Shape=Rectangle|*
%AMROTATEDRECTD45*
4,1,4,-0.00761,-0.00202,-0.00407,0.00674,0.00761,0.00202,0.00407,-0.00674,-0.00761,-0.00202,0.0*
%
%ADD45ROTATEDRECTD45*%

G04:AMPARAMS|DCode=46|XSize=18.11mil|YSize=16.54mil|CornerRadius=0mil|HoleSize=0mil|Usage=FLASHONLY|Rotation=248.000|XOffset=0mil|YOffset=0mil|HoleType=Round|Shape=Rectangle|*
%AMROTATEDRECTD46*
4,1,4,-0.00427,0.01149,0.01106,0.00530,0.00427,-0.01149,-0.01106,-0.00530,-0.00427,0.01149,0.0*
%
%ADD46ROTATEDRECTD46*%

%ADD47P,0.01670X4X195.0*%
%ADD48P,0.01670X4X105.0*%
G04:AMPARAMS|DCode=49|XSize=12.6mil|YSize=9.45mil|CornerRadius=0mil|HoleSize=0mil|Usage=FLASHONLY|Rotation=330.000|XOffset=0mil|YOffset=0mil|HoleType=Round|Shape=Rectangle|*
%AMROTATEDRECTD49*
4,1,4,-0.00782,-0.00094,-0.00309,0.00724,0.00782,0.00094,0.00309,-0.00724,-0.00782,-0.00094,0.0*
%
%ADD49ROTATEDRECTD49*%

G04:AMPARAMS|DCode=50|XSize=18.11mil|YSize=16.54mil|CornerRadius=0mil|HoleSize=0mil|Usage=FLASHONLY|Rotation=240.000|XOffset=0mil|YOffset=0mil|HoleType=Round|Shape=Rectangle|*
%AMROTATEDRECTD50*
4,1,4,-0.00263,0.01198,0.01169,0.00371,0.00263,-0.01198,-0.01169,-0.00371,-0.00263,0.01198,0.0*
%
%ADD50ROTATEDRECTD50*%

G04:AMPARAMS|DCode=51|XSize=56.1mil|YSize=17.72mil|CornerRadius=0mil|HoleSize=0mil|Usage=FLASHONLY|Rotation=150.000|XOffset=0mil|YOffset=0mil|HoleType=Round|Shape=Rectangle|*
%AMROTATEDRECTD51*
4,1,4,0.02872,-0.00635,0.01986,-0.02170,-0.02872,0.00635,-0.01986,0.02170,0.02872,-0.00635,0.0*
%
%ADD51ROTATEDRECTD51*%

D14*
X521897Y69850D02*
D03*
X522782Y72041D02*
D03*
X496778Y84990D02*
D03*
X497663Y87180D02*
D03*
D15*
X294323Y465127D02*
D03*
X292103Y464319D02*
D03*
X261084Y455399D02*
D03*
X258864Y454591D02*
D03*
D16*
X262754Y450281D02*
D03*
X261946Y452500D02*
D03*
X290744Y458057D02*
D03*
X291552Y455838D02*
D03*
D17*
X288379Y464555D02*
D03*
X288891Y463149D02*
D03*
D18*
X264676Y445001D02*
D03*
X263787Y447443D02*
D03*
D19*
X285179Y456233D02*
D03*
X284304Y458638D02*
D03*
X283429Y461043D02*
D03*
X282554Y463447D02*
D03*
X266187Y457490D02*
D03*
X267062Y455086D02*
D03*
X267937Y452681D02*
D03*
X268812Y450276D02*
D03*
D20*
X199700Y395000D02*
D03*
Y393134D02*
D03*
D21*
X203764Y269709D02*
D03*
X202093Y271380D02*
D03*
X180900Y295723D02*
D03*
X179230Y297393D02*
D03*
D22*
X176967Y292046D02*
D03*
X178637Y293716D02*
D03*
X195844Y269965D02*
D03*
X194174Y268295D02*
D03*
D23*
X200734Y274855D02*
D03*
X199676Y273797D02*
D03*
D24*
X175781Y283519D02*
D03*
X177619Y281681D02*
D03*
D25*
X191839Y274237D02*
D03*
X193649Y276047D02*
D03*
X195458Y277857D02*
D03*
X197268Y279666D02*
D03*
X184952Y291982D02*
D03*
X183142Y290173D02*
D03*
X181333Y288363D02*
D03*
X179523Y286553D02*
D03*
D26*
X130500Y417343D02*
D03*
Y415374D02*
D03*
Y413406D02*
D03*
Y411437D02*
D03*
Y409469D02*
D03*
Y407500D02*
D03*
Y405532D02*
D03*
Y403563D02*
D03*
Y401594D02*
D03*
Y399626D02*
D03*
D27*
X195100Y392568D02*
D03*
Y395166D02*
D03*
X489800Y376899D02*
D03*
Y374301D02*
D03*
D28*
X343577Y470256D02*
D03*
X345706Y471746D02*
D03*
D29*
X367374Y451563D02*
D03*
X368599Y452421D02*
D03*
D30*
X359733Y453358D02*
D03*
X361829Y454825D02*
D03*
X363925Y456293D02*
D03*
X366022Y457761D02*
D03*
X356031Y472028D02*
D03*
X353935Y470561D02*
D03*
X351839Y469093D02*
D03*
X349743Y467625D02*
D03*
D31*
X361000Y447100D02*
D03*
X362935Y448455D02*
D03*
X350114Y474833D02*
D03*
X348179Y473478D02*
D03*
D32*
X369335Y448762D02*
D03*
X370690Y446828D02*
D03*
X351336Y478351D02*
D03*
X352691Y476416D02*
D03*
D33*
X232918Y436084D02*
D03*
X234436Y437893D02*
D03*
X256840Y461127D02*
D03*
X258358Y462937D02*
D03*
D34*
X252834Y464725D02*
D03*
X254644Y463207D02*
D03*
X232483Y443995D02*
D03*
X230673Y445514D02*
D03*
D35*
X237780Y439551D02*
D03*
X236634Y440512D02*
D03*
D36*
X250521Y466666D02*
D03*
X248530Y468336D02*
D03*
D37*
X247585Y461700D02*
D03*
X249545Y460055D02*
D03*
X251506Y458410D02*
D03*
X253466Y456765D02*
D03*
X242270Y443423D02*
D03*
X240310Y445068D02*
D03*
X238350Y446712D02*
D03*
X236389Y448357D02*
D03*
D38*
X189419Y379800D02*
D03*
X191781D02*
D03*
X522180Y383072D02*
D03*
X524543D02*
D03*
X487619Y385300D02*
D03*
X489981D02*
D03*
D39*
X190000Y383200D02*
D03*
X191496D02*
D03*
D40*
X489800Y382281D02*
D03*
Y379919D02*
D03*
X518761Y377654D02*
D03*
Y375291D02*
D03*
D41*
X512909Y377842D02*
D03*
Y380402D02*
D03*
Y382961D02*
D03*
Y385520D02*
D03*
X495491D02*
D03*
Y382961D02*
D03*
Y380402D02*
D03*
Y377842D02*
D03*
D42*
X518761Y384569D02*
D03*
Y383072D02*
D03*
D43*
X530172Y74899D02*
D03*
X527982Y75784D02*
D03*
X498961Y89912D02*
D03*
X496771Y90797D02*
D03*
D44*
X501277Y80933D02*
D03*
X502235Y83306D02*
D03*
X503194Y85678D02*
D03*
X504153Y88051D02*
D03*
X520302Y81526D02*
D03*
X519343Y79154D02*
D03*
X518385Y76781D02*
D03*
X517426Y74408D02*
D03*
D45*
X525372Y78452D02*
D03*
X524812Y77065D02*
D03*
D46*
X495646Y82190D02*
D03*
X494673Y79781D02*
D03*
D47*
X620429Y41730D02*
D03*
X622474Y40549D02*
D03*
X591611Y60940D02*
D03*
X593657Y59758D02*
D03*
D48*
X591991Y57235D02*
D03*
X590810Y55189D02*
D03*
X613577Y36700D02*
D03*
X614758Y38746D02*
D03*
D49*
X617468Y43439D02*
D03*
X618216Y44735D02*
D03*
D50*
X589300Y52574D02*
D03*
X588000Y50323D02*
D03*
D51*
X594700Y50545D02*
D03*
X595980Y52761D02*
D03*
X597259Y54977D02*
D03*
X598539Y57194D02*
D03*
X613623Y48485D02*
D03*
X612343Y46269D02*
D03*
X611064Y44052D02*
D03*
X609784Y41836D02*
D03*
M02*
