G04*
G04 #@! TF.GenerationSoftware,Altium Limited,Altium Designer,24.10.1 (45)*
G04*
G04 Layer_Color=16711935*
%FSLAX25Y25*%
%MOIN*%
G70*
G04*
G04 #@! TF.SameCoordinates,83C887BF-E30F-42F8-BBC8-2091E9C979B4*
G04*
G04*
G04 #@! TF.FilePolarity,Negative*
G04*
G01*
G75*
%ADD90C,0.03000*%
%ADD91C,0.05800*%
%ADD92C,0.02965*%
%ADD99C,0.40170*%
D90*
X174700Y398800D02*
D03*
X172400Y415500D02*
D03*
X202564Y432941D02*
D03*
X149100Y417600D02*
D03*
X538406Y81415D02*
D03*
X574501Y72825D02*
D03*
X536205Y52960D02*
D03*
X568871Y50096D02*
D03*
X558037Y44488D02*
D03*
X567558Y82856D02*
D03*
X545881Y45529D02*
D03*
X532023Y64421D02*
D03*
X556325Y87618D02*
D03*
X575016Y60635D02*
D03*
X311811Y453843D02*
D03*
X324010Y453682D02*
D03*
X190500Y392300D02*
D03*
X195788Y422795D02*
D03*
X213735Y437843D02*
D03*
X619938Y39091D02*
D03*
X404830Y437582D02*
D03*
X168956Y358478D02*
D03*
X169563Y346293D02*
D03*
X226187Y231199D02*
D03*
X214041Y232346D02*
D03*
X211708Y271839D02*
D03*
X203035Y263259D02*
D03*
X224853Y274342D02*
D03*
X243308Y247197D02*
D03*
X242898Y259390D02*
D03*
X200349Y251358D02*
D03*
X187866Y331680D02*
D03*
X174983Y369086D02*
D03*
X199874Y333835D02*
D03*
X237070Y236712D02*
D03*
X204431Y239861D02*
D03*
X236043Y269482D02*
D03*
X630574Y45067D02*
D03*
X647615Y50295D02*
D03*
X623111Y27311D02*
D03*
X627193Y15814D02*
D03*
X636804Y8299D02*
D03*
X648950Y7152D02*
D03*
X659833Y12665D02*
D03*
X666070Y23150D02*
D03*
X665660Y35344D02*
D03*
X658805Y45436D02*
D03*
X536537Y401521D02*
D03*
X529192Y391780D02*
D03*
X527402Y379712D02*
D03*
X533564Y369182D02*
D03*
X544007Y362874D02*
D03*
X556202Y363192D02*
D03*
X566338Y369983D02*
D03*
X571258Y381146D02*
D03*
X569397Y393203D02*
D03*
X561367Y402388D02*
D03*
X549670Y405855D02*
D03*
X384157Y448629D02*
D03*
X364992Y433426D02*
D03*
X364721Y421229D02*
D03*
X371025Y410784D02*
D03*
X381935Y405324D02*
D03*
X394067Y406616D02*
D03*
X403623Y414199D02*
D03*
X407656Y425714D02*
D03*
X396091Y446095D02*
D03*
X371985Y449456D02*
D03*
X296636Y471701D02*
D03*
X306313Y493023D02*
D03*
X298350Y483780D02*
D03*
X301634Y460572D02*
D03*
X334412Y460056D02*
D03*
X339786Y471009D02*
D03*
X338404Y483130D02*
D03*
X330755Y492634D02*
D03*
X319205Y496562D02*
D03*
X235602Y426942D02*
D03*
X195501Y410599D02*
D03*
X201779Y400138D02*
D03*
X212708Y394716D02*
D03*
X224841Y395986D02*
D03*
X234424Y403537D02*
D03*
X238407Y415069D02*
D03*
X176580Y336314D02*
D03*
X208878Y342067D02*
D03*
X212044Y353850D02*
D03*
X208375Y365485D02*
D03*
X199062Y373366D02*
D03*
D91*
X172600Y391800D02*
D03*
X172800Y374700D02*
D03*
X175900Y326900D02*
D03*
X218700Y381700D02*
D03*
X184600Y432800D02*
D03*
X205300Y322000D02*
D03*
X525700Y59800D02*
D03*
X487500Y136500D02*
D03*
X491300Y101100D02*
D03*
X528600Y105700D02*
D03*
X539900Y90300D02*
D03*
X592100Y73800D02*
D03*
X635700Y55000D02*
D03*
X613300Y19900D02*
D03*
X591000Y29400D02*
D03*
X572600Y38300D02*
D03*
X454100Y138600D02*
D03*
X456000Y173300D02*
D03*
X406400Y171800D02*
D03*
X457600Y230500D02*
D03*
X456500Y276600D02*
D03*
X456900Y323000D02*
D03*
X424600Y159200D02*
D03*
X440000Y196000D02*
D03*
X424200Y222700D02*
D03*
X439800Y255600D02*
D03*
X422700Y284400D02*
D03*
X439100Y312600D02*
D03*
X423800Y342700D02*
D03*
X438500Y371800D02*
D03*
X424200Y394700D02*
D03*
X409400Y321700D02*
D03*
X395800Y351400D02*
D03*
X408800Y369200D02*
D03*
X395800Y380700D02*
D03*
X402100Y399100D02*
D03*
X380000Y390000D02*
D03*
X513300Y356200D02*
D03*
X474400Y364000D02*
D03*
X499500Y363900D02*
D03*
X523300Y364400D02*
D03*
X539200Y355800D02*
D03*
X569200Y357900D02*
D03*
X567900Y412000D02*
D03*
X541500Y412800D02*
D03*
X513000Y412600D02*
D03*
X487100Y412900D02*
D03*
X522700Y400900D02*
D03*
X500600Y400400D02*
D03*
X474400Y400300D02*
D03*
X430300Y433400D02*
D03*
X382200Y462600D02*
D03*
X357100Y424100D02*
D03*
X353200Y438700D02*
D03*
X341100Y454500D02*
D03*
X366392Y478359D02*
D03*
X418500Y463800D02*
D03*
X405800Y476700D02*
D03*
X391500Y489900D02*
D03*
X350200Y496400D02*
D03*
X299200Y496600D02*
D03*
X307200Y519400D02*
D03*
X282300Y491000D02*
D03*
X266200Y489900D02*
D03*
X288700Y479100D02*
D03*
X275400Y478400D02*
D03*
X260100Y475800D02*
D03*
X281500Y443200D02*
D03*
X260300Y432500D02*
D03*
X242200Y472500D02*
D03*
X229500Y455200D02*
D03*
X214700Y474600D02*
D03*
X214500Y445000D02*
D03*
X186700Y413900D02*
D03*
X207500Y376600D02*
D03*
X191800Y254400D02*
D03*
X183500Y308500D02*
D03*
X201300Y299400D02*
D03*
X215600Y286600D02*
D03*
X239000Y222200D02*
D03*
X261500Y227200D02*
D03*
X345500Y219900D02*
D03*
X324600Y206800D02*
D03*
X303100Y220900D02*
D03*
X279488Y209718D02*
D03*
D92*
X585900Y55500D02*
D03*
X485900Y91200D02*
D03*
X479376Y376325D02*
D03*
X345700Y477700D02*
D03*
X246500Y481800D02*
D03*
X260300Y445500D02*
D03*
X174800Y290000D02*
D03*
X206016Y267213D02*
D03*
X203100Y277600D02*
D03*
X533100Y73400D02*
D03*
X372347Y444078D02*
D03*
X371494Y454379D02*
D03*
X297426Y466164D02*
D03*
X230749Y433633D02*
D03*
X240347Y437201D02*
D03*
X190200Y375700D02*
D03*
X625264Y38838D02*
D03*
X619947Y47801D02*
D03*
X526547Y81801D02*
D03*
X518847Y388101D02*
D03*
X287199Y467739D02*
D03*
X527900Y382900D02*
D03*
D99*
X190200Y353400D02*
D03*
X222138Y252647D02*
D03*
X553800Y65900D02*
D03*
X385822Y426834D02*
D03*
X216600Y416200D02*
D03*
X318252Y474738D02*
D03*
X644900Y28600D02*
D03*
X549600Y384000D02*
D03*
M02*
