G04*
G04 #@! TF.GenerationSoftware,Altium Limited,Altium Designer,24.10.1 (45)*
G04*
G04 Layer_Color=8388736*
%FSLAX25Y25*%
%MOIN*%
G70*
G04*
G04 #@! TF.SameCoordinates,83C887BF-E30F-42F8-BBC8-2091E9C979B4*
G04*
G04*
G04 #@! TF.FilePolarity,Negative*
G04*
G01*
G75*
%ADD52P,0.02802X4X113.0*%
%ADD53P,0.02802X4X245.0*%
%ADD54P,0.02802X4X155.0*%
G04:AMPARAMS|DCode=55|XSize=20.6mil|YSize=17.45mil|CornerRadius=0mil|HoleSize=0mil|Usage=FLASHONLY|Rotation=20.000|XOffset=0mil|YOffset=0mil|HoleType=Round|Shape=Rectangle|*
%AMROTATEDRECTD55*
4,1,4,-0.00669,-0.01172,-0.01266,0.00468,0.00669,0.01172,0.01266,-0.00468,-0.00669,-0.01172,0.0*
%
%ADD55ROTATEDRECTD55*%

G04:AMPARAMS|DCode=56|XSize=26.11mil|YSize=24.54mil|CornerRadius=0mil|HoleSize=0mil|Usage=FLASHONLY|Rotation=290.000|XOffset=0mil|YOffset=0mil|HoleType=Round|Shape=Rectangle|*
%AMROTATEDRECTD56*
4,1,4,-0.01599,0.00807,0.00706,0.01646,0.01599,-0.00807,-0.00706,-0.01646,-0.01599,0.00807,0.0*
%
%ADD56ROTATEDRECTD56*%

G04:AMPARAMS|DCode=57|XSize=64.1mil|YSize=25.72mil|CornerRadius=0mil|HoleSize=0mil|Usage=FLASHONLY|Rotation=200.000|XOffset=0mil|YOffset=0mil|HoleType=Round|Shape=Rectangle|*
%AMROTATEDRECTD57*
4,1,4,0.02572,0.02305,0.03452,-0.00112,-0.02572,-0.02305,-0.03452,0.00112,0.02572,0.02305,0.0*
%
%ADD57ROTATEDRECTD57*%

%ADD58R,0.02178X0.01784*%
%ADD59P,0.02802X4X180.0*%
%ADD60P,0.02802X4X90.0*%
G04:AMPARAMS|DCode=61|XSize=20.6mil|YSize=17.45mil|CornerRadius=0mil|HoleSize=0mil|Usage=FLASHONLY|Rotation=315.000|XOffset=0mil|YOffset=0mil|HoleType=Round|Shape=Rectangle|*
%AMROTATEDRECTD61*
4,1,4,-0.01345,0.00111,-0.00111,0.01345,0.01345,-0.00111,0.00111,-0.01345,-0.01345,0.00111,0.0*
%
%ADD61ROTATEDRECTD61*%

G04:AMPARAMS|DCode=62|XSize=26.11mil|YSize=24.54mil|CornerRadius=0mil|HoleSize=0mil|Usage=FLASHONLY|Rotation=135.000|XOffset=0mil|YOffset=0mil|HoleType=Round|Shape=Rectangle|*
%AMROTATEDRECTD62*
4,1,4,0.01791,-0.00056,0.00056,-0.01791,-0.01791,0.00056,-0.00056,0.01791,0.01791,-0.00056,0.0*
%
%ADD62ROTATEDRECTD62*%

G04:AMPARAMS|DCode=63|XSize=64.1mil|YSize=25.72mil|CornerRadius=0mil|HoleSize=0mil|Usage=FLASHONLY|Rotation=135.000|XOffset=0mil|YOffset=0mil|HoleType=Round|Shape=Rectangle|*
%AMROTATEDRECTD63*
4,1,4,0.03176,-0.01357,0.01357,-0.03176,-0.03176,0.01357,-0.01357,0.03176,0.03176,-0.01357,0.0*
%
%ADD63ROTATEDRECTD63*%

%ADD64R,0.14580X0.02178*%
%ADD65R,0.02454X0.02611*%
G04:AMPARAMS|DCode=66|XSize=26.11mil|YSize=24.54mil|CornerRadius=0mil|HoleSize=0mil|Usage=FLASHONLY|Rotation=215.000|XOffset=0mil|YOffset=0mil|HoleType=Round|Shape=Rectangle|*
%AMROTATEDRECTD66*
4,1,4,0.00366,0.01754,0.01773,-0.00256,-0.00366,-0.01754,-0.01773,0.00256,0.00366,0.01754,0.0*
%
%ADD66ROTATEDRECTD66*%

G04:AMPARAMS|DCode=67|XSize=20.6mil|YSize=17.45mil|CornerRadius=0mil|HoleSize=0mil|Usage=FLASHONLY|Rotation=305.000|XOffset=0mil|YOffset=0mil|HoleType=Round|Shape=Rectangle|*
%AMROTATEDRECTD67*
4,1,4,-0.01305,0.00343,0.00124,0.01344,0.01305,-0.00343,-0.00124,-0.01344,-0.01305,0.00343,0.0*
%
%ADD67ROTATEDRECTD67*%

G04:AMPARAMS|DCode=68|XSize=64.1mil|YSize=25.72mil|CornerRadius=0mil|HoleSize=0mil|Usage=FLASHONLY|Rotation=125.000|XOffset=0mil|YOffset=0mil|HoleType=Round|Shape=Rectangle|*
%AMROTATEDRECTD68*
4,1,4,0.02892,-0.01888,0.00785,-0.03363,-0.02892,0.01888,-0.00785,0.03363,0.02892,-0.01888,0.0*
%
%ADD68ROTATEDRECTD68*%

%ADD69P,0.02802X4X80.0*%
%ADD70P,0.02802X4X170.0*%
%ADD71P,0.02802X4X95.0*%
%ADD72P,0.02802X4X365.0*%
G04:AMPARAMS|DCode=73|XSize=20.6mil|YSize=17.45mil|CornerRadius=0mil|HoleSize=0mil|Usage=FLASHONLY|Rotation=230.000|XOffset=0mil|YOffset=0mil|HoleType=Round|Shape=Rectangle|*
%AMROTATEDRECTD73*
4,1,4,-0.00006,0.01350,0.01330,0.00228,0.00006,-0.01350,-0.01330,-0.00228,-0.00006,0.01350,0.0*
%
%ADD73ROTATEDRECTD73*%

G04:AMPARAMS|DCode=74|XSize=26.11mil|YSize=24.54mil|CornerRadius=0mil|HoleSize=0mil|Usage=FLASHONLY|Rotation=140.000|XOffset=0mil|YOffset=0mil|HoleType=Round|Shape=Rectangle|*
%AMROTATEDRECTD74*
4,1,4,0.01789,0.00101,0.00212,-0.01779,-0.01789,-0.00101,-0.00212,0.01779,0.01789,0.00101,0.0*
%
%ADD74ROTATEDRECTD74*%

G04:AMPARAMS|DCode=75|XSize=64.1mil|YSize=25.72mil|CornerRadius=0mil|HoleSize=0mil|Usage=FLASHONLY|Rotation=50.000|XOffset=0mil|YOffset=0mil|HoleType=Round|Shape=Rectangle|*
%AMROTATEDRECTD75*
4,1,4,-0.01075,-0.03282,-0.03045,-0.01629,0.01075,0.03282,0.03045,0.01629,-0.01075,-0.03282,0.0*
%
%ADD75ROTATEDRECTD75*%

%ADD76R,0.01981X0.01981*%
%ADD77R,0.01745X0.02060*%
%ADD78R,0.01981X0.01981*%
%ADD79R,0.06410X0.02572*%
%ADD80R,0.02060X0.01745*%
%ADD81P,0.02802X4X203.0*%
G04:AMPARAMS|DCode=82|XSize=64.1mil|YSize=25.72mil|CornerRadius=0mil|HoleSize=0mil|Usage=FLASHONLY|Rotation=158.000|XOffset=0mil|YOffset=0mil|HoleType=Round|Shape=Rectangle|*
%AMROTATEDRECTD82*
4,1,4,0.03453,-0.00009,0.02490,-0.02393,-0.03453,0.00009,-0.02490,0.02393,0.03453,-0.00009,0.0*
%
%ADD82ROTATEDRECTD82*%

G04:AMPARAMS|DCode=83|XSize=20.6mil|YSize=17.45mil|CornerRadius=0mil|HoleSize=0mil|Usage=FLASHONLY|Rotation=338.000|XOffset=0mil|YOffset=0mil|HoleType=Round|Shape=Rectangle|*
%AMROTATEDRECTD83*
4,1,4,-0.01282,-0.00423,-0.00628,0.01195,0.01282,0.00423,0.00628,-0.01195,-0.01282,-0.00423,0.0*
%
%ADD83ROTATEDRECTD83*%

G04:AMPARAMS|DCode=84|XSize=26.11mil|YSize=24.54mil|CornerRadius=0mil|HoleSize=0mil|Usage=FLASHONLY|Rotation=248.000|XOffset=0mil|YOffset=0mil|HoleType=Round|Shape=Rectangle|*
%AMROTATEDRECTD84*
4,1,4,-0.00648,0.01670,0.01627,0.00751,0.00648,-0.01670,-0.01627,-0.00751,-0.00648,0.01670,0.0*
%
%ADD84ROTATEDRECTD84*%

%ADD85P,0.02802X4X195.0*%
%ADD86P,0.02802X4X105.0*%
G04:AMPARAMS|DCode=87|XSize=20.6mil|YSize=17.45mil|CornerRadius=0mil|HoleSize=0mil|Usage=FLASHONLY|Rotation=330.000|XOffset=0mil|YOffset=0mil|HoleType=Round|Shape=Rectangle|*
%AMROTATEDRECTD87*
4,1,4,-0.01328,-0.00241,-0.00456,0.01271,0.01328,0.00241,0.00456,-0.01271,-0.01328,-0.00241,0.0*
%
%ADD87ROTATEDRECTD87*%

G04:AMPARAMS|DCode=88|XSize=26.11mil|YSize=24.54mil|CornerRadius=0mil|HoleSize=0mil|Usage=FLASHONLY|Rotation=240.000|XOffset=0mil|YOffset=0mil|HoleType=Round|Shape=Rectangle|*
%AMROTATEDRECTD88*
4,1,4,-0.00410,0.01744,0.01715,0.00517,0.00410,-0.01744,-0.01715,-0.00517,-0.00410,0.01744,0.0*
%
%ADD88ROTATEDRECTD88*%

G04:AMPARAMS|DCode=89|XSize=64.1mil|YSize=25.72mil|CornerRadius=0mil|HoleSize=0mil|Usage=FLASHONLY|Rotation=150.000|XOffset=0mil|YOffset=0mil|HoleType=Round|Shape=Rectangle|*
%AMROTATEDRECTD89*
4,1,4,0.03419,-0.00489,0.02133,-0.02716,-0.03419,0.00489,-0.02133,0.02716,0.03419,-0.00489,0.0*
%
%ADD89ROTATEDRECTD89*%

%ADD90C,0.03000*%
%ADD91C,0.05800*%
%ADD92C,0.02965*%
D52*
X521897Y69850D02*
D03*
X522782Y72041D02*
D03*
X496778Y84990D02*
D03*
X497663Y87180D02*
D03*
D53*
X294323Y465127D02*
D03*
X292103Y464319D02*
D03*
X261084Y455399D02*
D03*
X258864Y454591D02*
D03*
D54*
X262754Y450281D02*
D03*
X261946Y452500D02*
D03*
X290744Y458057D02*
D03*
X291552Y455838D02*
D03*
D55*
X288379Y464555D02*
D03*
X288891Y463149D02*
D03*
D56*
X264676Y445001D02*
D03*
X263787Y447443D02*
D03*
D57*
X285179Y456233D02*
D03*
X284304Y458638D02*
D03*
X283429Y461043D02*
D03*
X282554Y463447D02*
D03*
X266187Y457490D02*
D03*
X267062Y455086D02*
D03*
X267937Y452681D02*
D03*
X268812Y450276D02*
D03*
D58*
X199700Y395000D02*
D03*
Y393134D02*
D03*
D59*
X203764Y269709D02*
D03*
X202093Y271380D02*
D03*
X180900Y295723D02*
D03*
X179230Y297393D02*
D03*
D60*
X176967Y292046D02*
D03*
X178637Y293716D02*
D03*
X195844Y269965D02*
D03*
X194174Y268295D02*
D03*
D61*
X200734Y274855D02*
D03*
X199676Y273797D02*
D03*
D62*
X175781Y283519D02*
D03*
X177619Y281681D02*
D03*
D63*
X191839Y274237D02*
D03*
X193649Y276047D02*
D03*
X195458Y277857D02*
D03*
X197268Y279666D02*
D03*
X184952Y291982D02*
D03*
X183142Y290173D02*
D03*
X181333Y288363D02*
D03*
X179523Y286553D02*
D03*
D64*
X130500Y417343D02*
D03*
Y415374D02*
D03*
Y413406D02*
D03*
Y411437D02*
D03*
Y409469D02*
D03*
Y407500D02*
D03*
Y405532D02*
D03*
Y403563D02*
D03*
Y401594D02*
D03*
Y399626D02*
D03*
D65*
X195100Y392568D02*
D03*
Y395166D02*
D03*
X489800Y376899D02*
D03*
Y374301D02*
D03*
D66*
X343577Y470256D02*
D03*
X345706Y471746D02*
D03*
D67*
X367374Y451563D02*
D03*
X368599Y452421D02*
D03*
D68*
X359733Y453358D02*
D03*
X361829Y454825D02*
D03*
X363925Y456293D02*
D03*
X366022Y457761D02*
D03*
X356031Y472028D02*
D03*
X353935Y470561D02*
D03*
X351839Y469093D02*
D03*
X349743Y467625D02*
D03*
D69*
X361000Y447100D02*
D03*
X362935Y448455D02*
D03*
X350114Y474833D02*
D03*
X348179Y473478D02*
D03*
D70*
X369335Y448762D02*
D03*
X370690Y446828D02*
D03*
X351336Y478351D02*
D03*
X352691Y476416D02*
D03*
D71*
X232918Y436084D02*
D03*
X234436Y437893D02*
D03*
X256840Y461127D02*
D03*
X258358Y462937D02*
D03*
D72*
X252834Y464725D02*
D03*
X254644Y463207D02*
D03*
X232483Y443995D02*
D03*
X230673Y445514D02*
D03*
D73*
X237780Y439551D02*
D03*
X236634Y440512D02*
D03*
D74*
X250521Y466666D02*
D03*
X248530Y468336D02*
D03*
D75*
X247585Y461700D02*
D03*
X249545Y460055D02*
D03*
X251506Y458410D02*
D03*
X253466Y456765D02*
D03*
X242270Y443423D02*
D03*
X240310Y445068D02*
D03*
X238350Y446712D02*
D03*
X236389Y448357D02*
D03*
D76*
X189419Y379800D02*
D03*
X191781D02*
D03*
X522180Y383072D02*
D03*
X524543D02*
D03*
X487619Y385300D02*
D03*
X489981D02*
D03*
D77*
X190000Y383200D02*
D03*
X191496D02*
D03*
D78*
X489800Y382281D02*
D03*
Y379919D02*
D03*
X518761Y377654D02*
D03*
Y375291D02*
D03*
D79*
X512909Y377842D02*
D03*
Y380402D02*
D03*
Y382961D02*
D03*
Y385520D02*
D03*
X495491D02*
D03*
Y382961D02*
D03*
Y380402D02*
D03*
Y377842D02*
D03*
D80*
X518761Y384569D02*
D03*
Y383072D02*
D03*
D81*
X530172Y74899D02*
D03*
X527982Y75784D02*
D03*
X498961Y89912D02*
D03*
X496771Y90797D02*
D03*
D82*
X501277Y80933D02*
D03*
X502235Y83306D02*
D03*
X503194Y85678D02*
D03*
X504153Y88051D02*
D03*
X520302Y81526D02*
D03*
X519343Y79154D02*
D03*
X518385Y76781D02*
D03*
X517426Y74408D02*
D03*
D83*
X525372Y78452D02*
D03*
X524812Y77065D02*
D03*
D84*
X495646Y82190D02*
D03*
X494673Y79781D02*
D03*
D85*
X620429Y41730D02*
D03*
X622474Y40549D02*
D03*
X591611Y60940D02*
D03*
X593657Y59758D02*
D03*
D86*
X591991Y57235D02*
D03*
X590810Y55189D02*
D03*
X613577Y36700D02*
D03*
X614758Y38746D02*
D03*
D87*
X617468Y43439D02*
D03*
X618216Y44735D02*
D03*
D88*
X589300Y52574D02*
D03*
X588000Y50323D02*
D03*
D89*
X594700Y50545D02*
D03*
X595980Y52761D02*
D03*
X597259Y54977D02*
D03*
X598539Y57194D02*
D03*
X613623Y48485D02*
D03*
X612343Y46269D02*
D03*
X611064Y44052D02*
D03*
X609784Y41836D02*
D03*
D90*
X174700Y398800D02*
D03*
X172400Y415500D02*
D03*
X202564Y432941D02*
D03*
X149100Y417600D02*
D03*
X538406Y81415D02*
D03*
X574501Y72825D02*
D03*
X536205Y52960D02*
D03*
X568871Y50096D02*
D03*
X558037Y44488D02*
D03*
X567558Y82856D02*
D03*
X545881Y45529D02*
D03*
X532023Y64421D02*
D03*
X556325Y87618D02*
D03*
X575016Y60635D02*
D03*
X311811Y453843D02*
D03*
X324010Y453682D02*
D03*
X190500Y392300D02*
D03*
X195788Y422795D02*
D03*
X213735Y437843D02*
D03*
X619938Y39091D02*
D03*
X404830Y437582D02*
D03*
X168956Y358478D02*
D03*
X169563Y346293D02*
D03*
X226187Y231199D02*
D03*
X214041Y232346D02*
D03*
X211708Y271839D02*
D03*
X203035Y263259D02*
D03*
X224853Y274342D02*
D03*
X243308Y247197D02*
D03*
X242898Y259390D02*
D03*
X200349Y251358D02*
D03*
X187866Y331680D02*
D03*
X174983Y369086D02*
D03*
X199874Y333835D02*
D03*
X237070Y236712D02*
D03*
X204431Y239861D02*
D03*
X236043Y269482D02*
D03*
X630574Y45067D02*
D03*
X647615Y50295D02*
D03*
X623111Y27311D02*
D03*
X627193Y15814D02*
D03*
X636804Y8299D02*
D03*
X648950Y7152D02*
D03*
X659833Y12665D02*
D03*
X666070Y23150D02*
D03*
X665660Y35344D02*
D03*
X658805Y45436D02*
D03*
X536537Y401521D02*
D03*
X529192Y391780D02*
D03*
X527402Y379712D02*
D03*
X533564Y369182D02*
D03*
X544007Y362874D02*
D03*
X556202Y363192D02*
D03*
X566338Y369983D02*
D03*
X571258Y381146D02*
D03*
X569397Y393203D02*
D03*
X561367Y402388D02*
D03*
X549670Y405855D02*
D03*
X384157Y448629D02*
D03*
X364992Y433426D02*
D03*
X364721Y421229D02*
D03*
X371025Y410784D02*
D03*
X381935Y405324D02*
D03*
X394067Y406616D02*
D03*
X403623Y414199D02*
D03*
X407656Y425714D02*
D03*
X396091Y446095D02*
D03*
X371985Y449456D02*
D03*
X296636Y471701D02*
D03*
X306313Y493023D02*
D03*
X298350Y483780D02*
D03*
X301634Y460572D02*
D03*
X334412Y460056D02*
D03*
X339786Y471009D02*
D03*
X338404Y483130D02*
D03*
X330755Y492634D02*
D03*
X319205Y496562D02*
D03*
X235602Y426942D02*
D03*
X195501Y410599D02*
D03*
X201779Y400138D02*
D03*
X212708Y394716D02*
D03*
X224841Y395986D02*
D03*
X234424Y403537D02*
D03*
X238407Y415069D02*
D03*
X176580Y336314D02*
D03*
X208878Y342067D02*
D03*
X212044Y353850D02*
D03*
X208375Y365485D02*
D03*
X199062Y373366D02*
D03*
D91*
X172600Y391800D02*
D03*
X172800Y374700D02*
D03*
X175900Y326900D02*
D03*
X218700Y381700D02*
D03*
X184600Y432800D02*
D03*
X205300Y322000D02*
D03*
X525700Y59800D02*
D03*
X487500Y136500D02*
D03*
X491300Y101100D02*
D03*
X528600Y105700D02*
D03*
X539900Y90300D02*
D03*
X592100Y73800D02*
D03*
X635700Y55000D02*
D03*
X613300Y19900D02*
D03*
X591000Y29400D02*
D03*
X572600Y38300D02*
D03*
X454100Y138600D02*
D03*
X456000Y173300D02*
D03*
X406400Y171800D02*
D03*
X457600Y230500D02*
D03*
X456500Y276600D02*
D03*
X456900Y323000D02*
D03*
X424600Y159200D02*
D03*
X440000Y196000D02*
D03*
X424200Y222700D02*
D03*
X439800Y255600D02*
D03*
X422700Y284400D02*
D03*
X439100Y312600D02*
D03*
X423800Y342700D02*
D03*
X438500Y371800D02*
D03*
X424200Y394700D02*
D03*
X409400Y321700D02*
D03*
X395800Y351400D02*
D03*
X408800Y369200D02*
D03*
X395800Y380700D02*
D03*
X402100Y399100D02*
D03*
X380000Y390000D02*
D03*
X513300Y356200D02*
D03*
X474400Y364000D02*
D03*
X499500Y363900D02*
D03*
X523300Y364400D02*
D03*
X539200Y355800D02*
D03*
X569200Y357900D02*
D03*
X567900Y412000D02*
D03*
X541500Y412800D02*
D03*
X513000Y412600D02*
D03*
X487100Y412900D02*
D03*
X522700Y400900D02*
D03*
X500600Y400400D02*
D03*
X474400Y400300D02*
D03*
X430300Y433400D02*
D03*
X382200Y462600D02*
D03*
X357100Y424100D02*
D03*
X353200Y438700D02*
D03*
X341100Y454500D02*
D03*
X366392Y478359D02*
D03*
X418500Y463800D02*
D03*
X405800Y476700D02*
D03*
X391500Y489900D02*
D03*
X350200Y496400D02*
D03*
X299200Y496600D02*
D03*
X307200Y519400D02*
D03*
X282300Y491000D02*
D03*
X266200Y489900D02*
D03*
X288700Y479100D02*
D03*
X275400Y478400D02*
D03*
X260100Y475800D02*
D03*
X281500Y443200D02*
D03*
X260300Y432500D02*
D03*
X242200Y472500D02*
D03*
X229500Y455200D02*
D03*
X214700Y474600D02*
D03*
X214500Y445000D02*
D03*
X186700Y413900D02*
D03*
X207500Y376600D02*
D03*
X191800Y254400D02*
D03*
X183500Y308500D02*
D03*
X201300Y299400D02*
D03*
X215600Y286600D02*
D03*
X239000Y222200D02*
D03*
X261500Y227200D02*
D03*
X345500Y219900D02*
D03*
X324600Y206800D02*
D03*
X303100Y220900D02*
D03*
X279488Y209718D02*
D03*
D92*
X585900Y55500D02*
D03*
X485900Y91200D02*
D03*
X479376Y376325D02*
D03*
X345700Y477700D02*
D03*
X246500Y481800D02*
D03*
X260300Y445500D02*
D03*
X174800Y290000D02*
D03*
X206016Y267213D02*
D03*
X203100Y277600D02*
D03*
X533100Y73400D02*
D03*
X372347Y444078D02*
D03*
X371494Y454379D02*
D03*
X297426Y466164D02*
D03*
X230749Y433633D02*
D03*
X240347Y437201D02*
D03*
X190200Y375700D02*
D03*
X625264Y38838D02*
D03*
X619947Y47801D02*
D03*
X526547Y81801D02*
D03*
X518847Y388101D02*
D03*
X287199Y467739D02*
D03*
X527900Y382900D02*
D03*
M02*
