G04*
G04 #@! TF.GenerationSoftware,Altium Limited,Altium Designer,24.10.1 (45)*
G04*
G04 Layer_Color=16711935*
%FSLAX25Y25*%
%MOIN*%
G70*
G04*
G04 #@! TF.SameCoordinates,83C887BF-E30F-42F8-BBC8-2091E9C979B4*
G04*
G04*
G04 #@! TF.FilePolarity,Positive*
G04*
G01*
G75*
%ADD100C,0.00100*%
D100*
X566573Y351216D02*
X567625Y351262D01*
X568669Y351399D01*
X569697Y351627D01*
X570702Y351944D01*
X571674Y352347D01*
X572609Y352833D01*
X573497Y353399D01*
X574332Y354040D01*
X575108Y354751D01*
X469610Y419439D02*
X468589Y419420D01*
X467569Y419363D01*
X466552Y419268D01*
X465539Y419134D01*
X464532Y418963D01*
X463532Y418754D01*
X462541Y418508D01*
X461559Y418226D01*
X460589Y417907D01*
X459631Y417551D01*
X458687Y417160D01*
X457759Y416734D01*
X456847Y416274D01*
X455953Y415780D01*
X455078Y415253D01*
X454224Y414693D01*
X453391Y414102D01*
X452580Y413480D01*
X451794Y412828D01*
X451032Y412148D01*
X450296Y411439D01*
X573261Y418475D02*
X572579Y418998D01*
X571785Y419327D01*
X570932Y419439D01*
X576796Y409939D02*
X576750Y410991D01*
X576613Y412035D01*
X576385Y413063D01*
X576068Y414068D01*
X575665Y415041D01*
X575179Y415975D01*
X574613Y416863D01*
X573972Y417698D01*
X573261Y418475D01*
X575108Y354751D02*
X575696Y355439D01*
X576168Y356210D01*
X576514Y357045D01*
X576725Y357925D01*
X576796Y358826D01*
X566573Y351216D02*
X567625Y351262D01*
X568669Y351399D01*
X569697Y351627D01*
X570702Y351944D01*
X571674Y352347D01*
X572609Y352833D01*
X573497Y353399D01*
X574332Y354040D01*
X575108Y354751D01*
X463207Y351216D02*
X462159Y351008D01*
X461271Y350414D01*
X460640Y349708D01*
X460091Y348935D01*
X459633Y348105D01*
X459270Y347230D01*
X459008Y346320D01*
X458849Y345385D01*
X458796Y344439D01*
X395786Y167112D02*
X396426Y166343D01*
X397068Y165576D01*
X397711Y164810D01*
X398356Y164046D01*
X399003Y163283D01*
X399650Y162521D01*
X400300Y161760D01*
X400950Y161000D01*
X401602Y160242D01*
X402256Y159485D01*
X402911Y158729D01*
X403567Y157975D01*
X404225Y157221D01*
X404885Y156469D01*
X405545Y155719D01*
X406208Y154969D01*
X406871Y154221D01*
X407537Y153474D01*
X408203Y152728D01*
X408871Y151984D01*
X409541Y151241D01*
X410211Y150499D01*
X410884Y149759D01*
X411557Y149020D01*
X412233Y148282D01*
X412909Y147545D01*
X413587Y146810D01*
X414266Y146076D01*
X414947Y145343D01*
X415629Y144612D01*
X416313Y143882D01*
X416998Y143153D01*
X417685Y142426D01*
X418372Y141700D01*
X419062Y140975D01*
X419752Y140252D01*
X420444Y139530D01*
X421138Y138809D01*
X421832Y138089D01*
X422529Y137371D01*
X423226Y136654D01*
X423925Y135939D01*
X424625Y135225D01*
X425327Y134512D01*
X426030Y133801D01*
X426734Y133091D01*
X427440Y132382D01*
X428147Y131675D01*
X428856Y130969D01*
X429565Y130265D01*
X430277Y129561D01*
X430989Y128860D01*
X431703Y128159D01*
X432418Y127460D01*
X433135Y126762D01*
X433853Y126066D01*
X434572Y125371D01*
X435293Y124678D01*
X436015Y123986D01*
X436738Y123295D01*
X437463Y122605D01*
X438189Y121917D01*
X438916Y121231D01*
X439644Y120546D01*
X440374Y119862D01*
X441105Y119179D01*
X441838Y118499D01*
X442572Y117819D01*
X443307Y117141D01*
X444043Y116464D01*
X444781Y115789D01*
X445520Y115115D01*
X446260Y114442D01*
X447002Y113771D01*
X447745Y113102D01*
X448489Y112434D01*
X449234Y111767D01*
X449981Y111101D01*
X450729Y110438D01*
X451478Y109775D01*
X452229Y109114D01*
X452981Y108455D01*
X453734Y107797D01*
X454488Y107140D01*
X455244Y106485D01*
X456001Y105831D01*
X456759Y105179D01*
X457518Y104528D01*
X458279Y103879D01*
X459041Y103231D01*
X459804Y102584D01*
X460569Y101939D01*
X461334Y101296D01*
X462101Y100654D01*
X462869Y100013D01*
X463639Y99374D01*
X464409Y98737D01*
X465181Y98101D01*
X465954Y97466D01*
X466728Y96833D01*
X467504Y96201D01*
X468280Y95571D01*
X469058Y94943D01*
X469837Y94315D01*
X470618Y93690D01*
X471399Y93066D01*
X472182Y92443D01*
X472966Y91822D01*
X473751Y91202D01*
X474537Y90584D01*
X475324Y89968D01*
X476113Y89353D01*
X476903Y88739D01*
X477694Y88127D01*
X478486Y87516D01*
X479280Y86908D01*
X480074Y86300D01*
X480870Y85694D01*
X481667Y85090D01*
X482465Y84487D01*
X483264Y83886D01*
X484064Y83286D01*
X484866Y82688D01*
X485668Y82091D01*
X486472Y81496D01*
X487277Y80902D01*
X488083Y80310D01*
X488890Y79720D01*
X489699Y79131D01*
X490508Y78543D01*
X491319Y77957D01*
X492130Y77373D01*
X492943Y76790D01*
X493757Y76209D01*
X494572Y75630D01*
X495388Y75052D01*
X496206Y74475D01*
X497024Y73900D01*
X497844Y73327D01*
X498664Y72755D01*
X499486Y72185D01*
X500309Y71617D01*
X501133Y71050D01*
X501958Y70484D01*
X502784Y69921D01*
X503611Y69358D01*
X504439Y68798D01*
X505269Y68239D01*
X506099Y67681D01*
X506930Y67126D01*
X507763Y66571D01*
X508597Y66019D01*
X509431Y65468D01*
X510267Y64918D01*
X511104Y64371D01*
X511942Y63824D01*
X512781Y63280D01*
X513620Y62737D01*
X514461Y62196D01*
X515303Y61656D01*
X516146Y61118D01*
X516991Y60581D01*
X517836Y60046D01*
X518682Y59513D01*
X519529Y58982D01*
X520377Y58452D01*
X521226Y57923D01*
X522077Y57397D01*
X522928Y56872D01*
X523780Y56348D01*
X524633Y55826D01*
X525488Y55306D01*
X526343Y54788D01*
X527199Y54271D01*
X528056Y53756D01*
X528914Y53242D01*
X529774Y52731D01*
X530634Y52220D01*
X531495Y51712D01*
X532357Y51205D01*
X533220Y50700D01*
X534084Y50196D01*
X534949Y49694D01*
X535815Y49194D01*
X536683Y48695D01*
X537550Y48198D01*
X538419Y47703D01*
X539289Y47209D01*
X540160Y46717D01*
X541032Y46227D01*
X541904Y45739D01*
X542778Y45252D01*
X543653Y44767D01*
X544528Y44283D01*
X545404Y43801D01*
X546282Y43321D01*
X547160Y42843D01*
X548039Y42366D01*
X548919Y41891D01*
X549800Y41418D01*
X550682Y40946D01*
X551565Y40476D01*
X552449Y40007D01*
X553334Y39541D01*
X554219Y39076D01*
X555105Y38613D01*
X555993Y38151D01*
X556881Y37692D01*
X557770Y37234D01*
X558660Y36777D01*
X559551Y36323D01*
X560443Y35870D01*
X561335Y35419D01*
X562229Y34969D01*
X563123Y34521D01*
X564018Y34075D01*
X564914Y33631D01*
X565811Y33189D01*
X566709Y32748D01*
X567607Y32309D01*
X568507Y31871D01*
X569407Y31435D01*
X570308Y31001D01*
X571210Y30569D01*
X572113Y30139D01*
X573016Y29710D01*
X573921Y29283D01*
X574826Y28858D01*
X575732Y28434D01*
X576639Y28013D01*
X577547Y27593D01*
X578455Y27174D01*
X579364Y26758D01*
X580274Y26343D01*
X581185Y25930D01*
X582097Y25519D01*
X583009Y25109D01*
X583923Y24702D01*
X584837Y24296D01*
X585751Y23891D01*
X586667Y23489D01*
X587583Y23088D01*
X588500Y22689D01*
X589418Y22292D01*
X590337Y21897D01*
X591257Y21503D01*
X592177Y21111D01*
X593097Y20721D01*
X594019Y20333D01*
X594942Y19946D01*
X595865Y19561D01*
X596789Y19178D01*
X597713Y18797D01*
X598639Y18418D01*
X599565Y18040D01*
X600492Y17664D01*
X601419Y17290D01*
X602347Y16918D01*
X603276Y16547D01*
X604206Y16179D01*
X605136Y15812D01*
X606068Y15447D01*
X606999Y15083D01*
X607932Y14721D01*
X608865Y14362D01*
X609799Y14004D01*
X610733Y13648D01*
X611669Y13293D01*
X612605Y12941D01*
X613541Y12590D01*
X614478Y12241D01*
X615416Y11894D01*
X616355Y11548D01*
X617294Y11205D01*
X618234Y10863D01*
X619175Y10523D01*
X620116Y10185D01*
X621058Y9849D01*
X622000Y9514D01*
X622944Y9181D01*
X623887Y8851D01*
X624832Y8522D01*
X625777Y8194D01*
X626723Y7869D01*
X627669Y7545D01*
X628616Y7224D01*
X629564Y6904D01*
X630512Y6585D01*
X631461Y6269D01*
X632410Y5955D01*
X633360Y5642D01*
X634310Y5331D01*
X635262Y5022D01*
X636213Y4715D01*
X637166Y4410D01*
X638119Y4106D01*
X639073Y3804D01*
X640027Y3505D01*
X640981Y3207D01*
X641937Y2910D01*
X642892Y2616D01*
X643849Y2324D01*
X644806Y2033D01*
X645763Y1744D01*
X646721Y1457D01*
X647680Y1172D01*
X647691Y1169D01*
X395786Y167112D02*
X396010Y168087D01*
X396231Y169064D01*
X396448Y170041D01*
X396663Y171019D01*
X396875Y171998D01*
X397084Y172977D01*
X397291Y173957D01*
X397494Y174937D01*
X397694Y175918D01*
X397892Y176900D01*
X398086Y177882D01*
X398278Y178865D01*
X398466Y179848D01*
X398652Y180832D01*
X398835Y181817D01*
X399015Y182802D01*
X399192Y183787D01*
X399365Y184773D01*
X399536Y185760D01*
X399705Y186747D01*
X399870Y187735D01*
X400032Y188723D01*
X400191Y189711D01*
X400347Y190700D01*
X400501Y191690D01*
X400651Y192680D01*
X400798Y193670D01*
X400943Y194661D01*
X401084Y195652D01*
X401223Y196644D01*
X401358Y197636D01*
X401491Y198628D01*
X401621Y199621D01*
X401747Y200614D01*
X401871Y201608D01*
X401992Y202602D01*
X402109Y203596D01*
X402224Y204591D01*
X402336Y205586D01*
X402445Y206581D01*
X402551Y207577D01*
X402654Y208573D01*
X402754Y209569D01*
X402851Y210566D01*
X402945Y211563D01*
X403036Y212560D01*
X403124Y213557D01*
X403209Y214555D01*
X403291Y215553D01*
X403370Y216551D01*
X403446Y217549D01*
X403520Y218548D01*
X403590Y219547D01*
X403657Y220546D01*
X403721Y221545D01*
X403783Y222544D01*
X403841Y223544D01*
X403896Y224544D01*
X403948Y225543D01*
X403998Y226544D01*
X404044Y227544D01*
X404087Y228544D01*
X404128Y229545D01*
X404165Y230545D01*
X404200Y231546D01*
X404231Y232547D01*
X404259Y233547D01*
X404285Y234548D01*
X404307Y235549D01*
X404327Y236551D01*
X404343Y237552D01*
X404357Y238553D01*
X404367Y239554D01*
X404375Y240555D01*
X404379Y241557D01*
X404381Y242558D01*
X404379Y243559D01*
X404375Y244561D01*
X404367Y245562D01*
X404357Y246563D01*
X404344Y247564D01*
X404327Y248565D01*
X404308Y249566D01*
X404285Y250568D01*
X404260Y251568D01*
X404232Y252569D01*
X404201Y253570D01*
X404166Y254571D01*
X404129Y255571D01*
X404089Y256572D01*
X404045Y257572D01*
X403999Y258572D01*
X403950Y259572D01*
X403898Y260572D01*
X403842Y261572D01*
X403784Y262572D01*
X403723Y263571D01*
X403659Y264570D01*
X403592Y265569D01*
X403522Y266568D01*
X403449Y267567D01*
X403373Y268565D01*
X403294Y269563D01*
X403212Y270561D01*
X403127Y271559D01*
X403039Y272556D01*
X402948Y273553D01*
X402854Y274550D01*
X402757Y275547D01*
X402657Y276543D01*
X402554Y277539D01*
X402448Y278535D01*
X402340Y279530D01*
X402228Y280525D01*
X402113Y281520D01*
X401995Y282514D01*
X401875Y283508D01*
X401751Y284502D01*
X401624Y285495D01*
X401495Y286488D01*
X401362Y287480D01*
X401227Y288473D01*
X401088Y289464D01*
X400947Y290456D01*
X400803Y291446D01*
X400655Y292437D01*
X400505Y293427D01*
X400352Y294416D01*
X400196Y295405D01*
X400037Y296394D01*
X399875Y297382D01*
X399710Y298369D01*
X399542Y299356D01*
X399371Y300343D01*
X399197Y301329D01*
X399020Y302315D01*
X398840Y303300D01*
X398658Y304284D01*
X398472Y305268D01*
X398284Y306251D01*
X398092Y307234D01*
X397898Y308217D01*
X397700Y309198D01*
X397500Y310179D01*
X397297Y311160D01*
X397091Y312139D01*
X396882Y313119D01*
X396670Y314097D01*
X396455Y315075D01*
X396237Y316053D01*
X396017Y317029D01*
X395793Y318005D01*
X395566Y318981D01*
X395337Y319955D01*
X395105Y320929D01*
X394869Y321902D01*
X394631Y322875D01*
X394390Y323847D01*
X394146Y324818D01*
X393899Y325788D01*
X393650Y326758D01*
X393397Y327727D01*
X393141Y328695D01*
X392883Y329662D01*
X392622Y330629D01*
X392357Y331595D01*
X392090Y332560D01*
X391821Y333524D01*
X391548Y334487D01*
X391272Y335450D01*
X390993Y336411D01*
X390712Y337372D01*
X390428Y338333D01*
X390141Y339292D01*
X389850Y340250D01*
X389558Y341208D01*
X389262Y342164D01*
X388963Y343120D01*
X388662Y344075D01*
X388358Y345029D01*
X388050Y345982D01*
X387740Y346934D01*
X387428Y347885D01*
X387112Y348835D01*
X386793Y349784D01*
X386472Y350733D01*
X386148Y351680D01*
X385821Y352626D01*
X385491Y353572D01*
X385159Y354516D01*
X384823Y355460D01*
X384485Y356402D01*
X384144Y357344D01*
X383800Y358284D01*
X383453Y359223D01*
X383104Y360162D01*
X382752Y361099D01*
X382397Y362035D01*
X382039Y362970D01*
X381678Y363904D01*
X381315Y364837D01*
X380949Y365769D01*
X380580Y366700D01*
X380208Y367630D01*
X379833Y368558D01*
X379456Y369486D01*
X379076Y370412D01*
X378693Y371337D01*
X378308Y372262D01*
X377919Y373184D01*
X377528Y374106D01*
X377134Y375027D01*
X376738Y375946D01*
X376338Y376864D01*
X375936Y377781D01*
X375532Y378697D01*
X375124Y379612D01*
X374714Y380525D01*
X374301Y381437D01*
X373885Y382348D01*
X373467Y383258D01*
X373045Y384166D01*
X372622Y385073D01*
X372195Y385979D01*
X371766Y386884D01*
X371334Y387787D01*
X370899Y388689D01*
X370462Y389590D01*
X370022Y390489D01*
X369579Y391387D01*
X369134Y392284D01*
X368686Y393180D01*
X368235Y394074D01*
X367782Y394967D01*
X367326Y395858D01*
X366867Y396748D01*
X366406Y397637D01*
X365942Y398524D01*
X365475Y399410D01*
X365006Y400294D01*
X364534Y401177D01*
X364059Y402059D01*
X363582Y402939D01*
X363102Y403818D01*
X362620Y404696D01*
X362135Y405572D01*
X361647Y406446D01*
X361157Y407319D01*
X360664Y408191D01*
X360168Y409061D01*
X359670Y409929D01*
X359170Y410796D01*
X358666Y411662D01*
X358161Y412526D01*
X357652Y413389D01*
X357141Y414250D01*
X356628Y415109D01*
X356112Y415968D01*
X355593Y416824D01*
X355072Y417679D01*
X354548Y418532D01*
X354022Y419384D01*
X353493Y420234D01*
X352961Y421083D01*
X352428Y421930D01*
X351891Y422776D01*
X351352Y423619D01*
X350811Y424462D01*
X350267Y425302D01*
X349720Y426141D01*
X349171Y426978D01*
X348620Y427814D01*
X348066Y428648D01*
X347510Y429481D01*
X346951Y430311D01*
X346389Y431141D01*
X345825Y431968D01*
X345259Y432794D01*
X344690Y433618D01*
X344119Y434440D01*
X343545Y435261D01*
X342969Y436080D01*
X342390Y436897D01*
X341809Y437712D01*
X341226Y438526D01*
X340640Y439338D01*
X340052Y440148D01*
X339461Y440957D01*
X338868Y441763D01*
X338272Y442568D01*
X337674Y443371D01*
X337074Y444173D01*
X336471Y444972D01*
X335866Y445770D01*
X335259Y446566D01*
X334649Y447360D01*
X334036Y448152D01*
X333422Y448943D01*
X332805Y449731D01*
X332796Y449742D01*
X332796Y449742D02*
X331794Y449738D01*
X330792Y449726D01*
X329790Y449705D01*
X328788Y449675D01*
X327786Y449637D01*
X326785Y449591D01*
X325784Y449536D01*
X324784Y449473D01*
X323784Y449402D01*
X322785Y449322D01*
X321787Y449233D01*
X320789Y449137D01*
X319793Y449032D01*
X318797Y448918D01*
X317802Y448796D01*
X316808Y448666D01*
X315815Y448528D01*
X314824Y448381D01*
X313834Y448226D01*
X312845Y448062D01*
X311858Y447891D01*
X310872Y447711D01*
X309887Y447522D01*
X308904Y447326D01*
X307923Y447121D01*
X306944Y446908D01*
X305966Y446686D01*
X304991Y446457D01*
X304017Y446219D01*
X303045Y445973D01*
X302076Y445719D01*
X301109Y445457D01*
X300143Y445187D01*
X299181Y444909D01*
X298220Y444622D01*
X297262Y444328D01*
X296306Y444025D01*
X295354Y443715D01*
X294403Y443396D01*
X293456Y443069D01*
X292511Y442735D01*
X291569Y442392D01*
X290630Y442042D01*
X289694Y441684D01*
X288761Y441318D01*
X287831Y440944D01*
X286904Y440562D01*
X285980Y440173D01*
X285060Y439776D01*
X284143Y439371D01*
X283230Y438958D01*
X282320Y438538D01*
X281414Y438110D01*
X280511Y437675D01*
X279612Y437232D01*
X278717Y436781D01*
X277825Y436323D01*
X276938Y435858D01*
X276054Y435385D01*
X275174Y434904D01*
X274299Y434416D01*
X273427Y433921D01*
X272560Y433419D01*
X271697Y432909D01*
X270838Y432392D01*
X269984Y431868D01*
X269134Y431337D01*
X268289Y430799D01*
X267448Y430253D01*
X266612Y429701D01*
X265780Y429141D01*
X264953Y428575D01*
X264131Y428001D01*
X263314Y427421D01*
X262502Y426834D01*
X261694Y426240D01*
X260892Y425639D01*
X260095Y425032D01*
X259303Y424418D01*
X258516Y423797D01*
X257734Y423170D01*
X256958Y422536D01*
X256187Y421895D01*
X255421Y421249D01*
X254661Y420595D01*
X253906Y419936D01*
X253157Y419270D01*
X252414Y418598D01*
X251676Y417919D01*
X250944Y417235D01*
X250218Y416544D01*
X249497Y415847D01*
X248783Y415144D01*
X248074Y414436D01*
X247372Y413721D01*
X246675Y413000D01*
X245984Y412274D01*
X245300Y411542D01*
X244622Y410804D01*
X243950Y410060D01*
X243284Y409311D01*
X242624Y408556D01*
X241971Y407796D01*
X241325Y407030D01*
X240685Y406259D01*
X240051Y405483D01*
X239424Y404701D01*
X238803Y403914D01*
X238189Y403122D01*
X237582Y402324D01*
X236981Y401522D01*
X236388Y400714D01*
X235801Y399902D01*
X235221Y399085D01*
X234647Y398263D01*
X234081Y397436D01*
X233522Y396604D01*
X232969Y395768D01*
X232424Y394927D01*
X231886Y394081D01*
X231355Y393231D01*
X230831Y392377D01*
X230314Y391518D01*
X229805Y390655D01*
X229302Y389788D01*
X228807Y388916D01*
X228320Y388041D01*
X227840Y387161D01*
X227367Y386277D01*
X226902Y385389D01*
X226444Y384498D01*
X225993Y383603D01*
X225550Y382703D01*
X225115Y381801D01*
X224687Y380894D01*
X224267Y379984D01*
X223855Y379071D01*
X223450Y378154D01*
X223053Y377234D01*
X222664Y376310D01*
X222283Y375383D01*
X221909Y374453D01*
X221543Y373520D01*
X221185Y372584D01*
X220835Y371645D01*
X220493Y370703D01*
X220159Y369758D01*
X219832Y368810D01*
X219514Y367860D01*
X219203Y366907D01*
X218901Y365951D01*
X218607Y364993D01*
X218320Y364033D01*
X218042Y363070D01*
X217772Y362105D01*
X217510Y361137D01*
X217256Y360168D01*
X217011Y359196D01*
X216773Y358222D01*
X216544Y357247D01*
X216323Y356269D01*
X216110Y355290D01*
X215905Y354309D01*
X215709Y353326D01*
X215521Y352341D01*
X215341Y351355D01*
X215169Y350368D01*
X215006Y349379D01*
X214851Y348389D01*
X214704Y347397D01*
X214566Y346405D01*
X214436Y345411D01*
X214315Y344416D01*
X214201Y343420D01*
X214097Y342423D01*
X214000Y341426D01*
X213912Y340427D01*
X213832Y339428D01*
X213761Y338429D01*
X213698Y337428D01*
X213644Y336428D01*
X213597Y335426D01*
X213560Y334425D01*
X213530Y333423D01*
X213510Y332421D01*
X213497Y331419D01*
X213493Y330416D01*
X213498Y329414D01*
X213510Y328412D01*
X213532Y327410D01*
X213561Y326408D01*
X213599Y325407D01*
X213646Y324406D01*
X213701Y323405D01*
X213764Y322405D01*
X213836Y321405D01*
X213916Y320406D01*
X214004Y319408D01*
X214101Y318410D01*
X214206Y317413D01*
X214320Y316417D01*
X214442Y315423D01*
X214572Y314429D01*
X214711Y313436D01*
X573261Y418475D02*
X572579Y418998D01*
X571785Y419327D01*
X570932Y419439D01*
X575108Y354751D02*
X575696Y355439D01*
X576168Y356210D01*
X576514Y357045D01*
X576725Y357925D01*
X576796Y358826D01*
X463207Y351216D02*
X462159Y351008D01*
X461271Y350414D01*
X395786Y167112D02*
X396426Y166343D01*
X397068Y165576D01*
X397711Y164810D01*
X398356Y164046D01*
X399003Y163283D01*
X399650Y162521D01*
X400300Y161760D01*
X400950Y161000D01*
X401602Y160242D01*
X402256Y159485D01*
X402911Y158729D01*
X403567Y157975D01*
X404225Y157221D01*
X404885Y156469D01*
X405545Y155719D01*
X406208Y154969D01*
X406871Y154221D01*
X407537Y153474D01*
X408203Y152728D01*
X408871Y151984D01*
X409541Y151241D01*
X410211Y150499D01*
X410884Y149759D01*
X411557Y149020D01*
X412233Y148282D01*
X412909Y147545D01*
X413587Y146810D01*
X414266Y146076D01*
X414947Y145343D01*
X415629Y144612D01*
X416313Y143882D01*
X416998Y143153D01*
X417685Y142426D01*
X418372Y141700D01*
X419062Y140975D01*
X419752Y140252D01*
X420444Y139530D01*
X421138Y138809D01*
X421832Y138089D01*
X422529Y137371D01*
X423226Y136654D01*
X423925Y135939D01*
X424625Y135225D01*
X425327Y134512D01*
X426030Y133801D01*
X426734Y133091D01*
X427440Y132382D01*
X428147Y131675D01*
X428856Y130969D01*
X429565Y130265D01*
X430277Y129561D01*
X430989Y128860D01*
X431703Y128159D01*
X432418Y127460D01*
X433135Y126762D01*
X433853Y126066D01*
X434572Y125371D01*
X435293Y124678D01*
X436015Y123986D01*
X436738Y123295D01*
X437463Y122605D01*
X438189Y121917D01*
X438916Y121231D01*
X439644Y120546D01*
X440374Y119862D01*
X441105Y119179D01*
X441838Y118499D01*
X442572Y117819D01*
X443307Y117141D01*
X444043Y116464D01*
X444781Y115789D01*
X445520Y115115D01*
X446260Y114442D01*
X447002Y113771D01*
X447745Y113102D01*
X448489Y112434D01*
X449234Y111767D01*
X449981Y111101D01*
X450729Y110438D01*
X451478Y109775D01*
X452229Y109114D01*
X452981Y108455D01*
X453734Y107797D01*
X454488Y107140D01*
X455244Y106485D01*
X456001Y105831D01*
X456759Y105179D01*
X457518Y104528D01*
X458279Y103879D01*
X459041Y103231D01*
X459804Y102584D01*
X460569Y101939D01*
X461334Y101296D01*
X462101Y100654D01*
X462869Y100013D01*
X463639Y99374D01*
X464409Y98737D01*
X465181Y98101D01*
X465954Y97466D01*
X466728Y96833D01*
X467504Y96201D01*
X468280Y95571D01*
X469058Y94943D01*
X469837Y94315D01*
X470618Y93690D01*
X471399Y93066D01*
X472182Y92443D01*
X472966Y91822D01*
X473751Y91202D01*
X474537Y90584D01*
X475324Y89968D01*
X476113Y89353D01*
X476903Y88739D01*
X477694Y88127D01*
X478486Y87516D01*
X479280Y86908D01*
X480074Y86300D01*
X480870Y85694D01*
X481667Y85090D01*
X482465Y84487D01*
X483264Y83886D01*
X484064Y83286D01*
X484866Y82688D01*
X485668Y82091D01*
X486472Y81496D01*
X487277Y80902D01*
X488083Y80310D01*
X488890Y79720D01*
X489699Y79131D01*
X490508Y78543D01*
X491319Y77957D01*
X492130Y77373D01*
X492943Y76790D01*
X493757Y76209D01*
X494572Y75630D01*
X495388Y75052D01*
X496206Y74475D01*
X497024Y73900D01*
X497844Y73327D01*
X498664Y72755D01*
X499486Y72185D01*
X500309Y71617D01*
X501133Y71050D01*
X501958Y70484D01*
X502784Y69921D01*
X503611Y69358D01*
X504439Y68798D01*
X505269Y68239D01*
X506099Y67681D01*
X506930Y67126D01*
X507763Y66571D01*
X508597Y66019D01*
X509431Y65468D01*
X510267Y64918D01*
X511104Y64371D01*
X511942Y63824D01*
X512781Y63280D01*
X513620Y62737D01*
X514461Y62196D01*
X515303Y61656D01*
X516146Y61118D01*
X516991Y60581D01*
X517836Y60046D01*
X518682Y59513D01*
X519529Y58982D01*
X520377Y58452D01*
X521226Y57923D01*
X522077Y57397D01*
X522928Y56872D01*
X523780Y56348D01*
X524633Y55826D01*
X525488Y55306D01*
X526343Y54788D01*
X527199Y54271D01*
X528056Y53756D01*
X528914Y53242D01*
X529774Y52731D01*
X530634Y52220D01*
X531495Y51712D01*
X532357Y51205D01*
X533220Y50700D01*
X534084Y50196D01*
X534949Y49694D01*
X535815Y49194D01*
X536683Y48695D01*
X537550Y48198D01*
X538419Y47703D01*
X539289Y47209D01*
X540160Y46717D01*
X541032Y46227D01*
X541904Y45739D01*
X542778Y45252D01*
X543653Y44767D01*
X544528Y44283D01*
X545404Y43801D01*
X546282Y43321D01*
X547160Y42843D01*
X548039Y42366D01*
X548919Y41891D01*
X549800Y41418D01*
X550682Y40946D01*
X551565Y40476D01*
X552449Y40007D01*
X553334Y39541D01*
X554219Y39076D01*
X555105Y38613D01*
X555993Y38151D01*
X556881Y37692D01*
X557770Y37234D01*
X558660Y36777D01*
X559551Y36323D01*
X560443Y35870D01*
X561335Y35419D01*
X562229Y34969D01*
X563123Y34521D01*
X564018Y34075D01*
X564914Y33631D01*
X565811Y33189D01*
X566709Y32748D01*
X567607Y32309D01*
X568507Y31871D01*
X569407Y31435D01*
X570308Y31001D01*
X571210Y30569D01*
X572113Y30139D01*
X573016Y29710D01*
X573921Y29283D01*
X574826Y28858D01*
X575732Y28434D01*
X576639Y28013D01*
X577547Y27593D01*
X578455Y27174D01*
X579364Y26758D01*
X580274Y26343D01*
X581185Y25930D01*
X582097Y25519D01*
X583009Y25109D01*
X583923Y24702D01*
X584837Y24296D01*
X585751Y23891D01*
X586667Y23489D01*
X587583Y23088D01*
X588500Y22689D01*
X589418Y22292D01*
X590337Y21897D01*
X591257Y21503D01*
X592177Y21111D01*
X593097Y20721D01*
X594019Y20333D01*
X594942Y19946D01*
X595865Y19561D01*
X596789Y19178D01*
X597713Y18797D01*
X598639Y18418D01*
X599565Y18040D01*
X600492Y17664D01*
X601419Y17290D01*
X602347Y16918D01*
X603276Y16547D01*
X604206Y16179D01*
X605136Y15812D01*
X606068Y15447D01*
X606999Y15083D01*
X607932Y14721D01*
X608865Y14362D01*
X609799Y14004D01*
X610733Y13648D01*
X611669Y13293D01*
X612605Y12941D01*
X613541Y12590D01*
X614478Y12241D01*
X615416Y11894D01*
X616355Y11548D01*
X617294Y11205D01*
X618234Y10863D01*
X619175Y10523D01*
X620116Y10185D01*
X621058Y9849D01*
X622000Y9514D01*
X622944Y9181D01*
X623887Y8851D01*
X624832Y8522D01*
X625777Y8194D01*
X626723Y7869D01*
X627669Y7545D01*
X628616Y7224D01*
X629564Y6904D01*
X630512Y6585D01*
X631461Y6269D01*
X632410Y5955D01*
X633360Y5642D01*
X634310Y5331D01*
X635262Y5022D01*
X636213Y4715D01*
X637166Y4410D01*
X638119Y4106D01*
X639073Y3804D01*
X640027Y3505D01*
X640981Y3207D01*
X641937Y2910D01*
X642892Y2616D01*
X643849Y2324D01*
X644806Y2033D01*
X645763Y1744D01*
X646721Y1457D01*
X647680Y1172D01*
X647691Y1169D01*
X461396Y192940D02*
X461974Y192123D01*
X462554Y191308D01*
X463136Y190494D01*
X463721Y189682D01*
X464307Y188871D01*
X464896Y188062D01*
X465487Y187255D01*
X466081Y186450D01*
X466676Y185645D01*
X467274Y184843D01*
X467874Y184042D01*
X468476Y183243D01*
X469080Y182446D01*
X469687Y181650D01*
X470296Y180856D01*
X470907Y180063D01*
X471520Y179272D01*
X472135Y178483D01*
X472752Y177696D01*
X473372Y176910D01*
X473994Y176126D01*
X474617Y175344D01*
X475244Y174564D01*
X475872Y173785D01*
X476502Y173008D01*
X477134Y172232D01*
X477769Y171458D01*
X478406Y170687D01*
X479044Y169916D01*
X479685Y169148D01*
X480328Y168382D01*
X480973Y167617D01*
X481621Y166853D01*
X482270Y166092D01*
X482921Y165333D01*
X483575Y164575D01*
X484230Y163819D01*
X484888Y163065D01*
X485547Y162313D01*
X486209Y161562D01*
X486873Y160813D01*
X487539Y160066D01*
X488207Y159321D01*
X488877Y158578D01*
X489549Y157837D01*
X490223Y157097D01*
X490899Y156360D01*
X491577Y155624D01*
X492257Y154890D01*
X492939Y154158D01*
X493623Y153428D01*
X494309Y152699D01*
X494997Y151973D01*
X495687Y151249D01*
X496380Y150526D01*
X497074Y149805D01*
X497770Y149086D01*
X498468Y148370D01*
X499168Y147655D01*
X499870Y146941D01*
X500574Y146230D01*
X501279Y145521D01*
X501987Y144814D01*
X502697Y144109D01*
X503409Y143405D01*
X504122Y142704D01*
X504838Y142005D01*
X505555Y141307D01*
X506275Y140612D01*
X506996Y139918D01*
X507719Y139226D01*
X508444Y138537D01*
X509171Y137849D01*
X509900Y137164D01*
X510630Y136480D01*
X511363Y135799D01*
X512098Y135119D01*
X512834Y134442D01*
X513572Y133766D01*
X514312Y133093D01*
X515054Y132421D01*
X515798Y131752D01*
X516543Y131085D01*
X517290Y130419D01*
X518040Y129756D01*
X518791Y129095D01*
X519544Y128436D01*
X520298Y127779D01*
X521055Y127124D01*
X521813Y126471D01*
X522573Y125820D01*
X523335Y125171D01*
X524098Y124525D01*
X524864Y123880D01*
X525631Y123238D01*
X526400Y122598D01*
X527170Y121959D01*
X527943Y121323D01*
X528717Y120689D01*
X529493Y120058D01*
X530270Y119428D01*
X531049Y118800D01*
X531831Y118175D01*
X532613Y117552D01*
X533398Y116931D01*
X534184Y116312D01*
X534972Y115695D01*
X535761Y115080D01*
X536553Y114468D01*
X537346Y113858D01*
X538140Y113250D01*
X538936Y112644D01*
X539734Y112040D01*
X540534Y111438D01*
X541335Y110839D01*
X542138Y110242D01*
X542942Y109647D01*
X543749Y109054D01*
X544556Y108464D01*
X545366Y107875D01*
X546177Y107289D01*
X546989Y106705D01*
X547804Y106124D01*
X548619Y105545D01*
X549437Y104967D01*
X550256Y104393D01*
X551076Y103820D01*
X551898Y103250D01*
X552722Y102682D01*
X553547Y102116D01*
X554374Y101552D01*
X555202Y100991D01*
X556032Y100432D01*
X556864Y99875D01*
X557696Y99321D01*
X558531Y98768D01*
X559367Y98219D01*
X560204Y97671D01*
X561043Y97126D01*
X561884Y96583D01*
X562726Y96042D01*
X563569Y95504D01*
X564414Y94968D01*
X565260Y94434D01*
X566108Y93903D01*
X566957Y93374D01*
X567808Y92847D01*
X568660Y92322D01*
X569514Y91800D01*
X570369Y91281D01*
X571225Y90763D01*
X572083Y90248D01*
X572943Y89736D01*
X573803Y89226D01*
X574665Y88718D01*
X575529Y88212D01*
X576394Y87709D01*
X577260Y87208D01*
X578128Y86710D01*
X578997Y86214D01*
X579867Y85720D01*
X580739Y85229D01*
X581612Y84740D01*
X582486Y84254D01*
X583362Y83769D01*
X584239Y83288D01*
X585117Y82809D01*
X585997Y82332D01*
X586878Y81857D01*
X587760Y81385D01*
X588644Y80916D01*
X589528Y80449D01*
X590415Y79984D01*
X591302Y79522D01*
X592191Y79062D01*
X593081Y78605D01*
X593972Y78150D01*
X594864Y77697D01*
X595758Y77247D01*
X596653Y76799D01*
X597549Y76354D01*
X598446Y75912D01*
X599345Y75472D01*
X600245Y75034D01*
X601146Y74599D01*
X602048Y74166D01*
X602951Y73735D01*
X603856Y73308D01*
X604761Y72882D01*
X605668Y72460D01*
X606576Y72039D01*
X607485Y71621D01*
X608395Y71206D01*
X609307Y70793D01*
X610219Y70383D01*
X611133Y69975D01*
X612048Y69569D01*
X612964Y69167D01*
X613881Y68766D01*
X614799Y68369D01*
X615718Y67973D01*
X616639Y67581D01*
X617560Y67190D01*
X618482Y66803D01*
X619406Y66418D01*
X620330Y66035D01*
X621256Y65655D01*
X622183Y65277D01*
X623110Y64902D01*
X624039Y64530D01*
X624969Y64160D01*
X625899Y63793D01*
X626831Y63428D01*
X627764Y63066D01*
X628697Y62706D01*
X629632Y62349D01*
X630568Y61995D01*
X631504Y61643D01*
X632442Y61293D01*
X633381Y60947D01*
X634320Y60602D01*
X635261Y60261D01*
X636202Y59922D01*
X637144Y59585D01*
X638088Y59251D01*
X639032Y58920D01*
X639977Y58591D01*
X640923Y58265D01*
X641870Y57942D01*
X642817Y57621D01*
X643766Y57302D01*
X644715Y56987D01*
X645666Y56674D01*
X646617Y56363D01*
X647569Y56055D01*
X648522Y55750D01*
X649476Y55448D01*
X650430Y55147D01*
X651385Y54850D01*
X652342Y54555D01*
X653299Y54263D01*
X654256Y53974D01*
X655215Y53687D01*
X656174Y53403D01*
X657135Y53121D01*
X658096Y52842D01*
X659057Y52566D01*
X660020Y52292D01*
X660983Y52021D01*
X661938Y51755D01*
X460726Y201707D02*
X461017Y202664D01*
X461303Y203623D01*
X461586Y204583D01*
X461864Y205544D01*
X462138Y206506D01*
X462408Y207469D01*
X462674Y208434D01*
X462936Y209399D01*
X463194Y210366D01*
X463447Y211334D01*
X463696Y212303D01*
X463942Y213273D01*
X464183Y214244D01*
X464420Y215216D01*
X464652Y216189D01*
X464881Y217163D01*
X465105Y218138D01*
X465325Y219114D01*
X465542Y220091D01*
X465753Y221068D01*
X465961Y222047D01*
X466165Y223027D01*
X466364Y224007D01*
X466559Y224988D01*
X466750Y225971D01*
X466936Y226953D01*
X467119Y227937D01*
X467297Y228922D01*
X467471Y229907D01*
X467641Y230893D01*
X467807Y231879D01*
X467968Y232867D01*
X468125Y233855D01*
X468278Y234844D01*
X468427Y235833D01*
X468571Y236823D01*
X468711Y237814D01*
X468847Y238805D01*
X468979Y239796D01*
X469107Y240789D01*
X469230Y241782D01*
X469349Y242775D01*
X469463Y243769D01*
X469574Y244763D01*
X469680Y245758D01*
X469782Y246754D01*
X469880Y247749D01*
X469973Y248745D01*
X470062Y249742D01*
X470147Y250739D01*
X470228Y251736D01*
X470304Y252733D01*
X470376Y253731D01*
X470444Y254730D01*
X470507Y255728D01*
X470567Y256727D01*
X470622Y257726D01*
X470672Y258725D01*
X470719Y259724D01*
X470761Y260724D01*
X470799Y261724D01*
X470832Y262723D01*
X470862Y263724D01*
X470887Y264724D01*
X470907Y265724D01*
X470924Y266724D01*
X470936Y267725D01*
X470944Y268725D01*
X470947Y269726D01*
X470947Y270726D01*
X470942Y271727D01*
X470932Y272727D01*
X470919Y273727D01*
X470901Y274728D01*
X470879Y275728D01*
X470853Y276728D01*
X470822Y277728D01*
X470787Y278728D01*
X470748Y279728D01*
X470704Y280727D01*
X470656Y281727D01*
X470604Y282726D01*
X470548Y283725D01*
X470487Y284723D01*
X470423Y285722D01*
X470353Y286720D01*
X470280Y287718D01*
X470202Y288715D01*
X470120Y289712D01*
X470034Y290709D01*
X469944Y291705D01*
X469849Y292701D01*
X469750Y293697D01*
X469646Y294692D01*
X469539Y295687D01*
X469427Y296681D01*
X469311Y297674D01*
X469191Y298668D01*
X469066Y299660D01*
X468937Y300653D01*
X468804Y301644D01*
X468667Y302635D01*
X468525Y303626D01*
X468379Y304615D01*
X468229Y305605D01*
X468075Y306593D01*
X467917Y307581D01*
X467754Y308568D01*
X467587Y309555D01*
X467416Y310540D01*
X467240Y311525D01*
X467061Y312509D01*
X466877Y313493D01*
X466689Y314476D01*
X466497Y315457D01*
X466300Y316438D01*
X466100Y317419D01*
X465895Y318398D01*
X465686Y319376D01*
X465473Y320354D01*
X465255Y321330D01*
X465033Y322306D01*
X464808Y323281D01*
X464578Y324254D01*
X464344Y325227D01*
X464106Y326199D01*
X463863Y327169D01*
X463617Y328139D01*
X463366Y329108D01*
X463111Y330075D01*
X462852Y331042D01*
X462589Y332007D01*
X462322Y332971D01*
X462050Y333934D01*
X461775Y334896D01*
X461495Y335856D01*
X461211Y336816D01*
X460924Y337774D01*
X460632Y338731D01*
X460336Y339686D01*
X460036Y340641D01*
X459731Y341594D01*
X459423Y342546D01*
X459111Y343496D01*
X458796Y344439D01*
X395786Y167112D02*
X396010Y168087D01*
X396231Y169064D01*
X396448Y170041D01*
X396663Y171019D01*
X396875Y171998D01*
X397084Y172977D01*
X397291Y173957D01*
X397494Y174937D01*
X397694Y175918D01*
X397892Y176900D01*
X398086Y177882D01*
X398278Y178865D01*
X398466Y179848D01*
X398652Y180832D01*
X398835Y181817D01*
X399015Y182802D01*
X399192Y183787D01*
X399365Y184773D01*
X399536Y185760D01*
X399705Y186747D01*
X399870Y187735D01*
X400032Y188723D01*
X400191Y189711D01*
X400347Y190700D01*
X400501Y191690D01*
X400651Y192680D01*
X400798Y193670D01*
X400943Y194661D01*
X401084Y195652D01*
X401223Y196644D01*
X401358Y197636D01*
X401491Y198628D01*
X401621Y199621D01*
X401747Y200614D01*
X401871Y201608D01*
X401992Y202602D01*
X402109Y203596D01*
X402224Y204591D01*
X402336Y205586D01*
X402445Y206581D01*
X402551Y207577D01*
X402654Y208573D01*
X402754Y209569D01*
X402851Y210566D01*
X402945Y211563D01*
X403036Y212560D01*
X403124Y213557D01*
X403209Y214555D01*
X403291Y215553D01*
X403370Y216551D01*
X403446Y217549D01*
X403520Y218548D01*
X403590Y219547D01*
X403657Y220546D01*
X403721Y221545D01*
X403783Y222544D01*
X403841Y223544D01*
X403896Y224544D01*
X403948Y225543D01*
X403998Y226544D01*
X404044Y227544D01*
X404087Y228544D01*
X404128Y229545D01*
X404165Y230545D01*
X404200Y231546D01*
X404231Y232547D01*
X404259Y233547D01*
X404285Y234548D01*
X404307Y235549D01*
X404327Y236551D01*
X404343Y237552D01*
X404357Y238553D01*
X404367Y239554D01*
X404375Y240555D01*
X404379Y241557D01*
X404381Y242558D01*
X404379Y243559D01*
X404375Y244561D01*
X404367Y245562D01*
X404357Y246563D01*
X404344Y247564D01*
X404327Y248565D01*
X404308Y249566D01*
X404285Y250568D01*
X404260Y251568D01*
X404232Y252569D01*
X404201Y253570D01*
X404166Y254571D01*
X404129Y255571D01*
X404089Y256572D01*
X404045Y257572D01*
X403999Y258572D01*
X403950Y259572D01*
X403898Y260572D01*
X403842Y261572D01*
X403784Y262572D01*
X403723Y263571D01*
X403659Y264570D01*
X403592Y265569D01*
X403522Y266568D01*
X403449Y267567D01*
X403373Y268565D01*
X403294Y269563D01*
X403212Y270561D01*
X403127Y271559D01*
X403039Y272556D01*
X402948Y273553D01*
X402854Y274550D01*
X402757Y275547D01*
X402657Y276543D01*
X402554Y277539D01*
X402448Y278535D01*
X402340Y279530D01*
X402228Y280525D01*
X402113Y281520D01*
X401995Y282514D01*
X401875Y283508D01*
X401751Y284502D01*
X401624Y285495D01*
X401495Y286488D01*
X401362Y287480D01*
X401227Y288473D01*
X401088Y289464D01*
X400947Y290456D01*
X400803Y291446D01*
X400655Y292437D01*
X400505Y293427D01*
X400352Y294416D01*
X400196Y295405D01*
X400037Y296394D01*
X399875Y297382D01*
X399710Y298369D01*
X399542Y299356D01*
X399371Y300343D01*
X399197Y301329D01*
X399020Y302315D01*
X398840Y303300D01*
X398658Y304284D01*
X398472Y305268D01*
X398284Y306251D01*
X398092Y307234D01*
X397898Y308217D01*
X397700Y309198D01*
X397500Y310179D01*
X397297Y311160D01*
X397091Y312139D01*
X396882Y313119D01*
X396670Y314097D01*
X396455Y315075D01*
X396237Y316053D01*
X396017Y317029D01*
X395793Y318005D01*
X395566Y318981D01*
X395337Y319955D01*
X395105Y320929D01*
X394869Y321902D01*
X394631Y322875D01*
X394390Y323847D01*
X394146Y324818D01*
X393899Y325788D01*
X393650Y326758D01*
X393397Y327727D01*
X393141Y328695D01*
X392883Y329662D01*
X392622Y330629D01*
X392357Y331595D01*
X392090Y332560D01*
X391821Y333524D01*
X391548Y334487D01*
X391272Y335450D01*
X390993Y336411D01*
X390712Y337372D01*
X390428Y338333D01*
X390141Y339292D01*
X389850Y340250D01*
X389558Y341208D01*
X389262Y342164D01*
X388963Y343120D01*
X388662Y344075D01*
X388358Y345029D01*
X388050Y345982D01*
X387740Y346934D01*
X387428Y347885D01*
X387112Y348835D01*
X386793Y349784D01*
X386472Y350733D01*
X386148Y351680D01*
X385821Y352626D01*
X385491Y353572D01*
X385159Y354516D01*
X384823Y355460D01*
X384485Y356402D01*
X384144Y357344D01*
X383800Y358284D01*
X383453Y359223D01*
X383104Y360162D01*
X382752Y361099D01*
X382397Y362035D01*
X382039Y362970D01*
X381678Y363904D01*
X381315Y364837D01*
X380949Y365769D01*
X380580Y366700D01*
X380208Y367630D01*
X379833Y368558D01*
X379456Y369486D01*
X379076Y370412D01*
X378693Y371337D01*
X378308Y372262D01*
X377919Y373184D01*
X377528Y374106D01*
X377134Y375027D01*
X376738Y375946D01*
X376338Y376864D01*
X375936Y377781D01*
X375532Y378697D01*
X375124Y379612D01*
X374714Y380525D01*
X374301Y381437D01*
X373885Y382348D01*
X373467Y383258D01*
X373045Y384166D01*
X372622Y385073D01*
X372195Y385979D01*
X371766Y386884D01*
X371334Y387787D01*
X370899Y388689D01*
X370462Y389590D01*
X370022Y390489D01*
X369579Y391387D01*
X369134Y392284D01*
X368686Y393180D01*
X368235Y394074D01*
X367782Y394967D01*
X367326Y395858D01*
X366867Y396748D01*
X366406Y397637D01*
X365942Y398524D01*
X365475Y399410D01*
X365006Y400294D01*
X364534Y401177D01*
X364059Y402059D01*
X363582Y402939D01*
X363102Y403818D01*
X362620Y404696D01*
X362135Y405572D01*
X361647Y406446D01*
X361157Y407319D01*
X360664Y408191D01*
X360168Y409061D01*
X359670Y409929D01*
X359170Y410796D01*
X358666Y411662D01*
X358161Y412526D01*
X357652Y413389D01*
X357141Y414250D01*
X356628Y415109D01*
X356112Y415968D01*
X355593Y416824D01*
X355072Y417679D01*
X354548Y418532D01*
X354022Y419384D01*
X353493Y420234D01*
X352961Y421083D01*
X352428Y421930D01*
X351891Y422776D01*
X351352Y423619D01*
X350811Y424462D01*
X350267Y425302D01*
X349720Y426141D01*
X349171Y426978D01*
X348620Y427814D01*
X348066Y428648D01*
X347510Y429481D01*
X346951Y430311D01*
X346389Y431141D01*
X345825Y431968D01*
X345259Y432794D01*
X344690Y433618D01*
X344119Y434440D01*
X343545Y435261D01*
X342969Y436080D01*
X342390Y436897D01*
X341809Y437712D01*
X341226Y438526D01*
X340640Y439338D01*
X340052Y440148D01*
X339461Y440957D01*
X338868Y441763D01*
X338272Y442568D01*
X337674Y443371D01*
X337074Y444173D01*
X336471Y444972D01*
X335866Y445770D01*
X335259Y446566D01*
X334649Y447360D01*
X334036Y448152D01*
X333422Y448943D01*
X332805Y449731D01*
X332796Y449742D01*
X332796Y449742D02*
X331794Y449738D01*
X330792Y449726D01*
X329790Y449705D01*
X328788Y449675D01*
X327786Y449637D01*
X326785Y449591D01*
X325784Y449536D01*
X324784Y449473D01*
X323784Y449402D01*
X322785Y449322D01*
X321787Y449233D01*
X320789Y449137D01*
X319793Y449032D01*
X318797Y448918D01*
X317802Y448796D01*
X316808Y448666D01*
X315815Y448528D01*
X314824Y448381D01*
X313834Y448226D01*
X312845Y448062D01*
X311858Y447891D01*
X310872Y447711D01*
X309887Y447522D01*
X308904Y447326D01*
X307923Y447121D01*
X306944Y446908D01*
X305966Y446686D01*
X304991Y446457D01*
X304017Y446219D01*
X303045Y445973D01*
X302076Y445719D01*
X301109Y445457D01*
X300143Y445187D01*
X299181Y444909D01*
X298220Y444622D01*
X297262Y444328D01*
X296306Y444025D01*
X295354Y443715D01*
X294403Y443396D01*
X293456Y443069D01*
X292511Y442735D01*
X291569Y442392D01*
X290630Y442042D01*
X289694Y441684D01*
X288761Y441318D01*
X287831Y440944D01*
X286904Y440562D01*
X285980Y440173D01*
X285060Y439776D01*
X284143Y439371D01*
X283230Y438958D01*
X282320Y438538D01*
X281414Y438110D01*
X280511Y437675D01*
X279612Y437232D01*
X278717Y436781D01*
X277825Y436323D01*
X276938Y435858D01*
X276054Y435385D01*
X275174Y434904D01*
X274299Y434416D01*
X273427Y433921D01*
X272560Y433419D01*
X271697Y432909D01*
X270838Y432392D01*
X269984Y431868D01*
X269134Y431337D01*
X268289Y430799D01*
X267448Y430253D01*
X266612Y429701D01*
X265780Y429141D01*
X264953Y428575D01*
X264131Y428001D01*
X263314Y427421D01*
X262502Y426834D01*
X261694Y426240D01*
X260892Y425639D01*
X260095Y425032D01*
X259303Y424418D01*
X258516Y423797D01*
X257734Y423170D01*
X256958Y422536D01*
X256187Y421895D01*
X255421Y421249D01*
X254661Y420595D01*
X253906Y419936D01*
X253157Y419270D01*
X252414Y418598D01*
X251676Y417919D01*
X250944Y417235D01*
X250218Y416544D01*
X249497Y415847D01*
X248783Y415144D01*
X248074Y414436D01*
X247372Y413721D01*
X246675Y413000D01*
X245984Y412274D01*
X245300Y411542D01*
X244622Y410804D01*
X243950Y410060D01*
X243284Y409311D01*
X242624Y408556D01*
X241971Y407796D01*
X241325Y407030D01*
X240685Y406259D01*
X240051Y405483D01*
X239424Y404701D01*
X238803Y403914D01*
X238189Y403122D01*
X237582Y402324D01*
X236981Y401522D01*
X236388Y400714D01*
X235801Y399902D01*
X235221Y399085D01*
X234647Y398263D01*
X234081Y397436D01*
X233522Y396604D01*
X232969Y395768D01*
X232424Y394927D01*
X231886Y394081D01*
X231355Y393231D01*
X230831Y392377D01*
X230314Y391518D01*
X229805Y390655D01*
X229302Y389788D01*
X228807Y388916D01*
X228320Y388041D01*
X227840Y387161D01*
X227367Y386277D01*
X226902Y385389D01*
X226444Y384498D01*
X225993Y383603D01*
X225550Y382703D01*
X225115Y381801D01*
X224687Y380894D01*
X224267Y379984D01*
X223855Y379071D01*
X223450Y378154D01*
X223053Y377234D01*
X222664Y376310D01*
X222283Y375383D01*
X221909Y374453D01*
X221543Y373520D01*
X221185Y372584D01*
X220835Y371645D01*
X220493Y370703D01*
X220159Y369758D01*
X219832Y368810D01*
X219514Y367860D01*
X219203Y366907D01*
X218901Y365951D01*
X218607Y364993D01*
X218320Y364033D01*
X218042Y363070D01*
X217772Y362105D01*
X217510Y361137D01*
X217256Y360168D01*
X217011Y359196D01*
X216773Y358222D01*
X216544Y357247D01*
X216323Y356269D01*
X216110Y355290D01*
X215905Y354309D01*
X215709Y353326D01*
X215521Y352341D01*
X215341Y351355D01*
X215169Y350368D01*
X215006Y349379D01*
X214851Y348389D01*
X214704Y347397D01*
X214566Y346405D01*
X214436Y345411D01*
X214315Y344416D01*
X214201Y343420D01*
X214097Y342423D01*
X214000Y341426D01*
X213912Y340427D01*
X213832Y339428D01*
X213761Y338429D01*
X213698Y337428D01*
X213644Y336428D01*
X213597Y335426D01*
X213560Y334425D01*
X213530Y333423D01*
X213510Y332421D01*
X213497Y331419D01*
X213493Y330416D01*
X213498Y329414D01*
X213510Y328412D01*
X213532Y327410D01*
X213561Y326408D01*
X213599Y325407D01*
X213646Y324406D01*
X213701Y323405D01*
X213764Y322405D01*
X213836Y321405D01*
X213916Y320406D01*
X214004Y319408D01*
X214101Y318410D01*
X214206Y317413D01*
X214320Y316417D01*
X214442Y315423D01*
X214572Y314429D01*
X214711Y313436D01*
X469610Y419439D02*
X468589Y419420D01*
X467569Y419363D01*
X466552Y419268D01*
X465539Y419134D01*
X464532Y418963D01*
X463532Y418754D01*
X462541Y418508D01*
X461559Y418226D01*
X460589Y417907D01*
X459631Y417551D01*
X458687Y417160D01*
X457759Y416734D01*
X456847Y416274D01*
X455953Y415780D01*
X455078Y415253D01*
X454224Y414693D01*
X453391Y414102D01*
X452580Y413480D01*
X451794Y412828D01*
X451032Y412148D01*
X450296Y411439D01*
X576796Y409939D02*
X576750Y410991D01*
X576613Y412035D01*
X576385Y413063D01*
X576068Y414068D01*
X575665Y415041D01*
X575179Y415975D01*
X574613Y416863D01*
X573972Y417698D01*
X573261Y418475D01*
X461271Y350414D02*
X460640Y349708D01*
X460091Y348935D01*
X459633Y348105D01*
X459270Y347230D01*
X459008Y346320D01*
X458849Y345385D01*
X458796Y344439D01*
X665738Y3155D02*
X666376Y3869D01*
X666930Y4649D01*
X667393Y5487D01*
X667759Y6371D01*
X668024Y7291D01*
X668185Y8235D01*
X668238Y9190D01*
X665738Y3155D02*
X666376Y3869D01*
X666930Y4649D01*
X667393Y5487D01*
X667759Y6371D01*
X668024Y7291D01*
X668185Y8235D01*
X668238Y9190D01*
X660944Y1169D02*
X662005Y1252D01*
X663039Y1501D01*
X664022Y1908D01*
X664929Y2464D01*
X665738Y3155D01*
X660944Y1169D02*
X662005Y1252D01*
X663039Y1501D01*
X664022Y1908D01*
X664929Y2464D01*
X665738Y3155D01*
X460726Y194558D02*
X460900Y193682D01*
X461396Y192940D01*
X668238Y40455D02*
X668192Y41507D01*
X668055Y42551D01*
X667827Y43579D01*
X667510Y44583D01*
X667107Y45556D01*
X666621Y46490D01*
X666055Y47379D01*
X665414Y48214D01*
X664703Y48990D01*
X174096Y419000D02*
X174638Y419224D01*
X449079Y411479D02*
X449174Y411439D01*
X359375Y192078D02*
X360347Y192271D01*
X361171Y192822D01*
X359375Y192078D02*
X360347Y192271D01*
X361171Y192822D01*
X361400Y193051D02*
X362348Y193125D01*
X363272Y193347D01*
X364150Y193711D01*
X364961Y194208D01*
X365684Y194825D01*
X366301Y195548D01*
X366798Y196358D01*
X367161Y197237D01*
X367383Y198161D01*
X367458Y199109D01*
X361400Y193051D02*
X362348Y193125D01*
X363272Y193347D01*
X364150Y193711D01*
X364961Y194208D01*
X365684Y194825D01*
X366301Y195548D01*
X366798Y196358D01*
X367161Y197237D01*
X367383Y198161D01*
X367458Y199109D01*
X449079Y411479D02*
X448859Y412454D01*
X448633Y413428D01*
X448400Y414400D01*
X448160Y415370D01*
X447914Y416339D01*
X447661Y417306D01*
X447401Y418272D01*
X447135Y419235D01*
X446862Y420197D01*
X446582Y421157D01*
X446296Y422115D01*
X446003Y423070D01*
X445704Y424024D01*
X445398Y424976D01*
X445086Y425925D01*
X444767Y426873D01*
X444441Y427818D01*
X444109Y428761D01*
X443771Y429702D01*
X443426Y430640D01*
X443075Y431576D01*
X442717Y432509D01*
X442353Y433440D01*
X441982Y434369D01*
X441605Y435294D01*
X441222Y436218D01*
X440832Y437138D01*
X440436Y438056D01*
X440034Y438971D01*
X439625Y439884D01*
X439210Y440793D01*
X438789Y441700D01*
X438362Y442604D01*
X437928Y443504D01*
X437489Y444402D01*
X437043Y445297D01*
X436590Y446188D01*
X436132Y447077D01*
X435668Y447962D01*
X435197Y448844D01*
X434721Y449723D01*
X434239Y450598D01*
X433750Y451471D01*
X433256Y452340D01*
X432755Y453205D01*
X432249Y454067D01*
X431736Y454925D01*
X431218Y455780D01*
X430694Y456631D01*
X430164Y457479D01*
X429628Y458323D01*
X429087Y459163D01*
X428539Y460000D01*
X427986Y460832D01*
X427427Y461661D01*
X426863Y462486D01*
X426293Y463308D01*
X425717Y464125D01*
X425136Y464938D01*
X424549Y465747D01*
X423956Y466552D01*
X423358Y467353D01*
X422754Y468150D01*
X422146Y468943D01*
X421531Y469731D01*
X420911Y470516D01*
X420286Y471296D01*
X419655Y472071D01*
X419019Y472843D01*
X418378Y473609D01*
X417732Y474372D01*
X417080Y475130D01*
X416423Y475883D01*
X415761Y476632D01*
X415093Y477377D01*
X414421Y478117D01*
X413744Y478852D01*
X413061Y479582D01*
X412374Y480308D01*
X411681Y481029D01*
X410984Y481745D01*
X410281Y482456D01*
X409574Y483163D01*
X408862Y483864D01*
X408145Y484561D01*
X407424Y485253D01*
X406697Y485940D01*
X405966Y486622D01*
X405230Y487298D01*
X404490Y487970D01*
X403745Y488636D01*
X402995Y489298D01*
X402241Y489954D01*
X401482Y490605D01*
X400719Y491251D01*
X399952Y491891D01*
X399180Y492527D01*
X398404Y493156D01*
X397623Y493781D01*
X396838Y494400D01*
X396049Y495014D01*
X395256Y495622D01*
X394458Y496225D01*
X393657Y496822D01*
X392851Y497414D01*
X392041Y498000D01*
X391228Y498581D01*
X390410Y499156D01*
X389588Y499725D01*
X388763Y500289D01*
X387933Y500847D01*
X387100Y501399D01*
X386263Y501946D01*
X385422Y502486D01*
X384578Y503021D01*
X383729Y503550D01*
X382878Y504074D01*
X382022Y504591D01*
X381163Y505103D01*
X380301Y505608D01*
X379435Y506108D01*
X378566Y506601D01*
X377693Y507089D01*
X376817Y507571D01*
X375938Y508046D01*
X375055Y508516D01*
X374170Y508979D01*
X373281Y509437D01*
X372389Y509888D01*
X371494Y510333D01*
X370595Y510772D01*
X369694Y511205D01*
X368790Y511631D01*
X367883Y512051D01*
X366973Y512465D01*
X366060Y512873D01*
X365145Y513274D01*
X364227Y513670D01*
X363306Y514058D01*
X362382Y514441D01*
X361456Y514817D01*
X360527Y515187D01*
X359596Y515550D01*
X358662Y515907D01*
X357726Y516257D01*
X356787Y516601D01*
X355846Y516939D01*
X354903Y517270D01*
X353957Y517594D01*
X353010Y517912D01*
X352060Y518224D01*
X351108Y518529D01*
X350154Y518827D01*
X349198Y519119D01*
X348239Y519404D01*
X347279Y519683D01*
X346317Y519955D01*
X345354Y520220D01*
X344388Y520479D01*
X343421Y520731D01*
X342452Y520977D01*
X341481Y521215D01*
X340509Y521447D01*
X339534Y521673D01*
X338559Y521891D01*
X337582Y522103D01*
X336604Y522309D01*
X335624Y522507D01*
X334643Y522699D01*
X333661Y522884D01*
X332677Y523062D01*
X331692Y523233D01*
X330706Y523398D01*
X329719Y523556D01*
X328731Y523707D01*
X327741Y523851D01*
X326751Y523989D01*
X325760Y524119D01*
X324768Y524243D01*
X323775Y524360D01*
X322782Y524470D01*
X321788Y524573D01*
X320793Y524670D01*
X319797Y524759D01*
X318801Y524842D01*
X317804Y524918D01*
X316807Y524987D01*
X315809Y525049D01*
X314811Y525104D01*
X313812Y525153D01*
X312813Y525194D01*
X311814Y525229D01*
X310815Y525257D01*
X309816Y525278D01*
X308816Y525292D01*
X307816Y525299D01*
X306817Y525299D01*
X305817Y525292D01*
X304818Y525279D01*
X303818Y525259D01*
X302819Y525231D01*
X301820Y525197D01*
X300821Y525156D01*
X299822Y525108D01*
X298824Y525054D01*
X297826Y524992D01*
X296829Y524923D01*
X295832Y524848D01*
X294836Y524766D01*
X293840Y524677D01*
X292845Y524581D01*
X291851Y524478D01*
X290857Y524368D01*
X289864Y524252D01*
X288872Y524129D01*
X287881Y523999D01*
X286891Y523862D01*
X285902Y523718D01*
X284913Y523567D01*
X283926Y523410D01*
X282940Y523246D01*
X281955Y523075D01*
X280971Y522897D01*
X279989Y522713D01*
X279008Y522522D01*
X278028Y522324D01*
X277049Y522119D01*
X276072Y521908D01*
X275097Y521690D01*
X274123Y521465D01*
X273150Y521233D01*
X272179Y520995D01*
X271210Y520750D01*
X270243Y520498D01*
X269277Y520240D01*
X268313Y519975D01*
X267351Y519704D01*
X266391Y519425D01*
X265432Y519141D01*
X264476Y518849D01*
X263522Y518552D01*
X262570Y518247D01*
X261620Y517936D01*
X260672Y517619D01*
X259726Y517295D01*
X258783Y516964D01*
X214711Y313434D02*
X215045Y312491D01*
X215387Y311550D01*
X215736Y310613D01*
X216094Y309679D01*
X216459Y308747D01*
X216833Y307819D01*
X217214Y306894D01*
X217603Y305972D01*
X218000Y305054D01*
X218405Y304139D01*
X218818Y303227D01*
X219238Y302319D01*
X219666Y301415D01*
X220102Y300514D01*
X220545Y299617D01*
X220996Y298724D01*
X221455Y297835D01*
X221921Y296950D01*
X222395Y296068D01*
X222876Y295191D01*
X223365Y294318D01*
X223861Y293449D01*
X224364Y292584D01*
X224875Y291724D01*
X225393Y290868D01*
X225918Y290016D01*
X226451Y289169D01*
X226991Y288327D01*
X227538Y287489D01*
X228092Y286656D01*
X228653Y285827D01*
X229221Y285004D01*
X229796Y284185D01*
X230378Y283371D01*
X230967Y282562D01*
X231563Y281759D01*
X232166Y280960D01*
X232775Y280167D01*
X233391Y279378D01*
X234014Y278595D01*
X234644Y277817D01*
X235280Y277045D01*
X235922Y276278D01*
X236572Y275517D01*
X237227Y274761D01*
X237889Y274011D01*
X238558Y273266D01*
X239232Y272528D01*
X239913Y271795D01*
X240601Y271067D01*
X241294Y270346D01*
X241993Y269631D01*
X242699Y268921D01*
X243411Y268218D01*
X244128Y267520D01*
X244851Y266829D01*
X245581Y266144D01*
X246316Y265465D01*
X247057Y264793D01*
X247803Y264127D01*
X248556Y263467D01*
X249313Y262814D01*
X250077Y262167D01*
X250846Y261526D01*
X251620Y260893D01*
X252399Y260265D01*
X253184Y259645D01*
X253974Y259031D01*
X254770Y258424D01*
X255570Y257824D01*
X256376Y257230D01*
X257187Y256644D01*
X258002Y256064D01*
X258822Y255492D01*
X259648Y254926D01*
X260478Y254367D01*
X261313Y253816D01*
X262152Y253272D01*
X262996Y252734D01*
X263845Y252204D01*
X264698Y251682D01*
X265556Y251166D01*
X266418Y250658D01*
X267284Y250157D01*
X268154Y249664D01*
X269029Y249178D01*
X269907Y248699D01*
X270790Y248228D01*
X271677Y247765D01*
X272568Y247309D01*
X273462Y246861D01*
X274360Y246420D01*
X275262Y245987D01*
X276168Y245562D01*
X277077Y245144D01*
X277990Y244734D01*
X278906Y244332D01*
X279826Y243938D01*
X280749Y243551D01*
X281675Y243173D01*
X282604Y242802D01*
X283537Y242440D01*
X284472Y242085D01*
X285411Y241738D01*
X286352Y241399D01*
X287297Y241069D01*
X288244Y240746D01*
X289194Y240431D01*
X290146Y240125D01*
X291101Y239826D01*
X292059Y239536D01*
X293019Y239254D01*
X293981Y238980D01*
X294946Y238715D01*
X295912Y238457D01*
X296881Y238208D01*
X297852Y237967D01*
X298826Y237734D01*
X299801Y237510D01*
X300778Y237294D01*
X301756Y237086D01*
X302737Y236886D01*
X303719Y236695D01*
X304703Y236513D01*
X305688Y236338D01*
X306675Y236172D01*
X307663Y236015D01*
X308652Y235866D01*
X309643Y235725D01*
X310634Y235593D01*
X311627Y235469D01*
X312621Y235354D01*
X313616Y235247D01*
X314612Y235148D01*
X315608Y235058D01*
X316605Y234977D01*
X317603Y234904D01*
X318602Y234840D01*
X319601Y234784D01*
X320600Y234736D01*
X321600Y234698D01*
X322600Y234667D01*
X323601Y234645D01*
X324601Y234632D01*
X325602Y234627D01*
X326602Y234631D01*
X327603Y234643D01*
X328603Y234664D01*
X329603Y234693D01*
X330603Y234731D01*
X331602Y234777D01*
X332601Y234832D01*
X333600Y234895D01*
X334598Y234967D01*
X335595Y235047D01*
X336592Y235136D01*
X337588Y235233D01*
X338583Y235338D01*
X339577Y235453D01*
X340570Y235575D01*
X341562Y235706D01*
X342552Y235846D01*
X343542Y235994D01*
X344530Y236150D01*
X345517Y236315D01*
X346502Y236488D01*
X347486Y236670D01*
X348469Y236860D01*
X349449Y237058D01*
X350429Y237265D01*
X166913Y300509D02*
X167148Y299537D01*
X167390Y298567D01*
X167638Y297598D01*
X167892Y296631D01*
X168153Y295665D01*
X168421Y294702D01*
X168694Y293740D01*
X168974Y292780D01*
X169261Y291822D01*
X169554Y290865D01*
X169853Y289911D01*
X170158Y288959D01*
X170470Y288009D01*
X170788Y287061D01*
X171113Y286115D01*
X171443Y285171D01*
X171780Y284229D01*
X172123Y283290D01*
X172473Y282353D01*
X172828Y281418D01*
X173190Y280486D01*
X173558Y279556D01*
X173933Y278629D01*
X174313Y277704D01*
X174699Y276782D01*
X175092Y275862D01*
X175491Y274945D01*
X175896Y274030D01*
X176306Y273119D01*
X176723Y272210D01*
X177146Y271303D01*
X177575Y270400D01*
X178010Y269499D01*
X178451Y268602D01*
X178898Y267707D01*
X179351Y266816D01*
X179809Y265927D01*
X180274Y265041D01*
X180744Y264159D01*
X181221Y263280D01*
X181703Y262403D01*
X182191Y261531D01*
X182685Y260661D01*
X183184Y259794D01*
X183689Y258931D01*
X184200Y258072D01*
X184717Y257216D01*
X185239Y256363D01*
X185767Y255514D01*
X186301Y254668D01*
X186840Y253826D01*
X187385Y252987D01*
X187935Y252152D01*
X188491Y251321D01*
X189053Y250493D01*
X189620Y249669D01*
X190192Y248849D01*
X190770Y248033D01*
X191353Y247221D01*
X191941Y246412D01*
X192535Y245608D01*
X193135Y244807D01*
X193739Y244010D01*
X194349Y243218D01*
X194964Y242429D01*
X195585Y241645D01*
X196210Y240865D01*
X196841Y240089D01*
X197477Y239317D01*
X198118Y238549D01*
X198764Y237786D01*
X199415Y237027D01*
X200071Y236272D01*
X200732Y235522D01*
X201398Y234776D01*
X202069Y234034D01*
X202745Y233297D01*
X203426Y232565D01*
X204112Y231837D01*
X204802Y231114D01*
X205497Y230395D01*
X206197Y229681D01*
X206902Y228971D01*
X207612Y228266D01*
X208326Y227566D01*
X209045Y226871D01*
X209768Y226180D01*
X210496Y225495D01*
X211228Y224814D01*
X211965Y224138D01*
X212707Y223467D01*
X213453Y222801D01*
X214203Y222140D01*
X214958Y221483D01*
X215717Y220832D01*
X216480Y220186D01*
X217248Y219545D01*
X218020Y218909D01*
X218796Y218279D01*
X219576Y217653D01*
X220360Y217033D01*
X221149Y216418D01*
X221941Y215808D01*
X222738Y215203D01*
X223538Y214604D01*
X224343Y214010D01*
X225151Y213421D01*
X225964Y212838D01*
X226780Y212260D01*
X227600Y211688D01*
X228424Y211121D01*
X229251Y210560D01*
X230083Y210003D01*
X230918Y209453D01*
X231756Y208908D01*
X232598Y208369D01*
X233444Y207835D01*
X234293Y207307D01*
X235146Y206785D01*
X236002Y206268D01*
X236862Y205757D01*
X237725Y205252D01*
X238591Y204752D01*
X239461Y204259D01*
X240334Y203771D01*
X241210Y203289D01*
X242089Y202812D01*
X242972Y202342D01*
X243857Y201877D01*
X244746Y201418D01*
X245638Y200966D01*
X246532Y200519D01*
X247430Y200078D01*
X248330Y199643D01*
X249234Y199214D01*
X250140Y198791D01*
X251049Y198374D01*
X251961Y197963D01*
X252875Y197558D01*
X253792Y197160D01*
X254712Y196767D01*
X255634Y196380D01*
X256559Y196000D01*
X257487Y195626D01*
X258416Y195258D01*
X259349Y194896D01*
X260283Y194540D01*
X261220Y194191D01*
X262159Y193848D01*
X263101Y193511D01*
X264045Y193180D01*
X264991Y192855D01*
X265939Y192537D01*
X266889Y192225D01*
X267841Y191920D01*
X268795Y191621D01*
X269752Y191328D01*
X270710Y191041D01*
X271670Y190761D01*
X272632Y190488D01*
X273595Y190220D01*
X274561Y189959D01*
X275528Y189705D01*
X276497Y189457D01*
X277467Y189215D01*
X278439Y188980D01*
X279413Y188751D01*
X280388Y188529D01*
X281364Y188313D01*
X282342Y188104D01*
X283321Y187901D01*
X284302Y187705D01*
X285284Y187515D01*
X286267Y187332D01*
X287251Y187155D01*
X288237Y186985D01*
X289223Y186821D01*
X290211Y186664D01*
X291199Y186514D01*
X292189Y186370D01*
X293180Y186232D01*
X294171Y186102D01*
X295163Y185977D01*
X296157Y185860D01*
X297150Y185749D01*
X298145Y185644D01*
X299140Y185547D01*
X300136Y185456D01*
X301132Y185371D01*
X302130Y185293D01*
X303127Y185222D01*
X304125Y185157D01*
X305123Y185099D01*
X306122Y185048D01*
X307121Y185003D01*
X308120Y184965D01*
X309120Y184933D01*
X310120Y184908D01*
X311120Y184890D01*
X312120Y184879D01*
X313120Y184874D01*
X314120Y184876D01*
X315120Y184884D01*
X316120Y184899D01*
X317119Y184921D01*
X318119Y184949D01*
X319118Y184984D01*
X320118Y185025D01*
X321116Y185074D01*
X322115Y185128D01*
X323113Y185190D01*
X324111Y185258D01*
X325108Y185333D01*
X326105Y185414D01*
X327101Y185502D01*
X328097Y185597D01*
X329091Y185698D01*
X330086Y185805D01*
X331079Y185920D01*
X332072Y186041D01*
X333064Y186169D01*
X334055Y186303D01*
X335045Y186443D01*
X336034Y186591D01*
X337022Y186745D01*
X338009Y186905D01*
X338995Y187072D01*
X339980Y187246D01*
X340964Y187426D01*
X341946Y187612D01*
X342927Y187805D01*
X343907Y188005D01*
X344886Y188211D01*
X345863Y188424D01*
X346839Y188643D01*
X347813Y188869D01*
X348786Y189101D01*
X349757Y189339D01*
X350727Y189584D01*
X351694Y189836D01*
X352661Y190094D01*
X353625Y190358D01*
X354588Y190628D01*
X355549Y190905D01*
X356508Y191189D01*
X357465Y191479D01*
X358420Y191775D01*
X359373Y192077D01*
X367458Y220339D02*
X367429Y221331D01*
X367343Y222320D01*
X367199Y223301D01*
X366998Y224273D01*
X366741Y225232D01*
X366429Y226173D01*
X366063Y227096D01*
X365644Y227995D01*
X365173Y228868D01*
X364652Y229713D01*
X364083Y230525D01*
X363467Y231304D01*
X362807Y232045D01*
X362106Y232747D01*
X361365Y233406D01*
X360586Y234022D01*
X359773Y234591D01*
X358929Y235112D01*
X358056Y235583D01*
X357156Y236002D01*
X356234Y236368D01*
X355292Y236681D01*
X354334Y236937D01*
X353362Y237138D01*
X352380Y237282D01*
X351392Y237368D01*
X350400Y237397D01*
X367458Y220339D02*
X367429Y221331D01*
X367343Y222320D01*
X367199Y223301D01*
X366998Y224273D01*
X366741Y225232D01*
X366429Y226173D01*
X366063Y227096D01*
X365644Y227995D01*
X365173Y228868D01*
X364652Y229713D01*
X364083Y230525D01*
X363467Y231304D01*
X362807Y232045D01*
X362106Y232747D01*
X361365Y233406D01*
X360586Y234022D01*
X359773Y234591D01*
X358929Y235112D01*
X358056Y235583D01*
X357156Y236002D01*
X356234Y236368D01*
X355292Y236681D01*
X354334Y236937D01*
X353362Y237138D01*
X352380Y237282D01*
X351392Y237368D01*
X350400Y237397D01*
X214711Y313434D02*
X215045Y312491D01*
X215387Y311550D01*
X215736Y310613D01*
X216094Y309679D01*
X216459Y308747D01*
X216833Y307819D01*
X217214Y306894D01*
X217603Y305972D01*
X218000Y305054D01*
X218405Y304139D01*
X218818Y303227D01*
X219238Y302319D01*
X219666Y301415D01*
X220102Y300514D01*
X220545Y299617D01*
X220996Y298724D01*
X221455Y297835D01*
X221921Y296950D01*
X222395Y296068D01*
X222876Y295191D01*
X223365Y294318D01*
X223861Y293449D01*
X224364Y292584D01*
X224875Y291724D01*
X225393Y290868D01*
X225918Y290016D01*
X226451Y289169D01*
X226991Y288327D01*
X227538Y287489D01*
X228092Y286656D01*
X228653Y285827D01*
X229221Y285004D01*
X229796Y284185D01*
X230378Y283371D01*
X230967Y282562D01*
X231563Y281759D01*
X232166Y280960D01*
X232775Y280167D01*
X233391Y279378D01*
X234014Y278595D01*
X234644Y277817D01*
X235280Y277045D01*
X235922Y276278D01*
X236572Y275517D01*
X237227Y274761D01*
X237889Y274011D01*
X238558Y273266D01*
X239232Y272528D01*
X239913Y271795D01*
X240601Y271067D01*
X241294Y270346D01*
X241993Y269631D01*
X242699Y268921D01*
X243411Y268218D01*
X244128Y267520D01*
X244851Y266829D01*
X245581Y266144D01*
X246316Y265465D01*
X247057Y264793D01*
X247803Y264127D01*
X248556Y263467D01*
X249313Y262814D01*
X250077Y262167D01*
X250846Y261526D01*
X251620Y260893D01*
X252399Y260265D01*
X253184Y259645D01*
X253974Y259031D01*
X254770Y258424D01*
X255570Y257824D01*
X256376Y257230D01*
X257187Y256644D01*
X258002Y256064D01*
X258822Y255492D01*
X259648Y254926D01*
X260478Y254367D01*
X261313Y253816D01*
X262152Y253272D01*
X262996Y252734D01*
X263845Y252204D01*
X264698Y251682D01*
X265556Y251166D01*
X266418Y250658D01*
X267284Y250157D01*
X268154Y249664D01*
X269029Y249178D01*
X269907Y248699D01*
X270790Y248228D01*
X271677Y247765D01*
X272568Y247309D01*
X273462Y246861D01*
X274360Y246420D01*
X275262Y245987D01*
X276168Y245562D01*
X277077Y245144D01*
X277990Y244734D01*
X278906Y244332D01*
X279826Y243938D01*
X280749Y243551D01*
X281675Y243173D01*
X282604Y242802D01*
X283537Y242440D01*
X284472Y242085D01*
X285411Y241738D01*
X286352Y241399D01*
X287297Y241069D01*
X288244Y240746D01*
X289194Y240431D01*
X290146Y240125D01*
X291101Y239826D01*
X292059Y239536D01*
X293019Y239254D01*
X293981Y238980D01*
X294946Y238715D01*
X295912Y238457D01*
X296881Y238208D01*
X297852Y237967D01*
X298826Y237734D01*
X299801Y237510D01*
X300778Y237294D01*
X301756Y237086D01*
X302737Y236886D01*
X303719Y236695D01*
X304703Y236513D01*
X305688Y236338D01*
X306675Y236172D01*
X307663Y236015D01*
X308652Y235866D01*
X309643Y235725D01*
X310634Y235593D01*
X311627Y235469D01*
X312621Y235354D01*
X313616Y235247D01*
X314612Y235148D01*
X315608Y235058D01*
X316605Y234977D01*
X317603Y234904D01*
X318602Y234840D01*
X319601Y234784D01*
X320600Y234736D01*
X321600Y234698D01*
X322600Y234667D01*
X323601Y234645D01*
X324601Y234632D01*
X325602Y234627D01*
X326602Y234631D01*
X327603Y234643D01*
X328603Y234664D01*
X329603Y234693D01*
X330603Y234731D01*
X331602Y234777D01*
X332601Y234832D01*
X333600Y234895D01*
X334598Y234967D01*
X335595Y235047D01*
X336592Y235136D01*
X337588Y235233D01*
X338583Y235338D01*
X339577Y235453D01*
X340570Y235575D01*
X341562Y235706D01*
X342552Y235846D01*
X343542Y235994D01*
X344530Y236150D01*
X345517Y236315D01*
X346502Y236488D01*
X347486Y236670D01*
X348469Y236860D01*
X349449Y237058D01*
X350429Y237265D01*
X449079Y411479D02*
X448859Y412454D01*
X448633Y413428D01*
X448400Y414400D01*
X448160Y415370D01*
X447914Y416339D01*
X447661Y417306D01*
X447401Y418272D01*
X447135Y419235D01*
X446862Y420197D01*
X446582Y421157D01*
X446296Y422115D01*
X446003Y423070D01*
X445704Y424024D01*
X445398Y424976D01*
X445086Y425925D01*
X444767Y426873D01*
X444441Y427818D01*
X444109Y428761D01*
X443771Y429702D01*
X443426Y430640D01*
X443075Y431576D01*
X442717Y432509D01*
X442353Y433440D01*
X441982Y434369D01*
X441605Y435294D01*
X441222Y436218D01*
X440832Y437138D01*
X440436Y438056D01*
X440034Y438971D01*
X439625Y439884D01*
X439210Y440793D01*
X438789Y441700D01*
X438362Y442604D01*
X437928Y443504D01*
X437489Y444402D01*
X437043Y445297D01*
X436590Y446188D01*
X436132Y447077D01*
X435668Y447962D01*
X435197Y448844D01*
X434721Y449723D01*
X434239Y450598D01*
X433750Y451471D01*
X433256Y452340D01*
X432755Y453205D01*
X432249Y454067D01*
X431736Y454925D01*
X431218Y455780D01*
X430694Y456631D01*
X430164Y457479D01*
X429628Y458323D01*
X429087Y459163D01*
X428539Y460000D01*
X427986Y460832D01*
X427427Y461661D01*
X426863Y462486D01*
X426293Y463308D01*
X425717Y464125D01*
X425136Y464938D01*
X424549Y465747D01*
X423956Y466552D01*
X423358Y467353D01*
X422754Y468150D01*
X422146Y468943D01*
X421531Y469731D01*
X420911Y470516D01*
X420286Y471296D01*
X419655Y472071D01*
X419019Y472843D01*
X418378Y473609D01*
X417732Y474372D01*
X417080Y475130D01*
X416423Y475883D01*
X415761Y476632D01*
X415093Y477377D01*
X414421Y478117D01*
X413744Y478852D01*
X413061Y479582D01*
X412374Y480308D01*
X411681Y481029D01*
X410984Y481745D01*
X410281Y482456D01*
X409574Y483163D01*
X408862Y483864D01*
X408145Y484561D01*
X407424Y485253D01*
X406697Y485940D01*
X405966Y486622D01*
X405230Y487298D01*
X404490Y487970D01*
X403745Y488636D01*
X402995Y489298D01*
X402241Y489954D01*
X401482Y490605D01*
X400719Y491251D01*
X399952Y491891D01*
X399180Y492527D01*
X398404Y493156D01*
X397623Y493781D01*
X396838Y494400D01*
X396049Y495014D01*
X395256Y495622D01*
X394458Y496225D01*
X393657Y496822D01*
X392851Y497414D01*
X392041Y498000D01*
X391228Y498581D01*
X390410Y499156D01*
X389588Y499725D01*
X388763Y500289D01*
X387933Y500847D01*
X387100Y501399D01*
X386263Y501946D01*
X385422Y502486D01*
X384578Y503021D01*
X383729Y503550D01*
X382878Y504074D01*
X382022Y504591D01*
X381163Y505103D01*
X380301Y505608D01*
X379435Y506108D01*
X378566Y506601D01*
X377693Y507089D01*
X376817Y507571D01*
X375938Y508046D01*
X375055Y508516D01*
X374170Y508979D01*
X373281Y509437D01*
X372389Y509888D01*
X371494Y510333D01*
X370595Y510772D01*
X369694Y511205D01*
X368790Y511631D01*
X367883Y512051D01*
X366973Y512465D01*
X366060Y512873D01*
X365145Y513274D01*
X364227Y513670D01*
X363306Y514058D01*
X362382Y514441D01*
X361456Y514817D01*
X360527Y515187D01*
X359596Y515550D01*
X358662Y515907D01*
X357726Y516257D01*
X356787Y516601D01*
X355846Y516939D01*
X354903Y517270D01*
X353957Y517594D01*
X353010Y517912D01*
X352060Y518224D01*
X351108Y518529D01*
X350154Y518827D01*
X349198Y519119D01*
X348239Y519404D01*
X347279Y519683D01*
X346317Y519955D01*
X345354Y520220D01*
X344388Y520479D01*
X343421Y520731D01*
X342452Y520977D01*
X341481Y521215D01*
X340509Y521447D01*
X339534Y521673D01*
X338559Y521891D01*
X337582Y522103D01*
X336604Y522309D01*
X335624Y522507D01*
X334643Y522699D01*
X333661Y522884D01*
X332677Y523062D01*
X331692Y523233D01*
X330706Y523398D01*
X329719Y523556D01*
X328731Y523707D01*
X327741Y523851D01*
X326751Y523989D01*
X325760Y524119D01*
X324768Y524243D01*
X323775Y524360D01*
X322782Y524470D01*
X321788Y524573D01*
X320793Y524670D01*
X319797Y524759D01*
X318801Y524842D01*
X317804Y524918D01*
X316807Y524987D01*
X315809Y525049D01*
X314811Y525104D01*
X313812Y525153D01*
X312813Y525194D01*
X311814Y525229D01*
X310815Y525257D01*
X309816Y525278D01*
X308816Y525292D01*
X307816Y525299D01*
X306817Y525299D01*
X305817Y525292D01*
X304818Y525279D01*
X303818Y525259D01*
X302819Y525231D01*
X301820Y525197D01*
X300821Y525156D01*
X299822Y525108D01*
X298824Y525054D01*
X297826Y524992D01*
X296829Y524923D01*
X295832Y524848D01*
X294836Y524766D01*
X293840Y524677D01*
X292845Y524581D01*
X291851Y524478D01*
X290857Y524368D01*
X289864Y524252D01*
X288872Y524129D01*
X287881Y523999D01*
X286891Y523862D01*
X285902Y523718D01*
X284913Y523567D01*
X283926Y523410D01*
X282940Y523246D01*
X281955Y523075D01*
X280971Y522897D01*
X279989Y522713D01*
X279008Y522522D01*
X278028Y522324D01*
X277049Y522119D01*
X276072Y521908D01*
X275097Y521690D01*
X274123Y521465D01*
X273150Y521233D01*
X272179Y520995D01*
X271210Y520750D01*
X270243Y520498D01*
X269277Y520240D01*
X268313Y519975D01*
X267351Y519704D01*
X266391Y519425D01*
X265432Y519141D01*
X264476Y518849D01*
X263522Y518552D01*
X262570Y518247D01*
X261620Y517936D01*
X260672Y517619D01*
X259726Y517295D01*
X258783Y516964D01*
X166913Y300509D02*
X167148Y299537D01*
X167390Y298567D01*
X167638Y297598D01*
X167892Y296631D01*
X168153Y295665D01*
X168421Y294702D01*
X168694Y293740D01*
X168974Y292780D01*
X169261Y291822D01*
X169554Y290865D01*
X169853Y289911D01*
X170158Y288959D01*
X170470Y288009D01*
X170788Y287061D01*
X171113Y286115D01*
X171443Y285171D01*
X171780Y284229D01*
X172123Y283290D01*
X172473Y282353D01*
X172828Y281418D01*
X173190Y280486D01*
X173558Y279556D01*
X173933Y278629D01*
X174313Y277704D01*
X174699Y276782D01*
X175092Y275862D01*
X175491Y274945D01*
X175896Y274030D01*
X176306Y273119D01*
X176723Y272210D01*
X177146Y271303D01*
X177575Y270400D01*
X178010Y269499D01*
X178451Y268602D01*
X178898Y267707D01*
X179351Y266816D01*
X179809Y265927D01*
X180274Y265041D01*
X180744Y264159D01*
X181221Y263280D01*
X181703Y262403D01*
X182191Y261531D01*
X182685Y260661D01*
X183184Y259794D01*
X183689Y258931D01*
X184200Y258072D01*
X184717Y257216D01*
X185239Y256363D01*
X185767Y255514D01*
X186301Y254668D01*
X186840Y253826D01*
X187385Y252987D01*
X187935Y252152D01*
X188491Y251321D01*
X189053Y250493D01*
X189620Y249669D01*
X190192Y248849D01*
X190770Y248033D01*
X191353Y247221D01*
X191941Y246412D01*
X192535Y245608D01*
X193135Y244807D01*
X193739Y244010D01*
X194349Y243218D01*
X194964Y242429D01*
X195585Y241645D01*
X196210Y240865D01*
X196841Y240089D01*
X197477Y239317D01*
X198118Y238549D01*
X198764Y237786D01*
X199415Y237027D01*
X200071Y236272D01*
X200732Y235522D01*
X201398Y234776D01*
X202069Y234034D01*
X202745Y233297D01*
X203426Y232565D01*
X204112Y231837D01*
X204802Y231114D01*
X205497Y230395D01*
X206197Y229681D01*
X206902Y228971D01*
X207612Y228266D01*
X208326Y227566D01*
X209045Y226871D01*
X209768Y226180D01*
X210496Y225495D01*
X211228Y224814D01*
X211965Y224138D01*
X212707Y223467D01*
X213453Y222801D01*
X214203Y222140D01*
X214958Y221483D01*
X215717Y220832D01*
X216480Y220186D01*
X217248Y219545D01*
X218020Y218909D01*
X218796Y218279D01*
X219576Y217653D01*
X220360Y217033D01*
X221149Y216418D01*
X221941Y215808D01*
X222738Y215203D01*
X223538Y214604D01*
X224343Y214010D01*
X225151Y213421D01*
X225964Y212838D01*
X226780Y212260D01*
X227600Y211688D01*
X228424Y211121D01*
X229251Y210560D01*
X230083Y210003D01*
X230918Y209453D01*
X231756Y208908D01*
X232598Y208369D01*
X233444Y207835D01*
X234293Y207307D01*
X235146Y206785D01*
X236002Y206268D01*
X236862Y205757D01*
X237725Y205252D01*
X238591Y204752D01*
X239461Y204259D01*
X240334Y203771D01*
X241210Y203289D01*
X242089Y202812D01*
X242972Y202342D01*
X243857Y201877D01*
X244746Y201418D01*
X245638Y200966D01*
X246532Y200519D01*
X247430Y200078D01*
X248330Y199643D01*
X249234Y199214D01*
X250140Y198791D01*
X251049Y198374D01*
X251961Y197963D01*
X252875Y197558D01*
X253792Y197160D01*
X254712Y196767D01*
X255634Y196380D01*
X256559Y196000D01*
X257487Y195626D01*
X258416Y195258D01*
X259349Y194896D01*
X260283Y194540D01*
X261220Y194191D01*
X262159Y193848D01*
X263101Y193511D01*
X264045Y193180D01*
X264991Y192855D01*
X265939Y192537D01*
X266889Y192225D01*
X267841Y191920D01*
X268795Y191621D01*
X269752Y191328D01*
X270710Y191041D01*
X271670Y190761D01*
X272632Y190488D01*
X273595Y190220D01*
X274561Y189959D01*
X275528Y189705D01*
X276497Y189457D01*
X277467Y189215D01*
X278439Y188980D01*
X279413Y188751D01*
X280388Y188529D01*
X281364Y188313D01*
X282342Y188104D01*
X283321Y187901D01*
X284302Y187705D01*
X285284Y187515D01*
X286267Y187332D01*
X287251Y187155D01*
X288237Y186985D01*
X289223Y186821D01*
X290211Y186664D01*
X291199Y186514D01*
X292189Y186370D01*
X293180Y186232D01*
X294171Y186102D01*
X295163Y185977D01*
X296157Y185860D01*
X297150Y185749D01*
X298145Y185644D01*
X299140Y185547D01*
X300136Y185456D01*
X301132Y185371D01*
X302130Y185293D01*
X303127Y185222D01*
X304125Y185157D01*
X305123Y185099D01*
X306122Y185048D01*
X307121Y185003D01*
X308120Y184965D01*
X309120Y184933D01*
X310120Y184908D01*
X311120Y184890D01*
X312120Y184879D01*
X313120Y184874D01*
X314120Y184876D01*
X315120Y184884D01*
X316120Y184899D01*
X317119Y184921D01*
X318119Y184949D01*
X319118Y184984D01*
X320118Y185025D01*
X321116Y185074D01*
X322115Y185128D01*
X323113Y185190D01*
X324111Y185258D01*
X325108Y185333D01*
X326105Y185414D01*
X327101Y185502D01*
X328097Y185597D01*
X329091Y185698D01*
X330086Y185805D01*
X331079Y185920D01*
X332072Y186041D01*
X333064Y186169D01*
X334055Y186303D01*
X335045Y186443D01*
X336034Y186591D01*
X337022Y186745D01*
X338009Y186905D01*
X338995Y187072D01*
X339980Y187246D01*
X340964Y187426D01*
X341946Y187612D01*
X342927Y187805D01*
X343907Y188005D01*
X344886Y188211D01*
X345863Y188424D01*
X346839Y188643D01*
X347813Y188869D01*
X348786Y189101D01*
X349757Y189339D01*
X350727Y189584D01*
X351694Y189836D01*
X352661Y190094D01*
X353625Y190358D01*
X354588Y190628D01*
X355549Y190905D01*
X356508Y191189D01*
X357465Y191479D01*
X358420Y191775D01*
X359373Y192077D01*
X258782Y516964D02*
X257914Y516460D01*
X257049Y515952D01*
X256187Y515439D01*
X255327Y514922D01*
X254470Y514400D01*
X253616Y513874D01*
X252764Y513344D01*
X251915Y512809D01*
X251069Y512270D01*
X250226Y511726D01*
X249385Y511178D01*
X248547Y510626D01*
X247712Y510070D01*
X246880Y509509D01*
X246051Y508944D01*
X245225Y508375D01*
X244402Y507802D01*
X243581Y507224D01*
X242764Y506642D01*
X241949Y506056D01*
X241138Y505466D01*
X240330Y504872D01*
X239524Y504273D01*
X238722Y503671D01*
X237923Y503064D01*
X237127Y502453D01*
X236334Y501838D01*
X235545Y501219D01*
X234758Y500596D01*
X233975Y499969D01*
X233195Y499338D01*
X232418Y498703D01*
X231645Y498064D01*
X230875Y497421D01*
X230108Y496774D01*
X229344Y496123D01*
X228584Y495468D01*
X227827Y494809D01*
X227074Y494147D01*
X226324Y493480D01*
X225577Y492810D01*
X224834Y492136D01*
X224095Y491458D01*
X223358Y490776D01*
X222626Y490091D01*
X221897Y489402D01*
X221171Y488709D01*
X220449Y488012D01*
X219731Y487312D01*
X219016Y486608D01*
X218305Y485900D01*
X217597Y485189D01*
X216893Y484474D01*
X216193Y483755D01*
X215497Y483033D01*
X214804Y482307D01*
X214115Y481578D01*
X213430Y480845D01*
X212748Y480109D01*
X212070Y479369D01*
X211397Y478626D01*
X210726Y477879D01*
X210060Y477129D01*
X209398Y476375D01*
X208739Y475618D01*
X208085Y474858D01*
X207434Y474094D01*
X206787Y473327D01*
X206145Y472557D01*
X205506Y471783D01*
X204871Y471006D01*
X204240Y470226D01*
X203613Y469443D01*
X202990Y468656D01*
X202372Y467866D01*
X201757Y467073D01*
X201146Y466277D01*
X200540Y465478D01*
X199937Y464676D01*
X199339Y463870D01*
X198745Y463062D01*
X198155Y462250D01*
X197569Y461436D01*
X196988Y460618D01*
X196410Y459798D01*
X195837Y458974D01*
X195268Y458148D01*
X194703Y457318D01*
X194143Y456486D01*
X193587Y455651D01*
X193035Y454813D01*
X192488Y453973D01*
X191944Y453129D01*
X191405Y452283D01*
X190871Y451434D01*
X190341Y450582D01*
X189815Y449727D01*
X189294Y448870D01*
X188777Y448010D01*
X188264Y447148D01*
X187756Y446283D01*
X187252Y445415D01*
X186753Y444545D01*
X186258Y443672D01*
X185768Y442796D01*
X185283Y441919D01*
X184801Y441038D01*
X184325Y440155D01*
X183853Y439270D01*
X183385Y438382D01*
X182922Y437492D01*
X182464Y436600D01*
X182010Y435705D01*
X181560Y434808D01*
X181116Y433908D01*
X180676Y433007D01*
X180240Y432103D01*
X179810Y431197D01*
X179384Y430288D01*
X178962Y429378D01*
X178545Y428465D01*
X178133Y427550D01*
X177726Y426634D01*
X177323Y425714D01*
X176926Y424793D01*
X176532Y423870D01*
X176144Y422945D01*
X175760Y422018D01*
X175382Y421089D01*
X175007Y420158D01*
X174638Y419225D01*
X167487Y397304D02*
X167237Y396340D01*
X166992Y395375D01*
X166752Y394409D01*
X166517Y393442D01*
X166287Y392473D01*
X166061Y391504D01*
X165841Y390533D01*
X165626Y389561D01*
X165415Y388588D01*
X165210Y387614D01*
X165009Y386639D01*
X164814Y385663D01*
X164623Y384686D01*
X164438Y383708D01*
X164257Y382729D01*
X164082Y381749D01*
X163911Y380768D01*
X163745Y379787D01*
X163585Y378804D01*
X163429Y377821D01*
X163279Y376837D01*
X163133Y375852D01*
X162993Y374867D01*
X162857Y373881D01*
X162727Y372894D01*
X162601Y371906D01*
X162481Y370918D01*
X162366Y369929D01*
X162255Y368940D01*
X162150Y367950D01*
X162050Y366960D01*
X161954Y365969D01*
X161864Y364978D01*
X161779Y363986D01*
X161699Y362994D01*
X161624Y362001D01*
X161554Y361008D01*
X161489Y360015D01*
X161430Y359021D01*
X161375Y358027D01*
X161325Y357033D01*
X161281Y356038D01*
X161241Y355044D01*
X161207Y354049D01*
X161177Y353054D01*
X161153Y352059D01*
X161134Y351063D01*
X161120Y350068D01*
X161111Y349073D01*
X161107Y348077D01*
X161108Y347082D01*
X161114Y346086D01*
X161125Y345091D01*
X161141Y344095D01*
X161162Y343100D01*
X161189Y342105D01*
X161220Y341110D01*
X161257Y340115D01*
X161299Y339121D01*
X161345Y338126D01*
X161397Y337132D01*
X161454Y336139D01*
X161516Y335145D01*
X161583Y334152D01*
X161655Y333159D01*
X161732Y332167D01*
X161814Y331174D01*
X161901Y330183D01*
X161993Y329192D01*
X162090Y328201D01*
X162193Y327211D01*
X162300Y326221D01*
X162412Y325232D01*
X162530Y324244D01*
X162652Y323256D01*
X162780Y322269D01*
X162912Y321282D01*
X163050Y320296D01*
X163192Y319311D01*
X163340Y318326D01*
X163493Y317343D01*
X163650Y316360D01*
X163813Y315378D01*
X163981Y314397D01*
X164153Y313416D01*
X164331Y312437D01*
X164514Y311458D01*
X164701Y310480D01*
X164894Y309504D01*
X165091Y308528D01*
X165294Y307554D01*
X165501Y306580D01*
X165714Y305607D01*
X165931Y304636D01*
X166153Y303666D01*
X166381Y302696D01*
X166613Y301729D01*
X166850Y300762D01*
X134500Y397500D02*
X133550Y396550D01*
X132600Y394600D02*
X133550Y395550D01*
X129250D02*
X130200Y394600D01*
X129250Y396550D02*
X128300Y397500D01*
X135300D02*
X134500D01*
X134550Y419150D02*
X135350D01*
X133600Y420100D02*
X134550Y419150D01*
X133600Y421100D02*
X132650Y422050D01*
X130250D02*
X129300Y421100D01*
X128350Y419150D02*
X129300Y420100D01*
X123150Y398450D02*
X124100Y397500D01*
X124050Y419150D02*
X123150Y418250D01*
X135363Y419140D02*
X135701Y419000D01*
X135300Y397500D02*
X135783Y397300D01*
X242308Y453640D02*
X242826Y453242D01*
X463207Y351216D02*
X566573D01*
X469610Y419439D02*
X570932D01*
X576796Y358826D02*
Y409939D01*
X469610Y419439D02*
X570932D01*
X576796Y358826D02*
Y409939D01*
X474733Y351216D02*
X566573D01*
X463207D02*
X474733D01*
X668238Y9190D02*
Y37155D01*
X647691Y1169D02*
X660944D01*
X647691D02*
X660944D01*
X460726Y194558D02*
Y201707D01*
X668238Y9190D02*
Y37155D01*
X661938Y51755D02*
X664703Y48990D01*
X668238Y37155D02*
Y40455D01*
X174638Y419224D02*
X174638Y419224D01*
X174047Y419000D02*
X174096D01*
X166851Y300760D02*
X166913Y300509D01*
X449174Y411439D02*
X450296D01*
X361171Y192822D02*
X361400Y193051D01*
X367458Y199109D02*
Y220339D01*
Y199109D02*
Y220339D01*
X350400Y237397D02*
X350429Y237265D01*
X149200Y397300D02*
X167500D01*
X133550Y395550D02*
Y396550D01*
X130200Y394600D02*
X132600D01*
X129250Y395550D02*
Y396550D01*
X124050Y419150D02*
X128350D01*
X123150Y398450D02*
Y418250D01*
X124100Y397500D02*
X128300D01*
X133600Y420100D02*
Y421100D01*
X130250Y422050D02*
X132650D01*
X129300Y420100D02*
Y421100D01*
X149200Y419000D02*
X174047D01*
X135701D02*
X149200D01*
X135783Y397300D02*
X149200D01*
X240649Y441784D02*
X240810Y441438D01*
M02*
