G04*
G04 #@! TF.GenerationSoftware,Altium Limited,Altium Designer,24.10.1 (45)*
G04*
G04 Layer_Color=32896*
%FSLAX25Y25*%
%MOIN*%
G70*
G04*
G04 #@! TF.SameCoordinates,83C887BF-E30F-42F8-BBC8-2091E9C979B4*
G04*
G04*
G04 #@! TF.FilePolarity,Positive*
G04*
G01*
G75*
%ADD12C,0.01000*%
D12*
X211154Y417053D02*
X208583Y420116D01*
X213178Y423971D01*
X215748Y420908D01*
X210881Y422044D02*
X212166Y420512D01*
X217034Y419376D02*
X218319Y417845D01*
X217676Y418611D01*
X213081Y414755D01*
X213205Y416163D01*
X215652Y411692D02*
X220246Y415547D01*
X222174Y413250D01*
X222051Y411842D01*
X221285Y411199D01*
X219877Y411322D01*
X217949Y413620D01*
X219877Y411322D01*
X219754Y409914D01*
X218988Y409271D01*
X217579Y409395D01*
X215652Y411692D01*
X175700Y384899D02*
X171702D01*
Y378901D01*
X175700D01*
X171702Y381900D02*
X173701D01*
X177700Y383899D02*
X178699Y384899D01*
X180699D01*
X181698Y383899D01*
Y382900D01*
X180699Y381900D01*
X181698Y380900D01*
Y379901D01*
X180699Y378901D01*
X178699D01*
X177700Y379901D01*
Y380900D01*
X178699Y381900D01*
X177700Y382900D01*
Y383899D01*
X178699Y381900D02*
X180699D01*
M02*
