M48
;Layer_Color=9474304
;FILE_FORMAT=2:4
INCH,LZ
;TYPE=PLATED
T01F00S00C0.0059
T02F00S00C0.0098
T03F00S00C0.0130
T04F00S00C0.0276
T05F00S00C0.0340
;TYPE=NON_PLATED
T06F00S00C0.0256
T07F00S00C0.0315
T08F00S00C0.0420
T09F00S00C0.0433
T10F00S00C0.0457
%
T01
X060191Y010658
X060585
X060979
X061372
X061175Y011051
X060782
X060388
X060585Y011445
X060979
X061372
X061175Y011839
X061569
X06168Y01223
Y01263
Y013
Y0134
X06164Y01437
X062025Y014272
X0613Y01464
Y01492
X06163Y01508
X061939Y015492
X06111Y0154
X06083Y01541
X06078Y01559
X06072Y01526
X06096
X06088Y01414
X06039Y01415
X05962Y01416
X059404Y013807
X059207Y013414
X059601
X059797Y01302
X059404
X059207Y012626
X059601
X059797Y012233
X059404
X059207Y011839
X059601
X059994
X060388
X060782
X060191Y011445
X05893Y01408
X05892Y01523
X05912
Y01546
X05892
X06284Y01526
X06261Y01494
X06314Y01484
X06329Y01469
Y01438
X06315Y01452
Y01423
X06338Y01418
X06357Y01431
Y0145
X0635Y0155
X06429Y01529
X06519Y01509
X06542Y01498
X06541Y01526
X06531Y01546
X065561Y015431
X065691Y015301
X066389Y015272
X06651Y01513
X066829Y015159
X067076Y01515
X067297Y01513
X068317Y015143
X0688Y01559
X06898Y01558
X069606Y015374
X06954Y01518
X06986Y01536
X06666Y014661
X066541Y014511
X06621Y01466
X066346Y014129
X066444Y013994
X06617Y01379
X06618Y01355
X06642Y01337
X06565Y01352
X06559Y0138
X06533Y0145
X066852Y014254
X067178Y01385
X06682Y01273
X06602Y01279
X06551Y01284
X0651Y012952
X064619Y01262
X0646Y012264
X06464Y01161
X06505Y01166
X06529Y012248
X065506Y011051
X0659
X06728Y0109
Y01066
X0642Y01142
X0639
X06359
X063728Y01183
X063307Y01188
X063446Y012034
X062933Y01188
X06312Y012995
X063362Y013256
X06359Y01321
X06356Y012743
X06389Y01242
X064087Y01297
X064273Y01295
X06429Y01313
X06436Y01331
X064555Y01336
X06304Y01352
X06264Y01325
Y01309
Y01292
X06286Y01615
X06304Y01619
X06325
X0635Y0159
X06332Y01571
X06396Y01613
X06392Y016742
X06372
X06353Y016799
X063141Y016719
X06412Y016799
X06426Y01759
X06455Y01742
X06481
X064503Y018033
X06411Y017987
X063959Y017819
X063476Y017826
X06292Y01769
X06278Y01781
X062702Y017984
X06267Y01892
X064354Y018424
X06476Y01834
X06502Y01816
X06545Y018118
Y018454
X06588Y018118
X066663Y018123
X06698Y01836
X06717
X067348Y01829
X06748Y01843
X06771Y01839
X06788Y01832
X068063Y018307
X06828Y01831
X069247Y018269
X06926Y01773
X06959
X06984Y01766
X06983Y01724
X069095Y017047
X069125Y016862
X069261Y016084
X06898Y01584
X069852Y016122
X06964Y01895
Y01916
X069647Y019369
X069397
X069Y01965
X06863Y01937
X06835Y01945
X068023Y019377
X06778Y01936
X067902Y019771
X06749Y01971
X06753Y02008
X06703Y02028
X06732Y02081
X067584Y020996
X06828Y02104
X0687Y02165
X068082Y022014
X06739Y02232
X06684Y02198
X06701Y02124
X066432Y020752
X066112Y020502
X066098Y020109
X066112Y019712
X066432Y019722
X066112Y019322
Y018932
X06642Y01885
X06711Y01857
X06624Y017286
X06608Y017416
X066158Y016786
X06609Y01662
X06619Y01645
X06609Y01626
X066088Y016075
X066199Y015895
X065931Y015871
X06566Y01604
X06552Y01618
X06536Y01654
X06529Y01694
X065831Y016401
X065272Y01569
X06495Y0158
X064558Y015718
X06653Y015758
X06374Y017379
X06473Y01876
X06451Y02094
X06494Y02096
X065098Y021683
X06513Y022
X06563
X0657Y02231
X06563Y02124
X0647Y02185
X064214Y021479
X06391Y02094
X06353
X063471Y02248
X064193Y022382
X0695Y02228
X06974
X069737Y022029
X0617Y02203
Y0223
X06139
Y02203
X060756Y021972
X060561
X06045Y02099
X06027Y02085
Y02114
X06095Y02116
X06115Y02094
X05934Y02108
X0591
Y02135
X05934
X05908Y02186
X05917Y02026
X05893
X05894Y01994
X05918
Y01967
X05894
X058941Y019396
X059181
Y019126
X058941
X05894Y01882
X05918
Y01855
X05894
X05892Y01772
X059207Y017351
X0596Y01772
X06039Y01803
Y01832
Y01862
Y01892
X060857Y019189
X0624Y01921
X06203Y01794
X061777Y016776
X06141Y01678
Y01634
X061777Y016336
X061942Y015888
X0623Y01618
X06235Y01674
X060349Y016463
X060149
X059849
X059649
X05911Y01624
X05891
Y01601
X05911
X05926Y01579
T02
X0589Y0106
Y01106
X0589Y0115
X06273Y01027
X06422Y01059
X06579Y01065
X06577Y01135
X067533Y013048
X067713Y013291
X068103Y013234
X068496
X06889
X06869Y01282
X06825Y01282
X06779
X06735Y01359
X067534Y014045
X06737Y01427
X067534Y014528
X068012Y014362
X0683Y01441
Y014
X068306Y013706
X0687
X06876Y014
X0692Y014
X069093Y013706
X069464Y013575
X069693Y013738
X0697Y0141
Y01456
X0697Y015
X069614Y013211
X06968Y01275
X068012Y013968
X068015Y014755
X06469Y02
X06425Y02
X06443Y02041
X06399Y02041
X06489Y02041
T03
X0641Y01384
X06443Y01457
X06479Y01456
X067Y01613
Y01656
X06745
Y01613
X0679
Y01656
X06835
Y01613
Y01701
X0679
X06745
X067
Y0175
X06745
X0679
X06835
T04
X059159Y014754
X060852
Y016644
X059159
T05
X06641Y0108
X06691
Y0113
X06641
Y0118
X06691
T06
X060006Y014222
T07
X063609Y01064
X06479
T08
X06626Y0103
X06706
X06666Y0123
T09
X064025Y015635
X06614Y02181
X0597Y01943
T10
X060006Y017175
M30
