G04*
G04 #@! TF.GenerationSoftware,Altium Limited,Altium Designer,24.10.1 (45)*
G04*
G04 Layer_Color=8388736*
%FSLAX25Y25*%
%MOIN*%
G70*
G04*
G04 #@! TF.SameCoordinates,9AACA658-A47F-4CCD-ABE2-8655193F7190*
G04*
G04*
G04 #@! TF.FilePolarity,Positive*
G04*
G01*
G75*
%ADD10C,0.01000*%
%ADD13C,0.00100*%
D10*
X210400Y391888D02*
Y397886D01*
X213399D01*
X214399Y396886D01*
Y394887D01*
X213399Y393887D01*
X210400D01*
X216398Y397886D02*
X218397D01*
X217398D01*
Y391888D01*
X216398D01*
X218397D01*
X231393Y396886D02*
X230394Y397886D01*
X228394D01*
X227395Y396886D01*
Y395887D01*
X228394Y394887D01*
X230394D01*
X231393Y393887D01*
Y392888D01*
X230394Y391888D01*
X228394D01*
X227395Y392888D01*
X234392Y396886D02*
Y395887D01*
X233393D01*
X235392D01*
X234392D01*
Y392888D01*
X235392Y391888D01*
X238391D02*
X240390D01*
X239391D01*
Y395887D01*
X238391D01*
X244389Y391888D02*
Y396886D01*
Y394887D01*
X243389D01*
X245389D01*
X244389D01*
Y396886D01*
X245389Y397886D01*
X249387Y391888D02*
Y396886D01*
Y394887D01*
X248388D01*
X250387D01*
X249387D01*
Y396886D01*
X250387Y397886D01*
X256385Y391888D02*
X254386D01*
X253386Y392888D01*
Y394887D01*
X254386Y395887D01*
X256385D01*
X257385Y394887D01*
Y393887D01*
X253386D01*
X259384Y391888D02*
Y395887D01*
X262383D01*
X263383Y394887D01*
Y391888D01*
X268381D02*
X266382D01*
X265382Y392888D01*
Y394887D01*
X266382Y395887D01*
X268381D01*
X269381Y394887D01*
Y393887D01*
X265382D01*
X271380Y395887D02*
Y391888D01*
Y393887D01*
X272380Y394887D01*
X273380Y395887D01*
X274379D01*
X283376D02*
Y392888D01*
X284376Y391888D01*
X285376Y392888D01*
X286375Y391888D01*
X287375Y392888D01*
Y395887D01*
X289374Y391888D02*
X291374D01*
X290374D01*
Y395887D01*
X289374D01*
X295373Y396886D02*
Y395887D01*
X294373D01*
X296372D01*
X295373D01*
Y392888D01*
X296372Y391888D01*
X299371Y397886D02*
Y391888D01*
Y394887D01*
X300371Y395887D01*
X302370D01*
X303370Y394887D01*
Y391888D01*
X313367Y389889D02*
X314366D01*
X315366Y390888D01*
Y395887D01*
X312367D01*
X311367Y394887D01*
Y392888D01*
X312367Y391888D01*
X315366D01*
X318365D02*
X320364D01*
X321364Y392888D01*
Y394887D01*
X320364Y395887D01*
X318365D01*
X317365Y394887D01*
Y392888D01*
X318365Y391888D01*
X323363D02*
X325363D01*
X324363D01*
Y397886D01*
X323363D01*
X332361D02*
Y391888D01*
X329362D01*
X328362Y392888D01*
Y394887D01*
X329362Y395887D01*
X332361D01*
X341358Y391888D02*
Y396886D01*
Y394887D01*
X340358D01*
X342357D01*
X341358D01*
Y396886D01*
X342357Y397886D01*
X345356Y391888D02*
X347356D01*
X346356D01*
Y395887D01*
X345356D01*
X350355Y391888D02*
Y395887D01*
X353354D01*
X354353Y394887D01*
Y391888D01*
X358352Y389889D02*
X359352D01*
X360351Y390888D01*
Y395887D01*
X357352D01*
X356353Y394887D01*
Y392888D01*
X357352Y391888D01*
X360351D01*
X365350D02*
X363351D01*
X362351Y392888D01*
Y394887D01*
X363351Y395887D01*
X365350D01*
X366350Y394887D01*
Y393887D01*
X362351D01*
X368349Y395887D02*
Y391888D01*
Y393887D01*
X369349Y394887D01*
X370348Y395887D01*
X371348D01*
X374347Y391888D02*
X377346D01*
X378346Y392888D01*
X377346Y393887D01*
X375347D01*
X374347Y394887D01*
X375347Y395887D01*
X378346D01*
X214399Y385289D02*
X213399Y386289D01*
X211400D01*
X210400Y385289D01*
Y381291D01*
X211400Y380291D01*
X213399D01*
X214399Y381291D01*
Y383290D01*
X212399D01*
X217398Y380291D02*
X219397D01*
X220397Y381291D01*
Y383290D01*
X219397Y384290D01*
X217398D01*
X216398Y383290D01*
Y381291D01*
X217398Y380291D01*
X222396D02*
X224395D01*
X223396D01*
Y386289D01*
X222396D01*
X231393D02*
Y380291D01*
X228394D01*
X227395Y381291D01*
Y383290D01*
X228394Y384290D01*
X231393D01*
X243389Y386289D02*
X239391D01*
Y383290D01*
X241390D01*
X239391D01*
Y380291D01*
X245389D02*
X247388D01*
X246388D01*
Y384290D01*
X245389D01*
X250387Y380291D02*
Y384290D01*
X253386D01*
X254386Y383290D01*
Y380291D01*
X258384Y378292D02*
X259384D01*
X260384Y379291D01*
Y384290D01*
X257385D01*
X256385Y383290D01*
Y381291D01*
X257385Y380291D01*
X260384D01*
X265382D02*
X263383D01*
X262383Y381291D01*
Y383290D01*
X263383Y384290D01*
X265382D01*
X266382Y383290D01*
Y382290D01*
X262383D01*
X268381Y384290D02*
Y380291D01*
Y382290D01*
X269381Y383290D01*
X270381Y384290D01*
X271380D01*
X274379Y380291D02*
X277378D01*
X278378Y381291D01*
X277378Y382290D01*
X275379D01*
X274379Y383290D01*
X275379Y384290D01*
X278378D01*
X280377D02*
X281377D01*
Y383290D01*
X280377D01*
Y384290D01*
Y381291D02*
X281377D01*
Y380291D01*
X280377D01*
Y381291D01*
X291374Y385289D02*
X292373Y386289D01*
X294373D01*
X295373Y385289D01*
Y381291D01*
X294373Y380291D01*
X292373D01*
X291374Y381291D01*
Y385289D01*
X297372Y380291D02*
Y381291D01*
X298372D01*
Y380291D01*
X297372D01*
X302370Y385289D02*
X303370Y386289D01*
X305369D01*
X306369Y385289D01*
Y384290D01*
X305369Y383290D01*
X304370D01*
X305369D01*
X306369Y382290D01*
Y381291D01*
X305369Y380291D01*
X303370D01*
X302370Y381291D01*
X308368Y380291D02*
Y384290D01*
X309368D01*
X310368Y383290D01*
Y380291D01*
Y383290D01*
X311367Y384290D01*
X312367Y383290D01*
Y380291D01*
X314366D02*
Y384290D01*
X315366D01*
X316366Y383290D01*
Y380291D01*
Y383290D01*
X317365Y384290D01*
X318365Y383290D01*
Y380291D01*
X210400Y368694D02*
Y374692D01*
X213399D01*
X214399Y373692D01*
Y371693D01*
X213399Y370693D01*
X210400D01*
X217398Y368694D02*
X219397D01*
X220397Y369694D01*
Y371693D01*
X219397Y372693D01*
X217398D01*
X216398Y371693D01*
Y369694D01*
X217398Y368694D01*
X222396D02*
X224395D01*
X223396D01*
Y374692D01*
X222396D01*
X227395Y372693D02*
Y369694D01*
X228394Y368694D01*
X231393D01*
Y367694D01*
X230394Y366695D01*
X229394D01*
X231393Y368694D02*
Y372693D01*
X233393Y368694D02*
X235392D01*
X234392D01*
Y372693D01*
X233393D01*
X238391Y368694D02*
Y372693D01*
X239391D01*
X240390Y371693D01*
Y368694D01*
Y371693D01*
X241390Y372693D01*
X242390Y371693D01*
Y368694D01*
X244389D02*
X246388D01*
X245389D01*
Y372693D01*
X244389D01*
X253386Y374692D02*
Y368694D01*
X250387D01*
X249387Y369694D01*
Y371693D01*
X250387Y372693D01*
X253386D01*
X258384Y368694D02*
X256385D01*
X255385Y369694D01*
Y371693D01*
X256385Y372693D01*
X258384D01*
X259384Y371693D01*
Y370693D01*
X255385D01*
X267382Y374692D02*
X271380D01*
X269381D01*
Y368694D01*
X273380Y374692D02*
Y368694D01*
Y371693D01*
X274379Y372693D01*
X276379D01*
X277378Y371693D01*
Y368694D01*
X279378D02*
X281377D01*
X280377D01*
Y372693D01*
X279378D01*
X288375D02*
X285376D01*
X284376Y371693D01*
Y369694D01*
X285376Y368694D01*
X288375D01*
X290374D02*
Y374692D01*
Y370693D02*
X293373Y372693D01*
X290374Y370693D02*
X293373Y368694D01*
X296372D02*
Y372693D01*
X299371D01*
X300371Y371693D01*
Y368694D01*
X305369D02*
X303370D01*
X302370Y369694D01*
Y371693D01*
X303370Y372693D01*
X305369D01*
X306369Y371693D01*
Y370693D01*
X302370D01*
X308368Y368694D02*
X311367D01*
X312367Y369694D01*
X311367Y370693D01*
X309368D01*
X308368Y371693D01*
X309368Y372693D01*
X312367D01*
X314366Y368694D02*
X317365D01*
X318365Y369694D01*
X317365Y370693D01*
X315366D01*
X314366Y371693D01*
X315366Y372693D01*
X318365D01*
X320364D02*
X321364D01*
Y371693D01*
X320364D01*
Y372693D01*
Y369694D02*
X321364D01*
Y368694D01*
X320364D01*
Y369694D01*
X331361Y373692D02*
X332361Y374692D01*
X334360D01*
X335360Y373692D01*
Y369694D01*
X334360Y368694D01*
X332361D01*
X331361Y369694D01*
Y373692D01*
X337359Y368694D02*
Y369694D01*
X338359D01*
Y368694D01*
X337359D01*
X346356D02*
X342357D01*
X346356Y372693D01*
Y373692D01*
X345356Y374692D01*
X343357D01*
X342357Y373692D01*
X352354Y374692D02*
X348355D01*
Y371693D01*
X350355Y372693D01*
X351354D01*
X352354Y371693D01*
Y369694D01*
X351354Y368694D01*
X349355D01*
X348355Y369694D01*
X354353Y368694D02*
Y372693D01*
X355353D01*
X356353Y371693D01*
Y368694D01*
Y371693D01*
X357352Y372693D01*
X358352Y371693D01*
Y368694D01*
X360351D02*
Y372693D01*
X361351D01*
X362351Y371693D01*
Y368694D01*
Y371693D01*
X363351Y372693D01*
X364350Y371693D01*
Y368694D01*
X214399Y362095D02*
X213399Y363095D01*
X211400D01*
X210400Y362095D01*
Y361096D01*
X211400Y360096D01*
X213399D01*
X214399Y359096D01*
Y358097D01*
X213399Y357097D01*
X211400D01*
X210400Y358097D01*
X217398Y362095D02*
Y361096D01*
X216398D01*
X218397D01*
X217398D01*
Y358097D01*
X218397Y357097D01*
X221396D02*
X223396D01*
X222396D01*
Y361096D01*
X221396D01*
X227395Y357097D02*
Y362095D01*
Y360096D01*
X226395D01*
X228394D01*
X227395D01*
Y362095D01*
X228394Y363095D01*
X232393Y357097D02*
Y362095D01*
Y360096D01*
X231393D01*
X233393D01*
X232393D01*
Y362095D01*
X233393Y363095D01*
X239391Y357097D02*
X237391D01*
X236392Y358097D01*
Y360096D01*
X237391Y361096D01*
X239391D01*
X240390Y360096D01*
Y359096D01*
X236392D01*
X242390Y357097D02*
Y361096D01*
X245389D01*
X246388Y360096D01*
Y357097D01*
X251387D02*
X249387D01*
X248388Y358097D01*
Y360096D01*
X249387Y361096D01*
X251387D01*
X252386Y360096D01*
Y359096D01*
X248388D01*
X254386Y361096D02*
Y357097D01*
Y359096D01*
X255385Y360096D01*
X256385Y361096D01*
X257385D01*
X266382Y357097D02*
X268381D01*
X267382D01*
Y363095D01*
X266382D01*
X272380Y357097D02*
X274379D01*
X275379Y358097D01*
Y360096D01*
X274379Y361096D01*
X272380D01*
X271380Y360096D01*
Y358097D01*
X272380Y357097D01*
X281377Y361096D02*
X278378D01*
X277378Y360096D01*
Y358097D01*
X278378Y357097D01*
X281377D01*
X284376Y361096D02*
X286375D01*
X287375Y360096D01*
Y357097D01*
X284376D01*
X283376Y358097D01*
X284376Y359096D01*
X287375D01*
X290374Y362095D02*
Y361096D01*
X289374D01*
X291374D01*
X290374D01*
Y358097D01*
X291374Y357097D01*
X294373D02*
X296372D01*
X295373D01*
Y361096D01*
X294373D01*
X300371Y357097D02*
X302370D01*
X303370Y358097D01*
Y360096D01*
X302370Y361096D01*
X300371D01*
X299371Y360096D01*
Y358097D01*
X300371Y357097D01*
X305369D02*
Y361096D01*
X308368D01*
X309368Y360096D01*
Y357097D01*
X311367Y361096D02*
X312367D01*
Y360096D01*
X311367D01*
Y361096D01*
Y358097D02*
X312367D01*
Y357097D01*
X311367D01*
Y358097D01*
X322364Y357097D02*
Y363095D01*
X325363D01*
X326362Y362095D01*
Y360096D01*
X325363Y359096D01*
X322364D01*
X324363D02*
X326362Y357097D01*
X331361D02*
X329362D01*
X328362Y358097D01*
Y360096D01*
X329362Y361096D01*
X331361D01*
X332361Y360096D01*
Y359096D01*
X328362D01*
X335360Y357097D02*
Y362095D01*
Y360096D01*
X334360D01*
X336359D01*
X335360D01*
Y362095D01*
X336359Y363095D01*
X342357Y357097D02*
X340358D01*
X339358Y358097D01*
Y360096D01*
X340358Y361096D01*
X342357D01*
X343357Y360096D01*
Y359096D01*
X339358D01*
X345356Y361096D02*
Y357097D01*
Y359096D01*
X346356Y360096D01*
X347356Y361096D01*
X348355D01*
X358352Y362095D02*
Y361096D01*
X357352D01*
X359352D01*
X358352D01*
Y358097D01*
X359352Y357097D01*
X363351D02*
X365350D01*
X366350Y358097D01*
Y360096D01*
X365350Y361096D01*
X363351D01*
X362351Y360096D01*
Y358097D01*
X363351Y357097D01*
X210400Y353497D02*
Y347499D01*
X213399D01*
X214399Y348499D01*
Y349499D01*
X213399Y350498D01*
X210400D01*
X213399D01*
X214399Y351498D01*
Y352498D01*
X213399Y353497D01*
X210400D01*
X217398Y347499D02*
X219397D01*
X220397Y348499D01*
Y350498D01*
X219397Y351498D01*
X217398D01*
X216398Y350498D01*
Y348499D01*
X217398Y347499D01*
X223396Y352498D02*
Y351498D01*
X222396D01*
X224395D01*
X223396D01*
Y348499D01*
X224395Y347499D01*
X231393Y352498D02*
X230394Y353497D01*
X228394D01*
X227395Y352498D01*
Y351498D01*
X228394Y350498D01*
X230394D01*
X231393Y349499D01*
Y348499D01*
X230394Y347499D01*
X228394D01*
X227395Y348499D01*
X234392Y352498D02*
Y351498D01*
X233393D01*
X235392D01*
X234392D01*
Y348499D01*
X235392Y347499D01*
X238391D02*
X240390D01*
X239391D01*
Y351498D01*
X238391D01*
X244389Y347499D02*
Y352498D01*
Y350498D01*
X243389D01*
X245389D01*
X244389D01*
Y352498D01*
X245389Y353497D01*
X249387Y347499D02*
Y352498D01*
Y350498D01*
X248388D01*
X250387D01*
X249387D01*
Y352498D01*
X250387Y353497D01*
X256385Y347499D02*
X254386D01*
X253386Y348499D01*
Y350498D01*
X254386Y351498D01*
X256385D01*
X257385Y350498D01*
Y349499D01*
X253386D01*
X259384Y347499D02*
Y351498D01*
X262383D01*
X263383Y350498D01*
Y347499D01*
X268381D02*
X266382D01*
X265382Y348499D01*
Y350498D01*
X266382Y351498D01*
X268381D01*
X269381Y350498D01*
Y349499D01*
X265382D01*
X271380Y351498D02*
Y347499D01*
Y349499D01*
X272380Y350498D01*
X273380Y351498D01*
X274379D01*
X283376Y347499D02*
Y351498D01*
X284376D01*
X285376Y350498D01*
Y347499D01*
Y350498D01*
X286375Y351498D01*
X287375Y350498D01*
Y347499D01*
X292373D02*
X290374D01*
X289374Y348499D01*
Y350498D01*
X290374Y351498D01*
X292373D01*
X293373Y350498D01*
Y349499D01*
X289374D01*
X299371Y351498D02*
X296372D01*
X295373Y350498D01*
Y348499D01*
X296372Y347499D01*
X299371D01*
X301371Y353497D02*
Y347499D01*
Y350498D01*
X302370Y351498D01*
X304370D01*
X305369Y350498D01*
Y347499D01*
X308368Y351498D02*
X310368D01*
X311367Y350498D01*
Y347499D01*
X308368D01*
X307369Y348499D01*
X308368Y349499D01*
X311367D01*
X313367Y347499D02*
Y351498D01*
X316366D01*
X317365Y350498D01*
Y347499D01*
X319365D02*
X321364D01*
X320364D01*
Y351498D01*
X319365D01*
X328362D02*
X325363D01*
X324363Y350498D01*
Y348499D01*
X325363Y347499D01*
X328362D01*
X331361Y351498D02*
X333360D01*
X334360Y350498D01*
Y347499D01*
X331361D01*
X330361Y348499D01*
X331361Y349499D01*
X334360D01*
X336359Y347499D02*
X338359D01*
X337359D01*
Y353497D01*
X336359D01*
X347356Y347499D02*
X349355D01*
X348355D01*
Y353497D01*
X347356D01*
X353354Y351498D02*
X355353D01*
X356353Y350498D01*
Y347499D01*
X353354D01*
X352354Y348499D01*
X353354Y349499D01*
X356353D01*
X358352Y351498D02*
Y348499D01*
X359352Y347499D01*
X362351D01*
Y346500D01*
X361351Y345500D01*
X360351D01*
X362351Y347499D02*
Y351498D01*
X367349Y347499D02*
X365350D01*
X364350Y348499D01*
Y350498D01*
X365350Y351498D01*
X367349D01*
X368349Y350498D01*
Y349499D01*
X364350D01*
X370348Y351498D02*
Y347499D01*
Y349499D01*
X371348Y350498D01*
X372348Y351498D01*
X373347D01*
D13*
X571628Y412957D02*
X571258Y413327D01*
X576928Y436746D02*
X576167Y437507D01*
X580972Y433707D02*
X580445Y434607D01*
X577642Y412957D02*
X576878Y412174D01*
X570878Y434657D02*
X571247Y434238D01*
X580415Y412957D02*
X580972Y413907D01*
X576928Y435275D02*
X577611Y434607D01*
X571308Y434238D02*
X571678Y434607D01*
X571197Y413327D02*
X570828Y412957D01*
X572569Y412100D02*
X571711Y412957D01*
X571678Y434607D02*
X572628Y435557D01*
X572569Y410827D02*
X573339Y410057D01*
X575928D02*
X576878Y411007D01*
X573578Y437507D02*
X572628Y436557D01*
X228451Y412940D02*
X228071Y413319D01*
X228463Y412951D02*
X228451Y412940D01*
X222400Y410811D02*
X223161Y410050D01*
X226759Y436806D02*
X226065Y437500D01*
X222450Y435383D02*
X222450Y435383D01*
X216300Y413711D02*
X217061Y412950D01*
X223211Y437500D02*
X223211Y437500D01*
X217110Y434600D02*
X216300Y433789D01*
X228019Y413319D02*
X227650Y412950D01*
X226700Y412000D01*
X227700Y434600D02*
X228070Y434230D01*
X226759Y435457D02*
X227616Y434600D01*
X222400Y412171D02*
X221640Y412931D01*
X221621Y412950D01*
X228130Y434230D02*
X228500Y434600D01*
X225750Y410050D02*
X226700Y411000D01*
X223211Y437500D02*
X222450Y436739D01*
X226759Y436806D02*
X226759Y436806D01*
X221667Y434600D02*
X222450Y435383D01*
X577642Y412957D02*
X580416D01*
X576878Y411007D02*
Y412174D01*
X580972Y413907D02*
Y433707D01*
X576928Y435275D02*
Y436746D01*
X561358Y434657D02*
X570878D01*
X572569Y410827D02*
Y412100D01*
X561358Y412957D02*
Y434657D01*
X571247Y434238D02*
X571308D01*
X572628Y435557D02*
Y436557D01*
X573339Y410057D02*
X575928D01*
X573578Y437507D02*
X576167D01*
X561358Y412957D02*
X570828D01*
X577611Y434607D02*
X580445D01*
X571197Y413327D02*
X571258D01*
X571628Y412957D02*
X571711D01*
X223211Y437500D02*
X226065D01*
X228463Y412951D02*
X235900D01*
X228500Y434600D02*
X235900D01*
X217110D02*
X221667D01*
X216300Y413711D02*
Y433789D01*
X228019Y413319D02*
X228071D01*
X227616Y434600D02*
X227700D01*
X226759Y435457D02*
Y436806D01*
X222400Y410811D02*
Y412171D01*
X217061Y412950D02*
X221621D01*
X223161Y410050D02*
X225750D01*
X222450Y435383D02*
Y436739D01*
X223211Y437500D02*
X223211D01*
X235900Y412951D02*
Y434600D01*
X226700Y411000D02*
Y412000D01*
X228070Y434230D02*
X228130D01*
M02*
