G04*
G04 #@! TF.GenerationSoftware,Altium Limited,Altium Designer,24.10.1 (45)*
G04*
G04 Layer_Color=16711935*
%FSLAX25Y25*%
%MOIN*%
G70*
G04*
G04 #@! TF.SameCoordinates,9AACA658-A47F-4CCD-ABE2-8655193F7190*
G04*
G04*
G04 #@! TF.FilePolarity,Positive*
G04*
G01*
G75*
%ADD13C,0.00100*%
D13*
X227650Y412950D02*
X226700Y412000D01*
X225750Y410050D02*
X226700Y411000D01*
X222400D02*
X223350Y410050D01*
X222400Y412000D02*
X221450Y412950D01*
X228450D02*
X227650D01*
X570900Y434600D02*
X571700D01*
X576950Y435550D02*
X577900Y434600D01*
X576950Y436550D02*
X576000Y437500D01*
X573600D02*
X572650Y436550D01*
X571700Y434600D02*
X572650Y435550D01*
X577800Y413000D02*
X577921Y412950D01*
X572550Y411050D02*
X573500Y410100D01*
X575900D02*
X576850Y411050D01*
X577800Y413000D02*
X576850Y412050D01*
X571600Y413000D02*
X570800D01*
X572550Y412050D02*
X571600Y413000D01*
X580900Y433700D02*
X580000Y434600D01*
X579950Y412950D02*
X580900Y413900D01*
X227700Y434600D02*
X228500D01*
X226750Y435550D02*
X227700Y434600D01*
X226750Y436550D02*
X225800Y437500D01*
X223400D02*
X222450Y436550D01*
X221500Y434600D02*
X222450Y435550D01*
X216300Y413900D02*
X217250Y412950D01*
X217200Y434600D02*
X216300Y433700D01*
X234200Y412951D02*
X570800Y413000D01*
X228450Y412950D02*
X234079D01*
X228500Y434600D02*
X234200D01*
X226700Y411000D02*
Y412000D01*
X223350Y410050D02*
X225750D01*
X222400Y411000D02*
Y412000D01*
X576950Y435550D02*
Y436550D01*
X573600Y437500D02*
X576000D01*
X572650Y435550D02*
Y436550D01*
X577900Y434600D02*
X580000D01*
X234200D02*
X570900Y434604D01*
X217200Y434600D02*
X221500D01*
X216300Y413900D02*
Y433700D01*
X217250Y412950D02*
X221450D01*
X577921D02*
X579950D01*
X572550Y411050D02*
Y412050D01*
X573500Y410100D02*
X575900D01*
X576850Y411050D02*
Y412050D01*
X580900Y413900D02*
Y433700D01*
X226750Y435550D02*
Y436550D01*
X223400Y437500D02*
X225800D01*
X222450Y435550D02*
Y436550D01*
M02*
