G04*
G04 #@! TF.GenerationSoftware,Altium Limited,Altium Designer,24.10.1 (45)*
G04*
G04 Layer_Physical_Order=1*
G04 Layer_Color=255*
%FSLAX44Y44*%
%MOMM*%
G71*
G04*
G04 #@! TF.SameCoordinates,7938DD53-57AB-4622-B446-BAE18901E4FB*
G04*
G04*
G04 #@! TF.FilePolarity,Positive*
G04*
G01*
G75*
%ADD10R,0.1270X0.1270*%
%ADD11P,0.7184X4X360.0*%
%ADD12R,0.6000X0.3500*%
%ADD13R,0.2000X0.2800*%
%ADD14R,0.4750X0.3000*%
%ADD15R,1.0000X3.5000*%
%ADD16R,1.5000X3.4000*%
%ADD17R,0.6250X0.4000*%
%ADD18R,0.3000X1.4750*%
%ADD19R,1.4750X0.3000*%
%ADD20R,0.8000X0.3000*%
%ADD21R,0.3000X0.8000*%
%ADD22R,2.7500X2.7500*%
%ADD23R,0.8500X0.2000*%
%ADD24R,0.2000X0.8500*%
%ADD25R,4.7000X4.7000*%
%ADD26R,1.0000X0.9000*%
%ADD27R,0.6000X0.5100*%
%ADD28R,0.9000X0.7000*%
%ADD29R,1.0000X0.5500*%
%ADD30R,0.3000X0.3000*%
%ADD31R,1.0000X0.9500*%
%ADD32R,0.4064X0.5334*%
%ADD33R,0.8500X0.3500*%
%ADD34R,0.8500X0.3000*%
%ADD35R,0.4500X0.6000*%
%ADD36R,0.3500X0.2500*%
%ADD37R,0.3500X0.3750*%
%ADD38R,0.3750X0.3500*%
%ADD39R,0.3000X0.2430*%
%ADD40R,0.8500X0.7500*%
%ADD41R,0.9700X1.4700*%
%ADD42R,0.6900X0.7200*%
%ADD43R,0.4700X0.4400*%
%ADD44R,0.4600X0.4200*%
%ADD45R,0.7112X0.3810*%
%ADD46R,0.3000X0.2750*%
%ADD47R,0.3500X0.2000*%
%ADD48R,1.8000X1.2000*%
%ADD49R,1.7600X0.3000*%
%ADD50R,1.9000X0.6500*%
%ADD51R,0.6000X0.7000*%
%ADD52R,0.7200X0.6900*%
%ADD53R,0.2500X0.3500*%
%ADD54R,0.4400X0.4700*%
%ADD55R,0.4200X0.4600*%
%ADD56R,0.5334X0.4064*%
%ADD57R,0.4000X0.6250*%
%ADD58R,0.3000X0.3000*%
%ADD59C,0.7620*%
%ADD60C,0.2032*%
%ADD61C,0.2619*%
%ADD62C,0.2540*%
%ADD63C,0.1778*%
%ADD64C,0.2286*%
%ADD65C,0.2405*%
%ADD66C,1.2000*%
%ADD67C,0.5330*%
%ADD68C,0.4000*%
%ADD69C,0.5800*%
%ADD70C,0.3250*%
%ADD71C,1.1000*%
%ADD72C,1.5000*%
%ADD73C,0.2500*%
%ADD74C,0.5000*%
%ADD75C,0.6604*%
G36*
X1705730Y563770D02*
Y559885D01*
X1716500D01*
X1727270D01*
Y562104D01*
X1728540Y562630D01*
X1741730Y549440D01*
Y549263D01*
X1742225Y548069D01*
X1743139Y547155D01*
X1744333Y546660D01*
X1744510D01*
X1752770Y538400D01*
X1752244Y537130D01*
X1736194D01*
X1736153Y537171D01*
X1734958Y537666D01*
X1733665D01*
X1732471Y537171D01*
X1732346Y537046D01*
X1728544D01*
X1717230Y548360D01*
X1716376Y548930D01*
X1715370Y549130D01*
X1698020D01*
Y549270D01*
X1692480D01*
Y543730D01*
X1691559Y542887D01*
X1690818Y542740D01*
X1689965Y542169D01*
X1686608Y538812D01*
X1685408D01*
X1685154Y538762D01*
X1684356D01*
Y538582D01*
X1683548Y538042D01*
X1680846Y535339D01*
X1680275Y534486D01*
X1680075Y533480D01*
Y530196D01*
X1678331Y528452D01*
X1664761D01*
Y522912D01*
Y512912D01*
Y502912D01*
Y492912D01*
Y482912D01*
Y473307D01*
X1660144D01*
X1659172Y472904D01*
X1658769Y471932D01*
Y449326D01*
X1659172Y448354D01*
X1660144Y447951D01*
X1664761D01*
Y447912D01*
X1671831D01*
X1672317Y446739D01*
X1671249Y445671D01*
X1653241D01*
X1652235Y445470D01*
X1651381Y444900D01*
X1650446Y443965D01*
X1648948Y444263D01*
X1648929Y444309D01*
X1648015Y445223D01*
X1646821Y445718D01*
X1646220D01*
X1638410Y453528D01*
X1638936Y454798D01*
X1639032D01*
X1640227Y455293D01*
X1641141Y456207D01*
X1641636Y457402D01*
Y458694D01*
X1641141Y459889D01*
X1640227Y460803D01*
X1639032Y461298D01*
X1638514D01*
X1636110Y463703D01*
X1636408Y465201D01*
X1636427Y465208D01*
X1637341Y466123D01*
X1637836Y467317D01*
Y468610D01*
X1637341Y469804D01*
X1636427Y470719D01*
X1635232Y471213D01*
X1634552D01*
X1594263Y511502D01*
X1594749Y512675D01*
X1597055D01*
X1642121Y467609D01*
X1641654Y466483D01*
Y465190D01*
X1642149Y463995D01*
X1643063Y463081D01*
X1644258Y462586D01*
X1645551D01*
X1646745Y463081D01*
X1647659Y463995D01*
X1648154Y465190D01*
Y466483D01*
X1647659Y467677D01*
X1647235Y468101D01*
Y468122D01*
X1647057Y469014D01*
X1646552Y469770D01*
X1644338Y471984D01*
X1644789Y473254D01*
X1645983Y473749D01*
X1646897Y474663D01*
X1647392Y475858D01*
Y477150D01*
X1646897Y478345D01*
X1645983Y479259D01*
X1644789Y479754D01*
X1644188D01*
X1588199Y535744D01*
X1588685Y536917D01*
X1612891D01*
Y545562D01*
X1614161D01*
Y536917D01*
X1622891D01*
Y545562D01*
X1624161D01*
Y536917D01*
X1637891D01*
Y545562D01*
X1639161D01*
Y536917D01*
X1647891D01*
Y545562D01*
Y554207D01*
X1646721D01*
X1646630Y554344D01*
Y555636D01*
X1646156Y556780D01*
Y557484D01*
X1645956Y558490D01*
X1645660Y558934D01*
X1647095Y560370D01*
X1647666Y561223D01*
X1647866Y562230D01*
Y563506D01*
X1649896D01*
Y564346D01*
X1666512D01*
X1666939Y563919D01*
X1668134Y563424D01*
X1669427D01*
X1670621Y563919D01*
X1671048Y564346D01*
X1704698D01*
X1705730Y563770D01*
D02*
G37*
G36*
X1776098Y547270D02*
X1766935D01*
Y544500D01*
X1766300D01*
Y543865D01*
X1755810D01*
X1755057Y543553D01*
X1748230Y550380D01*
Y550556D01*
X1747735Y551751D01*
X1746821Y552665D01*
X1745627Y553160D01*
X1745450D01*
X1729774Y568836D01*
X1728920Y569406D01*
X1727914Y569606D01*
X1713624D01*
X1713547Y569683D01*
X1712352Y570178D01*
X1711060D01*
X1709865Y569683D01*
X1709788Y569606D01*
X1670194D01*
X1669427Y569924D01*
X1668134D01*
X1667366Y569606D01*
X1649896D01*
Y570446D01*
X1640211D01*
Y566976D01*
X1638941D01*
Y570446D01*
X1636755D01*
X1635951Y571714D01*
X1636187Y572211D01*
X1776098D01*
Y547270D01*
D02*
G37*
G36*
X1579684Y570691D02*
X1578832Y569774D01*
X1575997D01*
Y566154D01*
X1575362D01*
Y565519D01*
X1571892D01*
Y562534D01*
Y555834D01*
X1575141D01*
X1575980Y554748D01*
X1575756Y554207D01*
X1575756D01*
Y546197D01*
X1578526D01*
Y544927D01*
X1575756D01*
Y541180D01*
X1574583Y540694D01*
X1561730Y553546D01*
X1561670Y553637D01*
X1545612Y569694D01*
X1544856Y570199D01*
X1543964Y570377D01*
X1509659D01*
X1508767Y570199D01*
X1508011Y569694D01*
X1506442Y568125D01*
X1505937Y567369D01*
X1505869Y567030D01*
X1504336D01*
Y565401D01*
X1497306D01*
Y565840D01*
X1491766D01*
X1490733Y566412D01*
Y572211D01*
X1579684D01*
Y570691D01*
D02*
G37*
G36*
X1724937Y533214D02*
X1724952Y532870D01*
X1724652Y531702D01*
X1724140Y531360D01*
X1710257Y517476D01*
X1704794D01*
X1704403Y517867D01*
X1703208Y518362D01*
X1701915D01*
X1700721Y517867D01*
X1700330Y517476D01*
X1699042D01*
X1698020Y518076D01*
Y523616D01*
X1698020D01*
Y524522D01*
X1698020D01*
Y529252D01*
X1698020Y530062D01*
X1698915Y530961D01*
X1714375D01*
X1714799Y530537D01*
X1715993Y530042D01*
X1717287D01*
X1718481Y530537D01*
X1719395Y531451D01*
X1719890Y532645D01*
Y533938D01*
X1719395Y535133D01*
X1718481Y536047D01*
X1717287Y536542D01*
X1715993D01*
X1714799Y536047D01*
X1714375Y535623D01*
X1698020D01*
Y536062D01*
X1694244D01*
X1693565Y537332D01*
X1693797Y537679D01*
X1695060D01*
X1695314Y537730D01*
X1698020D01*
Y543270D01*
X1699042Y543870D01*
X1714281D01*
X1724937Y533214D01*
D02*
G37*
G36*
X1504086Y559395D02*
X1507231D01*
Y558125D01*
X1504086D01*
Y554395D01*
X1507231D01*
Y553125D01*
X1504086D01*
Y550740D01*
X1504336D01*
Y549270D01*
X1507356D01*
Y548635D01*
X1507991D01*
Y545490D01*
X1511721D01*
Y548635D01*
X1512991D01*
Y545490D01*
X1513996D01*
X1514575Y544878D01*
X1514853Y544220D01*
X1514958Y543967D01*
Y543694D01*
X1515151Y543501D01*
X1515256Y543248D01*
X1516497Y542007D01*
X1516255Y541424D01*
Y537464D01*
X1515620D01*
Y536829D01*
X1512050D01*
Y534094D01*
X1511166Y533190D01*
X1508584D01*
Y528955D01*
X1513304D01*
Y527685D01*
X1508584D01*
Y524557D01*
X1507314Y524030D01*
X1497126Y534219D01*
Y554300D01*
X1497306D01*
Y559840D01*
X1498201Y560739D01*
X1504086D01*
Y559395D01*
D02*
G37*
G36*
X1561308Y529625D02*
X1560822Y528452D01*
X1559281D01*
Y525682D01*
X1558646D01*
Y525047D01*
X1550001D01*
Y518013D01*
X1547342D01*
X1546926Y517930D01*
X1545181D01*
X1544964Y518043D01*
X1544171Y518917D01*
Y542544D01*
X1543768Y543516D01*
X1543768Y543516D01*
X1540270Y547014D01*
X1540756Y548187D01*
X1542747D01*
X1561308Y529625D01*
D02*
G37*
G36*
X1492143Y532155D02*
X1492705Y531315D01*
X1504897Y519123D01*
X1505737Y518561D01*
X1506728Y518364D01*
X1517799D01*
Y514146D01*
X1514964D01*
X1514845Y514434D01*
X1513416Y515863D01*
X1511548Y516636D01*
X1509527D01*
X1507660Y515863D01*
X1506231Y514434D01*
X1505458Y512566D01*
Y510546D01*
X1506231Y508678D01*
X1507660Y507249D01*
X1509527Y506476D01*
X1511548D01*
X1513416Y507249D01*
X1514845Y508678D01*
X1514964Y508966D01*
X1517822D01*
X1518042Y503907D01*
X1517898Y503527D01*
X1517898Y503509D01*
X1517843Y503324D01*
X1517519Y502844D01*
X1516552Y502292D01*
X1515225D01*
X1512995Y501694D01*
X1510995Y500540D01*
X1509362Y498907D01*
X1508208Y496907D01*
X1507610Y494677D01*
Y492367D01*
X1508208Y490137D01*
X1509362Y488137D01*
X1510995Y486504D01*
X1512995Y485350D01*
X1515225Y484752D01*
X1517535D01*
X1517799Y484549D01*
Y449326D01*
X1517799Y449326D01*
X1518202Y448354D01*
X1521330Y445226D01*
X1521070Y444255D01*
X1520838Y443922D01*
X1519054Y442892D01*
X1517508Y441346D01*
X1516416Y439454D01*
X1515850Y437343D01*
Y435157D01*
X1516416Y433046D01*
X1517508Y431154D01*
X1518122Y430540D01*
X1517596Y429270D01*
X1516435D01*
Y426250D01*
X1515800D01*
Y425615D01*
X1510280D01*
Y425339D01*
X1509010Y425171D01*
X1508959Y425363D01*
X1508067Y426907D01*
X1506807Y428167D01*
X1505263Y429059D01*
X1503541Y429520D01*
X1502141D01*
X1501984Y430709D01*
X1501763Y431093D01*
X1501593Y431502D01*
X1501505Y431538D01*
X1501458Y431621D01*
X1501030Y431735D01*
X1500621Y431905D01*
X1490733D01*
Y532735D01*
X1492003Y532860D01*
X1492143Y532155D01*
D02*
G37*
G36*
X1550001Y486317D02*
X1558646D01*
Y485047D01*
X1550001D01*
Y483279D01*
X1548112D01*
Y483386D01*
X1543382D01*
X1542572Y483386D01*
X1541302Y483386D01*
X1539977D01*
Y480616D01*
Y477846D01*
X1541302D01*
X1542112Y477846D01*
X1543382Y477846D01*
X1548112D01*
Y478019D01*
X1550001D01*
Y474256D01*
X1548731Y473726D01*
X1548112Y474337D01*
Y475766D01*
X1543382D01*
X1542572Y475766D01*
X1541302Y475766D01*
X1539977D01*
Y472996D01*
Y470226D01*
X1541302D01*
X1542112Y470226D01*
X1543845Y470226D01*
X1544265Y469670D01*
X1543633Y468400D01*
X1542572Y468400D01*
X1541302Y468400D01*
X1539977D01*
Y465630D01*
Y462860D01*
X1541302D01*
X1542112Y462860D01*
X1543382Y462860D01*
X1544676D01*
X1545140Y461740D01*
X1544353Y460780D01*
X1542572Y460780D01*
X1541302Y460780D01*
X1539977D01*
Y458010D01*
Y455240D01*
X1541302D01*
X1542112Y455240D01*
X1543382Y455240D01*
X1548112D01*
Y456639D01*
X1548731Y457116D01*
X1550001Y456509D01*
Y453495D01*
X1548704D01*
Y453906D01*
X1539169D01*
Y450536D01*
X1537899D01*
Y453906D01*
X1535281D01*
Y454712D01*
X1534878Y455684D01*
X1533906Y456087D01*
X1533533D01*
X1532844Y456372D01*
X1532316Y456900D01*
X1532031Y457589D01*
Y458335D01*
X1532316Y459024D01*
X1532844Y459552D01*
X1533172Y459688D01*
X1533365Y459881D01*
X1533618Y459986D01*
X1533722Y460238D01*
X1533916Y460432D01*
Y460705D01*
X1534020Y460958D01*
Y462332D01*
X1533916Y462585D01*
Y462858D01*
X1533722Y463052D01*
X1533618Y463304D01*
X1533365Y463409D01*
X1533172Y463602D01*
X1532844Y463738D01*
X1532316Y464266D01*
X1532031Y464955D01*
Y465701D01*
X1532316Y466390D01*
X1532844Y466918D01*
X1533605Y467233D01*
X1533727Y467355D01*
X1533894Y467396D01*
X1534086Y467714D01*
X1534348Y467977D01*
Y468149D01*
X1534438Y468297D01*
X1534490Y468643D01*
X1534464Y468748D01*
X1534505Y468849D01*
Y469427D01*
X1534464Y469528D01*
X1534490Y469633D01*
X1534438Y469979D01*
X1534348Y470126D01*
Y470299D01*
X1534086Y470562D01*
X1533894Y470880D01*
X1533727Y470921D01*
X1533605Y471043D01*
X1532844Y471358D01*
X1532316Y471886D01*
X1532031Y472575D01*
Y473321D01*
X1532316Y474010D01*
X1532844Y474538D01*
X1533605Y474853D01*
X1533727Y474975D01*
X1533894Y475016D01*
X1534086Y475334D01*
X1534348Y475597D01*
Y475770D01*
X1534438Y475917D01*
X1534490Y476263D01*
X1534464Y476368D01*
X1534505Y476469D01*
Y477047D01*
X1534464Y477148D01*
X1534490Y477253D01*
X1534438Y477599D01*
X1534348Y477747D01*
Y477919D01*
X1534086Y478182D01*
X1533894Y478500D01*
X1533727Y478541D01*
X1533605Y478663D01*
X1532844Y478978D01*
X1532316Y479506D01*
X1532031Y480195D01*
Y480941D01*
X1532316Y481630D01*
X1532844Y482158D01*
X1533533Y482443D01*
X1533906D01*
X1534878Y482846D01*
X1535281Y483818D01*
Y485543D01*
X1540764D01*
X1541736Y485946D01*
X1543768Y487978D01*
X1544171Y488950D01*
X1544171Y488950D01*
Y491591D01*
X1544964Y492465D01*
X1545181Y492578D01*
X1548112D01*
Y493351D01*
X1550001D01*
Y486317D01*
D02*
G37*
G36*
X1749350Y498472D02*
Y498464D01*
X1749845Y497269D01*
X1750759Y496355D01*
X1751953Y495860D01*
X1753246D01*
X1754441Y496355D01*
X1754955Y496869D01*
X1756230D01*
Y496730D01*
X1776098D01*
Y459932D01*
X1775968Y459845D01*
X1772474D01*
Y463763D01*
X1762734D01*
Y461585D01*
X1761988Y460624D01*
X1759603D01*
Y458104D01*
X1758968D01*
Y457469D01*
X1755948D01*
Y456035D01*
X1744218D01*
X1743770Y456334D01*
Y462270D01*
X1737900D01*
X1737616Y462598D01*
X1737194Y463540D01*
X1737562Y464427D01*
Y465720D01*
X1737067Y466915D01*
X1736153Y467829D01*
X1734958Y468324D01*
X1733665D01*
X1732471Y467829D01*
X1731557Y466915D01*
X1731492Y466902D01*
X1730641Y467753D01*
X1729447Y468248D01*
X1728154D01*
X1726959Y467753D01*
X1726641Y467435D01*
X1725993Y468083D01*
X1724798Y468578D01*
X1723506D01*
X1722854Y468308D01*
X1722589Y468947D01*
X1721675Y469861D01*
X1720480Y470356D01*
X1719187D01*
X1717993Y469861D01*
X1717962Y469831D01*
X1716658Y470154D01*
X1716237Y470832D01*
X1716832Y472102D01*
X1726698D01*
X1727705Y472302D01*
X1727852Y472401D01*
X1728680D01*
X1729686Y472601D01*
X1730539Y473171D01*
X1734329Y476961D01*
X1734899Y477814D01*
X1735099Y478820D01*
Y480176D01*
X1743672Y488748D01*
X1743849D01*
X1745043Y489243D01*
X1745957Y490157D01*
X1746452Y491352D01*
Y492645D01*
X1745957Y493839D01*
X1745832Y493964D01*
Y496750D01*
X1748080Y498998D01*
X1749350Y498472D01*
D02*
G37*
G36*
X1776098Y458340D02*
Y446786D01*
X1770808D01*
Y448110D01*
X1758268D01*
Y445596D01*
X1756253Y443581D01*
X1754520D01*
Y444615D01*
X1749000D01*
Y445885D01*
X1754520D01*
Y448615D01*
X1749000D01*
Y449250D01*
X1748365D01*
Y451520D01*
X1744270D01*
Y452020D01*
X1744218D01*
Y454660D01*
X1755948D01*
Y453999D01*
X1758968D01*
Y453364D01*
X1759603D01*
Y450844D01*
X1761616D01*
X1762734Y450478D01*
X1762734Y450478D01*
X1762734Y450478D01*
X1766969D01*
Y455198D01*
X1767604D01*
Y455833D01*
X1772474D01*
Y458470D01*
X1775968D01*
X1776098Y458340D01*
D02*
G37*
G36*
X1664761Y471317D02*
X1673406D01*
Y470047D01*
X1664761D01*
Y467912D01*
Y466317D01*
X1673406D01*
Y465047D01*
X1664761D01*
Y462912D01*
Y461317D01*
X1673406D01*
Y460047D01*
X1664761D01*
Y457912D01*
Y456317D01*
X1673406D01*
Y455047D01*
X1664761D01*
Y452912D01*
Y451317D01*
X1673406D01*
Y450047D01*
X1664761D01*
Y449326D01*
X1660144D01*
Y471932D01*
X1664761D01*
Y471317D01*
D02*
G37*
G36*
X1517991Y560740D02*
X1519336D01*
Y555740D01*
Y551780D01*
X1517991D01*
Y548635D01*
Y545490D01*
X1521721D01*
Y548635D01*
X1522356D01*
Y549270D01*
X1525376D01*
Y550740D01*
X1525626D01*
Y550926D01*
X1528391D01*
X1530447Y548870D01*
X1531203Y548365D01*
X1532095Y548187D01*
X1537153D01*
X1542796Y542544D01*
Y518917D01*
X1542112Y517930D01*
X1541302Y517930D01*
X1539977D01*
Y515160D01*
X1539342D01*
D01*
X1539977D01*
Y512390D01*
X1541302D01*
X1542112Y512390D01*
X1542796Y511403D01*
Y511297D01*
X1542112Y510310D01*
X1541302Y510310D01*
X1539977D01*
Y507540D01*
Y504770D01*
X1541302D01*
X1542112Y504770D01*
X1542796Y503783D01*
Y499105D01*
X1542112Y498118D01*
X1541302Y498118D01*
X1539977D01*
Y495348D01*
Y492578D01*
X1541302D01*
X1542112Y492578D01*
X1542796Y491591D01*
Y488950D01*
X1540764Y486918D01*
X1533906D01*
Y483818D01*
X1533259D01*
X1532065Y483323D01*
X1531151Y482409D01*
X1530656Y481214D01*
Y479921D01*
X1531151Y478727D01*
X1532065Y477813D01*
X1533078Y477393D01*
X1533131Y477047D01*
Y476469D01*
X1533078Y476123D01*
X1532065Y475703D01*
X1531151Y474789D01*
X1530656Y473595D01*
Y472301D01*
X1531151Y471107D01*
X1532065Y470193D01*
X1533078Y469773D01*
X1533131Y469427D01*
Y468849D01*
X1533078Y468503D01*
X1532065Y468083D01*
X1531151Y467169D01*
X1530656Y465975D01*
Y464682D01*
X1531151Y463487D01*
X1532065Y462573D01*
X1532646Y462332D01*
Y460958D01*
X1532065Y460717D01*
X1531151Y459803D01*
X1530656Y458609D01*
Y457315D01*
X1531151Y456121D01*
X1532065Y455207D01*
X1533259Y454712D01*
X1533906D01*
Y448056D01*
X1535430Y446532D01*
X1542288D01*
Y447166D01*
X1544499D01*
Y450536D01*
X1545134D01*
Y451171D01*
X1548704D01*
Y452120D01*
X1550001D01*
Y451317D01*
X1558646D01*
Y450682D01*
X1559281D01*
Y447912D01*
X1567291D01*
Y449608D01*
X1568450Y450088D01*
X1587246D01*
Y443773D01*
X1585976Y442793D01*
X1585973Y442794D01*
X1585081Y442616D01*
X1584325Y442111D01*
X1583819Y441355D01*
X1583642Y440463D01*
X1582549Y439447D01*
X1575756D01*
Y438404D01*
X1532166D01*
X1531884Y439454D01*
X1530792Y441346D01*
X1529246Y442892D01*
X1527354Y443984D01*
X1525243Y444550D01*
X1523950D01*
X1519174Y449326D01*
Y485191D01*
X1519765Y485350D01*
X1521765Y486504D01*
X1523398Y488137D01*
X1524552Y490137D01*
X1525150Y492367D01*
Y494677D01*
X1524552Y496907D01*
X1523398Y498907D01*
X1521765Y500540D01*
X1519765Y501694D01*
X1519207Y501844D01*
X1519182Y503037D01*
X1519428Y503682D01*
X1519174Y509524D01*
Y523450D01*
X1521869D01*
Y528320D01*
X1522504D01*
Y528955D01*
X1527224D01*
Y533190D01*
X1526674D01*
X1525790Y534094D01*
Y536829D01*
X1522220D01*
Y537464D01*
X1521585D01*
Y540834D01*
X1519614D01*
X1516228Y544220D01*
X1516721Y545410D01*
Y548635D01*
Y551780D01*
X1515110D01*
Y560740D01*
X1516721D01*
Y563885D01*
X1517991D01*
Y560740D01*
D02*
G37*
G36*
X1589393Y457091D02*
Y456147D01*
X1589888Y454953D01*
X1590802Y454039D01*
X1591997Y453544D01*
X1593290D01*
X1594484Y454039D01*
X1595398Y454953D01*
X1595893Y456147D01*
Y457177D01*
X1596646Y457671D01*
X1597066Y457799D01*
X1612455Y442411D01*
X1613211Y441906D01*
X1614103Y441728D01*
X1615164D01*
X1615715Y440646D01*
X1614914Y439447D01*
X1599161D01*
Y430802D01*
X1597891D01*
Y439447D01*
X1589161D01*
Y430802D01*
X1587891D01*
Y439447D01*
X1586433D01*
X1585673Y440574D01*
X1586130Y441423D01*
X1586241Y441446D01*
X1586467Y441596D01*
X1586742Y441652D01*
X1586769Y441692D01*
X1586816Y441705D01*
X1588086Y442684D01*
X1588132Y442765D01*
X1588218Y442801D01*
X1588388Y443211D01*
X1588609Y443597D01*
X1588585Y443687D01*
X1588621Y443773D01*
Y450088D01*
X1588218Y451060D01*
X1587246Y451463D01*
X1577187D01*
X1576934Y452733D01*
X1577403Y452927D01*
X1578317Y453841D01*
X1578812Y455036D01*
Y456328D01*
X1578317Y457523D01*
X1577403Y458437D01*
X1576208Y458932D01*
X1574915D01*
X1573721Y458437D01*
X1573297Y458013D01*
X1567291D01*
Y462912D01*
Y473351D01*
X1573133D01*
X1589393Y457091D01*
D02*
G37*
G36*
X1669775Y427921D02*
X1670370Y426675D01*
X1670183Y426396D01*
X1670005Y425504D01*
Y422643D01*
X1669960Y422575D01*
X1669783Y421683D01*
Y418857D01*
X1669358Y418432D01*
X1668864Y417238D01*
Y415945D01*
X1667822Y415141D01*
X1651000D01*
X1650022Y416110D01*
X1649955Y416488D01*
X1650386Y416919D01*
X1650956Y417772D01*
X1651156Y418779D01*
Y422157D01*
X1656296D01*
Y426241D01*
X1657566Y427090D01*
X1657720Y427026D01*
X1659012D01*
X1660207Y427521D01*
X1660631Y427945D01*
X1669747D01*
X1669775Y427921D01*
D02*
G37*
G36*
X1594646Y481746D02*
Y480172D01*
X1594824Y479280D01*
X1595329Y478524D01*
X1621303Y452550D01*
Y451950D01*
X1621797Y450756D01*
X1622712Y449841D01*
X1623906Y449347D01*
X1625199D01*
X1626393Y449841D01*
X1627308Y450756D01*
X1627802Y451950D01*
Y453243D01*
X1628976Y453613D01*
X1629052D01*
X1630247Y454107D01*
X1631641Y453705D01*
X1642924Y442422D01*
Y441822D01*
X1643419Y440627D01*
X1642803Y439447D01*
X1634161D01*
Y430802D01*
Y422157D01*
X1635936D01*
Y419617D01*
X1636133Y418626D01*
X1636695Y417786D01*
X1639112Y415368D01*
X1639111Y415367D01*
X1638549Y414527D01*
X1638352Y413536D01*
Y410996D01*
X1638172D01*
Y405456D01*
X1643712D01*
X1643712Y405456D01*
X1644172D01*
Y405456D01*
X1645145Y405456D01*
X1646069Y404417D01*
Y397208D01*
X1646134Y397052D01*
Y388824D01*
X1646069Y388668D01*
Y386138D01*
X1645365D01*
Y380868D01*
X1644095D01*
Y386138D01*
X1640365D01*
Y380868D01*
X1639095D01*
Y386138D01*
X1635365D01*
Y380868D01*
X1634095D01*
Y386138D01*
X1630365D01*
Y380868D01*
X1629095D01*
Y386138D01*
X1625365D01*
Y380868D01*
X1624730D01*
Y380233D01*
X1621960D01*
Y376138D01*
X1617069D01*
Y392926D01*
X1618339Y393266D01*
X1619217Y391744D01*
X1620850Y390111D01*
X1622850Y388957D01*
X1625080Y388359D01*
X1627390D01*
X1629620Y388957D01*
X1631620Y390111D01*
X1633253Y391744D01*
X1634407Y393744D01*
X1635005Y395974D01*
Y398284D01*
X1634407Y400514D01*
X1633253Y402514D01*
X1631620Y404147D01*
X1629620Y405301D01*
X1627390Y405899D01*
X1625080D01*
X1623674Y405522D01*
X1622718Y406581D01*
Y409115D01*
X1619098D01*
Y410385D01*
X1622718D01*
Y412517D01*
X1622718Y413220D01*
X1622718Y413220D01*
X1622618Y413746D01*
X1622618D01*
Y416481D01*
X1619048D01*
Y417116D01*
X1618413D01*
Y420486D01*
X1613465D01*
X1613166Y420887D01*
X1613804Y422157D01*
X1617891D01*
Y430802D01*
X1619161D01*
Y422157D01*
X1622891D01*
Y430802D01*
Y439698D01*
X1622210Y440717D01*
X1622236Y440781D01*
Y442074D01*
X1621741Y443268D01*
X1620827Y444182D01*
X1619633Y444677D01*
X1618906D01*
X1617876Y445707D01*
X1617120Y446212D01*
X1616228Y446390D01*
X1615069D01*
X1613089Y448369D01*
X1613485Y449769D01*
X1614131Y450037D01*
X1615046Y450951D01*
X1615540Y452146D01*
Y453439D01*
X1615046Y454633D01*
X1614131Y455548D01*
X1612937Y456042D01*
X1612337D01*
X1584965Y483414D01*
X1585491Y484684D01*
X1585607D01*
X1586801Y485179D01*
X1587715Y486093D01*
X1587946Y486651D01*
X1589383Y487010D01*
X1594646Y481746D01*
D02*
G37*
G36*
X1500788Y429260D02*
X1500037Y429059D01*
X1498493Y428167D01*
X1497233Y426907D01*
X1496341Y425363D01*
X1495880Y423641D01*
Y421859D01*
X1496341Y420137D01*
X1497233Y418593D01*
X1498493Y417333D01*
X1500037Y416441D01*
X1501759Y415980D01*
X1503541D01*
X1504329Y416191D01*
X1505331Y415544D01*
X1505331Y415544D01*
X1508887Y419100D01*
X1510157D01*
Y422402D01*
X1510985Y423230D01*
X1511361D01*
X1511681Y422910D01*
X1536319D01*
X1539682Y419547D01*
X1540233Y418593D01*
X1541493Y417333D01*
X1542447Y416782D01*
X1545717Y413512D01*
Y410210D01*
X1538020D01*
Y410615D01*
X1532500D01*
X1526980D01*
Y409956D01*
X1521320D01*
Y410615D01*
X1515800D01*
X1510280D01*
Y409956D01*
X1510157D01*
Y403860D01*
X1506951D01*
X1505851Y404316D01*
X1504557D01*
X1503457Y403860D01*
X1503299D01*
Y403757D01*
X1502449Y402907D01*
X1501954Y401712D01*
Y400420D01*
X1502449Y399225D01*
X1503299Y398375D01*
Y398018D01*
X1504070D01*
X1504557Y397816D01*
X1505851D01*
X1506338Y398018D01*
X1510157D01*
X1510280Y397967D01*
Y393480D01*
Y386885D01*
X1515800D01*
Y386250D01*
X1516435D01*
Y383480D01*
X1521320D01*
X1521320Y383480D01*
X1522462Y383170D01*
X1525322Y380311D01*
X1526175Y379740D01*
X1527182Y379540D01*
X1538859D01*
Y378206D01*
X1538869Y378196D01*
X1538784Y376607D01*
X1536573Y374396D01*
Y374270D01*
X1526980D01*
Y374142D01*
X1521320D01*
Y374270D01*
X1510280D01*
X1509420Y375184D01*
Y375641D01*
X1508959Y377363D01*
X1508067Y378907D01*
X1506807Y380167D01*
X1505263Y381059D01*
X1503541Y381520D01*
X1501759D01*
X1500037Y381059D01*
X1498493Y380167D01*
X1497233Y378907D01*
X1496341Y377363D01*
X1495880Y375641D01*
Y373859D01*
X1496341Y372137D01*
X1497233Y370593D01*
X1498493Y369333D01*
X1500037Y368441D01*
X1501759Y367980D01*
X1503267D01*
X1503290Y365647D01*
X1502397Y364744D01*
X1490733D01*
Y430530D01*
X1500621D01*
X1500788Y429260D01*
D02*
G37*
G36*
X1584161Y422157D02*
X1584960D01*
Y420224D01*
X1582903D01*
Y416754D01*
Y413284D01*
X1585888D01*
Y413549D01*
X1586036Y413699D01*
X1587158Y414136D01*
X1587324Y413955D01*
Y411957D01*
X1590094D01*
Y410687D01*
X1587324D01*
Y408552D01*
X1586104Y408432D01*
X1580043D01*
X1578610Y409865D01*
Y413284D01*
X1581633D01*
Y416754D01*
Y420224D01*
X1581325D01*
X1580857Y420795D01*
Y422157D01*
X1582891D01*
Y430802D01*
X1584161D01*
Y422157D01*
D02*
G37*
G36*
X1575756Y431437D02*
X1578526D01*
Y430802D01*
X1579161D01*
Y422157D01*
X1579482D01*
Y420795D01*
X1578344Y420224D01*
X1576203D01*
Y416754D01*
Y413284D01*
X1577235D01*
Y411236D01*
X1576638Y410747D01*
X1557798D01*
X1556791Y410546D01*
X1555938Y409976D01*
X1553922Y407960D01*
X1546922D01*
X1546669Y409230D01*
X1546689Y409238D01*
X1547092Y410210D01*
Y413512D01*
X1547092Y413512D01*
X1546689Y414484D01*
X1546722Y415678D01*
X1546895Y416075D01*
X1548263Y416441D01*
X1549807Y417333D01*
X1551067Y418593D01*
X1551959Y420137D01*
X1552420Y421859D01*
Y422115D01*
X1545650D01*
Y422750D01*
X1545015D01*
Y429520D01*
X1544759D01*
X1543037Y429059D01*
X1541493Y428167D01*
X1540233Y426907D01*
X1539341Y425363D01*
X1539290Y425171D01*
X1538020Y425339D01*
Y425615D01*
X1532500D01*
Y426250D01*
X1531865D01*
Y429270D01*
X1530704D01*
X1530178Y430540D01*
X1530792Y431154D01*
X1531884Y433046D01*
X1532450Y435157D01*
Y437029D01*
X1575756D01*
Y431437D01*
D02*
G37*
G36*
X1557782Y390308D02*
X1552934Y385460D01*
X1542303D01*
X1541297Y385260D01*
X1541004Y385064D01*
X1538020D01*
Y385615D01*
X1532500D01*
Y386885D01*
X1538020D01*
Y388480D01*
Y391464D01*
X1540039Y393483D01*
X1541718D01*
X1541971Y393231D01*
X1543165Y392736D01*
X1544458D01*
X1545653Y393231D01*
X1546567Y394145D01*
X1546593Y394208D01*
X1557782D01*
Y390308D01*
D02*
G37*
G36*
X1713817Y391565D02*
X1714615Y390599D01*
X1714519Y390116D01*
Y389522D01*
X1714241Y389336D01*
X1712971Y390015D01*
Y391449D01*
X1713701Y391646D01*
X1713817Y391565D01*
D02*
G37*
G36*
X1750314Y398272D02*
X1755140D01*
X1756156Y397256D01*
Y394716D01*
X1756452Y394420D01*
Y392814D01*
X1757208D01*
X1757391Y392540D01*
X1756712Y391270D01*
X1754610D01*
Y388914D01*
X1753507Y388442D01*
X1752676Y389120D01*
X1752655Y389141D01*
X1752630Y389158D01*
X1752600Y389182D01*
Y389382D01*
X1752294D01*
X1751899Y389646D01*
X1751007Y389823D01*
X1744285D01*
X1743051Y391057D01*
X1743537Y392230D01*
X1743770D01*
Y397115D01*
X1741500D01*
Y398385D01*
X1743770D01*
Y402171D01*
X1747774D01*
X1750314Y398272D01*
D02*
G37*
G36*
X1774589Y393694D02*
X1776098D01*
Y320375D01*
X1764866D01*
Y327403D01*
X1765076D01*
Y333753D01*
X1755424D01*
Y327437D01*
X1754071D01*
Y323500D01*
X1753436D01*
Y322865D01*
X1750134D01*
Y320375D01*
X1713000D01*
X1712028Y319972D01*
X1711625Y319000D01*
Y265452D01*
X1710355Y265111D01*
X1709594Y266431D01*
X1708135Y267890D01*
X1706348Y268921D01*
X1706120Y268982D01*
X1705658Y270421D01*
X1706289Y271514D01*
X1706784Y273363D01*
Y275277D01*
X1706289Y277126D01*
X1705331Y278784D01*
X1704232Y279883D01*
X1704081Y280670D01*
X1704232Y281457D01*
X1705331Y282556D01*
X1706289Y284214D01*
X1706784Y286063D01*
Y287977D01*
X1706289Y289826D01*
X1705331Y291484D01*
X1704232Y292583D01*
X1704081Y293370D01*
X1704232Y294157D01*
X1705331Y295256D01*
X1706289Y296914D01*
X1706784Y298763D01*
Y300677D01*
X1706289Y302526D01*
X1705331Y304184D01*
X1703978Y305537D01*
X1702320Y306495D01*
X1700471Y306990D01*
X1699809Y308260D01*
X1700465Y309396D01*
X1700999Y311388D01*
Y313451D01*
X1700465Y315444D01*
X1699434Y317231D01*
X1697975Y318690D01*
X1697745Y318822D01*
X1697830Y319654D01*
X1697997Y320143D01*
X1699069Y320587D01*
X1699983Y321501D01*
X1700478Y322696D01*
Y323296D01*
X1703377Y326195D01*
X1703883Y326951D01*
X1704060Y327843D01*
Y346234D01*
X1705806Y347980D01*
X1713031D01*
X1714110Y347520D01*
Y345135D01*
X1716630D01*
Y344500D01*
X1717265D01*
Y341480D01*
X1720670D01*
X1721872Y340278D01*
X1722726Y339708D01*
X1723732Y339508D01*
X1755424D01*
Y335247D01*
X1765076D01*
Y341597D01*
X1761941D01*
X1759540Y343998D01*
X1758687Y344568D01*
X1757680Y344768D01*
X1724821D01*
X1724000Y345589D01*
Y347980D01*
X1724270D01*
Y352710D01*
X1724270Y353520D01*
X1724270Y354790D01*
Y359520D01*
X1724060D01*
Y362940D01*
X1724038Y363049D01*
X1724130Y363511D01*
Y366480D01*
X1724270D01*
Y371210D01*
X1724270Y372020D01*
X1724270Y373290D01*
Y378020D01*
X1724855Y379048D01*
X1728216D01*
X1728770Y379158D01*
X1731236D01*
X1732230Y378492D01*
Y377360D01*
X1734615D01*
Y379880D01*
X1735885D01*
Y377360D01*
X1737185D01*
Y374751D01*
X1737363Y373859D01*
X1737868Y373103D01*
X1740980Y369991D01*
Y363480D01*
X1752020D01*
Y372710D01*
X1752020Y373520D01*
X1752020D01*
Y373980D01*
X1752020D01*
Y378365D01*
X1746500D01*
Y379635D01*
X1752020D01*
Y381524D01*
X1753193Y382010D01*
X1754480Y380724D01*
Y374790D01*
X1754480Y373980D01*
X1754480Y372710D01*
Y369135D01*
X1760000D01*
X1765520D01*
Y372710D01*
X1765520Y373520D01*
X1765520Y374790D01*
Y384020D01*
X1764535D01*
X1764390Y385230D01*
X1764390D01*
Y387718D01*
X1765660Y388244D01*
X1766159Y387745D01*
X1767354Y387250D01*
X1768646D01*
X1769841Y387745D01*
X1770755Y388659D01*
X1771250Y389854D01*
Y391147D01*
X1770755Y392341D01*
X1770487Y392609D01*
X1771198Y393694D01*
X1773319D01*
Y396214D01*
X1774589D01*
Y393694D01*
D02*
G37*
G36*
X1718730Y384576D02*
Y384270D01*
X1718730D01*
Y381443D01*
X1717460Y380859D01*
X1716715Y381363D01*
X1716641Y381443D01*
Y384006D01*
X1717485Y384790D01*
X1718730Y384576D01*
D02*
G37*
G36*
X1670273Y413836D02*
X1671467Y413341D01*
X1672760D01*
X1673954Y413836D01*
X1674396Y414278D01*
X1675666Y413752D01*
Y413723D01*
X1678686D01*
Y412453D01*
X1675666D01*
Y409613D01*
X1675391Y408950D01*
Y407657D01*
X1675424Y407578D01*
X1674635Y406365D01*
X1673993D01*
X1672798Y405871D01*
X1671884Y404956D01*
X1671389Y403762D01*
Y402469D01*
X1671884Y401274D01*
X1672798Y400360D01*
X1673993Y399865D01*
X1674593D01*
X1676639Y397819D01*
X1677300Y397378D01*
X1677823Y396855D01*
Y386770D01*
X1672385D01*
Y382750D01*
Y378730D01*
X1678020D01*
Y381358D01*
X1679290Y382023D01*
X1679702Y381738D01*
Y375920D01*
X1662500D01*
Y376138D01*
X1652500D01*
Y380233D01*
X1649730D01*
Y380868D01*
X1649095D01*
Y386138D01*
X1647444D01*
Y388668D01*
X1649019D01*
Y392938D01*
Y397208D01*
X1647444D01*
Y404622D01*
X1651000D01*
Y413766D01*
X1669034D01*
X1669688Y414420D01*
X1670273Y413836D01*
D02*
G37*
G36*
X1583944Y383540D02*
Y378305D01*
X1582635D01*
Y375820D01*
X1582000D01*
Y375185D01*
X1579230D01*
Y374396D01*
X1577120D01*
Y376665D01*
X1573750D01*
X1570380D01*
Y374396D01*
X1568520D01*
Y375485D01*
X1562480D01*
Y372744D01*
X1561592Y371856D01*
Y367687D01*
X1561338Y366522D01*
X1553718D01*
Y379730D01*
X1554228Y380240D01*
X1555030Y380400D01*
X1555883Y380970D01*
X1561224Y386310D01*
X1575139D01*
X1576145Y386510D01*
X1576261Y386588D01*
X1580388D01*
X1580642Y386842D01*
X1583944Y383540D01*
D02*
G37*
G36*
X1587235Y390230D02*
X1597800D01*
X1598571Y389073D01*
X1598593Y388960D01*
X1598266Y388471D01*
X1598200Y388141D01*
X1598011Y387684D01*
X1598011Y387684D01*
Y387231D01*
X1597726Y386542D01*
X1597198Y386014D01*
X1596509Y385729D01*
X1595628D01*
X1594656Y385326D01*
X1594253Y384354D01*
Y374818D01*
X1591897D01*
Y371348D01*
Y367878D01*
X1594253D01*
Y364714D01*
X1594270Y364673D01*
X1594256Y364631D01*
X1594323Y363514D01*
X1594327Y363403D01*
X1594283Y363373D01*
X1593013Y363475D01*
Y363475D01*
X1592408D01*
Y361120D01*
X1590908Y359620D01*
X1590124D01*
X1590591Y358492D01*
X1589529Y357429D01*
X1589483Y357403D01*
X1587913Y357385D01*
X1586186Y359112D01*
X1586186Y359112D01*
X1585214Y359515D01*
X1585214Y359515D01*
X1581530D01*
X1581142Y359354D01*
X1572990D01*
Y349989D01*
X1572917Y349814D01*
Y292608D01*
X1572016Y291466D01*
X1570574D01*
Y273831D01*
X1579344D01*
X1588717D01*
X1589384Y274277D01*
X1589532Y274215D01*
X1594896D01*
Y270141D01*
X1606436D01*
Y274215D01*
X1609176D01*
X1609811Y273116D01*
X1609609Y272765D01*
X1609166Y271112D01*
Y269400D01*
X1609609Y267747D01*
X1610465Y266265D01*
X1611675Y265055D01*
X1613157Y264199D01*
X1614810Y263756D01*
X1616522D01*
X1618175Y264199D01*
X1619657Y265055D01*
X1620867Y266265D01*
X1621723Y267747D01*
X1622166Y269400D01*
Y271112D01*
X1621723Y272765D01*
X1621521Y273116D01*
X1622156Y274215D01*
X1637538D01*
X1638510Y274618D01*
X1638913Y275590D01*
Y279236D01*
X1644936D01*
Y286876D01*
X1637658D01*
X1637642Y286917D01*
X1637609Y287253D01*
X1637448Y287385D01*
X1637368Y287577D01*
X1637056Y287706D01*
X1636796Y287920D01*
X1636670Y287959D01*
X1636477Y288261D01*
X1636118Y289364D01*
X1636133Y289449D01*
X1636373Y290027D01*
X1636373Y290027D01*
Y294159D01*
X1635970Y295131D01*
X1634998Y295534D01*
X1617051D01*
X1616355Y296804D01*
X1616615Y297212D01*
X1631321D01*
Y297892D01*
X1633292D01*
Y297458D01*
X1638832D01*
Y297458D01*
X1639292D01*
Y297458D01*
X1641427D01*
Y300228D01*
X1642697D01*
Y297458D01*
X1644832D01*
Y299384D01*
X1646005Y299870D01*
X1646495Y299381D01*
X1647311Y298835D01*
Y297212D01*
X1648752D01*
X1649020Y296810D01*
Y295518D01*
X1649515Y294323D01*
X1650429Y293409D01*
X1651624Y292914D01*
X1652917D01*
X1654111Y293409D01*
X1655025Y294323D01*
X1655520Y295518D01*
Y296810D01*
X1655788Y297212D01*
X1664341D01*
Y298234D01*
X1665038D01*
X1666029Y298431D01*
X1666869Y298992D01*
X1668913Y301037D01*
X1669475Y301877D01*
X1669672Y302868D01*
Y304118D01*
X1670022D01*
Y312658D01*
X1669767D01*
Y318354D01*
X1670659Y319247D01*
X1671021Y319788D01*
X1674828D01*
Y319788D01*
X1676098Y320450D01*
X1676190Y320401D01*
X1676282Y320279D01*
X1676197Y319854D01*
Y295306D01*
X1676375Y294414D01*
X1676880Y293658D01*
X1680285Y290252D01*
X1680039Y289826D01*
X1679544Y287977D01*
Y286063D01*
X1680039Y284214D01*
X1680997Y282556D01*
X1682096Y281457D01*
X1682247Y280670D01*
X1682096Y279883D01*
X1680997Y278784D01*
X1680039Y277126D01*
X1679544Y275277D01*
Y274955D01*
X1686814D01*
Y273685D01*
X1679544D01*
Y273363D01*
X1680039Y271514D01*
X1680670Y270421D01*
X1680208Y268982D01*
X1679980Y268921D01*
X1678193Y267890D01*
X1676734Y266431D01*
X1675703Y264644D01*
X1675169Y262652D01*
Y260588D01*
X1675703Y258596D01*
X1676472Y257264D01*
X1675870Y255994D01*
X1588114Y256015D01*
Y272561D01*
X1579344D01*
X1570574D01*
Y256917D01*
X1569676Y256019D01*
X1521114Y256031D01*
Y272561D01*
X1512344D01*
X1503574D01*
Y256934D01*
X1502676Y256036D01*
X1490733Y256039D01*
Y363369D01*
X1502397D01*
X1502400Y363371D01*
X1502403Y363369D01*
X1502885Y363572D01*
X1503369Y363772D01*
X1503370Y363775D01*
X1503373Y363777D01*
X1504267Y364679D01*
X1504268Y364683D01*
X1504272Y364684D01*
X1504467Y365169D01*
X1504665Y365653D01*
X1504663Y365657D01*
X1504665Y365660D01*
X1504641Y367994D01*
X1504799Y368317D01*
X1505263Y368441D01*
X1506807Y369333D01*
X1508067Y370593D01*
X1508959Y372137D01*
X1509036Y372229D01*
X1509304Y372206D01*
X1510182Y371885D01*
X1515800D01*
X1521320D01*
Y372767D01*
X1526980D01*
Y371885D01*
X1532500D01*
X1538020D01*
Y372161D01*
X1539290Y372329D01*
X1539341Y372137D01*
X1540233Y370593D01*
X1541493Y369333D01*
X1543037Y368441D01*
X1544759Y367980D01*
X1545015D01*
Y374750D01*
X1546285D01*
Y367980D01*
X1546541D01*
X1548263Y368441D01*
X1549807Y369333D01*
X1551067Y370593D01*
X1551073Y370603D01*
X1552343Y370263D01*
Y366522D01*
X1552746Y365550D01*
X1553718Y365147D01*
X1561338D01*
X1561698Y365296D01*
X1562081Y365365D01*
X1562168Y365491D01*
X1562310Y365550D01*
X1562459Y365910D01*
X1562681Y366229D01*
X1562935Y367394D01*
X1562908Y367545D01*
X1562967Y367687D01*
Y368860D01*
X1564865D01*
Y371380D01*
X1565500D01*
Y372015D01*
X1568520D01*
Y373021D01*
X1570380D01*
Y371335D01*
X1573750D01*
X1577120D01*
Y373021D01*
X1579230D01*
Y372315D01*
X1584770D01*
Y377272D01*
X1584916Y377333D01*
X1585319Y378305D01*
Y383540D01*
X1585319Y383540D01*
X1584916Y384512D01*
X1584916Y384512D01*
X1581614Y387814D01*
X1580642Y388217D01*
X1580133Y388419D01*
X1579825Y389907D01*
X1580788Y390870D01*
X1587235D01*
Y390230D01*
D02*
G37*
G36*
X1604161Y422157D02*
X1605428D01*
X1605508Y421856D01*
X1605001Y421199D01*
Y417116D01*
Y413646D01*
X1607684D01*
X1608133Y413471D01*
X1608778Y412704D01*
Y406280D01*
X1615694D01*
Y376138D01*
X1611960D01*
Y370178D01*
X1611923Y370141D01*
X1611428Y368946D01*
Y367654D01*
X1611923Y366459D01*
X1611960Y366422D01*
Y365352D01*
X1611923Y365315D01*
X1611428Y364120D01*
Y364043D01*
X1610498Y363422D01*
X1609205D01*
X1608011Y362927D01*
X1607097Y362013D01*
X1606602Y360818D01*
Y359525D01*
X1606755Y359156D01*
X1605907Y357886D01*
X1601671D01*
X1601039Y358518D01*
X1600466Y358901D01*
X1599513Y359665D01*
Y360935D01*
X1598908D01*
Y359620D01*
X1597808D01*
X1596308Y361120D01*
Y363475D01*
X1595703D01*
X1595628Y364714D01*
Y367878D01*
X1597327D01*
Y371348D01*
Y374818D01*
X1595628D01*
Y384354D01*
X1596783D01*
X1597977Y384849D01*
X1598891Y385763D01*
X1599386Y386958D01*
Y387684D01*
X1599409Y387707D01*
X1599914Y388464D01*
X1600092Y389356D01*
Y390230D01*
X1604265D01*
Y396770D01*
X1599813D01*
X1599409Y397375D01*
X1597074Y399710D01*
X1597600Y400980D01*
X1604265D01*
Y407520D01*
X1600318D01*
X1600077Y407743D01*
X1599524Y408670D01*
X1599894Y409563D01*
Y410857D01*
X1599399Y412051D01*
X1599074Y412376D01*
X1599088Y413646D01*
X1603731D01*
Y417116D01*
Y420586D01*
X1599997D01*
Y422157D01*
X1602891D01*
Y430802D01*
X1604161D01*
Y422157D01*
D02*
G37*
G36*
X1718564Y372138D02*
X1718730Y372020D01*
X1718730Y371210D01*
Y366480D01*
X1718564Y366409D01*
Y366020D01*
X1717265D01*
Y363000D01*
Y359980D01*
X1718564D01*
Y359591D01*
X1718730Y359520D01*
X1718730Y354201D01*
X1718692Y353927D01*
X1718564Y353748D01*
Y353000D01*
X1711258D01*
Y353000D01*
X1709943D01*
X1705356Y357587D01*
Y368046D01*
X1710025Y372715D01*
X1718564D01*
Y372138D01*
D02*
G37*
G36*
X1598243Y350265D02*
X1598863D01*
Y347455D01*
X1598032Y346624D01*
X1591643D01*
Y343154D01*
Y339684D01*
X1594612D01*
Y326136D01*
X1588875D01*
Y339684D01*
X1590373D01*
Y343154D01*
Y346624D01*
X1588875D01*
Y349131D01*
X1589203Y350265D01*
X1590473D01*
Y352170D01*
X1591743D01*
Y350265D01*
X1593013D01*
Y351167D01*
X1594186Y351654D01*
X1594358Y351482D01*
X1594530Y351654D01*
X1595703Y351167D01*
Y350265D01*
X1596973D01*
Y352170D01*
X1598243D01*
Y350265D01*
D02*
G37*
G36*
X1611960Y345598D02*
X1621960D01*
Y335598D01*
X1621960Y335598D01*
X1621960D01*
X1621540Y334479D01*
X1620030Y332970D01*
X1618210Y332970D01*
X1616940Y332970D01*
X1615615D01*
Y330200D01*
Y327430D01*
X1616940D01*
X1617750Y327430D01*
X1619020Y327430D01*
X1623750D01*
Y328383D01*
X1624012Y328558D01*
X1625282Y327879D01*
Y326418D01*
X1627167D01*
Y329438D01*
X1628437D01*
Y326418D01*
X1630466D01*
X1630701Y326183D01*
X1631895Y325688D01*
X1633188D01*
X1634383Y326183D01*
X1634618Y326418D01*
X1635062D01*
Y326862D01*
X1635297Y327097D01*
X1635792Y328292D01*
Y329585D01*
X1635297Y330779D01*
X1635107Y330969D01*
Y331047D01*
X1635721Y331661D01*
X1636216Y332855D01*
Y333098D01*
X1636378Y333260D01*
X1636883Y334016D01*
X1637285Y334140D01*
X1637811Y333824D01*
X1637526Y332554D01*
X1637526D01*
Y325814D01*
X1636600Y325418D01*
Y322498D01*
X1635339Y322476D01*
Y322476D01*
X1628049D01*
Y316936D01*
Y306936D01*
X1629104D01*
Y305469D01*
X1627388Y303752D01*
X1623165D01*
Y306324D01*
X1622762Y307296D01*
X1622762Y307296D01*
X1620724Y309334D01*
X1620472Y309438D01*
X1620278Y309632D01*
X1620005D01*
X1619752Y309736D01*
X1619059Y310111D01*
X1618579Y310634D01*
Y319071D01*
X1614934D01*
X1611289D01*
Y316662D01*
X1609518D01*
Y320092D01*
X1596978D01*
Y317467D01*
X1596317Y317166D01*
X1595708Y317078D01*
X1589295Y323491D01*
X1589821Y324761D01*
X1594612D01*
X1595584Y325164D01*
X1595708Y325463D01*
X1596978Y325211D01*
Y324052D01*
X1609518D01*
Y332430D01*
X1610897Y333809D01*
X1611240Y333951D01*
X1612154Y334865D01*
X1612649Y336059D01*
Y337352D01*
X1612154Y338547D01*
X1611240Y339461D01*
X1610074Y339944D01*
Y342463D01*
X1606804D01*
Y343733D01*
X1610074D01*
Y345546D01*
X1610307Y345738D01*
X1611960D01*
Y345598D01*
D02*
G37*
G36*
X1659668Y341316D02*
X1660486Y340770D01*
X1661451Y340578D01*
X1663443D01*
X1664407Y340770D01*
X1664556Y340869D01*
X1665453D01*
X1665669Y340653D01*
X1665860Y340574D01*
Y336931D01*
X1670130D01*
Y336296D01*
X1670765D01*
Y331526D01*
X1672844D01*
Y330200D01*
X1664208D01*
X1663672Y329664D01*
X1662402Y330057D01*
Y332042D01*
X1660017D01*
Y329522D01*
X1658747D01*
Y332042D01*
X1656362D01*
X1656362Y332042D01*
X1655092Y331857D01*
X1654187Y332232D01*
X1652894D01*
X1652536Y332084D01*
X1651266Y332554D01*
Y332554D01*
X1643686D01*
Y335094D01*
X1644095Y335593D01*
Y340868D01*
X1645365D01*
Y335598D01*
X1652500D01*
Y341947D01*
X1659037D01*
X1659668Y341316D01*
D02*
G37*
G36*
X1689926Y372305D02*
Y371731D01*
X1690421Y370536D01*
X1691335Y369622D01*
X1692530Y369128D01*
X1693823D01*
X1694108Y369246D01*
X1694828Y368169D01*
X1692128Y365469D01*
X1691623Y364713D01*
X1691445Y363821D01*
Y339854D01*
X1685573Y333982D01*
X1684400Y334468D01*
Y335661D01*
X1680765D01*
Y331526D01*
X1681458D01*
X1681944Y330353D01*
X1680125Y328534D01*
X1679880Y328168D01*
X1676776D01*
X1676422Y328522D01*
X1676400Y328536D01*
Y331526D01*
X1679495D01*
Y336296D01*
Y341066D01*
X1676400D01*
Y341884D01*
X1673860Y344424D01*
X1673860Y353630D01*
X1682570D01*
Y360709D01*
X1682615Y360934D01*
Y368419D01*
X1688084Y373888D01*
X1688344D01*
X1689926Y372305D01*
D02*
G37*
G36*
X1641955Y315678D02*
X1645920D01*
Y305530D01*
X1645432Y305307D01*
X1644801Y305564D01*
X1644182Y306133D01*
Y308991D01*
X1640662D01*
X1637142D01*
Y305837D01*
X1637084Y305773D01*
X1636023Y304991D01*
X1635252Y305259D01*
Y306936D01*
X1635339D01*
Y314071D01*
X1631694D01*
Y315341D01*
X1635339D01*
Y315656D01*
X1636600Y315678D01*
Y315678D01*
X1640685D01*
Y320548D01*
X1641955D01*
Y315678D01*
D02*
G37*
G36*
X1666538Y327893D02*
X1668808D01*
Y326623D01*
X1666538D01*
Y325828D01*
X1666288D01*
Y322578D01*
X1666238Y322328D01*
Y322151D01*
X1665346Y321258D01*
X1664785Y320418D01*
X1664587Y319427D01*
Y312658D01*
X1663982D01*
Y304118D01*
X1662864Y303752D01*
X1651226D01*
X1650976Y303802D01*
X1650235D01*
X1650043Y304086D01*
X1650719Y305356D01*
X1653682D01*
Y308991D01*
X1650162D01*
Y309626D01*
X1649527D01*
Y313896D01*
X1647295D01*
Y315678D01*
X1649885D01*
Y320548D01*
X1650520D01*
Y321183D01*
X1655240D01*
Y321905D01*
X1656362Y322262D01*
Y322262D01*
X1658747D01*
Y324782D01*
X1659382D01*
Y325417D01*
X1662402D01*
Y327714D01*
X1662611Y327868D01*
X1663672Y328289D01*
X1663981Y328417D01*
X1664313Y328448D01*
X1664448Y328611D01*
X1664644Y328692D01*
X1664777Y328825D01*
X1666538D01*
Y327893D01*
D02*
G37*
G36*
X1611289Y310341D02*
X1614934D01*
Y309706D01*
X1615569D01*
Y306936D01*
X1618579D01*
Y307876D01*
X1619752Y308362D01*
X1621790Y306324D01*
Y303752D01*
X1619321D01*
Y300482D01*
X1618686D01*
Y299847D01*
X1614291D01*
Y297434D01*
X1612768D01*
X1611518Y297482D01*
X1611518Y298704D01*
Y301117D01*
X1607998D01*
Y301752D01*
X1607363D01*
Y306022D01*
X1606392D01*
X1605908Y307144D01*
X1606639Y308052D01*
X1609518D01*
Y311070D01*
X1609852Y311404D01*
X1611289D01*
Y310341D01*
D02*
G37*
G36*
X1634998Y290027D02*
X1631847Y286876D01*
X1626396D01*
Y281425D01*
X1625668Y280697D01*
X1624936D01*
Y282421D01*
X1616396D01*
Y281929D01*
X1611532Y286793D01*
X1611532Y294159D01*
X1634998D01*
Y290027D01*
D02*
G37*
G36*
X1585214Y358140D02*
X1587500Y355854D01*
Y346624D01*
X1587388D01*
Y339684D01*
X1587500D01*
Y323850D01*
X1587246Y323596D01*
X1594866Y315976D01*
Y294894D01*
X1610182Y294219D01*
X1610157Y294159D01*
X1610157Y286793D01*
X1610157Y286793D01*
X1610560Y285821D01*
X1615424Y280957D01*
X1616396Y280554D01*
Y279236D01*
X1624936D01*
Y279322D01*
X1625668D01*
X1625668Y279322D01*
X1626355Y279607D01*
X1626396Y279624D01*
Y279236D01*
X1630031D01*
Y283056D01*
X1630666D01*
Y283691D01*
X1634936D01*
Y286876D01*
X1633791D01*
X1634190Y287275D01*
X1635504Y286876D01*
X1636396Y286605D01*
Y279236D01*
X1637538D01*
Y275590D01*
X1619427D01*
X1618175Y276313D01*
X1616522Y276756D01*
X1614810D01*
X1613157Y276313D01*
X1611905Y275590D01*
X1589532D01*
Y290830D01*
X1587754Y292608D01*
X1574292D01*
Y349814D01*
X1576625D01*
Y354584D01*
X1577260D01*
Y355219D01*
X1581530D01*
Y358140D01*
X1585214D01*
D02*
G37*
%LPC*%
G36*
X1727270Y558615D02*
X1717135D01*
Y554730D01*
X1727270D01*
Y558615D01*
D02*
G37*
G36*
X1715865D02*
X1705730D01*
Y554730D01*
X1715865D01*
Y558615D01*
D02*
G37*
G36*
X1681111Y562744D02*
X1678801D01*
X1676571Y562146D01*
X1674571Y560992D01*
X1672938Y559359D01*
X1671784Y557359D01*
X1671186Y555129D01*
Y552819D01*
X1671784Y550589D01*
X1672938Y548589D01*
X1674571Y546956D01*
X1676571Y545802D01*
X1678801Y545204D01*
X1681111D01*
X1683341Y545802D01*
X1685341Y546956D01*
X1686974Y548589D01*
X1688128Y550589D01*
X1688726Y552819D01*
Y555129D01*
X1688128Y557359D01*
X1686974Y559359D01*
X1685341Y560992D01*
X1683341Y562146D01*
X1681111Y562744D01*
D02*
G37*
G36*
X1656296Y554207D02*
X1649161D01*
Y545562D01*
Y536917D01*
X1656296D01*
Y549007D01*
X1656750Y550103D01*
Y551396D01*
X1656296Y552492D01*
Y554207D01*
D02*
G37*
G36*
X1765665Y547270D02*
X1756230D01*
Y545135D01*
X1765665D01*
Y547270D01*
D02*
G37*
G36*
X1574727Y569774D02*
X1571892D01*
Y566789D01*
X1574727D01*
Y569774D01*
D02*
G37*
G36*
X1506721Y548000D02*
X1504336D01*
Y545490D01*
X1506721D01*
Y548000D01*
D02*
G37*
G36*
X1514985Y540834D02*
X1512050D01*
Y538099D01*
X1514985D01*
Y540834D01*
D02*
G37*
G36*
X1558011Y528452D02*
X1550001D01*
Y526317D01*
X1558011D01*
Y528452D01*
D02*
G37*
G36*
X1501389Y465836D02*
X1501013D01*
Y461391D01*
X1505458D01*
Y461767D01*
X1504685Y463634D01*
X1503256Y465063D01*
X1501389Y465836D01*
D02*
G37*
G36*
X1499743D02*
X1499368D01*
X1497500Y465063D01*
X1496071Y463634D01*
X1495298Y461767D01*
Y461391D01*
X1499743D01*
Y465836D01*
D02*
G37*
G36*
X1505458Y460121D02*
X1501013D01*
Y455676D01*
X1501389D01*
X1503256Y456449D01*
X1504685Y457878D01*
X1505458Y459745D01*
Y460121D01*
D02*
G37*
G36*
X1499743D02*
X1495298D01*
Y459745D01*
X1496071Y457878D01*
X1497500Y456449D01*
X1499368Y455676D01*
X1499743D01*
Y460121D01*
D02*
G37*
G36*
X1515165Y429270D02*
X1510280D01*
Y426885D01*
X1515165D01*
Y429270D01*
D02*
G37*
G36*
X1538707Y483386D02*
X1536572D01*
Y481251D01*
X1538707D01*
Y483386D01*
D02*
G37*
G36*
Y479981D02*
X1536572D01*
Y477846D01*
X1538707D01*
Y479981D01*
D02*
G37*
G36*
Y475766D02*
X1536572D01*
Y473631D01*
X1538707D01*
Y475766D01*
D02*
G37*
G36*
Y472361D02*
X1536572D01*
Y470226D01*
X1538707D01*
Y472361D01*
D02*
G37*
G36*
Y468400D02*
X1536572D01*
Y466265D01*
X1538707D01*
Y468400D01*
D02*
G37*
G36*
Y464995D02*
X1536572D01*
Y462860D01*
X1538707D01*
Y464995D01*
D02*
G37*
G36*
Y460780D02*
X1536572D01*
Y458645D01*
X1538707D01*
Y460780D01*
D02*
G37*
G36*
Y457375D02*
X1536572D01*
Y455240D01*
X1538707D01*
Y457375D01*
D02*
G37*
G36*
X1772474Y469118D02*
X1768239D01*
Y465033D01*
X1772474D01*
Y469118D01*
D02*
G37*
G36*
X1766969D02*
X1762734D01*
Y465033D01*
X1766969D01*
Y469118D01*
D02*
G37*
G36*
X1758333Y460624D02*
X1755948D01*
Y458739D01*
X1758333D01*
Y460624D01*
D02*
G37*
G36*
Y452729D02*
X1755948D01*
Y450844D01*
X1758333D01*
Y452729D01*
D02*
G37*
G36*
X1772474Y454563D02*
X1768239D01*
Y450478D01*
X1772474D01*
Y454563D01*
D02*
G37*
G36*
X1754520Y451520D02*
X1749635D01*
Y449885D01*
X1754520D01*
Y451520D01*
D02*
G37*
G36*
X1525376Y548000D02*
X1522991D01*
Y545490D01*
X1525376D01*
Y548000D01*
D02*
G37*
G36*
X1525790Y540834D02*
X1522855D01*
Y538099D01*
X1525790D01*
Y540834D01*
D02*
G37*
G36*
X1527224Y527685D02*
X1523139D01*
Y523450D01*
X1527224D01*
Y527685D01*
D02*
G37*
G36*
X1538707Y517930D02*
X1536572D01*
Y515795D01*
X1538707D01*
Y517930D01*
D02*
G37*
G36*
Y514525D02*
X1536572D01*
Y512390D01*
X1538707D01*
Y514525D01*
D02*
G37*
G36*
Y510310D02*
X1536572D01*
Y508175D01*
X1538707D01*
Y510310D01*
D02*
G37*
G36*
Y506905D02*
X1536572D01*
Y504770D01*
X1538707D01*
Y506905D01*
D02*
G37*
G36*
Y498118D02*
X1536572D01*
Y495983D01*
X1538707D01*
Y498118D01*
D02*
G37*
G36*
Y494713D02*
X1536572D01*
Y492578D01*
X1538707D01*
Y494713D01*
D02*
G37*
G36*
X1558011Y450047D02*
X1550001D01*
Y447912D01*
X1558011D01*
Y450047D01*
D02*
G37*
G36*
X1548704Y449901D02*
X1545769D01*
Y447166D01*
X1548704D01*
Y449901D01*
D02*
G37*
G36*
X1632891Y439447D02*
X1624161D01*
Y430802D01*
Y422157D01*
X1632891D01*
Y430802D01*
Y439447D01*
D02*
G37*
G36*
X1622618Y420486D02*
X1619683D01*
Y417751D01*
X1622618D01*
Y420486D01*
D02*
G37*
G36*
X1643674Y397208D02*
X1640789D01*
Y393573D01*
X1643674D01*
Y397208D01*
D02*
G37*
G36*
X1639519D02*
X1636634D01*
Y393573D01*
X1639519D01*
Y397208D01*
D02*
G37*
G36*
X1643674Y392303D02*
X1640789D01*
Y388668D01*
X1643674D01*
Y392303D01*
D02*
G37*
G36*
X1639519D02*
X1636634D01*
Y388668D01*
X1639519D01*
Y392303D01*
D02*
G37*
G36*
X1624095Y386138D02*
X1621960D01*
Y381503D01*
X1624095D01*
Y386138D01*
D02*
G37*
G36*
X1538020Y414020D02*
X1533135D01*
Y411885D01*
X1538020D01*
Y414020D01*
D02*
G37*
G36*
X1521320D02*
X1516435D01*
Y411885D01*
X1521320D01*
Y414020D01*
D02*
G37*
G36*
X1531865D02*
X1526980D01*
Y411885D01*
X1531865D01*
Y414020D01*
D02*
G37*
G36*
X1515165D02*
X1510280D01*
Y411885D01*
X1515165D01*
Y414020D01*
D02*
G37*
G36*
Y385615D02*
X1510280D01*
Y383480D01*
X1515165D01*
Y385615D01*
D02*
G37*
G36*
X1538020Y429270D02*
X1533135D01*
Y426885D01*
X1538020D01*
Y429270D01*
D02*
G37*
G36*
X1546541Y429520D02*
X1546285D01*
Y423385D01*
X1552420D01*
Y423641D01*
X1551959Y425363D01*
X1551067Y426907D01*
X1549807Y428167D01*
X1548263Y429059D01*
X1546541Y429520D01*
D02*
G37*
G36*
X1577891Y430167D02*
X1575756D01*
Y422157D01*
X1577891D01*
Y430167D01*
D02*
G37*
G36*
X1574933Y420224D02*
X1571948D01*
Y417389D01*
X1574933D01*
Y420224D01*
D02*
G37*
G36*
Y416119D02*
X1571948D01*
Y413284D01*
X1574933D01*
Y416119D01*
D02*
G37*
G36*
X1765520Y367865D02*
X1760635D01*
Y363480D01*
X1765520D01*
Y367865D01*
D02*
G37*
G36*
X1759365D02*
X1754480D01*
Y363480D01*
X1759365D01*
Y367865D01*
D02*
G37*
G36*
X1715995Y343865D02*
X1714110D01*
Y341480D01*
X1715995D01*
Y343865D01*
D02*
G37*
G36*
X1752801Y327437D02*
X1750134D01*
Y324135D01*
X1752801D01*
Y327437D01*
D02*
G37*
G36*
X1653174Y397208D02*
X1650289D01*
Y393573D01*
X1653174D01*
Y397208D01*
D02*
G37*
G36*
Y392303D02*
X1650289D01*
Y388668D01*
X1653174D01*
Y392303D01*
D02*
G37*
G36*
X1671115Y386770D02*
X1665480D01*
Y383385D01*
X1671115D01*
Y386770D01*
D02*
G37*
G36*
X1652500Y386138D02*
X1650365D01*
Y381503D01*
X1652500D01*
Y386138D01*
D02*
G37*
G36*
X1671115Y382115D02*
X1665480D01*
Y378730D01*
X1671115D01*
Y382115D01*
D02*
G37*
G36*
X1577120Y380870D02*
X1574385D01*
Y377935D01*
X1577120D01*
Y380870D01*
D02*
G37*
G36*
X1573115D02*
X1570380D01*
Y377935D01*
X1573115D01*
Y380870D01*
D02*
G37*
G36*
X1568520Y378640D02*
X1566135D01*
Y376755D01*
X1568520D01*
Y378640D01*
D02*
G37*
G36*
X1564865D02*
X1562480D01*
Y376755D01*
X1564865D01*
Y378640D01*
D02*
G37*
G36*
X1581365Y378305D02*
X1579230D01*
Y376455D01*
X1581365D01*
Y378305D01*
D02*
G37*
G36*
X1590627Y374818D02*
X1587642D01*
Y371983D01*
X1590627D01*
Y374818D01*
D02*
G37*
G36*
X1584770Y371045D02*
X1582635D01*
Y369195D01*
X1584770D01*
Y371045D01*
D02*
G37*
G36*
X1581365D02*
X1579230D01*
Y369195D01*
X1581365D01*
Y371045D01*
D02*
G37*
G36*
X1568520Y370745D02*
X1566135D01*
Y368860D01*
X1568520D01*
Y370745D01*
D02*
G37*
G36*
X1538020Y370615D02*
X1533135D01*
Y368230D01*
X1538020D01*
Y370615D01*
D02*
G37*
G36*
X1531865D02*
X1526980D01*
Y368230D01*
X1531865D01*
Y370615D01*
D02*
G37*
G36*
X1521320D02*
X1516435D01*
Y368230D01*
X1521320D01*
Y370615D01*
D02*
G37*
G36*
X1515165D02*
X1510280D01*
Y368230D01*
X1515165D01*
Y370615D01*
D02*
G37*
G36*
X1590627Y370713D02*
X1587642D01*
Y367878D01*
X1590627D01*
Y370713D01*
D02*
G37*
G36*
X1577120Y370065D02*
X1574385D01*
Y367130D01*
X1577120D01*
Y370065D01*
D02*
G37*
G36*
X1573115D02*
X1570380D01*
Y367130D01*
X1573115D01*
Y370065D01*
D02*
G37*
G36*
X1589808Y363475D02*
X1589203D01*
Y362205D01*
X1589808D01*
Y363475D01*
D02*
G37*
G36*
Y360935D02*
X1589203D01*
Y359665D01*
X1589808D01*
Y360935D01*
D02*
G37*
G36*
X1525294Y367000D02*
X1523006D01*
X1520893Y366125D01*
X1519275Y364507D01*
X1518400Y362394D01*
Y360106D01*
X1519275Y357993D01*
X1520893Y356375D01*
X1523006Y355500D01*
X1525294D01*
X1527407Y356375D01*
X1529025Y357993D01*
X1529900Y360106D01*
Y362394D01*
X1529025Y364507D01*
X1527407Y366125D01*
X1525294Y367000D01*
D02*
G37*
G36*
X1542114Y349466D02*
X1536479D01*
Y331331D01*
X1542114D01*
Y349466D01*
D02*
G37*
G36*
X1535209D02*
X1529574D01*
Y331331D01*
X1535209D01*
Y349466D01*
D02*
G37*
G36*
X1556512Y361801D02*
X1555540Y361398D01*
Y361398D01*
X1555446Y361304D01*
X1549509Y355367D01*
X1549509Y355367D01*
X1549106Y354395D01*
X1549106Y354395D01*
Y349466D01*
X1549509Y348494D01*
X1549574Y348467D01*
Y311926D01*
X1562114D01*
Y348010D01*
X1562270Y348153D01*
X1562626Y348263D01*
X1562892Y348483D01*
X1563209Y348621D01*
X1563979Y349418D01*
X1564135Y349814D01*
X1571530D01*
Y359354D01*
X1564365D01*
X1564253Y359623D01*
X1564245Y359914D01*
X1563768Y360986D01*
X1563582Y361162D01*
X1563484Y361398D01*
X1563215Y361509D01*
X1563004Y361710D01*
X1562748Y361703D01*
X1562512Y361801D01*
X1556512D01*
X1556512Y361801D01*
D02*
G37*
G36*
X1542114Y330061D02*
X1536479D01*
Y311926D01*
X1542114D01*
Y330061D01*
D02*
G37*
G36*
X1535209D02*
X1529574D01*
Y311926D01*
X1535209D01*
Y330061D01*
D02*
G37*
G36*
X1521114Y291466D02*
X1512979D01*
Y273831D01*
X1521114D01*
Y291466D01*
D02*
G37*
G36*
X1511709D02*
X1503574D01*
Y273831D01*
X1511709D01*
Y291466D01*
D02*
G37*
G36*
X1666436Y274276D02*
X1661301D01*
Y270141D01*
X1666436D01*
Y274276D01*
D02*
G37*
G36*
X1660031D02*
X1654896D01*
Y270141D01*
X1660031D01*
Y274276D01*
D02*
G37*
G36*
X1666436Y268871D02*
X1661301D01*
Y264736D01*
X1666436D01*
Y268871D01*
D02*
G37*
G36*
X1660031D02*
X1654896D01*
Y264736D01*
X1660031D01*
Y268871D01*
D02*
G37*
G36*
X1606436D02*
X1601301D01*
Y264736D01*
X1606436D01*
Y268871D01*
D02*
G37*
G36*
X1600031D02*
X1594896D01*
Y264736D01*
X1600031D01*
Y268871D01*
D02*
G37*
G36*
X1646522Y276756D02*
X1644810D01*
X1643157Y276313D01*
X1641675Y275457D01*
X1640465Y274247D01*
X1639609Y272765D01*
X1639166Y271112D01*
Y269400D01*
X1639609Y267747D01*
X1640465Y266265D01*
X1641675Y265055D01*
X1643157Y264199D01*
X1644810Y263756D01*
X1646522D01*
X1648175Y264199D01*
X1649657Y265055D01*
X1650867Y266265D01*
X1651723Y267747D01*
X1652166Y269400D01*
Y271112D01*
X1651723Y272765D01*
X1650867Y274247D01*
X1649657Y275457D01*
X1648175Y276313D01*
X1646522Y276756D01*
D02*
G37*
%LPD*%
G36*
X1562990Y359354D02*
Y355219D01*
X1567260D01*
Y353949D01*
X1562990D01*
Y350373D01*
X1562220Y349576D01*
X1561864Y349466D01*
X1556479D01*
Y330696D01*
X1555209D01*
Y349466D01*
X1550481D01*
Y354395D01*
X1556512Y360426D01*
X1562512D01*
X1562990Y359354D01*
D02*
G37*
%LPC*%
G36*
X1601582Y374818D02*
X1598597D01*
Y371983D01*
X1601582D01*
Y374818D01*
D02*
G37*
G36*
Y370713D02*
X1598597D01*
Y367878D01*
X1601582D01*
Y370713D01*
D02*
G37*
G36*
X1598908Y363475D02*
Y362205D01*
X1599513D01*
Y363475D01*
X1598908D01*
D02*
G37*
G36*
X1715995Y366020D02*
X1714110D01*
Y363635D01*
X1715995D01*
Y366020D01*
D02*
G37*
G36*
Y362365D02*
X1714110D01*
Y359980D01*
X1715995D01*
Y362365D01*
D02*
G37*
G36*
X1614345Y332970D02*
X1612210D01*
Y330835D01*
X1614345D01*
Y332970D01*
D02*
G37*
G36*
Y329565D02*
X1612210D01*
Y327430D01*
X1614345D01*
Y329565D01*
D02*
G37*
G36*
X1618579Y322476D02*
X1615569D01*
Y320341D01*
X1618579D01*
Y322476D01*
D02*
G37*
G36*
X1614299D02*
X1611289D01*
Y320341D01*
X1614299D01*
Y322476D01*
D02*
G37*
G36*
X1669495Y335661D02*
X1665860D01*
Y331526D01*
X1669495D01*
Y335661D01*
D02*
G37*
G36*
X1684400Y341066D02*
X1680765D01*
Y336931D01*
X1684400D01*
Y341066D01*
D02*
G37*
G36*
X1644182Y313896D02*
X1641297D01*
Y310261D01*
X1644182D01*
Y313896D01*
D02*
G37*
G36*
X1640027D02*
X1637142D01*
Y310261D01*
X1640027D01*
Y313896D01*
D02*
G37*
G36*
X1662402Y324147D02*
X1660017D01*
Y322262D01*
X1662402D01*
Y324147D01*
D02*
G37*
G36*
X1655240Y319913D02*
X1651155D01*
Y315678D01*
X1655240D01*
Y319913D01*
D02*
G37*
G36*
X1653682Y313896D02*
X1650797D01*
Y310261D01*
X1653682D01*
Y313896D01*
D02*
G37*
G36*
X1614299Y309071D02*
X1611289D01*
Y307292D01*
X1611289Y306936D01*
X1610430Y306022D01*
X1608633D01*
Y302387D01*
X1611518D01*
Y305666D01*
X1611518Y306022D01*
X1612377Y306936D01*
X1614299D01*
Y309071D01*
D02*
G37*
G36*
X1618051Y303752D02*
X1614291D01*
Y301117D01*
X1618051D01*
Y303752D01*
D02*
G37*
G36*
X1624936Y286876D02*
X1621301D01*
Y283691D01*
X1624936D01*
Y286876D01*
D02*
G37*
G36*
X1620031D02*
X1616396D01*
Y283691D01*
X1620031D01*
Y286876D01*
D02*
G37*
G36*
X1581530Y353949D02*
X1577895D01*
Y349814D01*
X1581530D01*
Y353949D01*
D02*
G37*
G36*
X1634936Y282421D02*
X1631301D01*
Y279236D01*
X1634936D01*
Y282421D01*
D02*
G37*
%LPD*%
D10*
X1597608Y361570D02*
D03*
X1591108Y352170D02*
D03*
X1597608D02*
D03*
X1591108Y361570D02*
D03*
D11*
X1594358Y356870D02*
D03*
D12*
X1670558Y322808D02*
D03*
D13*
X1672308Y327258D02*
D03*
X1668808D02*
D03*
D14*
X1614934Y309706D02*
D03*
Y314706D02*
D03*
X1631694Y319706D02*
D03*
Y314706D02*
D03*
Y309706D02*
D03*
X1614934Y319706D02*
D03*
X1565120Y393750D02*
D03*
Y398750D02*
D03*
Y403750D02*
D03*
X1581880D02*
D03*
Y393750D02*
D03*
Y398750D02*
D03*
D15*
X1535844Y330696D02*
D03*
X1555844D02*
D03*
D16*
X1579344Y273196D02*
D03*
X1512344D02*
D03*
D17*
X1626926Y300482D02*
D03*
X1618686D02*
D03*
X1591630Y393500D02*
D03*
X1599870D02*
D03*
X1591630Y404250D02*
D03*
X1599870D02*
D03*
X1659946Y300482D02*
D03*
X1651706D02*
D03*
D18*
X1648526Y545562D02*
D03*
X1638526D02*
D03*
X1623526D02*
D03*
X1633526Y430802D02*
D03*
X1643526D02*
D03*
X1618526D02*
D03*
X1623526D02*
D03*
X1613526Y545562D02*
D03*
X1583526D02*
D03*
X1578526D02*
D03*
X1588526Y430802D02*
D03*
X1598526D02*
D03*
X1578526D02*
D03*
X1653526D02*
D03*
X1648526D02*
D03*
X1638526D02*
D03*
X1628526D02*
D03*
X1613526D02*
D03*
X1608526D02*
D03*
X1603526D02*
D03*
X1593526D02*
D03*
X1583526D02*
D03*
X1588526Y545562D02*
D03*
X1593526D02*
D03*
X1598526D02*
D03*
X1603526D02*
D03*
X1608526D02*
D03*
X1618526D02*
D03*
X1628526D02*
D03*
X1633526D02*
D03*
X1643526D02*
D03*
X1653526D02*
D03*
D19*
X1558646Y485682D02*
D03*
Y525682D02*
D03*
Y450682D02*
D03*
Y455682D02*
D03*
Y460682D02*
D03*
Y465682D02*
D03*
Y470682D02*
D03*
Y475682D02*
D03*
Y480682D02*
D03*
Y490682D02*
D03*
Y495682D02*
D03*
Y500682D02*
D03*
Y505682D02*
D03*
Y510682D02*
D03*
Y515682D02*
D03*
Y520682D02*
D03*
X1673406Y525682D02*
D03*
Y520682D02*
D03*
Y515682D02*
D03*
Y510682D02*
D03*
Y505682D02*
D03*
Y500682D02*
D03*
Y495682D02*
D03*
Y490682D02*
D03*
Y485682D02*
D03*
Y480682D02*
D03*
Y475682D02*
D03*
Y470682D02*
D03*
Y465682D02*
D03*
Y460682D02*
D03*
Y455682D02*
D03*
Y450682D02*
D03*
D20*
X1657230Y373368D02*
D03*
Y363368D02*
D03*
Y358368D02*
D03*
Y353368D02*
D03*
Y348368D02*
D03*
X1617230D02*
D03*
Y358368D02*
D03*
Y363368D02*
D03*
Y368368D02*
D03*
Y353368D02*
D03*
Y373368D02*
D03*
X1657230Y368368D02*
D03*
D21*
X1649730Y340868D02*
D03*
X1644730D02*
D03*
X1639730D02*
D03*
X1634730D02*
D03*
X1629730D02*
D03*
X1624730D02*
D03*
X1649730Y380868D02*
D03*
X1624730D02*
D03*
X1629730D02*
D03*
X1644730D02*
D03*
X1639730D02*
D03*
X1634730D02*
D03*
D22*
X1637230Y360868D02*
D03*
D23*
X1749000Y449250D02*
D03*
Y445250D02*
D03*
Y441250D02*
D03*
Y437250D02*
D03*
Y429250D02*
D03*
Y425250D02*
D03*
Y421250D02*
D03*
Y417250D02*
D03*
Y413250D02*
D03*
Y409250D02*
D03*
Y405250D02*
D03*
X1690000D02*
D03*
Y409250D02*
D03*
Y413250D02*
D03*
Y417250D02*
D03*
Y421250D02*
D03*
Y425250D02*
D03*
Y429250D02*
D03*
Y433250D02*
D03*
Y437250D02*
D03*
Y441250D02*
D03*
Y445250D02*
D03*
Y449250D02*
D03*
X1749000Y433250D02*
D03*
D24*
X1741500Y397750D02*
D03*
X1737500D02*
D03*
X1733500D02*
D03*
X1729500D02*
D03*
X1721500D02*
D03*
X1717500D02*
D03*
X1713500D02*
D03*
X1709500D02*
D03*
X1705500D02*
D03*
X1701500D02*
D03*
X1697500D02*
D03*
Y456750D02*
D03*
X1701500D02*
D03*
X1705500D02*
D03*
X1709500D02*
D03*
X1713500D02*
D03*
X1717500D02*
D03*
X1721500D02*
D03*
X1725500D02*
D03*
X1729500D02*
D03*
X1733500D02*
D03*
X1737500D02*
D03*
X1741500D02*
D03*
X1725500Y397750D02*
D03*
D25*
X1719500Y427250D02*
D03*
D26*
X1764538Y426340D02*
D03*
Y442340D02*
D03*
D27*
X1620666Y283056D02*
D03*
X1640666D02*
D03*
X1630666D02*
D03*
D28*
X1600666Y269506D02*
D03*
X1660666D02*
D03*
D29*
X1671750Y382750D02*
D03*
Y370250D02*
D03*
D30*
X1721500Y356750D02*
D03*
Y350750D02*
D03*
X1636062Y300228D02*
D03*
X1642062D02*
D03*
X1708724Y377756D02*
D03*
X1714724D02*
D03*
X1721500Y387500D02*
D03*
Y381500D02*
D03*
Y369250D02*
D03*
Y375250D02*
D03*
X1620980Y330200D02*
D03*
X1614980D02*
D03*
X1640942Y408226D02*
D03*
X1646942D02*
D03*
X1545342Y495348D02*
D03*
X1539342D02*
D03*
X1545342Y515160D02*
D03*
X1539342D02*
D03*
X1545342Y507540D02*
D03*
X1539342D02*
D03*
Y480616D02*
D03*
X1545342D02*
D03*
X1539342Y472996D02*
D03*
X1545342D02*
D03*
X1539342Y465630D02*
D03*
X1545342D02*
D03*
X1539342Y458010D02*
D03*
X1545342D02*
D03*
D31*
X1603248Y330072D02*
D03*
Y314072D02*
D03*
D32*
X1761564Y323500D02*
D03*
X1753436D02*
D03*
D33*
X1532500Y371250D02*
D03*
Y426250D02*
D03*
X1515800D02*
D03*
Y371250D02*
D03*
D34*
X1532500Y386250D02*
D03*
Y391250D02*
D03*
Y396250D02*
D03*
Y401250D02*
D03*
Y406250D02*
D03*
Y411250D02*
D03*
X1515800D02*
D03*
Y406250D02*
D03*
Y401250D02*
D03*
Y396250D02*
D03*
Y391250D02*
D03*
Y386250D02*
D03*
D35*
X1607998Y301752D02*
D03*
X1598498D02*
D03*
X1649654Y392938D02*
D03*
X1640154D02*
D03*
X1640662Y309626D02*
D03*
X1650162D02*
D03*
D36*
X1687376Y531502D02*
D03*
Y536242D02*
D03*
X1659382Y329522D02*
D03*
Y324782D02*
D03*
X1678686Y413088D02*
D03*
Y408348D02*
D03*
X1758968Y458104D02*
D03*
Y453364D02*
D03*
X1774190Y433408D02*
D03*
Y428668D02*
D03*
X1728216Y381678D02*
D03*
Y386418D02*
D03*
X1766842Y400954D02*
D03*
Y396214D02*
D03*
X1773954Y400954D02*
D03*
Y396214D02*
D03*
X1735250Y384620D02*
D03*
Y379880D02*
D03*
X1565500Y376120D02*
D03*
Y371380D02*
D03*
X1687500Y469250D02*
D03*
Y464510D02*
D03*
X1687376Y478754D02*
D03*
Y483494D02*
D03*
Y491962D02*
D03*
Y496702D02*
D03*
Y505170D02*
D03*
Y509910D02*
D03*
Y517870D02*
D03*
Y522610D02*
D03*
D37*
X1522356Y563885D02*
D03*
X1517356D02*
D03*
X1512356D02*
D03*
Y548635D02*
D03*
X1507356D02*
D03*
X1522356D02*
D03*
X1517356D02*
D03*
X1507356Y563885D02*
D03*
D38*
X1522481Y553760D02*
D03*
Y558760D02*
D03*
X1507231Y553760D02*
D03*
Y558760D02*
D03*
D39*
X1582000Y375820D02*
D03*
Y371680D02*
D03*
D40*
X1746500Y368500D02*
D03*
X1760000Y379000D02*
D03*
Y368500D02*
D03*
X1746500Y379000D02*
D03*
D41*
X1602404Y564896D02*
D03*
X1585804D02*
D03*
D42*
X1522504Y528320D02*
D03*
X1513304D02*
D03*
X1650520Y320548D02*
D03*
X1641320D02*
D03*
X1668650Y358500D02*
D03*
X1677850D02*
D03*
X1630508Y568500D02*
D03*
X1621308D02*
D03*
D43*
X1597962Y371348D02*
D03*
X1591262D02*
D03*
X1639576Y566976D02*
D03*
X1646276D02*
D03*
X1619098Y409750D02*
D03*
X1612398D02*
D03*
X1597666Y417116D02*
D03*
X1604366D02*
D03*
X1575568Y416754D02*
D03*
X1582268D02*
D03*
X1591008Y343154D02*
D03*
X1597708D02*
D03*
D44*
X1522220Y537464D02*
D03*
X1515620D02*
D03*
X1635308Y559102D02*
D03*
X1641908D02*
D03*
X1641096Y329184D02*
D03*
X1647696D02*
D03*
X1619048Y417116D02*
D03*
X1612448D02*
D03*
X1626922Y559102D02*
D03*
X1620322D02*
D03*
X1538534Y450536D02*
D03*
X1545134D02*
D03*
D45*
X1760250Y330578D02*
D03*
Y338422D02*
D03*
D46*
X1774190Y414692D02*
D03*
Y419952D02*
D03*
D47*
X1667002Y306388D02*
D03*
Y310388D02*
D03*
D48*
X1761000Y262500D02*
D03*
Y291500D02*
D03*
D49*
X1766300Y499500D02*
D03*
Y504500D02*
D03*
Y509500D02*
D03*
Y514500D02*
D03*
Y519500D02*
D03*
Y524500D02*
D03*
Y529500D02*
D03*
Y534500D02*
D03*
Y539500D02*
D03*
Y544500D02*
D03*
D50*
X1716500Y484750D02*
D03*
Y559250D02*
D03*
D51*
X1567260Y354584D02*
D03*
X1577260D02*
D03*
X1670130Y336296D02*
D03*
X1680130D02*
D03*
D52*
X1767604Y464398D02*
D03*
Y455198D02*
D03*
D53*
X1714076Y384302D02*
D03*
X1709336D02*
D03*
X1757130Y388250D02*
D03*
X1761870D02*
D03*
X1705948Y466344D02*
D03*
X1701208D02*
D03*
X1632542Y329438D02*
D03*
X1627802D02*
D03*
X1721370Y363000D02*
D03*
X1716630D02*
D03*
X1721370Y344500D02*
D03*
X1716630D02*
D03*
X1641742Y416354D02*
D03*
X1646482D02*
D03*
D54*
X1575362Y566154D02*
D03*
Y559454D02*
D03*
X1612192Y566008D02*
D03*
Y559308D02*
D03*
D55*
X1573750Y377300D02*
D03*
Y370700D02*
D03*
D56*
X1761000Y315564D02*
D03*
Y307436D02*
D03*
D57*
X1606804Y351338D02*
D03*
Y343098D02*
D03*
D58*
X1695250Y546500D02*
D03*
Y540500D02*
D03*
Y514846D02*
D03*
Y520846D02*
D03*
Y502400D02*
D03*
Y508400D02*
D03*
Y495700D02*
D03*
Y489700D02*
D03*
Y483250D02*
D03*
Y477250D02*
D03*
X1695500Y465000D02*
D03*
Y471000D02*
D03*
X1759222Y395584D02*
D03*
Y401584D02*
D03*
X1695250Y533292D02*
D03*
Y527292D02*
D03*
X1535430Y564086D02*
D03*
Y558086D02*
D03*
X1494536Y563070D02*
D03*
Y557070D02*
D03*
X1766588Y408538D02*
D03*
Y414538D02*
D03*
X1759222D02*
D03*
Y408538D02*
D03*
X1590094Y417322D02*
D03*
Y411322D02*
D03*
D59*
X1510538Y511556D02*
D03*
X1500378Y460756D02*
D03*
D60*
X1558646Y495682D02*
X1569401D01*
X1612290Y452793D01*
X1713992Y467995D02*
X1714912Y467075D01*
X1718214Y460682D02*
Y465359D01*
X1719834Y466979D01*
X1713992Y467995D02*
Y468122D01*
X1709516Y456766D02*
Y463309D01*
X1710646Y464439D01*
Y464566D01*
X1714912Y462799D02*
Y467075D01*
X1713516Y461403D02*
X1714912Y462799D01*
X1713516Y456766D02*
Y461403D01*
X1713500Y456750D02*
X1713516Y456766D01*
X1705500Y456750D02*
X1705516Y456766D01*
X1706118Y466344D02*
X1706202D01*
Y461935D02*
Y466344D01*
X1705516Y461249D02*
X1706202Y461935D01*
X1705516Y456766D02*
Y461249D01*
X1709500Y456750D02*
X1709516Y456766D01*
X1774190Y419952D02*
X1774444Y420206D01*
Y428434D01*
X1773710D02*
X1774444D01*
X1774220Y409530D02*
X1774250Y409500D01*
X1774220Y409530D02*
Y414662D01*
X1774190Y414692D02*
X1774220Y414662D01*
X1774190Y433408D02*
X1774444D01*
X1773682Y437769D02*
Y437896D01*
Y437769D02*
X1774444Y437007D01*
Y433408D02*
Y437007D01*
X1772116Y426340D02*
X1773710Y427934D01*
X1764538Y426340D02*
X1772116D01*
X1584546Y566154D02*
X1585804Y564896D01*
X1575362Y566154D02*
X1584546D01*
X1575362Y559304D02*
X1579420Y555246D01*
X1585950D01*
X1588042Y553154D01*
Y546046D02*
Y553154D01*
Y546046D02*
X1588526Y545562D01*
X1752690Y499199D02*
X1765999D01*
X1752600Y499110D02*
X1752690Y499199D01*
X1765999D02*
X1766300Y499500D01*
X1716500Y484750D02*
X1719378D01*
X1721612Y486984D01*
Y491744D01*
X1570754Y450682D02*
X1583042Y438394D01*
X1558646Y450682D02*
X1570754D01*
X1583042Y431286D02*
X1583526Y430802D01*
X1583042Y431286D02*
Y438394D01*
X1585973Y440463D02*
X1588042Y438394D01*
Y431286D02*
X1588526Y430802D01*
X1588042Y431286D02*
Y438394D01*
X1589010Y431286D02*
Y438394D01*
X1576902Y417938D02*
Y419171D01*
X1575568Y416754D02*
X1575718D01*
X1578526Y420795D02*
Y430802D01*
X1576902Y419171D02*
X1578526Y420795D01*
X1575718Y416754D02*
X1576902Y417938D01*
X1598042Y431286D02*
Y439273D01*
X1591079Y440463D02*
X1596852D01*
X1598042Y431286D02*
X1598526Y430802D01*
X1596852Y440463D02*
X1598042Y439273D01*
X1588526Y430802D02*
X1589010Y431286D01*
Y438394D02*
X1591079Y440463D01*
X1578922Y493972D02*
Y494734D01*
Y493972D02*
X1584960Y487934D01*
X1572974Y500682D02*
X1578922Y494734D01*
X1558646Y500682D02*
X1572974D01*
X1569069Y510620D02*
X1596977Y482712D01*
Y480172D02*
Y482712D01*
X1558708Y510620D02*
X1569069D01*
X1558646Y520682D02*
X1570619D01*
X1569978Y515290D02*
X1628406Y456863D01*
X1570619Y520682D02*
X1632672Y458630D01*
X1559038Y515290D02*
X1569978D01*
X1632672Y455970D02*
X1646174Y442468D01*
X1632672Y455970D02*
Y458630D01*
X1639189Y442722D02*
X1639443Y442468D01*
X1643042Y431286D02*
Y438996D01*
X1639570Y442468D02*
Y442684D01*
X1637444Y443992D02*
X1638714Y442722D01*
X1639443Y442468D02*
X1639570D01*
X1638714Y442722D02*
X1639189D01*
X1639570Y442468D02*
X1643042Y438996D01*
Y431286D02*
X1643526Y430802D01*
X1653211Y329184D02*
X1653413Y328982D01*
X1647696Y329184D02*
X1653211D01*
X1653413Y328982D02*
X1653540D01*
X1761870Y387750D02*
X1763958Y385662D01*
X1766227D01*
X1761870Y387750D02*
Y388250D01*
X1766227Y385662D02*
X1766316Y385572D01*
X1766842Y396214D02*
X1773954D01*
X1719500Y427250D02*
X1725500Y421250D01*
X1719500Y427250D02*
X1725500Y433250D01*
X1749000D01*
X1749016Y433234D02*
X1754631D01*
X1754881Y432984D02*
X1755007D01*
X1749000Y433250D02*
X1749016Y433234D01*
X1754631D02*
X1754881Y432984D01*
X1681734Y372237D02*
Y372364D01*
X1677850Y358500D02*
X1680284Y360934D01*
Y370787D01*
X1681734Y372237D01*
X1680154Y385374D02*
X1693150Y372378D01*
X1693176D01*
X1626308Y353368D02*
X1628140Y351536D01*
X1617230Y353368D02*
X1626308D01*
X1645666Y369824D02*
X1647122Y368368D01*
X1657230D01*
X1644730Y370760D02*
X1645666Y369824D01*
X1644730Y370760D02*
Y380868D01*
X1639730Y363368D02*
Y380868D01*
X1637230Y360868D02*
X1639730Y363368D01*
X1634730D02*
Y380868D01*
X1629730Y368368D02*
X1634730Y363368D01*
X1637230Y360868D01*
X1624730Y373368D02*
X1629730Y368368D01*
Y380868D01*
X1624730Y373368D02*
Y380868D01*
X1617230Y373368D02*
X1624730D01*
X1591108Y361570D02*
X1594358Y358320D01*
Y356870D02*
Y358320D01*
X1598022Y343318D02*
X1601127D01*
X1597872D02*
X1598022D01*
X1601194Y346490D01*
X1597858Y343154D02*
X1598022Y343318D01*
X1597708Y343154D02*
X1597872Y343318D01*
X1601127D02*
X1601216Y343408D01*
X1597761Y394484D02*
Y395727D01*
X1581880Y398750D02*
X1594738D01*
X1597761Y395727D01*
Y394484D02*
X1598745Y393500D01*
X1599870D01*
X1597761Y392516D02*
X1598745Y393500D01*
X1597761Y389356D02*
Y392516D01*
X1596136Y387731D02*
X1597761Y389356D01*
X1596136Y387604D02*
Y387731D01*
X1596734Y407504D02*
Y410121D01*
X1598745Y404250D02*
X1599870D01*
X1597761Y405234D02*
X1598745Y404250D01*
X1597761Y405234D02*
Y406477D01*
X1596734Y407504D02*
X1597761Y406477D01*
X1596644Y410210D02*
X1596734Y410121D01*
Y416184D02*
X1597666Y417116D01*
X1596734Y410299D02*
Y416184D01*
X1596644Y410210D02*
X1596734Y410299D01*
X1597666Y417116D02*
Y424067D01*
X1598526Y424927D01*
Y430802D01*
X1509823Y559494D02*
X1511622Y561293D01*
Y563151D02*
X1512356Y563885D01*
X1507231Y558760D02*
X1507965Y559494D01*
X1509823D01*
X1511622Y561293D02*
Y563151D01*
X1612165Y571000D02*
X1612178Y570987D01*
Y566021D02*
Y570987D01*
Y566021D02*
X1612192Y566008D01*
X1635508Y559102D02*
X1636592Y558018D01*
X1638042Y546046D02*
Y555335D01*
Y546046D02*
X1638526Y545562D01*
X1635308Y559102D02*
X1635508D01*
X1636592Y556785D02*
Y558018D01*
Y556785D02*
X1638042Y555335D01*
X1625638Y558018D02*
X1626722Y559102D01*
X1624010Y555157D02*
X1625638Y556785D01*
X1624010Y546046D02*
Y555157D01*
X1623526Y545562D02*
X1624010Y546046D01*
X1626722Y559102D02*
X1626922D01*
X1625638Y556785D02*
Y558018D01*
X1632032Y566976D02*
X1639426D01*
X1630508Y568500D02*
X1632032Y566976D01*
X1636592Y560186D02*
Y561419D01*
X1638242Y565792D02*
X1639426Y566976D01*
X1639576D01*
X1635508Y559102D02*
X1636592Y560186D01*
Y561419D02*
X1638242Y563069D01*
Y565792D01*
X1627122Y559102D02*
X1635308D01*
X1626922D02*
X1627122D01*
X1630508Y562488D02*
Y568500D01*
X1627122Y559102D02*
X1630508Y562488D01*
X1531644Y555639D02*
X1533463Y553820D01*
X1528853Y553760D02*
X1532095Y550518D01*
X1543712D01*
X1564762Y529468D01*
X1548649Y553820D02*
X1634505Y467963D01*
X1533463Y553820D02*
X1548649D01*
X1725500Y397750D02*
Y421250D01*
X1681462Y403859D02*
X1683464Y405861D01*
X1681462Y403733D02*
Y403859D01*
X1683464Y405861D02*
Y407197D01*
X1596977Y480172D02*
X1624553Y452597D01*
X1558646Y510682D02*
X1558708Y510620D01*
X1558646Y515682D02*
X1559038Y515290D01*
X1678287Y399467D02*
X1678507D01*
X1680154Y397820D01*
X1674639Y403115D02*
X1678287Y399467D01*
X1558646Y455682D02*
X1575562D01*
X1683464Y407197D02*
X1685501Y409234D01*
X1689984D02*
X1690000Y409250D01*
X1685501Y409234D02*
X1689984D01*
X1678536Y412854D02*
X1678686Y413004D01*
X1678536Y412854D02*
X1678932Y413250D01*
X1690000D01*
X1676949Y412854D02*
X1678536D01*
X1672019Y407924D02*
X1676949Y412854D01*
X1689862Y405234D02*
X1689878Y405250D01*
X1690000D01*
X1689862Y400252D02*
Y405234D01*
X1686285Y387910D02*
X1689571Y391196D01*
Y392139D01*
X1691948Y394516D01*
X1700815Y387912D02*
X1705484Y392581D01*
X1697458Y385040D02*
X1697585D01*
X1700457Y387912D01*
X1680154Y385374D02*
Y397820D01*
X1691948Y394516D02*
X1697484D01*
X1689354Y384302D02*
X1694223Y389171D01*
X1694603D01*
X1696647Y391214D01*
X1698852D01*
X1678559Y442376D02*
X1679523Y443340D01*
X1683201D01*
X1678432Y442376D02*
X1678559D01*
X1683201Y443340D02*
X1685095Y445234D01*
X1679693Y434848D02*
X1680602Y433939D01*
X1677469Y430637D02*
X1682178D01*
X1683545Y433939D02*
X1684218Y433266D01*
X1682178Y430637D02*
X1682851Y429964D01*
X1670558Y430276D02*
X1675130Y434848D01*
X1680602Y433939D02*
X1683545D01*
X1685095Y445234D02*
X1689984D01*
X1675130Y434848D02*
X1679693D01*
X1680411Y426371D02*
X1680500Y426282D01*
X1672336Y425504D02*
X1677469Y430637D01*
X1684218Y433266D02*
X1689984D01*
X1690000Y433250D01*
X1682851Y429964D02*
X1686068D01*
X1686766Y429266D01*
X1689984Y445234D02*
X1690000Y445250D01*
X1614103Y444059D02*
X1616228D01*
X1618860Y441427D02*
X1618986D01*
X1567659Y490503D02*
X1614103Y444059D01*
X1545676Y495682D02*
X1558646D01*
X1616228Y444059D02*
X1618860Y441427D01*
X1567048Y529468D02*
X1638386Y458130D01*
Y458048D02*
Y458130D01*
X1558825Y490503D02*
X1567659D01*
X1558646Y490682D02*
X1558825Y490503D01*
X1658366Y430276D02*
X1670558D01*
X1672113Y416591D02*
Y421683D01*
X1678686Y422148D02*
X1678729Y422105D01*
X1680500Y426282D02*
X1684486D01*
X1681353Y417830D02*
X1681933Y417250D01*
X1690000D01*
X1682984Y422105D02*
X1683839Y421250D01*
X1678729Y422105D02*
X1682984D01*
X1685501Y425266D02*
X1689984D01*
X1683839Y421250D02*
X1690000D01*
X1681226Y417830D02*
X1681353D01*
X1684486Y426282D02*
X1685501Y425266D01*
X1574098Y475682D02*
X1592815Y456965D01*
X1558646Y475682D02*
X1574098D01*
X1672336Y421906D02*
Y425504D01*
X1672113Y421683D02*
X1672336Y421906D01*
X1644904Y465836D02*
Y468122D01*
X1598020Y515006D02*
X1644904Y468122D01*
X1564762Y529468D02*
X1567048D01*
X1634505Y467963D02*
X1634586D01*
X1689984Y425266D02*
X1690000Y425250D01*
X1592305Y515006D02*
X1598020D01*
X1543224Y564086D02*
X1592305Y515006D01*
X1535430Y564086D02*
X1543224D01*
X1560022Y551959D02*
X1576079Y535901D01*
X1509659Y568046D02*
X1543964D01*
X1560022Y551988D01*
X1576079Y535901D02*
X1584745D01*
X1560022Y551959D02*
Y551988D01*
X1717516Y459984D02*
X1718214Y460682D01*
X1721516Y462565D02*
X1724152Y465201D01*
X1721516Y456766D02*
Y462565D01*
X1724152Y465201D02*
Y465328D01*
X1721500Y456750D02*
X1721516Y456766D01*
X1728800Y464871D02*
X1729500Y464171D01*
X1728800Y464871D02*
Y464998D01*
X1729500Y456750D02*
Y464171D01*
X1690696Y464744D02*
X1690952Y465000D01*
X1687734Y464744D02*
X1690696D01*
X1690952Y465000D02*
X1695500D01*
X1701729Y347199D02*
X1706320Y351790D01*
X1672308Y326890D02*
X1672324Y326874D01*
X1674773D02*
X1676781Y324866D01*
X1672308Y326890D02*
Y327258D01*
X1672324Y326874D02*
X1674773D01*
X1676781Y324866D02*
X1676908D01*
X1697228Y323342D02*
X1701729Y327843D01*
Y347199D01*
X1681773Y326886D02*
X1693776Y338889D01*
Y363821D01*
X1701515Y370546D02*
X1708724Y377756D01*
X1700501Y370546D02*
X1701515D01*
X1693776Y363821D02*
X1700501Y370546D01*
X1705800Y386994D02*
Y387349D01*
X1709484Y391033D01*
X1703732Y384799D02*
Y384926D01*
X1705800Y386994D01*
X1700457Y387912D02*
X1700815D01*
X1749000Y405250D02*
X1752076D01*
X1752092Y405234D01*
Y402336D02*
Y405234D01*
X1698852Y391214D02*
X1698852Y391214D01*
X1633413Y333591D02*
X1634730Y334908D01*
X1633056Y333591D02*
X1633413D01*
X1698852Y391214D02*
X1699447D01*
X1701484Y393251D01*
X1705484Y392581D02*
Y397734D01*
X1678528Y295306D02*
X1686814Y287020D01*
X1678528Y295306D02*
Y319854D01*
X1681773Y323099D01*
Y326886D01*
X1584745Y535901D02*
X1644142Y476504D01*
X1725500Y388380D02*
X1725754D01*
X1727716Y386418D01*
X1728216D01*
X1725500Y388380D02*
Y397750D01*
X1734750Y384620D02*
X1735250D01*
X1734516Y384854D02*
Y386912D01*
X1729500Y393940D02*
X1730198Y393242D01*
X1734516Y384854D02*
X1734750Y384620D01*
X1730198Y391230D02*
Y393242D01*
Y391230D02*
X1734516Y386912D01*
X1729500Y393940D02*
Y397750D01*
X1709484Y391033D02*
Y397734D01*
X1687500Y464510D02*
X1687734Y464744D01*
X1687266D02*
X1687500Y464510D01*
X1685773Y464744D02*
X1687266D01*
X1683206Y467311D02*
X1685773Y464744D01*
X1683206Y467311D02*
Y472429D01*
X1683110Y472525D02*
X1683206Y472429D01*
X1683110Y472525D02*
Y473086D01*
X1680998Y475198D02*
X1683110Y473086D01*
X1673890Y475198D02*
X1680998D01*
X1673406Y475682D02*
X1673890Y475198D01*
X1522481Y553760D02*
X1528853D01*
X1531644Y555639D02*
Y557570D01*
X1530454Y558760D02*
X1531644Y557570D01*
X1749000Y437250D02*
X1756774D01*
X1760554Y433470D01*
Y429824D02*
Y433470D01*
X1764038Y426340D02*
X1764538D01*
X1760554Y429824D02*
X1764038Y426340D01*
X1763448Y441250D02*
X1764538Y442340D01*
X1749000Y441250D02*
X1763448D01*
X1752932Y428536D02*
X1754197D01*
X1754353Y428380D02*
X1755564D01*
X1749000Y429250D02*
X1752218D01*
X1755564Y428380D02*
X1755653Y428290D01*
X1754197Y428536D02*
X1754353Y428380D01*
X1752218Y429250D02*
X1752932Y428536D01*
X1759706Y402068D02*
X1761723D01*
X1764145Y404490D02*
X1765009D01*
X1766199Y405680D02*
Y408149D01*
X1761723Y402068D02*
X1764145Y404490D01*
X1765009D02*
X1766199Y405680D01*
Y408149D02*
X1766588Y408538D01*
X1752182Y393699D02*
X1757130Y388750D01*
X1752092Y395732D02*
X1752182Y395643D01*
Y393699D02*
Y395643D01*
X1757130Y388250D02*
Y388750D01*
X1634730Y334908D02*
Y337884D01*
X1632966Y333502D02*
X1633056Y333591D01*
X1634730Y337884D02*
X1634744Y337898D01*
X1632966Y333375D02*
Y333502D01*
X1634744Y337898D02*
Y338074D01*
X1632542Y328938D02*
Y329438D01*
X1597708Y343154D02*
X1597858D01*
X1594358Y356870D02*
X1599391D01*
X1601194Y355067D01*
Y346490D02*
Y355067D01*
X1737950Y388153D02*
X1739516Y386587D01*
Y374751D02*
X1743033Y371234D01*
X1739516Y374751D02*
Y386587D01*
X1737500Y397750D02*
X1737516Y397734D01*
X1737944Y388153D02*
X1737950D01*
X1739559Y391214D02*
X1743280Y387493D01*
X1737516Y393251D02*
X1739553Y391214D01*
X1739559D01*
X1743280Y387493D02*
X1751007D01*
X1733500Y392597D02*
Y397750D01*
Y392597D02*
X1737944Y388153D01*
X1737516Y393251D02*
Y397734D01*
X1695250Y533292D02*
X1716640D01*
X1522481Y558760D02*
X1530454D01*
X1507356Y563885D02*
X1508090Y564619D01*
Y566477D01*
X1509659Y568046D01*
X1506622Y563070D02*
X1507356Y563804D01*
Y563885D01*
X1494536Y563070D02*
X1506622D01*
X1522457Y563985D02*
X1535329D01*
X1535430Y564086D01*
X1522356Y563885D02*
X1522457Y563985D01*
X1701484Y397734D02*
X1701500Y397750D01*
X1701484Y393251D02*
Y397734D01*
X1697484Y394516D02*
X1697500Y394532D01*
Y397750D01*
X1709484Y397734D02*
X1709500Y397750D01*
X1705484Y397734D02*
X1705500Y397750D01*
X1714076Y384302D02*
X1714310Y384068D01*
Y378170D02*
Y384068D01*
Y378170D02*
X1714724Y377756D01*
X1716850Y387576D02*
Y390116D01*
X1714076Y384802D02*
X1716850Y387576D01*
X1714076Y384302D02*
Y384802D01*
X1716850Y390116D02*
X1717500Y390766D01*
Y397750D01*
X1733500Y456750D02*
Y464135D01*
X1734312Y464947D01*
Y465074D01*
X1663235Y363368D02*
X1667766Y367899D01*
Y368516D02*
X1669500Y370250D01*
X1671750D01*
X1657230Y363368D02*
X1663235D01*
X1667766Y367899D02*
Y368516D01*
X1668518Y358368D02*
X1668650Y358500D01*
X1657230Y358368D02*
X1668518D01*
X1632542Y329438D02*
X1632776Y329672D01*
Y333185D01*
X1632966Y333375D01*
X1608716Y555682D02*
X1612192Y559158D01*
X1608716Y545752D02*
Y555682D01*
X1612192Y559158D02*
Y559308D01*
X1762128Y392678D02*
X1765695D01*
X1767873Y390500D01*
X1759222Y395584D02*
X1762128Y392678D01*
X1767873Y390500D02*
X1768000D01*
X1751007Y387493D02*
X1759500Y379000D01*
X1760000D01*
X1743766Y371234D02*
X1746500Y368500D01*
X1743033Y371234D02*
X1743766D01*
X1759222Y401584D02*
X1759706Y402068D01*
X1759222Y414538D02*
X1766588D01*
X1749016Y421234D02*
X1753499D01*
X1749000Y421250D02*
X1749016Y421234D01*
X1753499D02*
X1758738Y415995D01*
Y415022D02*
Y415995D01*
Y415022D02*
X1759222Y414538D01*
X1766842Y400954D02*
X1773954D01*
X1774016D01*
X1774250Y401188D01*
Y409500D01*
X1608526Y545562D02*
X1608716Y545752D01*
X1575362Y559304D02*
Y559454D01*
X1545342Y495348D02*
X1545676Y495682D01*
X1548294Y510492D02*
X1558456D01*
X1558646Y510682D01*
X1545342Y507540D02*
X1548294Y510492D01*
X1545532Y515350D02*
X1547010D01*
X1545342Y515160D02*
X1545532Y515350D01*
X1547010D02*
X1547342Y515682D01*
X1558646D01*
D61*
X1602300Y556859D02*
Y564792D01*
X1602404Y564896D01*
X1598716Y553275D02*
X1602300Y556859D01*
X1598716Y545752D02*
Y553275D01*
X1598526Y545562D02*
X1598716Y545752D01*
X1643526Y545562D02*
Y557484D01*
X1727914Y566976D02*
X1755200Y539690D01*
X1703569Y478920D02*
X1727068D01*
X1728580Y480432D01*
Y486520D01*
X1736090Y494030D01*
X1696089Y477440D02*
X1702491Y483842D01*
Y487139D01*
X1707162Y491811D01*
X1714336D01*
X1724711Y502185D01*
X1695250Y502400D02*
X1707400D01*
X1715147Y510147D01*
X1695250Y477250D02*
X1695440Y477440D01*
X1696089D01*
X1697818Y473170D02*
X1703569Y478920D01*
X1737025Y514500D02*
X1768844D01*
X1755200Y539690D02*
X1766110D01*
X1740892Y509500D02*
X1766300D01*
X1736090Y494030D02*
Y504698D01*
X1740892Y509500D01*
X1726000Y529500D02*
X1773499D01*
X1743202Y491998D02*
Y497840D01*
X1729500Y524500D02*
X1773500D01*
X1715147Y510147D02*
X1729500Y524500D01*
X1734396Y534500D02*
X1766300D01*
X1734312Y534416D02*
X1734396Y534500D01*
X1727454Y534416D02*
X1734312D01*
X1714440Y500440D02*
X1733500Y519500D01*
X1766110Y539690D02*
X1766300Y539500D01*
X1743202Y497840D02*
X1749862Y504500D01*
X1766300D01*
X1733500Y519500D02*
X1769805D01*
X1724711Y502185D02*
X1737025Y514500D01*
X1711346Y514846D02*
X1726000Y529500D01*
X1702828Y514846D02*
X1711346D01*
X1702562Y515112D02*
X1702828Y514846D01*
X1668780Y566976D02*
X1711706D01*
X1646276D02*
X1668780D01*
X1711706D02*
X1727914D01*
X1715370Y546500D02*
X1727454Y534416D01*
X1695250Y546500D02*
X1715370D01*
X1709700Y495700D02*
X1714440Y500440D01*
X1732469Y478820D02*
Y481265D01*
X1743202Y491998D01*
X1631026Y545562D02*
X1633526D01*
X1628526D02*
X1631026D01*
X1726997Y475031D02*
X1728680D01*
X1726698Y474732D02*
X1726997Y475031D01*
X1728680D02*
X1732469Y478820D01*
X1707636Y474732D02*
X1726698D01*
X1695250Y514846D02*
X1702296D01*
X1702562Y515112D01*
X1648716Y430992D02*
Y438516D01*
X1653241Y443040D01*
X1672338D01*
X1675589Y446291D02*
Y446327D01*
X1672338Y443040D02*
X1675589Y446291D01*
X1648526Y430802D02*
X1648716Y430992D01*
X1704594Y471690D02*
X1707636Y474732D01*
X1721678Y381678D02*
X1728216D01*
X1761496Y323568D02*
X1761564Y323500D01*
X1760900Y330578D02*
X1761496Y329983D01*
X1761000Y315564D02*
X1761564Y316128D01*
Y323500D01*
X1761496Y323568D02*
Y329983D01*
X1721430Y344060D02*
X1721810D01*
X1721370Y344500D02*
Y350620D01*
X1721810Y344060D02*
X1723732Y342138D01*
X1757680D02*
X1761744Y338074D01*
X1721370Y344500D02*
Y344881D01*
X1723732Y342138D02*
X1757680D01*
X1721370Y344119D02*
X1721430Y344060D01*
X1721500Y387500D02*
X1721500Y387500D01*
X1721370Y363000D02*
Y363381D01*
X1721500Y363511D01*
X1721430Y356820D02*
Y362940D01*
X1721500Y375250D02*
Y381500D01*
Y363511D02*
Y369250D01*
X1721370Y363000D02*
X1721430Y362940D01*
X1721500Y387500D02*
Y397750D01*
X1721430Y356820D02*
X1721500Y356750D01*
X1576638Y408116D02*
X1580815Y403940D01*
X1557798Y408116D02*
X1576638D01*
X1580815Y403940D02*
X1584093D01*
X1646482Y408686D02*
X1646942Y408226D01*
X1646482Y408686D02*
Y416354D01*
Y416735D01*
X1648526Y418779D02*
Y430802D01*
X1646482Y416735D02*
X1648526Y418779D01*
X1687376Y469310D02*
Y474520D01*
Y469310D02*
X1687436Y469250D01*
X1687376Y474520D02*
Y478754D01*
X1687436Y469250D02*
X1687500D01*
X1542303Y382830D02*
X1554024D01*
X1560134Y388940D01*
X1575139D01*
X1541644Y382170D02*
X1542303Y382830D01*
X1527182Y382170D02*
X1541644D01*
X1695250Y495700D02*
X1709700D01*
X1697670Y473170D02*
X1697818D01*
X1695500Y471000D02*
X1697670Y473170D01*
X1578526Y545562D02*
X1583526D01*
X1629540Y336530D02*
Y340678D01*
X1627298Y334288D02*
X1629540Y336530D01*
X1620980Y330200D02*
X1625068Y334288D01*
X1627298D01*
X1532500Y386250D02*
X1532690Y386440D01*
X1535440Y406060D02*
X1536170Y405330D01*
X1532690Y406060D02*
X1535440D01*
X1532500Y406250D02*
X1532690Y406060D01*
X1555011Y405330D02*
X1557798Y408116D01*
X1584403Y404250D02*
X1591630D01*
X1536170Y405330D02*
X1555011D01*
X1584093Y403940D02*
X1584403Y404250D01*
X1579698Y393500D02*
X1591630D01*
X1575139Y388940D02*
X1579698Y393500D01*
X1523785Y385567D02*
Y387663D01*
Y385567D02*
X1527182Y382170D01*
X1520388Y391060D02*
X1523785Y387663D01*
X1515990Y391060D02*
X1520388D01*
X1515800Y391250D02*
X1515990Y391060D01*
X1629540Y340678D02*
X1629730Y340868D01*
X1609153Y349523D02*
X1610307Y348368D01*
X1617230D01*
X1607494Y349523D02*
X1609153D01*
X1606804Y350213D02*
X1607494Y349523D01*
X1606804Y350213D02*
Y351338D01*
X1761000Y291500D02*
Y307436D01*
X1687316Y536182D02*
X1687697D01*
X1695060Y540310D02*
X1695250Y540500D01*
X1687697Y536182D02*
X1691824Y540310D01*
X1695060D01*
X1687376Y483494D02*
X1695006D01*
X1695250Y483250D01*
X1673596Y485492D02*
X1681120D01*
X1683117Y483494D01*
X1673406Y485682D02*
X1673596Y485492D01*
X1683117Y483494D02*
X1687376D01*
X1687757Y491962D02*
X1688287Y491432D01*
Y491234D02*
Y491432D01*
X1689821Y489700D02*
X1695250D01*
X1687376Y491962D02*
X1687757D01*
X1688287Y491234D02*
X1689821Y489700D01*
X1684590Y492022D02*
X1687316D01*
X1673406Y495682D02*
X1673596Y495492D01*
X1681120D01*
X1684590Y492022D01*
X1687316D02*
X1687376Y491962D01*
Y496702D02*
Y500936D01*
Y505170D01*
X1687316Y509850D02*
X1687376Y509910D01*
X1685408Y509850D02*
X1687316D01*
X1681430Y505872D02*
X1685408Y509850D01*
X1673596Y505872D02*
X1681430D01*
X1673406Y505682D02*
X1673596Y505872D01*
X1693740Y509910D02*
X1695250Y508400D01*
X1687376Y509910D02*
X1693740D01*
X1687570Y527292D02*
X1695250D01*
X1687376Y527098D02*
X1687570Y527292D01*
X1691626Y517870D02*
X1694411Y520656D01*
X1687376Y517870D02*
X1691626D01*
X1694411Y520656D02*
X1695060D01*
X1695250Y520846D01*
X1686995Y517870D02*
X1687376D01*
X1673406Y515682D02*
X1684807D01*
X1686995Y517870D01*
X1687376Y522610D02*
Y527098D01*
Y531502D01*
X1682705Y529106D02*
Y533480D01*
X1685408Y536182D01*
X1687316D01*
X1687376Y536242D01*
X1673406Y525682D02*
X1679281D01*
X1682705Y529106D01*
X1620122Y559102D02*
X1620815Y559795D01*
Y568007D02*
X1621308Y568500D01*
X1620815Y559795D02*
Y568007D01*
X1642898Y558112D02*
Y558312D01*
Y558112D02*
X1643526Y557484D01*
X1642108Y559102D02*
X1642898Y558312D01*
X1645236Y566086D02*
X1646126Y566976D01*
X1646276D01*
X1641908Y559102D02*
X1642108D01*
X1645236Y562230D01*
Y566086D01*
X1618526Y545562D02*
Y557506D01*
X1620122Y559102D01*
X1620322D01*
X1548014Y460682D02*
X1558646D01*
X1545342Y458010D02*
X1548014Y460682D01*
X1545368Y465656D02*
X1558620D01*
X1558646Y465682D01*
X1545342Y465630D02*
X1545368Y465656D01*
X1545342Y472996D02*
X1547656Y470682D01*
X1558646D01*
X1545375Y480649D02*
X1558613D01*
X1558646Y480682D01*
X1545342Y480616D02*
X1545375Y480649D01*
D62*
X1603526Y417956D02*
Y424918D01*
X1673406Y455682D02*
Y460682D01*
X1603526Y424918D02*
Y430802D01*
X1592776Y420368D02*
X1593296Y420888D01*
X1592776Y420004D02*
Y420368D01*
X1593296Y420888D02*
Y430572D01*
X1590094Y417322D02*
X1592776Y420004D01*
X1535430Y558086D02*
X1543191D01*
X1673352Y460628D02*
X1673406Y460682D01*
X1673352Y460196D02*
Y460628D01*
X1673406Y451664D02*
Y455682D01*
X1673352Y450736D02*
X1673406Y450682D01*
X1673352Y450736D02*
Y451664D01*
X1673406Y465682D02*
Y470682D01*
Y460682D02*
Y465682D01*
X1698042Y338126D02*
Y362054D01*
X1685329Y325413D02*
X1698042Y338126D01*
X1640840Y311508D02*
X1640991D01*
X1640662Y308876D02*
X1648326Y301212D01*
X1640662Y308876D02*
Y309626D01*
X1609399Y335973D02*
Y336706D01*
X1603498Y330072D02*
X1609399Y335973D01*
X1640991Y309955D02*
Y311508D01*
Y320443D01*
X1683258Y309450D02*
X1685504Y307204D01*
X1683258Y315390D02*
X1685329Y317461D01*
X1683258Y309450D02*
Y315390D01*
X1685329Y317461D02*
Y325413D01*
X1685504Y301030D02*
X1686814Y299720D01*
X1685504Y301030D02*
Y307204D01*
X1510538Y511556D02*
X1524000D01*
X1652270Y296164D02*
Y299752D01*
X1651548Y300474D02*
X1652270Y299752D01*
X1650238Y300474D02*
X1651548D01*
X1650238D02*
X1650976Y301212D01*
X1648326D02*
X1650976D01*
X1651706Y300482D01*
X1667177Y310658D02*
Y319427D01*
X1667082Y302868D02*
Y306118D01*
X1665038Y300824D02*
X1667082Y302868D01*
X1659288Y300824D02*
X1665038D01*
X1658692Y300228D02*
X1659288Y300824D01*
X1669308Y322808D02*
X1670558D01*
X1668828Y322328D02*
X1669308Y322808D01*
X1668828Y321078D02*
Y322328D01*
X1667177Y319427D02*
X1668828Y321078D01*
X1601216Y411226D02*
X1603286Y413296D01*
X1522362Y528462D02*
Y537322D01*
X1522220Y537464D02*
X1522362Y537322D01*
Y528462D02*
X1522504Y528320D01*
X1506728Y520954D02*
X1523746D01*
X1494536Y533146D02*
Y557070D01*
Y533146D02*
X1506728Y520954D01*
X1523746D02*
X1524000Y521208D01*
X1605446Y412330D02*
Y416186D01*
X1603286Y413296D02*
Y416186D01*
X1605446Y412330D02*
X1606550Y411226D01*
X1603526Y424918D02*
X1603776Y424668D01*
X1603526Y417956D02*
X1604366Y417116D01*
X1604216D02*
X1604366D01*
X1603286Y416186D02*
X1604216Y417116D01*
X1611426Y358598D02*
X1617000D01*
X1617230Y358368D01*
X1609852Y360172D02*
X1611426Y358598D01*
X1639645Y320548D02*
X1641320D01*
X1640991Y320443D02*
X1641208Y320660D01*
X1631694Y319706D02*
X1638803D01*
X1639645Y320548D01*
X1641208Y320660D02*
Y329072D01*
X1641096Y329184D02*
X1641208Y329072D01*
X1641096Y329184D02*
Y335094D01*
X1640662Y309626D02*
X1640991Y309955D01*
X1631694Y314706D02*
Y319706D01*
X1639960Y336230D02*
Y339081D01*
Y336230D02*
X1641096Y335094D01*
X1639697Y339344D02*
X1639960Y339081D01*
X1640942Y413536D02*
X1641722Y414316D01*
X1640942Y408226D02*
Y413536D01*
X1641722Y416334D02*
X1641742Y416354D01*
X1641722Y414316D02*
Y416334D01*
X1638526Y419617D02*
X1641309Y416834D01*
X1641722D01*
X1638526Y419617D02*
Y430802D01*
X1641722Y416834D02*
X1641742Y416814D01*
Y416354D02*
Y416814D01*
X1603248Y330072D02*
X1603498D01*
X1610044Y307140D02*
X1611518Y305666D01*
X1612377D01*
X1604516Y417116D02*
X1605446Y416186D01*
X1593296Y430572D02*
X1593526Y430802D01*
X1612423Y409775D02*
Y417091D01*
X1612448Y417116D01*
X1612398Y409750D02*
X1612423Y409775D01*
X1608526Y421098D02*
X1611418Y418206D01*
Y417946D02*
X1612248Y417116D01*
X1608526Y421098D02*
Y430802D01*
X1611418Y417946D02*
Y418206D01*
X1612248Y417116D02*
X1612448D01*
X1604366D02*
X1604516D01*
X1628051Y300482D02*
X1635808D01*
X1626926D02*
X1628051D01*
X1628781Y301212D02*
Y301483D01*
X1628051Y300482D02*
X1628781Y301212D01*
X1631694Y304396D02*
Y309706D01*
X1628781Y301483D02*
X1631694Y304396D01*
X1635808Y300482D02*
X1636062Y300228D01*
X1614059Y314706D02*
X1614934D01*
X1603248Y314072D02*
X1613425D01*
X1614059Y314706D01*
D63*
X1684516Y440165D02*
X1685490Y441139D01*
X1683782Y440165D02*
X1684516D01*
X1689889Y441139D02*
X1690000Y441250D01*
X1685490Y441139D02*
X1689889D01*
X1682691Y439074D02*
X1683782Y440165D01*
X1682496Y439074D02*
X1682691D01*
D64*
X1675687Y446327D02*
X1676129Y446769D01*
X1675589Y446327D02*
X1675687D01*
X1681781Y446769D02*
X1683337Y448326D01*
X1676129Y446769D02*
X1681781D01*
X1683337Y448326D02*
Y454231D01*
X1693233Y460297D02*
X1693250Y460313D01*
X1689403Y460297D02*
X1693233D01*
X1683337Y454231D02*
X1689403Y460297D01*
D65*
X1661451Y343099D02*
X1663443D01*
X1663734Y343390D02*
X1667492D01*
X1667510Y343408D01*
X1663443Y343099D02*
X1663734Y343390D01*
X1659994Y344556D02*
X1661451Y343099D01*
X1663410Y353070D02*
X1665960Y350520D01*
X1657528Y353070D02*
X1663410D01*
X1665960Y350520D02*
X1665986D01*
X1657230Y348368D02*
X1659696D01*
X1659994Y348070D01*
Y344556D02*
Y348070D01*
X1573299Y403575D02*
X1573318Y403557D01*
X1565295Y403575D02*
X1573299D01*
X1565120Y403750D02*
X1565295Y403575D01*
X1544739Y400587D02*
X1559586D01*
X1505230Y401066D02*
X1505414Y401250D01*
X1515800D01*
X1505204Y401066D02*
X1505230D01*
X1543838Y395986D02*
X1544764Y396913D01*
X1543812Y395986D02*
X1543838D01*
X1544764Y396913D02*
X1559586D01*
X1532500Y396250D02*
X1532746Y396004D01*
X1543794D02*
X1543812Y395986D01*
X1532746Y396004D02*
X1543794D01*
X1544076Y401250D02*
X1544739Y400587D01*
X1532500Y401250D02*
X1544076D01*
X1565120Y393750D02*
X1565352Y393518D01*
X1559586Y396913D02*
X1562451Y394048D01*
X1559586Y400587D02*
X1562451Y403452D01*
X1564822Y394048D02*
X1565120Y393750D01*
X1523657Y396250D02*
X1525778Y398371D01*
Y398774D02*
X1527956Y400952D01*
X1532202D01*
X1515800Y396250D02*
X1523657D01*
X1525778Y398371D02*
Y398774D01*
X1532202Y400952D02*
X1532500Y401250D01*
X1573232Y393518D02*
X1573250Y393500D01*
X1657230Y353368D02*
X1657528Y353070D01*
X1565352Y393518D02*
X1573232D01*
X1564822Y403452D02*
X1565120Y403750D01*
X1562451Y403452D02*
X1564822D01*
X1562451Y394048D02*
X1564822D01*
D66*
X1686814Y299720D02*
D03*
X1699514D02*
D03*
X1686814Y287020D02*
D03*
X1699514D02*
D03*
X1686814Y274320D02*
D03*
X1699514D02*
D03*
D67*
X1693164Y312420D02*
D03*
X1703324Y261620D02*
D03*
X1683004D02*
D03*
D68*
X1615666Y270256D02*
D03*
X1645666D02*
D03*
D69*
X1524150Y436250D02*
D03*
D70*
Y361250D02*
D03*
D71*
X1545650Y374750D02*
D03*
Y422750D02*
D03*
X1502650D02*
D03*
Y374750D02*
D03*
D72*
X1516380Y493522D02*
D03*
X1679956Y553974D02*
D03*
X1626235Y397129D02*
D03*
D73*
X1667002Y558800D02*
D03*
X1502918Y514604D02*
D03*
X1496822D02*
D03*
X1768856Y481330D02*
D03*
X1685185Y358879D02*
D03*
X1660144Y420116D02*
D03*
X1713992Y468122D02*
D03*
X1701292Y466344D02*
D03*
X1710646Y464566D02*
D03*
X1702054Y539496D02*
D03*
X1709928Y528574D02*
D03*
X1651508Y461264D02*
D03*
X1591818Y480568D02*
D03*
X1496822Y357632D02*
D03*
X1514348Y359664D02*
D03*
X1533906Y359410D02*
D03*
X1546352Y359156D02*
D03*
X1721612Y491744D02*
D03*
X1765300Y565912D02*
D03*
X1771396D02*
D03*
X1569136Y426107D02*
D03*
X1584960Y487934D02*
D03*
X1729282Y559160D02*
D03*
X1744980Y549910D02*
D03*
X1734312Y534416D02*
D03*
X1752600Y499110D02*
D03*
X1743202Y491998D02*
D03*
X1736090Y494030D02*
D03*
X1727786Y492174D02*
D03*
X1566672Y330200D02*
D03*
Y340360D02*
D03*
Y320802D02*
D03*
Y310642D02*
D03*
X1632204Y446786D02*
D03*
X1628406Y456863D02*
D03*
X1639570Y442468D02*
D03*
X1582420Y410972D02*
D03*
X1598168Y449326D02*
D03*
X1709336Y384302D02*
D03*
X1673856Y280708D02*
D03*
X1663856D02*
D03*
X1563856Y300708D02*
D03*
X1553856D02*
D03*
X1558856Y290708D02*
D03*
X1553856Y280708D02*
D03*
X1558856Y270708D02*
D03*
X1543856Y300708D02*
D03*
X1548856Y290708D02*
D03*
X1543856Y280708D02*
D03*
X1548856Y270708D02*
D03*
X1533856Y300708D02*
D03*
X1538856Y290708D02*
D03*
X1533856Y280708D02*
D03*
X1538856Y270708D02*
D03*
X1523856Y300708D02*
D03*
X1528856Y290708D02*
D03*
Y270708D02*
D03*
X1513856Y340708D02*
D03*
X1518856Y330708D02*
D03*
X1513856Y320708D02*
D03*
X1518856Y310708D02*
D03*
X1513856Y300708D02*
D03*
X1503856Y440708D02*
D03*
X1508856Y350708D02*
D03*
X1503856Y340708D02*
D03*
X1508856Y330708D02*
D03*
X1503856Y320708D02*
D03*
X1508856Y310708D02*
D03*
X1503856Y300708D02*
D03*
X1622806Y315468D02*
D03*
X1598498Y301752D02*
D03*
X1697736Y558292D02*
D03*
X1654302Y558800D02*
D03*
X1667002Y539496D02*
D03*
X1649476Y532384D02*
D03*
X1503172Y471170D02*
D03*
X1497076D02*
D03*
Y478028D02*
D03*
X1503172D02*
D03*
X1503190Y485794D02*
D03*
X1497094D02*
D03*
Y492652D02*
D03*
X1503190D02*
D03*
X1503172Y499618D02*
D03*
X1497076D02*
D03*
Y506476D02*
D03*
X1503172D02*
D03*
X1513840Y450088D02*
D03*
X1496568D02*
D03*
X1708912Y276860D02*
D03*
Y270764D02*
D03*
X1690134Y368574D02*
D03*
X1693176Y372378D02*
D03*
X1681734Y372364D02*
D03*
X1601216Y343408D02*
D03*
X1594612Y452374D02*
D03*
X1569136Y414931D02*
D03*
X1559814Y426212D02*
D03*
Y415036D02*
D03*
X1553210Y531876D02*
D03*
X1548130Y537464D02*
D03*
X1507236Y542290D02*
D03*
X1501140D02*
D03*
Y535432D02*
D03*
X1507236D02*
D03*
X1500632Y555244D02*
D03*
X1612165Y571000D02*
D03*
X1533906Y457962D02*
D03*
Y465328D02*
D03*
Y472948D02*
D03*
Y480568D02*
D03*
X1543191Y558086D02*
D03*
X1538248D02*
D03*
X1545770Y487408D02*
D03*
X1758876Y464040D02*
D03*
X1771322Y559544D02*
D03*
X1762686Y491980D02*
D03*
X1769036D02*
D03*
X1768856Y486664D02*
D03*
X1613662Y531876D02*
D03*
X1638554D02*
D03*
X1623314D02*
D03*
X1630508Y568500D02*
D03*
X1567180Y559562D02*
D03*
X1559306D02*
D03*
Y566420D02*
D03*
X1567180D02*
D03*
X1724711Y502185D02*
D03*
X1702562Y515112D02*
D03*
X1714246Y500634D02*
D03*
X1715262Y510032D02*
D03*
X1655826Y383286D02*
D03*
X1667764Y407416D02*
D03*
X1664208Y410972D02*
D03*
X1681462Y403733D02*
D03*
X1649730Y401320D02*
D03*
X1665261Y391959D02*
D03*
X1668563Y388657D02*
D03*
X1657902Y398526D02*
D03*
X1674639Y403115D02*
D03*
X1618488Y425248D02*
D03*
X1623568D02*
D03*
X1613662Y426696D02*
D03*
X1624584Y409702D02*
D03*
X1628648Y426696D02*
D03*
X1678641Y408303D02*
D03*
X1575562Y455682D02*
D03*
X1689862Y400252D02*
D03*
X1686285Y387910D02*
D03*
X1697458Y385040D02*
D03*
X1689354Y384302D02*
D03*
X1646174Y442468D02*
D03*
X1624553Y452597D02*
D03*
X1682496Y439074D02*
D03*
X1678432Y442376D02*
D03*
X1687068Y478790D02*
D03*
X1679248Y490776D02*
D03*
Y480870D02*
D03*
X1678892Y510766D02*
D03*
X1679248Y500682D02*
D03*
Y520748D02*
D03*
X1687376Y500936D02*
D03*
Y527098D02*
D03*
X1680411Y426371D02*
D03*
X1618986Y441427D02*
D03*
X1612290Y452793D02*
D03*
X1638386Y458048D02*
D03*
X1658366Y430276D02*
D03*
X1662430Y468728D02*
D03*
Y460196D02*
D03*
X1673352D02*
D03*
X1681226Y417830D02*
D03*
X1678686Y422148D02*
D03*
X1592643Y456794D02*
D03*
X1672113Y416591D02*
D03*
X1644904Y465836D02*
D03*
X1634586Y467963D02*
D03*
X1678686Y413004D02*
D03*
X1719834Y467106D02*
D03*
X1724152Y465328D02*
D03*
X1706118Y466344D02*
D03*
X1693250Y460313D02*
D03*
X1704594Y471690D02*
D03*
X1728800Y464998D02*
D03*
X1706320Y351790D02*
D03*
X1697228Y323342D02*
D03*
X1698042Y362054D02*
D03*
X1687668Y355438D02*
D03*
X1680718Y350266D02*
D03*
X1703732Y384799D02*
D03*
X1752092Y402336D02*
D03*
X1661414Y387604D02*
D03*
X1661668Y380492D02*
D03*
X1658874Y392684D02*
D03*
X1667510Y343408D02*
D03*
X1665986Y350520D02*
D03*
X1653540Y328982D02*
D03*
X1632966Y333502D02*
D03*
X1607566Y365252D02*
D03*
X1614678Y363474D02*
D03*
X1604010Y361442D02*
D03*
X1615186Y335534D02*
D03*
X1614424Y323680D02*
D03*
X1632542Y328938D02*
D03*
X1658366Y311098D02*
D03*
X1640840Y311508D02*
D03*
X1609399Y336706D02*
D03*
X1687068Y339598D02*
D03*
X1676908Y324866D02*
D03*
X1652270Y296164D02*
D03*
X1641856Y294894D02*
D03*
X1630680Y290068D02*
D03*
X1644142Y476504D02*
D03*
X1623060Y290068D02*
D03*
X1573318Y403557D02*
D03*
X1601216Y411226D02*
D03*
X1596644Y410210D02*
D03*
X1608328Y399034D02*
D03*
X1612900Y393700D02*
D03*
Y403860D02*
D03*
X1632966Y388366D02*
D03*
X1535430Y533146D02*
D03*
X1530858Y536956D02*
D03*
X1639762Y399226D02*
D03*
X1606550Y411226D02*
D03*
X1603776Y424668D02*
D03*
X1583690Y425196D02*
D03*
X1755007Y432984D02*
D03*
X1767586Y450342D02*
D03*
X1759204D02*
D03*
X1755780Y428290D02*
D03*
X1773682Y437896D02*
D03*
X1759222Y408538D02*
D03*
X1766316Y385572D02*
D03*
X1774444Y390144D02*
D03*
X1752092Y395732D02*
D03*
X1747520Y395986D02*
D03*
X1773936Y448564D02*
D03*
X1609852Y360172D02*
D03*
X1603248Y330072D02*
D03*
X1641320Y320548D02*
D03*
X1639697Y339344D02*
D03*
X1596136Y387604D02*
D03*
X1663954Y326136D02*
D03*
X1627802Y329438D02*
D03*
X1591056Y328168D02*
D03*
Y332486D02*
D03*
Y336550D02*
D03*
X1611518Y305666D02*
D03*
X1618686Y300482D02*
D03*
X1607998Y301752D02*
D03*
X1607566Y373126D02*
D03*
X1603756Y376936D02*
D03*
X1604010Y368808D02*
D03*
X1575441Y362501D02*
D03*
X1680972Y344170D02*
D03*
X1590294Y379476D02*
D03*
X1532862Y418149D02*
D03*
X1527782D02*
D03*
X1520162D02*
D03*
X1515082D02*
D03*
X1496314Y412496D02*
D03*
X1501394D02*
D03*
X1496314Y406654D02*
D03*
X1501394D02*
D03*
X1565656Y364998D02*
D03*
X1552194Y391160D02*
D03*
X1557020Y371856D02*
D03*
Y378968D02*
D03*
X1545082Y391414D02*
D03*
X1548384Y387604D02*
D03*
X1501648Y386842D02*
D03*
X1542288Y387604D02*
D03*
X1496568Y386842D02*
D03*
X1501648Y392684D02*
D03*
X1496568D02*
D03*
X1735250Y384620D02*
D03*
X1716640Y533292D02*
D03*
X1659382Y368300D02*
D03*
X1530858Y529590D02*
D03*
X1734312Y465074D02*
D03*
X1614678Y368300D02*
D03*
X1615186Y290068D02*
D03*
X1711706Y566928D02*
D03*
X1668780Y566674D02*
D03*
X1631026Y545562D02*
D03*
X1643380Y554990D02*
D03*
X1565402Y383032D02*
D03*
X1505204Y401066D02*
D03*
X1543812Y395986D02*
D03*
X1573250Y393500D02*
D03*
X1768000Y390500D02*
D03*
X1774250Y409500D02*
D03*
X1653500Y550750D02*
D03*
X1634744Y338074D02*
D03*
D74*
X1715339Y331408D02*
D03*
X1770203Y348934D02*
D03*
X1711198Y362458D02*
D03*
X1719916Y337603D02*
D03*
X1729807Y336132D02*
D03*
X1739807D02*
D03*
X1749807D02*
D03*
X1768202Y335550D02*
D03*
X1764396Y344798D02*
D03*
X1754972Y348144D02*
D03*
X1744972D02*
D03*
X1734972D02*
D03*
X1727496Y354785D02*
D03*
X1727506Y364784D02*
D03*
X1727588Y374784D02*
D03*
X1710690Y345186D02*
D03*
X1670560Y288290D02*
D03*
X1643126Y507996D02*
D03*
X1631950Y508000D02*
D03*
X1648206Y518414D02*
D03*
X1636522D02*
D03*
X1625346Y518418D02*
D03*
X1496060Y269240D02*
D03*
Y280924D02*
D03*
X1496064Y292100D02*
D03*
X1593342Y260858D02*
D03*
X1631188Y268986D02*
D03*
X1671066Y270510D02*
D03*
X1770384Y381000D02*
D03*
X1770380Y369824D02*
D03*
Y358140D02*
D03*
X1757680Y355596D02*
D03*
X1746504Y355600D02*
D03*
X1734820D02*
D03*
X1769872Y323850D02*
D03*
X1721866Y325628D02*
D03*
X1733550D02*
D03*
X1744726Y325624D02*
D03*
X1734820Y366014D02*
D03*
X1715360Y356750D02*
D03*
Y369000D02*
D03*
D75*
X1636526Y370082D02*
D03*
X1628140Y351536D02*
D03*
X1645666Y369824D02*
D03*
X1736090Y420624D02*
D03*
X1724660D02*
D03*
Y409702D02*
D03*
X1713230D02*
D03*
Y420624D02*
D03*
X1701800Y409702D02*
D03*
X1736090D02*
D03*
X1701800Y420624D02*
D03*
Y432054D02*
D03*
X1713230D02*
D03*
X1736090D02*
D03*
X1724660D02*
D03*
Y444500D02*
D03*
X1736090D02*
D03*
X1713230D02*
D03*
X1701800D02*
D03*
M02*
