G04*
G04 #@! TF.GenerationSoftware,Altium Limited,Altium Designer,24.10.1 (45)*
G04*
G04 Layer_Physical_Order=4*
G04 Layer_Color=16711680*
%FSLAX44Y44*%
%MOMM*%
G71*
G04*
G04 #@! TF.SameCoordinates,7938DD53-57AB-4622-B446-BAE18901E4FB*
G04*
G04*
G04 #@! TF.FilePolarity,Positive*
G04*
G01*
G75*
%ADD59C,0.7620*%
%ADD60C,0.2032*%
%ADD61C,0.2619*%
%ADD62C,0.2540*%
%ADD64C,0.2286*%
%ADD65C,0.2405*%
%ADD66C,1.2000*%
%ADD67C,0.5330*%
%ADD68C,0.4000*%
%ADD69C,0.5800*%
%ADD70C,0.3250*%
%ADD71C,1.1000*%
%ADD72C,1.5000*%
%ADD73C,0.2500*%
%ADD74C,0.5000*%
%ADD75C,0.6604*%
%ADD77C,0.5080*%
G36*
X1776098Y477988D02*
X1774828Y477462D01*
X1774020Y478271D01*
X1772153Y479044D01*
X1770132D01*
X1768264Y478271D01*
X1766835Y476842D01*
X1766062Y474975D01*
Y472953D01*
X1766835Y471086D01*
X1768264Y469657D01*
X1768552Y469538D01*
Y461974D01*
X1768749Y460983D01*
X1769311Y460142D01*
X1771346Y458107D01*
Y452837D01*
X1771305Y452811D01*
X1770076Y452448D01*
X1769427Y453097D01*
X1768233Y453592D01*
X1766940D01*
X1765745Y453097D01*
X1764831Y452183D01*
X1764336Y450989D01*
Y449696D01*
X1764831Y448501D01*
X1765745Y447587D01*
X1766940Y447092D01*
X1768233D01*
X1769427Y447587D01*
X1769513Y447673D01*
X1770940Y447304D01*
X1771181Y446723D01*
X1772095Y445809D01*
X1773289Y445314D01*
X1774583D01*
X1774828Y445416D01*
X1776098Y444567D01*
Y413627D01*
X1774896Y412750D01*
X1774616D01*
X1759030Y428336D01*
Y428937D01*
X1758535Y430131D01*
X1757621Y431045D01*
X1756426Y431540D01*
X1755134D01*
X1753939Y431045D01*
X1753025Y430131D01*
X1752530Y428937D01*
Y427644D01*
X1753025Y426449D01*
X1753939Y425535D01*
X1755134Y425040D01*
X1755734D01*
X1771000Y409774D01*
Y409546D01*
X1756612Y395158D01*
X1755342Y395684D01*
Y396379D01*
X1754847Y397573D01*
X1754132Y398288D01*
X1754017Y399034D01*
X1754132Y399780D01*
X1754847Y400495D01*
X1755342Y401689D01*
Y402982D01*
X1754847Y404177D01*
X1753933Y405091D01*
X1752738Y405586D01*
X1751445D01*
X1750251Y405091D01*
X1749827Y404667D01*
X1714792D01*
X1713900Y404489D01*
X1713144Y403984D01*
X1711954Y402794D01*
X1711449Y402038D01*
X1711271Y401146D01*
Y383500D01*
X1703454Y375683D01*
X1702949Y374927D01*
X1702771Y374035D01*
Y353135D01*
X1702949Y352243D01*
X1702964Y352220D01*
X1702849Y351311D01*
X1701590Y350774D01*
X1700067Y352297D01*
Y356073D01*
X1699889Y356965D01*
X1699384Y357721D01*
X1699685Y359217D01*
X1699883Y359299D01*
X1700797Y360213D01*
X1701292Y361408D01*
Y362701D01*
X1700797Y363895D01*
X1699883Y364809D01*
X1698688Y365304D01*
X1697918D01*
X1697198Y365630D01*
X1696731Y366403D01*
Y371027D01*
X1696553Y371919D01*
X1696426Y372109D01*
Y373024D01*
X1695932Y374218D01*
X1695017Y375133D01*
X1693823Y375628D01*
X1692530D01*
X1691335Y375133D01*
X1690421Y374218D01*
X1689926Y373024D01*
Y372949D01*
X1689601Y372775D01*
X1688331Y373536D01*
Y379983D01*
X1689400Y381052D01*
X1690000D01*
X1691195Y381547D01*
X1692109Y382461D01*
X1692455Y383295D01*
X1693571Y383778D01*
X1693874Y383816D01*
X1694606Y383433D01*
X1694703Y383199D01*
X1695617Y382285D01*
X1696812Y381790D01*
X1698105D01*
X1699299Y382285D01*
X1699711Y382696D01*
X1700761Y382914D01*
X1701304Y382631D01*
X1701891Y382044D01*
X1703085Y381549D01*
X1704378D01*
X1705573Y382044D01*
X1706487Y382958D01*
X1706982Y384153D01*
Y385446D01*
X1706487Y386640D01*
X1705573Y387555D01*
X1704378Y388049D01*
X1703778D01*
X1694193Y397634D01*
X1693437Y398139D01*
X1693071Y399507D01*
X1693112Y399606D01*
Y400899D01*
X1692617Y402093D01*
X1691703Y403007D01*
X1690509Y403502D01*
X1689216D01*
X1688021Y403007D01*
X1687107Y402093D01*
X1687001Y401838D01*
X1685570D01*
X1684712Y403086D01*
Y404379D01*
X1684218Y405574D01*
X1683303Y406488D01*
X1682109Y406983D01*
X1680816D01*
X1679621Y406488D01*
X1678707Y405574D01*
X1678610Y405340D01*
X1678182Y405205D01*
X1677170Y405181D01*
X1676480Y405871D01*
X1675286Y406365D01*
X1674812D01*
X1674444Y406733D01*
Y411433D01*
X1675714Y411686D01*
X1675931Y411163D01*
X1676845Y410249D01*
X1678040Y409754D01*
X1679332D01*
X1680527Y410249D01*
X1681441Y411163D01*
X1681936Y412357D01*
Y413650D01*
X1682771Y414952D01*
X1683067Y415075D01*
X1683981Y415989D01*
X1684476Y417183D01*
Y418476D01*
X1683981Y419671D01*
X1683067Y420585D01*
X1682925Y420644D01*
X1681936Y421502D01*
Y422794D01*
X1681692Y423384D01*
X1682251Y423616D01*
X1683166Y424530D01*
X1683660Y425725D01*
Y426198D01*
X1683716Y426253D01*
X1685145D01*
X1685301Y425874D01*
X1686730Y424445D01*
X1688598Y423672D01*
X1690618D01*
X1692486Y424445D01*
X1693915Y425874D01*
X1694688Y427742D01*
Y429762D01*
X1693915Y431630D01*
X1692486Y433059D01*
X1690618Y433832D01*
X1688598D01*
X1686730Y433059D01*
X1685301Y431630D01*
X1685005Y430915D01*
X1682750D01*
X1681858Y430737D01*
X1681102Y430232D01*
X1679583Y430495D01*
X1675472Y434606D01*
X1675958Y435779D01*
X1681405D01*
X1681779Y435853D01*
X1681850Y435824D01*
X1683143D01*
X1684337Y436319D01*
X1685251Y437233D01*
X1685746Y438428D01*
Y439720D01*
X1685251Y440915D01*
X1684337Y441829D01*
X1683143Y442324D01*
X1681850D01*
X1681682Y442436D01*
Y443022D01*
X1681187Y444217D01*
X1680273Y445131D01*
X1679079Y445626D01*
X1678478D01*
X1675077Y449027D01*
X1675603Y450297D01*
X1693926D01*
X1694818Y450475D01*
X1695574Y450980D01*
X1704341Y459747D01*
X1707885D01*
X1708777Y459925D01*
X1709533Y460430D01*
X1710419Y461316D01*
X1711293D01*
X1712487Y461811D01*
X1713401Y462725D01*
X1713896Y463919D01*
Y464872D01*
X1714639D01*
X1715833Y465367D01*
X1715864Y465397D01*
X1717303Y465041D01*
X1717993Y464351D01*
X1719187Y463856D01*
X1720480D01*
X1721132Y464126D01*
X1721397Y463487D01*
X1722311Y462573D01*
X1723506Y462078D01*
X1724798D01*
X1725993Y462573D01*
X1726311Y462891D01*
X1726959Y462243D01*
X1728154Y461748D01*
X1728309D01*
X1730897Y459160D01*
X1731653Y458655D01*
X1732545Y458477D01*
X1736142D01*
X1737034Y458655D01*
X1737790Y459160D01*
X1744693Y466063D01*
X1745240Y465836D01*
X1747260D01*
X1749128Y466609D01*
X1750557Y468038D01*
X1751330Y469906D01*
Y471926D01*
X1750881Y473011D01*
X1751556Y474229D01*
X1752484Y474340D01*
X1754097Y472727D01*
X1753870Y472180D01*
Y470159D01*
X1754643Y468292D01*
X1756072Y466863D01*
X1757939Y466090D01*
X1759960D01*
X1761828Y466863D01*
X1763257Y468292D01*
X1764030Y470159D01*
Y472180D01*
X1763257Y474048D01*
X1761828Y475477D01*
X1759960Y476250D01*
X1757939D01*
X1757393Y476023D01*
X1754756Y478660D01*
X1754000Y479165D01*
X1753108Y479343D01*
X1750583D01*
X1750177Y480613D01*
X1751319Y481754D01*
X1752092Y483621D01*
Y485643D01*
X1751319Y487510D01*
X1749890Y488939D01*
X1748022Y489712D01*
X1747005D01*
X1746134Y490583D01*
X1746452Y491352D01*
Y492645D01*
X1745957Y493839D01*
X1745043Y494753D01*
X1743849Y495248D01*
X1742556D01*
X1741361Y494753D01*
X1740610Y494002D01*
X1739839Y494142D01*
X1739340Y494392D01*
Y494677D01*
X1738845Y495871D01*
X1738661Y496055D01*
Y496275D01*
X1739381Y496994D01*
X1740154Y498862D01*
Y500882D01*
X1739381Y502750D01*
X1737952Y504179D01*
X1736084Y504952D01*
X1734064D01*
X1732196Y504179D01*
X1730767Y502750D01*
X1729994Y500882D01*
Y498862D01*
X1730767Y496994D01*
X1732196Y495565D01*
X1733060Y495208D01*
X1732840Y494677D01*
Y493383D01*
X1733335Y492189D01*
X1734249Y491275D01*
X1735444Y490780D01*
X1736736D01*
X1737931Y491275D01*
X1738682Y492026D01*
X1739453Y491886D01*
X1739952Y491637D01*
Y491352D01*
X1740447Y490157D01*
X1740572Y490032D01*
Y489795D01*
X1740772Y488789D01*
X1741342Y487935D01*
X1742431Y486847D01*
X1741932Y485643D01*
Y483621D01*
X1742705Y481754D01*
X1743847Y480613D01*
X1743441Y479343D01*
X1734971D01*
X1734677Y479284D01*
X1726030Y487931D01*
X1725274Y488436D01*
X1724382Y488614D01*
X1699799D01*
X1698907Y488436D01*
X1698151Y487931D01*
X1690963Y480742D01*
X1689698Y481274D01*
Y498662D01*
X1690131Y499095D01*
X1690626Y500290D01*
Y501582D01*
X1690131Y502777D01*
X1689698Y503210D01*
Y513003D01*
X1689806Y513164D01*
X1690006Y514171D01*
Y525132D01*
X1690131Y525257D01*
X1690626Y526452D01*
Y527744D01*
X1690131Y528939D01*
X1689217Y529853D01*
X1688022Y530348D01*
X1687846D01*
X1665584Y552610D01*
X1664731Y553180D01*
X1663724Y553380D01*
X1655466D01*
X1655341Y553505D01*
X1654147Y554000D01*
X1652854D01*
X1651659Y553505D01*
X1650745Y552591D01*
X1650250Y551396D01*
Y550103D01*
X1650745Y548909D01*
X1651659Y547995D01*
X1652854Y547500D01*
X1654147D01*
X1655341Y547995D01*
X1655466Y548120D01*
X1662634D01*
X1684126Y526628D01*
Y526452D01*
X1684621Y525257D01*
X1684746Y525132D01*
Y515031D01*
X1684638Y514869D01*
X1684438Y513863D01*
Y502335D01*
X1684126Y501582D01*
Y500290D01*
X1684438Y499537D01*
Y480756D01*
X1684313Y480631D01*
X1683818Y479436D01*
Y478144D01*
X1684313Y476949D01*
X1684667Y476595D01*
X1684141Y475325D01*
X1648617D01*
X1647392Y476550D01*
Y477150D01*
X1646897Y478345D01*
X1645983Y479259D01*
X1644789Y479754D01*
X1643495D01*
X1642301Y479259D01*
X1641387Y478345D01*
X1640892Y477150D01*
Y475858D01*
X1641387Y474663D01*
X1642301Y473749D01*
X1643495Y473254D01*
X1644096D01*
X1646004Y471346D01*
X1646760Y470841D01*
X1647652Y470663D01*
X1658129D01*
X1658884Y469619D01*
X1658550Y468408D01*
X1657923Y468051D01*
X1657341Y468167D01*
X1647169D01*
X1646745Y468591D01*
X1645551Y469086D01*
X1644258D01*
X1643063Y468591D01*
X1642149Y467677D01*
X1641654Y466483D01*
Y465987D01*
X1640384Y465461D01*
X1637836Y468010D01*
Y468610D01*
X1637341Y469804D01*
X1636427Y470719D01*
X1635232Y471213D01*
X1633939D01*
X1632745Y470719D01*
X1631830Y469804D01*
X1631335Y468610D01*
Y467317D01*
X1631830Y466123D01*
X1632745Y465208D01*
X1633939Y464714D01*
X1634539D01*
X1636920Y462333D01*
X1636622Y460835D01*
X1636545Y460803D01*
X1635631Y459889D01*
X1635583Y459773D01*
X1634430Y459016D01*
X1633538Y459193D01*
X1630671D01*
X1630247Y459618D01*
X1629052Y460112D01*
X1627759D01*
X1626565Y459618D01*
X1625650Y458703D01*
X1625156Y457509D01*
Y456216D01*
X1623982Y455846D01*
X1623906D01*
X1622712Y455352D01*
X1621797Y454437D01*
X1621790Y454419D01*
X1620291Y454121D01*
X1615616Y458796D01*
X1614860Y459301D01*
X1613968Y459479D01*
X1604277D01*
X1603385Y459301D01*
X1603120Y459124D01*
X1594909D01*
X1594484Y459549D01*
X1594395Y459916D01*
X1594385Y460965D01*
X1595617Y462196D01*
X1596390Y464063D01*
Y466085D01*
X1595617Y467952D01*
X1594188Y469381D01*
X1592321Y470154D01*
X1590300D01*
X1588432Y469381D01*
X1587003Y467952D01*
X1586230Y466085D01*
Y464063D01*
X1587003Y462196D01*
X1588432Y460767D01*
X1588979Y460541D01*
Y458216D01*
X1589157Y457324D01*
X1588977Y457020D01*
X1587383Y456819D01*
X1584243Y459958D01*
Y483921D01*
X1585006Y484684D01*
X1585607D01*
X1586801Y485179D01*
X1587715Y486093D01*
X1588210Y487287D01*
Y488581D01*
X1587715Y489775D01*
X1586801Y490689D01*
X1585607Y491184D01*
X1584314D01*
X1583119Y490689D01*
X1582205Y489775D01*
X1581710Y488581D01*
Y487980D01*
X1580264Y486534D01*
X1579759Y485778D01*
X1579581Y484886D01*
Y463653D01*
X1578356Y463545D01*
X1577583Y465412D01*
X1576154Y466841D01*
X1574286Y467614D01*
X1572265D01*
X1570398Y466841D01*
X1568969Y465412D01*
X1568196Y463545D01*
Y461524D01*
X1568969Y459656D01*
X1570398Y458227D01*
X1572014Y457558D01*
Y457025D01*
X1572192Y456133D01*
X1572312Y455954D01*
Y455036D01*
X1572807Y453841D01*
X1573721Y452927D01*
X1574915Y452432D01*
X1575516D01*
X1588582Y439366D01*
X1589338Y438860D01*
X1590230Y438683D01*
X1592498D01*
X1602252Y428929D01*
X1601954Y427431D01*
X1601935Y427423D01*
X1601021Y426509D01*
X1600526Y425314D01*
Y424022D01*
X1601021Y422827D01*
X1601089Y422759D01*
X1600563Y421489D01*
X1592891D01*
X1586437Y427943D01*
X1585177Y428785D01*
X1583690Y429081D01*
X1582203Y428785D01*
X1580943Y427943D01*
X1580101Y426683D01*
X1579805Y425196D01*
X1580101Y423709D01*
X1580943Y422449D01*
X1585788Y417604D01*
X1583041Y414857D01*
X1582420D01*
X1580933Y414561D01*
X1579673Y413719D01*
X1578831Y412459D01*
X1578535Y410972D01*
X1578831Y409485D01*
X1579673Y408225D01*
X1580933Y407383D01*
X1582420Y407087D01*
X1584650D01*
X1586137Y407383D01*
X1587397Y408225D01*
X1592891Y413719D01*
X1597454D01*
X1598205Y412449D01*
X1597966Y411872D01*
Y410579D01*
X1598461Y409385D01*
X1599375Y408471D01*
X1600569Y407976D01*
X1601862D01*
X1603057Y408471D01*
X1603883Y409297D01*
X1604709Y408471D01*
X1605903Y407976D01*
X1607197D01*
X1608391Y408471D01*
X1609305Y409385D01*
X1609800Y410579D01*
Y411872D01*
X1609561Y412449D01*
X1610312Y413719D01*
X1611665D01*
X1611975Y413409D01*
X1613235Y412567D01*
X1614722Y412271D01*
X1633793D01*
X1650285Y395779D01*
X1651545Y394937D01*
X1653032Y394641D01*
X1654792D01*
X1655641Y393371D01*
X1655624Y393330D01*
Y392038D01*
X1656119Y390843D01*
X1657033Y389929D01*
X1657418Y389769D01*
X1658168Y388261D01*
X1658164Y388251D01*
Y387203D01*
X1657527Y386570D01*
X1657066Y386290D01*
X1656472Y386536D01*
X1655179D01*
X1653985Y386041D01*
X1653071Y385127D01*
X1652576Y383932D01*
Y382640D01*
X1653071Y381445D01*
X1653985Y380531D01*
X1655179Y380036D01*
X1656472D01*
X1657148Y380316D01*
X1658238Y379912D01*
X1658515Y379612D01*
X1658913Y378651D01*
X1659827Y377737D01*
X1661022Y377242D01*
X1662314D01*
X1663509Y377737D01*
X1664423Y378651D01*
X1664918Y379846D01*
Y381138D01*
X1664423Y382333D01*
X1663509Y383247D01*
X1663108Y383413D01*
Y384788D01*
X1663255Y384849D01*
X1664169Y385763D01*
X1664519Y386608D01*
X1665552Y386775D01*
X1665761Y386783D01*
X1665856Y386768D01*
X1666722Y385902D01*
X1667917Y385407D01*
X1667984D01*
X1668481Y384801D01*
Y365696D01*
X1667211Y364847D01*
X1666234Y365252D01*
X1664214D01*
X1662346Y364479D01*
X1660917Y363050D01*
X1660304Y361568D01*
X1658971Y361106D01*
X1657731Y362345D01*
X1656913Y362892D01*
X1655948Y363084D01*
X1654984Y362892D01*
X1654166Y362345D01*
X1652697Y360877D01*
X1651319Y361295D01*
X1651275Y361518D01*
X1650728Y362336D01*
X1647232Y365832D01*
X1646414Y366379D01*
X1645450Y366570D01*
X1644485Y366379D01*
X1643667Y365832D01*
X1639921Y362086D01*
X1638207Y363800D01*
X1638207Y363800D01*
X1632905Y369102D01*
X1633081Y369366D01*
X1633273Y370331D01*
X1633081Y371295D01*
X1632534Y372113D01*
X1629038Y375610D01*
X1628220Y376156D01*
X1627997Y376200D01*
X1627579Y377578D01*
X1631878Y381878D01*
X1632424Y382696D01*
X1632616Y383660D01*
X1632424Y384625D01*
X1631878Y385443D01*
X1629556Y387765D01*
X1629962Y389154D01*
X1631620Y390111D01*
X1633253Y391744D01*
X1634407Y393744D01*
X1635005Y395974D01*
Y398284D01*
X1634407Y400514D01*
X1633253Y402514D01*
X1631620Y404147D01*
X1629620Y405301D01*
X1627390Y405899D01*
X1625080D01*
X1622850Y405301D01*
X1620850Y404147D01*
X1619217Y402514D01*
X1618063Y400514D01*
X1617465Y398284D01*
Y395974D01*
X1618063Y393744D01*
X1619217Y391744D01*
X1620850Y390111D01*
X1622850Y388957D01*
X1623188Y388866D01*
X1623517Y387639D01*
X1618942Y383065D01*
X1615404Y386603D01*
X1614586Y387150D01*
X1613621Y387342D01*
X1611923D01*
X1597131Y402134D01*
X1596313Y402681D01*
X1595348Y402873D01*
X1577533D01*
X1576879Y403527D01*
X1576863Y403551D01*
X1576568Y403846D01*
Y404203D01*
X1576073Y405398D01*
X1575158Y406312D01*
X1573964Y406807D01*
X1572671D01*
X1571476Y406312D01*
X1570562Y405398D01*
X1570067Y404203D01*
Y402910D01*
X1570562Y401716D01*
X1571476Y400802D01*
X1572671Y400307D01*
X1572977D01*
X1573282Y400002D01*
X1573298Y399978D01*
X1573883Y399393D01*
X1574639Y398496D01*
X1573890Y397679D01*
X1572961Y396750D01*
X1572603D01*
X1571409Y396255D01*
X1570495Y395341D01*
X1570000Y394146D01*
Y392854D01*
X1570495Y391659D01*
X1571409Y390745D01*
X1572603Y390250D01*
X1573896D01*
X1575091Y390745D01*
X1576005Y391659D01*
X1576500Y392854D01*
Y393159D01*
X1577497Y394156D01*
X1592782D01*
X1606067Y380871D01*
X1605348Y379795D01*
X1604402Y380186D01*
X1603110D01*
X1602994Y380263D01*
Y380994D01*
X1602221Y382862D01*
X1600792Y384291D01*
X1598925Y385064D01*
X1596904D01*
X1595036Y384291D01*
X1593607Y382862D01*
X1592834Y380994D01*
Y378974D01*
X1593607Y377106D01*
X1595036Y375677D01*
X1596904Y374904D01*
X1598925D01*
X1600184Y375426D01*
X1600505Y375105D01*
X1601346Y374543D01*
X1601604Y374492D01*
X1601915Y374181D01*
X1603109Y373686D01*
X1604010D01*
X1604089Y373306D01*
X1603363Y372058D01*
X1602169Y371563D01*
X1601255Y370649D01*
X1600760Y369454D01*
Y368162D01*
X1601255Y366967D01*
X1602169Y366053D01*
X1602750Y365812D01*
Y364438D01*
X1602169Y364197D01*
X1601255Y363283D01*
X1600760Y362089D01*
Y360796D01*
X1601255Y359601D01*
X1602169Y358687D01*
X1603363Y358192D01*
X1604657D01*
X1605615Y358589D01*
X1606648Y358528D01*
X1607048Y358449D01*
X1607097Y358331D01*
X1607521Y357907D01*
Y350955D01*
X1603834Y347268D01*
X1603329Y346511D01*
X1603151Y345620D01*
Y341074D01*
X1602979Y340817D01*
X1602802Y339925D01*
Y334580D01*
X1602625Y333472D01*
X1601912Y333037D01*
X1601407Y332827D01*
X1600493Y331913D01*
X1599998Y330718D01*
Y329426D01*
X1600493Y328231D01*
X1601407Y327317D01*
X1602601Y326822D01*
X1603895D01*
X1605089Y327317D01*
X1606003Y328231D01*
X1606116Y328504D01*
X1607614Y328802D01*
X1609864Y326552D01*
X1610621Y326046D01*
X1611512Y325869D01*
X1620301D01*
X1631790Y314380D01*
X1632546Y313875D01*
X1633438Y313697D01*
X1636854D01*
X1637703Y312427D01*
X1637590Y312154D01*
Y310861D01*
X1638085Y309667D01*
X1638999Y308753D01*
X1640193Y308258D01*
X1641487D01*
X1642681Y308753D01*
X1643595Y309667D01*
X1644090Y310861D01*
Y312154D01*
X1643977Y312427D01*
X1644826Y313697D01*
X1646982D01*
X1647874Y313875D01*
X1648630Y314380D01*
X1649513Y315263D01*
X1650244Y314960D01*
X1652265D01*
X1654132Y315733D01*
X1655561Y317162D01*
X1656334Y319030D01*
Y321050D01*
X1656031Y321781D01*
X1667505Y333255D01*
X1671210D01*
X1672102Y333433D01*
X1672858Y333938D01*
X1676726Y337806D01*
X1677231Y338562D01*
X1677409Y339454D01*
Y341341D01*
X1678679Y341867D01*
X1679131Y341415D01*
X1680325Y340920D01*
X1681618D01*
X1682813Y341415D01*
X1683010Y341611D01*
X1684086Y340892D01*
X1683818Y340244D01*
Y338951D01*
X1684313Y337757D01*
X1684438Y337632D01*
Y336887D01*
X1684638Y335881D01*
X1685208Y335027D01*
X1685789Y334447D01*
X1685290Y333242D01*
Y331222D01*
X1686063Y329354D01*
X1687492Y327925D01*
X1689359Y327152D01*
X1691380D01*
X1693248Y327925D01*
X1694677Y329354D01*
X1695450Y331222D01*
Y333242D01*
X1694677Y335110D01*
X1693248Y336539D01*
X1691380Y337312D01*
X1690998D01*
X1690124Y338483D01*
X1690318Y338951D01*
Y340244D01*
X1689823Y341439D01*
X1688909Y342353D01*
X1687715Y342848D01*
X1686422D01*
X1685227Y342353D01*
X1685030Y342157D01*
X1683954Y342876D01*
X1684222Y343523D01*
Y344817D01*
X1683727Y346011D01*
X1683223Y346515D01*
X1682856Y347065D01*
X1683191Y348143D01*
X1683473Y348425D01*
X1683497Y348484D01*
X1684996Y348782D01*
X1699684Y334093D01*
Y327141D01*
X1698414Y326368D01*
X1697874Y326592D01*
X1696582D01*
X1695387Y326097D01*
X1694963Y325673D01*
X1680092D01*
X1679663Y326707D01*
X1678749Y327621D01*
X1677554Y328116D01*
X1676261D01*
X1675067Y327621D01*
X1674153Y326707D01*
X1673658Y325513D01*
Y324220D01*
X1674153Y323025D01*
X1675067Y322111D01*
X1676261Y321616D01*
X1677027D01*
X1677667Y321189D01*
X1678559Y321011D01*
X1690048D01*
X1690215Y319741D01*
X1690140Y319721D01*
X1688353Y318690D01*
X1686894Y317231D01*
X1685863Y315444D01*
X1685329Y313451D01*
Y311388D01*
X1685863Y309396D01*
X1686519Y308260D01*
X1685857Y306990D01*
X1684008Y306495D01*
X1682350Y305537D01*
X1680997Y304184D01*
X1680039Y302526D01*
X1679544Y300677D01*
Y298763D01*
X1680039Y296914D01*
X1680997Y295256D01*
X1682096Y294157D01*
X1682247Y293370D01*
X1682096Y292583D01*
X1680997Y291484D01*
X1680039Y289826D01*
X1679544Y287977D01*
Y286063D01*
X1680039Y284214D01*
X1680997Y282556D01*
X1682096Y281457D01*
X1682247Y280670D01*
X1682096Y279883D01*
X1680997Y278784D01*
X1680039Y277126D01*
X1679544Y275277D01*
Y274955D01*
X1686814D01*
Y273685D01*
X1679544D01*
Y273363D01*
X1680039Y271514D01*
X1680670Y270421D01*
X1680208Y268982D01*
X1679980Y268921D01*
X1678193Y267890D01*
X1676734Y266431D01*
X1675703Y264644D01*
X1675169Y262652D01*
Y260588D01*
X1675703Y258596D01*
X1676472Y257264D01*
X1675870Y255994D01*
X1490733Y256039D01*
Y572211D01*
X1776098Y572211D01*
Y477988D01*
D02*
G37*
G36*
X1670634Y420871D02*
X1670336Y419373D01*
X1670273Y419347D01*
X1669358Y418432D01*
X1668864Y417238D01*
Y415945D01*
X1669358Y414751D01*
X1669783Y414326D01*
Y411472D01*
X1668728Y410768D01*
X1667458Y411157D01*
Y411618D01*
X1666963Y412813D01*
X1666049Y413727D01*
X1664854Y414222D01*
X1663562D01*
X1662367Y413727D01*
X1661453Y412813D01*
X1661278Y412391D01*
X1659785Y412088D01*
X1645100Y426772D01*
X1645586Y427945D01*
X1656101D01*
X1656525Y427521D01*
X1657720Y427026D01*
X1659012D01*
X1660207Y427521D01*
X1661121Y428435D01*
X1661166Y428543D01*
X1662664Y428841D01*
X1670634Y420871D01*
D02*
G37*
G36*
X1776098Y405373D02*
Y320375D01*
X1713000D01*
X1712767Y320278D01*
X1711497Y321100D01*
Y339902D01*
X1711319Y340793D01*
X1710814Y341550D01*
X1710219Y342145D01*
X1710219Y342145D01*
X1704862Y347501D01*
X1705582Y348578D01*
X1705674Y348540D01*
X1706967D01*
X1708161Y349035D01*
X1709075Y349949D01*
X1709570Y351143D01*
Y352436D01*
X1709075Y353631D01*
X1708161Y354545D01*
X1707433Y354847D01*
Y373069D01*
X1715250Y380887D01*
X1715755Y381643D01*
X1715933Y382535D01*
Y400005D01*
X1745412D01*
X1745673Y398771D01*
X1745673Y398735D01*
X1744765Y397827D01*
X1744270Y396632D01*
Y395340D01*
X1744765Y394145D01*
X1745679Y393231D01*
X1746873Y392736D01*
X1748167D01*
X1749361Y393231D01*
X1749679Y393549D01*
X1750251Y392977D01*
X1751445Y392482D01*
X1752140D01*
X1752666Y391212D01*
X1748405Y386951D01*
X1737515D01*
X1737091Y387375D01*
X1735896Y387870D01*
X1734603D01*
X1733409Y387375D01*
X1732495Y386461D01*
X1732000Y385266D01*
Y383974D01*
X1732495Y382779D01*
X1733409Y381865D01*
X1734603Y381370D01*
X1735896D01*
X1737091Y381865D01*
X1737515Y382289D01*
X1749370D01*
X1750262Y382467D01*
X1751018Y382972D01*
X1774296Y406250D01*
X1774896D01*
X1776098Y405373D01*
D02*
G37*
G36*
X1641545Y343471D02*
X1640825Y342394D01*
X1640343Y342594D01*
X1639050D01*
X1637856Y342099D01*
X1636942Y341185D01*
X1635590Y341241D01*
X1635390Y341324D01*
X1634097D01*
X1632903Y340829D01*
X1631989Y339915D01*
X1631494Y338721D01*
Y337427D01*
X1631854Y336559D01*
X1631125Y336257D01*
X1630211Y335343D01*
X1629716Y334148D01*
Y332855D01*
X1630211Y331661D01*
X1630440Y331432D01*
X1629787Y330779D01*
X1629292Y329585D01*
Y328292D01*
X1629787Y327097D01*
X1630701Y326183D01*
X1631895Y325688D01*
X1633188D01*
X1634383Y326183D01*
X1635297Y327097D01*
X1635792Y328292D01*
Y329585D01*
X1635297Y330779D01*
X1635068Y331008D01*
X1635721Y331661D01*
X1636216Y332855D01*
Y334148D01*
X1635856Y335017D01*
X1636585Y335319D01*
X1637499Y336233D01*
X1638851Y336177D01*
X1639050Y336094D01*
X1640343D01*
X1641538Y336589D01*
X1642452Y337503D01*
X1642947Y338698D01*
Y339991D01*
X1642747Y340472D01*
X1643824Y341192D01*
X1651329Y333687D01*
X1652085Y333181D01*
X1652977Y333004D01*
X1659002D01*
X1659489Y331831D01*
X1652628Y324970D01*
X1652265Y325120D01*
X1650244D01*
X1648376Y324347D01*
X1646947Y322918D01*
X1646174Y321050D01*
Y319345D01*
X1645588Y319100D01*
X1645089Y319493D01*
X1644570Y320051D01*
Y321194D01*
X1644075Y322389D01*
X1643161Y323303D01*
X1641967Y323798D01*
X1640674D01*
X1639479Y323303D01*
X1638565Y322389D01*
X1638070Y321194D01*
Y319902D01*
X1638183Y319629D01*
X1637334Y318359D01*
X1634404D01*
X1622915Y329848D01*
X1622158Y330353D01*
X1621266Y330531D01*
X1612478D01*
X1610669Y332340D01*
X1610967Y333838D01*
X1611240Y333951D01*
X1612154Y334865D01*
X1612649Y336059D01*
Y336293D01*
X1616509Y340154D01*
X1617071Y340994D01*
X1617268Y341985D01*
Y361468D01*
X1617433Y361633D01*
X1617928Y362827D01*
Y364120D01*
X1618696Y365298D01*
X1619633Y365383D01*
X1641545Y343471D01*
D02*
G37*
%LPC*%
G36*
X1712352Y570178D02*
X1711060D01*
X1709865Y569683D01*
X1708951Y568769D01*
X1708456Y567575D01*
Y566282D01*
X1708951Y565087D01*
X1709865Y564173D01*
X1711060Y563678D01*
X1712352D01*
X1713547Y564173D01*
X1714461Y565087D01*
X1714956Y566282D01*
Y567575D01*
X1714461Y568769D01*
X1713547Y569683D01*
X1712352Y570178D01*
D02*
G37*
G36*
X1669427Y569924D02*
X1668134D01*
X1666939Y569429D01*
X1666025Y568515D01*
X1665530Y567321D01*
Y566027D01*
X1666025Y564833D01*
X1666939Y563919D01*
X1668134Y563424D01*
X1669427D01*
X1670621Y563919D01*
X1671535Y564833D01*
X1672030Y566027D01*
Y567321D01*
X1671535Y568515D01*
X1670621Y569429D01*
X1669427Y569924D01*
D02*
G37*
G36*
X1543838Y561336D02*
X1542545D01*
X1541350Y560841D01*
X1540720Y560210D01*
X1540089Y560841D01*
X1538895Y561336D01*
X1537601D01*
X1536407Y560841D01*
X1535493Y559927D01*
X1534998Y558732D01*
Y557440D01*
X1535493Y556245D01*
X1536407Y555331D01*
X1537601Y554836D01*
X1538895D01*
X1540089Y555331D01*
X1540720Y555961D01*
X1541350Y555331D01*
X1542545Y554836D01*
X1543838D01*
X1545032Y555331D01*
X1545947Y556245D01*
X1546441Y557440D01*
Y558732D01*
X1545947Y559927D01*
X1545032Y560841D01*
X1543838Y561336D01*
D02*
G37*
G36*
X1763009Y564642D02*
X1762633D01*
Y560197D01*
X1767078D01*
Y560573D01*
X1766305Y562440D01*
X1764876Y563869D01*
X1763009Y564642D01*
D02*
G37*
G36*
X1761363D02*
X1760988D01*
X1759120Y563869D01*
X1757691Y562440D01*
X1756918Y560573D01*
Y560197D01*
X1761363D01*
Y564642D01*
D02*
G37*
G36*
X1767078Y558927D02*
X1762633D01*
Y554482D01*
X1763009D01*
X1764876Y555255D01*
X1766305Y556684D01*
X1767078Y558551D01*
Y558927D01*
D02*
G37*
G36*
X1761363D02*
X1756918D01*
Y558551D01*
X1757691Y556684D01*
X1759120Y555255D01*
X1760988Y554482D01*
X1761363D01*
Y558927D01*
D02*
G37*
G36*
X1644026Y558240D02*
X1642733D01*
X1641539Y557745D01*
X1640625Y556831D01*
X1640130Y555636D01*
Y554343D01*
X1640625Y553149D01*
X1641539Y552235D01*
X1642733Y551740D01*
X1644026D01*
X1645221Y552235D01*
X1646135Y553149D01*
X1646630Y554343D01*
Y555636D01*
X1646135Y556831D01*
X1645221Y557745D01*
X1644026Y558240D01*
D02*
G37*
G36*
X1745627Y553160D02*
X1744333D01*
X1743139Y552665D01*
X1742225Y551751D01*
X1741730Y550556D01*
Y549263D01*
X1742225Y548069D01*
X1743139Y547155D01*
X1744333Y546660D01*
X1745627D01*
X1746821Y547155D01*
X1747735Y548069D01*
X1748230Y549263D01*
Y550556D01*
X1747735Y551751D01*
X1746821Y552665D01*
X1745627Y553160D01*
D02*
G37*
G36*
X1681111Y562744D02*
X1678801D01*
X1676571Y562146D01*
X1674571Y560992D01*
X1672938Y559359D01*
X1671784Y557359D01*
X1671186Y555129D01*
Y552819D01*
X1671784Y550589D01*
X1672938Y548589D01*
X1674571Y546956D01*
X1676571Y545802D01*
X1678801Y545204D01*
X1681111D01*
X1683341Y545802D01*
X1685341Y546956D01*
X1686974Y548589D01*
X1688128Y550589D01*
X1688726Y552819D01*
Y555129D01*
X1688128Y557359D01*
X1686974Y559359D01*
X1685341Y560992D01*
X1683341Y562146D01*
X1681111Y562744D01*
D02*
G37*
G36*
X1631673Y548812D02*
X1630379D01*
X1629185Y548317D01*
X1628271Y547403D01*
X1627776Y546208D01*
Y544916D01*
X1628271Y543721D01*
X1629185Y542807D01*
X1630379Y542312D01*
X1631673D01*
X1632867Y542807D01*
X1633781Y543721D01*
X1634276Y544916D01*
Y546208D01*
X1633781Y547403D01*
X1632867Y548317D01*
X1631673Y548812D01*
D02*
G37*
G36*
X1735576Y547624D02*
X1733555D01*
X1731688Y546851D01*
X1730259Y545422D01*
X1729486Y543554D01*
Y541534D01*
X1730259Y539666D01*
X1731688Y538237D01*
X1731834Y538177D01*
X1732024Y536724D01*
X1731557Y536257D01*
X1731062Y535062D01*
Y533769D01*
X1731557Y532575D01*
X1732471Y531661D01*
X1733665Y531166D01*
X1734958D01*
X1736153Y531661D01*
X1737067Y532575D01*
X1737562Y533769D01*
Y533946D01*
X1739220Y535604D01*
X1739790Y536457D01*
X1739990Y537464D01*
Y538523D01*
X1739790Y539530D01*
X1739220Y540383D01*
X1739184Y540419D01*
X1739646Y541534D01*
Y543554D01*
X1738873Y545422D01*
X1737444Y546851D01*
X1735576Y547624D01*
D02*
G37*
G36*
X1531505Y540206D02*
X1530211D01*
X1529017Y539711D01*
X1528103Y538797D01*
X1527608Y537603D01*
Y536310D01*
X1528103Y535115D01*
X1529017Y534201D01*
X1529598Y533960D01*
Y532586D01*
X1529017Y532345D01*
X1528103Y531431D01*
X1527608Y530237D01*
Y528943D01*
X1528103Y527749D01*
X1529017Y526835D01*
X1530211Y526340D01*
X1531505D01*
X1532699Y526835D01*
X1533613Y527749D01*
X1534058Y528822D01*
X1534784Y529896D01*
X1536077D01*
X1537271Y530391D01*
X1538185Y531305D01*
X1538680Y532500D01*
Y533792D01*
X1538185Y534987D01*
X1537271Y535901D01*
X1536077Y536396D01*
X1534784D01*
X1534108Y537491D01*
Y537603D01*
X1533613Y538797D01*
X1532699Y539711D01*
X1531505Y540206D01*
D02*
G37*
G36*
X1631944Y530606D02*
X1631569D01*
Y526161D01*
X1636014D01*
Y526536D01*
X1635241Y528404D01*
X1633812Y529833D01*
X1631944Y530606D01*
D02*
G37*
G36*
X1630299D02*
X1629924D01*
X1628056Y529833D01*
X1626627Y528404D01*
X1625854Y526536D01*
Y526161D01*
X1630299D01*
Y530606D01*
D02*
G37*
G36*
X1636014Y524891D02*
X1631569D01*
Y520446D01*
X1631944D01*
X1633812Y521219D01*
X1635241Y522648D01*
X1636014Y524515D01*
Y524891D01*
D02*
G37*
G36*
X1630299D02*
X1625854D01*
Y524515D01*
X1626627Y522648D01*
X1628056Y521219D01*
X1629924Y520446D01*
X1630299D01*
Y524891D01*
D02*
G37*
G36*
X1679895Y523998D02*
X1678602D01*
X1677407Y523503D01*
X1676493Y522589D01*
X1675998Y521395D01*
Y520102D01*
X1676493Y518907D01*
X1677407Y517993D01*
X1678602Y517498D01*
X1679895D01*
X1681089Y517993D01*
X1682003Y518907D01*
X1682498Y520102D01*
Y521395D01*
X1682003Y522589D01*
X1681089Y523503D01*
X1679895Y523998D01*
D02*
G37*
G36*
X1711447Y543560D02*
X1709426D01*
X1707558Y542787D01*
X1706129Y541358D01*
X1705356Y539491D01*
Y537469D01*
X1706129Y535602D01*
X1707558Y534173D01*
X1709426Y533400D01*
X1711447D01*
X1712400Y533795D01*
X1713390Y532995D01*
Y532645D01*
X1713885Y531451D01*
X1714799Y530537D01*
X1715993Y530042D01*
X1716594D01*
X1729203Y517433D01*
X1728484Y516356D01*
X1727195Y516890D01*
X1725173D01*
X1723306Y516117D01*
X1721877Y514688D01*
X1721104Y512821D01*
Y510799D01*
X1721877Y508932D01*
X1723306Y507503D01*
X1723554Y507401D01*
Y505223D01*
X1722870Y504940D01*
X1721956Y504026D01*
X1721461Y502831D01*
Y501538D01*
X1721956Y500344D01*
X1722870Y499430D01*
X1724064Y498935D01*
X1725358D01*
X1726552Y499430D01*
X1727466Y500344D01*
X1727961Y501538D01*
Y501715D01*
X1728044Y501798D01*
X1728614Y502651D01*
X1728814Y503658D01*
Y507401D01*
X1729062Y507503D01*
X1730491Y508932D01*
X1731264Y510799D01*
Y512821D01*
X1730730Y514110D01*
X1731807Y514829D01*
X1749084Y497551D01*
X1749841Y497046D01*
X1750124Y496990D01*
X1750759Y496355D01*
X1751953Y495860D01*
X1753246D01*
X1754441Y496355D01*
X1755355Y497269D01*
X1755850Y498464D01*
Y499757D01*
X1755355Y500951D01*
X1754441Y501865D01*
X1753246Y502360D01*
X1751953D01*
X1751186Y502042D01*
X1719890Y533338D01*
Y533938D01*
X1719395Y535133D01*
X1718481Y536047D01*
X1717287Y536542D01*
X1716560D01*
X1715516Y537586D01*
Y539491D01*
X1714743Y541358D01*
X1713314Y542787D01*
X1711447Y543560D01*
D02*
G37*
G36*
X1703318Y529082D02*
X1701297D01*
X1699430Y528309D01*
X1698001Y526880D01*
X1697228Y525013D01*
Y522991D01*
X1698001Y521124D01*
X1699430Y519695D01*
X1699678Y519593D01*
Y516642D01*
X1699312Y515759D01*
Y514465D01*
X1699807Y513271D01*
X1700721Y512357D01*
X1701915Y511862D01*
X1703208D01*
X1704403Y512357D01*
X1705317Y513271D01*
X1705812Y514465D01*
Y515759D01*
X1705317Y516953D01*
X1704938Y517332D01*
Y519593D01*
X1705186Y519695D01*
X1706615Y521124D01*
X1707388Y522991D01*
Y525013D01*
X1706615Y526880D01*
X1705186Y528309D01*
X1703318Y529082D01*
D02*
G37*
G36*
X1679538Y514016D02*
X1678245D01*
X1677051Y513521D01*
X1676137Y512607D01*
X1675642Y511413D01*
Y510120D01*
X1676137Y508925D01*
X1677051Y508011D01*
X1678245Y507516D01*
X1679538D01*
X1680733Y508011D01*
X1681647Y508925D01*
X1682142Y510120D01*
Y511413D01*
X1681647Y512607D01*
X1680733Y513521D01*
X1679538Y514016D01*
D02*
G37*
G36*
X1716019Y525780D02*
X1713997D01*
X1712130Y525007D01*
X1710701Y523578D01*
X1709928Y521711D01*
Y519689D01*
X1710701Y517822D01*
X1712130Y516393D01*
X1712632Y516186D01*
Y511998D01*
X1712507Y511873D01*
X1712012Y510678D01*
Y509385D01*
X1712507Y508191D01*
X1713421Y507277D01*
X1714615Y506782D01*
X1715909D01*
X1717103Y507277D01*
X1718017Y508191D01*
X1718512Y509385D01*
Y510678D01*
X1718017Y511873D01*
X1717892Y511998D01*
Y516400D01*
X1719315Y517822D01*
X1720088Y519689D01*
Y521711D01*
X1719315Y523578D01*
X1717886Y525007D01*
X1716019Y525780D01*
D02*
G37*
G36*
X1679895Y503932D02*
X1678602D01*
X1677407Y503437D01*
X1676493Y502523D01*
X1675998Y501329D01*
Y500036D01*
X1676493Y498841D01*
X1677407Y497927D01*
X1678602Y497432D01*
X1679895D01*
X1681089Y497927D01*
X1682003Y498841D01*
X1682498Y500036D01*
Y501329D01*
X1682003Y502523D01*
X1681089Y503437D01*
X1679895Y503932D01*
D02*
G37*
G36*
X1708398Y509270D02*
X1706378D01*
X1704510Y508497D01*
X1703081Y507068D01*
X1702308Y505201D01*
Y503180D01*
X1703081Y501312D01*
X1704510Y499883D01*
X1706378Y499110D01*
X1708398D01*
X1709603Y499609D01*
X1710437Y498774D01*
X1711291Y498204D01*
X1712276Y498008D01*
X1712405Y497879D01*
X1713600Y497384D01*
X1714892D01*
X1716087Y497879D01*
X1717001Y498793D01*
X1717496Y499987D01*
Y501281D01*
X1717001Y502475D01*
X1716087Y503389D01*
X1714892Y503884D01*
X1713600D01*
X1712468Y504757D01*
Y505201D01*
X1711695Y507068D01*
X1710266Y508497D01*
X1708398Y509270D01*
D02*
G37*
G36*
X1679895Y494026D02*
X1678602D01*
X1677407Y493531D01*
X1676493Y492617D01*
X1675998Y491423D01*
Y490130D01*
X1676493Y488935D01*
X1677407Y488021D01*
X1678602Y487526D01*
X1679895D01*
X1681089Y488021D01*
X1682003Y488935D01*
X1682498Y490130D01*
Y491423D01*
X1682003Y492617D01*
X1681089Y493531D01*
X1679895Y494026D01*
D02*
G37*
G36*
X1517535Y502292D02*
X1515225D01*
X1512995Y501694D01*
X1510995Y500540D01*
X1509362Y498907D01*
X1508208Y496907D01*
X1507610Y494677D01*
Y492367D01*
X1508208Y490137D01*
X1509362Y488137D01*
X1510995Y486504D01*
X1512995Y485350D01*
X1515225Y484752D01*
X1517535D01*
X1519765Y485350D01*
X1521765Y486504D01*
X1523398Y488137D01*
X1524552Y490137D01*
X1525150Y492367D01*
Y494677D01*
X1524552Y496907D01*
X1523398Y498907D01*
X1521765Y500540D01*
X1519765Y501694D01*
X1517535Y502292D01*
D02*
G37*
G36*
X1760977Y488188D02*
X1760601D01*
Y483743D01*
X1765046D01*
Y484118D01*
X1764273Y485986D01*
X1762844Y487415D01*
X1760977Y488188D01*
D02*
G37*
G36*
X1759331D02*
X1758956D01*
X1757088Y487415D01*
X1755659Y485986D01*
X1754886Y484118D01*
Y483743D01*
X1759331D01*
Y488188D01*
D02*
G37*
G36*
X1765046Y482473D02*
X1760601D01*
Y478028D01*
X1760977D01*
X1762844Y478801D01*
X1764273Y480230D01*
X1765046Y482098D01*
Y482473D01*
D02*
G37*
G36*
X1759331D02*
X1754886D01*
Y482098D01*
X1755659Y480230D01*
X1757088Y478801D01*
X1758956Y478028D01*
X1759331D01*
Y482473D01*
D02*
G37*
G36*
X1679895Y484120D02*
X1678602D01*
X1677407Y483625D01*
X1676493Y482711D01*
X1675998Y481516D01*
Y480224D01*
X1676493Y479029D01*
X1677407Y478115D01*
X1678602Y477620D01*
X1679895D01*
X1681089Y478115D01*
X1682003Y479029D01*
X1682498Y480224D01*
Y481516D01*
X1682003Y482711D01*
X1681089Y483625D01*
X1679895Y484120D01*
D02*
G37*
G36*
X1759850Y453592D02*
X1758557D01*
X1757363Y453097D01*
X1756449Y452183D01*
X1755954Y450989D01*
Y449696D01*
X1756449Y448501D01*
X1757363Y447587D01*
X1758557Y447092D01*
X1759850D01*
X1761045Y447587D01*
X1761959Y448501D01*
X1762454Y449696D01*
Y450989D01*
X1761959Y452183D01*
X1761045Y453097D01*
X1759850Y453592D01*
D02*
G37*
G36*
X1525243Y444550D02*
X1523057D01*
X1520946Y443984D01*
X1519054Y442892D01*
X1517508Y441346D01*
X1516416Y439454D01*
X1515850Y437343D01*
Y435157D01*
X1516416Y433046D01*
X1517508Y431154D01*
X1519054Y429608D01*
X1520946Y428516D01*
X1523057Y427950D01*
X1525243D01*
X1527354Y428516D01*
X1529246Y429608D01*
X1530792Y431154D01*
X1531884Y433046D01*
X1532450Y435157D01*
Y437343D01*
X1531884Y439454D01*
X1530792Y441346D01*
X1529246Y442892D01*
X1527354Y443984D01*
X1525243Y444550D01*
D02*
G37*
G36*
X1503541Y429520D02*
X1503285D01*
Y423385D01*
X1509420D01*
Y423641D01*
X1508959Y425363D01*
X1508067Y426907D01*
X1506807Y428167D01*
X1505263Y429059D01*
X1503541Y429520D01*
D02*
G37*
G36*
X1502015D02*
X1501759D01*
X1500037Y429059D01*
X1498493Y428167D01*
X1497233Y426907D01*
X1496341Y425363D01*
X1495880Y423641D01*
Y423385D01*
X1502015D01*
Y429520D01*
D02*
G37*
G36*
X1546541D02*
X1546285D01*
Y423385D01*
X1552420D01*
Y423641D01*
X1551959Y425363D01*
X1551067Y426907D01*
X1549807Y428167D01*
X1548263Y429059D01*
X1546541Y429520D01*
D02*
G37*
G36*
X1545015D02*
X1544759D01*
X1543037Y429059D01*
X1541493Y428167D01*
X1540233Y426907D01*
X1539341Y425363D01*
X1538880Y423641D01*
Y423385D01*
X1545015D01*
Y429520D01*
D02*
G37*
G36*
X1533509Y421399D02*
X1532216D01*
X1531021Y420904D01*
X1530322Y420205D01*
X1529623Y420904D01*
X1528429Y421399D01*
X1527136D01*
X1525941Y420904D01*
X1525027Y419990D01*
X1524607Y418976D01*
X1524262Y418924D01*
X1523683D01*
X1523337Y418976D01*
X1522917Y419990D01*
X1522003Y420904D01*
X1520809Y421399D01*
X1519516D01*
X1518321Y420904D01*
X1517622Y420205D01*
X1516923Y420904D01*
X1515729Y421399D01*
X1514436D01*
X1513241Y420904D01*
X1512327Y419990D01*
X1511832Y418795D01*
Y417502D01*
X1512327Y416308D01*
X1513241Y415393D01*
X1514436Y414899D01*
X1515729D01*
X1516923Y415393D01*
X1517622Y416092D01*
X1518321Y415393D01*
X1519516Y414899D01*
X1520809D01*
X1522003Y415393D01*
X1522917Y416308D01*
X1523337Y417321D01*
X1523683Y417374D01*
X1524262D01*
X1524607Y417321D01*
X1525027Y416308D01*
X1525941Y415393D01*
X1527136Y414899D01*
X1528429D01*
X1529623Y415393D01*
X1530322Y416092D01*
X1531021Y415393D01*
X1532216Y414899D01*
X1533509D01*
X1534703Y415393D01*
X1535618Y416308D01*
X1536112Y417502D01*
Y418795D01*
X1535618Y419990D01*
X1534703Y420904D01*
X1533509Y421399D01*
D02*
G37*
G36*
X1552420Y422115D02*
X1546285D01*
Y415980D01*
X1546541D01*
X1548263Y416441D01*
X1549807Y417333D01*
X1551067Y418593D01*
X1551959Y420137D01*
X1552420Y421859D01*
Y422115D01*
D02*
G37*
G36*
X1545015D02*
X1538880D01*
Y421859D01*
X1539341Y420137D01*
X1540233Y418593D01*
X1541493Y417333D01*
X1543037Y416441D01*
X1544759Y415980D01*
X1545015D01*
Y422115D01*
D02*
G37*
G36*
X1509420Y422115D02*
X1502650D01*
X1495880D01*
Y421859D01*
X1496341Y420137D01*
X1497233Y418593D01*
X1498493Y417333D01*
X1499546Y416725D01*
X1499631Y415484D01*
X1499497Y415363D01*
X1498465Y414941D01*
X1498155Y415251D01*
X1496960Y415746D01*
X1495668D01*
X1494473Y415251D01*
X1493559Y414337D01*
X1493064Y413143D01*
Y411850D01*
X1493559Y410655D01*
X1493809Y410405D01*
X1494362Y409575D01*
X1493809Y408745D01*
X1493559Y408495D01*
X1493064Y407300D01*
Y406007D01*
X1493559Y404813D01*
X1494473Y403899D01*
X1495668Y403404D01*
X1496960D01*
X1498155Y403899D01*
X1498854Y404598D01*
X1499553Y403899D01*
X1500748Y403404D01*
X1501286D01*
X1502147Y402178D01*
X1501954Y401712D01*
Y400420D01*
X1502449Y399225D01*
X1503363Y398311D01*
X1504557Y397816D01*
X1505851D01*
X1507045Y398311D01*
X1507279Y398545D01*
X1537688D01*
X1540562Y395671D01*
Y395340D01*
X1541057Y394145D01*
X1541971Y393231D01*
X1542266Y393109D01*
X1541832Y392061D01*
Y390854D01*
X1541642D01*
X1540447Y390359D01*
X1539533Y389445D01*
X1539038Y388251D01*
Y386958D01*
X1539533Y385763D01*
X1540447Y384849D01*
X1541642Y384354D01*
X1542935D01*
X1544129Y384849D01*
X1544506Y385226D01*
X1545336Y385623D01*
X1546166Y385226D01*
X1546543Y384849D01*
X1547737Y384354D01*
X1549030D01*
X1550225Y384849D01*
X1551139Y385763D01*
X1551634Y386958D01*
Y387910D01*
X1552841D01*
X1554035Y388405D01*
X1554949Y389319D01*
X1555444Y390513D01*
Y391806D01*
X1554949Y393001D01*
X1554035Y393915D01*
X1552841Y394410D01*
X1551548D01*
X1550353Y393915D01*
X1549439Y393001D01*
X1549378Y392854D01*
X1548003D01*
X1547837Y393255D01*
X1546923Y394169D01*
X1546628Y394291D01*
X1547062Y395340D01*
Y396632D01*
X1546567Y397827D01*
X1545653Y398741D01*
X1544458Y399236D01*
X1544127D01*
X1540515Y402849D01*
X1539697Y403395D01*
X1538732Y403587D01*
X1507279D01*
X1507045Y403821D01*
X1505851Y404316D01*
X1505311D01*
X1504451Y405542D01*
X1504644Y406007D01*
Y407300D01*
X1504149Y408495D01*
X1503899Y408745D01*
X1503346Y409575D01*
X1503899Y410405D01*
X1504149Y410655D01*
X1504644Y411850D01*
Y413143D01*
X1504149Y414337D01*
X1503712Y414774D01*
X1504141Y416141D01*
X1505263Y416441D01*
X1506807Y417333D01*
X1508067Y418593D01*
X1508959Y420137D01*
X1509420Y421859D01*
Y422115D01*
D02*
G37*
G36*
X1502294Y395934D02*
X1501001D01*
X1499807Y395439D01*
X1499108Y394740D01*
X1498409Y395439D01*
X1497215Y395934D01*
X1495921D01*
X1494727Y395439D01*
X1493813Y394525D01*
X1493318Y393330D01*
Y392038D01*
X1493813Y390843D01*
X1494063Y390593D01*
X1494616Y389763D01*
X1494063Y388933D01*
X1493813Y388683D01*
X1493318Y387489D01*
Y386195D01*
X1493813Y385001D01*
X1494727Y384087D01*
X1495921Y383592D01*
X1497215D01*
X1498409Y384087D01*
X1499108Y384786D01*
X1499807Y384087D01*
X1501001Y383592D01*
X1502294D01*
X1503489Y384087D01*
X1504403Y385001D01*
X1504898Y386195D01*
Y387489D01*
X1504403Y388683D01*
X1504153Y388933D01*
X1503600Y389763D01*
X1504153Y390593D01*
X1504403Y390843D01*
X1504898Y392038D01*
Y393330D01*
X1504403Y394525D01*
X1503489Y395439D01*
X1502294Y395934D01*
D02*
G37*
G36*
X1613546Y407110D02*
X1612254D01*
X1611059Y406615D01*
X1610145Y405701D01*
X1609650Y404506D01*
Y403379D01*
X1609407Y402986D01*
X1608660Y402284D01*
X1607681D01*
X1606487Y401789D01*
X1605573Y400875D01*
X1605078Y399680D01*
Y398387D01*
X1605573Y397193D01*
X1606487Y396279D01*
X1607681Y395784D01*
X1608974D01*
X1609821Y394760D01*
X1609650Y394347D01*
Y393054D01*
X1610145Y391859D01*
X1611059Y390945D01*
X1612254Y390450D01*
X1613546D01*
X1614741Y390945D01*
X1615655Y391859D01*
X1616150Y393054D01*
Y394347D01*
X1615655Y395541D01*
X1614741Y396455D01*
X1613546Y396950D01*
X1612254D01*
X1611407Y397974D01*
X1611578Y398387D01*
Y399515D01*
X1611821Y399908D01*
X1612568Y400610D01*
X1613546D01*
X1614741Y401105D01*
X1615655Y402019D01*
X1616150Y403214D01*
Y404506D01*
X1615655Y405701D01*
X1614741Y406615D01*
X1613546Y407110D01*
D02*
G37*
G36*
X1566048Y386282D02*
X1564756D01*
X1563561Y385787D01*
X1562647Y384873D01*
X1562152Y383679D01*
Y382385D01*
X1562647Y381191D01*
X1563561Y380277D01*
X1564756Y379782D01*
X1566048D01*
X1567243Y380277D01*
X1568157Y381191D01*
X1568652Y382385D01*
Y383679D01*
X1568157Y384873D01*
X1567243Y385787D01*
X1566048Y386282D01*
D02*
G37*
G36*
X1503541Y381520D02*
X1503285D01*
Y375385D01*
X1509420D01*
Y375641D01*
X1508959Y377363D01*
X1508067Y378907D01*
X1506807Y380167D01*
X1505263Y381059D01*
X1503541Y381520D01*
D02*
G37*
G36*
X1502015D02*
X1501759D01*
X1500037Y381059D01*
X1498493Y380167D01*
X1497233Y378907D01*
X1496341Y377363D01*
X1495880Y375641D01*
Y375385D01*
X1502015D01*
Y381520D01*
D02*
G37*
G36*
X1546541D02*
X1546285D01*
Y375385D01*
X1552420D01*
Y375641D01*
X1551959Y377363D01*
X1551067Y378907D01*
X1549807Y380167D01*
X1548263Y381059D01*
X1546541Y381520D01*
D02*
G37*
G36*
X1545015D02*
X1544759D01*
X1543037Y381059D01*
X1541493Y380167D01*
X1540233Y378907D01*
X1539341Y377363D01*
X1538880Y375641D01*
Y375385D01*
X1545015D01*
Y381520D01*
D02*
G37*
G36*
X1557666Y382218D02*
X1556373D01*
X1555179Y381723D01*
X1554265Y380809D01*
X1553770Y379614D01*
Y378321D01*
X1554265Y377127D01*
X1555179Y376213D01*
X1555453Y376099D01*
Y374725D01*
X1555179Y374611D01*
X1554265Y373697D01*
X1553770Y372503D01*
Y371209D01*
X1554265Y370015D01*
X1555179Y369101D01*
X1556373Y368606D01*
X1557666D01*
X1558861Y369101D01*
X1559775Y370015D01*
X1560270Y371209D01*
Y372503D01*
X1559775Y373697D01*
X1558861Y374611D01*
X1558587Y374725D01*
Y376099D01*
X1558861Y376213D01*
X1559775Y377127D01*
X1560270Y378321D01*
Y379614D01*
X1559775Y380809D01*
X1558861Y381723D01*
X1557666Y382218D01*
D02*
G37*
G36*
X1552420Y374115D02*
X1546285D01*
Y367980D01*
X1546541D01*
X1548263Y368441D01*
X1549807Y369333D01*
X1551067Y370593D01*
X1551959Y372137D01*
X1552420Y373859D01*
Y374115D01*
D02*
G37*
G36*
X1545015D02*
X1538880D01*
Y373859D01*
X1539341Y372137D01*
X1540233Y370593D01*
X1541493Y369333D01*
X1543037Y368441D01*
X1544759Y367980D01*
X1545015D01*
Y374115D01*
D02*
G37*
G36*
X1509420Y374115D02*
X1503285D01*
Y367980D01*
X1503541D01*
X1505263Y368441D01*
X1506807Y369333D01*
X1508067Y370593D01*
X1508959Y372137D01*
X1509420Y373859D01*
Y374115D01*
D02*
G37*
G36*
X1502015D02*
X1495880D01*
Y373859D01*
X1496341Y372137D01*
X1497233Y370593D01*
X1498493Y369333D01*
X1500037Y368441D01*
X1501759Y367980D01*
X1502015D01*
Y374115D01*
D02*
G37*
G36*
X1525294Y367000D02*
X1523006D01*
X1520893Y366125D01*
X1519275Y364507D01*
X1518400Y362394D01*
Y360106D01*
X1519275Y357993D01*
X1520893Y356375D01*
X1523006Y355500D01*
X1525294D01*
X1527407Y356375D01*
X1529025Y357993D01*
X1529900Y360106D01*
Y362394D01*
X1529025Y364507D01*
X1527407Y366125D01*
X1525294Y367000D01*
D02*
G37*
G36*
X1591703Y339800D02*
X1590410D01*
X1589215Y339305D01*
X1588301Y338391D01*
X1587806Y337197D01*
Y335904D01*
X1588301Y334709D01*
X1588492Y334518D01*
X1588301Y334327D01*
X1587806Y333133D01*
Y331839D01*
X1588301Y330645D01*
X1588619Y330327D01*
X1588301Y330009D01*
X1587806Y328815D01*
Y327522D01*
X1588301Y326327D01*
X1588720Y325908D01*
Y321672D01*
X1588432Y321553D01*
X1587003Y320124D01*
X1586230Y318256D01*
Y316236D01*
X1587003Y314368D01*
X1588432Y312939D01*
X1590300Y312166D01*
X1592321D01*
X1594188Y312939D01*
X1595617Y314368D01*
X1596390Y316236D01*
Y318256D01*
X1595617Y320124D01*
X1594188Y321553D01*
X1593900Y321672D01*
Y326541D01*
X1594306Y327522D01*
Y328815D01*
X1593811Y330009D01*
X1593493Y330327D01*
X1593811Y330645D01*
X1594306Y331839D01*
Y333133D01*
X1593811Y334327D01*
X1593620Y334518D01*
X1593811Y334709D01*
X1594306Y335904D01*
Y337197D01*
X1593811Y338391D01*
X1592897Y339305D01*
X1591703Y339800D01*
D02*
G37*
G36*
X1612164Y308916D02*
X1610871D01*
X1609677Y308421D01*
X1608763Y307507D01*
X1608268Y306312D01*
Y306203D01*
X1607352Y305002D01*
X1607095Y304896D01*
X1606157Y304507D01*
X1605243Y303593D01*
X1604748Y302398D01*
Y301105D01*
X1605243Y299911D01*
X1606157Y298997D01*
X1607352Y298502D01*
X1608645D01*
X1609839Y298997D01*
X1610753Y299911D01*
X1611248Y301105D01*
Y301215D01*
X1612164Y302416D01*
X1612421Y302522D01*
X1613359Y302911D01*
X1614273Y303825D01*
X1614768Y305019D01*
Y306312D01*
X1614273Y307507D01*
X1613359Y308421D01*
X1612164Y308916D01*
D02*
G37*
G36*
X1619332Y303732D02*
X1618040D01*
X1616845Y303237D01*
X1615931Y302323D01*
X1615436Y301129D01*
Y299835D01*
X1615931Y298641D01*
X1616845Y297727D01*
X1618040Y297232D01*
X1619332D01*
X1620527Y297727D01*
X1621441Y298641D01*
X1621936Y299835D01*
Y301129D01*
X1621441Y302323D01*
X1620527Y303237D01*
X1619332Y303732D01*
D02*
G37*
G36*
X1599686Y295910D02*
X1599311D01*
Y291465D01*
X1603756D01*
Y291840D01*
X1602983Y293708D01*
X1601554Y295137D01*
X1599686Y295910D01*
D02*
G37*
G36*
X1598041D02*
X1597666D01*
X1595798Y295137D01*
X1594369Y293708D01*
X1593596Y291840D01*
Y291465D01*
X1598041D01*
Y295910D01*
D02*
G37*
G36*
X1634738Y296672D02*
X1632717D01*
X1630850Y295899D01*
X1629421Y294470D01*
X1628669Y292653D01*
X1627925Y291909D01*
X1627505Y290896D01*
X1627159Y290843D01*
X1626581D01*
X1626235Y290896D01*
X1625815Y291909D01*
X1624901Y292823D01*
X1623707Y293318D01*
X1622413D01*
X1621219Y292823D01*
X1620305Y291909D01*
X1619810Y290714D01*
Y289422D01*
X1620305Y288227D01*
X1621219Y287313D01*
X1622413Y286818D01*
X1623707D01*
X1624901Y287313D01*
X1625815Y288227D01*
X1626235Y289240D01*
X1626581Y289293D01*
X1627159D01*
X1627505Y289240D01*
X1627925Y288227D01*
X1628839Y287313D01*
X1630034Y286818D01*
X1631326D01*
X1631653Y286953D01*
X1632717Y286512D01*
X1634738D01*
X1636606Y287285D01*
X1638035Y288714D01*
X1638808Y290581D01*
Y292603D01*
X1638035Y294470D01*
X1636606Y295899D01*
X1634738Y296672D01*
D02*
G37*
G36*
X1615833Y293318D02*
X1614539D01*
X1613345Y292823D01*
X1612431Y291909D01*
X1611936Y290714D01*
Y289422D01*
X1612431Y288227D01*
X1613345Y287313D01*
X1614539Y286818D01*
X1615833D01*
X1617027Y287313D01*
X1617941Y288227D01*
X1618436Y289422D01*
Y290714D01*
X1617941Y291909D01*
X1617027Y292823D01*
X1615833Y293318D01*
D02*
G37*
G36*
X1603756Y290195D02*
X1599311D01*
Y285750D01*
X1599686D01*
X1601554Y286523D01*
X1602983Y287952D01*
X1603756Y289820D01*
Y290195D01*
D02*
G37*
G36*
X1598041D02*
X1593596D01*
Y289820D01*
X1594369Y287952D01*
X1595798Y286523D01*
X1597666Y285750D01*
X1598041D01*
Y290195D01*
D02*
G37*
G36*
X1652917Y299414D02*
X1651624D01*
X1650429Y298919D01*
X1649515Y298005D01*
X1649020Y296810D01*
Y295518D01*
X1649515Y294323D01*
X1649680Y294158D01*
Y292716D01*
X1649392Y292597D01*
X1647963Y291168D01*
X1647190Y289300D01*
Y287279D01*
X1647963Y285412D01*
X1649392Y283983D01*
X1651259Y283210D01*
X1653280D01*
X1655148Y283983D01*
X1656577Y285412D01*
X1657350Y287279D01*
Y289300D01*
X1656577Y291168D01*
X1655148Y292597D01*
X1654860Y292716D01*
Y294158D01*
X1655025Y294323D01*
X1655520Y295518D01*
Y296810D01*
X1655025Y298005D01*
X1654111Y298919D01*
X1652917Y299414D01*
D02*
G37*
G36*
X1646522Y276756D02*
X1644810D01*
X1643157Y276313D01*
X1641675Y275457D01*
X1640465Y274247D01*
X1639609Y272765D01*
X1639166Y271112D01*
Y269400D01*
X1639609Y267747D01*
X1640465Y266265D01*
X1641675Y265055D01*
X1643157Y264199D01*
X1644810Y263756D01*
X1646522D01*
X1648175Y264199D01*
X1649657Y265055D01*
X1650867Y266265D01*
X1651723Y267747D01*
X1652166Y269400D01*
Y271112D01*
X1651723Y272765D01*
X1650867Y274247D01*
X1649657Y275457D01*
X1648175Y276313D01*
X1646522Y276756D01*
D02*
G37*
G36*
X1616522D02*
X1614810D01*
X1613157Y276313D01*
X1611675Y275457D01*
X1610465Y274247D01*
X1609609Y272765D01*
X1609166Y271112D01*
Y269400D01*
X1609609Y267747D01*
X1610465Y266265D01*
X1611675Y265055D01*
X1613157Y264199D01*
X1614810Y263756D01*
X1616522D01*
X1618175Y264199D01*
X1619657Y265055D01*
X1620867Y266265D01*
X1621723Y267747D01*
X1622166Y269400D01*
Y271112D01*
X1621723Y272765D01*
X1620867Y274247D01*
X1619657Y275457D01*
X1618175Y276313D01*
X1616522Y276756D01*
D02*
G37*
G36*
X1768646Y393750D02*
X1767354D01*
X1766159Y393255D01*
X1765245Y392341D01*
X1764750Y391147D01*
Y389854D01*
X1765245Y388659D01*
X1766159Y387745D01*
X1767354Y387250D01*
X1768646D01*
X1769841Y387745D01*
X1770755Y388659D01*
X1771250Y389854D01*
Y391147D01*
X1770755Y392341D01*
X1769841Y393255D01*
X1768646Y393750D01*
D02*
G37*
%LPD*%
D59*
X1746250Y470916D02*
D03*
X1689608Y428752D02*
D03*
X1724861Y472514D02*
D03*
X1758950Y471170D02*
D03*
X1714246Y476885D02*
D03*
X1633728Y291592D02*
D03*
X1598676Y290830D02*
D03*
X1611630Y437896D02*
D03*
X1761998Y559562D02*
D03*
X1591310Y465074D02*
D03*
X1606030Y448818D02*
D03*
X1597914Y379984D02*
D03*
X1591310Y317246D02*
D03*
X1759966Y483108D02*
D03*
X1652270Y288290D02*
D03*
X1690370Y332232D02*
D03*
X1771142Y473964D02*
D03*
X1573276Y462534D02*
D03*
X1665224Y360172D02*
D03*
X1651254Y320040D02*
D03*
X1702308Y524002D02*
D03*
X1734566Y542544D02*
D03*
X1726184Y511810D02*
D03*
X1735074Y499872D02*
D03*
X1715008Y520700D02*
D03*
X1710436Y538480D02*
D03*
X1707388Y504190D02*
D03*
X1747012Y484632D02*
D03*
X1630934Y525526D02*
D03*
D60*
X1709166Y293307D02*
G03*
X1709660Y294121I-9652J6413D01*
G01*
Y305319D02*
G03*
X1709166Y306133I-10146J-5598D01*
G01*
X1711005Y298223D02*
G03*
X1711005Y301217I-11491J1497D01*
G01*
X1705793Y294314D02*
G03*
X1705864Y305043I-6279J5406D01*
G01*
X1689354Y359785D02*
Y363321D01*
X1685868Y366807D02*
X1689354Y363321D01*
Y359785D02*
X1694434Y354705D01*
X1715262Y474357D02*
Y475869D01*
X1713902Y468212D02*
X1713992Y468122D01*
X1718258Y468809D02*
X1719834Y467233D01*
X1715262Y474357D02*
X1718258Y471361D01*
X1713902Y468212D02*
Y468415D01*
X1718258Y468809D02*
Y471361D01*
X1719834Y467106D02*
Y467233D01*
X1710139Y464332D02*
X1710285D01*
X1707885Y462078D02*
X1710139Y464332D01*
X1710519Y464566D02*
X1710646D01*
X1710285Y464332D02*
X1710519Y464566D01*
X1699842Y475956D02*
X1706361D01*
X1713902Y468415D01*
X1703376Y462078D02*
X1707885D01*
X1699799Y486283D02*
X1724382D01*
X1734312Y476353D01*
X1701167Y482981D02*
X1723015D01*
X1730957Y475039D01*
X1581912Y458993D02*
Y484886D01*
X1584960Y487934D01*
X1631442Y508508D02*
X1631950Y508000D01*
X1631442Y508508D02*
Y525018D01*
X1630934Y525526D02*
X1631442Y525018D01*
X1716640Y533292D02*
X1750733Y499199D01*
X1752511D02*
X1752600Y499110D01*
X1750733Y499199D02*
X1752511D01*
X1638352Y446734D02*
X1647941D01*
X1633538Y456863D02*
X1640365Y450036D01*
X1628406Y456863D02*
X1633538D01*
X1632489Y452597D02*
X1638352Y446734D01*
X1624553Y452597D02*
X1632489D01*
X1693926Y452628D02*
X1703376Y462078D01*
X1640365Y450036D02*
X1649309D01*
X1643096Y453338D02*
X1650677D01*
X1638386Y458048D02*
X1643096Y453338D01*
X1610005Y452793D02*
X1612417D01*
X1606030Y448818D02*
X1610005Y452793D01*
X1713602Y401146D02*
X1714792Y402336D01*
X1705102Y374035D02*
X1713602Y382535D01*
X1714792Y402336D02*
X1752092D01*
X1705102Y353135D02*
Y374035D01*
X1713602Y382535D02*
Y401146D01*
X1705102Y353135D02*
X1706320Y351917D01*
Y351790D02*
Y351917D01*
X1685868Y366807D02*
Y370465D01*
X1686000Y370597D01*
Y380948D01*
X1689354Y384302D01*
X1694400Y365842D02*
Y371027D01*
X1693776Y365218D02*
X1694400Y365842D01*
X1693176Y372251D02*
Y372378D01*
Y372251D02*
X1694400Y371027D01*
X1671210Y335586D02*
X1675078Y339454D01*
X1669737Y339142D02*
X1671776Y341181D01*
X1670812Y384801D02*
X1677933Y391922D01*
X1677416Y359657D02*
X1702015Y335058D01*
X1665224Y360172D02*
X1670812D01*
Y351159D02*
X1671776Y350195D01*
X1677416Y379984D02*
X1682237Y384805D01*
X1674114Y358289D02*
Y383074D01*
X1677416Y359657D02*
Y379984D01*
X1674114Y358289D02*
X1675078Y357326D01*
X1671776Y341181D02*
Y350195D01*
X1674114Y383074D02*
X1679660Y388620D01*
X1670812Y351159D02*
Y360172D01*
X1675078Y339454D02*
Y357326D01*
X1670812Y360172D02*
Y384801D01*
X1693776Y360033D02*
X1697736Y356073D01*
X1693776Y360033D02*
Y365218D01*
X1605133Y334580D02*
X1611512Y328200D01*
X1605482Y340274D02*
Y345620D01*
X1605133Y339925D02*
X1605482Y340274D01*
X1605133Y334580D02*
Y339925D01*
X1605482Y345620D02*
X1609852Y349990D01*
X1620102Y368210D02*
X1652977Y335335D01*
X1614767Y368210D02*
X1620102D01*
X1652977Y335335D02*
X1661260D01*
X1710436Y538480D02*
X1711325D01*
X1716513Y533292D01*
X1716640D01*
X1574345Y457025D02*
X1575562Y455809D01*
Y455682D02*
Y455809D01*
X1573276Y462534D02*
X1574345Y461465D01*
Y457025D02*
Y461465D01*
X1680411Y426371D02*
X1680537D01*
X1689440Y428584D02*
X1689608Y428752D01*
X1682750Y428584D02*
X1689440D01*
X1680537Y426371D02*
X1682750Y428584D01*
X1676723Y398849D02*
X1679214Y401340D01*
Y401357D01*
X1689438Y400163D02*
X1689772D01*
X1679214Y401357D02*
X1681462Y403606D01*
X1682051Y399507D02*
X1688783D01*
X1681462Y403606D02*
Y403733D01*
X1677768Y395224D02*
X1682051Y399507D01*
X1689772Y400163D02*
X1689862Y400252D01*
X1688783Y399507D02*
X1689438Y400163D01*
X1668029Y395224D02*
X1677768D01*
X1640823Y422430D02*
X1668029Y395224D01*
X1677933Y391922D02*
X1679135D01*
X1680503Y388620D02*
X1684313Y392430D01*
X1689100D01*
X1679135Y391922D02*
X1683199Y395986D01*
X1679660Y388620D02*
X1680503D01*
X1669727Y398849D02*
X1676723D01*
X1641602Y426974D02*
X1669727Y398849D01*
X1634403Y426974D02*
X1641602D01*
X1616721Y420982D02*
X1625335D01*
X1631783Y434264D02*
X1635771Y430276D01*
X1627327Y434264D02*
X1631783D01*
X1609943Y430962D02*
X1630415D01*
X1581912Y458993D02*
X1609943Y430962D01*
X1619050Y441490D02*
X1620520Y440020D01*
X1625335Y420982D02*
X1626783Y422430D01*
X1636122Y434594D02*
X1660207D01*
X1683199Y395986D02*
X1692545D01*
X1672113Y405768D02*
X1674639Y403242D01*
X1635771Y430276D02*
X1658366D01*
X1674639Y403115D02*
Y403242D01*
X1628880Y437566D02*
X1633150D01*
X1615273Y422430D02*
X1616721Y420982D01*
X1633150Y437566D02*
X1636122Y434594D01*
X1615060Y451386D02*
X1628880Y437566D01*
X1630415Y430962D02*
X1634403Y426974D01*
X1611895Y422430D02*
X1615273D01*
X1626783D02*
X1640823D01*
X1630248Y440868D02*
X1634518D01*
X1613968Y457148D02*
X1630248Y440868D01*
X1637490Y437896D02*
X1662853D01*
X1634518Y440868D02*
X1637490Y437896D01*
X1621571Y440020D02*
X1627327Y434264D01*
X1672113Y405768D02*
Y416546D01*
X1608042Y426283D02*
X1611895Y422430D01*
X1608042Y426283D02*
Y426435D01*
X1593463Y441014D02*
X1608042Y426435D01*
X1590230Y441014D02*
X1593463D01*
X1575562Y455682D02*
X1590230Y441014D01*
X1592643Y456794D02*
Y456883D01*
X1591310Y458216D02*
X1592643Y456883D01*
X1591310Y458216D02*
Y465074D01*
X1682237Y384805D02*
X1683180D01*
X1686285Y387910D01*
X1692545Y395986D02*
X1703732Y384799D01*
X1689100Y392430D02*
X1696490Y385040D01*
X1697458D01*
X1651124Y320170D02*
X1666540Y335586D01*
X1646982Y316028D02*
X1651124Y320170D01*
X1647941Y446734D02*
X1648905Y445770D01*
X1646174Y442468D02*
X1664314D01*
X1660207Y434594D02*
X1676928Y417873D01*
X1648905Y445770D02*
X1665681D01*
X1662853Y437896D02*
X1678601Y422148D01*
X1682369Y439074D02*
X1682496D01*
X1666795Y449326D02*
X1667473Y448648D01*
X1665681Y445770D02*
X1673341Y438110D01*
X1634586Y467963D02*
X1645909Y456640D01*
X1650019Y449326D02*
X1666795D01*
X1650677Y453338D02*
X1651387Y452628D01*
X1652044Y456640D02*
X1652754Y455930D01*
X1649309Y450036D02*
X1650019Y449326D01*
X1651387Y452628D02*
X1693926D01*
X1667473Y448648D02*
X1672159D01*
X1645909Y456640D02*
X1652044D01*
X1681405Y438110D02*
X1682369Y439074D01*
X1652754Y455930D02*
X1684687D01*
X1673341Y438110D02*
X1681405D01*
X1672159Y448648D02*
X1678432Y442376D01*
X1604277Y457148D02*
X1613968D01*
X1664314Y442468D02*
X1680411Y426371D01*
X1616863Y441617D02*
X1617608D01*
X1618897Y441517D02*
X1618986Y441427D01*
X1620520Y440020D02*
X1621571D01*
X1617708Y441517D02*
X1618897D01*
X1617608Y441617D02*
X1617708Y441517D01*
X1613824Y451386D02*
X1615060D01*
X1612417Y452793D02*
X1613824Y451386D01*
X1657341Y465836D02*
X1658715Y464462D01*
X1687305Y472994D02*
X1691642Y477331D01*
X1647652Y472994D02*
X1687305D01*
X1684687Y455930D02*
X1687593Y458836D01*
X1644142Y476504D02*
X1647652Y472994D01*
X1658715Y464462D02*
X1682648D01*
X1685841Y467655D01*
X1693470Y469584D02*
X1699842Y475956D01*
X1687593Y463537D02*
X1693470Y469414D01*
Y469584D01*
X1687593Y458836D02*
Y463537D01*
X1644904Y465836D02*
X1657341D01*
X1678601Y422148D02*
X1678686D01*
X1681183Y417873D02*
X1681226Y417830D01*
X1676928Y417873D02*
X1681183D01*
X1613142Y437896D02*
X1616863Y441617D01*
X1611630Y437896D02*
X1613142D01*
X1603922Y456794D02*
X1604277Y457148D01*
X1592643Y456794D02*
X1603922D01*
X1694944Y475963D02*
Y476758D01*
X1690168Y471187D02*
X1694944Y475963D01*
X1690168Y470782D02*
Y471187D01*
X1691642Y477331D02*
Y478126D01*
X1687041Y467655D02*
X1690168Y470782D01*
X1724241Y465418D02*
Y471894D01*
X1724152Y465328D02*
X1724241Y465418D01*
Y471894D02*
X1724861Y472514D01*
X1685841Y467655D02*
X1687041D01*
X1691642Y478126D02*
X1699799Y486283D01*
X1694944Y476758D02*
X1701167Y482981D01*
X1728813Y465163D02*
Y467845D01*
X1728724Y465074D02*
X1728813Y464985D01*
X1728724Y465074D02*
X1728813Y465163D01*
X1677035Y324866D02*
X1678559Y323342D01*
X1697228D01*
X1676908Y324866D02*
X1677035D01*
X1694434Y349328D02*
Y354705D01*
X1697736Y351332D02*
Y356073D01*
X1702015Y308754D02*
Y335058D01*
X1694434Y349328D02*
X1705269Y338493D01*
X1709166Y283972D02*
Y293307D01*
X1709660Y294121D02*
X1710647Y295475D01*
X1709660Y305319D02*
X1710647Y303965D01*
X1709166Y306133D02*
Y339902D01*
X1665067Y339142D02*
X1669737D01*
X1666540Y335586D02*
X1671210D01*
X1661260Y335335D02*
X1665067Y339142D01*
X1614678Y368300D02*
X1614767Y368210D01*
X1633438Y316028D02*
X1646982D01*
X1621266Y328200D02*
X1633438Y316028D01*
X1611512Y328200D02*
X1621266D01*
X1609852Y349990D02*
Y360172D01*
X1710647Y295475D02*
X1711005Y298223D01*
X1708571Y340497D02*
X1709166Y339902D01*
X1708571Y283377D02*
X1709166Y283972D01*
X1697736Y351332D02*
X1708571Y340497D01*
X1699514Y287020D02*
X1705793Y294314D01*
X1705269Y338493D02*
X1705864Y337898D01*
X1710647Y303965D02*
X1711005Y301217D01*
X1699514Y274320D02*
X1708571Y283377D01*
X1705864Y305043D02*
Y337898D01*
X1699514Y299720D02*
X1701421Y301627D01*
Y308160D02*
X1702015Y308754D01*
X1701421Y301627D02*
Y308160D01*
X1630807Y290068D02*
X1632331Y291592D01*
X1633728D01*
X1630680Y290068D02*
X1630807D01*
X1734312Y476353D02*
X1734971Y477012D01*
X1753108D02*
X1758950Y471170D01*
X1734971Y477012D02*
X1753108D01*
X1736142Y460808D02*
X1746250Y470916D01*
X1732545Y460808D02*
X1736142D01*
X1728813Y464539D02*
X1732545Y460808D01*
X1728813Y464539D02*
Y464985D01*
X1734312Y465074D02*
Y476353D01*
X1730957Y469989D02*
Y475039D01*
X1728813Y467845D02*
X1730957Y469989D01*
X1755780Y428290D02*
X1774160Y409910D01*
Y409590D02*
Y409910D01*
Y409590D02*
X1774250Y409500D01*
X1735250Y384620D02*
X1749370D01*
X1774250Y409500D01*
D61*
X1737360Y537464D02*
Y538523D01*
X1734566Y541317D02*
X1737360Y538523D01*
X1734566Y541317D02*
Y542544D01*
X1734312Y534416D02*
X1737360Y537464D01*
X1743202Y489795D02*
X1747012Y485985D01*
Y484632D02*
Y485985D01*
X1743202Y489795D02*
Y491998D01*
X1736031Y494089D02*
Y498915D01*
Y494089D02*
X1736090Y494030D01*
X1735074Y499872D02*
X1736031Y498915D01*
X1726184Y503658D02*
Y511810D01*
X1724711Y502185D02*
X1726184Y503658D01*
X1715262Y510032D02*
Y520446D01*
X1715008Y520700D02*
X1715262Y520446D01*
X1702308Y515366D02*
X1702562Y515112D01*
X1702308Y515366D02*
Y524002D01*
X1708741Y504190D02*
X1712297Y500634D01*
X1714246D01*
X1707388Y504190D02*
X1708741D01*
X1687068Y336887D02*
X1690370Y333585D01*
X1687068Y336887D02*
Y339598D01*
X1690370Y332232D02*
Y333585D01*
X1687068Y478790D02*
Y513863D01*
X1687376Y514171D02*
Y527098D01*
X1687068Y513863D02*
X1687376Y514171D01*
X1663724Y550750D02*
X1687376Y527098D01*
X1653500Y550750D02*
X1663724D01*
D62*
X1771142Y461974D02*
Y473964D01*
Y461974D02*
X1773936Y459180D01*
Y448564D02*
Y459180D01*
X1614678Y341985D02*
Y363474D01*
X1609399Y336706D02*
X1614678Y341985D01*
X1591310Y317246D02*
Y327914D01*
X1591056Y328168D02*
X1591310Y327914D01*
X1652270Y288290D02*
Y296164D01*
X1602337Y376936D02*
X1603756D01*
X1597914Y379984D02*
X1599289D01*
X1602337Y376936D01*
D64*
X1693308Y460313D02*
X1696899Y463905D01*
Y468164D01*
X1704536Y471690D02*
X1704594D01*
X1696899Y468164D02*
X1699472Y470737D01*
X1703583D02*
X1704536Y471690D01*
X1699472Y470737D02*
X1703583D01*
X1693250Y460313D02*
X1693308D01*
D65*
X1652881Y348511D02*
X1655382D01*
X1651886Y349507D02*
X1652881Y348511D01*
X1651886Y349507D02*
X1659445Y357066D01*
X1655948Y360563D02*
X1659445Y357066D01*
X1646914Y351528D02*
X1655948Y360563D01*
X1643417Y355025D02*
X1646914Y351528D01*
X1643417Y355025D02*
X1648946Y360553D01*
X1645450Y364050D02*
X1648946Y360553D01*
X1639921Y358521D02*
X1645450Y364050D01*
X1636425Y362018D02*
X1639921Y358521D01*
X1636425Y362018D02*
X1636425Y362018D01*
X1629432Y369011D02*
X1636425Y362018D01*
X1629432Y369011D02*
X1630752Y370331D01*
X1627255Y373827D02*
X1630752Y370331D01*
X1625935Y372507D02*
X1627255Y373827D01*
X1622439Y376003D02*
X1625935Y372507D01*
X1622439Y376003D02*
X1630096Y383660D01*
X1626599Y387157D02*
X1630096Y383660D01*
X1618942Y379500D02*
X1626599Y387157D01*
X1618092Y380350D02*
X1618942Y379500D01*
X1655382Y348511D02*
X1664530D01*
X1613621Y384821D02*
X1618092Y380350D01*
X1610879Y384821D02*
X1613621D01*
X1612099Y381146D02*
X1648409Y344836D01*
X1666056D01*
X1580134Y400352D02*
X1595348D01*
X1576489D02*
X1580134D01*
X1595348D02*
X1596274Y399426D01*
X1609357Y381146D02*
X1612099D01*
X1593826Y396677D02*
X1609357Y381146D01*
X1666056Y344836D02*
X1667484Y343408D01*
X1665968Y350502D02*
X1665986Y350520D01*
X1664530Y348511D02*
X1665968Y349949D01*
Y350502D01*
X1667484Y343408D02*
X1667510D01*
X1576453Y396677D02*
X1593826D01*
X1575080Y401760D02*
X1576489Y400352D01*
X1573318Y403531D02*
X1575080Y401768D01*
X1573318Y403531D02*
Y403557D01*
X1575080Y401760D02*
Y401768D01*
X1596274Y399426D02*
X1610879Y384821D01*
X1538732Y401066D02*
X1543812Y395986D01*
X1505204Y401066D02*
X1538732D01*
X1573250Y393500D02*
X1573276D01*
X1576453Y396677D01*
D66*
X1686814Y299720D02*
D03*
X1699514D02*
D03*
X1686814Y287020D02*
D03*
X1699514D02*
D03*
X1686814Y274320D02*
D03*
X1699514D02*
D03*
D67*
X1693164Y312420D02*
D03*
X1703324Y261620D02*
D03*
X1683004D02*
D03*
D68*
X1615666Y270256D02*
D03*
X1645666D02*
D03*
D69*
X1524150Y436250D02*
D03*
D70*
Y361250D02*
D03*
D71*
X1545650Y374750D02*
D03*
Y422750D02*
D03*
X1502650D02*
D03*
Y374750D02*
D03*
D72*
X1516380Y493522D02*
D03*
X1679956Y553974D02*
D03*
X1626235Y397129D02*
D03*
D73*
X1667002Y558800D02*
D03*
X1502918Y514604D02*
D03*
X1496822D02*
D03*
X1768856Y481330D02*
D03*
X1685185Y358879D02*
D03*
X1660144Y420116D02*
D03*
X1713992Y468122D02*
D03*
X1701292Y466344D02*
D03*
X1710646Y464566D02*
D03*
X1702054Y539496D02*
D03*
X1709928Y528574D02*
D03*
X1651508Y461264D02*
D03*
X1591818Y480568D02*
D03*
X1496822Y357632D02*
D03*
X1514348Y359664D02*
D03*
X1533906Y359410D02*
D03*
X1546352Y359156D02*
D03*
X1721612Y491744D02*
D03*
X1765300Y565912D02*
D03*
X1771396D02*
D03*
X1569136Y426107D02*
D03*
X1584960Y487934D02*
D03*
X1729282Y559160D02*
D03*
X1744980Y549910D02*
D03*
X1734312Y534416D02*
D03*
X1752600Y499110D02*
D03*
X1743202Y491998D02*
D03*
X1736090Y494030D02*
D03*
X1727786Y492174D02*
D03*
X1566672Y330200D02*
D03*
Y340360D02*
D03*
Y320802D02*
D03*
Y310642D02*
D03*
X1632204Y446786D02*
D03*
X1628406Y456863D02*
D03*
X1639570Y442468D02*
D03*
X1582420Y410972D02*
D03*
X1598168Y449326D02*
D03*
X1709336Y384302D02*
D03*
X1673856Y280708D02*
D03*
X1663856D02*
D03*
X1563856Y300708D02*
D03*
X1553856D02*
D03*
X1558856Y290708D02*
D03*
X1553856Y280708D02*
D03*
X1558856Y270708D02*
D03*
X1543856Y300708D02*
D03*
X1548856Y290708D02*
D03*
X1543856Y280708D02*
D03*
X1548856Y270708D02*
D03*
X1533856Y300708D02*
D03*
X1538856Y290708D02*
D03*
X1533856Y280708D02*
D03*
X1538856Y270708D02*
D03*
X1523856Y300708D02*
D03*
X1528856Y290708D02*
D03*
Y270708D02*
D03*
X1513856Y340708D02*
D03*
X1518856Y330708D02*
D03*
X1513856Y320708D02*
D03*
X1518856Y310708D02*
D03*
X1513856Y300708D02*
D03*
X1503856Y440708D02*
D03*
X1508856Y350708D02*
D03*
X1503856Y340708D02*
D03*
X1508856Y330708D02*
D03*
X1503856Y320708D02*
D03*
X1508856Y310708D02*
D03*
X1503856Y300708D02*
D03*
X1622806Y315468D02*
D03*
X1598498Y301752D02*
D03*
X1697736Y558292D02*
D03*
X1654302Y558800D02*
D03*
X1667002Y539496D02*
D03*
X1649476Y532384D02*
D03*
X1503172Y471170D02*
D03*
X1497076D02*
D03*
Y478028D02*
D03*
X1503172D02*
D03*
X1503190Y485794D02*
D03*
X1497094D02*
D03*
Y492652D02*
D03*
X1503190D02*
D03*
X1503172Y499618D02*
D03*
X1497076D02*
D03*
Y506476D02*
D03*
X1503172D02*
D03*
X1513840Y450088D02*
D03*
X1496568D02*
D03*
X1708912Y276860D02*
D03*
Y270764D02*
D03*
X1690134Y368574D02*
D03*
X1693176Y372378D02*
D03*
X1681734Y372364D02*
D03*
X1601216Y343408D02*
D03*
X1594612Y452374D02*
D03*
X1569136Y414931D02*
D03*
X1559814Y426212D02*
D03*
Y415036D02*
D03*
X1553210Y531876D02*
D03*
X1548130Y537464D02*
D03*
X1507236Y542290D02*
D03*
X1501140D02*
D03*
Y535432D02*
D03*
X1507236D02*
D03*
X1500632Y555244D02*
D03*
X1612165Y571000D02*
D03*
X1533906Y457962D02*
D03*
Y465328D02*
D03*
Y472948D02*
D03*
Y480568D02*
D03*
X1543191Y558086D02*
D03*
X1538248D02*
D03*
X1545770Y487408D02*
D03*
X1758876Y464040D02*
D03*
X1771322Y559544D02*
D03*
X1762686Y491980D02*
D03*
X1769036D02*
D03*
X1768856Y486664D02*
D03*
X1613662Y531876D02*
D03*
X1638554D02*
D03*
X1623314D02*
D03*
X1630508Y568500D02*
D03*
X1567180Y559562D02*
D03*
X1559306D02*
D03*
Y566420D02*
D03*
X1567180D02*
D03*
X1724711Y502185D02*
D03*
X1702562Y515112D02*
D03*
X1714246Y500634D02*
D03*
X1715262Y510032D02*
D03*
X1655826Y383286D02*
D03*
X1667764Y407416D02*
D03*
X1664208Y410972D02*
D03*
X1681462Y403733D02*
D03*
X1649730Y401320D02*
D03*
X1665261Y391959D02*
D03*
X1668563Y388657D02*
D03*
X1657902Y398526D02*
D03*
X1674639Y403115D02*
D03*
X1618488Y425248D02*
D03*
X1623568D02*
D03*
X1613662Y426696D02*
D03*
X1624584Y409702D02*
D03*
X1628648Y426696D02*
D03*
X1678641Y408303D02*
D03*
X1575562Y455682D02*
D03*
X1689862Y400252D02*
D03*
X1686285Y387910D02*
D03*
X1697458Y385040D02*
D03*
X1689354Y384302D02*
D03*
X1646174Y442468D02*
D03*
X1624553Y452597D02*
D03*
X1682496Y439074D02*
D03*
X1678432Y442376D02*
D03*
X1687068Y478790D02*
D03*
X1679248Y490776D02*
D03*
Y480870D02*
D03*
X1678892Y510766D02*
D03*
X1679248Y500682D02*
D03*
Y520748D02*
D03*
X1687376Y500936D02*
D03*
Y527098D02*
D03*
X1680411Y426371D02*
D03*
X1618986Y441427D02*
D03*
X1612290Y452793D02*
D03*
X1638386Y458048D02*
D03*
X1658366Y430276D02*
D03*
X1662430Y468728D02*
D03*
Y460196D02*
D03*
X1673352D02*
D03*
X1681226Y417830D02*
D03*
X1678686Y422148D02*
D03*
X1592643Y456794D02*
D03*
X1672113Y416591D02*
D03*
X1644904Y465836D02*
D03*
X1634586Y467963D02*
D03*
X1678686Y413004D02*
D03*
X1719834Y467106D02*
D03*
X1724152Y465328D02*
D03*
X1706118Y466344D02*
D03*
X1693250Y460313D02*
D03*
X1704594Y471690D02*
D03*
X1728800Y464998D02*
D03*
X1706320Y351790D02*
D03*
X1697228Y323342D02*
D03*
X1698042Y362054D02*
D03*
X1687668Y355438D02*
D03*
X1680718Y350266D02*
D03*
X1703732Y384799D02*
D03*
X1752092Y402336D02*
D03*
X1661414Y387604D02*
D03*
X1661668Y380492D02*
D03*
X1658874Y392684D02*
D03*
X1667510Y343408D02*
D03*
X1665986Y350520D02*
D03*
X1653540Y328982D02*
D03*
X1632966Y333502D02*
D03*
X1607566Y365252D02*
D03*
X1614678Y363474D02*
D03*
X1604010Y361442D02*
D03*
X1615186Y335534D02*
D03*
X1614424Y323680D02*
D03*
X1632542Y328938D02*
D03*
X1658366Y311098D02*
D03*
X1640840Y311508D02*
D03*
X1609399Y336706D02*
D03*
X1687068Y339598D02*
D03*
X1676908Y324866D02*
D03*
X1652270Y296164D02*
D03*
X1641856Y294894D02*
D03*
X1630680Y290068D02*
D03*
X1644142Y476504D02*
D03*
X1623060Y290068D02*
D03*
X1573318Y403557D02*
D03*
X1601216Y411226D02*
D03*
X1596644Y410210D02*
D03*
X1608328Y399034D02*
D03*
X1612900Y393700D02*
D03*
Y403860D02*
D03*
X1632966Y388366D02*
D03*
X1535430Y533146D02*
D03*
X1530858Y536956D02*
D03*
X1639762Y399226D02*
D03*
X1606550Y411226D02*
D03*
X1603776Y424668D02*
D03*
X1583690Y425196D02*
D03*
X1755007Y432984D02*
D03*
X1767586Y450342D02*
D03*
X1759204D02*
D03*
X1755780Y428290D02*
D03*
X1773682Y437896D02*
D03*
X1759222Y408538D02*
D03*
X1766316Y385572D02*
D03*
X1774444Y390144D02*
D03*
X1752092Y395732D02*
D03*
X1747520Y395986D02*
D03*
X1773936Y448564D02*
D03*
X1609852Y360172D02*
D03*
X1603248Y330072D02*
D03*
X1641320Y320548D02*
D03*
X1639697Y339344D02*
D03*
X1596136Y387604D02*
D03*
X1663954Y326136D02*
D03*
X1627802Y329438D02*
D03*
X1591056Y328168D02*
D03*
Y332486D02*
D03*
Y336550D02*
D03*
X1611518Y305666D02*
D03*
X1618686Y300482D02*
D03*
X1607998Y301752D02*
D03*
X1607566Y373126D02*
D03*
X1603756Y376936D02*
D03*
X1604010Y368808D02*
D03*
X1575441Y362501D02*
D03*
X1680972Y344170D02*
D03*
X1590294Y379476D02*
D03*
X1532862Y418149D02*
D03*
X1527782D02*
D03*
X1520162D02*
D03*
X1515082D02*
D03*
X1496314Y412496D02*
D03*
X1501394D02*
D03*
X1496314Y406654D02*
D03*
X1501394D02*
D03*
X1565656Y364998D02*
D03*
X1552194Y391160D02*
D03*
X1557020Y371856D02*
D03*
Y378968D02*
D03*
X1545082Y391414D02*
D03*
X1548384Y387604D02*
D03*
X1501648Y386842D02*
D03*
X1542288Y387604D02*
D03*
X1496568Y386842D02*
D03*
X1501648Y392684D02*
D03*
X1496568D02*
D03*
X1735250Y384620D02*
D03*
X1716640Y533292D02*
D03*
X1659382Y368300D02*
D03*
X1530858Y529590D02*
D03*
X1734312Y465074D02*
D03*
X1614678Y368300D02*
D03*
X1615186Y290068D02*
D03*
X1711706Y566928D02*
D03*
X1668780Y566674D02*
D03*
X1631026Y545562D02*
D03*
X1643380Y554990D02*
D03*
X1565402Y383032D02*
D03*
X1505204Y401066D02*
D03*
X1543812Y395986D02*
D03*
X1573250Y393500D02*
D03*
X1768000Y390500D02*
D03*
X1774250Y409500D02*
D03*
X1653500Y550750D02*
D03*
X1634744Y338074D02*
D03*
D74*
X1715339Y331408D02*
D03*
X1770203Y348934D02*
D03*
X1711198Y362458D02*
D03*
X1719916Y337603D02*
D03*
X1729807Y336132D02*
D03*
X1739807D02*
D03*
X1749807D02*
D03*
X1768202Y335550D02*
D03*
X1764396Y344798D02*
D03*
X1754972Y348144D02*
D03*
X1744972D02*
D03*
X1734972D02*
D03*
X1727496Y354785D02*
D03*
X1727506Y364784D02*
D03*
X1727588Y374784D02*
D03*
X1710690Y345186D02*
D03*
X1670560Y288290D02*
D03*
X1643126Y507996D02*
D03*
X1631950Y508000D02*
D03*
X1648206Y518414D02*
D03*
X1636522D02*
D03*
X1625346Y518418D02*
D03*
X1496060Y269240D02*
D03*
Y280924D02*
D03*
X1496064Y292100D02*
D03*
X1593342Y260858D02*
D03*
X1631188Y268986D02*
D03*
X1671066Y270510D02*
D03*
X1770384Y381000D02*
D03*
X1770380Y369824D02*
D03*
Y358140D02*
D03*
X1757680Y355596D02*
D03*
X1746504Y355600D02*
D03*
X1734820D02*
D03*
X1769872Y323850D02*
D03*
X1721866Y325628D02*
D03*
X1733550D02*
D03*
X1744726Y325624D02*
D03*
X1734820Y366014D02*
D03*
X1715360Y356750D02*
D03*
Y369000D02*
D03*
D75*
X1636526Y370082D02*
D03*
X1628140Y351536D02*
D03*
X1645666Y369824D02*
D03*
X1736090Y420624D02*
D03*
X1724660D02*
D03*
Y409702D02*
D03*
X1713230D02*
D03*
Y420624D02*
D03*
X1701800Y409702D02*
D03*
X1736090D02*
D03*
X1701800Y420624D02*
D03*
Y432054D02*
D03*
X1713230D02*
D03*
X1736090D02*
D03*
X1724660D02*
D03*
Y444500D02*
D03*
X1736090D02*
D03*
X1713230D02*
D03*
X1701800D02*
D03*
D77*
X1584650Y410972D02*
X1591282Y417604D01*
X1582420Y410972D02*
X1584650D01*
X1653032Y398526D02*
X1657902D01*
X1635402Y416156D02*
X1653032Y398526D01*
X1614722Y416156D02*
X1635402D01*
X1613274Y417604D02*
X1614722Y416156D01*
X1591282Y417604D02*
X1613274D01*
X1583690Y425196D02*
X1591282Y417604D01*
M02*
