G04*
G04 #@! TF.GenerationSoftware,Altium Limited,Altium Designer,24.10.1 (45)*
G04*
G04 Layer_Physical_Order=2*
G04 Layer_Color=36540*
%FSLAX44Y44*%
%MOMM*%
G71*
G04*
G04 #@! TF.SameCoordinates,7938DD53-57AB-4622-B446-BAE18901E4FB*
G04*
G04*
G04 #@! TF.FilePolarity,Positive*
G04*
G01*
G75*
%ADD66C,1.2000*%
%ADD67C,0.5330*%
%ADD68C,0.4000*%
%ADD69C,0.5800*%
%ADD70C,0.3250*%
%ADD71C,1.1000*%
%ADD72C,1.5000*%
%ADD73C,0.2500*%
%ADD74C,0.5000*%
%ADD75C,0.6604*%
G36*
X1776098Y452561D02*
X1774828Y451712D01*
X1774583Y451814D01*
X1773289D01*
X1772095Y451319D01*
X1772009Y451233D01*
X1770582Y451602D01*
X1770341Y452183D01*
X1769427Y453097D01*
X1768233Y453592D01*
X1766940D01*
X1765745Y453097D01*
X1764831Y452183D01*
X1764336Y450989D01*
Y449696D01*
X1764831Y448501D01*
X1765745Y447587D01*
X1766940Y447092D01*
X1768233D01*
X1769427Y447587D01*
X1769513Y447673D01*
X1770940Y447304D01*
X1771181Y446723D01*
X1772095Y445809D01*
X1773289Y445314D01*
X1774583D01*
X1774828Y445416D01*
X1776098Y444567D01*
Y413627D01*
X1774896Y412750D01*
X1773604D01*
X1772409Y412255D01*
X1771495Y411341D01*
X1771000Y410146D01*
Y408853D01*
X1771495Y407659D01*
X1772409Y406745D01*
X1773604Y406250D01*
X1774896D01*
X1776098Y405373D01*
Y320375D01*
X1765400D01*
Y341885D01*
X1762098D01*
X1758796Y345187D01*
X1725968D01*
X1725014Y345949D01*
Y378715D01*
X1729586D01*
X1730856Y379985D01*
Y383033D01*
X1730856Y383417D01*
X1732126Y383669D01*
X1732254Y383361D01*
X1732495Y382779D01*
X1733409Y381865D01*
X1734603Y381370D01*
X1735896D01*
X1737091Y381865D01*
X1738005Y382779D01*
X1738500Y383974D01*
Y385266D01*
X1738005Y386461D01*
X1737091Y387375D01*
X1735896Y387870D01*
X1734603D01*
X1733409Y387375D01*
X1732495Y386461D01*
X1732000Y385266D01*
Y384891D01*
X1732000Y384607D01*
X1730856Y384303D01*
X1730744Y384303D01*
X1730071D01*
X1729953Y384303D01*
X1719426D01*
X1718564Y385165D01*
Y376279D01*
X1714627D01*
X1714627Y376279D01*
X1713655Y375876D01*
X1706416Y368637D01*
X1706013Y367665D01*
X1706013Y367665D01*
Y356870D01*
X1706245Y356310D01*
X1705747Y355202D01*
X1705535Y354983D01*
X1704479Y354545D01*
X1703565Y353631D01*
X1703070Y352436D01*
Y351143D01*
X1703565Y349949D01*
X1704479Y349035D01*
X1705674Y348540D01*
X1706967D01*
X1708161Y349035D01*
X1709075Y349949D01*
X1709513Y351005D01*
X1710132Y351290D01*
X1710840Y351474D01*
X1712766Y349548D01*
X1713738Y349145D01*
X1713738Y349145D01*
X1718564D01*
Y342900D01*
X1722373Y339091D01*
X1754986Y339091D01*
Y329439D01*
X1757018Y327407D01*
Y320375D01*
X1713000D01*
X1712028Y319972D01*
X1711625Y319000D01*
Y265452D01*
X1710355Y265111D01*
X1709594Y266431D01*
X1708135Y267890D01*
X1706348Y268921D01*
X1706120Y268982D01*
X1705658Y270421D01*
X1706289Y271514D01*
X1706784Y273363D01*
Y275277D01*
X1706289Y277126D01*
X1705331Y278784D01*
X1704232Y279883D01*
X1704081Y280670D01*
X1704232Y281457D01*
X1705331Y282556D01*
X1706289Y284214D01*
X1706784Y286063D01*
Y287977D01*
X1706289Y289826D01*
X1705331Y291484D01*
X1704232Y292583D01*
X1704081Y293370D01*
X1704232Y294157D01*
X1705331Y295256D01*
X1706289Y296914D01*
X1706784Y298763D01*
Y300677D01*
X1706289Y302526D01*
X1705331Y304184D01*
X1703978Y305537D01*
X1702320Y306495D01*
X1700471Y306990D01*
X1699809Y308260D01*
X1700465Y309396D01*
X1700999Y311388D01*
Y313451D01*
X1700465Y315444D01*
X1699434Y317231D01*
X1697975Y318690D01*
X1697745Y318822D01*
X1697830Y319654D01*
X1697997Y320143D01*
X1699069Y320587D01*
X1699983Y321501D01*
X1700478Y322696D01*
Y323988D01*
X1699983Y325183D01*
X1699069Y326097D01*
X1697874Y326592D01*
X1696582D01*
X1695387Y326097D01*
X1694473Y325183D01*
X1693978Y323988D01*
Y322696D01*
X1694473Y321501D01*
X1694496Y321478D01*
X1694362Y320935D01*
X1693923Y320255D01*
X1692133D01*
X1690140Y319721D01*
X1688353Y318690D01*
X1686894Y317231D01*
X1685863Y315444D01*
X1685329Y313451D01*
Y311388D01*
X1685863Y309396D01*
X1686519Y308260D01*
X1685857Y306990D01*
X1684008Y306495D01*
X1682350Y305537D01*
X1680997Y304184D01*
X1680039Y302526D01*
X1679544Y300677D01*
Y298763D01*
X1680039Y296914D01*
X1680997Y295256D01*
X1682096Y294157D01*
X1682247Y293370D01*
X1682096Y292583D01*
X1680997Y291484D01*
X1680039Y289826D01*
X1679544Y287977D01*
Y286063D01*
X1680039Y284214D01*
X1680997Y282556D01*
X1682096Y281457D01*
X1682247Y280670D01*
X1682096Y279883D01*
X1680997Y278784D01*
X1680039Y277126D01*
X1679544Y275277D01*
Y274955D01*
X1686814D01*
Y273685D01*
X1679544D01*
Y273363D01*
X1680039Y271514D01*
X1680670Y270421D01*
X1680208Y268982D01*
X1679980Y268921D01*
X1678193Y267890D01*
X1676734Y266431D01*
X1675703Y264644D01*
X1675169Y262652D01*
Y260588D01*
X1675703Y258596D01*
X1676472Y257264D01*
X1675870Y255994D01*
X1490733Y256039D01*
Y572211D01*
X1776098Y572211D01*
Y452561D01*
D02*
G37*
%LPC*%
G36*
X1712352Y570178D02*
X1711060D01*
X1709865Y569683D01*
X1708951Y568769D01*
X1708456Y567575D01*
Y566282D01*
X1708951Y565087D01*
X1709865Y564173D01*
X1711060Y563678D01*
X1712352D01*
X1713547Y564173D01*
X1714461Y565087D01*
X1714956Y566282D01*
Y567575D01*
X1714461Y568769D01*
X1713547Y569683D01*
X1712352Y570178D01*
D02*
G37*
G36*
X1669427Y569924D02*
X1668134D01*
X1666939Y569429D01*
X1666025Y568515D01*
X1665530Y567321D01*
Y566027D01*
X1666025Y564833D01*
X1666939Y563919D01*
X1668134Y563424D01*
X1669427D01*
X1670621Y563919D01*
X1671535Y564833D01*
X1672030Y566027D01*
Y567321D01*
X1671535Y568515D01*
X1670621Y569429D01*
X1669427Y569924D01*
D02*
G37*
G36*
X1543838Y561336D02*
X1542545D01*
X1541350Y560841D01*
X1540720Y560210D01*
X1540089Y560841D01*
X1538895Y561336D01*
X1537601D01*
X1536407Y560841D01*
X1535493Y559927D01*
X1534998Y558732D01*
Y557440D01*
X1535493Y556245D01*
X1536407Y555331D01*
X1537601Y554836D01*
X1538895D01*
X1540089Y555331D01*
X1540720Y555961D01*
X1541350Y555331D01*
X1542545Y554836D01*
X1543838D01*
X1545032Y555331D01*
X1545947Y556245D01*
X1546441Y557440D01*
Y558732D01*
X1545947Y559927D01*
X1545032Y560841D01*
X1543838Y561336D01*
D02*
G37*
G36*
X1644026Y558240D02*
X1642733D01*
X1641539Y557745D01*
X1640625Y556831D01*
X1640130Y555636D01*
Y554343D01*
X1640625Y553149D01*
X1641539Y552235D01*
X1642733Y551740D01*
X1644026D01*
X1645221Y552235D01*
X1646135Y553149D01*
X1646630Y554343D01*
Y555636D01*
X1646135Y556831D01*
X1645221Y557745D01*
X1644026Y558240D01*
D02*
G37*
G36*
X1654147Y554000D02*
X1652854D01*
X1651659Y553505D01*
X1650745Y552591D01*
X1650250Y551396D01*
Y550103D01*
X1650745Y548909D01*
X1651659Y547995D01*
X1652854Y547500D01*
X1654147D01*
X1655341Y547995D01*
X1656255Y548909D01*
X1656750Y550103D01*
Y551396D01*
X1656255Y552591D01*
X1655341Y553505D01*
X1654147Y554000D01*
D02*
G37*
G36*
X1745627Y553160D02*
X1744333D01*
X1743139Y552665D01*
X1742225Y551751D01*
X1741730Y550556D01*
Y549263D01*
X1742225Y548069D01*
X1743139Y547155D01*
X1744333Y546660D01*
X1745627D01*
X1746821Y547155D01*
X1747735Y548069D01*
X1748230Y549263D01*
Y550556D01*
X1747735Y551751D01*
X1746821Y552665D01*
X1745627Y553160D01*
D02*
G37*
G36*
X1681111Y562744D02*
X1678801D01*
X1676571Y562146D01*
X1674571Y560992D01*
X1672938Y559359D01*
X1671784Y557359D01*
X1671186Y555129D01*
Y552819D01*
X1671784Y550589D01*
X1672938Y548589D01*
X1674571Y546956D01*
X1676571Y545802D01*
X1678801Y545204D01*
X1681111D01*
X1683341Y545802D01*
X1685341Y546956D01*
X1686974Y548589D01*
X1688128Y550589D01*
X1688726Y552819D01*
Y555129D01*
X1688128Y557359D01*
X1686974Y559359D01*
X1685341Y560992D01*
X1683341Y562146D01*
X1681111Y562744D01*
D02*
G37*
G36*
X1631673Y548812D02*
X1630379D01*
X1629185Y548317D01*
X1628271Y547403D01*
X1627776Y546208D01*
Y544916D01*
X1628271Y543721D01*
X1629185Y542807D01*
X1630379Y542312D01*
X1631673D01*
X1632867Y542807D01*
X1633781Y543721D01*
X1634276Y544916D01*
Y546208D01*
X1633781Y547403D01*
X1632867Y548317D01*
X1631673Y548812D01*
D02*
G37*
G36*
X1734958Y537666D02*
X1733665D01*
X1732471Y537171D01*
X1731557Y536257D01*
X1731062Y535062D01*
Y533769D01*
X1731557Y532575D01*
X1732471Y531661D01*
X1733665Y531166D01*
X1734958D01*
X1736153Y531661D01*
X1737067Y532575D01*
X1737562Y533769D01*
Y535062D01*
X1737067Y536257D01*
X1736153Y537171D01*
X1734958Y537666D01*
D02*
G37*
G36*
X1717287Y536542D02*
X1715993D01*
X1714799Y536047D01*
X1713885Y535133D01*
X1713390Y533938D01*
Y532645D01*
X1713885Y531451D01*
X1714799Y530537D01*
X1715993Y530042D01*
X1717287D01*
X1718481Y530537D01*
X1719395Y531451D01*
X1719890Y532645D01*
Y533938D01*
X1719395Y535133D01*
X1718481Y536047D01*
X1717287Y536542D01*
D02*
G37*
G36*
X1531505Y540206D02*
X1530211D01*
X1529017Y539711D01*
X1528103Y538797D01*
X1527608Y537603D01*
Y536310D01*
X1528103Y535115D01*
X1529017Y534201D01*
X1529598Y533960D01*
Y532586D01*
X1529017Y532345D01*
X1528103Y531431D01*
X1527608Y530237D01*
Y528943D01*
X1528103Y527749D01*
X1529017Y526835D01*
X1530211Y526340D01*
X1531505D01*
X1532699Y526835D01*
X1533613Y527749D01*
X1534058Y528822D01*
X1534784Y529896D01*
X1536077D01*
X1537271Y530391D01*
X1538185Y531305D01*
X1538680Y532500D01*
Y533792D01*
X1538185Y534987D01*
X1537271Y535901D01*
X1536077Y536396D01*
X1534784D01*
X1534108Y537491D01*
Y537603D01*
X1533613Y538797D01*
X1532699Y539711D01*
X1531505Y540206D01*
D02*
G37*
G36*
X1688022Y530348D02*
X1686729D01*
X1685535Y529853D01*
X1684621Y528939D01*
X1684126Y527744D01*
Y526452D01*
X1684621Y525257D01*
X1685535Y524343D01*
X1686729Y523848D01*
X1688022D01*
X1689217Y524343D01*
X1690131Y525257D01*
X1690626Y526452D01*
Y527744D01*
X1690131Y528939D01*
X1689217Y529853D01*
X1688022Y530348D01*
D02*
G37*
G36*
X1679895Y523998D02*
X1678602D01*
X1677407Y523503D01*
X1676493Y522589D01*
X1675998Y521395D01*
Y520102D01*
X1676493Y518907D01*
X1677407Y517993D01*
X1678602Y517498D01*
X1679895D01*
X1681089Y517993D01*
X1682003Y518907D01*
X1682498Y520102D01*
Y521395D01*
X1682003Y522589D01*
X1681089Y523503D01*
X1679895Y523998D01*
D02*
G37*
G36*
X1703208Y518362D02*
X1701915D01*
X1700721Y517867D01*
X1699807Y516953D01*
X1699312Y515759D01*
Y514465D01*
X1699807Y513271D01*
X1700721Y512357D01*
X1701915Y511862D01*
X1703208D01*
X1704403Y512357D01*
X1705317Y513271D01*
X1705812Y514465D01*
Y515759D01*
X1705317Y516953D01*
X1704403Y517867D01*
X1703208Y518362D01*
D02*
G37*
G36*
X1679538Y514016D02*
X1678245D01*
X1677051Y513521D01*
X1676137Y512607D01*
X1675642Y511413D01*
Y510120D01*
X1676137Y508925D01*
X1677051Y508011D01*
X1678245Y507516D01*
X1679538D01*
X1680733Y508011D01*
X1681647Y508925D01*
X1682142Y510120D01*
Y511413D01*
X1681647Y512607D01*
X1680733Y513521D01*
X1679538Y514016D01*
D02*
G37*
G36*
X1715909Y513282D02*
X1714615D01*
X1713421Y512787D01*
X1712507Y511873D01*
X1712012Y510678D01*
Y509385D01*
X1712507Y508191D01*
X1713421Y507277D01*
X1714615Y506782D01*
X1715909D01*
X1717103Y507277D01*
X1718017Y508191D01*
X1718512Y509385D01*
Y510678D01*
X1718017Y511873D01*
X1717103Y512787D01*
X1715909Y513282D01*
D02*
G37*
G36*
X1725358Y505435D02*
X1724064D01*
X1722870Y504940D01*
X1721956Y504026D01*
X1721461Y502831D01*
Y501538D01*
X1721956Y500344D01*
X1722870Y499430D01*
X1724064Y498935D01*
X1725358D01*
X1726552Y499430D01*
X1727466Y500344D01*
X1727961Y501538D01*
Y502831D01*
X1727466Y504026D01*
X1726552Y504940D01*
X1725358Y505435D01*
D02*
G37*
G36*
X1688022Y504186D02*
X1686729D01*
X1685535Y503691D01*
X1684621Y502777D01*
X1684126Y501582D01*
Y500290D01*
X1684621Y499095D01*
X1685535Y498181D01*
X1686729Y497686D01*
X1688022D01*
X1689217Y498181D01*
X1690131Y499095D01*
X1690626Y500290D01*
Y501582D01*
X1690131Y502777D01*
X1689217Y503691D01*
X1688022Y504186D01*
D02*
G37*
G36*
X1679895Y503932D02*
X1678602D01*
X1677407Y503437D01*
X1676493Y502523D01*
X1675998Y501329D01*
Y500036D01*
X1676493Y498841D01*
X1677407Y497927D01*
X1678602Y497432D01*
X1679895D01*
X1681089Y497927D01*
X1682003Y498841D01*
X1682498Y500036D01*
Y501329D01*
X1682003Y502523D01*
X1681089Y503437D01*
X1679895Y503932D01*
D02*
G37*
G36*
X1714892Y503884D02*
X1713600D01*
X1712405Y503389D01*
X1711491Y502475D01*
X1710996Y501281D01*
Y499987D01*
X1711491Y498793D01*
X1712405Y497879D01*
X1713600Y497384D01*
X1714892D01*
X1716087Y497879D01*
X1717001Y498793D01*
X1717496Y499987D01*
Y501281D01*
X1717001Y502475D01*
X1716087Y503389D01*
X1714892Y503884D01*
D02*
G37*
G36*
X1753246Y502360D02*
X1751953D01*
X1750759Y501865D01*
X1749845Y500951D01*
X1749350Y499757D01*
Y498464D01*
X1749845Y497269D01*
X1750759Y496355D01*
X1751953Y495860D01*
X1753246D01*
X1754441Y496355D01*
X1755355Y497269D01*
X1755850Y498464D01*
Y499757D01*
X1755355Y500951D01*
X1754441Y501865D01*
X1753246Y502360D01*
D02*
G37*
G36*
X1736736Y497280D02*
X1735444D01*
X1734249Y496785D01*
X1733335Y495871D01*
X1732840Y494677D01*
Y493383D01*
X1733335Y492189D01*
X1734249Y491275D01*
X1735444Y490780D01*
X1736736D01*
X1737931Y491275D01*
X1738682Y492026D01*
X1739453Y491886D01*
X1739952Y491637D01*
Y491352D01*
X1740447Y490157D01*
X1741361Y489243D01*
X1742556Y488748D01*
X1743849D01*
X1745043Y489243D01*
X1745957Y490157D01*
X1746452Y491352D01*
Y492645D01*
X1745957Y493839D01*
X1745043Y494753D01*
X1743849Y495248D01*
X1742556D01*
X1741361Y494753D01*
X1740610Y494002D01*
X1739839Y494142D01*
X1739340Y494392D01*
Y494677D01*
X1738845Y495871D01*
X1737931Y496785D01*
X1736736Y497280D01*
D02*
G37*
G36*
X1679895Y494026D02*
X1678602D01*
X1677407Y493531D01*
X1676493Y492617D01*
X1675998Y491423D01*
Y490130D01*
X1676493Y488935D01*
X1677407Y488021D01*
X1678602Y487526D01*
X1679895D01*
X1681089Y488021D01*
X1682003Y488935D01*
X1682498Y490130D01*
Y491423D01*
X1682003Y492617D01*
X1681089Y493531D01*
X1679895Y494026D01*
D02*
G37*
G36*
X1517535Y502292D02*
X1515225D01*
X1512995Y501694D01*
X1510995Y500540D01*
X1509362Y498907D01*
X1508208Y496907D01*
X1507610Y494677D01*
Y492367D01*
X1508208Y490137D01*
X1509362Y488137D01*
X1510995Y486504D01*
X1512995Y485350D01*
X1515225Y484752D01*
X1517535D01*
X1519765Y485350D01*
X1521765Y486504D01*
X1523398Y488137D01*
X1524552Y490137D01*
X1525150Y492367D01*
Y494677D01*
X1524552Y496907D01*
X1523398Y498907D01*
X1521765Y500540D01*
X1519765Y501694D01*
X1517535Y502292D01*
D02*
G37*
G36*
X1585607Y491184D02*
X1584314D01*
X1583119Y490689D01*
X1582205Y489775D01*
X1581710Y488581D01*
Y487287D01*
X1582205Y486093D01*
X1583119Y485179D01*
X1584314Y484684D01*
X1585607D01*
X1586801Y485179D01*
X1587715Y486093D01*
X1588210Y487287D01*
Y488581D01*
X1587715Y489775D01*
X1586801Y490689D01*
X1585607Y491184D01*
D02*
G37*
G36*
X1679895Y484120D02*
X1678602D01*
X1677407Y483625D01*
X1676493Y482711D01*
X1675998Y481516D01*
Y480224D01*
X1676493Y479029D01*
X1677407Y478115D01*
X1678602Y477620D01*
X1679895D01*
X1681089Y478115D01*
X1682003Y479029D01*
X1682498Y480224D01*
Y481516D01*
X1682003Y482711D01*
X1681089Y483625D01*
X1679895Y484120D01*
D02*
G37*
G36*
X1687715Y482040D02*
X1686422D01*
X1685227Y481545D01*
X1684313Y480631D01*
X1683818Y479436D01*
Y478144D01*
X1684313Y476949D01*
X1685227Y476035D01*
X1686422Y475540D01*
X1687715D01*
X1688909Y476035D01*
X1689823Y476949D01*
X1690318Y478144D01*
Y479436D01*
X1689823Y480631D01*
X1688909Y481545D01*
X1687715Y482040D01*
D02*
G37*
G36*
X1644789Y479754D02*
X1643495D01*
X1642301Y479259D01*
X1641387Y478345D01*
X1640892Y477150D01*
Y475858D01*
X1641387Y474663D01*
X1642301Y473749D01*
X1643495Y473254D01*
X1644789D01*
X1645983Y473749D01*
X1646897Y474663D01*
X1647392Y475858D01*
Y477150D01*
X1646897Y478345D01*
X1645983Y479259D01*
X1644789Y479754D01*
D02*
G37*
G36*
X1663076Y471978D02*
X1661783D01*
X1660589Y471483D01*
X1659675Y470569D01*
X1659180Y469375D01*
Y468082D01*
X1659675Y466887D01*
X1660589Y465973D01*
X1661783Y465478D01*
X1663076D01*
X1664271Y465973D01*
X1665185Y466887D01*
X1665680Y468082D01*
Y469375D01*
X1665185Y470569D01*
X1664271Y471483D01*
X1663076Y471978D01*
D02*
G37*
G36*
X1635232Y471213D02*
X1633939D01*
X1632745Y470719D01*
X1631830Y469804D01*
X1631335Y468610D01*
Y467317D01*
X1631830Y466123D01*
X1632745Y465208D01*
X1633939Y464714D01*
X1635232D01*
X1636427Y465208D01*
X1637341Y466123D01*
X1637836Y467317D01*
Y468610D01*
X1637341Y469804D01*
X1636427Y470719D01*
X1635232Y471213D01*
D02*
G37*
G36*
X1645551Y469086D02*
X1644258D01*
X1643063Y468591D01*
X1642149Y467677D01*
X1641654Y466483D01*
Y465190D01*
X1642149Y463995D01*
X1643063Y463081D01*
X1644258Y462586D01*
X1645551D01*
X1646745Y463081D01*
X1647659Y463995D01*
X1648154Y465190D01*
Y466483D01*
X1647659Y467677D01*
X1646745Y468591D01*
X1645551Y469086D01*
D02*
G37*
G36*
X1705240Y474940D02*
X1703947D01*
X1702753Y474446D01*
X1701839Y473531D01*
X1701344Y472337D01*
Y471044D01*
X1701839Y469849D01*
X1702753Y468935D01*
X1703053Y467436D01*
X1702868Y466991D01*
Y465698D01*
X1703363Y464503D01*
X1704277Y463589D01*
X1705471Y463094D01*
X1706765D01*
X1707595Y463438D01*
X1707891Y462725D01*
X1708805Y461811D01*
X1710000Y461316D01*
X1711293D01*
X1712487Y461811D01*
X1713401Y462725D01*
X1713896Y463919D01*
Y464872D01*
X1714639D01*
X1715833Y465367D01*
X1715864Y465397D01*
X1717303Y465041D01*
X1717993Y464351D01*
X1719187Y463856D01*
X1720480D01*
X1721132Y464126D01*
X1721397Y463487D01*
X1722311Y462573D01*
X1723506Y462078D01*
X1724798D01*
X1725993Y462573D01*
X1726311Y462891D01*
X1726959Y462243D01*
X1728154Y461748D01*
X1729447D01*
X1730641Y462243D01*
X1731555Y463157D01*
X1731620Y463170D01*
X1732471Y462319D01*
X1733665Y461824D01*
X1734958D01*
X1736153Y462319D01*
X1737067Y463233D01*
X1737562Y464427D01*
Y465720D01*
X1737067Y466915D01*
X1736153Y467829D01*
X1734958Y468324D01*
X1733665D01*
X1732471Y467829D01*
X1731557Y466915D01*
X1731492Y466902D01*
X1730641Y467753D01*
X1729447Y468248D01*
X1728154D01*
X1726959Y467753D01*
X1726641Y467435D01*
X1725993Y468083D01*
X1724798Y468578D01*
X1723506D01*
X1722854Y468308D01*
X1722589Y468947D01*
X1721675Y469861D01*
X1720480Y470356D01*
X1719187D01*
X1717993Y469861D01*
X1717962Y469831D01*
X1716523Y470187D01*
X1715833Y470877D01*
X1714639Y471372D01*
X1713345D01*
X1712151Y470877D01*
X1711237Y469963D01*
X1710742Y468769D01*
Y467816D01*
X1710000D01*
X1709169Y467472D01*
X1708873Y468185D01*
X1707959Y469099D01*
X1707659Y470598D01*
X1707844Y471044D01*
Y472337D01*
X1707349Y473531D01*
X1706435Y474446D01*
X1705240Y474940D01*
D02*
G37*
G36*
X1693896Y463563D02*
X1692603D01*
X1691409Y463069D01*
X1690495Y462155D01*
X1690000Y460960D01*
Y459667D01*
X1690495Y458473D01*
X1691409Y457558D01*
X1692603Y457063D01*
X1693896D01*
X1695091Y457558D01*
X1696005Y458473D01*
X1696500Y459667D01*
Y460960D01*
X1696005Y462155D01*
X1695091Y463069D01*
X1693896Y463563D01*
D02*
G37*
G36*
X1673999Y463446D02*
X1672706D01*
X1671511Y462951D01*
X1670597Y462037D01*
X1670102Y460843D01*
Y459550D01*
X1670597Y458355D01*
X1671511Y457441D01*
X1672706Y456946D01*
X1673999D01*
X1675193Y457441D01*
X1676107Y458355D01*
X1676602Y459550D01*
Y460843D01*
X1676107Y462037D01*
X1675193Y462951D01*
X1673999Y463446D01*
D02*
G37*
G36*
X1663076D02*
X1661783D01*
X1660589Y462951D01*
X1659675Y462037D01*
X1659180Y460843D01*
Y459550D01*
X1659675Y458355D01*
X1660589Y457441D01*
X1661783Y456946D01*
X1663076D01*
X1664271Y457441D01*
X1665185Y458355D01*
X1665680Y459550D01*
Y460843D01*
X1665185Y462037D01*
X1664271Y462951D01*
X1663076Y463446D01*
D02*
G37*
G36*
X1639032Y461298D02*
X1637740D01*
X1636545Y460803D01*
X1635631Y459889D01*
X1635136Y458694D01*
Y457402D01*
X1635631Y456207D01*
X1636545Y455293D01*
X1637740Y454798D01*
X1639032D01*
X1640227Y455293D01*
X1641141Y456207D01*
X1641636Y457402D01*
Y458694D01*
X1641141Y459889D01*
X1640227Y460803D01*
X1639032Y461298D01*
D02*
G37*
G36*
X1593290Y460044D02*
X1591997D01*
X1590802Y459549D01*
X1589888Y458635D01*
X1589393Y457440D01*
Y456147D01*
X1589888Y454953D01*
X1590802Y454039D01*
X1591997Y453544D01*
X1593290D01*
X1594484Y454039D01*
X1595398Y454953D01*
X1595893Y456147D01*
Y457440D01*
X1595398Y458635D01*
X1594484Y459549D01*
X1593290Y460044D01*
D02*
G37*
G36*
X1576208Y458932D02*
X1574915D01*
X1573721Y458437D01*
X1572807Y457523D01*
X1572312Y456328D01*
Y455036D01*
X1572807Y453841D01*
X1573721Y452927D01*
X1574915Y452432D01*
X1576208D01*
X1577403Y452927D01*
X1578317Y453841D01*
X1578812Y455036D01*
Y456328D01*
X1578317Y457523D01*
X1577403Y458437D01*
X1576208Y458932D01*
D02*
G37*
G36*
X1612937Y456042D02*
X1611644D01*
X1610450Y455548D01*
X1609535Y454633D01*
X1609041Y453439D01*
Y452146D01*
X1609535Y450951D01*
X1610450Y450037D01*
X1611644Y449543D01*
X1612937D01*
X1614131Y450037D01*
X1615046Y450951D01*
X1615540Y452146D01*
Y453439D01*
X1615046Y454633D01*
X1614131Y455548D01*
X1612937Y456042D01*
D02*
G37*
G36*
X1629052Y460112D02*
X1627759D01*
X1626565Y459618D01*
X1625650Y458703D01*
X1625156Y457509D01*
Y456216D01*
X1623982Y455846D01*
X1623906D01*
X1622712Y455352D01*
X1621797Y454437D01*
X1621303Y453243D01*
Y451950D01*
X1621797Y450756D01*
X1622712Y449841D01*
X1623906Y449347D01*
X1625199D01*
X1626393Y449841D01*
X1627308Y450756D01*
X1627802Y451950D01*
Y453243D01*
X1628976Y453613D01*
X1629052D01*
X1630247Y454107D01*
X1631161Y455022D01*
X1631656Y456216D01*
Y457509D01*
X1631161Y458703D01*
X1630247Y459618D01*
X1629052Y460112D01*
D02*
G37*
G36*
X1759850Y453592D02*
X1758557D01*
X1757363Y453097D01*
X1756449Y452183D01*
X1755954Y450989D01*
Y449696D01*
X1756449Y448501D01*
X1757363Y447587D01*
X1758557Y447092D01*
X1759850D01*
X1761045Y447587D01*
X1761959Y448501D01*
X1762454Y449696D01*
Y450989D01*
X1761959Y452183D01*
X1761045Y453097D01*
X1759850Y453592D01*
D02*
G37*
G36*
X1646821Y445718D02*
X1645527D01*
X1644333Y445223D01*
X1643419Y444309D01*
X1642924Y443115D01*
Y441822D01*
X1643419Y440627D01*
X1644333Y439713D01*
X1645527Y439218D01*
X1646821D01*
X1648015Y439713D01*
X1648929Y440627D01*
X1649424Y441822D01*
Y443115D01*
X1648929Y444309D01*
X1648015Y445223D01*
X1646821Y445718D01*
D02*
G37*
G36*
X1619633Y444677D02*
X1618340D01*
X1617145Y444182D01*
X1616231Y443268D01*
X1615736Y442074D01*
Y440781D01*
X1616231Y439586D01*
X1617145Y438672D01*
X1618340Y438177D01*
X1619633D01*
X1620827Y438672D01*
X1621741Y439586D01*
X1622236Y440781D01*
Y442074D01*
X1621741Y443268D01*
X1620827Y444182D01*
X1619633Y444677D01*
D02*
G37*
G36*
X1679079Y445626D02*
X1677785D01*
X1676591Y445131D01*
X1675677Y444217D01*
X1675182Y443022D01*
Y441730D01*
X1675677Y440535D01*
X1676591Y439621D01*
X1677785Y439126D01*
X1679078D01*
X1679246Y439014D01*
Y438428D01*
X1679741Y437233D01*
X1680655Y436319D01*
X1681850Y435824D01*
X1683143D01*
X1684337Y436319D01*
X1685251Y437233D01*
X1685746Y438428D01*
Y439720D01*
X1685251Y440915D01*
X1684337Y441829D01*
X1683143Y442324D01*
X1681850D01*
X1681682Y442436D01*
Y443022D01*
X1681187Y444217D01*
X1680273Y445131D01*
X1679079Y445626D01*
D02*
G37*
G36*
X1525243Y444550D02*
X1523057D01*
X1520946Y443984D01*
X1519054Y442892D01*
X1517508Y441346D01*
X1516416Y439454D01*
X1515850Y437343D01*
Y435157D01*
X1516416Y433046D01*
X1517508Y431154D01*
X1519054Y429608D01*
X1520946Y428516D01*
X1523057Y427950D01*
X1525243D01*
X1527354Y428516D01*
X1529246Y429608D01*
X1530792Y431154D01*
X1531884Y433046D01*
X1532450Y435157D01*
Y437343D01*
X1531884Y439454D01*
X1530792Y441346D01*
X1529246Y442892D01*
X1527354Y443984D01*
X1525243Y444550D01*
D02*
G37*
G36*
X1659012Y433526D02*
X1657720D01*
X1656525Y433031D01*
X1655611Y432117D01*
X1655116Y430923D01*
Y429630D01*
X1655611Y428435D01*
X1656525Y427521D01*
X1657720Y427026D01*
X1659012D01*
X1660207Y427521D01*
X1661121Y428435D01*
X1661616Y429630D01*
Y430923D01*
X1661121Y432117D01*
X1660207Y433031D01*
X1659012Y433526D01*
D02*
G37*
G36*
X1756426Y431540D02*
X1755134D01*
X1753939Y431045D01*
X1753025Y430131D01*
X1752530Y428937D01*
Y427644D01*
X1753025Y426449D01*
X1753939Y425535D01*
X1755134Y425040D01*
X1756426D01*
X1757621Y425535D01*
X1758535Y426449D01*
X1759030Y427644D01*
Y428937D01*
X1758535Y430131D01*
X1757621Y431045D01*
X1756426Y431540D01*
D02*
G37*
G36*
X1629294Y429946D02*
X1628002D01*
X1626807Y429451D01*
X1625893Y428537D01*
X1625398Y427342D01*
Y426049D01*
X1625893Y424855D01*
X1626807Y423941D01*
X1628002Y423446D01*
X1629294D01*
X1630489Y423941D01*
X1631403Y424855D01*
X1631898Y426049D01*
Y427342D01*
X1631403Y428537D01*
X1630489Y429451D01*
X1629294Y429946D01*
D02*
G37*
G36*
X1614308D02*
X1613015D01*
X1611821Y429451D01*
X1610907Y428537D01*
X1610412Y427342D01*
Y426049D01*
X1610907Y424855D01*
X1611821Y423941D01*
X1613015Y423446D01*
X1614308D01*
X1615503Y423941D01*
X1616417Y424855D01*
X1616912Y426049D01*
Y427342D01*
X1616417Y428537D01*
X1615503Y429451D01*
X1614308Y429946D01*
D02*
G37*
G36*
X1503541Y429520D02*
X1503285D01*
Y423385D01*
X1509420D01*
Y423641D01*
X1508959Y425363D01*
X1508067Y426907D01*
X1506807Y428167D01*
X1505263Y429059D01*
X1503541Y429520D01*
D02*
G37*
G36*
X1502015D02*
X1501759D01*
X1500037Y429059D01*
X1498493Y428167D01*
X1497233Y426907D01*
X1496341Y425363D01*
X1495880Y423641D01*
Y423385D01*
X1502015D01*
Y429520D01*
D02*
G37*
G36*
X1546541D02*
X1546285D01*
Y423385D01*
X1552420D01*
Y423641D01*
X1551959Y425363D01*
X1551067Y426907D01*
X1549807Y428167D01*
X1548263Y429059D01*
X1546541Y429520D01*
D02*
G37*
G36*
X1545015D02*
X1544759D01*
X1543037Y429059D01*
X1541493Y428167D01*
X1540233Y426907D01*
X1539341Y425363D01*
X1538880Y423641D01*
Y423385D01*
X1545015D01*
Y429520D01*
D02*
G37*
G36*
X1584337Y428446D02*
X1583044D01*
X1581849Y427951D01*
X1580935Y427037D01*
X1580440Y425843D01*
Y424549D01*
X1580935Y423355D01*
X1581849Y422441D01*
X1583044Y421946D01*
X1584337D01*
X1585531Y422441D01*
X1586445Y423355D01*
X1586940Y424549D01*
Y425843D01*
X1586445Y427037D01*
X1585531Y427951D01*
X1584337Y428446D01*
D02*
G37*
G36*
X1604422Y427918D02*
X1603129D01*
X1601935Y427423D01*
X1601021Y426509D01*
X1600526Y425314D01*
Y424022D01*
X1601021Y422827D01*
X1601935Y421913D01*
X1603129Y421418D01*
X1604422D01*
X1605617Y421913D01*
X1606531Y422827D01*
X1607026Y424022D01*
Y425314D01*
X1606531Y426509D01*
X1605617Y427423D01*
X1604422Y427918D01*
D02*
G37*
G36*
X1533509Y421399D02*
X1532216D01*
X1531021Y420904D01*
X1530322Y420205D01*
X1529623Y420904D01*
X1528429Y421399D01*
X1527136D01*
X1525941Y420904D01*
X1525027Y419990D01*
X1524607Y418976D01*
X1524262Y418924D01*
X1523683D01*
X1523337Y418976D01*
X1522917Y419990D01*
X1522003Y420904D01*
X1520809Y421399D01*
X1519516D01*
X1518321Y420904D01*
X1517622Y420205D01*
X1516923Y420904D01*
X1515729Y421399D01*
X1514436D01*
X1513241Y420904D01*
X1512327Y419990D01*
X1511832Y418795D01*
Y417502D01*
X1512327Y416308D01*
X1513241Y415393D01*
X1514436Y414899D01*
X1515729D01*
X1516923Y415393D01*
X1517622Y416092D01*
X1518321Y415393D01*
X1519516Y414899D01*
X1520809D01*
X1522003Y415393D01*
X1522917Y416308D01*
X1523337Y417321D01*
X1523683Y417374D01*
X1524262D01*
X1524607Y417321D01*
X1525027Y416308D01*
X1525941Y415393D01*
X1527136Y414899D01*
X1528429D01*
X1529623Y415393D01*
X1530322Y416092D01*
X1531021Y415393D01*
X1532216Y414899D01*
X1533509D01*
X1534703Y415393D01*
X1535618Y416308D01*
X1536112Y417502D01*
Y418795D01*
X1535618Y419990D01*
X1534703Y420904D01*
X1533509Y421399D01*
D02*
G37*
G36*
X1552420Y422115D02*
X1546285D01*
Y415980D01*
X1546541D01*
X1548263Y416441D01*
X1549807Y417333D01*
X1551067Y418593D01*
X1551959Y420137D01*
X1552420Y421859D01*
Y422115D01*
D02*
G37*
G36*
X1545015D02*
X1538880D01*
Y421859D01*
X1539341Y420137D01*
X1540233Y418593D01*
X1541493Y417333D01*
X1543037Y416441D01*
X1544759Y415980D01*
X1545015D01*
Y422115D01*
D02*
G37*
G36*
X1681057Y429621D02*
X1679764D01*
X1678570Y429126D01*
X1677655Y428212D01*
X1677161Y427018D01*
Y425725D01*
X1677405Y425135D01*
X1676845Y424903D01*
X1675931Y423989D01*
X1675436Y422794D01*
Y421502D01*
X1675931Y420307D01*
X1676845Y419393D01*
X1676987Y419334D01*
X1677976Y418476D01*
Y417184D01*
X1677141Y415882D01*
X1676845Y415759D01*
X1676531Y415445D01*
X1675695Y415803D01*
X1675363Y416074D01*
Y417238D01*
X1674869Y418432D01*
X1673954Y419347D01*
X1672760Y419841D01*
X1671467D01*
X1670273Y419347D01*
X1669358Y418432D01*
X1668864Y417238D01*
Y415945D01*
X1669358Y414751D01*
X1670273Y413836D01*
X1671467Y413341D01*
X1672760D01*
X1673954Y413836D01*
X1674268Y414150D01*
X1675104Y413792D01*
X1675436Y413522D01*
Y412357D01*
X1675931Y411163D01*
X1676845Y410249D01*
X1678040Y409754D01*
X1679332D01*
X1680527Y410249D01*
X1681441Y411163D01*
X1681936Y412357D01*
Y413650D01*
X1682771Y414952D01*
X1683067Y415075D01*
X1683981Y415989D01*
X1684476Y417183D01*
Y418476D01*
X1683981Y419671D01*
X1683067Y420585D01*
X1682925Y420644D01*
X1681936Y421502D01*
Y422794D01*
X1681692Y423384D01*
X1682251Y423616D01*
X1683166Y424530D01*
X1683660Y425725D01*
Y427018D01*
X1683166Y428212D01*
X1682251Y429126D01*
X1681057Y429621D01*
D02*
G37*
G36*
X1509420Y422115D02*
X1502650D01*
X1495880D01*
Y421859D01*
X1496341Y420137D01*
X1497233Y418593D01*
X1498493Y417333D01*
X1499546Y416725D01*
X1499631Y415484D01*
X1499497Y415363D01*
X1498465Y414941D01*
X1498155Y415251D01*
X1496960Y415746D01*
X1495668D01*
X1494473Y415251D01*
X1493559Y414337D01*
X1493064Y413143D01*
Y411850D01*
X1493559Y410655D01*
X1493809Y410405D01*
X1494362Y409575D01*
X1493809Y408745D01*
X1493559Y408495D01*
X1493064Y407300D01*
Y406007D01*
X1493559Y404813D01*
X1494473Y403899D01*
X1495668Y403404D01*
X1496960D01*
X1498155Y403899D01*
X1498854Y404598D01*
X1499553Y403899D01*
X1500748Y403404D01*
X1501286D01*
X1502147Y402178D01*
X1501954Y401712D01*
Y400420D01*
X1502449Y399225D01*
X1503363Y398311D01*
X1504557Y397816D01*
X1505851D01*
X1507045Y398311D01*
X1507959Y399225D01*
X1508454Y400420D01*
Y401712D01*
X1507959Y402907D01*
X1507045Y403821D01*
X1505851Y404316D01*
X1505311D01*
X1504451Y405542D01*
X1504644Y406007D01*
Y407300D01*
X1504149Y408495D01*
X1503899Y408745D01*
X1503346Y409575D01*
X1503899Y410405D01*
X1504149Y410655D01*
X1504644Y411850D01*
Y413143D01*
X1504149Y414337D01*
X1503712Y414774D01*
X1504141Y416141D01*
X1505263Y416441D01*
X1506807Y417333D01*
X1508067Y418593D01*
X1508959Y420137D01*
X1509420Y421859D01*
Y422115D01*
D02*
G37*
G36*
X1607197Y414476D02*
X1605903D01*
X1604709Y413981D01*
X1603883Y413155D01*
X1603057Y413981D01*
X1601862Y414476D01*
X1600569D01*
X1599375Y413981D01*
X1598461Y413067D01*
X1597966Y411872D01*
Y410579D01*
X1598461Y409385D01*
X1599375Y408471D01*
X1600569Y407976D01*
X1601862D01*
X1603057Y408471D01*
X1603883Y409297D01*
X1604709Y408471D01*
X1605903Y407976D01*
X1607197D01*
X1608391Y408471D01*
X1609305Y409385D01*
X1609800Y410579D01*
Y411872D01*
X1609305Y413067D01*
X1608391Y413981D01*
X1607197Y414476D01*
D02*
G37*
G36*
X1583067Y414222D02*
X1581774D01*
X1580579Y413727D01*
X1579665Y412813D01*
X1579170Y411618D01*
Y410326D01*
X1579665Y409131D01*
X1580579Y408217D01*
X1581774Y407722D01*
X1583067D01*
X1584261Y408217D01*
X1585175Y409131D01*
X1585670Y410326D01*
Y411618D01*
X1585175Y412813D01*
X1584261Y413727D01*
X1583067Y414222D01*
D02*
G37*
G36*
X1682109Y406983D02*
X1680816D01*
X1679621Y406488D01*
X1678707Y405574D01*
X1678610Y405340D01*
X1678182Y405205D01*
X1677170Y405181D01*
X1676480Y405871D01*
X1675286Y406365D01*
X1673993D01*
X1672798Y405871D01*
X1671884Y404956D01*
X1671389Y403762D01*
Y402469D01*
X1671884Y401274D01*
X1672798Y400360D01*
X1673993Y399865D01*
X1675286D01*
X1676480Y400360D01*
X1677395Y401274D01*
X1677491Y401508D01*
X1677920Y401643D01*
X1678932Y401667D01*
X1679621Y400977D01*
X1680816Y400483D01*
X1682109D01*
X1683303Y400977D01*
X1684218Y401892D01*
X1684712Y403086D01*
Y404379D01*
X1684218Y405574D01*
X1683303Y406488D01*
X1682109Y406983D01*
D02*
G37*
G36*
X1664854Y414222D02*
X1663562D01*
X1662367Y413727D01*
X1661453Y412813D01*
X1660958Y411618D01*
Y410326D01*
X1661453Y409131D01*
X1662367Y408217D01*
X1663562Y407722D01*
X1664514D01*
Y406769D01*
X1665009Y405575D01*
X1665923Y404661D01*
X1667117Y404166D01*
X1668410D01*
X1669605Y404661D01*
X1670519Y405575D01*
X1671014Y406769D01*
Y408063D01*
X1670519Y409257D01*
X1669605Y410171D01*
X1668410Y410666D01*
X1667458D01*
Y411618D01*
X1666963Y412813D01*
X1666049Y413727D01*
X1664854Y414222D01*
D02*
G37*
G36*
X1573964Y406807D02*
X1572671D01*
X1571476Y406312D01*
X1570562Y405398D01*
X1570067Y404203D01*
Y402910D01*
X1570562Y401716D01*
X1571476Y400802D01*
X1572671Y400307D01*
X1573964D01*
X1575158Y400802D01*
X1576073Y401716D01*
X1576568Y402910D01*
Y404203D01*
X1576073Y405398D01*
X1575158Y406312D01*
X1573964Y406807D01*
D02*
G37*
G36*
X1752738Y405586D02*
X1751445D01*
X1750251Y405091D01*
X1749337Y404177D01*
X1748842Y402982D01*
Y401689D01*
X1749337Y400495D01*
X1750052Y399780D01*
X1750065Y399697D01*
X1749188Y398813D01*
X1748167Y399236D01*
X1746873D01*
X1745679Y398741D01*
X1744765Y397827D01*
X1744270Y396632D01*
Y395340D01*
X1744765Y394145D01*
X1745679Y393231D01*
X1746873Y392736D01*
X1748167D01*
X1749361Y393231D01*
X1749679Y393549D01*
X1750251Y392977D01*
X1751445Y392482D01*
X1752738D01*
X1753933Y392977D01*
X1754847Y393891D01*
X1755342Y395085D01*
Y396379D01*
X1754847Y397573D01*
X1754132Y398288D01*
X1754017Y399034D01*
X1754132Y399780D01*
X1754847Y400495D01*
X1755342Y401689D01*
Y402982D01*
X1754847Y404177D01*
X1753933Y405091D01*
X1752738Y405586D01*
D02*
G37*
G36*
X1650376Y404570D02*
X1649084D01*
X1647889Y404075D01*
X1646975Y403161D01*
X1646480Y401967D01*
Y400673D01*
X1646975Y399479D01*
X1647889Y398565D01*
X1649084Y398070D01*
X1650376D01*
X1651571Y398565D01*
X1652485Y399479D01*
X1652980Y400673D01*
Y401967D01*
X1652485Y403161D01*
X1651571Y404075D01*
X1650376Y404570D01*
D02*
G37*
G36*
X1690509Y403502D02*
X1689216D01*
X1688021Y403007D01*
X1687107Y402093D01*
X1686612Y400899D01*
Y399606D01*
X1687107Y398411D01*
X1688021Y397497D01*
X1689216Y397002D01*
X1690509D01*
X1691703Y397497D01*
X1692617Y398411D01*
X1693112Y399606D01*
Y400899D01*
X1692617Y402093D01*
X1691703Y403007D01*
X1690509Y403502D01*
D02*
G37*
G36*
X1502294Y395934D02*
X1501001D01*
X1499807Y395439D01*
X1499108Y394740D01*
X1498409Y395439D01*
X1497215Y395934D01*
X1495921D01*
X1494727Y395439D01*
X1493813Y394525D01*
X1493318Y393330D01*
Y392038D01*
X1493813Y390843D01*
X1494063Y390593D01*
X1494616Y389763D01*
X1494063Y388933D01*
X1493813Y388683D01*
X1493318Y387489D01*
Y386195D01*
X1493813Y385001D01*
X1494727Y384087D01*
X1495921Y383592D01*
X1497215D01*
X1498409Y384087D01*
X1499108Y384786D01*
X1499807Y384087D01*
X1501001Y383592D01*
X1502294D01*
X1503489Y384087D01*
X1504403Y385001D01*
X1504898Y386195D01*
Y387489D01*
X1504403Y388683D01*
X1504153Y388933D01*
X1503600Y389763D01*
X1504153Y390593D01*
X1504403Y390843D01*
X1504898Y392038D01*
Y393330D01*
X1504403Y394525D01*
X1503489Y395439D01*
X1502294Y395934D01*
D02*
G37*
G36*
X1613546Y407110D02*
X1612254D01*
X1611059Y406615D01*
X1610145Y405701D01*
X1609650Y404506D01*
Y403379D01*
X1609407Y402986D01*
X1608660Y402284D01*
X1607681D01*
X1606487Y401789D01*
X1605573Y400875D01*
X1605078Y399680D01*
Y398387D01*
X1605573Y397193D01*
X1606487Y396279D01*
X1607681Y395784D01*
X1608974D01*
X1609821Y394760D01*
X1609650Y394347D01*
Y393054D01*
X1610145Y391859D01*
X1611059Y390945D01*
X1612254Y390450D01*
X1613546D01*
X1614741Y390945D01*
X1615655Y391859D01*
X1616150Y393054D01*
Y394347D01*
X1615655Y395541D01*
X1614741Y396455D01*
X1613546Y396950D01*
X1612254D01*
X1611407Y397974D01*
X1611578Y398387D01*
Y399515D01*
X1611821Y399908D01*
X1612568Y400610D01*
X1613546D01*
X1614741Y401105D01*
X1615655Y402019D01*
X1616150Y403214D01*
Y404506D01*
X1615655Y405701D01*
X1614741Y406615D01*
X1613546Y407110D01*
D02*
G37*
G36*
X1573896Y396750D02*
X1572603D01*
X1571409Y396255D01*
X1570495Y395341D01*
X1570000Y394146D01*
Y392854D01*
X1570495Y391659D01*
X1571409Y390745D01*
X1572603Y390250D01*
X1573896D01*
X1575091Y390745D01*
X1576005Y391659D01*
X1576500Y392854D01*
Y394146D01*
X1576005Y395341D01*
X1575091Y396255D01*
X1573896Y396750D01*
D02*
G37*
G36*
X1627390Y405899D02*
X1625080D01*
X1622850Y405301D01*
X1620850Y404147D01*
X1619217Y402514D01*
X1618063Y400514D01*
X1617465Y398284D01*
Y395974D01*
X1618063Y393744D01*
X1619217Y391744D01*
X1620850Y390111D01*
X1622850Y388957D01*
X1625080Y388359D01*
X1627390D01*
X1629620Y388957D01*
X1631620Y390111D01*
X1633253Y391744D01*
X1634407Y393744D01*
X1635005Y395974D01*
Y398284D01*
X1634407Y400514D01*
X1633253Y402514D01*
X1631620Y404147D01*
X1629620Y405301D01*
X1627390Y405899D01*
D02*
G37*
G36*
X1768646Y393750D02*
X1767354D01*
X1766159Y393255D01*
X1765245Y392341D01*
X1764750Y391147D01*
Y389854D01*
X1765245Y388659D01*
X1766159Y387745D01*
X1767354Y387250D01*
X1768646D01*
X1769841Y387745D01*
X1770755Y388659D01*
X1771250Y389854D01*
Y391147D01*
X1770755Y392341D01*
X1769841Y393255D01*
X1768646Y393750D01*
D02*
G37*
G36*
X1658548Y401776D02*
X1657256D01*
X1656061Y401281D01*
X1655147Y400367D01*
X1654652Y399173D01*
Y397879D01*
X1655147Y396685D01*
X1655995Y395837D01*
X1656119Y394525D01*
X1655624Y393330D01*
Y392038D01*
X1656119Y390843D01*
X1657033Y389929D01*
X1657418Y389769D01*
X1658168Y388261D01*
X1658164Y388251D01*
Y387203D01*
X1657527Y386570D01*
X1657066Y386290D01*
X1656472Y386536D01*
X1655179D01*
X1653985Y386041D01*
X1653071Y385127D01*
X1652576Y383932D01*
Y382640D01*
X1653071Y381445D01*
X1653985Y380531D01*
X1655179Y380036D01*
X1656472D01*
X1657148Y380316D01*
X1658238Y379912D01*
X1658515Y379612D01*
X1658913Y378651D01*
X1659827Y377737D01*
X1661022Y377242D01*
X1662314D01*
X1663509Y377737D01*
X1664423Y378651D01*
X1664918Y379846D01*
Y381138D01*
X1664423Y382333D01*
X1663509Y383247D01*
X1663108Y383413D01*
Y384788D01*
X1663255Y384849D01*
X1664169Y385763D01*
X1664519Y386608D01*
X1665552Y386775D01*
X1665761Y386783D01*
X1665856Y386768D01*
X1666722Y385902D01*
X1667917Y385407D01*
X1669209D01*
X1670404Y385902D01*
X1671318Y386816D01*
X1671813Y388010D01*
Y389303D01*
X1671318Y390498D01*
X1670404Y391412D01*
X1669209Y391907D01*
X1668511D01*
Y392605D01*
X1668016Y393800D01*
X1667102Y394714D01*
X1665907Y395209D01*
X1664615D01*
X1663420Y394714D01*
X1663070Y394365D01*
X1661636Y394524D01*
X1661600Y394554D01*
X1660781Y395373D01*
X1660657Y396685D01*
X1661152Y397879D01*
Y399173D01*
X1660657Y400367D01*
X1659743Y401281D01*
X1658548Y401776D01*
D02*
G37*
G36*
X1544458Y399236D02*
X1543165D01*
X1541971Y398741D01*
X1541057Y397827D01*
X1540562Y396632D01*
Y395340D01*
X1541057Y394145D01*
X1541971Y393231D01*
X1542266Y393109D01*
X1541832Y392061D01*
Y390854D01*
X1541642D01*
X1540447Y390359D01*
X1539533Y389445D01*
X1539038Y388251D01*
Y386958D01*
X1539533Y385763D01*
X1540447Y384849D01*
X1541642Y384354D01*
X1542935D01*
X1544129Y384849D01*
X1544506Y385226D01*
X1545336Y385623D01*
X1546166Y385226D01*
X1546543Y384849D01*
X1547737Y384354D01*
X1549030D01*
X1550225Y384849D01*
X1551139Y385763D01*
X1551634Y386958D01*
Y387910D01*
X1552841D01*
X1554035Y388405D01*
X1554949Y389319D01*
X1555444Y390513D01*
Y391806D01*
X1554949Y393001D01*
X1554035Y393915D01*
X1552841Y394410D01*
X1551548D01*
X1550353Y393915D01*
X1549439Y393001D01*
X1549378Y392854D01*
X1548003D01*
X1547837Y393255D01*
X1546923Y394169D01*
X1546628Y394291D01*
X1547062Y395340D01*
Y396632D01*
X1546567Y397827D01*
X1545653Y398741D01*
X1544458Y399236D01*
D02*
G37*
G36*
X1698105Y388290D02*
X1696812D01*
X1695617Y387795D01*
X1694703Y386881D01*
X1694208Y385687D01*
Y384394D01*
X1694703Y383199D01*
X1695617Y382285D01*
X1696812Y381790D01*
X1698105D01*
X1699299Y382285D01*
X1699711Y382696D01*
X1700761Y382914D01*
X1701304Y382631D01*
X1701891Y382044D01*
X1703085Y381549D01*
X1704378D01*
X1705573Y382044D01*
X1706487Y382958D01*
X1706982Y384153D01*
Y385446D01*
X1706487Y386640D01*
X1705573Y387555D01*
X1704378Y388049D01*
X1703085D01*
X1701891Y387555D01*
X1701479Y387143D01*
X1700429Y386926D01*
X1699886Y387209D01*
X1699299Y387795D01*
X1698105Y388290D01*
D02*
G37*
G36*
X1686931Y391160D02*
X1685638D01*
X1684444Y390665D01*
X1683530Y389751D01*
X1683035Y388556D01*
Y387263D01*
X1683530Y386069D01*
X1684444Y385155D01*
X1685638Y384660D01*
X1686104D01*
Y383656D01*
X1686599Y382461D01*
X1687513Y381547D01*
X1688707Y381052D01*
X1690000D01*
X1691195Y381547D01*
X1692109Y382461D01*
X1692604Y383656D01*
Y384949D01*
X1692109Y386143D01*
X1691195Y387057D01*
X1690000Y387552D01*
X1689535D01*
Y388556D01*
X1689040Y389751D01*
X1688126Y390665D01*
X1686931Y391160D01*
D02*
G37*
G36*
X1566048Y386282D02*
X1564756D01*
X1563561Y385787D01*
X1562647Y384873D01*
X1562152Y383679D01*
Y382385D01*
X1562647Y381191D01*
X1563561Y380277D01*
X1564756Y379782D01*
X1566048D01*
X1567243Y380277D01*
X1568157Y381191D01*
X1568652Y382385D01*
Y383679D01*
X1568157Y384873D01*
X1567243Y385787D01*
X1566048Y386282D01*
D02*
G37*
G36*
X1503541Y381520D02*
X1503285D01*
Y375385D01*
X1509420D01*
Y375641D01*
X1508959Y377363D01*
X1508067Y378907D01*
X1506807Y380167D01*
X1505263Y381059D01*
X1503541Y381520D01*
D02*
G37*
G36*
X1502015D02*
X1501759D01*
X1500037Y381059D01*
X1498493Y380167D01*
X1497233Y378907D01*
X1496341Y377363D01*
X1495880Y375641D01*
Y375385D01*
X1502015D01*
Y381520D01*
D02*
G37*
G36*
X1546541D02*
X1546285D01*
Y375385D01*
X1552420D01*
Y375641D01*
X1551959Y377363D01*
X1551067Y378907D01*
X1549807Y380167D01*
X1548263Y381059D01*
X1546541Y381520D01*
D02*
G37*
G36*
X1545015D02*
X1544759D01*
X1543037Y381059D01*
X1541493Y380167D01*
X1540233Y378907D01*
X1539341Y377363D01*
X1538880Y375641D01*
Y375385D01*
X1545015D01*
Y381520D01*
D02*
G37*
G36*
X1557666Y382218D02*
X1556373D01*
X1555179Y381723D01*
X1554265Y380809D01*
X1553770Y379614D01*
Y378321D01*
X1554265Y377127D01*
X1555179Y376213D01*
X1555453Y376099D01*
Y374725D01*
X1555179Y374611D01*
X1554265Y373697D01*
X1553770Y372503D01*
Y371209D01*
X1554265Y370015D01*
X1555179Y369101D01*
X1556373Y368606D01*
X1557666D01*
X1558861Y369101D01*
X1559775Y370015D01*
X1560270Y371209D01*
Y372503D01*
X1559775Y373697D01*
X1558861Y374611D01*
X1558587Y374725D01*
Y376099D01*
X1558861Y376213D01*
X1559775Y377127D01*
X1560270Y378321D01*
Y379614D01*
X1559775Y380809D01*
X1558861Y381723D01*
X1557666Y382218D01*
D02*
G37*
G36*
X1552420Y374115D02*
X1546285D01*
Y367980D01*
X1546541D01*
X1548263Y368441D01*
X1549807Y369333D01*
X1551067Y370593D01*
X1551959Y372137D01*
X1552420Y373859D01*
Y374115D01*
D02*
G37*
G36*
X1545015D02*
X1538880D01*
Y373859D01*
X1539341Y372137D01*
X1540233Y370593D01*
X1541493Y369333D01*
X1543037Y368441D01*
X1544759Y367980D01*
X1545015D01*
Y374115D01*
D02*
G37*
G36*
X1509420Y374115D02*
X1503285D01*
Y367980D01*
X1503541D01*
X1505263Y368441D01*
X1506807Y369333D01*
X1508067Y370593D01*
X1508959Y372137D01*
X1509420Y373859D01*
Y374115D01*
D02*
G37*
G36*
X1502015D02*
X1495880D01*
Y373859D01*
X1496341Y372137D01*
X1497233Y370593D01*
X1498493Y369333D01*
X1500037Y368441D01*
X1501759Y367980D01*
X1502015D01*
Y374115D01*
D02*
G37*
G36*
X1693823Y375628D02*
X1692530D01*
X1691335Y375133D01*
X1690421Y374218D01*
X1689926Y373024D01*
Y371824D01*
X1689487D01*
X1688293Y371329D01*
X1687379Y370415D01*
X1686884Y369221D01*
Y367928D01*
X1687379Y366733D01*
X1688293Y365819D01*
X1689487Y365324D01*
X1690780D01*
X1691975Y365819D01*
X1692889Y366733D01*
X1693384Y367928D01*
Y369128D01*
X1693823D01*
X1695017Y369622D01*
X1695932Y370536D01*
X1696426Y371731D01*
Y373024D01*
X1695932Y374218D01*
X1695017Y375133D01*
X1693823Y375628D01*
D02*
G37*
G36*
X1698688Y365304D02*
X1697395D01*
X1696201Y364809D01*
X1695287Y363895D01*
X1694792Y362701D01*
Y361408D01*
X1695287Y360213D01*
X1696201Y359299D01*
X1697395Y358804D01*
X1698688D01*
X1699883Y359299D01*
X1700797Y360213D01*
X1701292Y361408D01*
Y362701D01*
X1700797Y363895D01*
X1699883Y364809D01*
X1698688Y365304D01*
D02*
G37*
G36*
X1604402Y380186D02*
X1603109D01*
X1601915Y379691D01*
X1601001Y378777D01*
X1600506Y377583D01*
Y376289D01*
X1601001Y375095D01*
X1601915Y374181D01*
X1603109Y373686D01*
X1604010D01*
X1604089Y373306D01*
X1603363Y372058D01*
X1602169Y371563D01*
X1601255Y370649D01*
X1600760Y369454D01*
Y368162D01*
X1601255Y366967D01*
X1602169Y366053D01*
X1602750Y365812D01*
Y364438D01*
X1602169Y364197D01*
X1601255Y363283D01*
X1600760Y362089D01*
Y360796D01*
X1601255Y359601D01*
X1602169Y358687D01*
X1603363Y358192D01*
X1604657D01*
X1605615Y358589D01*
X1606648Y358528D01*
X1607048Y358449D01*
X1607097Y358331D01*
X1608011Y357417D01*
X1609205Y356922D01*
X1610499D01*
X1611693Y357417D01*
X1612607Y358331D01*
X1613102Y359525D01*
Y359603D01*
X1614032Y360224D01*
X1615325D01*
X1616519Y360719D01*
X1617433Y361633D01*
X1617928Y362827D01*
Y364120D01*
X1617433Y365315D01*
X1616861Y365887D01*
X1617433Y366459D01*
X1617928Y367654D01*
Y368946D01*
X1617433Y370141D01*
X1616519Y371055D01*
X1615325Y371550D01*
X1614032D01*
X1612837Y371055D01*
X1611923Y370141D01*
X1611428Y368946D01*
Y367654D01*
X1611434Y367640D01*
X1610321Y367093D01*
X1609407Y368007D01*
X1608212Y368502D01*
X1607946D01*
X1607908Y368606D01*
X1608212Y369876D01*
X1609407Y370371D01*
X1610321Y371285D01*
X1610816Y372480D01*
Y373773D01*
X1610321Y374967D01*
X1609407Y375881D01*
X1608212Y376376D01*
X1607006D01*
Y377583D01*
X1606511Y378777D01*
X1605597Y379691D01*
X1604402Y380186D01*
D02*
G37*
G36*
X1525294Y367000D02*
X1523006D01*
X1520893Y366125D01*
X1519275Y364507D01*
X1518400Y362394D01*
Y360106D01*
X1519275Y357993D01*
X1520893Y356375D01*
X1523006Y355500D01*
X1525294D01*
X1527407Y356375D01*
X1529025Y357993D01*
X1529900Y360106D01*
Y362394D01*
X1529025Y364507D01*
X1527407Y366125D01*
X1525294Y367000D01*
D02*
G37*
G36*
X1685832Y362129D02*
X1684539D01*
X1683344Y361634D01*
X1682430Y360720D01*
X1681935Y359526D01*
Y358233D01*
X1682430Y357038D01*
X1683344Y356124D01*
X1684418Y355679D01*
Y354792D01*
X1684913Y353597D01*
X1685827Y352683D01*
X1687022Y352188D01*
X1688315D01*
X1689509Y352683D01*
X1690423Y353597D01*
X1690918Y354792D01*
Y356085D01*
X1690423Y357279D01*
X1689509Y358193D01*
X1688435Y358638D01*
Y359526D01*
X1687941Y360720D01*
X1687026Y361634D01*
X1685832Y362129D01*
D02*
G37*
G36*
X1640343Y342594D02*
X1639050D01*
X1637856Y342099D01*
X1636942Y341185D01*
X1635590Y341241D01*
X1635390Y341324D01*
X1634097D01*
X1632903Y340829D01*
X1631989Y339915D01*
X1631494Y338721D01*
Y337427D01*
X1631854Y336559D01*
X1631125Y336257D01*
X1630211Y335343D01*
X1629716Y334148D01*
Y332855D01*
X1630211Y331661D01*
X1630440Y331432D01*
X1629787Y330779D01*
X1629292Y329585D01*
Y328292D01*
X1629787Y327097D01*
X1630701Y326183D01*
X1631895Y325688D01*
X1633188D01*
X1634383Y326183D01*
X1635297Y327097D01*
X1635792Y328292D01*
Y329585D01*
X1635297Y330779D01*
X1635068Y331008D01*
X1635721Y331661D01*
X1636216Y332855D01*
Y334148D01*
X1635856Y335017D01*
X1636585Y335319D01*
X1637499Y336233D01*
X1638851Y336177D01*
X1639050Y336094D01*
X1640343D01*
X1641538Y336589D01*
X1642452Y337503D01*
X1642947Y338698D01*
Y339991D01*
X1642452Y341185D01*
X1641538Y342099D01*
X1640343Y342594D01*
D02*
G37*
G36*
X1666633Y353770D02*
X1665340D01*
X1664145Y353275D01*
X1663231Y352361D01*
X1662736Y351166D01*
Y349874D01*
X1663231Y348679D01*
X1664145Y347765D01*
X1665182Y347335D01*
X1665400Y346811D01*
X1665506Y346000D01*
X1664755Y345249D01*
X1664260Y344054D01*
Y342761D01*
X1664755Y341567D01*
X1665669Y340653D01*
X1666864Y340158D01*
X1668156D01*
X1669351Y340653D01*
X1670265Y341567D01*
X1670760Y342761D01*
Y344054D01*
X1670265Y345249D01*
X1669351Y346163D01*
X1668314Y346593D01*
X1668096Y347117D01*
X1667990Y347928D01*
X1668741Y348679D01*
X1669236Y349874D01*
Y351166D01*
X1668741Y352361D01*
X1667827Y353275D01*
X1666633Y353770D01*
D02*
G37*
G36*
X1681364Y353516D02*
X1680072D01*
X1678877Y353021D01*
X1677963Y352107D01*
X1677468Y350913D01*
Y349619D01*
X1677963Y348425D01*
X1678467Y347921D01*
X1678834Y347371D01*
X1678499Y346293D01*
X1678217Y346011D01*
X1677722Y344817D01*
Y343523D01*
X1678217Y342329D01*
X1679131Y341415D01*
X1680325Y340920D01*
X1681618D01*
X1682813Y341415D01*
X1683010Y341611D01*
X1684086Y340892D01*
X1683818Y340244D01*
Y338951D01*
X1684313Y337757D01*
X1685227Y336843D01*
X1686422Y336348D01*
X1687715D01*
X1688909Y336843D01*
X1689823Y337757D01*
X1690318Y338951D01*
Y340244D01*
X1689823Y341439D01*
X1688909Y342353D01*
X1687715Y342848D01*
X1686422D01*
X1685227Y342353D01*
X1685030Y342157D01*
X1683954Y342876D01*
X1684222Y343523D01*
Y344817D01*
X1683727Y346011D01*
X1683223Y346515D01*
X1682856Y347065D01*
X1683191Y348143D01*
X1683473Y348425D01*
X1683968Y349619D01*
Y350913D01*
X1683473Y352107D01*
X1682559Y353021D01*
X1681364Y353516D01*
D02*
G37*
G36*
X1610045Y339956D02*
X1608752D01*
X1607558Y339461D01*
X1606643Y338547D01*
X1606149Y337352D01*
Y336059D01*
X1606643Y334865D01*
X1607558Y333951D01*
X1608752Y333456D01*
X1610045D01*
X1611240Y333951D01*
X1612154Y334865D01*
X1612649Y336059D01*
Y337352D01*
X1612154Y338547D01*
X1611240Y339461D01*
X1610045Y339956D01*
D02*
G37*
G36*
X1603895Y333322D02*
X1602601D01*
X1601407Y332827D01*
X1600493Y331913D01*
X1599998Y330718D01*
Y329426D01*
X1600493Y328231D01*
X1601407Y327317D01*
X1602601Y326822D01*
X1603895D01*
X1605089Y327317D01*
X1606003Y328231D01*
X1606498Y329426D01*
Y330718D01*
X1606003Y331913D01*
X1605089Y332827D01*
X1603895Y333322D01*
D02*
G37*
G36*
X1591703Y339800D02*
X1590410D01*
X1589215Y339305D01*
X1588301Y338391D01*
X1587806Y337197D01*
Y335904D01*
X1588301Y334709D01*
X1588492Y334518D01*
X1588301Y334327D01*
X1587806Y333133D01*
Y331839D01*
X1588301Y330645D01*
X1588619Y330327D01*
X1588301Y330009D01*
X1587806Y328815D01*
Y327522D01*
X1588301Y326327D01*
X1589215Y325413D01*
X1590410Y324918D01*
X1591703D01*
X1592897Y325413D01*
X1593811Y326327D01*
X1594306Y327522D01*
Y328815D01*
X1593811Y330009D01*
X1593493Y330327D01*
X1593811Y330645D01*
X1594306Y331839D01*
Y333133D01*
X1593811Y334327D01*
X1593620Y334518D01*
X1593811Y334709D01*
X1594306Y335904D01*
Y337197D01*
X1593811Y338391D01*
X1592897Y339305D01*
X1591703Y339800D01*
D02*
G37*
G36*
X1677554Y328116D02*
X1676261D01*
X1675067Y327621D01*
X1674153Y326707D01*
X1673658Y325513D01*
Y324220D01*
X1674153Y323025D01*
X1675067Y322111D01*
X1676261Y321616D01*
X1677554D01*
X1678749Y322111D01*
X1679663Y323025D01*
X1680158Y324220D01*
Y325513D01*
X1679663Y326707D01*
X1678749Y327621D01*
X1677554Y328116D01*
D02*
G37*
G36*
X1641967Y323798D02*
X1640674D01*
X1639479Y323303D01*
X1638565Y322389D01*
X1638070Y321194D01*
Y319902D01*
X1638565Y318707D01*
X1639479Y317793D01*
X1640674Y317298D01*
X1641967D01*
X1643161Y317793D01*
X1644075Y318707D01*
X1644570Y319902D01*
Y321194D01*
X1644075Y322389D01*
X1643161Y323303D01*
X1641967Y323798D01*
D02*
G37*
G36*
X1641487Y314758D02*
X1640193D01*
X1638999Y314263D01*
X1638085Y313349D01*
X1637590Y312154D01*
Y310861D01*
X1638085Y309667D01*
X1638999Y308753D01*
X1640193Y308258D01*
X1641487D01*
X1642681Y308753D01*
X1643595Y309667D01*
X1644090Y310861D01*
Y312154D01*
X1643595Y313349D01*
X1642681Y314263D01*
X1641487Y314758D01*
D02*
G37*
G36*
X1612164Y308916D02*
X1610871D01*
X1609677Y308421D01*
X1608763Y307507D01*
X1608268Y306312D01*
Y306203D01*
X1607352Y305002D01*
X1607095Y304896D01*
X1606157Y304507D01*
X1605243Y303593D01*
X1604748Y302398D01*
Y301105D01*
X1605243Y299911D01*
X1606157Y298997D01*
X1607352Y298502D01*
X1608645D01*
X1609839Y298997D01*
X1610753Y299911D01*
X1611248Y301105D01*
Y301215D01*
X1612164Y302416D01*
X1612421Y302522D01*
X1613359Y302911D01*
X1614273Y303825D01*
X1614768Y305019D01*
Y306312D01*
X1614273Y307507D01*
X1613359Y308421D01*
X1612164Y308916D01*
D02*
G37*
G36*
X1619332Y303732D02*
X1618040D01*
X1616845Y303237D01*
X1615931Y302323D01*
X1615436Y301129D01*
Y299835D01*
X1615931Y298641D01*
X1616845Y297727D01*
X1618040Y297232D01*
X1619332D01*
X1620527Y297727D01*
X1621441Y298641D01*
X1621936Y299835D01*
Y301129D01*
X1621441Y302323D01*
X1620527Y303237D01*
X1619332Y303732D01*
D02*
G37*
G36*
X1652917Y299414D02*
X1651624D01*
X1650429Y298919D01*
X1649515Y298005D01*
X1649020Y296810D01*
Y295518D01*
X1649515Y294323D01*
X1650429Y293409D01*
X1651624Y292914D01*
X1652917D01*
X1654111Y293409D01*
X1655025Y294323D01*
X1655520Y295518D01*
Y296810D01*
X1655025Y298005D01*
X1654111Y298919D01*
X1652917Y299414D01*
D02*
G37*
G36*
X1631326Y293318D02*
X1630034D01*
X1628839Y292823D01*
X1627925Y291909D01*
X1627505Y290896D01*
X1627159Y290843D01*
X1626581D01*
X1626235Y290896D01*
X1625815Y291909D01*
X1624901Y292823D01*
X1623707Y293318D01*
X1622413D01*
X1621219Y292823D01*
X1620305Y291909D01*
X1619810Y290714D01*
Y289422D01*
X1620305Y288227D01*
X1621219Y287313D01*
X1622413Y286818D01*
X1623707D01*
X1624901Y287313D01*
X1625815Y288227D01*
X1626235Y289240D01*
X1626581Y289293D01*
X1627159D01*
X1627505Y289240D01*
X1627925Y288227D01*
X1628839Y287313D01*
X1630034Y286818D01*
X1631326D01*
X1632521Y287313D01*
X1633435Y288227D01*
X1633930Y289422D01*
Y290714D01*
X1633435Y291909D01*
X1632521Y292823D01*
X1631326Y293318D01*
D02*
G37*
G36*
X1615833D02*
X1614539D01*
X1613345Y292823D01*
X1612431Y291909D01*
X1611936Y290714D01*
Y289422D01*
X1612431Y288227D01*
X1613345Y287313D01*
X1614539Y286818D01*
X1615833D01*
X1617027Y287313D01*
X1617941Y288227D01*
X1618436Y289422D01*
Y290714D01*
X1617941Y291909D01*
X1617027Y292823D01*
X1615833Y293318D01*
D02*
G37*
G36*
X1646522Y276756D02*
X1644810D01*
X1643157Y276313D01*
X1641675Y275457D01*
X1640465Y274247D01*
X1639609Y272765D01*
X1639166Y271112D01*
Y269400D01*
X1639609Y267747D01*
X1640465Y266265D01*
X1641675Y265055D01*
X1643157Y264199D01*
X1644810Y263756D01*
X1646522D01*
X1648175Y264199D01*
X1649657Y265055D01*
X1650867Y266265D01*
X1651723Y267747D01*
X1652166Y269400D01*
Y271112D01*
X1651723Y272765D01*
X1650867Y274247D01*
X1649657Y275457D01*
X1648175Y276313D01*
X1646522Y276756D01*
D02*
G37*
G36*
X1616522D02*
X1614810D01*
X1613157Y276313D01*
X1611675Y275457D01*
X1610465Y274247D01*
X1609609Y272765D01*
X1609166Y271112D01*
Y269400D01*
X1609609Y267747D01*
X1610465Y266265D01*
X1611675Y265055D01*
X1613157Y264199D01*
X1614810Y263756D01*
X1616522D01*
X1618175Y264199D01*
X1619657Y265055D01*
X1620867Y266265D01*
X1621723Y267747D01*
X1622166Y269400D01*
Y271112D01*
X1621723Y272765D01*
X1620867Y274247D01*
X1619657Y275457D01*
X1618175Y276313D01*
X1616522Y276756D01*
D02*
G37*
%LPD*%
D66*
X1686814Y299720D02*
D03*
X1699514D02*
D03*
X1686814Y287020D02*
D03*
X1699514D02*
D03*
X1686814Y274320D02*
D03*
X1699514D02*
D03*
D67*
X1693164Y312420D02*
D03*
X1703324Y261620D02*
D03*
X1683004D02*
D03*
D68*
X1615666Y270256D02*
D03*
X1645666D02*
D03*
D69*
X1524150Y436250D02*
D03*
D70*
Y361250D02*
D03*
D71*
X1545650Y374750D02*
D03*
Y422750D02*
D03*
X1502650D02*
D03*
Y374750D02*
D03*
D72*
X1516380Y493522D02*
D03*
X1679956Y553974D02*
D03*
X1626235Y397129D02*
D03*
D73*
X1667002Y558800D02*
D03*
X1502918Y514604D02*
D03*
X1496822D02*
D03*
X1768856Y481330D02*
D03*
X1685185Y358879D02*
D03*
X1660144Y420116D02*
D03*
X1713992Y468122D02*
D03*
X1701292Y466344D02*
D03*
X1710646Y464566D02*
D03*
X1702054Y539496D02*
D03*
X1709928Y528574D02*
D03*
X1651508Y461264D02*
D03*
X1591818Y480568D02*
D03*
X1496822Y357632D02*
D03*
X1514348Y359664D02*
D03*
X1533906Y359410D02*
D03*
X1546352Y359156D02*
D03*
X1721612Y491744D02*
D03*
X1765300Y565912D02*
D03*
X1771396D02*
D03*
X1569136Y426107D02*
D03*
X1584960Y487934D02*
D03*
X1729282Y559160D02*
D03*
X1744980Y549910D02*
D03*
X1734312Y534416D02*
D03*
X1752600Y499110D02*
D03*
X1743202Y491998D02*
D03*
X1736090Y494030D02*
D03*
X1727786Y492174D02*
D03*
X1566672Y330200D02*
D03*
Y340360D02*
D03*
Y320802D02*
D03*
Y310642D02*
D03*
X1632204Y446786D02*
D03*
X1628406Y456863D02*
D03*
X1639570Y442468D02*
D03*
X1582420Y410972D02*
D03*
X1598168Y449326D02*
D03*
X1709336Y384302D02*
D03*
X1673856Y280708D02*
D03*
X1663856D02*
D03*
X1563856Y300708D02*
D03*
X1553856D02*
D03*
X1558856Y290708D02*
D03*
X1553856Y280708D02*
D03*
X1558856Y270708D02*
D03*
X1543856Y300708D02*
D03*
X1548856Y290708D02*
D03*
X1543856Y280708D02*
D03*
X1548856Y270708D02*
D03*
X1533856Y300708D02*
D03*
X1538856Y290708D02*
D03*
X1533856Y280708D02*
D03*
X1538856Y270708D02*
D03*
X1523856Y300708D02*
D03*
X1528856Y290708D02*
D03*
Y270708D02*
D03*
X1513856Y340708D02*
D03*
X1518856Y330708D02*
D03*
X1513856Y320708D02*
D03*
X1518856Y310708D02*
D03*
X1513856Y300708D02*
D03*
X1503856Y440708D02*
D03*
X1508856Y350708D02*
D03*
X1503856Y340708D02*
D03*
X1508856Y330708D02*
D03*
X1503856Y320708D02*
D03*
X1508856Y310708D02*
D03*
X1503856Y300708D02*
D03*
X1622806Y315468D02*
D03*
X1598498Y301752D02*
D03*
X1697736Y558292D02*
D03*
X1654302Y558800D02*
D03*
X1667002Y539496D02*
D03*
X1649476Y532384D02*
D03*
X1503172Y471170D02*
D03*
X1497076D02*
D03*
Y478028D02*
D03*
X1503172D02*
D03*
X1503190Y485794D02*
D03*
X1497094D02*
D03*
Y492652D02*
D03*
X1503190D02*
D03*
X1503172Y499618D02*
D03*
X1497076D02*
D03*
Y506476D02*
D03*
X1503172D02*
D03*
X1513840Y450088D02*
D03*
X1496568D02*
D03*
X1708912Y276860D02*
D03*
Y270764D02*
D03*
X1690134Y368574D02*
D03*
X1693176Y372378D02*
D03*
X1681734Y372364D02*
D03*
X1601216Y343408D02*
D03*
X1594612Y452374D02*
D03*
X1569136Y414931D02*
D03*
X1559814Y426212D02*
D03*
Y415036D02*
D03*
X1553210Y531876D02*
D03*
X1548130Y537464D02*
D03*
X1507236Y542290D02*
D03*
X1501140D02*
D03*
Y535432D02*
D03*
X1507236D02*
D03*
X1500632Y555244D02*
D03*
X1612165Y571000D02*
D03*
X1533906Y457962D02*
D03*
Y465328D02*
D03*
Y472948D02*
D03*
Y480568D02*
D03*
X1543191Y558086D02*
D03*
X1538248D02*
D03*
X1545770Y487408D02*
D03*
X1758876Y464040D02*
D03*
X1771322Y559544D02*
D03*
X1762686Y491980D02*
D03*
X1769036D02*
D03*
X1768856Y486664D02*
D03*
X1613662Y531876D02*
D03*
X1638554D02*
D03*
X1623314D02*
D03*
X1630508Y568500D02*
D03*
X1567180Y559562D02*
D03*
X1559306D02*
D03*
Y566420D02*
D03*
X1567180D02*
D03*
X1724711Y502185D02*
D03*
X1702562Y515112D02*
D03*
X1714246Y500634D02*
D03*
X1715262Y510032D02*
D03*
X1655826Y383286D02*
D03*
X1667764Y407416D02*
D03*
X1664208Y410972D02*
D03*
X1681462Y403733D02*
D03*
X1649730Y401320D02*
D03*
X1665261Y391959D02*
D03*
X1668563Y388657D02*
D03*
X1657902Y398526D02*
D03*
X1674639Y403115D02*
D03*
X1618488Y425248D02*
D03*
X1623568D02*
D03*
X1613662Y426696D02*
D03*
X1624584Y409702D02*
D03*
X1628648Y426696D02*
D03*
X1678641Y408303D02*
D03*
X1575562Y455682D02*
D03*
X1689862Y400252D02*
D03*
X1686285Y387910D02*
D03*
X1697458Y385040D02*
D03*
X1689354Y384302D02*
D03*
X1646174Y442468D02*
D03*
X1624553Y452597D02*
D03*
X1682496Y439074D02*
D03*
X1678432Y442376D02*
D03*
X1687068Y478790D02*
D03*
X1679248Y490776D02*
D03*
Y480870D02*
D03*
X1678892Y510766D02*
D03*
X1679248Y500682D02*
D03*
Y520748D02*
D03*
X1687376Y500936D02*
D03*
Y527098D02*
D03*
X1680411Y426371D02*
D03*
X1618986Y441427D02*
D03*
X1612290Y452793D02*
D03*
X1638386Y458048D02*
D03*
X1658366Y430276D02*
D03*
X1662430Y468728D02*
D03*
Y460196D02*
D03*
X1673352D02*
D03*
X1681226Y417830D02*
D03*
X1678686Y422148D02*
D03*
X1592643Y456794D02*
D03*
X1672113Y416591D02*
D03*
X1644904Y465836D02*
D03*
X1634586Y467963D02*
D03*
X1678686Y413004D02*
D03*
X1719834Y467106D02*
D03*
X1724152Y465328D02*
D03*
X1706118Y466344D02*
D03*
X1693250Y460313D02*
D03*
X1704594Y471690D02*
D03*
X1728800Y464998D02*
D03*
X1706320Y351790D02*
D03*
X1697228Y323342D02*
D03*
X1698042Y362054D02*
D03*
X1687668Y355438D02*
D03*
X1680718Y350266D02*
D03*
X1703732Y384799D02*
D03*
X1752092Y402336D02*
D03*
X1661414Y387604D02*
D03*
X1661668Y380492D02*
D03*
X1658874Y392684D02*
D03*
X1667510Y343408D02*
D03*
X1665986Y350520D02*
D03*
X1653540Y328982D02*
D03*
X1632966Y333502D02*
D03*
X1607566Y365252D02*
D03*
X1614678Y363474D02*
D03*
X1604010Y361442D02*
D03*
X1615186Y335534D02*
D03*
X1614424Y323680D02*
D03*
X1632542Y328938D02*
D03*
X1658366Y311098D02*
D03*
X1640840Y311508D02*
D03*
X1609399Y336706D02*
D03*
X1687068Y339598D02*
D03*
X1676908Y324866D02*
D03*
X1652270Y296164D02*
D03*
X1641856Y294894D02*
D03*
X1630680Y290068D02*
D03*
X1644142Y476504D02*
D03*
X1623060Y290068D02*
D03*
X1573318Y403557D02*
D03*
X1601216Y411226D02*
D03*
X1596644Y410210D02*
D03*
X1608328Y399034D02*
D03*
X1612900Y393700D02*
D03*
Y403860D02*
D03*
X1632966Y388366D02*
D03*
X1535430Y533146D02*
D03*
X1530858Y536956D02*
D03*
X1639762Y399226D02*
D03*
X1606550Y411226D02*
D03*
X1603776Y424668D02*
D03*
X1583690Y425196D02*
D03*
X1755007Y432984D02*
D03*
X1767586Y450342D02*
D03*
X1759204D02*
D03*
X1755780Y428290D02*
D03*
X1773682Y437896D02*
D03*
X1759222Y408538D02*
D03*
X1766316Y385572D02*
D03*
X1774444Y390144D02*
D03*
X1752092Y395732D02*
D03*
X1747520Y395986D02*
D03*
X1773936Y448564D02*
D03*
X1609852Y360172D02*
D03*
X1603248Y330072D02*
D03*
X1641320Y320548D02*
D03*
X1639697Y339344D02*
D03*
X1596136Y387604D02*
D03*
X1663954Y326136D02*
D03*
X1627802Y329438D02*
D03*
X1591056Y328168D02*
D03*
Y332486D02*
D03*
Y336550D02*
D03*
X1611518Y305666D02*
D03*
X1618686Y300482D02*
D03*
X1607998Y301752D02*
D03*
X1607566Y373126D02*
D03*
X1603756Y376936D02*
D03*
X1604010Y368808D02*
D03*
X1575441Y362501D02*
D03*
X1680972Y344170D02*
D03*
X1590294Y379476D02*
D03*
X1532862Y418149D02*
D03*
X1527782D02*
D03*
X1520162D02*
D03*
X1515082D02*
D03*
X1496314Y412496D02*
D03*
X1501394D02*
D03*
X1496314Y406654D02*
D03*
X1501394D02*
D03*
X1565656Y364998D02*
D03*
X1552194Y391160D02*
D03*
X1557020Y371856D02*
D03*
Y378968D02*
D03*
X1545082Y391414D02*
D03*
X1548384Y387604D02*
D03*
X1501648Y386842D02*
D03*
X1542288Y387604D02*
D03*
X1496568Y386842D02*
D03*
X1501648Y392684D02*
D03*
X1496568D02*
D03*
X1735250Y384620D02*
D03*
X1716640Y533292D02*
D03*
X1659382Y368300D02*
D03*
X1530858Y529590D02*
D03*
X1734312Y465074D02*
D03*
X1614678Y368300D02*
D03*
X1615186Y290068D02*
D03*
X1711706Y566928D02*
D03*
X1668780Y566674D02*
D03*
X1631026Y545562D02*
D03*
X1643380Y554990D02*
D03*
X1565402Y383032D02*
D03*
X1505204Y401066D02*
D03*
X1543812Y395986D02*
D03*
X1573250Y393500D02*
D03*
X1768000Y390500D02*
D03*
X1774250Y409500D02*
D03*
X1653500Y550750D02*
D03*
X1634744Y338074D02*
D03*
D74*
X1715339Y331408D02*
D03*
X1770203Y348934D02*
D03*
X1711198Y362458D02*
D03*
X1719916Y337603D02*
D03*
X1729807Y336132D02*
D03*
X1739807D02*
D03*
X1749807D02*
D03*
X1768202Y335550D02*
D03*
X1764396Y344798D02*
D03*
X1754972Y348144D02*
D03*
X1744972D02*
D03*
X1734972D02*
D03*
X1727496Y354785D02*
D03*
X1727506Y364784D02*
D03*
X1727588Y374784D02*
D03*
X1710690Y345186D02*
D03*
X1670560Y288290D02*
D03*
X1643126Y507996D02*
D03*
X1631950Y508000D02*
D03*
X1648206Y518414D02*
D03*
X1636522D02*
D03*
X1625346Y518418D02*
D03*
X1496060Y269240D02*
D03*
Y280924D02*
D03*
X1496064Y292100D02*
D03*
X1593342Y260858D02*
D03*
X1631188Y268986D02*
D03*
X1671066Y270510D02*
D03*
X1770384Y381000D02*
D03*
X1770380Y369824D02*
D03*
Y358140D02*
D03*
X1757680Y355596D02*
D03*
X1746504Y355600D02*
D03*
X1734820D02*
D03*
X1769872Y323850D02*
D03*
X1721866Y325628D02*
D03*
X1733550D02*
D03*
X1744726Y325624D02*
D03*
X1734820Y366014D02*
D03*
X1715360Y356750D02*
D03*
Y369000D02*
D03*
D75*
X1636526Y370082D02*
D03*
X1628140Y351536D02*
D03*
X1645666Y369824D02*
D03*
X1736090Y420624D02*
D03*
X1724660D02*
D03*
Y409702D02*
D03*
X1713230D02*
D03*
Y420624D02*
D03*
X1701800Y409702D02*
D03*
X1736090D02*
D03*
X1701800Y420624D02*
D03*
Y432054D02*
D03*
X1713230D02*
D03*
X1736090D02*
D03*
X1724660D02*
D03*
Y444500D02*
D03*
X1736090D02*
D03*
X1713230D02*
D03*
X1701800D02*
D03*
M02*
