G04*
G04 #@! TF.GenerationSoftware,Altium Limited,Altium Designer,24.10.1 (45)*
G04*
G04 Layer_Physical_Order=2*
G04 Layer_Color=36540*
%FSLAX25Y25*%
%MOIN*%
G70*
G04*
G04 #@! TF.SameCoordinates,FC073F2D-740C-46EC-94A2-EC185A9C6A3E*
G04*
G04*
G04 #@! TF.FilePolarity,Positive*
G04*
G01*
G75*
%ADD129C,0.01575*%
%ADD130C,0.02098*%
%ADD131C,0.04724*%
%ADD132C,0.05906*%
%ADD133C,0.04331*%
%ADD134C,0.02284*%
%ADD135C,0.01280*%
%ADD136C,0.00984*%
%ADD137C,0.01968*%
%ADD138C,0.02600*%
G36*
X699251Y178173D02*
X698751Y177839D01*
X698655Y177880D01*
X698145D01*
X697675Y177685D01*
X697642Y177651D01*
X697080Y177796D01*
X696985Y178025D01*
X696625Y178385D01*
X696154Y178579D01*
X695646D01*
X695175Y178385D01*
X694815Y178025D01*
X694621Y177555D01*
Y177046D01*
X694815Y176575D01*
X695175Y176215D01*
X695646Y176021D01*
X696154D01*
X696625Y176215D01*
X696659Y176249D01*
X697221Y176104D01*
X697315Y175875D01*
X697675Y175515D01*
X698145Y175320D01*
X698655D01*
X698751Y175361D01*
X699251Y175027D01*
Y162845D01*
X698778Y162500D01*
X698269D01*
X697799Y162305D01*
X697439Y161945D01*
X697244Y161475D01*
Y160966D01*
X697439Y160496D01*
X697799Y160136D01*
X698269Y159941D01*
X698778D01*
X699251Y159596D01*
Y126132D01*
X695039D01*
Y134600D01*
X693739D01*
X692439Y135900D01*
X679515D01*
X679139Y136200D01*
Y149100D01*
X680939D01*
X681439Y149601D01*
Y150801D01*
X681439Y150952D01*
X681939Y151051D01*
X681990Y150929D01*
X682085Y150700D01*
X682444Y150340D01*
X682915Y150146D01*
X683424D01*
X683894Y150340D01*
X684254Y150700D01*
X684449Y151171D01*
Y151680D01*
X684254Y152150D01*
X683894Y152510D01*
X683424Y152705D01*
X682915D01*
X682444Y152510D01*
X682085Y152150D01*
X681890Y151680D01*
Y151532D01*
X681890Y151420D01*
X681439Y151301D01*
X681395Y151301D01*
X681130D01*
X681084Y151301D01*
X676939D01*
X676600Y151640D01*
Y148141D01*
X675050D01*
X675050Y148141D01*
X674667Y147983D01*
X671817Y145133D01*
X671659Y144750D01*
X671659Y144750D01*
Y140500D01*
X671750Y140279D01*
X671554Y139843D01*
X671471Y139757D01*
X671055Y139585D01*
X670695Y139225D01*
X670500Y138754D01*
Y138245D01*
X670695Y137775D01*
X671055Y137415D01*
X671525Y137221D01*
X672034D01*
X672504Y137415D01*
X672864Y137775D01*
X673036Y138191D01*
X673280Y138303D01*
X673559Y138376D01*
X674317Y137617D01*
X674700Y137459D01*
X674700Y137459D01*
X676600D01*
Y135000D01*
X678099Y133501D01*
X690939Y133501D01*
Y129701D01*
X691739Y128901D01*
Y126132D01*
X674409D01*
X674027Y125973D01*
X673868Y125591D01*
Y104508D01*
X673368Y104375D01*
X673068Y104894D01*
X672494Y105468D01*
X671791Y105874D01*
X671701Y105898D01*
X671519Y106465D01*
X671767Y106895D01*
X671962Y107623D01*
Y108377D01*
X671767Y109105D01*
X671390Y109757D01*
X670958Y110190D01*
X670898Y110500D01*
X670958Y110810D01*
X671390Y111243D01*
X671767Y111895D01*
X671962Y112623D01*
Y113377D01*
X671767Y114105D01*
X671390Y114757D01*
X670958Y115190D01*
X670898Y115500D01*
X670958Y115810D01*
X671390Y116243D01*
X671767Y116895D01*
X671962Y117623D01*
Y118377D01*
X671767Y119105D01*
X671390Y119757D01*
X670857Y120290D01*
X670205Y120667D01*
X669477Y120862D01*
X669216Y121362D01*
X669474Y121809D01*
X669685Y122594D01*
Y123406D01*
X669474Y124191D01*
X669068Y124894D01*
X668494Y125468D01*
X668404Y125521D01*
X668437Y125848D01*
X668503Y126040D01*
X668925Y126215D01*
X669285Y126575D01*
X669480Y127046D01*
Y127555D01*
X669285Y128025D01*
X668925Y128385D01*
X668455Y128579D01*
X667945D01*
X667475Y128385D01*
X667115Y128025D01*
X666921Y127555D01*
Y127046D01*
X667115Y126575D01*
X667124Y126566D01*
X667072Y126353D01*
X666899Y126085D01*
X666194D01*
X665409Y125874D01*
X664706Y125468D01*
X664132Y124894D01*
X663726Y124191D01*
X663515Y123406D01*
Y122594D01*
X663726Y121809D01*
X663984Y121362D01*
X663723Y120862D01*
X662995Y120667D01*
X662343Y120290D01*
X661810Y119757D01*
X661433Y119105D01*
X661238Y118377D01*
Y117623D01*
X661433Y116895D01*
X661810Y116243D01*
X662242Y115810D01*
X662302Y115500D01*
X662242Y115190D01*
X661810Y114757D01*
X661433Y114105D01*
X661238Y113377D01*
Y112623D01*
X661433Y111895D01*
X661810Y111243D01*
X662242Y110810D01*
X662302Y110500D01*
X662242Y110190D01*
X661810Y109757D01*
X661433Y109105D01*
X661238Y108377D01*
Y108250D01*
X664100D01*
Y107750D01*
X661238D01*
Y107623D01*
X661433Y106895D01*
X661681Y106465D01*
X661499Y105898D01*
X661409Y105874D01*
X660706Y105468D01*
X660132Y104894D01*
X659726Y104191D01*
X659515Y103406D01*
Y102594D01*
X659726Y101809D01*
X660028Y101285D01*
X659791Y100785D01*
X586903Y100803D01*
Y225280D01*
X699251Y225280D01*
Y178173D01*
D02*
G37*
%LPC*%
G36*
X674155Y224480D02*
X673645D01*
X673175Y224285D01*
X672815Y223925D01*
X672620Y223454D01*
Y222945D01*
X672815Y222475D01*
X673175Y222115D01*
X673645Y221920D01*
X674155D01*
X674625Y222115D01*
X674985Y222475D01*
X675179Y222945D01*
Y223454D01*
X674985Y223925D01*
X674625Y224285D01*
X674155Y224480D01*
D02*
G37*
G36*
X657255Y224379D02*
X656745D01*
X656275Y224185D01*
X655915Y223825D01*
X655721Y223355D01*
Y222846D01*
X655915Y222375D01*
X656275Y222015D01*
X656745Y221820D01*
X657255D01*
X657725Y222015D01*
X658085Y222375D01*
X658280Y222846D01*
Y223355D01*
X658085Y223825D01*
X657725Y224185D01*
X657255Y224379D01*
D02*
G37*
G36*
X607810Y220998D02*
X607301D01*
X606831Y220804D01*
X606582Y220555D01*
X606334Y220804D01*
X605864Y220998D01*
X605355D01*
X604885Y220804D01*
X604525Y220444D01*
X604330Y219973D01*
Y219464D01*
X604525Y218994D01*
X604885Y218634D01*
X605355Y218439D01*
X605864D01*
X606334Y218634D01*
X606582Y218882D01*
X606831Y218634D01*
X607301Y218439D01*
X607810D01*
X608280Y218634D01*
X608640Y218994D01*
X608835Y219464D01*
Y219973D01*
X608640Y220444D01*
X608280Y220804D01*
X607810Y220998D01*
D02*
G37*
G36*
X647255Y219779D02*
X646745D01*
X646275Y219585D01*
X645915Y219225D01*
X645720Y218755D01*
Y218246D01*
X645915Y217775D01*
X646275Y217415D01*
X646745Y217220D01*
X647255D01*
X647725Y217415D01*
X648085Y217775D01*
X648279Y218246D01*
Y218755D01*
X648085Y219225D01*
X647725Y219585D01*
X647255Y219779D01*
D02*
G37*
G36*
X651239Y218110D02*
X650730D01*
X650259Y217915D01*
X649899Y217555D01*
X649705Y217085D01*
Y216576D01*
X649899Y216106D01*
X650259Y215746D01*
X650730Y215551D01*
X651239D01*
X651709Y215746D01*
X652069Y216106D01*
X652264Y216576D01*
Y217085D01*
X652069Y217555D01*
X651709Y217915D01*
X651239Y218110D01*
D02*
G37*
G36*
X687254Y217779D02*
X686746D01*
X686275Y217585D01*
X685915Y217225D01*
X685720Y216755D01*
Y216246D01*
X685915Y215775D01*
X686275Y215415D01*
X686746Y215220D01*
X687254D01*
X687725Y215415D01*
X688085Y215775D01*
X688279Y216246D01*
Y216755D01*
X688085Y217225D01*
X687725Y217585D01*
X687254Y217779D01*
D02*
G37*
G36*
X661855Y221553D02*
X660945D01*
X660067Y221318D01*
X659280Y220863D01*
X658637Y220220D01*
X658182Y219433D01*
X657947Y218555D01*
Y217645D01*
X658182Y216767D01*
X658637Y215980D01*
X659280Y215337D01*
X660067Y214882D01*
X660945Y214647D01*
X661855D01*
X662733Y214882D01*
X663520Y215337D01*
X664163Y215980D01*
X664617Y216767D01*
X664853Y217645D01*
Y218555D01*
X664617Y219433D01*
X664163Y220220D01*
X663520Y220863D01*
X662733Y221318D01*
X661855Y221553D01*
D02*
G37*
G36*
X642391Y216068D02*
X641882D01*
X641411Y215873D01*
X641051Y215513D01*
X640857Y215043D01*
Y214534D01*
X641051Y214063D01*
X641411Y213703D01*
X641882Y213509D01*
X642391D01*
X642861Y213703D01*
X643221Y214063D01*
X643416Y214534D01*
Y215043D01*
X643221Y215513D01*
X642861Y215873D01*
X642391Y216068D01*
D02*
G37*
G36*
X683054Y211680D02*
X682546D01*
X682075Y211485D01*
X681715Y211125D01*
X681521Y210654D01*
Y210145D01*
X681715Y209675D01*
X682075Y209315D01*
X682546Y209120D01*
X683054D01*
X683525Y209315D01*
X683885Y209675D01*
X684080Y210145D01*
Y210654D01*
X683885Y211125D01*
X683525Y211485D01*
X683054Y211680D01*
D02*
G37*
G36*
X676097Y211237D02*
X675588D01*
X675118Y211042D01*
X674758Y210682D01*
X674563Y210212D01*
Y209703D01*
X674758Y209233D01*
X675118Y208873D01*
X675588Y208678D01*
X676097D01*
X676567Y208873D01*
X676927Y209233D01*
X677122Y209703D01*
Y210212D01*
X676927Y210682D01*
X676567Y211042D01*
X676097Y211237D01*
D02*
G37*
G36*
X602954Y212680D02*
X602446D01*
X601975Y212485D01*
X601615Y212125D01*
X601420Y211654D01*
Y211145D01*
X601615Y210675D01*
X601975Y210315D01*
X602204Y210221D01*
Y209679D01*
X601975Y209585D01*
X601615Y209225D01*
X601420Y208754D01*
Y208245D01*
X601615Y207775D01*
X601975Y207415D01*
X602446Y207221D01*
X602954D01*
X603425Y207415D01*
X603785Y207775D01*
X603960Y208198D01*
X604246Y208621D01*
X604754D01*
X605225Y208815D01*
X605585Y209175D01*
X605780Y209646D01*
Y210155D01*
X605585Y210625D01*
X605225Y210985D01*
X604754Y211179D01*
X604246D01*
X603979Y211611D01*
Y211654D01*
X603785Y212125D01*
X603425Y212485D01*
X602954Y212680D01*
D02*
G37*
G36*
X664576Y208798D02*
X664067D01*
X663596Y208604D01*
X663237Y208244D01*
X663042Y207773D01*
Y207264D01*
X663237Y206794D01*
X663596Y206434D01*
X664067Y206239D01*
X664576D01*
X665046Y206434D01*
X665406Y206794D01*
X665601Y207264D01*
Y207773D01*
X665406Y208244D01*
X665046Y208604D01*
X664576Y208798D01*
D02*
G37*
G36*
X661376Y206298D02*
X660867D01*
X660396Y206104D01*
X660037Y205744D01*
X659842Y205273D01*
Y204764D01*
X660037Y204294D01*
X660396Y203934D01*
X660867Y203739D01*
X661376D01*
X661846Y203934D01*
X662206Y204294D01*
X662401Y204764D01*
Y205273D01*
X662206Y205744D01*
X661846Y206104D01*
X661376Y206298D01*
D02*
G37*
G36*
X670554Y204080D02*
X670046D01*
X669575Y203885D01*
X669215Y203525D01*
X669021Y203054D01*
Y202545D01*
X669215Y202075D01*
X669575Y201715D01*
X670046Y201520D01*
X670554D01*
X671025Y201715D01*
X671385Y202075D01*
X671580Y202545D01*
Y203054D01*
X671385Y203525D01*
X671025Y203885D01*
X670554Y204080D01*
D02*
G37*
G36*
X661236Y202369D02*
X660726D01*
X660256Y202174D01*
X659896Y201814D01*
X659701Y201344D01*
Y200834D01*
X659896Y200364D01*
X660256Y200004D01*
X660726Y199810D01*
X661236D01*
X661706Y200004D01*
X662066Y200364D01*
X662261Y200834D01*
Y201344D01*
X662066Y201814D01*
X661706Y202174D01*
X661236Y202369D01*
D02*
G37*
G36*
X675555Y202080D02*
X675045D01*
X674575Y201885D01*
X674215Y201525D01*
X674020Y201055D01*
Y200546D01*
X674215Y200075D01*
X674575Y199715D01*
X675045Y199521D01*
X675555D01*
X676025Y199715D01*
X676385Y200075D01*
X676580Y200546D01*
Y201055D01*
X676385Y201525D01*
X676025Y201885D01*
X675555Y202080D01*
D02*
G37*
G36*
X679275Y198990D02*
X678766D01*
X678295Y198795D01*
X677935Y198435D01*
X677741Y197965D01*
Y197456D01*
X677935Y196986D01*
X678295Y196626D01*
X678766Y196431D01*
X679275D01*
X679745Y196626D01*
X680105Y196986D01*
X680300Y197456D01*
Y197965D01*
X680105Y198435D01*
X679745Y198795D01*
X679275Y198990D01*
D02*
G37*
G36*
X664576Y198498D02*
X664067D01*
X663596Y198304D01*
X663237Y197944D01*
X663042Y197473D01*
Y196964D01*
X663237Y196494D01*
X663596Y196134D01*
X664067Y195939D01*
X664576D01*
X665046Y196134D01*
X665406Y196494D01*
X665601Y196964D01*
Y197473D01*
X665406Y197944D01*
X665046Y198304D01*
X664576Y198498D01*
D02*
G37*
G36*
X661376Y198398D02*
X660867D01*
X660396Y198204D01*
X660037Y197844D01*
X659842Y197373D01*
Y196864D01*
X660037Y196394D01*
X660396Y196034D01*
X660867Y195839D01*
X661376D01*
X661846Y196034D01*
X662206Y196394D01*
X662401Y196864D01*
Y197373D01*
X662206Y197844D01*
X661846Y198204D01*
X661376Y198398D01*
D02*
G37*
G36*
X675154Y198380D02*
X674646D01*
X674175Y198185D01*
X673815Y197825D01*
X673621Y197354D01*
Y196845D01*
X673815Y196375D01*
X674175Y196015D01*
X674646Y195820D01*
X675154D01*
X675625Y196015D01*
X675985Y196375D01*
X676180Y196845D01*
Y197354D01*
X675985Y197825D01*
X675625Y198185D01*
X675154Y198380D01*
D02*
G37*
G36*
X690254Y197780D02*
X689746D01*
X689275Y197585D01*
X688915Y197225D01*
X688721Y196755D01*
Y196246D01*
X688915Y195775D01*
X689275Y195415D01*
X689746Y195220D01*
X690254D01*
X690725Y195415D01*
X691085Y195775D01*
X691280Y196246D01*
Y196755D01*
X691085Y197225D01*
X690725Y197585D01*
X690254Y197780D01*
D02*
G37*
G36*
X683754Y195780D02*
X683246D01*
X682775Y195585D01*
X682415Y195225D01*
X682221Y194755D01*
Y194246D01*
X682415Y193775D01*
X682775Y193415D01*
X683246Y193220D01*
X683754D01*
X684225Y193415D01*
X684520Y193711D01*
X684824Y193656D01*
X685020Y193558D01*
Y193446D01*
X685215Y192975D01*
X685575Y192615D01*
X686046Y192420D01*
X686554D01*
X687025Y192615D01*
X687385Y192975D01*
X687579Y193446D01*
Y193955D01*
X687385Y194425D01*
X687025Y194785D01*
X686554Y194980D01*
X686046D01*
X685575Y194785D01*
X685280Y194489D01*
X684976Y194544D01*
X684780Y194642D01*
Y194755D01*
X684585Y195225D01*
X684225Y195585D01*
X683754Y195780D01*
D02*
G37*
G36*
X661376Y194498D02*
X660867D01*
X660396Y194304D01*
X660037Y193944D01*
X659842Y193473D01*
Y192964D01*
X660037Y192494D01*
X660396Y192134D01*
X660867Y191939D01*
X661376D01*
X661846Y192134D01*
X662206Y192494D01*
X662401Y192964D01*
Y193473D01*
X662206Y193944D01*
X661846Y194304D01*
X661376Y194498D01*
D02*
G37*
G36*
X597455Y197753D02*
X596545D01*
X595667Y197518D01*
X594880Y197063D01*
X594237Y196420D01*
X593783Y195633D01*
X593547Y194755D01*
Y193845D01*
X593783Y192967D01*
X594237Y192180D01*
X594880Y191537D01*
X595667Y191083D01*
X596545Y190847D01*
X597455D01*
X598333Y191083D01*
X599120Y191537D01*
X599763Y192180D01*
X600217Y192967D01*
X600453Y193845D01*
Y194755D01*
X600217Y195633D01*
X599763Y196420D01*
X599120Y197063D01*
X598333Y197518D01*
X597455Y197753D01*
D02*
G37*
G36*
X624255Y193379D02*
X623745D01*
X623275Y193185D01*
X622915Y192825D01*
X622720Y192355D01*
Y191846D01*
X622915Y191375D01*
X623275Y191015D01*
X623745Y190821D01*
X624255D01*
X624725Y191015D01*
X625085Y191375D01*
X625280Y191846D01*
Y192355D01*
X625085Y192825D01*
X624725Y193185D01*
X624255Y193379D01*
D02*
G37*
G36*
X661376Y190598D02*
X660867D01*
X660396Y190404D01*
X660037Y190044D01*
X659842Y189573D01*
Y189064D01*
X660037Y188594D01*
X660396Y188234D01*
X660867Y188039D01*
X661376D01*
X661846Y188234D01*
X662206Y188594D01*
X662401Y189064D01*
Y189573D01*
X662206Y190044D01*
X661846Y190404D01*
X661376Y190598D01*
D02*
G37*
G36*
X664455Y189779D02*
X663945D01*
X663475Y189585D01*
X663115Y189225D01*
X662921Y188754D01*
Y188245D01*
X663115Y187775D01*
X663475Y187415D01*
X663945Y187221D01*
X664455D01*
X664925Y187415D01*
X665285Y187775D01*
X665480Y188245D01*
Y188754D01*
X665285Y189225D01*
X664925Y189585D01*
X664455Y189779D01*
D02*
G37*
G36*
X647554Y188880D02*
X647046D01*
X646575Y188685D01*
X646215Y188325D01*
X646021Y187855D01*
Y187346D01*
X646215Y186875D01*
X646575Y186515D01*
X647046Y186320D01*
X647554D01*
X648025Y186515D01*
X648385Y186875D01*
X648580Y187346D01*
Y187855D01*
X648385Y188325D01*
X648025Y188685D01*
X647554Y188880D01*
D02*
G37*
G36*
X654754Y185818D02*
X654246D01*
X653775Y185623D01*
X653415Y185263D01*
X653221Y184793D01*
Y184284D01*
X653415Y183814D01*
X653775Y183454D01*
X654246Y183259D01*
X654754D01*
X655225Y183454D01*
X655585Y183814D01*
X655780Y184284D01*
Y184793D01*
X655585Y185263D01*
X655225Y185623D01*
X654754Y185818D01*
D02*
G37*
G36*
X643792Y185517D02*
X643283D01*
X642813Y185322D01*
X642453Y184962D01*
X642258Y184492D01*
Y183983D01*
X642453Y183513D01*
X642813Y183153D01*
X643283Y182958D01*
X643792D01*
X644262Y183153D01*
X644622Y183513D01*
X644817Y183983D01*
Y184492D01*
X644622Y184962D01*
X644262Y185322D01*
X643792Y185517D01*
D02*
G37*
G36*
X647855Y184679D02*
X647345D01*
X646875Y184485D01*
X646515Y184125D01*
X646320Y183654D01*
Y183145D01*
X646515Y182675D01*
X646875Y182315D01*
X647345Y182121D01*
X647855D01*
X648325Y182315D01*
X648685Y182675D01*
X648879Y183145D01*
Y183654D01*
X648685Y184125D01*
X648325Y184485D01*
X647855Y184679D01*
D02*
G37*
G36*
X671354Y186984D02*
X670846D01*
X670375Y186790D01*
X670015Y186430D01*
X669820Y185959D01*
Y185450D01*
X670015Y184980D01*
X670375Y184620D01*
X670493Y184030D01*
X670421Y183854D01*
Y183345D01*
X670615Y182875D01*
X670975Y182515D01*
X671446Y182320D01*
X671954D01*
X672282Y182456D01*
X672398Y182175D01*
X672758Y181815D01*
X673228Y181621D01*
X673737D01*
X674207Y181815D01*
X674567Y182175D01*
X674762Y182645D01*
Y183020D01*
X675055D01*
X675525Y183215D01*
X675537Y183227D01*
X676104Y183087D01*
X676375Y182815D01*
X676846Y182621D01*
X677354D01*
X677611Y182727D01*
X677715Y182475D01*
X678075Y182115D01*
X678546Y181921D01*
X679054D01*
X679525Y182115D01*
X679650Y182240D01*
X679905Y181985D01*
X680375Y181791D01*
X680884D01*
X681355Y181985D01*
X681715Y182345D01*
X681740Y182350D01*
X682075Y182015D01*
X682546Y181820D01*
X683054D01*
X683525Y182015D01*
X683885Y182375D01*
X684080Y182845D01*
Y183354D01*
X683885Y183825D01*
X683525Y184185D01*
X683054Y184379D01*
X682546D01*
X682075Y184185D01*
X681715Y183825D01*
X681690Y183820D01*
X681355Y184155D01*
X680884Y184350D01*
X680375D01*
X679905Y184155D01*
X679780Y184030D01*
X679525Y184285D01*
X679054Y184479D01*
X678546D01*
X678289Y184373D01*
X678185Y184625D01*
X677825Y184985D01*
X677354Y185179D01*
X676846D01*
X676375Y184985D01*
X676363Y184973D01*
X675796Y185113D01*
X675525Y185385D01*
X675055Y185580D01*
X674545D01*
X674075Y185385D01*
X673715Y185025D01*
X673521Y184555D01*
Y184179D01*
X673228D01*
X672901Y184044D01*
X672785Y184325D01*
X672425Y184685D01*
X672307Y185275D01*
X672379Y185450D01*
Y185959D01*
X672185Y186430D01*
X671825Y186790D01*
X671354Y186984D01*
D02*
G37*
G36*
X666888Y182505D02*
X666379D01*
X665909Y182310D01*
X665549Y181951D01*
X665354Y181480D01*
Y180971D01*
X665549Y180501D01*
X665909Y180141D01*
X666379Y179946D01*
X666888D01*
X667359Y180141D01*
X667719Y180501D01*
X667913Y180971D01*
Y181480D01*
X667719Y181951D01*
X667359Y182310D01*
X666888Y182505D01*
D02*
G37*
G36*
X659055Y182459D02*
X658545D01*
X658075Y182264D01*
X657715Y181904D01*
X657520Y181434D01*
Y180925D01*
X657715Y180455D01*
X658075Y180095D01*
X658545Y179900D01*
X659055D01*
X659525Y180095D01*
X659885Y180455D01*
X660079Y180925D01*
Y181434D01*
X659885Y181904D01*
X659525Y182264D01*
X659055Y182459D01*
D02*
G37*
G36*
X654754D02*
X654246D01*
X653775Y182264D01*
X653415Y181904D01*
X653221Y181434D01*
Y180925D01*
X653415Y180455D01*
X653775Y180095D01*
X654246Y179900D01*
X654754D01*
X655225Y180095D01*
X655585Y180455D01*
X655780Y180925D01*
Y181434D01*
X655585Y181904D01*
X655225Y182264D01*
X654754Y182459D01*
D02*
G37*
G36*
X645288Y181613D02*
X644779D01*
X644309Y181419D01*
X643949Y181059D01*
X643754Y180588D01*
Y180079D01*
X643949Y179609D01*
X644309Y179249D01*
X644779Y179054D01*
X645288D01*
X645759Y179249D01*
X646119Y179609D01*
X646313Y180079D01*
Y180588D01*
X646119Y181059D01*
X645759Y181419D01*
X645288Y181613D01*
D02*
G37*
G36*
X627279Y181120D02*
X626770D01*
X626300Y180925D01*
X625940Y180565D01*
X625745Y180095D01*
Y179586D01*
X625940Y179115D01*
X626300Y178755D01*
X626770Y178560D01*
X627279D01*
X627750Y178755D01*
X628110Y179115D01*
X628304Y179586D01*
Y180095D01*
X628110Y180565D01*
X627750Y180925D01*
X627279Y181120D01*
D02*
G37*
G36*
X620554Y180682D02*
X620046D01*
X619575Y180487D01*
X619215Y180127D01*
X619021Y179657D01*
Y179148D01*
X619215Y178678D01*
X619575Y178318D01*
X620046Y178123D01*
X620554D01*
X621025Y178318D01*
X621385Y178678D01*
X621580Y179148D01*
Y179657D01*
X621385Y180127D01*
X621025Y180487D01*
X620554Y180682D01*
D02*
G37*
G36*
X635015Y179544D02*
X634506D01*
X634035Y179350D01*
X633675Y178990D01*
X633481Y178519D01*
Y178010D01*
X633675Y177540D01*
X634035Y177180D01*
X634506Y176985D01*
X635015D01*
X635485Y177180D01*
X635845Y177540D01*
X636040Y178010D01*
Y178519D01*
X635845Y178990D01*
X635485Y179350D01*
X635015Y179544D01*
D02*
G37*
G36*
X641359Y181147D02*
X640850D01*
X640380Y180952D01*
X640020Y180592D01*
X639825Y180122D01*
Y179613D01*
X639363Y179467D01*
X639333D01*
X638863Y179272D01*
X638503Y178912D01*
X638308Y178442D01*
Y177933D01*
X638503Y177463D01*
X638863Y177103D01*
X639333Y176908D01*
X639842D01*
X640312Y177103D01*
X640672Y177463D01*
X640867Y177933D01*
Y178442D01*
X641329Y178588D01*
X641359D01*
X641829Y178782D01*
X642189Y179142D01*
X642384Y179613D01*
Y180122D01*
X642189Y180592D01*
X641829Y180952D01*
X641359Y181147D01*
D02*
G37*
G36*
X692854Y178579D02*
X692346D01*
X691875Y178385D01*
X691515Y178025D01*
X691321Y177555D01*
Y177046D01*
X691515Y176575D01*
X691875Y176215D01*
X692346Y176021D01*
X692854D01*
X693325Y176215D01*
X693685Y176575D01*
X693880Y177046D01*
Y177555D01*
X693685Y178025D01*
X693325Y178385D01*
X692854Y178579D01*
D02*
G37*
G36*
X648354Y175479D02*
X647846D01*
X647375Y175285D01*
X647015Y174925D01*
X646820Y174454D01*
Y173945D01*
X647015Y173475D01*
X647375Y173115D01*
X647846Y172921D01*
X648354D01*
X648825Y173115D01*
X649185Y173475D01*
X649379Y173945D01*
Y174454D01*
X649185Y174925D01*
X648825Y175285D01*
X648354Y175479D01*
D02*
G37*
G36*
X637651Y175070D02*
X637142D01*
X636671Y174875D01*
X636311Y174515D01*
X636117Y174045D01*
Y173536D01*
X636311Y173065D01*
X636671Y172705D01*
X637142Y172511D01*
X637651D01*
X638121Y172705D01*
X638481Y173065D01*
X638676Y173536D01*
Y174045D01*
X638481Y174515D01*
X638121Y174875D01*
X637651Y175070D01*
D02*
G37*
G36*
X661055Y175443D02*
X660545D01*
X660075Y175249D01*
X659715Y174889D01*
X659520Y174418D01*
Y173909D01*
X659715Y173439D01*
X660075Y173079D01*
X660545Y172884D01*
X661055D01*
X661121Y172840D01*
Y172609D01*
X661315Y172139D01*
X661675Y171779D01*
X662146Y171584D01*
X662654D01*
X663125Y171779D01*
X663485Y172139D01*
X663680Y172609D01*
Y173118D01*
X663485Y173589D01*
X663125Y173949D01*
X662654Y174143D01*
X662146D01*
X662079Y174187D01*
Y174418D01*
X661885Y174889D01*
X661525Y175249D01*
X661055Y175443D01*
D02*
G37*
G36*
X600489Y175020D02*
X599629D01*
X598798Y174797D01*
X598053Y174367D01*
X597444Y173758D01*
X597014Y173013D01*
X596791Y172182D01*
Y171322D01*
X597014Y170491D01*
X597444Y169746D01*
X598053Y169137D01*
X598798Y168707D01*
X599629Y168484D01*
X600489D01*
X601320Y168707D01*
X602066Y169137D01*
X602674Y169746D01*
X603104Y170491D01*
X603327Y171322D01*
Y172182D01*
X603104Y173013D01*
X602674Y173758D01*
X602066Y174367D01*
X601320Y174797D01*
X600489Y175020D01*
D02*
G37*
G36*
X653155Y170679D02*
X652645D01*
X652175Y170485D01*
X651815Y170125D01*
X651620Y169655D01*
Y169146D01*
X651815Y168675D01*
X652175Y168315D01*
X652645Y168121D01*
X653155D01*
X653625Y168315D01*
X653985Y168675D01*
X654179Y169146D01*
Y169655D01*
X653985Y170125D01*
X653625Y170485D01*
X653155Y170679D01*
D02*
G37*
G36*
X691506Y169898D02*
X690998D01*
X690527Y169703D01*
X690167Y169343D01*
X689972Y168873D01*
Y168364D01*
X690167Y167893D01*
X690527Y167533D01*
X690998Y167339D01*
X691506D01*
X691977Y167533D01*
X692337Y167893D01*
X692531Y168364D01*
Y168873D01*
X692337Y169343D01*
X691977Y169703D01*
X691506Y169898D01*
D02*
G37*
G36*
X641455Y169270D02*
X640945D01*
X640475Y169075D01*
X640115Y168715D01*
X639921Y168245D01*
Y167736D01*
X640115Y167266D01*
X640475Y166906D01*
X640945Y166711D01*
X641455D01*
X641925Y166906D01*
X642285Y167266D01*
X642480Y167736D01*
Y168245D01*
X642285Y168715D01*
X641925Y169075D01*
X641455Y169270D01*
D02*
G37*
G36*
X635555D02*
X635045D01*
X634575Y169075D01*
X634215Y168715D01*
X634021Y168245D01*
Y167736D01*
X634215Y167266D01*
X634575Y166906D01*
X635045Y166711D01*
X635555D01*
X636025Y166906D01*
X636385Y167266D01*
X636580Y167736D01*
Y168245D01*
X636385Y168715D01*
X636025Y169075D01*
X635555Y169270D01*
D02*
G37*
G36*
X591945Y169102D02*
X591845D01*
Y166687D01*
X594260D01*
Y166788D01*
X594078Y167466D01*
X593727Y168074D01*
X593231Y168570D01*
X592623Y168921D01*
X591945Y169102D01*
D02*
G37*
G36*
X591344D02*
X591244D01*
X590566Y168921D01*
X589958Y168570D01*
X589462Y168074D01*
X589111Y167466D01*
X588929Y166788D01*
Y166687D01*
X591344D01*
Y169102D01*
D02*
G37*
G36*
X608875D02*
X608774D01*
Y166687D01*
X611189D01*
Y166788D01*
X611007Y167466D01*
X610656Y168074D01*
X610160Y168570D01*
X609552Y168921D01*
X608875Y169102D01*
D02*
G37*
G36*
X608274D02*
X608173D01*
X607495Y168921D01*
X606887Y168570D01*
X606391Y168074D01*
X606040Y167466D01*
X605858Y166788D01*
Y166687D01*
X608274D01*
Y169102D01*
D02*
G37*
G36*
X623755Y168679D02*
X623245D01*
X622775Y168485D01*
X622415Y168125D01*
X622221Y167655D01*
Y167146D01*
X622415Y166675D01*
X622775Y166315D01*
X623245Y166121D01*
X623755D01*
X624225Y166315D01*
X624585Y166675D01*
X624780Y167146D01*
Y167655D01*
X624585Y168125D01*
X624225Y168485D01*
X623755Y168679D01*
D02*
G37*
G36*
X631662Y168472D02*
X631153D01*
X630683Y168277D01*
X630323Y167917D01*
X630128Y167447D01*
Y166938D01*
X630323Y166467D01*
X630683Y166107D01*
X631153Y165913D01*
X631662D01*
X632133Y166107D01*
X632493Y166467D01*
X632687Y166938D01*
Y167447D01*
X632493Y167917D01*
X632133Y168277D01*
X631662Y168472D01*
D02*
G37*
G36*
X603744Y165905D02*
X603235D01*
X602764Y165710D01*
X602489Y165435D01*
X602214Y165710D01*
X601744Y165905D01*
X601235D01*
X600764Y165710D01*
X600404Y165350D01*
X600239Y164951D01*
X600103Y164931D01*
X599875D01*
X599739Y164951D01*
X599574Y165350D01*
X599214Y165710D01*
X598744Y165905D01*
X598235D01*
X597764Y165710D01*
X597489Y165435D01*
X597214Y165710D01*
X596744Y165905D01*
X596235D01*
X595764Y165710D01*
X595404Y165350D01*
X595210Y164880D01*
Y164371D01*
X595404Y163901D01*
X595764Y163541D01*
X596235Y163346D01*
X596744D01*
X597214Y163541D01*
X597489Y163816D01*
X597764Y163541D01*
X598235Y163346D01*
X598744D01*
X599214Y163541D01*
X599574Y163901D01*
X599739Y164300D01*
X599875Y164320D01*
X600103D01*
X600239Y164300D01*
X600404Y163901D01*
X600764Y163541D01*
X601235Y163346D01*
X601744D01*
X602214Y163541D01*
X602489Y163816D01*
X602764Y163541D01*
X603235Y163346D01*
X603744D01*
X604214Y163541D01*
X604574Y163901D01*
X604769Y164371D01*
Y164880D01*
X604574Y165350D01*
X604214Y165710D01*
X603744Y165905D01*
D02*
G37*
G36*
X611189Y166187D02*
X608774D01*
Y163772D01*
X608875D01*
X609552Y163953D01*
X610160Y164304D01*
X610656Y164801D01*
X611007Y165408D01*
X611189Y166086D01*
Y166187D01*
D02*
G37*
G36*
X608274D02*
X605858D01*
Y166086D01*
X606040Y165408D01*
X606391Y164801D01*
X606887Y164304D01*
X607495Y163953D01*
X608173Y163772D01*
X608274D01*
Y166187D01*
D02*
G37*
G36*
X661833Y169142D02*
X661324D01*
X660854Y168947D01*
X660494Y168587D01*
X660299Y168117D01*
Y167608D01*
X660396Y167376D01*
X660175Y167285D01*
X659815Y166925D01*
X659621Y166455D01*
Y165945D01*
X659815Y165475D01*
X660175Y165115D01*
X660231Y165092D01*
X660620Y164754D01*
Y164245D01*
X660292Y163733D01*
X660175Y163685D01*
X660052Y163561D01*
X659723Y163702D01*
X659592Y163809D01*
Y164267D01*
X659397Y164737D01*
X659037Y165097D01*
X658567Y165292D01*
X658058D01*
X657588Y165097D01*
X657228Y164737D01*
X657033Y164267D01*
Y163758D01*
X657228Y163288D01*
X657588Y162928D01*
X658058Y162733D01*
X658567D01*
X659037Y162928D01*
X659161Y163051D01*
X659490Y162910D01*
X659621Y162804D01*
Y162346D01*
X659815Y161875D01*
X660175Y161515D01*
X660645Y161320D01*
X661155D01*
X661625Y161515D01*
X661985Y161875D01*
X662180Y162346D01*
Y162855D01*
X662508Y163367D01*
X662625Y163415D01*
X662985Y163775D01*
X663179Y164245D01*
Y164754D01*
X662985Y165225D01*
X662625Y165585D01*
X662569Y165608D01*
X662180Y165945D01*
Y166455D01*
X662083Y166687D01*
X662304Y166778D01*
X662664Y167138D01*
X662858Y167608D01*
Y168117D01*
X662664Y168587D01*
X662304Y168947D01*
X661833Y169142D01*
D02*
G37*
G36*
X594260Y166187D02*
X591595D01*
X588929D01*
Y166086D01*
X589111Y165408D01*
X589462Y164801D01*
X589958Y164304D01*
X590372Y164065D01*
X590406Y163576D01*
X590353Y163529D01*
X589947Y163363D01*
X589825Y163485D01*
X589355Y163680D01*
X588845D01*
X588375Y163485D01*
X588015Y163125D01*
X587820Y162654D01*
Y162145D01*
X588015Y161675D01*
X588114Y161577D01*
X588332Y161250D01*
X588114Y160923D01*
X588015Y160825D01*
X587820Y160354D01*
Y159845D01*
X588015Y159375D01*
X588375Y159015D01*
X588845Y158820D01*
X589355D01*
X589825Y159015D01*
X590100Y159291D01*
X590375Y159015D01*
X590845Y158820D01*
X591058D01*
X591396Y158338D01*
X591321Y158154D01*
Y157645D01*
X591515Y157175D01*
X591875Y156815D01*
X592346Y156621D01*
X592854D01*
X593325Y156815D01*
X593685Y157175D01*
X593880Y157645D01*
Y158154D01*
X593685Y158625D01*
X593325Y158985D01*
X592854Y159179D01*
X592642D01*
X592304Y159662D01*
X592380Y159845D01*
Y160354D01*
X592185Y160825D01*
X592086Y160923D01*
X591868Y161250D01*
X592086Y161577D01*
X592185Y161675D01*
X592380Y162145D01*
Y162654D01*
X592185Y163125D01*
X592013Y163297D01*
X592182Y163835D01*
X592623Y163953D01*
X593231Y164304D01*
X593727Y164801D01*
X594078Y165408D01*
X594260Y166086D01*
Y166187D01*
D02*
G37*
G36*
X632755Y163180D02*
X632245D01*
X631775Y162985D01*
X631450Y162660D01*
X631125Y162985D01*
X630654Y163180D01*
X630146D01*
X629675Y162985D01*
X629315Y162625D01*
X629120Y162154D01*
Y161645D01*
X629315Y161175D01*
X629675Y160815D01*
X630146Y160620D01*
X630654D01*
X631125Y160815D01*
X631450Y161141D01*
X631775Y160815D01*
X632245Y160620D01*
X632755D01*
X633225Y160815D01*
X633585Y161175D01*
X633779Y161645D01*
Y162154D01*
X633585Y162625D01*
X633225Y162985D01*
X632755Y163180D01*
D02*
G37*
G36*
X623254Y163080D02*
X622746D01*
X622275Y162885D01*
X621915Y162525D01*
X621721Y162055D01*
Y161546D01*
X621915Y161075D01*
X622275Y160715D01*
X622746Y160521D01*
X623254D01*
X623725Y160715D01*
X624085Y161075D01*
X624279Y161546D01*
Y162055D01*
X624085Y162525D01*
X623725Y162885D01*
X623254Y163080D01*
D02*
G37*
G36*
X662248Y160229D02*
X661738D01*
X661268Y160035D01*
X660908Y159675D01*
X660870Y159583D01*
X660702Y159529D01*
X660303Y159520D01*
X660032Y159792D01*
X659561Y159986D01*
X659052D01*
X658582Y159792D01*
X658222Y159432D01*
X658027Y158961D01*
Y158452D01*
X658222Y157982D01*
X658582Y157622D01*
X659052Y157427D01*
X659561D01*
X660032Y157622D01*
X660392Y157982D01*
X660430Y158074D01*
X660598Y158127D01*
X660997Y158137D01*
X661268Y157865D01*
X661738Y157670D01*
X662248D01*
X662718Y157865D01*
X663078Y158225D01*
X663273Y158695D01*
Y159204D01*
X663078Y159675D01*
X662718Y160035D01*
X662248Y160229D01*
D02*
G37*
G36*
X655454Y163080D02*
X654946D01*
X654475Y162885D01*
X654115Y162525D01*
X653921Y162055D01*
Y161546D01*
X654115Y161075D01*
X654475Y160715D01*
X654946Y160521D01*
X655321D01*
Y160145D01*
X655515Y159675D01*
X655875Y159315D01*
X656346Y159121D01*
X656854D01*
X657325Y159315D01*
X657685Y159675D01*
X657879Y160145D01*
Y160654D01*
X657685Y161125D01*
X657325Y161485D01*
X656854Y161679D01*
X656480D01*
Y162055D01*
X656285Y162525D01*
X655925Y162885D01*
X655454Y163080D01*
D02*
G37*
G36*
X619671Y160160D02*
X619162D01*
X618691Y159965D01*
X618332Y159605D01*
X618137Y159135D01*
Y158626D01*
X618332Y158156D01*
X618691Y157796D01*
X619162Y157601D01*
X619671D01*
X620141Y157796D01*
X620501Y158156D01*
X620696Y158626D01*
Y159135D01*
X620501Y159605D01*
X620141Y159965D01*
X619671Y160160D01*
D02*
G37*
G36*
X690055Y159679D02*
X689545D01*
X689075Y159485D01*
X688715Y159125D01*
X688520Y158654D01*
Y158145D01*
X688715Y157675D01*
X688997Y157394D01*
X689002Y157361D01*
X688657Y157013D01*
X688254Y157179D01*
X687746D01*
X687275Y156985D01*
X686915Y156625D01*
X686721Y156155D01*
Y155646D01*
X686915Y155175D01*
X687275Y154815D01*
X687746Y154621D01*
X688254D01*
X688725Y154815D01*
X688850Y154940D01*
X689075Y154715D01*
X689545Y154520D01*
X690055D01*
X690525Y154715D01*
X690885Y155075D01*
X691080Y155545D01*
Y156054D01*
X690885Y156525D01*
X690603Y156807D01*
X690558Y157100D01*
X690603Y157394D01*
X690885Y157675D01*
X691080Y158145D01*
Y158654D01*
X690885Y159125D01*
X690525Y159485D01*
X690055Y159679D01*
D02*
G37*
G36*
X649754Y159280D02*
X649246D01*
X648775Y159085D01*
X648415Y158725D01*
X648220Y158255D01*
Y157746D01*
X648415Y157275D01*
X648775Y156915D01*
X649246Y156720D01*
X649754D01*
X650225Y156915D01*
X650585Y157275D01*
X650779Y157746D01*
Y158255D01*
X650585Y158725D01*
X650225Y159085D01*
X649754Y159280D01*
D02*
G37*
G36*
X665555Y158859D02*
X665045D01*
X664575Y158664D01*
X664215Y158304D01*
X664020Y157834D01*
Y157325D01*
X664215Y156855D01*
X664575Y156495D01*
X665045Y156300D01*
X665555D01*
X666025Y156495D01*
X666385Y156855D01*
X666579Y157325D01*
Y157834D01*
X666385Y158304D01*
X666025Y158664D01*
X665555Y158859D01*
D02*
G37*
G36*
X591455Y155879D02*
X590945D01*
X590475Y155685D01*
X590200Y155410D01*
X589925Y155685D01*
X589455Y155879D01*
X588945D01*
X588475Y155685D01*
X588115Y155325D01*
X587921Y154855D01*
Y154346D01*
X588115Y153875D01*
X588214Y153777D01*
X588432Y153450D01*
X588214Y153123D01*
X588115Y153025D01*
X587921Y152555D01*
Y152046D01*
X588115Y151575D01*
X588475Y151215D01*
X588945Y151021D01*
X589455D01*
X589925Y151215D01*
X590200Y151490D01*
X590475Y151215D01*
X590945Y151021D01*
X591455D01*
X591925Y151215D01*
X592285Y151575D01*
X592480Y152046D01*
Y152555D01*
X592285Y153025D01*
X592186Y153123D01*
X591968Y153450D01*
X592186Y153777D01*
X592285Y153875D01*
X592480Y154346D01*
Y154855D01*
X592285Y155325D01*
X591925Y155685D01*
X591455Y155879D01*
D02*
G37*
G36*
X635254Y160280D02*
X634746D01*
X634275Y160085D01*
X633915Y159725D01*
X633720Y159255D01*
Y158810D01*
X633625Y158656D01*
X633331Y158379D01*
X632945D01*
X632475Y158185D01*
X632115Y157825D01*
X631920Y157354D01*
Y156845D01*
X632115Y156375D01*
X632475Y156015D01*
X632945Y155821D01*
X633455D01*
X633788Y155417D01*
X633720Y155254D01*
Y154745D01*
X633915Y154275D01*
X634275Y153915D01*
X634746Y153720D01*
X635254D01*
X635725Y153915D01*
X636085Y154275D01*
X636279Y154745D01*
Y155254D01*
X636085Y155725D01*
X635725Y156085D01*
X635254Y156280D01*
X634746D01*
X634412Y156683D01*
X634480Y156845D01*
Y157290D01*
X634575Y157444D01*
X634869Y157720D01*
X635254D01*
X635725Y157915D01*
X636085Y158275D01*
X636279Y158746D01*
Y159255D01*
X636085Y159725D01*
X635725Y160085D01*
X635254Y160280D01*
D02*
G37*
G36*
X619644Y156201D02*
X619135D01*
X618665Y156006D01*
X618305Y155646D01*
X618110Y155176D01*
Y154667D01*
X618305Y154197D01*
X618665Y153837D01*
X619135Y153642D01*
X619644D01*
X620115Y153837D01*
X620474Y154197D01*
X620669Y154667D01*
Y155176D01*
X620474Y155646D01*
X620115Y156006D01*
X619644Y156201D01*
D02*
G37*
G36*
X640705Y159803D02*
X639795D01*
X638917Y159567D01*
X638130Y159113D01*
X637487Y158470D01*
X637033Y157683D01*
X636797Y156805D01*
Y155895D01*
X637033Y155017D01*
X637487Y154230D01*
X638130Y153587D01*
X638917Y153132D01*
X639795Y152897D01*
X640705D01*
X641583Y153132D01*
X642370Y153587D01*
X643013Y154230D01*
X643468Y155017D01*
X643703Y155895D01*
Y156805D01*
X643468Y157683D01*
X643013Y158470D01*
X642370Y159113D01*
X641583Y159567D01*
X640705Y159803D01*
D02*
G37*
G36*
X696317Y155020D02*
X695809D01*
X695338Y154825D01*
X694978Y154465D01*
X694783Y153995D01*
Y153486D01*
X694978Y153015D01*
X695338Y152655D01*
X695809Y152461D01*
X696317D01*
X696788Y152655D01*
X697148Y153015D01*
X697342Y153486D01*
Y153995D01*
X697148Y154465D01*
X696788Y154825D01*
X696317Y155020D01*
D02*
G37*
G36*
X652972Y158179D02*
X652463D01*
X651993Y157985D01*
X651633Y157625D01*
X651438Y157155D01*
Y156646D01*
X651633Y156175D01*
X651967Y155841D01*
X652015Y155325D01*
X651821Y154855D01*
Y154346D01*
X652015Y153875D01*
X652375Y153515D01*
X652527Y153452D01*
X652822Y152858D01*
X652820Y152855D01*
Y152442D01*
X652569Y152193D01*
X652388Y152083D01*
X652154Y152180D01*
X651646D01*
X651175Y151985D01*
X650815Y151625D01*
X650621Y151154D01*
Y150645D01*
X650815Y150175D01*
X651175Y149815D01*
X651646Y149620D01*
X652154D01*
X652421Y149731D01*
X652849Y149572D01*
X652959Y149453D01*
X653115Y149075D01*
X653475Y148715D01*
X653945Y148521D01*
X654455D01*
X654925Y148715D01*
X655285Y149075D01*
X655479Y149546D01*
Y150055D01*
X655285Y150525D01*
X654925Y150885D01*
X654767Y150950D01*
Y151491D01*
X654825Y151515D01*
X655185Y151875D01*
X655323Y152208D01*
X655729Y152273D01*
X655811Y152277D01*
X655849Y152271D01*
X656190Y151930D01*
X656660Y151735D01*
X657169D01*
X657639Y151930D01*
X657999Y152290D01*
X658194Y152760D01*
Y153269D01*
X657999Y153739D01*
X657639Y154099D01*
X657169Y154294D01*
X656894D01*
Y154569D01*
X656699Y155039D01*
X656339Y155399D01*
X655869Y155594D01*
X655360D01*
X654890Y155399D01*
X654752Y155262D01*
X654187Y155324D01*
X654173Y155336D01*
X653851Y155659D01*
X653802Y156175D01*
X653997Y156646D01*
Y157155D01*
X653802Y157625D01*
X653442Y157985D01*
X652972Y158179D01*
D02*
G37*
G36*
X608054Y157179D02*
X607546D01*
X607075Y156985D01*
X606715Y156625D01*
X606521Y156155D01*
Y155646D01*
X606715Y155175D01*
X607075Y154815D01*
X607191Y154767D01*
X607021Y154355D01*
Y153879D01*
X606946D01*
X606475Y153685D01*
X606115Y153325D01*
X605921Y152855D01*
Y152346D01*
X606115Y151875D01*
X606475Y151515D01*
X606946Y151321D01*
X607454D01*
X607925Y151515D01*
X608073Y151664D01*
X608400Y151820D01*
X608727Y151664D01*
X608875Y151515D01*
X609345Y151321D01*
X609855D01*
X610325Y151515D01*
X610685Y151875D01*
X610880Y152346D01*
Y152720D01*
X611354D01*
X611825Y152915D01*
X612185Y153275D01*
X612380Y153745D01*
Y154254D01*
X612185Y154725D01*
X611825Y155085D01*
X611354Y155280D01*
X610846D01*
X610375Y155085D01*
X610015Y154725D01*
X609991Y154667D01*
X609450D01*
X609385Y154825D01*
X609025Y155185D01*
X608909Y155233D01*
X609080Y155646D01*
Y156155D01*
X608885Y156625D01*
X608525Y156985D01*
X608054Y157179D01*
D02*
G37*
G36*
X668545Y152870D02*
X668036D01*
X667566Y152675D01*
X667206Y152315D01*
X667011Y151845D01*
Y151336D01*
X667206Y150866D01*
X667566Y150506D01*
X668036Y150311D01*
X668545D01*
X669015Y150506D01*
X669177Y150668D01*
X669591Y150753D01*
X669805Y150642D01*
X670036Y150411D01*
X670506Y150216D01*
X671015D01*
X671485Y150411D01*
X671845Y150771D01*
X672040Y151241D01*
Y151750D01*
X671845Y152221D01*
X671485Y152580D01*
X671015Y152775D01*
X670506D01*
X670036Y152580D01*
X669874Y152419D01*
X669460Y152333D01*
X669246Y152444D01*
X669015Y152675D01*
X668545Y152870D01*
D02*
G37*
G36*
X664146Y154000D02*
X663637D01*
X663167Y153805D01*
X662807Y153445D01*
X662612Y152975D01*
Y152466D01*
X662807Y151996D01*
X663167Y151636D01*
X663637Y151441D01*
X663821D01*
Y151046D01*
X664015Y150575D01*
X664375Y150215D01*
X664846Y150021D01*
X665354D01*
X665825Y150215D01*
X666185Y150575D01*
X666379Y151046D01*
Y151555D01*
X666185Y152025D01*
X665825Y152385D01*
X665354Y152579D01*
X665171D01*
Y152975D01*
X664976Y153445D01*
X664616Y153805D01*
X664146Y154000D01*
D02*
G37*
G36*
X616554Y152079D02*
X616046D01*
X615575Y151885D01*
X615215Y151525D01*
X615021Y151055D01*
Y150546D01*
X615215Y150075D01*
X615575Y149715D01*
X616046Y149521D01*
X616554D01*
X617025Y149715D01*
X617385Y150075D01*
X617580Y150546D01*
Y151055D01*
X617385Y151525D01*
X617025Y151885D01*
X616554Y152079D01*
D02*
G37*
G36*
X591945Y150205D02*
X591845D01*
Y147789D01*
X594260D01*
Y147890D01*
X594078Y148568D01*
X593727Y149176D01*
X593231Y149672D01*
X592623Y150023D01*
X591945Y150205D01*
D02*
G37*
G36*
X591344D02*
X591244D01*
X590566Y150023D01*
X589958Y149672D01*
X589462Y149176D01*
X589111Y148568D01*
X588929Y147890D01*
Y147789D01*
X591344D01*
Y150205D01*
D02*
G37*
G36*
X608875D02*
X608774D01*
Y147789D01*
X611189D01*
Y147890D01*
X611007Y148568D01*
X610656Y149176D01*
X610160Y149672D01*
X609552Y150023D01*
X608875Y150205D01*
D02*
G37*
G36*
X608274D02*
X608173D01*
X607495Y150023D01*
X606887Y149672D01*
X606391Y149176D01*
X606040Y148568D01*
X605858Y147890D01*
Y147789D01*
X608274D01*
Y150205D01*
D02*
G37*
G36*
X613254Y150479D02*
X612746D01*
X612275Y150285D01*
X611915Y149925D01*
X611721Y149454D01*
Y148945D01*
X611915Y148475D01*
X612275Y148115D01*
X612383Y148071D01*
Y147529D01*
X612275Y147485D01*
X611915Y147125D01*
X611721Y146654D01*
Y146145D01*
X611915Y145675D01*
X612275Y145315D01*
X612746Y145121D01*
X613254D01*
X613725Y145315D01*
X614085Y145675D01*
X614280Y146145D01*
Y146654D01*
X614085Y147125D01*
X613725Y147485D01*
X613617Y147529D01*
Y148071D01*
X613725Y148115D01*
X614085Y148475D01*
X614280Y148945D01*
Y149454D01*
X614085Y149925D01*
X613725Y150285D01*
X613254Y150479D01*
D02*
G37*
G36*
X611189Y147289D02*
X608774D01*
Y144874D01*
X608875D01*
X609552Y145056D01*
X610160Y145407D01*
X610656Y145903D01*
X611007Y146511D01*
X611189Y147188D01*
Y147289D01*
D02*
G37*
G36*
X608274D02*
X605858D01*
Y147188D01*
X606040Y146511D01*
X606391Y145903D01*
X606887Y145407D01*
X607495Y145056D01*
X608173Y144874D01*
X608274D01*
Y147289D01*
D02*
G37*
G36*
X594260Y147289D02*
X591845D01*
Y144874D01*
X591945D01*
X592623Y145056D01*
X593231Y145407D01*
X593727Y145903D01*
X594078Y146511D01*
X594260Y147188D01*
Y147289D01*
D02*
G37*
G36*
X591344D02*
X588929D01*
Y147188D01*
X589111Y146511D01*
X589462Y145903D01*
X589958Y145407D01*
X590566Y145056D01*
X591244Y144874D01*
X591344D01*
Y147289D01*
D02*
G37*
G36*
X666859Y147885D02*
X666350D01*
X665880Y147690D01*
X665520Y147330D01*
X665325Y146860D01*
Y146387D01*
X665153D01*
X664682Y146193D01*
X664322Y145833D01*
X664127Y145362D01*
Y144853D01*
X664322Y144383D01*
X664682Y144023D01*
X665153Y143828D01*
X665661D01*
X666132Y144023D01*
X666492Y144383D01*
X666686Y144853D01*
Y145326D01*
X666859D01*
X667330Y145521D01*
X667690Y145880D01*
X667884Y146351D01*
Y146860D01*
X667690Y147330D01*
X667330Y147690D01*
X666859Y147885D01*
D02*
G37*
G36*
X668775Y143821D02*
X668266D01*
X667796Y143626D01*
X667436Y143266D01*
X667241Y142796D01*
Y142287D01*
X667436Y141816D01*
X667796Y141456D01*
X668266Y141261D01*
X668775D01*
X669245Y141456D01*
X669605Y141816D01*
X669800Y142287D01*
Y142796D01*
X669605Y143266D01*
X669245Y143626D01*
X668775Y143821D01*
D02*
G37*
G36*
X631655Y149680D02*
X631145D01*
X630675Y149485D01*
X630315Y149125D01*
X630121Y148654D01*
Y148145D01*
X630315Y147675D01*
X630675Y147315D01*
X631145Y147120D01*
X631500D01*
X631531Y146971D01*
X631246Y146479D01*
X630775Y146285D01*
X630415Y145925D01*
X630221Y145455D01*
Y144946D01*
X630415Y144475D01*
X630775Y144115D01*
X631004Y144021D01*
Y143479D01*
X630775Y143385D01*
X630415Y143025D01*
X630221Y142554D01*
Y142045D01*
X630415Y141575D01*
X630775Y141215D01*
X631246Y141021D01*
X631754D01*
X632132Y141177D01*
X632539Y141153D01*
X632696Y141121D01*
X632715Y141075D01*
X633075Y140715D01*
X633545Y140521D01*
X634055D01*
X634525Y140715D01*
X634885Y141075D01*
X635079Y141545D01*
Y141576D01*
X635445Y141821D01*
X635955D01*
X636425Y142015D01*
X636785Y142375D01*
X636979Y142845D01*
Y143354D01*
X636785Y143825D01*
X636559Y144050D01*
X636785Y144275D01*
X636979Y144746D01*
Y145255D01*
X636785Y145725D01*
X636425Y146085D01*
X635955Y146280D01*
X635445D01*
X634975Y146085D01*
X634615Y145725D01*
X634420Y145255D01*
Y144746D01*
X634423Y144740D01*
X633985Y144525D01*
X633625Y144885D01*
X633154Y145080D01*
X633050D01*
X633035Y145121D01*
X633154Y145621D01*
X633625Y145815D01*
X633985Y146175D01*
X634179Y146645D01*
Y147154D01*
X633985Y147625D01*
X633625Y147985D01*
X633154Y148179D01*
X632680D01*
Y148654D01*
X632485Y149125D01*
X632125Y149485D01*
X631655Y149680D01*
D02*
G37*
G36*
X600509Y144488D02*
X599609D01*
X598777Y144144D01*
X598140Y143507D01*
X597795Y142675D01*
Y141774D01*
X598140Y140942D01*
X598777Y140305D01*
X599609Y139961D01*
X600509D01*
X601341Y140305D01*
X601978Y140942D01*
X602323Y141774D01*
Y142675D01*
X601978Y143507D01*
X601341Y144144D01*
X600509Y144488D01*
D02*
G37*
G36*
X663713Y142571D02*
X663204D01*
X662734Y142376D01*
X662374Y142016D01*
X662179Y141546D01*
Y141036D01*
X662374Y140566D01*
X662734Y140206D01*
X663157Y140031D01*
Y139682D01*
X663351Y139211D01*
X663712Y138851D01*
X664182Y138657D01*
X664691D01*
X665161Y138851D01*
X665521Y139211D01*
X665716Y139682D01*
Y140191D01*
X665521Y140661D01*
X665161Y141021D01*
X664738Y141196D01*
Y141546D01*
X664543Y142016D01*
X664184Y142376D01*
X663713Y142571D01*
D02*
G37*
G36*
X645805Y134880D02*
X645295D01*
X644825Y134685D01*
X644465Y134325D01*
X643933Y134347D01*
X643855Y134379D01*
X643345D01*
X642875Y134185D01*
X642515Y133825D01*
X642320Y133354D01*
Y132845D01*
X642462Y132504D01*
X642175Y132385D01*
X641815Y132025D01*
X641620Y131554D01*
Y131045D01*
X641815Y130575D01*
X641905Y130485D01*
X641648Y130228D01*
X641454Y129758D01*
Y129249D01*
X641648Y128778D01*
X642008Y128418D01*
X642479Y128224D01*
X642988D01*
X643458Y128418D01*
X643818Y128778D01*
X644013Y129249D01*
Y129758D01*
X643818Y130228D01*
X643728Y130318D01*
X643985Y130575D01*
X644179Y131045D01*
Y131554D01*
X644038Y131896D01*
X644325Y132015D01*
X644685Y132375D01*
X645217Y132353D01*
X645295Y132320D01*
X645805D01*
X646275Y132515D01*
X646635Y132875D01*
X646830Y133345D01*
Y133854D01*
X646635Y134325D01*
X646275Y134685D01*
X645805Y134880D01*
D02*
G37*
G36*
X656154Y139279D02*
X655646D01*
X655175Y139085D01*
X654815Y138725D01*
X654621Y138254D01*
Y137745D01*
X654815Y137275D01*
X655175Y136915D01*
X655583Y136746D01*
X655669Y136540D01*
X655711Y136221D01*
X655415Y135925D01*
X655221Y135454D01*
Y134945D01*
X655415Y134475D01*
X655775Y134115D01*
X656246Y133921D01*
X656754D01*
X657225Y134115D01*
X657585Y134475D01*
X657780Y134945D01*
Y135454D01*
X657585Y135925D01*
X657225Y136285D01*
X656817Y136454D01*
X656731Y136660D01*
X656689Y136979D01*
X656985Y137275D01*
X657179Y137745D01*
Y138254D01*
X656985Y138725D01*
X656625Y139085D01*
X656154Y139279D01*
D02*
G37*
G36*
X661954Y139180D02*
X661446D01*
X660975Y138985D01*
X660615Y138625D01*
X660421Y138154D01*
Y137645D01*
X660615Y137175D01*
X660814Y136977D01*
X660958Y136760D01*
X660826Y136336D01*
X660715Y136225D01*
X660521Y135755D01*
Y135246D01*
X660715Y134775D01*
X661075Y134415D01*
X661546Y134221D01*
X662054D01*
X662525Y134415D01*
X662602Y134493D01*
X663026Y134209D01*
X662921Y133955D01*
Y133446D01*
X663115Y132975D01*
X663475Y132615D01*
X663945Y132421D01*
X664455D01*
X664925Y132615D01*
X665285Y132975D01*
X665480Y133446D01*
Y133955D01*
X665285Y134425D01*
X664925Y134785D01*
X664455Y134979D01*
X663945D01*
X663475Y134785D01*
X663398Y134707D01*
X662974Y134991D01*
X663080Y135246D01*
Y135755D01*
X662885Y136225D01*
X662686Y136423D01*
X662542Y136640D01*
X662674Y137064D01*
X662785Y137175D01*
X662980Y137645D01*
Y138154D01*
X662785Y138625D01*
X662425Y138985D01*
X661954Y139180D01*
D02*
G37*
G36*
X633876Y133841D02*
X633367D01*
X632897Y133646D01*
X632537Y133286D01*
X632342Y132816D01*
Y132307D01*
X632537Y131837D01*
X632897Y131477D01*
X633367Y131282D01*
X633876D01*
X634346Y131477D01*
X634706Y131837D01*
X634901Y132307D01*
Y132816D01*
X634706Y133286D01*
X634346Y133646D01*
X633876Y133841D01*
D02*
G37*
G36*
X631455Y131229D02*
X630945D01*
X630475Y131034D01*
X630115Y130674D01*
X629920Y130204D01*
Y129695D01*
X630115Y129225D01*
X630475Y128865D01*
X630945Y128670D01*
X631455D01*
X631925Y128865D01*
X632285Y129225D01*
X632479Y129695D01*
Y130204D01*
X632285Y130674D01*
X631925Y131034D01*
X631455Y131229D01*
D02*
G37*
G36*
X626654Y133780D02*
X626146D01*
X625675Y133585D01*
X625315Y133225D01*
X625120Y132755D01*
Y132246D01*
X625315Y131775D01*
X625390Y131700D01*
X625315Y131625D01*
X625120Y131155D01*
Y130646D01*
X625315Y130175D01*
X625441Y130050D01*
X625315Y129925D01*
X625120Y129455D01*
Y128946D01*
X625315Y128475D01*
X625675Y128115D01*
X626146Y127920D01*
X626654D01*
X627125Y128115D01*
X627485Y128475D01*
X627679Y128946D01*
Y129455D01*
X627485Y129925D01*
X627359Y130050D01*
X627485Y130175D01*
X627679Y130646D01*
Y131155D01*
X627485Y131625D01*
X627410Y131700D01*
X627485Y131775D01*
X627679Y132246D01*
Y132755D01*
X627485Y133225D01*
X627125Y133585D01*
X626654Y133780D01*
D02*
G37*
G36*
X660455Y129180D02*
X659945D01*
X659475Y128985D01*
X659115Y128625D01*
X658920Y128155D01*
Y127646D01*
X659115Y127175D01*
X659475Y126815D01*
X659945Y126620D01*
X660455D01*
X660925Y126815D01*
X661285Y127175D01*
X661480Y127646D01*
Y128155D01*
X661285Y128625D01*
X660925Y128985D01*
X660455Y129180D01*
D02*
G37*
G36*
X646444Y127480D02*
X645934D01*
X645464Y127285D01*
X645104Y126925D01*
X644909Y126454D01*
Y125945D01*
X645104Y125475D01*
X645464Y125115D01*
X645934Y124920D01*
X646444D01*
X646914Y125115D01*
X647274Y125475D01*
X647469Y125945D01*
Y126454D01*
X647274Y126925D01*
X646914Y127285D01*
X646444Y127480D01*
D02*
G37*
G36*
X646254Y123921D02*
X645746D01*
X645275Y123726D01*
X644915Y123366D01*
X644721Y122896D01*
Y122386D01*
X644915Y121916D01*
X645275Y121556D01*
X645746Y121361D01*
X646254D01*
X646725Y121556D01*
X647085Y121916D01*
X647280Y122386D01*
Y122896D01*
X647085Y123366D01*
X646725Y123726D01*
X646254Y123921D01*
D02*
G37*
G36*
X634710Y121621D02*
X634201D01*
X633731Y121426D01*
X633371Y121066D01*
X633176Y120596D01*
Y120553D01*
X632816Y120080D01*
X632714Y120038D01*
X632345Y119885D01*
X631985Y119525D01*
X631791Y119054D01*
Y118545D01*
X631985Y118075D01*
X632345Y117715D01*
X632816Y117520D01*
X633325D01*
X633795Y117715D01*
X634155Y118075D01*
X634350Y118545D01*
Y118588D01*
X634710Y119061D01*
X634811Y119103D01*
X635181Y119256D01*
X635541Y119616D01*
X635735Y120086D01*
Y120596D01*
X635541Y121066D01*
X635181Y121426D01*
X634710Y121621D01*
D02*
G37*
G36*
X637533Y119580D02*
X637023D01*
X636553Y119385D01*
X636193Y119025D01*
X635998Y118554D01*
Y118045D01*
X636193Y117575D01*
X636553Y117215D01*
X637023Y117020D01*
X637533D01*
X638003Y117215D01*
X638363Y117575D01*
X638557Y118045D01*
Y118554D01*
X638363Y119025D01*
X638003Y119385D01*
X637533Y119580D01*
D02*
G37*
G36*
X650754Y117879D02*
X650246D01*
X649775Y117685D01*
X649415Y117325D01*
X649221Y116855D01*
Y116346D01*
X649415Y115875D01*
X649775Y115515D01*
X650246Y115321D01*
X650754D01*
X651225Y115515D01*
X651585Y115875D01*
X651780Y116346D01*
Y116855D01*
X651585Y117325D01*
X651225Y117685D01*
X650754Y117879D01*
D02*
G37*
G36*
X642254Y115480D02*
X641746D01*
X641275Y115285D01*
X640915Y114925D01*
X640750Y114526D01*
X640614Y114505D01*
X640386D01*
X640250Y114526D01*
X640085Y114925D01*
X639725Y115285D01*
X639255Y115480D01*
X638745D01*
X638275Y115285D01*
X637915Y114925D01*
X637720Y114454D01*
Y113945D01*
X637915Y113475D01*
X638275Y113115D01*
X638745Y112920D01*
X639255D01*
X639725Y113115D01*
X640085Y113475D01*
X640250Y113874D01*
X640386Y113895D01*
X640614D01*
X640750Y113874D01*
X640915Y113475D01*
X641275Y113115D01*
X641746Y112920D01*
X642254D01*
X642725Y113115D01*
X643085Y113475D01*
X643280Y113945D01*
Y114454D01*
X643085Y114925D01*
X642725Y115285D01*
X642254Y115480D01*
D02*
G37*
G36*
X636155D02*
X635645D01*
X635175Y115285D01*
X634815Y114925D01*
X634621Y114454D01*
Y113945D01*
X634815Y113475D01*
X635175Y113115D01*
X635645Y112920D01*
X636155D01*
X636625Y113115D01*
X636985Y113475D01*
X637180Y113945D01*
Y114454D01*
X636985Y114925D01*
X636625Y115285D01*
X636155Y115480D01*
D02*
G37*
G36*
X648237Y108959D02*
X647563D01*
X646912Y108785D01*
X646329Y108448D01*
X645852Y107971D01*
X645515Y107388D01*
X645341Y106737D01*
Y106063D01*
X645515Y105412D01*
X645852Y104829D01*
X646329Y104352D01*
X646912Y104015D01*
X647563Y103841D01*
X648237D01*
X648888Y104015D01*
X649471Y104352D01*
X649948Y104829D01*
X650285Y105412D01*
X650459Y106063D01*
Y106737D01*
X650285Y107388D01*
X649948Y107971D01*
X649471Y108448D01*
X648888Y108785D01*
X648237Y108959D01*
D02*
G37*
G36*
X636426D02*
X635752D01*
X635101Y108785D01*
X634518Y108448D01*
X634041Y107971D01*
X633704Y107388D01*
X633530Y106737D01*
Y106063D01*
X633704Y105412D01*
X634041Y104829D01*
X634518Y104352D01*
X635101Y104015D01*
X635752Y103841D01*
X636426D01*
X637077Y104015D01*
X637660Y104352D01*
X638137Y104829D01*
X638474Y105412D01*
X638648Y106063D01*
Y106737D01*
X638474Y107388D01*
X638137Y107971D01*
X637660Y108448D01*
X637077Y108785D01*
X636426Y108959D01*
D02*
G37*
%LPD*%
D129*
X636089Y106400D02*
D03*
X647900D02*
D03*
D130*
X662600Y103000D02*
D03*
X670600D02*
D03*
X666600Y123000D02*
D03*
D131*
X669100Y108000D02*
D03*
X664100D02*
D03*
X669100Y113000D02*
D03*
X664100D02*
D03*
X669100Y118000D02*
D03*
X664100D02*
D03*
D132*
X597000Y194300D02*
D03*
X661400Y218100D02*
D03*
X640250Y156350D02*
D03*
D133*
X608524Y147539D02*
D03*
Y166437D02*
D03*
X591595D02*
D03*
Y147539D02*
D03*
D134*
X600059Y171752D02*
D03*
D135*
Y142224D02*
D03*
D136*
X656300Y220000D02*
D03*
X591700Y202600D02*
D03*
X589300D02*
D03*
X696400Y189500D02*
D03*
X663459Y141291D02*
D03*
X653600Y165400D02*
D03*
X674800Y184300D02*
D03*
X669800Y183600D02*
D03*
X673483Y182900D02*
D03*
X670100Y212400D02*
D03*
X673200Y208100D02*
D03*
X650200Y181600D02*
D03*
X626700Y189200D02*
D03*
X589300Y140800D02*
D03*
X596200Y141600D02*
D03*
X603900Y141500D02*
D03*
X608800Y141400D02*
D03*
X677800Y193600D02*
D03*
X695000Y222800D02*
D03*
X697400D02*
D03*
X617770Y167759D02*
D03*
X624000Y192100D02*
D03*
X680820Y220142D02*
D03*
X687000Y216500D02*
D03*
X682800Y210400D02*
D03*
X690000Y196500D02*
D03*
X686300Y193700D02*
D03*
X683500Y194500D02*
D03*
X680231Y193769D02*
D03*
X616800Y130000D02*
D03*
Y134000D02*
D03*
Y126300D02*
D03*
Y122300D02*
D03*
X642600Y175900D02*
D03*
X641105Y179867D02*
D03*
X645500Y174200D02*
D03*
X623000Y161800D02*
D03*
X629200Y176900D02*
D03*
X672967Y151300D02*
D03*
X658998Y110515D02*
D03*
X655061D02*
D03*
X615691Y118389D02*
D03*
X611754D02*
D03*
X613723Y114452D02*
D03*
X611754Y110515D02*
D03*
X613723Y106578D02*
D03*
X607817Y118389D02*
D03*
X609786Y114452D02*
D03*
X607817Y110515D02*
D03*
X609786Y106578D02*
D03*
X603880Y118389D02*
D03*
X605849Y114452D02*
D03*
X603880Y110515D02*
D03*
X605849Y106578D02*
D03*
X599943Y118389D02*
D03*
X601912Y114452D02*
D03*
Y106578D02*
D03*
X596006Y134137D02*
D03*
X597975Y130200D02*
D03*
X596006Y126263D02*
D03*
X597975Y122326D02*
D03*
X596006Y118389D02*
D03*
X592069Y173507D02*
D03*
X594038Y138074D02*
D03*
X592069Y134137D02*
D03*
X594038Y130200D02*
D03*
X592069Y126263D02*
D03*
X594038Y122326D02*
D03*
X592069Y118389D02*
D03*
X638900Y124200D02*
D03*
X629330Y118800D02*
D03*
X668400Y219800D02*
D03*
X651300Y220000D02*
D03*
X656300Y212400D02*
D03*
X649400Y209600D02*
D03*
X591800Y185500D02*
D03*
X589400D02*
D03*
Y188200D02*
D03*
X591800D02*
D03*
X591807Y191258D02*
D03*
X589407D02*
D03*
Y193957D02*
D03*
X591807D02*
D03*
X591800Y196700D02*
D03*
X589400D02*
D03*
Y199400D02*
D03*
X591800D02*
D03*
X596000Y177200D02*
D03*
X589200D02*
D03*
X672800Y109000D02*
D03*
Y106600D02*
D03*
X665407Y145108D02*
D03*
X666605Y146605D02*
D03*
X662100Y146600D02*
D03*
X630400Y135200D02*
D03*
X627800Y178100D02*
D03*
X617770Y163359D02*
D03*
X614100Y167800D02*
D03*
Y163400D02*
D03*
X611500Y209400D02*
D03*
X609500Y211600D02*
D03*
X593400Y213500D02*
D03*
X591000D02*
D03*
Y210800D02*
D03*
X593400D02*
D03*
X590800Y218600D02*
D03*
X634711Y224803D02*
D03*
X603900Y180300D02*
D03*
Y183200D02*
D03*
Y186200D02*
D03*
Y189200D02*
D03*
X607556Y219719D02*
D03*
X605610D02*
D03*
X608571Y191893D02*
D03*
X692471Y182693D02*
D03*
X697371Y220293D02*
D03*
X693971Y193693D02*
D03*
X696471D02*
D03*
X696400Y191600D02*
D03*
X635300Y209400D02*
D03*
X645100D02*
D03*
X639100D02*
D03*
X641932Y223819D02*
D03*
X617000Y220300D02*
D03*
X613900D02*
D03*
Y223000D02*
D03*
X617000D02*
D03*
X679020Y197711D02*
D03*
X670300Y202800D02*
D03*
X674900Y197100D02*
D03*
X675300Y200800D02*
D03*
X651900Y150900D02*
D03*
X656600Y160400D02*
D03*
X655200Y161800D02*
D03*
X661993Y158950D02*
D03*
X649500Y158000D02*
D03*
X655615Y154315D02*
D03*
X656915Y153015D02*
D03*
X652717Y156900D02*
D03*
X659307Y158707D02*
D03*
X637200Y167420D02*
D03*
X639200D02*
D03*
X635300Y167991D02*
D03*
X639600Y161300D02*
D03*
X641200Y167991D02*
D03*
X660882Y160749D02*
D03*
X620300Y179402D02*
D03*
X665300Y157580D02*
D03*
X663892Y152720D02*
D03*
X668291Y151591D02*
D03*
X665100Y151300D02*
D03*
X648100Y174200D02*
D03*
X639588Y178188D02*
D03*
X662400Y172864D02*
D03*
X660800Y174164D02*
D03*
X664200Y188500D02*
D03*
X661121Y193219D02*
D03*
Y189319D02*
D03*
X660981Y201089D02*
D03*
X661121Y197119D02*
D03*
Y205019D02*
D03*
X664321Y197219D02*
D03*
Y207519D02*
D03*
X661579Y167863D02*
D03*
X637396Y173790D02*
D03*
X634760Y178265D02*
D03*
X645034Y180334D02*
D03*
X652900Y169400D02*
D03*
X654500Y184539D02*
D03*
Y181179D02*
D03*
X658800D02*
D03*
X661900Y164500D02*
D03*
X660900Y166200D02*
D03*
X627025Y179840D02*
D03*
X658312Y164012D02*
D03*
X647600Y183400D02*
D03*
X643538Y184238D02*
D03*
X660900Y162600D02*
D03*
X677100Y183900D02*
D03*
X678800Y183200D02*
D03*
X671700Y183600D02*
D03*
X666634Y181226D02*
D03*
X671100Y185705D02*
D03*
X680630Y183070D02*
D03*
X671779Y138500D02*
D03*
X668200Y127300D02*
D03*
X668520Y142541D02*
D03*
X664436Y139936D02*
D03*
X661700Y137900D02*
D03*
X670761Y151496D02*
D03*
X689800Y158400D02*
D03*
X654100Y152600D02*
D03*
X654200Y149800D02*
D03*
X653100Y154600D02*
D03*
X656500Y135200D02*
D03*
X655900Y138000D02*
D03*
X651000Y129520D02*
D03*
X642900Y131300D02*
D03*
X632900Y143800D02*
D03*
X635700Y143100D02*
D03*
X631500Y142300D02*
D03*
X635900Y132100D02*
D03*
X635600Y127433D02*
D03*
X642733Y129503D02*
D03*
X652900Y122479D02*
D03*
X646000Y122641D02*
D03*
X633622Y132561D02*
D03*
X664200Y133700D02*
D03*
X660200Y127900D02*
D03*
X650500Y116600D02*
D03*
X646400Y116100D02*
D03*
X642000Y114200D02*
D03*
X647300Y187600D02*
D03*
X639000Y114200D02*
D03*
X619416Y158881D02*
D03*
X630400Y161900D02*
D03*
X628600Y161500D02*
D03*
X633200Y157100D02*
D03*
X635000Y155000D02*
D03*
Y159000D02*
D03*
X642900Y152900D02*
D03*
X604500Y209900D02*
D03*
X602700Y211400D02*
D03*
X645576Y157176D02*
D03*
X632500Y161900D02*
D03*
X631408Y167192D02*
D03*
X623500Y167400D02*
D03*
X690948Y170466D02*
D03*
X695900Y177300D02*
D03*
X692600D02*
D03*
X691252Y168618D02*
D03*
X698300Y172400D02*
D03*
X692607Y160842D02*
D03*
X695400Y151800D02*
D03*
X698600Y153600D02*
D03*
X689800Y155800D02*
D03*
X688000Y155900D02*
D03*
X698400Y176600D02*
D03*
X633800Y141800D02*
D03*
X631200Y129950D02*
D03*
X646189Y126200D02*
D03*
X645550Y133600D02*
D03*
X628400Y152600D02*
D03*
X655100Y128400D02*
D03*
X640867Y129700D02*
D03*
X626400Y129200D02*
D03*
Y130900D02*
D03*
Y132500D02*
D03*
X634456Y120341D02*
D03*
X637278Y118300D02*
D03*
X633070Y118800D02*
D03*
X632900Y146900D02*
D03*
X631400Y148400D02*
D03*
X631500Y145200D02*
D03*
X620252Y142717D02*
D03*
X661800Y135500D02*
D03*
X626100Y149400D02*
D03*
X603489Y164626D02*
D03*
X601489D02*
D03*
X598489D02*
D03*
X596489D02*
D03*
X589100Y162400D02*
D03*
X591100D02*
D03*
X589100Y160100D02*
D03*
X591100D02*
D03*
X616400Y143700D02*
D03*
X611100Y154000D02*
D03*
X613000Y146400D02*
D03*
Y149200D02*
D03*
X608300Y154100D02*
D03*
X609600Y152600D02*
D03*
X591200Y152300D02*
D03*
X607200Y152600D02*
D03*
X589200Y152300D02*
D03*
X591200Y154600D02*
D03*
X589200D02*
D03*
X683169Y151425D02*
D03*
X675843Y209958D02*
D03*
X653300Y145000D02*
D03*
X602700Y208500D02*
D03*
X682800Y183100D02*
D03*
X635700Y145000D02*
D03*
X635900Y114200D02*
D03*
X673900Y223200D02*
D03*
X657000Y223100D02*
D03*
X642136Y214788D02*
D03*
X647000Y218500D02*
D03*
X616300Y150800D02*
D03*
X592600Y157900D02*
D03*
X607800Y155900D02*
D03*
X619390Y154921D02*
D03*
X696063Y153740D02*
D03*
X698524Y161221D02*
D03*
X650984Y216831D02*
D03*
X643600Y133100D02*
D03*
D137*
X675330Y130475D02*
D03*
X696930Y137375D02*
D03*
X673700Y142700D02*
D03*
X677132Y132915D02*
D03*
X681027Y132336D02*
D03*
X684964D02*
D03*
X688901D02*
D03*
X696142Y132106D02*
D03*
X694644Y135747D02*
D03*
X690934Y137064D02*
D03*
X686997D02*
D03*
X683060D02*
D03*
X680116Y139679D02*
D03*
X680120Y143616D02*
D03*
X680153Y147553D02*
D03*
X673500Y135900D02*
D03*
X657701Y113500D02*
D03*
X646900Y199998D02*
D03*
X642500Y200000D02*
D03*
X648900Y204100D02*
D03*
X644300D02*
D03*
X639900Y204102D02*
D03*
X589000Y106000D02*
D03*
Y110600D02*
D03*
X589002Y115000D02*
D03*
X627300Y102700D02*
D03*
X642200Y105900D02*
D03*
X657900Y106500D02*
D03*
X697002Y150000D02*
D03*
X697000Y145600D02*
D03*
Y141000D02*
D03*
X692000Y139998D02*
D03*
X687600Y140000D02*
D03*
X683000D02*
D03*
X696800Y127500D02*
D03*
X677900Y128200D02*
D03*
X682500D02*
D03*
X686900Y128198D02*
D03*
X683000Y144100D02*
D03*
X675339Y140453D02*
D03*
Y145276D02*
D03*
D138*
X644302Y145702D02*
D03*
X641000Y138400D02*
D03*
X647900Y145600D02*
D03*
X683500Y165600D02*
D03*
X679000D02*
D03*
Y161300D02*
D03*
X674500D02*
D03*
Y165600D02*
D03*
X670000Y161300D02*
D03*
X683500D02*
D03*
X670000Y165600D02*
D03*
Y170100D02*
D03*
X674500D02*
D03*
X683500D02*
D03*
X679000D02*
D03*
Y175000D02*
D03*
X683500D02*
D03*
X674500D02*
D03*
X670000D02*
D03*
M02*
