G04*
G04 #@! TF.GenerationSoftware,Altium Limited,Altium Designer,24.10.1 (45)*
G04*
G04 Layer_Color=8388736*
%FSLAX25Y25*%
%MOIN*%
G70*
G04*
G04 #@! TF.SameCoordinates,FC073F2D-740C-46EC-94A2-EC185A9C6A3E*
G04*
G04*
G04 #@! TF.FilePolarity,Negative*
G04*
G01*
G75*
%ADD20R,0.01476X0.01378*%
%ADD21R,0.01378X0.01476*%
%ADD64C,0.02953*%
%ADD65R,0.04528X0.14370*%
%ADD66R,0.06496X0.13976*%
%ADD67R,0.08071X0.03150*%
%ADD68R,0.07520X0.01772*%
%ADD69C,0.03800*%
%ADD70R,0.01968X0.01575*%
%ADD71R,0.01772X0.01772*%
%ADD72R,0.01772X0.01772*%
%ADD73R,0.06398X0.01772*%
%ADD74R,0.01772X0.06398*%
%ADD75R,0.02402X0.02244*%
%ADD76R,0.02441X0.02323*%
%ADD77R,0.01575X0.01968*%
%ADD78R,0.03307X0.03425*%
%ADD79R,0.02323X0.02441*%
%ADD80R,0.19095X0.19095*%
%ADD81R,0.03937X0.01378*%
%ADD82R,0.01378X0.03937*%
%ADD83R,0.02953X0.02598*%
%ADD84R,0.04134X0.03347*%
%ADD85R,0.01968X0.01378*%
%ADD86R,0.01772X0.01673*%
%ADD87R,0.04528X0.04134*%
%ADD88R,0.03425X0.03307*%
%ADD89R,0.02953X0.03347*%
%ADD90R,0.02362X0.02953*%
%ADD91R,0.03937X0.03543*%
%ADD92R,0.02400X0.02900*%
%ADD93R,0.01378X0.01693*%
%ADD94R,0.01772X0.03740*%
%ADD95R,0.11417X0.11417*%
%ADD96R,0.03740X0.01772*%
%ADD97R,0.04410X0.06378*%
%ADD98R,0.03937X0.01968*%
%ADD99R,0.02165X0.03051*%
%ADD100R,0.03051X0.02165*%
%ADD101P,0.02828X4X360.0*%
%ADD102R,0.02461X0.01772*%
%ADD103R,0.01772X0.01547*%
%ADD104R,0.02244X0.02402*%
%ADD105R,0.04528X0.02756*%
%ADD106R,0.03937X0.01772*%
%ADD107R,0.07677X0.05315*%
%ADD108R,0.02953X0.01968*%
%ADD109R,0.04528X0.04331*%
%ADD110R,0.03391X0.02091*%
%ADD111R,0.02900X0.02400*%
%ADD112C,0.02165*%
%ADD113C,0.02689*%
%ADD114C,0.05315*%
%ADD115C,0.04921*%
%ADD116C,0.06496*%
%ADD117C,0.02874*%
%ADD118C,0.01870*%
%ADD119C,0.01575*%
%ADD120C,0.02559*%
%ADD121C,0.03191*%
G36*
X629491Y141583D02*
X629058D01*
X628468Y142173D01*
Y143118D01*
X629491D01*
Y141583D01*
D02*
G37*
G36*
X626932Y142173D02*
X626342Y141583D01*
X625909D01*
Y143118D01*
X626932D01*
Y142173D01*
D02*
G37*
G36*
X629491Y137882D02*
X628468D01*
Y138827D01*
X629058Y139417D01*
X629491D01*
Y137882D01*
D02*
G37*
G36*
X626932Y138827D02*
Y137882D01*
X625909D01*
Y139417D01*
X626342D01*
X626932Y138827D01*
D02*
G37*
D20*
X593398Y219984D02*
D03*
Y218016D02*
D03*
X599402Y219984D02*
D03*
Y218016D02*
D03*
D21*
X593447Y222002D02*
D03*
X597384Y215998D02*
D03*
X599353D02*
D03*
X593447D02*
D03*
X595416D02*
D03*
Y222002D02*
D03*
X597384D02*
D03*
X599353D02*
D03*
D64*
X598476Y194300D02*
X598131Y195249D01*
X597256Y195754D01*
X596262Y195579D01*
X595613Y194805D01*
Y193795D01*
X596262Y193021D01*
X597256Y192846D01*
X598131Y193351D01*
X598476Y194300D01*
X662876Y218100D02*
X662531Y219049D01*
X661656Y219554D01*
X660662Y219379D01*
X660013Y218605D01*
Y217595D01*
X660662Y216821D01*
X661656Y216646D01*
X662531Y217151D01*
X662876Y218100D01*
D65*
X612537Y130195D02*
D03*
X604663D02*
D03*
D66*
X595411Y107557D02*
D03*
X621789D02*
D03*
D67*
X675787Y220177D02*
D03*
Y190847D02*
D03*
D68*
X695394Y214370D02*
D03*
Y212402D02*
D03*
Y210433D02*
D03*
Y208465D02*
D03*
Y206496D02*
D03*
Y204528D02*
D03*
Y202559D02*
D03*
Y200591D02*
D03*
Y198622D02*
D03*
Y196653D02*
D03*
D69*
X590700Y181400D02*
D03*
X594700Y201400D02*
D03*
D70*
X660900Y160767D02*
D03*
Y162633D02*
D03*
X664321Y211119D02*
D03*
Y209253D02*
D03*
Y205752D02*
D03*
Y203886D02*
D03*
Y200752D02*
D03*
Y198886D02*
D03*
Y195552D02*
D03*
Y193686D02*
D03*
Y190352D02*
D03*
Y188486D02*
D03*
X698407Y155990D02*
D03*
Y157856D02*
D03*
X695607Y155990D02*
D03*
Y157856D02*
D03*
X698500Y168767D02*
D03*
Y170633D02*
D03*
X692507Y178490D02*
D03*
Y180356D02*
D03*
X680400Y152133D02*
D03*
X683169Y149559D02*
D03*
X653300Y127867D02*
D03*
X616339Y146213D02*
D03*
X680400Y150267D02*
D03*
X683169Y151425D02*
D03*
X664370Y182878D02*
D03*
Y184744D02*
D03*
X653300Y129733D02*
D03*
X616339Y148079D02*
D03*
D71*
X608402Y180319D02*
D03*
X606040D02*
D03*
X608402Y183319D02*
D03*
X606040D02*
D03*
X608402Y186219D02*
D03*
X606040D02*
D03*
X608402Y189219D02*
D03*
X606040D02*
D03*
Y199819D02*
D03*
X608402D02*
D03*
X606040Y202819D02*
D03*
X608402D02*
D03*
X606040Y195019D02*
D03*
X608402D02*
D03*
X648402Y160719D02*
D03*
X646040D02*
D03*
X677756Y138091D02*
D03*
Y140453D02*
D03*
Y147736D02*
D03*
Y145374D02*
D03*
Y150197D02*
D03*
Y152559D02*
D03*
X646481Y118200D02*
D03*
X635819Y130000D02*
D03*
X675088Y148723D02*
D03*
X672726D02*
D03*
X644119Y118200D02*
D03*
X638181Y130000D02*
D03*
D72*
X626021Y161938D02*
D03*
Y164300D02*
D03*
X667421Y207595D02*
D03*
Y209958D02*
D03*
Y192795D02*
D03*
Y195158D02*
D03*
Y200157D02*
D03*
Y197795D02*
D03*
Y205058D02*
D03*
Y202695D02*
D03*
Y212795D02*
D03*
Y215158D02*
D03*
X692607Y160842D02*
D03*
Y163204D02*
D03*
X695507D02*
D03*
Y160842D02*
D03*
X692607Y158104D02*
D03*
Y155742D02*
D03*
X667421Y187894D02*
D03*
Y190256D02*
D03*
X667520Y185433D02*
D03*
Y183071D02*
D03*
X604500Y219719D02*
D03*
Y222081D02*
D03*
X588400Y219319D02*
D03*
Y221681D02*
D03*
D73*
X658821Y177434D02*
D03*
Y179402D02*
D03*
Y181371D02*
D03*
Y183339D02*
D03*
Y185308D02*
D03*
Y187276D02*
D03*
Y189245D02*
D03*
Y191213D02*
D03*
Y193182D02*
D03*
Y195150D02*
D03*
Y197119D02*
D03*
Y199087D02*
D03*
Y201056D02*
D03*
Y203024D02*
D03*
Y204993D02*
D03*
Y206961D02*
D03*
X613640Y204993D02*
D03*
Y203024D02*
D03*
Y201056D02*
D03*
Y199087D02*
D03*
Y197119D02*
D03*
Y195150D02*
D03*
Y193182D02*
D03*
Y189245D02*
D03*
Y187276D02*
D03*
Y185308D02*
D03*
Y183339D02*
D03*
Y181371D02*
D03*
Y179402D02*
D03*
Y177434D02*
D03*
Y206961D02*
D03*
Y191213D02*
D03*
D74*
X650994Y214788D02*
D03*
X647057D02*
D03*
X643120D02*
D03*
X641152D02*
D03*
X637215D02*
D03*
X633278D02*
D03*
X631310D02*
D03*
X629341D02*
D03*
X627372D02*
D03*
X625404D02*
D03*
X623435Y169607D02*
D03*
X627372D02*
D03*
X631310D02*
D03*
X633278D02*
D03*
X635247D02*
D03*
X641152D02*
D03*
X645089D02*
D03*
X649026D02*
D03*
X650994D02*
D03*
X621467D02*
D03*
X629341D02*
D03*
X625404D02*
D03*
X621467Y214788D02*
D03*
X623435D02*
D03*
X635247D02*
D03*
X639184Y169607D02*
D03*
X637215D02*
D03*
X647057D02*
D03*
X643120D02*
D03*
X639184Y214788D02*
D03*
X645089D02*
D03*
X649026D02*
D03*
D75*
X608321Y177376D02*
D03*
X605722D02*
D03*
X637922Y220119D02*
D03*
X640520D02*
D03*
X634822Y164219D02*
D03*
X637421D02*
D03*
X646420Y220119D02*
D03*
X643822D02*
D03*
X648699Y129600D02*
D03*
X596701Y211600D02*
D03*
X646101Y129600D02*
D03*
X599299Y211600D02*
D03*
D76*
X622940Y164076D02*
D03*
X620302D02*
D03*
X631640Y164219D02*
D03*
X629002D02*
D03*
X634802Y161319D02*
D03*
X637440D02*
D03*
X648140Y223219D02*
D03*
X645502D02*
D03*
X629019Y135100D02*
D03*
X626481Y146200D02*
D03*
X626381Y135100D02*
D03*
X629119Y146200D02*
D03*
D77*
X648221Y163919D02*
D03*
X646355D02*
D03*
X675839Y135630D02*
D03*
X677705D02*
D03*
X675839Y142913D02*
D03*
X677705D02*
D03*
X669767Y183600D02*
D03*
X671633D02*
D03*
X693650Y152854D02*
D03*
X672967Y151300D02*
D03*
X640867Y129700D02*
D03*
X674833Y151300D02*
D03*
X691784Y152854D02*
D03*
X642733Y129700D02*
D03*
D78*
X638310Y223819D02*
D03*
X641932D02*
D03*
X646189Y126200D02*
D03*
X649811D02*
D03*
X660571Y141142D02*
D03*
X595789Y208000D02*
D03*
X656949Y141142D02*
D03*
X599411Y208000D02*
D03*
D79*
X634721Y220200D02*
D03*
Y222838D02*
D03*
X620221Y220257D02*
D03*
Y222895D02*
D03*
D80*
X676968Y168209D02*
D03*
D81*
X688583Y170571D02*
D03*
X665354Y176870D02*
D03*
Y175295D02*
D03*
Y173721D02*
D03*
Y172146D02*
D03*
Y170571D02*
D03*
Y168996D02*
D03*
Y167421D02*
D03*
Y165847D02*
D03*
Y164272D02*
D03*
Y162697D02*
D03*
Y161122D02*
D03*
Y159547D02*
D03*
X688583D02*
D03*
Y161122D02*
D03*
Y162697D02*
D03*
Y164272D02*
D03*
Y165847D02*
D03*
Y167421D02*
D03*
Y168996D02*
D03*
Y172146D02*
D03*
Y173721D02*
D03*
Y175295D02*
D03*
Y176870D02*
D03*
D82*
X679331Y156595D02*
D03*
X685630Y179823D02*
D03*
X684055D02*
D03*
X682480D02*
D03*
X680905D02*
D03*
X679331D02*
D03*
X677756D02*
D03*
X676181D02*
D03*
X674606D02*
D03*
X673032D02*
D03*
X671457D02*
D03*
X669882D02*
D03*
X668307D02*
D03*
Y156595D02*
D03*
X669882D02*
D03*
X671457D02*
D03*
X673032D02*
D03*
X674606D02*
D03*
X676181D02*
D03*
X677756D02*
D03*
X680905D02*
D03*
X682480D02*
D03*
X684055D02*
D03*
X685630D02*
D03*
D83*
X638058Y111439D02*
D03*
X645931D02*
D03*
X641994D02*
D03*
D84*
X630184Y106105D02*
D03*
X653805D02*
D03*
D85*
X656300Y122200D02*
D03*
Y120625D02*
D03*
D86*
X698500Y165335D02*
D03*
Y163265D02*
D03*
D87*
X694700Y174150D02*
D03*
Y167850D02*
D03*
D88*
X695907Y179212D02*
D03*
Y182834D02*
D03*
D89*
X661469Y132400D02*
D03*
X657531D02*
D03*
X620968Y139600D02*
D03*
X617031D02*
D03*
D90*
X645730Y154700D02*
D03*
X649670Y121900D02*
D03*
X629330Y118800D02*
D03*
X633070D02*
D03*
X645930Y121900D02*
D03*
X649470Y154700D02*
D03*
D91*
X687598Y149213D02*
D03*
X692913Y145079D02*
D03*
Y149213D02*
D03*
X687598Y145079D02*
D03*
D92*
X690329Y127362D02*
D03*
X693529D02*
D03*
D93*
X657011Y128842D02*
D03*
X658389D02*
D03*
D94*
X643595Y149948D02*
D03*
X645563D02*
D03*
X647532D02*
D03*
X641626D02*
D03*
X639657D02*
D03*
X649500D02*
D03*
X639657Y134200D02*
D03*
X641626D02*
D03*
X643595D02*
D03*
X645563D02*
D03*
X647532D02*
D03*
X649500D02*
D03*
D95*
X644579Y142074D02*
D03*
D96*
X652453Y145027D02*
D03*
X636705Y146995D02*
D03*
Y139121D02*
D03*
Y145027D02*
D03*
Y143058D02*
D03*
Y141090D02*
D03*
Y137153D02*
D03*
X652453D02*
D03*
Y139121D02*
D03*
Y141090D02*
D03*
Y143058D02*
D03*
Y146995D02*
D03*
D97*
X624332Y222400D02*
D03*
X630868D02*
D03*
D98*
X596772Y167815D02*
D03*
X603346D02*
D03*
X596772Y146161D02*
D03*
X603346D02*
D03*
D99*
X632600Y135078D02*
D03*
Y138322D02*
D03*
D100*
X629870Y159153D02*
D03*
Y154921D02*
D03*
X637278Y118300D02*
D03*
X640522D02*
D03*
X650278D02*
D03*
X653522D02*
D03*
X626626Y154921D02*
D03*
Y159153D02*
D03*
D101*
X627700Y140500D02*
D03*
D102*
X635801Y125868D02*
D03*
X622787Y156988D02*
D03*
X642399Y121932D02*
D03*
Y123900D02*
D03*
Y125868D02*
D03*
X635801Y123900D02*
D03*
Y121932D02*
D03*
X622787Y155020D02*
D03*
Y158957D02*
D03*
X616189D02*
D03*
Y156988D02*
D03*
Y155020D02*
D03*
D103*
X622835Y146331D02*
D03*
Y147961D02*
D03*
D104*
X619587Y145945D02*
D03*
Y148543D02*
D03*
D105*
X658169Y145768D02*
D03*
Y150689D02*
D03*
D106*
X603346Y152067D02*
D03*
Y154035D02*
D03*
Y156004D02*
D03*
Y157972D02*
D03*
Y159941D02*
D03*
Y161909D02*
D03*
X596772D02*
D03*
Y159941D02*
D03*
Y157972D02*
D03*
Y156004D02*
D03*
Y154035D02*
D03*
Y152067D02*
D03*
D107*
X693307Y114764D02*
D03*
Y103347D02*
D03*
D108*
X657700Y127090D02*
D03*
D109*
X631200Y123650D02*
D03*
Y129950D02*
D03*
D110*
X693012Y133237D02*
D03*
Y130149D02*
D03*
D111*
X693307Y121038D02*
D03*
Y124238D02*
D03*
D112*
X636089Y106400D02*
D03*
X647900D02*
D03*
D113*
X662600Y103000D02*
D03*
X670600D02*
D03*
X666600Y123000D02*
D03*
D114*
X669100Y108000D02*
D03*
X664100D02*
D03*
X669100Y113000D02*
D03*
X664100D02*
D03*
X669100Y118000D02*
D03*
X664100D02*
D03*
D115*
X608524Y147539D02*
D03*
Y166437D02*
D03*
X591595D02*
D03*
Y147539D02*
D03*
D116*
X640250Y156350D02*
D03*
D117*
X600059Y171752D02*
D03*
D118*
Y142224D02*
D03*
D119*
X656300Y220000D02*
D03*
X591700Y202600D02*
D03*
X589300D02*
D03*
X696400Y189500D02*
D03*
X663459Y141291D02*
D03*
X653600Y165400D02*
D03*
X674800Y184300D02*
D03*
X669800Y183600D02*
D03*
X673483Y182900D02*
D03*
X670100Y212400D02*
D03*
X673200Y208100D02*
D03*
X650200Y181600D02*
D03*
X626700Y189200D02*
D03*
X589300Y140800D02*
D03*
X596200Y141600D02*
D03*
X603900Y141500D02*
D03*
X608800Y141400D02*
D03*
X677800Y193600D02*
D03*
X695000Y222800D02*
D03*
X697400D02*
D03*
X617770Y167759D02*
D03*
X624000Y192100D02*
D03*
X680820Y220142D02*
D03*
X687000Y216500D02*
D03*
X682800Y210400D02*
D03*
X690000Y196500D02*
D03*
X686300Y193700D02*
D03*
X683500Y194500D02*
D03*
X680231Y193769D02*
D03*
X616800Y130000D02*
D03*
Y134000D02*
D03*
Y126300D02*
D03*
Y122300D02*
D03*
X642600Y175900D02*
D03*
X641105Y179867D02*
D03*
X645500Y174200D02*
D03*
X623000Y161800D02*
D03*
X629200Y176900D02*
D03*
X672967Y151300D02*
D03*
X658998Y110515D02*
D03*
X655061D02*
D03*
X615691Y118389D02*
D03*
X611754D02*
D03*
X613723Y114452D02*
D03*
X611754Y110515D02*
D03*
X613723Y106578D02*
D03*
X607817Y118389D02*
D03*
X609786Y114452D02*
D03*
X607817Y110515D02*
D03*
X609786Y106578D02*
D03*
X603880Y118389D02*
D03*
X605849Y114452D02*
D03*
X603880Y110515D02*
D03*
X605849Y106578D02*
D03*
X599943Y118389D02*
D03*
X601912Y114452D02*
D03*
Y106578D02*
D03*
X596006Y134137D02*
D03*
X597975Y130200D02*
D03*
X596006Y126263D02*
D03*
X597975Y122326D02*
D03*
X596006Y118389D02*
D03*
X592069Y173507D02*
D03*
X594038Y138074D02*
D03*
X592069Y134137D02*
D03*
X594038Y130200D02*
D03*
X592069Y126263D02*
D03*
X594038Y122326D02*
D03*
X592069Y118389D02*
D03*
X638900Y124200D02*
D03*
X629330Y118800D02*
D03*
X668400Y219800D02*
D03*
X651300Y220000D02*
D03*
X656300Y212400D02*
D03*
X649400Y209600D02*
D03*
X591800Y185500D02*
D03*
X589400D02*
D03*
Y188200D02*
D03*
X591800D02*
D03*
X591807Y191258D02*
D03*
X589407D02*
D03*
Y193957D02*
D03*
X591807D02*
D03*
X591800Y196700D02*
D03*
X589400D02*
D03*
Y199400D02*
D03*
X591800D02*
D03*
X596000Y177200D02*
D03*
X589200D02*
D03*
X672800Y109000D02*
D03*
Y106600D02*
D03*
X665407Y145108D02*
D03*
X666605Y146605D02*
D03*
X662100Y146600D02*
D03*
X630400Y135200D02*
D03*
X627800Y178100D02*
D03*
X617770Y163359D02*
D03*
X614100Y167800D02*
D03*
Y163400D02*
D03*
X611500Y209400D02*
D03*
X609500Y211600D02*
D03*
X593400Y213500D02*
D03*
X591000D02*
D03*
Y210800D02*
D03*
X593400D02*
D03*
X590800Y218600D02*
D03*
X634711Y224803D02*
D03*
X603900Y180300D02*
D03*
Y183200D02*
D03*
Y186200D02*
D03*
Y189200D02*
D03*
X607556Y219719D02*
D03*
X605610D02*
D03*
X608571Y191893D02*
D03*
X692471Y182693D02*
D03*
X697371Y220293D02*
D03*
X693971Y193693D02*
D03*
X696471D02*
D03*
X696400Y191600D02*
D03*
X635300Y209400D02*
D03*
X645100D02*
D03*
X639100D02*
D03*
X641932Y223819D02*
D03*
X617000Y220300D02*
D03*
X613900D02*
D03*
Y223000D02*
D03*
X617000D02*
D03*
X679020Y197711D02*
D03*
X670300Y202800D02*
D03*
X674900Y197100D02*
D03*
X675300Y200800D02*
D03*
X651900Y150900D02*
D03*
X656600Y160400D02*
D03*
X655200Y161800D02*
D03*
X661993Y158950D02*
D03*
X649500Y158000D02*
D03*
X655615Y154315D02*
D03*
X656915Y153015D02*
D03*
X652717Y156900D02*
D03*
X659307Y158707D02*
D03*
X637200Y167420D02*
D03*
X639200D02*
D03*
X635300Y167991D02*
D03*
X639600Y161300D02*
D03*
X641200Y167991D02*
D03*
X660882Y160749D02*
D03*
X620300Y179402D02*
D03*
X665300Y157580D02*
D03*
X663892Y152720D02*
D03*
X668291Y151591D02*
D03*
X665100Y151300D02*
D03*
X648100Y174200D02*
D03*
X639588Y178188D02*
D03*
X662400Y172864D02*
D03*
X660800Y174164D02*
D03*
X664200Y188500D02*
D03*
X661121Y193219D02*
D03*
Y189319D02*
D03*
X660981Y201089D02*
D03*
X661121Y197119D02*
D03*
Y205019D02*
D03*
X664321Y197219D02*
D03*
Y207519D02*
D03*
X661579Y167863D02*
D03*
X637396Y173790D02*
D03*
X634760Y178265D02*
D03*
X645034Y180334D02*
D03*
X652900Y169400D02*
D03*
X654500Y184539D02*
D03*
Y181179D02*
D03*
X658800D02*
D03*
X661900Y164500D02*
D03*
X660900Y166200D02*
D03*
X627025Y179840D02*
D03*
X658312Y164012D02*
D03*
X647600Y183400D02*
D03*
X643538Y184238D02*
D03*
X660900Y162600D02*
D03*
X677100Y183900D02*
D03*
X678800Y183200D02*
D03*
X671700Y183600D02*
D03*
X666634Y181226D02*
D03*
X671100Y185705D02*
D03*
X680630Y183070D02*
D03*
X671779Y138500D02*
D03*
X668200Y127300D02*
D03*
X668520Y142541D02*
D03*
X664436Y139936D02*
D03*
X661700Y137900D02*
D03*
X670761Y151496D02*
D03*
X689800Y158400D02*
D03*
X654100Y152600D02*
D03*
X654200Y149800D02*
D03*
X653100Y154600D02*
D03*
X656500Y135200D02*
D03*
X655900Y138000D02*
D03*
X651000Y129520D02*
D03*
X642900Y131300D02*
D03*
X632900Y143800D02*
D03*
X635700Y143100D02*
D03*
X631500Y142300D02*
D03*
X635900Y132100D02*
D03*
X635600Y127433D02*
D03*
X642733Y129503D02*
D03*
X652900Y122479D02*
D03*
X646000Y122641D02*
D03*
X633622Y132561D02*
D03*
X664200Y133700D02*
D03*
X660200Y127900D02*
D03*
X650500Y116600D02*
D03*
X646400Y116100D02*
D03*
X642000Y114200D02*
D03*
X647300Y187600D02*
D03*
X639000Y114200D02*
D03*
X619416Y158881D02*
D03*
X630400Y161900D02*
D03*
X628600Y161500D02*
D03*
X633200Y157100D02*
D03*
X635000Y155000D02*
D03*
Y159000D02*
D03*
X642900Y152900D02*
D03*
X604500Y209900D02*
D03*
X602700Y211400D02*
D03*
X645576Y157176D02*
D03*
X632500Y161900D02*
D03*
X631408Y167192D02*
D03*
X623500Y167400D02*
D03*
X690948Y170466D02*
D03*
X695900Y177300D02*
D03*
X692600D02*
D03*
X691252Y168618D02*
D03*
X698300Y172400D02*
D03*
X692607Y160842D02*
D03*
X695400Y151800D02*
D03*
X698600Y153600D02*
D03*
X689800Y155800D02*
D03*
X688000Y155900D02*
D03*
X698400Y176600D02*
D03*
X633800Y141800D02*
D03*
X631200Y129950D02*
D03*
X646189Y126200D02*
D03*
X645550Y133600D02*
D03*
X628400Y152600D02*
D03*
X655100Y128400D02*
D03*
X640867Y129700D02*
D03*
X626400Y129200D02*
D03*
Y130900D02*
D03*
Y132500D02*
D03*
X634456Y120341D02*
D03*
X637278Y118300D02*
D03*
X633070Y118800D02*
D03*
X632900Y146900D02*
D03*
X631400Y148400D02*
D03*
X631500Y145200D02*
D03*
X620252Y142717D02*
D03*
X661800Y135500D02*
D03*
X626100Y149400D02*
D03*
X603489Y164626D02*
D03*
X601489D02*
D03*
X598489D02*
D03*
X596489D02*
D03*
X589100Y162400D02*
D03*
X591100D02*
D03*
X589100Y160100D02*
D03*
X591100D02*
D03*
X616400Y143700D02*
D03*
X611100Y154000D02*
D03*
X613000Y146400D02*
D03*
Y149200D02*
D03*
X608300Y154100D02*
D03*
X609600Y152600D02*
D03*
X591200Y152300D02*
D03*
X607200Y152600D02*
D03*
X589200Y152300D02*
D03*
X591200Y154600D02*
D03*
X589200D02*
D03*
X683169Y151425D02*
D03*
X675843Y209958D02*
D03*
X653300Y145000D02*
D03*
X602700Y208500D02*
D03*
X682800Y183100D02*
D03*
X635700Y145000D02*
D03*
X635900Y114200D02*
D03*
X673900Y223200D02*
D03*
X657000Y223100D02*
D03*
X642136Y214788D02*
D03*
X647000Y218500D02*
D03*
X616300Y150800D02*
D03*
X592600Y157900D02*
D03*
X607800Y155900D02*
D03*
X619390Y154921D02*
D03*
X696063Y153740D02*
D03*
X698524Y161221D02*
D03*
X650984Y216831D02*
D03*
X643600Y133100D02*
D03*
D120*
X675330Y130475D02*
D03*
X696930Y137375D02*
D03*
X673700Y142700D02*
D03*
X677132Y132915D02*
D03*
X681027Y132336D02*
D03*
X684964D02*
D03*
X688901D02*
D03*
X696142Y132106D02*
D03*
X694644Y135747D02*
D03*
X690934Y137064D02*
D03*
X686997D02*
D03*
X683060D02*
D03*
X680116Y139679D02*
D03*
X680120Y143616D02*
D03*
X680153Y147553D02*
D03*
X673500Y135900D02*
D03*
X657701Y113500D02*
D03*
X646900Y199998D02*
D03*
X642500Y200000D02*
D03*
X648900Y204100D02*
D03*
X644300D02*
D03*
X639900Y204102D02*
D03*
X589000Y106000D02*
D03*
Y110600D02*
D03*
X589002Y115000D02*
D03*
X627300Y102700D02*
D03*
X642200Y105900D02*
D03*
X657900Y106500D02*
D03*
X697002Y150000D02*
D03*
X697000Y145600D02*
D03*
Y141000D02*
D03*
X692000Y139998D02*
D03*
X687600Y140000D02*
D03*
X683000D02*
D03*
X696800Y127500D02*
D03*
X677900Y128200D02*
D03*
X682500D02*
D03*
X686900Y128198D02*
D03*
X683000Y144100D02*
D03*
X675339Y140453D02*
D03*
Y145276D02*
D03*
D121*
X644302Y145702D02*
D03*
X641000Y138400D02*
D03*
X647900Y145600D02*
D03*
X683500Y165600D02*
D03*
X679000D02*
D03*
Y161300D02*
D03*
X674500D02*
D03*
Y165600D02*
D03*
X670000Y161300D02*
D03*
X683500D02*
D03*
X670000Y165600D02*
D03*
Y170100D02*
D03*
X674500D02*
D03*
X683500D02*
D03*
X679000D02*
D03*
Y175000D02*
D03*
X683500D02*
D03*
X674500D02*
D03*
X670000D02*
D03*
M02*
