G04*
G04 #@! TF.GenerationSoftware,Altium Limited,Altium Designer,24.10.1 (45)*
G04*
G04 Layer_Color=32896*
%FSLAX25Y25*%
%MOIN*%
G70*
G04*
G04 #@! TF.SameCoordinates,FC073F2D-740C-46EC-94A2-EC185A9C6A3E*
G04*
G04*
G04 #@! TF.FilePolarity,Positive*
G04*
G01*
G75*
%ADD13C,0.00600*%
D13*
X683266Y181032D02*
X682599Y181699D01*
X681266D01*
X680600Y181032D01*
Y180366D01*
X681266Y179699D01*
X682599D01*
X683266Y179033D01*
Y178366D01*
X682599Y177700D01*
X681266D01*
X680600Y178366D01*
X687264Y181032D02*
X686598Y181699D01*
X685265D01*
X684599Y181032D01*
Y178366D01*
X685265Y177700D01*
X686598D01*
X687264Y178366D01*
X688597Y181699D02*
Y177700D01*
X691263D01*
X634500Y112099D02*
Y109433D01*
X635833Y108100D01*
X637166Y109433D01*
Y112099D01*
X638499D02*
Y108100D01*
X640498D01*
X641164Y108766D01*
Y109433D01*
X640498Y110099D01*
X638499D01*
X640498D01*
X641164Y110766D01*
Y111432D01*
X640498Y112099D01*
X638499D01*
X642497Y108100D02*
Y110766D01*
X643830Y112099D01*
X645163Y110766D01*
Y108100D01*
Y110099D01*
X642497D01*
X646496Y112099D02*
X649162D01*
X647829D01*
Y108100D01*
X667500Y132899D02*
Y130233D01*
X668833Y128900D01*
X670166Y130233D01*
Y132899D01*
X671499D02*
Y128900D01*
X673498D01*
X674164Y129567D01*
Y130233D01*
X673498Y130899D01*
X671499D01*
X673498D01*
X674164Y131566D01*
Y132232D01*
X673498Y132899D01*
X671499D01*
X650300Y105599D02*
Y102933D01*
X651633Y101600D01*
X652966Y102933D01*
Y105599D01*
X656964Y104932D02*
X656298Y105599D01*
X654965D01*
X654299Y104932D01*
Y104266D01*
X654965Y103599D01*
X656298D01*
X656964Y102933D01*
Y102266D01*
X656298Y101600D01*
X654965D01*
X654299Y102266D01*
X621666Y172632D02*
X620999Y173299D01*
X619666D01*
X619000Y172632D01*
Y171966D01*
X619666Y171299D01*
X620999D01*
X621666Y170633D01*
Y169966D01*
X620999Y169300D01*
X619666D01*
X619000Y169966D01*
X625665Y172632D02*
X624998Y173299D01*
X623665D01*
X622999Y172632D01*
Y169966D01*
X623665Y169300D01*
X624998D01*
X625665Y169966D01*
X626997Y173299D02*
Y169300D01*
Y170633D01*
X629663Y173299D01*
X627664Y171299D01*
X629663Y169300D01*
X627100Y192099D02*
Y188100D01*
X629099D01*
X629766Y188767D01*
Y191432D01*
X629099Y192099D01*
X627100D01*
X633098D02*
X631765D01*
X631099Y191432D01*
Y188767D01*
X631765Y188100D01*
X633098D01*
X633765Y188767D01*
Y191432D01*
X633098Y192099D01*
X635097D02*
Y188767D01*
X635764Y188100D01*
X637097D01*
X637763Y188767D01*
Y192099D01*
X639096D02*
X641762D01*
X640429D01*
Y188100D01*
X681566Y222632D02*
X680899Y223299D01*
X679566D01*
X678900Y222632D01*
Y219966D01*
X679566Y219300D01*
X680899D01*
X681566Y219966D01*
Y221299D01*
X680233D01*
X682899Y219300D02*
Y223299D01*
X685565Y219300D01*
Y223299D01*
X686897D02*
Y219300D01*
X688897D01*
X689563Y219966D01*
Y222632D01*
X688897Y223299D01*
X686897D01*
X667666Y205400D02*
X665000D01*
X667666Y208066D01*
Y208732D01*
X666999Y209399D01*
X665666D01*
X665000Y208732D01*
X682500Y192632D02*
X683166Y193299D01*
X684499D01*
X685166Y192632D01*
Y191966D01*
X684499Y191299D01*
X685166Y190633D01*
Y189966D01*
X684499Y189300D01*
X683166D01*
X682500Y189966D01*
Y190633D01*
X683166Y191299D01*
X682500Y191966D01*
Y192632D01*
X683166Y191299D02*
X684499D01*
X685966Y203999D02*
X683300D01*
Y201999D01*
X684633Y202666D01*
X685299D01*
X685966Y201999D01*
Y200666D01*
X685299Y200000D01*
X683966D01*
X683300Y200666D01*
X689700Y180600D02*
X691033D01*
X690366D01*
Y184599D01*
X689700Y183932D01*
X693032Y180600D02*
Y181266D01*
X693699D01*
Y180600D01*
X693032D01*
X696364Y183932D02*
X697031Y184599D01*
X698364D01*
X699030Y183932D01*
Y183266D01*
X698364Y182599D01*
X699030Y181933D01*
Y181266D01*
X698364Y180600D01*
X697031D01*
X696364Y181266D01*
Y181933D01*
X697031Y182599D01*
X696364Y183266D01*
Y183932D01*
X697031Y182599D02*
X698364D01*
X689166Y175032D02*
X688499Y175699D01*
X687166D01*
X686500Y175032D01*
Y174366D01*
X687166Y173699D01*
X688499D01*
X689166Y173033D01*
Y172366D01*
X688499Y171700D01*
X687166D01*
X686500Y172366D01*
X690499Y175699D02*
Y171700D01*
X692498D01*
X693164Y172366D01*
Y175032D01*
X692498Y175699D01*
X690499D01*
X694497Y171700D02*
Y174366D01*
X695830Y175699D01*
X697163Y174366D01*
Y171700D01*
Y173699D01*
X694497D01*
X657466Y126199D02*
X654800D01*
Y122200D01*
X657466D01*
X654800Y124199D02*
X656133D01*
X658799Y122200D02*
Y126199D01*
X660798D01*
X661465Y125532D01*
Y124199D01*
X660798Y123533D01*
X658799D01*
X660132D02*
X661465Y122200D01*
X630466Y215832D02*
X629799Y216499D01*
X628466D01*
X627800Y215832D01*
Y213166D01*
X628466Y212500D01*
X629799D01*
X630466Y213166D01*
Y214499D01*
X629133D01*
X631799Y212500D02*
Y216499D01*
X634465Y212500D01*
Y216499D01*
X635797D02*
Y212500D01*
X637797D01*
X638463Y213166D01*
Y215832D01*
X637797Y216499D01*
X635797D01*
X632366Y185632D02*
X631699Y186299D01*
X630366D01*
X629700Y185632D01*
Y182966D01*
X630366Y182300D01*
X631699D01*
X632366Y182966D01*
X636365Y185632D02*
X635698Y186299D01*
X634365D01*
X633699Y185632D01*
Y184966D01*
X634365Y184299D01*
X635698D01*
X636365Y183633D01*
Y182966D01*
X635698Y182300D01*
X634365D01*
X633699Y182966D01*
X666020Y186107D02*
Y190105D01*
X668020D01*
X668686Y189439D01*
Y188106D01*
X668020Y187440D01*
X666020D01*
X667353D02*
X668686Y186107D01*
X670019Y190105D02*
X672685Y186107D01*
Y190105D02*
X670019Y186107D01*
X676799Y196100D02*
Y200099D01*
X674800Y198099D01*
X677466D01*
X607266Y204837D02*
X604600D01*
Y200838D01*
X607266D01*
X604600Y202838D02*
X605933D01*
X611265Y204837D02*
X608599D01*
Y200838D01*
X611265D01*
X608599Y202838D02*
X609932D01*
X615263Y204171D02*
X614597Y204837D01*
X613264D01*
X612597Y204171D01*
Y201505D01*
X613264Y200838D01*
X614597D01*
X615263Y201505D01*
Y202838D01*
X613930D01*
X620595Y203504D02*
X621928Y200838D01*
X623261Y203504D01*
X624593Y200838D02*
X625926D01*
X625260D01*
Y204837D01*
X624593Y204171D01*
X627926Y200838D02*
Y201505D01*
X628592D01*
Y200838D01*
X627926D01*
X631258Y204171D02*
X631924Y204837D01*
X633257D01*
X633924Y204171D01*
Y201505D01*
X633257Y200838D01*
X631924D01*
X631258Y201505D01*
Y204171D01*
X604600Y194600D02*
Y198599D01*
X606599D01*
X607266Y197932D01*
Y196599D01*
X606599Y195933D01*
X604600D01*
X605933D02*
X607266Y194600D01*
X608599D02*
X609932D01*
X609265D01*
Y197266D01*
X608599D01*
X611931Y194600D02*
X613930D01*
X614597Y195266D01*
X613930Y195933D01*
X612597D01*
X611931Y196599D01*
X612597Y197266D01*
X614597D01*
X615930Y198599D02*
Y194600D01*
Y196599D01*
X616596Y197266D01*
X617929D01*
X618596Y196599D01*
Y194600D01*
X620595Y197266D02*
X621928D01*
X622594Y196599D01*
Y194600D01*
X620595D01*
X619928Y195266D01*
X620595Y195933D01*
X622594D01*
X623927Y198599D02*
Y194600D01*
X625926D01*
X626593Y195266D01*
Y195933D01*
Y196599D01*
X625926Y197266D01*
X623927D01*
X627926Y198599D02*
Y194600D01*
Y196599D01*
X628592Y197266D01*
X629925D01*
X630592Y196599D01*
Y194600D01*
X638589Y198599D02*
X637256D01*
X637923D01*
Y195266D01*
X637256Y194600D01*
X636590D01*
X635923Y195266D01*
X640588Y197266D02*
X641921D01*
X642588Y196599D01*
Y194600D01*
X640588D01*
X639922Y195266D01*
X640588Y195933D01*
X642588D01*
X643921Y194600D02*
X645254D01*
X644587D01*
Y197266D01*
X643921D01*
X647253Y194600D02*
Y197266D01*
X649252D01*
X649919Y196599D01*
Y194600D01*
X620700Y122399D02*
Y119733D01*
X622033Y118400D01*
X623366Y119733D01*
Y122399D01*
X624699D02*
Y118400D01*
X626698D01*
X627364Y119067D01*
Y119733D01*
X626698Y120399D01*
X624699D01*
X626698D01*
X627364Y121066D01*
Y121732D01*
X626698Y122399D01*
X624699D01*
X686100Y211300D02*
X687433D01*
X686766D01*
Y215299D01*
X686100Y214632D01*
X670800Y181299D02*
X673466D01*
X672133D01*
Y177300D01*
X674799Y181299D02*
X677464Y177300D01*
Y181299D02*
X674799Y177300D01*
X678500Y208032D02*
X679166Y208699D01*
X680499D01*
X681166Y208032D01*
Y207366D01*
X680499Y206699D01*
X679833D01*
X680499D01*
X681166Y206033D01*
Y205366D01*
X680499Y204700D01*
X679166D01*
X678500Y205366D01*
X612301Y174400D02*
X616300D01*
Y176399D01*
X615633Y177066D01*
X612968D01*
X612301Y176399D01*
Y174400D01*
X616300Y178399D02*
X612301D01*
Y180398D01*
X612968Y181064D01*
X614301D01*
X614967Y180398D01*
Y178399D01*
Y179732D02*
X616300Y181064D01*
X612301Y182397D02*
X616300D01*
Y184397D01*
X615633Y185063D01*
X612968D01*
X612301Y184397D01*
Y182397D01*
Y186396D02*
X612968D01*
X614301Y187729D01*
X612968Y189062D01*
X612301D01*
X614301Y187729D02*
X616300D01*
X688066Y198899D02*
X686733Y198232D01*
X685400Y196899D01*
Y195566D01*
X686066Y194900D01*
X687399D01*
X688066Y195566D01*
Y196233D01*
X687399Y196899D01*
X685400D01*
X676500Y216099D02*
X679166D01*
Y215432D01*
X676500Y212766D01*
Y212100D01*
X647573Y142425D02*
X646906Y143092D01*
X645573D01*
X644907Y142425D01*
Y139760D01*
X645573Y139093D01*
X646906D01*
X647573Y139760D01*
X648906Y143092D02*
Y139093D01*
Y141093D01*
X651571D01*
Y143092D01*
Y139093D01*
X655570Y142425D02*
X654904Y143092D01*
X653571D01*
X652904Y142425D01*
Y139760D01*
X653571Y139093D01*
X654904D01*
X655570Y139760D01*
Y141093D01*
X654237D01*
X633666Y154499D02*
X631000D01*
Y152499D01*
X632333Y153166D01*
X632999D01*
X633666Y152499D01*
Y151166D01*
X632999Y150500D01*
X631666D01*
X631000Y151166D01*
X690666Y203032D02*
X689999Y203699D01*
X688666D01*
X688000Y203032D01*
Y200366D01*
X688666Y199700D01*
X689999D01*
X690666Y200366D01*
Y201699D01*
X689333D01*
X691999Y199700D02*
Y203699D01*
X694664Y199700D01*
Y203699D01*
X695997D02*
Y199700D01*
X697997D01*
X698663Y200366D01*
Y203032D01*
X697997Y203699D01*
X695997D01*
X621066Y112032D02*
X620399Y112699D01*
X619066D01*
X618400Y112032D01*
Y109367D01*
X619066Y108700D01*
X620399D01*
X621066Y109367D01*
Y110699D01*
X619733D01*
X622399Y108700D02*
Y112699D01*
X625065Y108700D01*
Y112699D01*
X626397D02*
Y108700D01*
X628397D01*
X629063Y109367D01*
Y112032D01*
X628397Y112699D01*
X626397D01*
M02*
