G04*
G04 #@! TF.GenerationSoftware,Altium Limited,Altium Designer,24.10.1 (45)*
G04*
G04 Layer_Color=16711935*
%FSLAX25Y25*%
%MOIN*%
G70*
G04*
G04 #@! TF.SameCoordinates,FC073F2D-740C-46EC-94A2-EC185A9C6A3E*
G04*
G04*
G04 #@! TF.FilePolarity,Negative*
G04*
G01*
G75*
%ADD64C,0.02953*%
%ADD69C,0.03800*%
%ADD112C,0.02165*%
%ADD113C,0.02689*%
%ADD114C,0.05315*%
%ADD115C,0.04921*%
%ADD116C,0.06496*%
%ADD117C,0.02874*%
%ADD118C,0.01870*%
%ADD119C,0.01575*%
%ADD120C,0.02559*%
%ADD121C,0.03191*%
D64*
X598476Y194300D02*
X598131Y195249D01*
X597256Y195754D01*
X596262Y195579D01*
X595613Y194805D01*
Y193795D01*
X596262Y193021D01*
X597256Y192846D01*
X598131Y193351D01*
X598476Y194300D01*
X662876Y218100D02*
X662531Y219049D01*
X661656Y219554D01*
X660662Y219379D01*
X660013Y218605D01*
Y217595D01*
X660662Y216821D01*
X661656Y216646D01*
X662531Y217151D01*
X662876Y218100D01*
D69*
X697300Y186600D02*
D03*
X693700Y220300D02*
D03*
X642100Y206900D02*
D03*
X687800Y190800D02*
D03*
X682900Y213600D02*
D03*
X683100Y196800D02*
D03*
X679600Y201500D02*
D03*
X672200Y198500D02*
D03*
X675200Y205000D02*
D03*
X670200Y206300D02*
D03*
X673400Y212000D02*
D03*
X619400Y182100D02*
D03*
X665200Y168800D02*
D03*
X665500Y130800D02*
D03*
X632295Y176700D02*
D03*
X626500Y183100D02*
D03*
X634500Y172400D02*
D03*
X655600Y141800D02*
D03*
X650100Y126000D02*
D03*
X626500Y124900D02*
D03*
X643200Y114800D02*
D03*
X629100Y149600D02*
D03*
X692900Y190200D02*
D03*
X629400Y114500D02*
D03*
X650500Y113500D02*
D03*
X692500Y185500D02*
D03*
X687500Y185400D02*
D03*
X679079Y186029D02*
D03*
X674900Y187750D02*
D03*
D112*
X636089Y106400D02*
D03*
X647900D02*
D03*
D113*
X662600Y103000D02*
D03*
X670600D02*
D03*
X666600Y123000D02*
D03*
D114*
X669100Y108000D02*
D03*
X664100D02*
D03*
X669100Y113000D02*
D03*
X664100D02*
D03*
X669100Y118000D02*
D03*
X664100D02*
D03*
D115*
X608524Y147539D02*
D03*
Y166437D02*
D03*
X591595D02*
D03*
Y147539D02*
D03*
D116*
X640250Y156350D02*
D03*
D117*
X600059Y171752D02*
D03*
D118*
Y142224D02*
D03*
D119*
X656300Y220000D02*
D03*
X591700Y202600D02*
D03*
X589300D02*
D03*
X696400Y189500D02*
D03*
X663459Y141291D02*
D03*
X653600Y165400D02*
D03*
X674800Y184300D02*
D03*
X669800Y183600D02*
D03*
X673483Y182900D02*
D03*
X670100Y212400D02*
D03*
X673200Y208100D02*
D03*
X650200Y181600D02*
D03*
X626700Y189200D02*
D03*
X589300Y140800D02*
D03*
X596200Y141600D02*
D03*
X603900Y141500D02*
D03*
X608800Y141400D02*
D03*
X677800Y193600D02*
D03*
X695000Y222800D02*
D03*
X697400D02*
D03*
X617770Y167759D02*
D03*
X624000Y192100D02*
D03*
X680820Y220142D02*
D03*
X687000Y216500D02*
D03*
X682800Y210400D02*
D03*
X690000Y196500D02*
D03*
X686300Y193700D02*
D03*
X683500Y194500D02*
D03*
X680231Y193769D02*
D03*
X616800Y130000D02*
D03*
Y134000D02*
D03*
Y126300D02*
D03*
Y122300D02*
D03*
X642600Y175900D02*
D03*
X641105Y179867D02*
D03*
X645500Y174200D02*
D03*
X623000Y161800D02*
D03*
X629200Y176900D02*
D03*
X672967Y151300D02*
D03*
X658998Y110515D02*
D03*
X655061D02*
D03*
X615691Y118389D02*
D03*
X611754D02*
D03*
X613723Y114452D02*
D03*
X611754Y110515D02*
D03*
X613723Y106578D02*
D03*
X607817Y118389D02*
D03*
X609786Y114452D02*
D03*
X607817Y110515D02*
D03*
X609786Y106578D02*
D03*
X603880Y118389D02*
D03*
X605849Y114452D02*
D03*
X603880Y110515D02*
D03*
X605849Y106578D02*
D03*
X599943Y118389D02*
D03*
X601912Y114452D02*
D03*
Y106578D02*
D03*
X596006Y134137D02*
D03*
X597975Y130200D02*
D03*
X596006Y126263D02*
D03*
X597975Y122326D02*
D03*
X596006Y118389D02*
D03*
X592069Y173507D02*
D03*
X594038Y138074D02*
D03*
X592069Y134137D02*
D03*
X594038Y130200D02*
D03*
X592069Y126263D02*
D03*
X594038Y122326D02*
D03*
X592069Y118389D02*
D03*
X638900Y124200D02*
D03*
X629330Y118800D02*
D03*
X668400Y219800D02*
D03*
X651300Y220000D02*
D03*
X656300Y212400D02*
D03*
X649400Y209600D02*
D03*
X591800Y185500D02*
D03*
X589400D02*
D03*
Y188200D02*
D03*
X591800D02*
D03*
X591807Y191258D02*
D03*
X589407D02*
D03*
Y193957D02*
D03*
X591807D02*
D03*
X591800Y196700D02*
D03*
X589400D02*
D03*
Y199400D02*
D03*
X591800D02*
D03*
X596000Y177200D02*
D03*
X589200D02*
D03*
X672800Y109000D02*
D03*
Y106600D02*
D03*
X665407Y145108D02*
D03*
X666605Y146605D02*
D03*
X662100Y146600D02*
D03*
X630400Y135200D02*
D03*
X627800Y178100D02*
D03*
X617770Y163359D02*
D03*
X614100Y167800D02*
D03*
Y163400D02*
D03*
X611500Y209400D02*
D03*
X609500Y211600D02*
D03*
X593400Y213500D02*
D03*
X591000D02*
D03*
Y210800D02*
D03*
X593400D02*
D03*
X590800Y218600D02*
D03*
X634711Y224803D02*
D03*
X603900Y180300D02*
D03*
Y183200D02*
D03*
Y186200D02*
D03*
Y189200D02*
D03*
X607556Y219719D02*
D03*
X605610D02*
D03*
X608571Y191893D02*
D03*
X692471Y182693D02*
D03*
X697371Y220293D02*
D03*
X693971Y193693D02*
D03*
X696471D02*
D03*
X696400Y191600D02*
D03*
X635300Y209400D02*
D03*
X645100D02*
D03*
X639100D02*
D03*
X641932Y223819D02*
D03*
X617000Y220300D02*
D03*
X613900D02*
D03*
Y223000D02*
D03*
X617000D02*
D03*
X679020Y197711D02*
D03*
X670300Y202800D02*
D03*
X674900Y197100D02*
D03*
X675300Y200800D02*
D03*
X651900Y150900D02*
D03*
X656600Y160400D02*
D03*
X655200Y161800D02*
D03*
X661993Y158950D02*
D03*
X649500Y158000D02*
D03*
X655615Y154315D02*
D03*
X656915Y153015D02*
D03*
X652717Y156900D02*
D03*
X659307Y158707D02*
D03*
X637200Y167420D02*
D03*
X639200D02*
D03*
X635300Y167991D02*
D03*
X639600Y161300D02*
D03*
X641200Y167991D02*
D03*
X660882Y160749D02*
D03*
X620300Y179402D02*
D03*
X665300Y157580D02*
D03*
X663892Y152720D02*
D03*
X668291Y151591D02*
D03*
X665100Y151300D02*
D03*
X648100Y174200D02*
D03*
X639588Y178188D02*
D03*
X662400Y172864D02*
D03*
X660800Y174164D02*
D03*
X664200Y188500D02*
D03*
X661121Y193219D02*
D03*
Y189319D02*
D03*
X660981Y201089D02*
D03*
X661121Y197119D02*
D03*
Y205019D02*
D03*
X664321Y197219D02*
D03*
Y207519D02*
D03*
X661579Y167863D02*
D03*
X637396Y173790D02*
D03*
X634760Y178265D02*
D03*
X645034Y180334D02*
D03*
X652900Y169400D02*
D03*
X654500Y184539D02*
D03*
Y181179D02*
D03*
X658800D02*
D03*
X661900Y164500D02*
D03*
X660900Y166200D02*
D03*
X627025Y179840D02*
D03*
X658312Y164012D02*
D03*
X647600Y183400D02*
D03*
X643538Y184238D02*
D03*
X660900Y162600D02*
D03*
X677100Y183900D02*
D03*
X678800Y183200D02*
D03*
X671700Y183600D02*
D03*
X666634Y181226D02*
D03*
X671100Y185705D02*
D03*
X680630Y183070D02*
D03*
X671779Y138500D02*
D03*
X668200Y127300D02*
D03*
X668520Y142541D02*
D03*
X664436Y139936D02*
D03*
X661700Y137900D02*
D03*
X670761Y151496D02*
D03*
X689800Y158400D02*
D03*
X654100Y152600D02*
D03*
X654200Y149800D02*
D03*
X653100Y154600D02*
D03*
X656500Y135200D02*
D03*
X655900Y138000D02*
D03*
X651000Y129520D02*
D03*
X642900Y131300D02*
D03*
X632900Y143800D02*
D03*
X635700Y143100D02*
D03*
X631500Y142300D02*
D03*
X635900Y132100D02*
D03*
X635600Y127433D02*
D03*
X642733Y129503D02*
D03*
X652900Y122479D02*
D03*
X646000Y122641D02*
D03*
X633622Y132561D02*
D03*
X664200Y133700D02*
D03*
X660200Y127900D02*
D03*
X650500Y116600D02*
D03*
X646400Y116100D02*
D03*
X642000Y114200D02*
D03*
X647300Y187600D02*
D03*
X639000Y114200D02*
D03*
X619416Y158881D02*
D03*
X630400Y161900D02*
D03*
X628600Y161500D02*
D03*
X633200Y157100D02*
D03*
X635000Y155000D02*
D03*
Y159000D02*
D03*
X642900Y152900D02*
D03*
X604500Y209900D02*
D03*
X602700Y211400D02*
D03*
X645576Y157176D02*
D03*
X632500Y161900D02*
D03*
X631408Y167192D02*
D03*
X623500Y167400D02*
D03*
X690948Y170466D02*
D03*
X695900Y177300D02*
D03*
X692600D02*
D03*
X691252Y168618D02*
D03*
X698300Y172400D02*
D03*
X692607Y160842D02*
D03*
X695400Y151800D02*
D03*
X698600Y153600D02*
D03*
X689800Y155800D02*
D03*
X688000Y155900D02*
D03*
X698400Y176600D02*
D03*
X633800Y141800D02*
D03*
X631200Y129950D02*
D03*
X646189Y126200D02*
D03*
X645550Y133600D02*
D03*
X628400Y152600D02*
D03*
X655100Y128400D02*
D03*
X640867Y129700D02*
D03*
X626400Y129200D02*
D03*
Y130900D02*
D03*
Y132500D02*
D03*
X634456Y120341D02*
D03*
X637278Y118300D02*
D03*
X633070Y118800D02*
D03*
X632900Y146900D02*
D03*
X631400Y148400D02*
D03*
X631500Y145200D02*
D03*
X620252Y142717D02*
D03*
X661800Y135500D02*
D03*
X626100Y149400D02*
D03*
X603489Y164626D02*
D03*
X601489D02*
D03*
X598489D02*
D03*
X596489D02*
D03*
X589100Y162400D02*
D03*
X591100D02*
D03*
X589100Y160100D02*
D03*
X591100D02*
D03*
X616400Y143700D02*
D03*
X611100Y154000D02*
D03*
X613000Y146400D02*
D03*
Y149200D02*
D03*
X608300Y154100D02*
D03*
X609600Y152600D02*
D03*
X591200Y152300D02*
D03*
X607200Y152600D02*
D03*
X589200Y152300D02*
D03*
X591200Y154600D02*
D03*
X589200D02*
D03*
X683169Y151425D02*
D03*
X675843Y209958D02*
D03*
X653300Y145000D02*
D03*
X602700Y208500D02*
D03*
X682800Y183100D02*
D03*
X635700Y145000D02*
D03*
X635900Y114200D02*
D03*
X673900Y223200D02*
D03*
X657000Y223100D02*
D03*
X642136Y214788D02*
D03*
X647000Y218500D02*
D03*
X616300Y150800D02*
D03*
X592600Y157900D02*
D03*
X607800Y155900D02*
D03*
X619390Y154921D02*
D03*
X696063Y153740D02*
D03*
X698524Y161221D02*
D03*
X650984Y216831D02*
D03*
X643600Y133100D02*
D03*
D120*
X675330Y130475D02*
D03*
X696930Y137375D02*
D03*
X673700Y142700D02*
D03*
X677132Y132915D02*
D03*
X681027Y132336D02*
D03*
X684964D02*
D03*
X688901D02*
D03*
X696142Y132106D02*
D03*
X694644Y135747D02*
D03*
X690934Y137064D02*
D03*
X686997D02*
D03*
X683060D02*
D03*
X680116Y139679D02*
D03*
X680120Y143616D02*
D03*
X680153Y147553D02*
D03*
X673500Y135900D02*
D03*
X657701Y113500D02*
D03*
X646900Y199998D02*
D03*
X642500Y200000D02*
D03*
X648900Y204100D02*
D03*
X644300D02*
D03*
X639900Y204102D02*
D03*
X589000Y106000D02*
D03*
Y110600D02*
D03*
X589002Y115000D02*
D03*
X627300Y102700D02*
D03*
X642200Y105900D02*
D03*
X657900Y106500D02*
D03*
X697002Y150000D02*
D03*
X697000Y145600D02*
D03*
Y141000D02*
D03*
X692000Y139998D02*
D03*
X687600Y140000D02*
D03*
X683000D02*
D03*
X696800Y127500D02*
D03*
X677900Y128200D02*
D03*
X682500D02*
D03*
X686900Y128198D02*
D03*
X683000Y144100D02*
D03*
X675339Y140453D02*
D03*
Y145276D02*
D03*
D121*
X644302Y145702D02*
D03*
X641000Y138400D02*
D03*
X647900Y145600D02*
D03*
X683500Y165600D02*
D03*
X679000D02*
D03*
Y161300D02*
D03*
X674500D02*
D03*
Y165600D02*
D03*
X670000Y161300D02*
D03*
X683500D02*
D03*
X670000Y165600D02*
D03*
Y170100D02*
D03*
X674500D02*
D03*
X683500D02*
D03*
X679000D02*
D03*
Y175000D02*
D03*
X683500D02*
D03*
X674500D02*
D03*
X670000D02*
D03*
M02*
