G04*
G04 #@! TF.GenerationSoftware,Altium Limited,Altium Designer,24.10.1 (45)*
G04*
G04 Layer_Color=65535*
%FSLAX25Y25*%
%MOIN*%
G70*
G04*
G04 #@! TF.SameCoordinates,FC073F2D-740C-46EC-94A2-EC185A9C6A3E*
G04*
G04*
G04 #@! TF.FilePolarity,Positive*
G04*
G01*
G75*
%ADD10C,0.00394*%
%ADD11C,0.00984*%
%ADD12C,0.00787*%
%ADD13C,0.00600*%
%ADD14C,0.00787*%
%ADD15C,0.00197*%
D10*
X600197Y136100D02*
X599803D01*
X600197D01*
X691200Y194200D02*
X690806D01*
X691200D01*
X638058Y114136D02*
Y114530D01*
Y114136D01*
X663437Y132203D02*
Y132597D01*
Y132203D01*
X695313Y151657D02*
Y151264D01*
Y151657D01*
X622835Y150295D02*
Y150689D01*
Y150295D01*
X596772Y137697D02*
Y137303D01*
Y137697D01*
X615063Y139403D02*
Y139797D01*
Y139403D01*
X593049Y115825D02*
Y132361D01*
X600726D01*
X616474D02*
X624151D01*
Y115825D02*
Y132361D01*
X599939Y102439D02*
X616474D01*
X660200Y126000D02*
X673100D01*
X660200Y100000D02*
Y126000D01*
Y100000D02*
X673100D01*
Y126000D01*
X656595Y147441D02*
Y149016D01*
X659744Y147441D02*
Y149016D01*
D11*
X604492Y224400D02*
X603754Y224826D01*
Y223974D01*
X604492Y224400D01*
X661231Y174481D02*
X660493Y174907D01*
Y174055D01*
X661231Y174481D01*
X652945Y151523D02*
X652207Y151949D01*
Y151097D01*
X652945Y151523D01*
D12*
X688386Y181496D02*
X687598D01*
X688386D01*
X661289Y121500D02*
X660895D01*
X661289D01*
X660895D01*
X656694Y124956D02*
X655906D01*
X656694D01*
X680039Y188583D02*
X698937D01*
Y194488D01*
X695000D02*
X698937D01*
X695000Y216535D02*
X698937D01*
Y222441D01*
X680827D02*
X698937D01*
X670590Y190551D02*
Y220472D01*
X591184Y213784D02*
Y224217D01*
Y213784D02*
X601616D01*
X591184Y224217D02*
X601616D01*
Y213784D02*
Y224217D01*
X617924Y173891D02*
X654538D01*
X617924D02*
Y210505D01*
X654538D01*
Y173891D02*
Y210505D01*
X642388Y96361D02*
Y101479D01*
Y96361D02*
X647113D01*
Y101479D01*
X652821D02*
Y103506D01*
X631168Y101479D02*
X652821D01*
X631168D02*
Y103506D01*
Y108624D02*
Y111321D01*
X635695D01*
X648294D02*
X652821D01*
Y108624D02*
Y111321D01*
X693519Y171000D02*
X695881D01*
X659500Y131809D02*
Y132991D01*
X603346Y174390D02*
X605965D01*
Y169587D02*
Y174390D01*
X594153D02*
X596910D01*
X594153Y169587D02*
Y174390D01*
X605965Y139587D02*
Y144390D01*
X594153Y139587D02*
X605965D01*
X594153D02*
Y144390D01*
X630019Y126800D02*
X632381D01*
X638116Y120750D02*
X640084D01*
X638116D02*
Y127050D01*
X640084D01*
Y120750D02*
Y127050D01*
X641462Y120357D02*
X643332D01*
X618504Y153839D02*
X620472D01*
X618504D02*
Y160138D01*
X620472D01*
Y153839D02*
Y160138D01*
X621850Y153445D02*
X623721D01*
X619000Y139009D02*
Y140191D01*
D13*
X629480Y145565D02*
X628729Y145998D01*
Y145132D01*
X629480Y145565D01*
X593466Y182932D02*
X592799Y183599D01*
X591466D01*
X590800Y182932D01*
Y180266D01*
X591466Y179600D01*
X592799D01*
X593466Y180266D01*
Y181599D01*
X592133D01*
X594799Y179600D02*
Y183599D01*
X597465Y179600D01*
Y183599D01*
X598797D02*
Y179600D01*
X600797D01*
X601463Y180266D01*
Y182932D01*
X600797Y183599D01*
X598797D01*
X604350Y195869D02*
Y197202D01*
Y196535D01*
X600351D01*
X601017Y195869D01*
X604350Y199201D02*
X603683D01*
Y199868D01*
X604350D01*
Y199201D01*
X601017Y202533D02*
X600351Y203200D01*
Y204533D01*
X601017Y205199D01*
X601684D01*
X602350Y204533D01*
X603017Y205199D01*
X603683D01*
X604350Y204533D01*
Y203200D01*
X603683Y202533D01*
X603017D01*
X602350Y203200D01*
X601684Y202533D01*
X601017D01*
X602350Y203200D02*
Y204533D01*
D14*
X657781Y125070D02*
D03*
D15*
X698106Y164300D02*
X698894D01*
M02*
