G04*
G04 #@! TF.GenerationSoftware,Altium Limited,Altium Designer,24.10.1 (45)*
G04*
G04 Layer_Physical_Order=1*
G04 Layer_Color=255*
%FSLAX25Y25*%
%MOIN*%
G70*
G04*
G04 #@! TF.SameCoordinates,FC073F2D-740C-46EC-94A2-EC185A9C6A3E*
G04*
G04*
G04 #@! TF.FilePolarity,Positive*
G04*
G01*
G75*
%ADD16R,0.03937X0.13780*%
%ADD17R,0.05906X0.13386*%
%ADD18R,0.07480X0.02559*%
%ADD19R,0.06929X0.01181*%
%ADD20R,0.01476X0.01378*%
%ADD21R,0.01378X0.01476*%
%ADD22C,0.03000*%
%ADD23R,0.01378X0.00984*%
%ADD24R,0.01181X0.01181*%
%ADD25R,0.01181X0.01181*%
%ADD26R,0.05807X0.01181*%
%ADD27R,0.01181X0.05807*%
%ADD28R,0.01811X0.01654*%
%ADD29R,0.01850X0.01732*%
%ADD30R,0.00984X0.01378*%
%ADD31R,0.02717X0.02835*%
%ADD32R,0.01732X0.01850*%
%ADD33R,0.18504X0.18504*%
%ADD34R,0.03347X0.00787*%
%ADD35R,0.00787X0.03347*%
%ADD36R,0.02362X0.02008*%
%ADD37R,0.03543X0.02756*%
%ADD38R,0.01378X0.00787*%
%ADD39R,0.01181X0.01083*%
%ADD40R,0.03937X0.03543*%
%ADD41R,0.02835X0.02717*%
%ADD42R,0.02362X0.02756*%
%ADD43R,0.01772X0.02362*%
%ADD44R,0.03347X0.02953*%
%ADD45R,0.01600X0.02100*%
%ADD46R,0.00787X0.01102*%
%ADD47R,0.01181X0.03150*%
%ADD48R,0.10827X0.10827*%
%ADD49R,0.03150X0.01181*%
%ADD50R,0.03819X0.05787*%
%ADD51R,0.03347X0.01378*%
%ADD52R,0.01575X0.02461*%
%ADD53R,0.02461X0.01575*%
%ADD54R,0.01870X0.01181*%
%ADD55R,0.01181X0.00957*%
%ADD56R,0.01654X0.01811*%
%ADD57R,0.03937X0.02165*%
%ADD58R,0.03347X0.01181*%
%ADD59R,0.07087X0.04724*%
%ADD60R,0.02362X0.01378*%
%ADD61R,0.03937X0.03740*%
%ADD62R,0.02800X0.01500*%
%ADD63R,0.02100X0.01600*%
%ADD101P,0.02828X4X360.0*%
%ADD122R,0.00500X0.00500*%
%ADD123C,0.00800*%
%ADD124C,0.01031*%
%ADD125C,0.01000*%
%ADD126C,0.00700*%
%ADD127C,0.00900*%
%ADD128C,0.00947*%
%ADD129C,0.01575*%
%ADD130C,0.02098*%
%ADD131C,0.04724*%
%ADD132C,0.05906*%
%ADD133C,0.04331*%
%ADD134C,0.02284*%
%ADD135C,0.01280*%
%ADD136C,0.00984*%
%ADD137C,0.01968*%
%ADD138C,0.02600*%
G36*
X671547Y221957D02*
Y220427D01*
X675787D01*
X680027D01*
Y221301D01*
X680527Y221508D01*
X685720Y216315D01*
Y216246D01*
X685915Y215775D01*
X686275Y215415D01*
X686746Y215220D01*
X686815D01*
X690067Y211969D01*
X689860Y211469D01*
X683541D01*
X683525Y211485D01*
X683054Y211680D01*
X682546D01*
X682075Y211485D01*
X682026Y211436D01*
X680529D01*
X676075Y215890D01*
X675739Y216114D01*
X675343Y216193D01*
X668512D01*
Y216248D01*
X666331D01*
Y214067D01*
X665968Y213735D01*
X665676Y213677D01*
X665340Y213453D01*
X664019Y212131D01*
X663547D01*
X663447Y212111D01*
X663132D01*
Y212040D01*
X662814Y211828D01*
X661750Y210764D01*
X661526Y210428D01*
X661447Y210031D01*
Y208738D01*
X660760Y208052D01*
X655418D01*
Y205871D01*
Y201934D01*
Y197997D01*
Y194060D01*
Y190123D01*
Y186341D01*
X653600D01*
X653217Y186183D01*
X653059Y185800D01*
Y176900D01*
X653217Y176517D01*
X653600Y176359D01*
X655418D01*
Y176343D01*
X658201D01*
X658392Y175881D01*
X657972Y175461D01*
X650882D01*
X650486Y175382D01*
X650150Y175157D01*
X649782Y174789D01*
X649192Y174907D01*
X649185Y174925D01*
X648825Y175285D01*
X648354Y175479D01*
X648118D01*
X645043Y178554D01*
X645251Y179054D01*
X645288D01*
X645759Y179249D01*
X646119Y179609D01*
X646313Y180079D01*
Y180588D01*
X646119Y181059D01*
X645759Y181419D01*
X645288Y181613D01*
X645084D01*
X644138Y182560D01*
X644255Y183150D01*
X644262Y183153D01*
X644622Y183513D01*
X644817Y183983D01*
Y184492D01*
X644622Y184962D01*
X644262Y185322D01*
X643792Y185517D01*
X643524D01*
X627663Y201379D01*
X627854Y201841D01*
X628762D01*
X646504Y184098D01*
X646320Y183654D01*
Y183145D01*
X646515Y182675D01*
X646875Y182315D01*
X647345Y182121D01*
X647855D01*
X648325Y182315D01*
X648685Y182675D01*
X648879Y183145D01*
Y183654D01*
X648685Y184125D01*
X648518Y184292D01*
Y184300D01*
X648448Y184651D01*
X648249Y184949D01*
X647377Y185820D01*
X647554Y186320D01*
X648025Y186515D01*
X648385Y186875D01*
X648580Y187346D01*
Y187855D01*
X648385Y188325D01*
X648025Y188685D01*
X647554Y188880D01*
X647318D01*
X625275Y210923D01*
X625466Y211385D01*
X634997D01*
Y214788D01*
X635497D01*
Y211385D01*
X638934D01*
Y214788D01*
X639433D01*
Y211385D01*
X644839D01*
Y214788D01*
X645339D01*
Y211385D01*
X648776D01*
Y214788D01*
Y218192D01*
X648315D01*
X648279Y218246D01*
Y218755D01*
X648093Y219205D01*
Y219482D01*
X648014Y219878D01*
X647897Y220053D01*
X648463Y220618D01*
X648687Y220954D01*
X648766Y221350D01*
Y221853D01*
X649565D01*
Y222183D01*
X656107D01*
X656275Y222015D01*
X656745Y221820D01*
X657255D01*
X657725Y222015D01*
X657893Y222183D01*
X671141D01*
X671547Y221957D01*
D02*
G37*
G36*
X699251Y215461D02*
X695644D01*
Y214370D01*
X695394D01*
Y214120D01*
X691264D01*
X690967Y213997D01*
X688279Y216685D01*
Y216755D01*
X688085Y217225D01*
X687725Y217585D01*
X687254Y217779D01*
X687185D01*
X681013Y223951D01*
X680677Y224176D01*
X680281Y224254D01*
X674655D01*
X674625Y224285D01*
X674155Y224480D01*
X673645D01*
X673175Y224285D01*
X673145Y224254D01*
X657557D01*
X657255Y224379D01*
X656745D01*
X656443Y224254D01*
X649565D01*
Y224585D01*
X645752D01*
Y223219D01*
X645252D01*
Y224585D01*
X644392D01*
X644075Y225084D01*
X644168Y225280D01*
X699251D01*
Y215461D01*
D02*
G37*
G36*
X621923Y224681D02*
X621587Y224321D01*
X620471D01*
Y222895D01*
X620221D01*
Y222645D01*
X618855D01*
Y221470D01*
Y218832D01*
X620134D01*
X620465Y218405D01*
X620376Y218192D01*
X620376D01*
Y215038D01*
X621467D01*
Y214538D01*
X620376D01*
Y213063D01*
X619914Y212872D01*
X614854Y217932D01*
X614831Y217967D01*
X608509Y224289D01*
X608211Y224488D01*
X607860Y224558D01*
X594354D01*
X594003Y224488D01*
X593705Y224289D01*
X593087Y223671D01*
X592888Y223374D01*
X592862Y223240D01*
X592258D01*
Y222599D01*
X589491D01*
Y222772D01*
X587310D01*
X586903Y222997D01*
Y225280D01*
X621923D01*
Y224681D01*
D02*
G37*
G36*
X679109Y209927D02*
X679115Y209791D01*
X678997Y209331D01*
X678795Y209197D01*
X673329Y203731D01*
X671179D01*
X671025Y203885D01*
X670554Y204080D01*
X670046D01*
X669575Y203885D01*
X669421Y203731D01*
X668914D01*
X668512Y203967D01*
Y206148D01*
X668512D01*
Y206505D01*
X668512D01*
Y208367D01*
X668512Y208686D01*
X668864Y209040D01*
X674951D01*
X675118Y208873D01*
X675588Y208678D01*
X676097D01*
X676567Y208873D01*
X676927Y209233D01*
X677122Y209703D01*
Y210212D01*
X676927Y210682D01*
X676567Y211042D01*
X676097Y211237D01*
X675588D01*
X675118Y211042D01*
X674951Y210875D01*
X668512D01*
Y211048D01*
X667025D01*
X666758Y211548D01*
X666849Y211685D01*
X667346D01*
X667446Y211705D01*
X668512D01*
Y213886D01*
X668914Y214122D01*
X674914D01*
X679109Y209927D01*
D02*
G37*
G36*
X592160Y220234D02*
X593398D01*
Y219734D01*
X592160D01*
Y218266D01*
X593398D01*
Y217766D01*
X592160D01*
Y216827D01*
X592258D01*
Y216248D01*
X593447D01*
Y215998D01*
X593697D01*
Y214760D01*
X595166D01*
Y215998D01*
X595666D01*
Y214760D01*
X596062D01*
X596289Y214519D01*
X596399Y214260D01*
X596440Y214160D01*
Y214053D01*
X596516Y213977D01*
X596558Y213877D01*
X597046Y213389D01*
X596951Y213159D01*
Y211600D01*
X596701D01*
Y211350D01*
X595295D01*
Y210273D01*
X594947Y209917D01*
X593931D01*
Y208250D01*
X595789D01*
Y207750D01*
X593931D01*
Y206518D01*
X593431Y206311D01*
X589420Y210322D01*
Y218228D01*
X589491D01*
Y220409D01*
X589843Y220763D01*
X592160D01*
Y220234D01*
D02*
G37*
G36*
X614688Y208514D02*
X614497Y208052D01*
X613890D01*
Y206961D01*
X613640D01*
Y206711D01*
X610237D01*
Y203942D01*
X609190D01*
X609026Y203909D01*
X608339D01*
X608253Y203954D01*
X607941Y204298D01*
Y213600D01*
X607783Y213983D01*
X607783Y213983D01*
X606406Y215360D01*
X606597Y215822D01*
X607380D01*
X614688Y208514D01*
D02*
G37*
G36*
X587458Y209510D02*
X587679Y209179D01*
X592479Y204379D01*
X592810Y204158D01*
X593200Y204080D01*
X597559D01*
Y202420D01*
X596443D01*
X596395Y202533D01*
X595833Y203096D01*
X595098Y203400D01*
X594302D01*
X593567Y203096D01*
X593005Y202533D01*
X592700Y201798D01*
Y201002D01*
X593005Y200267D01*
X593567Y199705D01*
X594302Y199400D01*
X595098D01*
X595833Y199705D01*
X596395Y200267D01*
X596443Y200380D01*
X597568D01*
X597654Y198388D01*
X597598Y198239D01*
X597598Y198232D01*
X597576Y198159D01*
X597449Y197970D01*
X597068Y197753D01*
X596545D01*
X595667Y197518D01*
X594880Y197063D01*
X594237Y196420D01*
X593783Y195633D01*
X593547Y194755D01*
Y193845D01*
X593783Y192967D01*
X594237Y192180D01*
X594880Y191537D01*
X595667Y191083D01*
X596545Y190847D01*
X597455D01*
X597559Y190767D01*
Y176900D01*
X597559Y176900D01*
X597717Y176517D01*
X598949Y175286D01*
X598846Y174904D01*
X598755Y174772D01*
X598053Y174367D01*
X597444Y173758D01*
X597014Y173013D01*
X596791Y172182D01*
Y171322D01*
X597014Y170491D01*
X597444Y169746D01*
X597686Y169504D01*
X597479Y169004D01*
X597022D01*
Y167815D01*
X596772D01*
Y167565D01*
X594598D01*
Y167456D01*
X594098Y167390D01*
X594078Y167466D01*
X593727Y168074D01*
X593231Y168570D01*
X592623Y168921D01*
X591945Y169102D01*
X591394D01*
X591332Y169571D01*
X591245Y169722D01*
X591178Y169883D01*
X591144Y169897D01*
X591125Y169929D01*
X590957Y169975D01*
X590796Y170041D01*
X586903D01*
Y209738D01*
X587403Y209788D01*
X587458Y209510D01*
D02*
G37*
G36*
X610237Y191463D02*
X613640D01*
Y190963D01*
X610237D01*
Y190267D01*
X609493D01*
Y190309D01*
X607631D01*
X607312Y190310D01*
X606812Y190309D01*
X606290D01*
Y189219D01*
Y188128D01*
X606812D01*
X607131Y188128D01*
X607631Y188128D01*
X609493D01*
Y188196D01*
X610237D01*
Y186715D01*
X609737Y186506D01*
X609493Y186747D01*
Y187309D01*
X607631D01*
X607312Y187310D01*
X606812Y187309D01*
X606290D01*
Y186219D01*
Y185128D01*
X606812D01*
X607131Y185128D01*
X607813Y185128D01*
X607978Y184909D01*
X607730Y184409D01*
X607312Y184409D01*
X606812Y184409D01*
X606290D01*
Y183319D01*
Y182228D01*
X606812D01*
X607131Y182228D01*
X607631Y182228D01*
X608140D01*
X608323Y181788D01*
X608013Y181409D01*
X607312Y181410D01*
X606812Y181409D01*
X606290D01*
Y180319D01*
Y179228D01*
X606812D01*
X607131Y179228D01*
X607631Y179228D01*
X609493D01*
Y179779D01*
X609737Y179967D01*
X610237Y179728D01*
Y178541D01*
X609726D01*
Y178703D01*
X605972D01*
Y177376D01*
X605472D01*
Y178703D01*
X604441D01*
Y179021D01*
X604283Y179403D01*
X603900Y179562D01*
X603753D01*
X603482Y179674D01*
X603274Y179882D01*
X603162Y180153D01*
Y180447D01*
X603274Y180718D01*
X603482Y180926D01*
X603611Y180979D01*
X603687Y181055D01*
X603787Y181097D01*
X603828Y181196D01*
X603904Y181272D01*
Y181380D01*
X603945Y181479D01*
Y182021D01*
X603904Y182120D01*
Y182228D01*
X603828Y182304D01*
X603787Y182403D01*
X603687Y182445D01*
X603611Y182521D01*
X603482Y182574D01*
X603274Y182782D01*
X603162Y183053D01*
Y183347D01*
X603274Y183618D01*
X603482Y183826D01*
X603781Y183950D01*
X603829Y183998D01*
X603895Y184014D01*
X603971Y184140D01*
X604074Y184243D01*
Y184311D01*
X604109Y184369D01*
X604130Y184505D01*
X604120Y184547D01*
X604136Y184586D01*
Y184814D01*
X604120Y184853D01*
X604130Y184895D01*
X604109Y185031D01*
X604074Y185089D01*
Y185157D01*
X603971Y185260D01*
X603895Y185386D01*
X603829Y185402D01*
X603781Y185450D01*
X603482Y185574D01*
X603274Y185782D01*
X603162Y186053D01*
Y186347D01*
X603274Y186618D01*
X603482Y186826D01*
X603781Y186950D01*
X603829Y186998D01*
X603895Y187014D01*
X603971Y187139D01*
X604074Y187243D01*
Y187311D01*
X604109Y187369D01*
X604130Y187505D01*
X604120Y187547D01*
X604136Y187586D01*
Y187814D01*
X604120Y187853D01*
X604130Y187895D01*
X604109Y188031D01*
X604074Y188089D01*
Y188157D01*
X603971Y188260D01*
X603895Y188386D01*
X603829Y188402D01*
X603781Y188450D01*
X603482Y188574D01*
X603274Y188782D01*
X603162Y189053D01*
Y189347D01*
X603274Y189618D01*
X603482Y189826D01*
X603753Y189938D01*
X603900D01*
X604283Y190097D01*
X604441Y190480D01*
Y191159D01*
X606600D01*
X606983Y191317D01*
X607783Y192117D01*
X607941Y192500D01*
X607941Y192500D01*
Y193540D01*
X608254Y193884D01*
X608339Y193928D01*
X609493D01*
Y194233D01*
X610237D01*
Y191463D01*
D02*
G37*
G36*
X688721Y196249D02*
Y196246D01*
X688915Y195775D01*
X689275Y195415D01*
X689746Y195220D01*
X690254D01*
X690725Y195415D01*
X690927Y195618D01*
X691429D01*
Y195563D01*
X699251D01*
Y181076D01*
X699200Y181041D01*
X697824D01*
Y182584D01*
X693990D01*
Y181726D01*
X693696Y181348D01*
X692757D01*
Y180356D01*
X692507D01*
Y180106D01*
X691318D01*
Y179541D01*
X686700D01*
X686524Y179659D01*
Y181996D01*
X684213D01*
X684101Y182125D01*
X683935Y182496D01*
X684080Y182845D01*
Y183354D01*
X683885Y183825D01*
X683525Y184185D01*
X683054Y184379D01*
X682546D01*
X682075Y184185D01*
X681715Y183825D01*
X681690Y183820D01*
X681355Y184155D01*
X680884Y184350D01*
X680375D01*
X679905Y184155D01*
X679780Y184030D01*
X679525Y184285D01*
X679054Y184479D01*
X678546D01*
X678289Y184373D01*
X678185Y184625D01*
X677825Y184985D01*
X677354Y185179D01*
X676846D01*
X676375Y184985D01*
X676363Y184973D01*
X675849Y185100D01*
X675684Y185367D01*
X675918Y185867D01*
X679802D01*
X680199Y185946D01*
X680257Y185985D01*
X680583D01*
X680979Y186063D01*
X681315Y186288D01*
X682807Y187780D01*
X683031Y188116D01*
X683110Y188512D01*
Y189046D01*
X686485Y192420D01*
X686554D01*
X687025Y192615D01*
X687385Y192975D01*
X687579Y193446D01*
Y193955D01*
X687385Y194425D01*
X687335Y194474D01*
Y195571D01*
X688221Y196456D01*
X688721Y196249D01*
D02*
G37*
G36*
X699251Y180449D02*
Y175900D01*
X697168D01*
Y176421D01*
X692232D01*
Y175432D01*
X691438Y174638D01*
X690756D01*
Y175045D01*
X688583D01*
Y175545D01*
X690756D01*
Y176620D01*
X688583D01*
Y176870D01*
X688333D01*
Y177764D01*
X686721D01*
Y177961D01*
X686700D01*
Y179000D01*
X691318D01*
Y178740D01*
X692507D01*
Y178490D01*
X692757D01*
Y177498D01*
X693549D01*
X693990Y177354D01*
X693990Y177354D01*
X693990Y177354D01*
X695657D01*
Y179212D01*
X695907D01*
Y179462D01*
X697824D01*
Y180500D01*
X699200D01*
X699251Y180449D01*
D02*
G37*
G36*
X655418Y185558D02*
X658821D01*
Y185058D01*
X655418D01*
Y184217D01*
Y183589D01*
X658821D01*
Y183089D01*
X655418D01*
Y182249D01*
Y181621D01*
X658821D01*
Y181121D01*
X655418D01*
Y180280D01*
Y179652D01*
X658821D01*
Y179152D01*
X655418D01*
Y178312D01*
Y177684D01*
X658821D01*
Y177184D01*
X655418D01*
Y176900D01*
X653600D01*
Y185800D01*
X655418D01*
Y185558D01*
D02*
G37*
G36*
X597634Y220764D02*
X598164D01*
Y218795D01*
Y217236D01*
X597634D01*
Y215998D01*
Y214760D01*
X599103D01*
Y215998D01*
X599353D01*
Y216248D01*
X600542D01*
Y216827D01*
X600640D01*
Y216900D01*
X601729D01*
X602538Y216090D01*
X602836Y215892D01*
X603187Y215822D01*
X605178D01*
X607400Y213600D01*
Y204298D01*
X607131Y203909D01*
X606812Y203909D01*
X606290D01*
Y202819D01*
X606040D01*
D01*
X606290D01*
Y201728D01*
X606812D01*
X607131Y201728D01*
X607400Y201340D01*
Y201298D01*
X607131Y200909D01*
X606812Y200909D01*
X606290D01*
Y199819D01*
Y198728D01*
X606812D01*
X607131Y198728D01*
X607400Y198340D01*
Y196498D01*
X607131Y196109D01*
X606812Y196109D01*
X606290D01*
Y195019D01*
Y193928D01*
X606812D01*
X607131Y193928D01*
X607400Y193540D01*
Y192500D01*
X606600Y191700D01*
X603900D01*
Y190480D01*
X603646D01*
X603175Y190285D01*
X602815Y189925D01*
X602621Y189454D01*
Y188945D01*
X602815Y188475D01*
X603175Y188115D01*
X603574Y187950D01*
X603595Y187814D01*
Y187586D01*
X603574Y187450D01*
X603175Y187285D01*
X602815Y186925D01*
X602621Y186454D01*
Y185945D01*
X602815Y185475D01*
X603175Y185115D01*
X603574Y184950D01*
X603595Y184814D01*
Y184586D01*
X603574Y184450D01*
X603175Y184285D01*
X602815Y183925D01*
X602621Y183455D01*
Y182946D01*
X602815Y182475D01*
X603175Y182115D01*
X603404Y182021D01*
Y181479D01*
X603175Y181385D01*
X602815Y181025D01*
X602621Y180554D01*
Y180045D01*
X602815Y179575D01*
X603175Y179215D01*
X603646Y179021D01*
X603900D01*
Y176400D01*
X604500Y175800D01*
X607200D01*
Y176050D01*
X608071D01*
Y177376D01*
X608321D01*
Y177626D01*
X609726D01*
Y178000D01*
X610237D01*
Y177684D01*
X613640D01*
Y177434D01*
X613890D01*
Y176343D01*
X617044D01*
Y177011D01*
X617500Y177200D01*
X624900D01*
Y174714D01*
X624400Y174328D01*
X624399Y174328D01*
X624048Y174258D01*
X623750Y174059D01*
X623551Y173762D01*
X623481Y173411D01*
X623051Y173011D01*
X620376D01*
Y172600D01*
X603215D01*
X603104Y173013D01*
X602674Y173758D01*
X602066Y174367D01*
X601320Y174797D01*
X600489Y175020D01*
X599980D01*
X598100Y176900D01*
Y191020D01*
X598333Y191083D01*
X599120Y191537D01*
X599763Y192180D01*
X600217Y192967D01*
X600453Y193845D01*
Y194755D01*
X600217Y195633D01*
X599763Y196420D01*
X599120Y197063D01*
X598333Y197518D01*
X598113Y197576D01*
X598103Y198046D01*
X598200Y198300D01*
X598100Y200600D01*
Y206083D01*
X599161D01*
Y208000D01*
X599411D01*
Y208250D01*
X601269D01*
Y209917D01*
X601053D01*
X600705Y210273D01*
Y211350D01*
X599299D01*
Y211600D01*
X599049D01*
Y212927D01*
X598273D01*
X596940Y214260D01*
X597134Y214728D01*
Y215998D01*
Y217236D01*
X596500D01*
Y220764D01*
X597134D01*
Y222002D01*
X597634D01*
Y220764D01*
D02*
G37*
G36*
X625745Y179957D02*
Y179586D01*
X625940Y179115D01*
X626300Y178755D01*
X626770Y178560D01*
X627279D01*
X627750Y178755D01*
X628110Y179115D01*
X628304Y179586D01*
Y179991D01*
X628601Y180185D01*
X628766Y180236D01*
X634825Y174178D01*
X635122Y173979D01*
X635474Y173909D01*
X635891D01*
X636108Y173483D01*
X635793Y173011D01*
X629591D01*
Y169607D01*
X629091D01*
Y173011D01*
X625654D01*
Y169607D01*
X625154D01*
Y173011D01*
X624580D01*
X624281Y173454D01*
X624461Y173789D01*
X624504Y173798D01*
X624593Y173857D01*
X624702Y173879D01*
X624712Y173895D01*
X624730Y173899D01*
X625231Y174285D01*
X625249Y174317D01*
X625283Y174331D01*
X625350Y174493D01*
X625437Y174644D01*
X625427Y174680D01*
X625441Y174714D01*
Y177200D01*
X625283Y177583D01*
X624900Y177741D01*
X620940D01*
X620840Y178241D01*
X621025Y178318D01*
X621385Y178678D01*
X621580Y179148D01*
Y179657D01*
X621385Y180127D01*
X621025Y180487D01*
X620554Y180682D01*
X620046D01*
X619575Y180487D01*
X619408Y180320D01*
X617044D01*
Y182249D01*
Y186359D01*
X619344D01*
X625745Y179957D01*
D02*
G37*
G36*
X657392Y168473D02*
X657626Y167982D01*
X657552Y167872D01*
X657482Y167521D01*
Y166395D01*
X657465Y166368D01*
X657395Y166017D01*
Y164904D01*
X657228Y164737D01*
X657033Y164267D01*
Y163758D01*
X656623Y163441D01*
X650000D01*
X649615Y163823D01*
X649589Y163972D01*
X649758Y164141D01*
X649983Y164477D01*
X650062Y164874D01*
Y166203D01*
X652085D01*
Y167811D01*
X652585Y168146D01*
X652645Y168121D01*
X653155D01*
X653625Y168315D01*
X653792Y168482D01*
X657380D01*
X657392Y168473D01*
D02*
G37*
G36*
X627813Y189664D02*
Y189044D01*
X627883Y188693D01*
X628082Y188395D01*
X638308Y178169D01*
Y177933D01*
X638503Y177463D01*
X638863Y177103D01*
X639333Y176908D01*
X639842D01*
X640312Y177103D01*
X640672Y177463D01*
X640867Y177933D01*
Y178442D01*
X641329Y178588D01*
X641359D01*
X641829Y178782D01*
X642378Y178624D01*
X646820Y174182D01*
Y173945D01*
X647015Y173475D01*
X646773Y173011D01*
X643370D01*
Y169607D01*
Y166203D01*
X644069D01*
Y165203D01*
X644147Y164813D01*
X644368Y164483D01*
X645320Y163531D01*
X645319Y163530D01*
X645098Y163200D01*
X645021Y162809D01*
Y161809D01*
X644950D01*
Y159628D01*
X647131D01*
X647131Y159628D01*
X647312D01*
Y159628D01*
X647695Y159628D01*
X648059Y159219D01*
Y156381D01*
X648084Y156320D01*
Y153080D01*
X648059Y153019D01*
Y152023D01*
X647782D01*
Y149948D01*
X647282D01*
Y152023D01*
X645813D01*
Y149948D01*
X645313D01*
Y152023D01*
X643845D01*
Y149948D01*
X643344D01*
Y152023D01*
X641876D01*
Y149948D01*
X641376D01*
Y152023D01*
X639908D01*
Y149948D01*
X639657D01*
Y149698D01*
X638567D01*
Y148086D01*
X636641D01*
Y154695D01*
X637141Y154829D01*
X637487Y154230D01*
X638130Y153587D01*
X638917Y153132D01*
X639795Y152897D01*
X640705D01*
X641583Y153132D01*
X642370Y153587D01*
X643013Y154230D01*
X643468Y155017D01*
X643703Y155895D01*
Y156805D01*
X643468Y157683D01*
X643013Y158470D01*
X642370Y159113D01*
X641583Y159567D01*
X640705Y159803D01*
X639795D01*
X639242Y159654D01*
X638865Y160071D01*
Y161069D01*
X637440D01*
Y161569D01*
X638865D01*
Y162408D01*
X638865Y162685D01*
X638865Y162685D01*
X638826Y162892D01*
X638826D01*
Y163969D01*
X637421D01*
Y164219D01*
X637171D01*
Y165546D01*
X635222D01*
X635105Y165703D01*
X635356Y166203D01*
X636965D01*
Y169607D01*
X637465D01*
Y166203D01*
X638934D01*
Y169607D01*
Y173109D01*
X638665Y173511D01*
X638676Y173536D01*
Y174045D01*
X638481Y174515D01*
X638121Y174875D01*
X637651Y175070D01*
X637364D01*
X636959Y175475D01*
X636661Y175674D01*
X636310Y175744D01*
X635854D01*
X635074Y176523D01*
X635230Y177075D01*
X635485Y177180D01*
X635845Y177540D01*
X636040Y178010D01*
Y178519D01*
X635845Y178990D01*
X635485Y179350D01*
X635015Y179544D01*
X634778D01*
X624002Y190321D01*
X624209Y190821D01*
X624255D01*
X624725Y191015D01*
X625085Y191375D01*
X625176Y191595D01*
X625741Y191736D01*
X627813Y189664D01*
D02*
G37*
G36*
X590862Y169000D02*
X590566Y168921D01*
X589958Y168570D01*
X589462Y168074D01*
X589111Y167466D01*
X588929Y166788D01*
Y166086D01*
X589111Y165408D01*
X589462Y164801D01*
X589958Y164304D01*
X590566Y163953D01*
X591244Y163772D01*
X591945D01*
X592256Y163855D01*
X592650Y163600D01*
X592650Y163600D01*
X594050Y165000D01*
X594550D01*
Y166300D01*
X594876Y166626D01*
X595024D01*
X595150Y166500D01*
X604850D01*
X606174Y165176D01*
X606391Y164801D01*
X606887Y164304D01*
X607263Y164087D01*
X608550Y162800D01*
Y161500D01*
X605520D01*
Y161659D01*
X603346D01*
X601173D01*
Y161400D01*
X598945D01*
Y161659D01*
X596772D01*
X594598D01*
Y161400D01*
X594550D01*
Y159000D01*
X593288D01*
X592854Y159179D01*
X592346D01*
X591912Y159000D01*
X591850D01*
Y158959D01*
X591515Y158625D01*
X591321Y158154D01*
Y157645D01*
X591515Y157175D01*
X591850Y156841D01*
Y156700D01*
X592154D01*
X592346Y156621D01*
X592854D01*
X593047Y156700D01*
X594550D01*
X594598Y156680D01*
Y154913D01*
Y152317D01*
X596772D01*
Y152067D01*
X597022D01*
Y150976D01*
X598945D01*
X598945Y150976D01*
X599394Y150855D01*
X600520Y149729D01*
X600856Y149504D01*
X601253Y149425D01*
X605850D01*
Y148900D01*
X605854Y148896D01*
X605821Y148270D01*
X604950Y147400D01*
Y147350D01*
X601173D01*
Y147300D01*
X598945D01*
Y147350D01*
X594598D01*
X594260Y147710D01*
Y147890D01*
X594078Y148568D01*
X593727Y149176D01*
X593231Y149672D01*
X592623Y150023D01*
X591945Y150205D01*
X591244D01*
X590566Y150023D01*
X589958Y149672D01*
X589462Y149176D01*
X589111Y148568D01*
X588929Y147890D01*
Y147188D01*
X589111Y146511D01*
X589462Y145903D01*
X589958Y145407D01*
X590566Y145056D01*
X591244Y144874D01*
X591837D01*
X591847Y143955D01*
X591495Y143600D01*
X586903D01*
Y169500D01*
X590796D01*
X590862Y169000D01*
D02*
G37*
G36*
X623686Y166203D02*
X624000D01*
Y165443D01*
X623190D01*
Y164076D01*
Y162710D01*
X624365D01*
Y162815D01*
X624423Y162874D01*
X624865Y163046D01*
X624931Y162974D01*
Y162188D01*
X626021D01*
Y161688D01*
X624931D01*
Y160847D01*
X624450Y160800D01*
X622064D01*
X621500Y161364D01*
Y162710D01*
X622690D01*
Y164076D01*
Y165443D01*
X622569D01*
X622385Y165667D01*
Y166203D01*
X623185D01*
Y169607D01*
X623686D01*
Y166203D01*
D02*
G37*
G36*
X620376Y169857D02*
X621467D01*
Y169607D01*
X621717D01*
Y166203D01*
X621843D01*
Y165667D01*
X621395Y165443D01*
X620552D01*
Y164076D01*
Y162710D01*
X620959D01*
Y161904D01*
X620724Y161711D01*
X613306D01*
X612910Y161633D01*
X612574Y161408D01*
X611780Y160614D01*
X609024D01*
X608925Y161114D01*
X608933Y161117D01*
X609091Y161500D01*
Y162800D01*
X609091Y162800D01*
X608933Y163183D01*
X608946Y163653D01*
X609014Y163809D01*
X609552Y163953D01*
X610160Y164304D01*
X610656Y164801D01*
X611007Y165408D01*
X611189Y166086D01*
Y166187D01*
X608524D01*
Y166437D01*
X608274D01*
Y169102D01*
X608173D01*
X607495Y168921D01*
X606887Y168570D01*
X606391Y168074D01*
X606040Y167466D01*
X606020Y167390D01*
X605520Y167456D01*
Y167565D01*
X603346D01*
Y167815D01*
X603096D01*
Y169004D01*
X602639D01*
X602432Y169504D01*
X602674Y169746D01*
X603104Y170491D01*
X603327Y171322D01*
Y172059D01*
X620376D01*
Y169857D01*
D02*
G37*
G36*
X613300Y153664D02*
X611391Y151756D01*
X607206D01*
X606810Y151677D01*
X606695Y151600D01*
X605520D01*
Y151817D01*
X603346D01*
Y152317D01*
X605520D01*
Y152945D01*
Y154120D01*
X606315Y154915D01*
X606976D01*
X607075Y154815D01*
X607546Y154621D01*
X608054D01*
X608525Y154815D01*
X608885Y155175D01*
X608895Y155200D01*
X613300D01*
Y153664D01*
D02*
G37*
G36*
X674731Y154160D02*
X675045Y153779D01*
X675008Y153589D01*
Y153355D01*
X674898Y153282D01*
X674398Y153549D01*
Y154114D01*
X674686Y154191D01*
X674731Y154160D01*
D02*
G37*
G36*
X689100Y156800D02*
X691000D01*
X691400Y156400D01*
Y155400D01*
X691516Y155283D01*
Y154651D01*
X691814D01*
X691886Y154543D01*
X691619Y154043D01*
X690791D01*
Y153116D01*
X690357Y152930D01*
X690030Y153197D01*
X690022Y153205D01*
X690012Y153212D01*
X690000Y153221D01*
Y153300D01*
X689880D01*
X689724Y153404D01*
X689373Y153474D01*
X686726D01*
X686241Y153959D01*
X686432Y154421D01*
X686524D01*
Y156344D01*
X685630D01*
Y156844D01*
X686524D01*
Y158335D01*
X688100D01*
X689100Y156800D01*
D02*
G37*
G36*
X698657Y154998D02*
X699251D01*
Y126132D01*
X694829D01*
Y128899D01*
X694912D01*
Y131399D01*
X691112D01*
Y128912D01*
X690579D01*
Y127362D01*
X690329D01*
Y127112D01*
X689029D01*
Y126132D01*
X674409D01*
X674027Y125973D01*
X673868Y125591D01*
Y104508D01*
X673368Y104375D01*
X673068Y104894D01*
X672494Y105468D01*
X671791Y105874D01*
X671701Y105898D01*
X671519Y106465D01*
X671767Y106895D01*
X671962Y107623D01*
Y108377D01*
X671767Y109105D01*
X671390Y109757D01*
X670958Y110190D01*
X670898Y110500D01*
X670958Y110810D01*
X671390Y111243D01*
X671767Y111895D01*
X671962Y112623D01*
Y113377D01*
X671767Y114105D01*
X671390Y114757D01*
X670958Y115190D01*
X670898Y115500D01*
X670958Y115810D01*
X671390Y116243D01*
X671767Y116895D01*
X671962Y117623D01*
Y118377D01*
X671767Y119105D01*
X671390Y119757D01*
X670857Y120290D01*
X670205Y120667D01*
X669477Y120862D01*
X669216Y121362D01*
X669474Y121809D01*
X669685Y122594D01*
Y123406D01*
X669474Y124191D01*
X669068Y124894D01*
X668494Y125468D01*
X668404Y125521D01*
X668437Y125848D01*
X668503Y126040D01*
X668925Y126215D01*
X669285Y126575D01*
X669480Y127046D01*
Y127282D01*
X670621Y128423D01*
X670820Y128721D01*
X670890Y129072D01*
Y136312D01*
X671577Y137000D01*
X674422D01*
X674847Y136819D01*
Y135880D01*
X675839D01*
Y135630D01*
X676089D01*
Y134441D01*
X677429D01*
X677902Y133968D01*
X678238Y133743D01*
X678635Y133665D01*
X691112D01*
Y131987D01*
X694912D01*
Y134487D01*
X693677D01*
X692732Y135432D01*
X692396Y135657D01*
X692000Y135735D01*
X679064D01*
X678740Y136059D01*
Y137000D01*
X678847D01*
Y138862D01*
X678847Y139181D01*
X678847Y139681D01*
Y141543D01*
X678764D01*
Y142890D01*
X678755Y142932D01*
X678791Y143114D01*
Y144283D01*
X678847D01*
Y146146D01*
X678847Y146465D01*
X678847Y146965D01*
Y148827D01*
X679077Y149231D01*
X680400D01*
X680618Y149275D01*
X681589D01*
X681980Y149012D01*
Y148567D01*
X682919D01*
Y149559D01*
X683419D01*
Y148567D01*
X683931D01*
Y147540D01*
X684001Y147189D01*
X684200Y146891D01*
X685425Y145666D01*
Y143102D01*
X689772D01*
Y146736D01*
X689772Y147055D01*
X689772D01*
Y147236D01*
X689772D01*
Y148963D01*
X687598D01*
Y149463D01*
X689772D01*
Y150206D01*
X690234Y150398D01*
X690740Y149891D01*
Y147555D01*
X690740Y147236D01*
X690740Y146736D01*
Y145329D01*
X692913D01*
X695087D01*
Y146736D01*
X695087Y147055D01*
X695087Y147555D01*
Y151189D01*
X694699D01*
X694642Y151665D01*
X694642D01*
Y152645D01*
X695142Y152852D01*
X695338Y152655D01*
X695809Y152461D01*
X696317D01*
X696788Y152655D01*
X697148Y153015D01*
X697342Y153486D01*
Y153995D01*
X697148Y154465D01*
X697042Y154570D01*
X697322Y154998D01*
X698157D01*
Y155990D01*
X698657D01*
Y154998D01*
D02*
G37*
G36*
X676665Y151408D02*
Y151287D01*
X676665D01*
Y150174D01*
X676165Y149944D01*
X675872Y150143D01*
X675843Y150174D01*
Y151183D01*
X676175Y151492D01*
X676665Y151408D01*
D02*
G37*
G36*
X657588Y162928D02*
X658058Y162733D01*
X658567D01*
X659037Y162928D01*
X659211Y163101D01*
X659711Y162894D01*
Y162883D01*
X660900D01*
Y162383D01*
X659711D01*
Y161265D01*
X659603Y161004D01*
Y160495D01*
X659616Y160464D01*
X659305Y159986D01*
X659052D01*
X658582Y159792D01*
X658222Y159432D01*
X658027Y158961D01*
Y158452D01*
X658222Y157982D01*
X658582Y157622D01*
X659052Y157427D01*
X659289D01*
X660094Y156622D01*
X660354Y156448D01*
X660560Y156242D01*
Y152272D01*
X658419D01*
Y150689D01*
Y149106D01*
X660638D01*
Y150141D01*
X661138Y150403D01*
X661300Y150291D01*
Y148000D01*
X654528D01*
Y148086D01*
X650591D01*
Y149698D01*
X649500D01*
Y149948D01*
X649250D01*
Y152023D01*
X648600D01*
Y153019D01*
X649220D01*
Y154700D01*
Y156381D01*
X648600D01*
Y159300D01*
X650000D01*
Y162900D01*
X657100D01*
X657358Y163158D01*
X657588Y162928D01*
D02*
G37*
G36*
X623600Y151000D02*
Y148939D01*
X623085D01*
Y147961D01*
X622835D01*
Y147711D01*
X621744D01*
Y147400D01*
X620913D01*
Y148293D01*
X619587D01*
X618260D01*
Y147400D01*
X617527D01*
Y147829D01*
X615150D01*
Y146750D01*
X614800Y146400D01*
Y144759D01*
X614700Y144300D01*
X611700D01*
Y149500D01*
X611901Y149701D01*
X612217Y149764D01*
X612552Y149988D01*
X614655Y152091D01*
X620133D01*
X620530Y152170D01*
X620575Y152200D01*
X622200D01*
X622300Y152300D01*
X623600Y151000D01*
D02*
G37*
G36*
X624896Y153634D02*
X629055D01*
X629359Y153178D01*
X629367Y153134D01*
X629239Y152941D01*
X629213Y152811D01*
X629138Y152632D01*
X629138Y152632D01*
Y152453D01*
X629026Y152182D01*
X628818Y151974D01*
X628547Y151862D01*
X628200D01*
X627817Y151703D01*
X627659Y151321D01*
Y147566D01*
X626731D01*
Y146200D01*
Y144834D01*
X627659D01*
Y143588D01*
X627666Y143572D01*
X627660Y143555D01*
X627686Y143116D01*
X627688Y143072D01*
X627670Y143060D01*
X627171Y143100D01*
Y143100D01*
X626932D01*
Y142173D01*
X626342Y141583D01*
X626033D01*
X626217Y141138D01*
X625799Y140720D01*
X625781Y140710D01*
X625163Y140703D01*
X624483Y141383D01*
X624483Y141383D01*
X624100Y141541D01*
X624100Y141541D01*
X622650D01*
X622497Y141478D01*
X619287D01*
Y137791D01*
X619259Y137722D01*
Y115200D01*
X618904Y114750D01*
X618336D01*
Y107808D01*
X621789D01*
X625479D01*
X625742Y107983D01*
X625800Y107959D01*
X627912D01*
Y106355D01*
X632455D01*
Y107959D01*
X633534D01*
X633784Y107526D01*
X633704Y107388D01*
X633530Y106737D01*
Y106063D01*
X633704Y105412D01*
X634041Y104829D01*
X634518Y104352D01*
X635101Y104015D01*
X635752Y103841D01*
X636426D01*
X637077Y104015D01*
X637660Y104352D01*
X638137Y104829D01*
X638474Y105412D01*
X638648Y106063D01*
Y106737D01*
X638474Y107388D01*
X638394Y107526D01*
X638644Y107959D01*
X644700D01*
X645083Y108117D01*
X645241Y108500D01*
Y109935D01*
X647613D01*
Y112943D01*
X644747D01*
X644741Y112959D01*
X644728Y113092D01*
X644664Y113144D01*
X644633Y113219D01*
X644510Y113270D01*
X644408Y113354D01*
X644358Y113370D01*
X644282Y113488D01*
X644141Y113923D01*
X644147Y113956D01*
X644241Y114184D01*
X644241Y114184D01*
Y115811D01*
X644083Y116193D01*
X643700Y116352D01*
X636634D01*
X636360Y116852D01*
X636463Y117013D01*
X642252D01*
Y117280D01*
X643028D01*
Y117109D01*
X645209D01*
Y117109D01*
X645391D01*
Y117109D01*
X646231D01*
Y118200D01*
X646731D01*
Y117109D01*
X647572D01*
Y117868D01*
X648034Y118059D01*
X648226Y117866D01*
X648548Y117652D01*
Y117013D01*
X649115D01*
X649221Y116855D01*
Y116346D01*
X649415Y115875D01*
X649775Y115515D01*
X650246Y115321D01*
X650754D01*
X651225Y115515D01*
X651585Y115875D01*
X651780Y116346D01*
Y116855D01*
X651885Y117013D01*
X655252D01*
Y117415D01*
X655527D01*
X655917Y117492D01*
X656248Y117713D01*
X657053Y118518D01*
X657273Y118849D01*
X657351Y119239D01*
Y119731D01*
X657489D01*
Y123094D01*
X657388D01*
Y125336D01*
X657740Y125688D01*
X657882Y125901D01*
X659381D01*
Y125901D01*
X659881Y126161D01*
X659917Y126142D01*
X659953Y126094D01*
X659920Y125927D01*
Y116262D01*
X659990Y115911D01*
X660189Y115613D01*
X661530Y114273D01*
X661433Y114105D01*
X661238Y113377D01*
Y112623D01*
X661433Y111895D01*
X661810Y111243D01*
X662242Y110810D01*
X662302Y110500D01*
X662242Y110190D01*
X661810Y109757D01*
X661433Y109105D01*
X661238Y108377D01*
Y108250D01*
X664100D01*
Y107750D01*
X661238D01*
Y107623D01*
X661433Y106895D01*
X661681Y106465D01*
X661499Y105898D01*
X661409Y105874D01*
X660706Y105468D01*
X660132Y104894D01*
X659726Y104191D01*
X659515Y103406D01*
Y102594D01*
X659726Y101809D01*
X660028Y101285D01*
X659791Y100785D01*
X625242Y100793D01*
Y107308D01*
X621789D01*
X618336D01*
Y101149D01*
X617983Y100795D01*
X598864Y100800D01*
Y107308D01*
X595411D01*
X591958D01*
Y101155D01*
X591605Y100801D01*
X586903Y100803D01*
Y143059D01*
X591495D01*
X591496Y143059D01*
X591497Y143059D01*
X591687Y143139D01*
X591877Y143217D01*
X591878Y143219D01*
X591879Y143219D01*
X592231Y143575D01*
X592232Y143576D01*
X592233Y143576D01*
X592310Y143767D01*
X592388Y143958D01*
X592387Y143959D01*
X592388Y143961D01*
X592379Y144879D01*
X592441Y145007D01*
X592623Y145056D01*
X593231Y145407D01*
X593727Y145903D01*
X594078Y146511D01*
X594109Y146547D01*
X594214Y146538D01*
X594560Y146411D01*
X596772D01*
X598945D01*
Y146759D01*
X601173D01*
Y146411D01*
X603346D01*
X605520D01*
Y146520D01*
X606020Y146586D01*
X606040Y146511D01*
X606391Y145903D01*
X606887Y145407D01*
X607495Y145056D01*
X608173Y144874D01*
X608274D01*
Y147539D01*
X608774D01*
Y144874D01*
X608875D01*
X609552Y145056D01*
X610160Y145407D01*
X610656Y145903D01*
X610659Y145907D01*
X611159Y145773D01*
Y144300D01*
X611317Y143917D01*
X611700Y143759D01*
X614700D01*
X614842Y143817D01*
X614992Y143845D01*
X615027Y143894D01*
X615083Y143917D01*
X615141Y144059D01*
X615229Y144185D01*
X615329Y144643D01*
X615318Y144703D01*
X615341Y144759D01*
Y145220D01*
X616089D01*
Y146213D01*
X616339D01*
Y146463D01*
X617527D01*
Y146859D01*
X618260D01*
Y146195D01*
X619587D01*
X620913D01*
Y146859D01*
X621744D01*
Y146581D01*
X623925D01*
Y148532D01*
X623983Y148556D01*
X624141Y148939D01*
Y151000D01*
X624141Y151000D01*
X623983Y151383D01*
X623983Y151383D01*
X622683Y152683D01*
X622300Y152841D01*
X622099Y152921D01*
X621978Y153507D01*
X622357Y153886D01*
X624896D01*
Y153634D01*
D02*
G37*
G36*
X631560Y166203D02*
X632058D01*
X632090Y166085D01*
X631890Y165826D01*
Y164219D01*
Y162853D01*
X632947D01*
X633123Y162784D01*
X633377Y162482D01*
Y159953D01*
X636100D01*
Y148086D01*
X634630D01*
Y145739D01*
X634615Y145725D01*
X634420Y145255D01*
Y144746D01*
X634615Y144275D01*
X634630Y144261D01*
Y143839D01*
X634615Y143825D01*
X634420Y143354D01*
Y143324D01*
X634055Y143079D01*
X633545D01*
X633075Y142885D01*
X632715Y142525D01*
X632520Y142054D01*
Y141545D01*
X632581Y141400D01*
X632247Y140900D01*
X630579D01*
X630330Y141149D01*
X630105Y141299D01*
X629730Y141600D01*
Y142100D01*
X629491D01*
Y141583D01*
X629058D01*
X628468Y142173D01*
Y143100D01*
X628230D01*
X628200Y143588D01*
Y144834D01*
X628869D01*
Y146200D01*
Y147566D01*
X628200D01*
Y151321D01*
X628654D01*
X629125Y151515D01*
X629485Y151875D01*
X629679Y152346D01*
Y152632D01*
X629689Y152641D01*
X629887Y152938D01*
X629957Y153290D01*
Y153634D01*
X631600D01*
Y156209D01*
X629848D01*
X629689Y156447D01*
X628769Y157366D01*
X628976Y157866D01*
X631600D01*
Y160441D01*
X630046D01*
X629951Y160529D01*
X629734Y160894D01*
X629880Y161246D01*
Y161755D01*
X629685Y162225D01*
X629557Y162353D01*
X629562Y162853D01*
X631390D01*
Y164219D01*
Y165585D01*
X629920D01*
Y166203D01*
X631060D01*
Y169607D01*
X631560D01*
Y166203D01*
D02*
G37*
G36*
X676600Y146511D02*
X676665Y146465D01*
X676665Y146146D01*
Y144283D01*
X676600Y144256D01*
Y144102D01*
X676089D01*
Y142913D01*
Y141724D01*
X676600D01*
Y141571D01*
X676665Y141543D01*
X676665Y139449D01*
X676650Y139341D01*
X676600Y139271D01*
Y138976D01*
X673724D01*
Y138976D01*
X673206D01*
X671400Y140782D01*
Y144900D01*
X673238Y146738D01*
X676600D01*
Y146511D01*
D02*
G37*
G36*
X629229Y137900D02*
X629474D01*
Y136793D01*
X629146Y136466D01*
X626631D01*
Y135100D01*
Y133734D01*
X627800D01*
Y128400D01*
X625541D01*
Y133734D01*
X626131D01*
Y135100D01*
Y136466D01*
X625541D01*
Y137453D01*
X625670Y137900D01*
X626170D01*
Y138650D01*
X626671D01*
Y137900D01*
X627171D01*
Y138255D01*
X627632Y138446D01*
X627700Y138379D01*
X627768Y138446D01*
X628230Y138255D01*
Y137900D01*
X628729D01*
Y138650D01*
X629229D01*
Y137900D01*
D02*
G37*
G36*
X634630Y136062D02*
X638567D01*
Y132125D01*
X638567Y132125D01*
X638567D01*
X638401Y131685D01*
X637807Y131091D01*
X637090Y131091D01*
X636590Y131091D01*
X636069D01*
Y130000D01*
Y128909D01*
X636590D01*
X636909Y128909D01*
X637409Y128909D01*
X639272D01*
Y129285D01*
X639375Y129354D01*
X639875Y129086D01*
Y128511D01*
X640617D01*
Y129700D01*
X641117D01*
Y128511D01*
X641916D01*
X642008Y128418D01*
X642479Y128224D01*
X642988D01*
X643458Y128418D01*
X643550Y128511D01*
X643725D01*
Y128686D01*
X643818Y128778D01*
X644013Y129249D01*
Y129758D01*
X643818Y130228D01*
X643743Y130303D01*
Y130333D01*
X643985Y130575D01*
X644179Y131045D01*
Y131141D01*
X644243Y131205D01*
X644442Y131503D01*
X644600Y131551D01*
X644807Y131427D01*
X644695Y130927D01*
X644695D01*
Y128273D01*
X644331Y128117D01*
Y126968D01*
X643834Y126959D01*
Y126959D01*
X640964D01*
Y124778D01*
Y120841D01*
X641380D01*
Y120263D01*
X640704Y119587D01*
X639041D01*
Y120600D01*
X638883Y120983D01*
X638883Y120983D01*
X638081Y121785D01*
X637981Y121826D01*
X637905Y121902D01*
X637797D01*
X637698Y121943D01*
X637425Y122091D01*
X637236Y122297D01*
Y125619D01*
X635801D01*
X634366D01*
Y124670D01*
X633669D01*
Y126021D01*
X628731D01*
Y124987D01*
X628471Y124869D01*
X628231Y124834D01*
X625707Y127359D01*
X625914Y127859D01*
X627800D01*
X628183Y128017D01*
X628231Y128135D01*
X628731Y128036D01*
Y127579D01*
X633669D01*
Y130878D01*
X634212Y131421D01*
X634346Y131477D01*
X634706Y131837D01*
X634901Y132307D01*
Y132816D01*
X634706Y133286D01*
X634346Y133646D01*
X633887Y133836D01*
Y134828D01*
X632600D01*
Y135328D01*
X633887D01*
Y136042D01*
X633979Y136117D01*
X634630D01*
Y136062D01*
D02*
G37*
G36*
X653413Y134377D02*
X653735Y134161D01*
X654114Y134086D01*
X654899D01*
X655278Y134161D01*
X655337Y134200D01*
X655690D01*
X655775Y134115D01*
X655850Y134084D01*
Y132650D01*
X657531D01*
Y132400D01*
X657782D01*
Y130522D01*
X658600D01*
Y130000D01*
X655200D01*
X654989Y129789D01*
X654489Y129944D01*
Y130725D01*
X653550D01*
Y129733D01*
X653050D01*
Y130725D01*
X652111D01*
X652111Y130725D01*
X651611Y130652D01*
X651255Y130800D01*
X650745D01*
X650605Y130742D01*
X650105Y130927D01*
Y130927D01*
X647120D01*
Y131927D01*
X647282Y132123D01*
Y134200D01*
X647782D01*
Y132125D01*
X650591D01*
Y134625D01*
X653164D01*
X653413Y134377D01*
D02*
G37*
G36*
X665325Y146577D02*
Y146351D01*
X665520Y145880D01*
X665880Y145521D01*
X666350Y145326D01*
X666859D01*
X666972Y145372D01*
X667255Y144948D01*
X666192Y143886D01*
X665993Y143588D01*
X665923Y143237D01*
Y133801D01*
X663612Y131489D01*
X663150Y131680D01*
Y132150D01*
X661719D01*
Y130522D01*
X661991D01*
X662183Y130060D01*
X661467Y129344D01*
X661370Y129200D01*
X660148D01*
X660008Y129339D01*
X660000Y129345D01*
Y130522D01*
X661219D01*
Y132400D01*
Y134278D01*
X660000D01*
Y134600D01*
X659000Y135600D01*
X659000Y139224D01*
X662429D01*
Y142011D01*
X662447Y142100D01*
Y145047D01*
X664600Y147200D01*
X664702D01*
X665325Y146577D01*
D02*
G37*
G36*
X646439Y124283D02*
X648000D01*
Y120288D01*
X647808Y120200D01*
X647559Y120301D01*
X647316Y120525D01*
Y121650D01*
X645930D01*
X644544D01*
Y120408D01*
X644521Y120383D01*
X644103Y120075D01*
X643800Y120180D01*
Y120841D01*
X643834D01*
Y123650D01*
X642399D01*
Y124150D01*
X643834D01*
Y124274D01*
X644331Y124283D01*
Y124283D01*
X645939D01*
Y126200D01*
X646439D01*
Y124283D01*
D02*
G37*
G36*
X656117Y129092D02*
X657011D01*
Y128592D01*
X656117D01*
Y128279D01*
X656019D01*
Y126999D01*
X655999Y126901D01*
Y126831D01*
X655648Y126480D01*
X655427Y126149D01*
X655349Y125759D01*
Y123094D01*
X655111D01*
Y119731D01*
X654671Y119587D01*
X650089D01*
X649991Y119607D01*
X649699D01*
X649623Y119719D01*
X649889Y120219D01*
X651056D01*
Y121650D01*
X649670D01*
Y121900D01*
X649420D01*
Y123581D01*
X648541D01*
Y124283D01*
X649561D01*
Y126200D01*
X649811D01*
Y126450D01*
X651669D01*
Y126734D01*
X652111Y126875D01*
Y126875D01*
X653050D01*
Y127867D01*
X653300D01*
Y128117D01*
X654489D01*
Y129021D01*
X654571Y129082D01*
X654989Y129248D01*
X655110Y129298D01*
X655241Y129310D01*
X655295Y129374D01*
X655372Y129406D01*
X655424Y129459D01*
X656117D01*
Y129092D01*
D02*
G37*
G36*
X634366Y122181D02*
X635801D01*
Y121932D01*
X636051D01*
Y120841D01*
X637236D01*
Y121211D01*
X637698Y121402D01*
X638500Y120600D01*
Y119587D01*
X637528D01*
Y118300D01*
X637278D01*
Y118050D01*
X635548D01*
Y117100D01*
X634948D01*
X634456Y117119D01*
X634456Y117600D01*
Y118550D01*
X633070D01*
Y118800D01*
X632820D01*
Y120481D01*
X632438D01*
X632247Y120923D01*
X632535Y121280D01*
X633669D01*
Y122468D01*
X633800Y122600D01*
X634366D01*
Y122181D01*
D02*
G37*
G36*
X643700Y114184D02*
X642459Y112943D01*
X640313D01*
Y110797D01*
X640027Y110511D01*
X639739D01*
Y111189D01*
X636376D01*
Y110996D01*
X634461Y112911D01*
X634461Y115811D01*
X643700D01*
Y114184D01*
D02*
G37*
G36*
X624100Y141000D02*
X625000Y140100D01*
Y136466D01*
X624956D01*
Y133734D01*
X625000D01*
Y127500D01*
X624900Y127400D01*
X627900Y124400D01*
Y116100D01*
X633930Y115834D01*
X633920Y115811D01*
X633920Y112911D01*
X633920Y112911D01*
X634079Y112528D01*
X635994Y110613D01*
X636376Y110454D01*
Y109935D01*
X639739D01*
Y109969D01*
X640027D01*
X640027Y109969D01*
X640297Y110082D01*
X640313Y110088D01*
Y109935D01*
X641745D01*
Y111439D01*
X641994D01*
Y111689D01*
X643676D01*
Y112943D01*
X643225D01*
X643382Y113100D01*
X643899Y112943D01*
X644250Y112837D01*
Y109935D01*
X644700D01*
Y108500D01*
X637570D01*
X637077Y108785D01*
X636426Y108959D01*
X635752D01*
X635101Y108785D01*
X634608Y108500D01*
X625800D01*
Y114500D01*
X625100Y115200D01*
X619800D01*
Y137722D01*
X620718D01*
Y139600D01*
X620968D01*
Y139850D01*
X622650D01*
Y141000D01*
X624100D01*
D02*
G37*
%LPC*%
G36*
X680027Y219927D02*
X676037D01*
Y218398D01*
X680027D01*
Y219927D01*
D02*
G37*
G36*
X675537D02*
X671547D01*
Y218398D01*
X675537D01*
Y219927D01*
D02*
G37*
G36*
X661855Y221553D02*
X660945D01*
X660067Y221318D01*
X659280Y220863D01*
X658637Y220220D01*
X658182Y219433D01*
X657947Y218555D01*
Y217645D01*
X658182Y216767D01*
X658637Y215980D01*
X659280Y215337D01*
X660067Y214882D01*
X660945Y214647D01*
X661855D01*
X662733Y214882D01*
X663520Y215337D01*
X664163Y215980D01*
X664617Y216767D01*
X664853Y217645D01*
Y218555D01*
X664617Y219433D01*
X664163Y220220D01*
X663520Y220863D01*
X662733Y221318D01*
X661855Y221553D01*
D02*
G37*
G36*
X652085Y218192D02*
X649276D01*
Y214788D01*
Y211385D01*
X652085D01*
Y216145D01*
X652264Y216576D01*
Y217085D01*
X652085Y217517D01*
Y218192D01*
D02*
G37*
G36*
X695144Y215461D02*
X691429D01*
Y214620D01*
X695144D01*
Y215461D01*
D02*
G37*
G36*
X619971Y224321D02*
X618855D01*
Y223145D01*
X619971D01*
Y224321D01*
D02*
G37*
G36*
X593197Y215748D02*
X592258D01*
Y214760D01*
X593197D01*
Y215748D01*
D02*
G37*
G36*
X596451Y212927D02*
X595295D01*
Y211850D01*
X596451D01*
Y212927D01*
D02*
G37*
G36*
X613390Y208052D02*
X610237D01*
Y207211D01*
X613390D01*
Y208052D01*
D02*
G37*
G36*
X591098Y183400D02*
X590950D01*
Y181650D01*
X592700D01*
Y181798D01*
X592395Y182533D01*
X591833Y183096D01*
X591098Y183400D01*
D02*
G37*
G36*
X590450D02*
X590302D01*
X589567Y183096D01*
X589005Y182533D01*
X588700Y181798D01*
Y181650D01*
X590450D01*
Y183400D01*
D02*
G37*
G36*
X592700Y181150D02*
X590950D01*
Y179400D01*
X591098D01*
X591833Y179704D01*
X592395Y180267D01*
X592700Y181002D01*
Y181150D01*
D02*
G37*
G36*
X590450D02*
X588700D01*
Y181002D01*
X589005Y180267D01*
X589567Y179704D01*
X590302Y179400D01*
X590450D01*
Y181150D01*
D02*
G37*
G36*
X596522Y169004D02*
X594598D01*
Y168065D01*
X596522D01*
Y169004D01*
D02*
G37*
G36*
X605790Y190309D02*
X604950D01*
Y189469D01*
X605790D01*
Y190309D01*
D02*
G37*
G36*
Y188969D02*
X604950D01*
Y188128D01*
X605790D01*
Y188969D01*
D02*
G37*
G36*
Y187309D02*
X604950D01*
Y186469D01*
X605790D01*
Y187309D01*
D02*
G37*
G36*
Y185969D02*
X604950D01*
Y185128D01*
X605790D01*
Y185969D01*
D02*
G37*
G36*
Y184409D02*
X604950D01*
Y183569D01*
X605790D01*
Y184409D01*
D02*
G37*
G36*
Y183069D02*
X604950D01*
Y182228D01*
X605790D01*
Y183069D01*
D02*
G37*
G36*
Y181409D02*
X604950D01*
Y180569D01*
X605790D01*
Y181409D01*
D02*
G37*
G36*
Y180069D02*
X604950D01*
Y179228D01*
X605790D01*
Y180069D01*
D02*
G37*
G36*
X697824Y184692D02*
X696157D01*
Y183084D01*
X697824D01*
Y184692D01*
D02*
G37*
G36*
X695657D02*
X693990D01*
Y183084D01*
X695657D01*
Y184692D01*
D02*
G37*
G36*
X692257Y181348D02*
X691318D01*
Y180606D01*
X692257D01*
Y181348D01*
D02*
G37*
G36*
Y178240D02*
X691318D01*
Y177498D01*
X692257D01*
Y178240D01*
D02*
G37*
G36*
X697824Y178962D02*
X696157D01*
Y177354D01*
X697824D01*
Y178962D01*
D02*
G37*
G36*
X690756Y177764D02*
X688833D01*
Y177120D01*
X690756D01*
Y177764D01*
D02*
G37*
G36*
X600542Y215748D02*
X599603D01*
Y214760D01*
X600542D01*
Y215748D01*
D02*
G37*
G36*
X600705Y212927D02*
X599549D01*
Y211850D01*
X600705D01*
Y212927D01*
D02*
G37*
G36*
X601269Y207750D02*
X599661D01*
Y206083D01*
X601269D01*
Y207750D01*
D02*
G37*
G36*
X605790Y203909D02*
X604950D01*
Y203069D01*
X605790D01*
Y203909D01*
D02*
G37*
G36*
Y202569D02*
X604950D01*
Y201728D01*
X605790D01*
Y202569D01*
D02*
G37*
G36*
Y200909D02*
X604950D01*
Y200069D01*
X605790D01*
Y200909D01*
D02*
G37*
G36*
Y199569D02*
X604950D01*
Y198728D01*
X605790D01*
Y199569D01*
D02*
G37*
G36*
Y196109D02*
X604950D01*
Y195269D01*
X605790D01*
Y196109D01*
D02*
G37*
G36*
Y194769D02*
X604950D01*
Y193928D01*
X605790D01*
Y194769D01*
D02*
G37*
G36*
X613390Y177184D02*
X610237D01*
Y176343D01*
X613390D01*
Y177184D01*
D02*
G37*
G36*
X609726Y177126D02*
X608570D01*
Y176050D01*
X609726D01*
Y177126D01*
D02*
G37*
G36*
X642871Y173011D02*
X639433D01*
Y169607D01*
Y166203D01*
X642871D01*
Y169607D01*
Y173011D01*
D02*
G37*
G36*
X638826Y165546D02*
X637671D01*
Y164469D01*
X638826D01*
Y165546D01*
D02*
G37*
G36*
X647116Y156381D02*
X645980D01*
Y154950D01*
X647116D01*
Y156381D01*
D02*
G37*
G36*
X645480D02*
X644344D01*
Y154950D01*
X645480D01*
Y156381D01*
D02*
G37*
G36*
X647116Y154450D02*
X645980D01*
Y153019D01*
X647116D01*
Y154450D01*
D02*
G37*
G36*
X645480D02*
X644344D01*
Y153019D01*
X645480D01*
Y154450D01*
D02*
G37*
G36*
X639407Y152023D02*
X638567D01*
Y150198D01*
X639407D01*
Y152023D01*
D02*
G37*
G36*
X605520Y163000D02*
X603596D01*
Y162159D01*
X605520D01*
Y163000D01*
D02*
G37*
G36*
X598945D02*
X597022D01*
Y162159D01*
X598945D01*
Y163000D01*
D02*
G37*
G36*
X603096D02*
X601173D01*
Y162159D01*
X603096D01*
Y163000D01*
D02*
G37*
G36*
X596522D02*
X594598D01*
Y162159D01*
X596522D01*
Y163000D01*
D02*
G37*
G36*
Y151817D02*
X594598D01*
Y150976D01*
X596522D01*
Y151817D01*
D02*
G37*
G36*
X605520Y169004D02*
X603596D01*
Y168065D01*
X605520D01*
Y169004D01*
D02*
G37*
G36*
X608875Y169102D02*
X608774D01*
Y166687D01*
X611189D01*
Y166788D01*
X611007Y167466D01*
X610656Y168074D01*
X610160Y168570D01*
X609552Y168921D01*
X608875Y169102D01*
D02*
G37*
G36*
X621217Y169357D02*
X620376D01*
Y166203D01*
X621217D01*
Y169357D01*
D02*
G37*
G36*
X620052Y165443D02*
X618877D01*
Y164326D01*
X620052D01*
Y165443D01*
D02*
G37*
G36*
Y163826D02*
X618877D01*
Y162710D01*
X620052D01*
Y163826D01*
D02*
G37*
G36*
X695087Y144829D02*
X693163D01*
Y143102D01*
X695087D01*
Y144829D01*
D02*
G37*
G36*
X692663D02*
X690740D01*
Y143102D01*
X692663D01*
Y144829D01*
D02*
G37*
G36*
X675589Y135380D02*
X674847D01*
Y134441D01*
X675589D01*
Y135380D01*
D02*
G37*
G36*
X690079Y128912D02*
X689029D01*
Y127612D01*
X690079D01*
Y128912D01*
D02*
G37*
G36*
X650856Y156381D02*
X649720D01*
Y154950D01*
X650856D01*
Y156381D01*
D02*
G37*
G36*
Y154450D02*
X649720D01*
Y153019D01*
X650856D01*
Y154450D01*
D02*
G37*
G36*
X657919Y152272D02*
X655701D01*
Y150939D01*
X657919D01*
Y152272D01*
D02*
G37*
G36*
X650591Y152023D02*
X649750D01*
Y150198D01*
X650591D01*
Y152023D01*
D02*
G37*
G36*
X657919Y150439D02*
X655701D01*
Y149106D01*
X657919D01*
Y150439D01*
D02*
G37*
G36*
X620913Y149949D02*
X619837D01*
Y148793D01*
X620913D01*
Y149949D01*
D02*
G37*
G36*
X619337D02*
X618260D01*
Y148793D01*
X619337D01*
Y149949D01*
D02*
G37*
G36*
X617527Y149071D02*
X616589D01*
Y148329D01*
X617527D01*
Y149071D01*
D02*
G37*
G36*
X616089D02*
X615150D01*
Y148329D01*
X616089D01*
Y149071D01*
D02*
G37*
G36*
X622585Y148939D02*
X621744D01*
Y148211D01*
X622585D01*
Y148939D01*
D02*
G37*
G36*
X626231Y147566D02*
X625056D01*
Y146450D01*
X626231D01*
Y147566D01*
D02*
G37*
G36*
X623925Y146081D02*
X623085D01*
Y145352D01*
X623925D01*
Y146081D01*
D02*
G37*
G36*
X622585D02*
X621744D01*
Y145352D01*
X622585D01*
Y146081D01*
D02*
G37*
G36*
X617527Y145963D02*
X616589D01*
Y145220D01*
X617527D01*
Y145963D01*
D02*
G37*
G36*
X605520Y145911D02*
X603596D01*
Y144973D01*
X605520D01*
Y145911D01*
D02*
G37*
G36*
X603096D02*
X601173D01*
Y144973D01*
X603096D01*
Y145911D01*
D02*
G37*
G36*
X598945D02*
X597022D01*
Y144973D01*
X598945D01*
Y145911D01*
D02*
G37*
G36*
X596522D02*
X594598D01*
Y144973D01*
X596522D01*
Y145911D01*
D02*
G37*
G36*
X626231Y145950D02*
X625056D01*
Y144834D01*
X626231D01*
Y145950D01*
D02*
G37*
G36*
X620913Y145695D02*
X619837D01*
Y144539D01*
X620913D01*
Y145695D01*
D02*
G37*
G36*
X619337D02*
X618260D01*
Y144539D01*
X619337D01*
Y145695D01*
D02*
G37*
G36*
X625909Y143100D02*
X625670D01*
Y142600D01*
X625909D01*
Y143100D01*
D02*
G37*
G36*
Y142100D02*
X625670D01*
Y141600D01*
X625909D01*
Y142100D01*
D02*
G37*
G36*
X600509Y144488D02*
X599609D01*
X598777Y144144D01*
X598140Y143507D01*
X597795Y142675D01*
Y141774D01*
X598140Y140942D01*
X598777Y140305D01*
X599609Y139961D01*
X600509D01*
X601341Y140305D01*
X601978Y140942D01*
X602323Y141774D01*
Y142675D01*
X601978Y143507D01*
X601341Y144144D01*
X600509Y144488D01*
D02*
G37*
G36*
X607131Y137585D02*
X604913D01*
Y130445D01*
X607131D01*
Y137585D01*
D02*
G37*
G36*
X604413D02*
X602194D01*
Y130445D01*
X604413D01*
Y137585D01*
D02*
G37*
G36*
X612800Y142441D02*
X612417Y142283D01*
Y142283D01*
X612380Y142246D01*
X610043Y139908D01*
X610043Y139908D01*
X609884Y139526D01*
X609884Y139525D01*
Y137585D01*
X610043Y137202D01*
X610069Y137192D01*
Y122806D01*
X615005D01*
Y137012D01*
X615067Y137068D01*
X615207Y137111D01*
X615312Y137198D01*
X615437Y137252D01*
X615740Y137566D01*
X615801Y137722D01*
X618713D01*
Y141478D01*
X615892D01*
X615848Y141584D01*
X615845Y141698D01*
X615657Y142120D01*
X615583Y142190D01*
X615545Y142283D01*
X615439Y142326D01*
X615356Y142405D01*
X615255Y142403D01*
X615162Y142441D01*
X612800D01*
X612800Y142441D01*
D02*
G37*
G36*
X607131Y129945D02*
X604913D01*
Y122806D01*
X607131D01*
Y129945D01*
D02*
G37*
G36*
X604413D02*
X602194D01*
Y122806D01*
X604413D01*
Y129945D01*
D02*
G37*
G36*
X598864Y114750D02*
X595661D01*
Y107808D01*
X598864D01*
Y114750D01*
D02*
G37*
G36*
X595161D02*
X591958D01*
Y107808D01*
X595161D01*
Y114750D01*
D02*
G37*
G36*
X656077Y107983D02*
X654056D01*
Y106355D01*
X656077D01*
Y107983D01*
D02*
G37*
G36*
X653555D02*
X651534D01*
Y106355D01*
X653555D01*
Y107983D01*
D02*
G37*
G36*
X656077Y105855D02*
X654056D01*
Y104227D01*
X656077D01*
Y105855D01*
D02*
G37*
G36*
X653555D02*
X651534D01*
Y104227D01*
X653555D01*
Y105855D01*
D02*
G37*
G36*
X632455D02*
X630434D01*
Y104227D01*
X632455D01*
Y105855D01*
D02*
G37*
G36*
X629934D02*
X627912D01*
Y104227D01*
X629934D01*
Y105855D01*
D02*
G37*
G36*
X648237Y108959D02*
X647563D01*
X646912Y108785D01*
X646329Y108448D01*
X645852Y107971D01*
X645515Y107388D01*
X645341Y106737D01*
Y106063D01*
X645515Y105412D01*
X645852Y104829D01*
X646329Y104352D01*
X646912Y104015D01*
X647563Y103841D01*
X648237D01*
X648888Y104015D01*
X649471Y104352D01*
X649948Y104829D01*
X650285Y105412D01*
X650459Y106063D01*
Y106737D01*
X650285Y107388D01*
X649948Y107971D01*
X649471Y108448D01*
X648888Y108785D01*
X648237Y108959D01*
D02*
G37*
%LPD*%
G36*
X615350Y141478D02*
Y139850D01*
X617031D01*
Y139350D01*
X615350D01*
Y137942D01*
X615047Y137628D01*
X614907Y137585D01*
X612787D01*
Y130195D01*
X612287D01*
Y137585D01*
X610426D01*
Y139526D01*
X612800Y141900D01*
X615162D01*
X615350Y141478D01*
D02*
G37*
%LPC*%
G36*
X630544Y147566D02*
X629369D01*
Y146450D01*
X630544D01*
Y147566D01*
D02*
G37*
G36*
Y145950D02*
X629369D01*
Y144834D01*
X630544D01*
Y145950D01*
D02*
G37*
G36*
X629491Y143100D02*
Y142600D01*
X629730D01*
Y143100D01*
X629491D01*
D02*
G37*
G36*
X675589Y144102D02*
X674847D01*
Y143163D01*
X675589D01*
Y144102D01*
D02*
G37*
G36*
Y142663D02*
X674847D01*
Y141724D01*
X675589D01*
Y142663D01*
D02*
G37*
G36*
X635569Y131091D02*
X634728D01*
Y130250D01*
X635569D01*
Y131091D01*
D02*
G37*
G36*
Y129750D02*
X634728D01*
Y128909D01*
X635569D01*
Y129750D01*
D02*
G37*
G36*
X637236Y126959D02*
X636051D01*
Y126119D01*
X637236D01*
Y126959D01*
D02*
G37*
G36*
X635551D02*
X634366D01*
Y126119D01*
X635551D01*
Y126959D01*
D02*
G37*
G36*
X657281Y132150D02*
X655850D01*
Y130522D01*
X657281D01*
Y132150D01*
D02*
G37*
G36*
X663150Y134278D02*
X661719D01*
Y132650D01*
X663150D01*
Y134278D01*
D02*
G37*
G36*
X647316Y123581D02*
X646180D01*
Y122150D01*
X647316D01*
Y123581D01*
D02*
G37*
G36*
X645680D02*
X644544D01*
Y122150D01*
X645680D01*
Y123581D01*
D02*
G37*
G36*
X654489Y127617D02*
X653550D01*
Y126875D01*
X654489D01*
Y127617D01*
D02*
G37*
G36*
X651669Y125950D02*
X650061D01*
Y124283D01*
X651669D01*
Y125950D01*
D02*
G37*
G36*
X651056Y123581D02*
X649920D01*
Y122150D01*
X651056D01*
Y123581D01*
D02*
G37*
G36*
X635551Y121681D02*
X634366D01*
Y120981D01*
X634366Y120841D01*
X634027Y120481D01*
X633320D01*
Y119050D01*
X634456D01*
Y120341D01*
X634456Y120481D01*
X634794Y120841D01*
X635551D01*
Y121681D01*
D02*
G37*
G36*
X637028Y119587D02*
X635548D01*
Y118550D01*
X637028D01*
Y119587D01*
D02*
G37*
G36*
X639739Y112943D02*
X638308D01*
Y111689D01*
X639739D01*
Y112943D01*
D02*
G37*
G36*
X637808D02*
X636376D01*
Y111689D01*
X637808D01*
Y112943D01*
D02*
G37*
G36*
X622650Y139350D02*
X621218D01*
Y137722D01*
X622650D01*
Y139350D01*
D02*
G37*
G36*
X643676Y111189D02*
X642244D01*
Y109935D01*
X643676D01*
Y111189D01*
D02*
G37*
%LPD*%
D16*
X612537Y130195D02*
D03*
X604663D02*
D03*
D17*
X595411Y107557D02*
D03*
X621789D02*
D03*
D18*
X675787Y220177D02*
D03*
Y190847D02*
D03*
D19*
X695394Y214370D02*
D03*
Y212402D02*
D03*
Y210433D02*
D03*
Y208465D02*
D03*
Y206496D02*
D03*
Y204528D02*
D03*
Y202559D02*
D03*
Y200591D02*
D03*
Y198622D02*
D03*
Y196653D02*
D03*
D20*
X593398Y219984D02*
D03*
Y218016D02*
D03*
X599402Y219984D02*
D03*
Y218016D02*
D03*
D21*
X593447Y222002D02*
D03*
X597384Y215998D02*
D03*
X599353D02*
D03*
X593447D02*
D03*
X595416D02*
D03*
Y222002D02*
D03*
X597384D02*
D03*
X599353D02*
D03*
D22*
X590700Y181400D02*
D03*
X594700Y201400D02*
D03*
D23*
X660900Y160767D02*
D03*
Y162633D02*
D03*
X664321Y211119D02*
D03*
Y209253D02*
D03*
Y205752D02*
D03*
Y203886D02*
D03*
Y200752D02*
D03*
Y198886D02*
D03*
Y195552D02*
D03*
Y193686D02*
D03*
Y190352D02*
D03*
Y188486D02*
D03*
X698407Y155990D02*
D03*
Y157856D02*
D03*
X695607Y155990D02*
D03*
Y157856D02*
D03*
X698500Y168767D02*
D03*
Y170633D02*
D03*
X692507Y178490D02*
D03*
Y180356D02*
D03*
X680400Y152133D02*
D03*
X683169Y149559D02*
D03*
X653300Y127867D02*
D03*
X616339Y146213D02*
D03*
X680400Y150267D02*
D03*
X683169Y151425D02*
D03*
X664370Y182878D02*
D03*
Y184744D02*
D03*
X653300Y129733D02*
D03*
X616339Y148079D02*
D03*
D24*
X608402Y180319D02*
D03*
X606040D02*
D03*
X608402Y183319D02*
D03*
X606040D02*
D03*
X608402Y186219D02*
D03*
X606040D02*
D03*
X608402Y189219D02*
D03*
X606040D02*
D03*
Y199819D02*
D03*
X608402D02*
D03*
X606040Y202819D02*
D03*
X608402D02*
D03*
X606040Y195019D02*
D03*
X608402D02*
D03*
X648402Y160719D02*
D03*
X646040D02*
D03*
X677756Y138091D02*
D03*
Y140453D02*
D03*
Y147736D02*
D03*
Y145374D02*
D03*
Y150197D02*
D03*
Y152559D02*
D03*
X646481Y118200D02*
D03*
X635819Y130000D02*
D03*
X675088Y148723D02*
D03*
X672726D02*
D03*
X644119Y118200D02*
D03*
X638181Y130000D02*
D03*
D25*
X626021Y161938D02*
D03*
Y164300D02*
D03*
X667421Y207595D02*
D03*
Y209958D02*
D03*
Y192795D02*
D03*
Y195158D02*
D03*
Y200157D02*
D03*
Y197795D02*
D03*
Y205058D02*
D03*
Y202695D02*
D03*
Y212795D02*
D03*
Y215158D02*
D03*
X692607Y160842D02*
D03*
Y163204D02*
D03*
X695507D02*
D03*
Y160842D02*
D03*
X692607Y158104D02*
D03*
Y155742D02*
D03*
X667421Y187894D02*
D03*
Y190256D02*
D03*
X667520Y185433D02*
D03*
Y183071D02*
D03*
X604500Y219719D02*
D03*
Y222081D02*
D03*
X588400Y219319D02*
D03*
Y221681D02*
D03*
D26*
X658821Y177434D02*
D03*
Y179402D02*
D03*
Y181371D02*
D03*
Y183339D02*
D03*
Y185308D02*
D03*
Y187276D02*
D03*
Y189245D02*
D03*
Y191213D02*
D03*
Y193182D02*
D03*
Y195150D02*
D03*
Y197119D02*
D03*
Y199087D02*
D03*
Y201056D02*
D03*
Y203024D02*
D03*
Y204993D02*
D03*
Y206961D02*
D03*
X613640Y204993D02*
D03*
Y203024D02*
D03*
Y201056D02*
D03*
Y199087D02*
D03*
Y197119D02*
D03*
Y195150D02*
D03*
Y193182D02*
D03*
Y189245D02*
D03*
Y187276D02*
D03*
Y185308D02*
D03*
Y183339D02*
D03*
Y181371D02*
D03*
Y179402D02*
D03*
Y177434D02*
D03*
Y206961D02*
D03*
Y191213D02*
D03*
D27*
X650994Y214788D02*
D03*
X647057D02*
D03*
X643120D02*
D03*
X641152D02*
D03*
X637215D02*
D03*
X633278D02*
D03*
X631310D02*
D03*
X629341D02*
D03*
X627372D02*
D03*
X625404D02*
D03*
X623435Y169607D02*
D03*
X627372D02*
D03*
X631310D02*
D03*
X633278D02*
D03*
X635247D02*
D03*
X641152D02*
D03*
X645089D02*
D03*
X649026D02*
D03*
X650994D02*
D03*
X621467D02*
D03*
X629341D02*
D03*
X625404D02*
D03*
X621467Y214788D02*
D03*
X623435D02*
D03*
X635247D02*
D03*
X639184Y169607D02*
D03*
X637215D02*
D03*
X647057D02*
D03*
X643120D02*
D03*
X639184Y214788D02*
D03*
X645089D02*
D03*
X649026D02*
D03*
D28*
X608321Y177376D02*
D03*
X605722D02*
D03*
X637922Y220119D02*
D03*
X640520D02*
D03*
X634822Y164219D02*
D03*
X637421D02*
D03*
X646420Y220119D02*
D03*
X643822D02*
D03*
X648699Y129600D02*
D03*
X596701Y211600D02*
D03*
X646101Y129600D02*
D03*
X599299Y211600D02*
D03*
D29*
X622940Y164076D02*
D03*
X620302D02*
D03*
X631640Y164219D02*
D03*
X629002D02*
D03*
X634802Y161319D02*
D03*
X637440D02*
D03*
X648140Y223219D02*
D03*
X645502D02*
D03*
X629019Y135100D02*
D03*
X626481Y146200D02*
D03*
X626381Y135100D02*
D03*
X629119Y146200D02*
D03*
D30*
X648221Y163919D02*
D03*
X646355D02*
D03*
X675839Y135630D02*
D03*
X677705D02*
D03*
X675839Y142913D02*
D03*
X677705D02*
D03*
X669767Y183600D02*
D03*
X671633D02*
D03*
X693650Y152854D02*
D03*
X672967Y151300D02*
D03*
X640867Y129700D02*
D03*
X674833Y151300D02*
D03*
X691784Y152854D02*
D03*
X642733Y129700D02*
D03*
D31*
X638310Y223819D02*
D03*
X641932D02*
D03*
X646189Y126200D02*
D03*
X649811D02*
D03*
X660571Y141142D02*
D03*
X595789Y208000D02*
D03*
X656949Y141142D02*
D03*
X599411Y208000D02*
D03*
D32*
X634721Y220200D02*
D03*
Y222838D02*
D03*
X620221Y220257D02*
D03*
Y222895D02*
D03*
D33*
X676968Y168209D02*
D03*
D34*
X688583Y170571D02*
D03*
X665354Y176870D02*
D03*
Y175295D02*
D03*
Y173721D02*
D03*
Y172146D02*
D03*
Y170571D02*
D03*
Y168996D02*
D03*
Y167421D02*
D03*
Y165847D02*
D03*
Y164272D02*
D03*
Y162697D02*
D03*
Y161122D02*
D03*
Y159547D02*
D03*
X688583D02*
D03*
Y161122D02*
D03*
Y162697D02*
D03*
Y164272D02*
D03*
Y165847D02*
D03*
Y167421D02*
D03*
Y168996D02*
D03*
Y172146D02*
D03*
Y173721D02*
D03*
Y175295D02*
D03*
Y176870D02*
D03*
D35*
X679331Y156595D02*
D03*
X685630Y179823D02*
D03*
X684055D02*
D03*
X682480D02*
D03*
X680905D02*
D03*
X679331D02*
D03*
X677756D02*
D03*
X676181D02*
D03*
X674606D02*
D03*
X673032D02*
D03*
X671457D02*
D03*
X669882D02*
D03*
X668307D02*
D03*
Y156595D02*
D03*
X669882D02*
D03*
X671457D02*
D03*
X673032D02*
D03*
X674606D02*
D03*
X676181D02*
D03*
X677756D02*
D03*
X680905D02*
D03*
X682480D02*
D03*
X684055D02*
D03*
X685630D02*
D03*
D36*
X638058Y111439D02*
D03*
X645931D02*
D03*
X641994D02*
D03*
D37*
X630184Y106105D02*
D03*
X653805D02*
D03*
D38*
X656300Y122200D02*
D03*
Y120625D02*
D03*
D39*
X698500Y165335D02*
D03*
Y163265D02*
D03*
D40*
X694700Y174150D02*
D03*
Y167850D02*
D03*
D41*
X695907Y179212D02*
D03*
Y182834D02*
D03*
D42*
X661469Y132400D02*
D03*
X657531D02*
D03*
X620968Y139600D02*
D03*
X617031D02*
D03*
D43*
X645730Y154700D02*
D03*
X649670Y121900D02*
D03*
X629330Y118800D02*
D03*
X633070D02*
D03*
X645930Y121900D02*
D03*
X649470Y154700D02*
D03*
D44*
X687598Y149213D02*
D03*
X692913Y145079D02*
D03*
Y149213D02*
D03*
X687598Y145079D02*
D03*
D45*
X690329Y127362D02*
D03*
X693529D02*
D03*
D46*
X657011Y128842D02*
D03*
X658389D02*
D03*
D47*
X643595Y149948D02*
D03*
X645563D02*
D03*
X647532D02*
D03*
X641626D02*
D03*
X639657D02*
D03*
X649500D02*
D03*
X639657Y134200D02*
D03*
X641626D02*
D03*
X643595D02*
D03*
X645563D02*
D03*
X647532D02*
D03*
X649500D02*
D03*
D48*
X644579Y142074D02*
D03*
D49*
X652453Y145027D02*
D03*
X636705Y146995D02*
D03*
Y139121D02*
D03*
Y145027D02*
D03*
Y143058D02*
D03*
Y141090D02*
D03*
Y137153D02*
D03*
X652453D02*
D03*
Y139121D02*
D03*
Y141090D02*
D03*
Y143058D02*
D03*
Y146995D02*
D03*
D50*
X624332Y222400D02*
D03*
X630868D02*
D03*
D51*
X596772Y167815D02*
D03*
X603346D02*
D03*
X596772Y146161D02*
D03*
X603346D02*
D03*
D52*
X632600Y135078D02*
D03*
Y138322D02*
D03*
D53*
X629870Y159153D02*
D03*
Y154921D02*
D03*
X637278Y118300D02*
D03*
X640522D02*
D03*
X650278D02*
D03*
X653522D02*
D03*
X626626Y154921D02*
D03*
Y159153D02*
D03*
D54*
X635801Y125868D02*
D03*
X622787Y156988D02*
D03*
X642399Y121932D02*
D03*
Y123900D02*
D03*
Y125868D02*
D03*
X635801Y123900D02*
D03*
Y121932D02*
D03*
X622787Y155020D02*
D03*
Y158957D02*
D03*
X616189D02*
D03*
Y156988D02*
D03*
Y155020D02*
D03*
D55*
X622835Y146331D02*
D03*
Y147961D02*
D03*
D56*
X619587Y145945D02*
D03*
Y148543D02*
D03*
D57*
X658169Y145768D02*
D03*
Y150689D02*
D03*
D58*
X603346Y152067D02*
D03*
Y154035D02*
D03*
Y156004D02*
D03*
Y157972D02*
D03*
Y159941D02*
D03*
Y161909D02*
D03*
X596772D02*
D03*
Y159941D02*
D03*
Y157972D02*
D03*
Y156004D02*
D03*
Y154035D02*
D03*
Y152067D02*
D03*
D59*
X693307Y114764D02*
D03*
Y103347D02*
D03*
D60*
X657700Y127090D02*
D03*
D61*
X631200Y123650D02*
D03*
Y129950D02*
D03*
D62*
X693012Y133237D02*
D03*
Y130149D02*
D03*
D63*
X693307Y121038D02*
D03*
Y124238D02*
D03*
D101*
X627700Y140500D02*
D03*
D122*
X626420Y142350D02*
D03*
X628979Y138650D02*
D03*
X626420D02*
D03*
X628979Y142350D02*
D03*
D123*
X613640Y195150D02*
X617874D01*
X634760Y178265D01*
X674800Y184250D02*
X675162Y183888D01*
X676462Y181371D02*
Y183212D01*
X677100Y183850D01*
X674800Y184250D02*
Y184300D01*
X673038Y179829D02*
Y182405D01*
X673483Y182850D01*
Y182900D01*
X675162Y182204D02*
Y183888D01*
X674613Y181655D02*
X675162Y182204D01*
X674613Y179829D02*
Y181655D01*
X674606Y179823D02*
X674613Y179829D01*
X671457Y179823D02*
X671463Y179829D01*
X671700Y183600D02*
X671733D01*
Y181864D02*
Y183600D01*
X671463Y181594D02*
X671733Y181864D01*
X671463Y179829D02*
Y181594D01*
X673032Y179823D02*
X673038Y179829D01*
X698500Y165335D02*
X698600Y165435D01*
Y168675D01*
X698311D02*
X698600D01*
X698512Y161232D02*
X698524Y161221D01*
X698512Y161232D02*
Y163253D01*
X698500Y163265D02*
X698512Y163253D01*
X698500Y170633D02*
X698600D01*
X698300Y172350D02*
Y172400D01*
Y172350D02*
X698600Y172050D01*
Y170633D02*
Y172050D01*
X697683Y167850D02*
X698311Y168478D01*
X694700Y167850D02*
X697683D01*
X623837Y222895D02*
X624332Y222400D01*
X620221Y222895D02*
X623837D01*
X620221Y220198D02*
X621819Y218601D01*
X624390D01*
X625213Y217777D01*
Y214979D02*
Y217777D01*
Y214979D02*
X625404Y214788D01*
X690035Y196535D02*
X695275D01*
X690000Y196500D02*
X690035Y196535D01*
X695275D02*
X695394Y196653D01*
X675787Y190847D02*
X676921D01*
X677800Y191726D01*
Y193600D01*
X618407Y177434D02*
X623245Y172596D01*
X613640Y177434D02*
X618407D01*
X623245Y169798D02*
X623435Y169607D01*
X623245Y169798D02*
Y172596D01*
X624399Y173411D02*
X625213Y172596D01*
Y169798D02*
X625404Y169607D01*
X625213Y169798D02*
Y172596D01*
X625595Y169798D02*
Y172596D01*
X620828Y164542D02*
Y165028D01*
X620302Y164076D02*
X620361D01*
X621467Y165667D02*
Y169607D01*
X620828Y165028D02*
X621467Y165667D01*
X620361Y164076D02*
X620828Y164542D01*
X629150Y169798D02*
Y172942D01*
X626409Y173411D02*
X628682D01*
X629150Y169798D02*
X629341Y169607D01*
X628682Y173411D02*
X629150Y172942D01*
X625404Y169607D02*
X625595Y169798D01*
Y172596D02*
X626409Y173411D01*
X621623Y194477D02*
Y194777D01*
Y194477D02*
X624000Y192100D01*
X619281Y197119D02*
X621623Y194777D01*
X613640Y197119D02*
X619281D01*
X617744Y201031D02*
X628731Y190044D01*
Y189044D02*
Y190044D01*
X613665Y201031D02*
X617744D01*
X613640Y204993D02*
X618354D01*
X618102Y202870D02*
X641105Y179867D01*
X618354Y204993D02*
X642784Y180563D01*
X613795Y202870D02*
X618102D01*
X642784Y179516D02*
X648100Y174200D01*
X642784Y179516D02*
Y180563D01*
X645350Y174300D02*
X645450Y174200D01*
X646867Y169798D02*
Y172833D01*
X645500Y174200D02*
Y174285D01*
X644663Y174800D02*
X645163Y174300D01*
X645450Y174200D02*
X645500D01*
X645163Y174300D02*
X645350D01*
X645500Y174200D02*
X646867Y172833D01*
Y169798D02*
X647057Y169607D01*
X650871Y129600D02*
X650950Y129520D01*
X648699Y129600D02*
X650871D01*
X650950Y129520D02*
X651000D01*
X693650Y152657D02*
X694472Y151835D01*
X695365D01*
X693650Y152657D02*
Y152854D01*
X695365Y151835D02*
X695400Y151800D01*
X695607Y155990D02*
X698407D01*
X676968Y168209D02*
X679331Y165847D01*
X676968Y168209D02*
X679331Y170571D01*
X688583D01*
X688589Y170565D02*
X690799D01*
X690898Y170466D02*
X690948D01*
X688583Y170571D02*
X688589Y170565D01*
X690799D02*
X690898Y170466D01*
X662100Y146550D02*
Y146600D01*
X660571Y141142D02*
X661529Y142100D01*
Y145979D01*
X662100Y146550D01*
X661478Y151722D02*
X666595Y146605D01*
X666605D01*
X640279Y139121D02*
X641000Y138400D01*
X636705Y139121D02*
X640279D01*
X647900Y145600D02*
X648473Y145027D01*
X652453D01*
X647532Y145968D02*
X647900Y145600D01*
X647532Y145968D02*
Y149948D01*
X645563Y143058D02*
Y149948D01*
X644579Y142074D02*
X645563Y143058D01*
X643595D02*
Y149948D01*
X641626Y145027D02*
X643595Y143058D01*
X644579Y142074D01*
X639657Y146995D02*
X641626Y145027D01*
Y149948D01*
X639657Y146995D02*
Y149948D01*
X636705Y146995D02*
X639657D01*
X626420Y142350D02*
X627700Y141071D01*
Y140500D02*
Y141071D01*
X629143Y135165D02*
X630365D01*
X629084D02*
X629143D01*
X630391Y136413D01*
X629078Y135100D02*
X629143Y135165D01*
X629019Y135100D02*
X629084Y135165D01*
X630365D02*
X630400Y135200D01*
X629040Y155309D02*
Y155798D01*
X622787Y156988D02*
X627850D01*
X629040Y155798D01*
Y155309D02*
X629427Y154921D01*
X629870D01*
X629040Y154534D02*
X629427Y154921D01*
X629040Y153290D02*
Y154534D01*
X628400Y152650D02*
X629040Y153290D01*
X628400Y152600D02*
Y152650D01*
X628635Y160435D02*
Y161465D01*
X629427Y159153D02*
X629870D01*
X629040Y159541D02*
X629427Y159153D01*
X629040Y159541D02*
Y160030D01*
X628635Y160435D02*
X629040Y160030D01*
X628600Y161500D02*
X628635Y161465D01*
Y163852D02*
X629002Y164219D01*
X628635Y161535D02*
Y163852D01*
X628600Y161500D02*
X628635Y161535D01*
X629002Y164219D02*
Y166955D01*
X629341Y167294D01*
Y169607D01*
X594418Y220273D02*
X595127Y220982D01*
Y221713D02*
X595416Y222002D01*
X593398Y219984D02*
X593687Y220273D01*
X594418D01*
X595127Y220982D02*
Y221713D01*
X634711Y224803D02*
X634716Y224798D01*
Y222843D02*
Y224798D01*
Y222843D02*
X634721Y222838D01*
X643901Y220119D02*
X644328Y219692D01*
X644898Y214979D02*
Y218636D01*
Y214979D02*
X645089Y214788D01*
X643822Y220119D02*
X643901D01*
X644328Y219207D02*
Y219692D01*
Y219207D02*
X644898Y218636D01*
X640015Y219692D02*
X640442Y220119D01*
X639374Y218566D02*
X640015Y219207D01*
X639374Y214979D02*
Y218566D01*
X639184Y214788D02*
X639374Y214979D01*
X640442Y220119D02*
X640520D01*
X640015Y219207D02*
Y219692D01*
X642532Y223219D02*
X645443D01*
X641932Y223819D02*
X642532Y223219D01*
X644328Y220546D02*
Y221031D01*
X644977Y222753D02*
X645443Y223219D01*
X645502D01*
X643901Y220119D02*
X644328Y220546D01*
Y221031D02*
X644977Y221681D01*
Y222753D01*
X640599Y220119D02*
X643822D01*
X640520D02*
X640599D01*
X641932Y221452D02*
Y223819D01*
X640599Y220119D02*
X641932Y221452D01*
X603010Y218756D02*
X603726Y218039D01*
X601911Y218016D02*
X603187Y216739D01*
X607761D01*
X616048Y208452D01*
X609704Y218039D02*
X643506Y184238D01*
X603726Y218039D02*
X609704D01*
X679331Y156595D02*
Y165847D01*
X661993Y159000D02*
X662781Y159788D01*
X661993Y158950D02*
Y159000D01*
X662781Y159788D02*
Y160314D01*
X628731Y189044D02*
X639588Y178188D01*
X613640Y201056D02*
X613665Y201031D01*
X613640Y203024D02*
X613795Y202870D01*
X660743Y157271D02*
X660829D01*
X661478Y156622D01*
X659307Y158707D02*
X660743Y157271D01*
X613640Y179402D02*
X620300D01*
X662781Y160314D02*
X663583Y161116D01*
X665348D02*
X665354Y161122D01*
X663583Y161116D02*
X665348D01*
X660841Y162541D02*
X660900Y162600D01*
X660841Y162541D02*
X660997Y162697D01*
X665354D01*
X660216Y162541D02*
X660841D01*
X658275Y160600D02*
X660216Y162541D01*
X665300Y159541D02*
X665306Y159547D01*
X665354D01*
X665300Y157580D02*
Y159541D01*
X663892Y152720D02*
X665185Y154014D01*
Y154385D01*
X666121Y155321D01*
X669612Y152721D02*
X671450Y154560D01*
X668291Y151591D02*
X668340D01*
X669471Y152721D01*
X661478Y151722D02*
Y156622D01*
X666121Y155321D02*
X668301D01*
X665100Y151300D02*
X667017Y153217D01*
X667167D01*
X667971Y154021D01*
X668839D01*
X660850Y174164D02*
X661229Y174543D01*
X662677D01*
X660800Y174164D02*
X660850D01*
X662677Y174543D02*
X663423Y175289D01*
X661296Y171200D02*
X661654Y170842D01*
X660421Y169542D02*
X662275D01*
X662813Y170842D02*
X663078Y170577D01*
X662275Y169542D02*
X662540Y169277D01*
X657700Y169400D02*
X659500Y171200D01*
X661654Y170842D02*
X662813D01*
X663423Y175289D02*
X665348D01*
X659500Y171200D02*
X661296D01*
X661579Y167863D02*
X661614Y167827D01*
X658400Y167521D02*
X660421Y169542D01*
X663078Y170577D02*
X665348D01*
X665354Y170571D01*
X662540Y169277D02*
X663806D01*
X664081Y169002D01*
X665348Y175289D02*
X665354Y175295D01*
X635474Y174826D02*
X636310D01*
X637346Y173790D02*
X637396D01*
X617189Y193111D02*
X635474Y174826D01*
X608534Y195150D02*
X613640D01*
X636310Y174826D02*
X637346Y173790D01*
X616948Y208452D02*
X645034Y180366D01*
Y180334D02*
Y180366D01*
X613711Y193111D02*
X617189D01*
X613640Y193182D02*
X613711Y193111D01*
X652900Y169400D02*
X657700D01*
X658312Y164012D02*
Y166017D01*
X660900Y166200D02*
X660917Y166183D01*
X661614Y167827D02*
X663183D01*
X661950Y164500D02*
X662178Y164272D01*
X665354D01*
X662592Y166183D02*
X662929Y165847D01*
X660917Y166183D02*
X662592D01*
X663583Y167428D02*
X665348D01*
X662929Y165847D02*
X665354D01*
X661900Y164500D02*
X661950D01*
X663183Y167827D02*
X663583Y167428D01*
X619724Y187276D02*
X627092Y179908D01*
X613640Y187276D02*
X619724D01*
X658400Y166104D02*
Y167521D01*
X658312Y166017D02*
X658400Y166104D01*
X647600Y183400D02*
Y184300D01*
X629142Y202758D02*
X647600Y184300D01*
X616048Y208452D02*
X616948D01*
X643506Y184238D02*
X643538D01*
X665348Y167428D02*
X665354Y167421D01*
X626892Y202758D02*
X629142D01*
X607569Y222081D02*
X626892Y202758D01*
X604500Y222081D02*
X607569D01*
X614182Y217306D02*
X620504Y210985D01*
X594354Y223640D02*
X607860D01*
X614182Y217318D01*
X620504Y210985D02*
X623915D01*
X614182Y217306D02*
Y217318D01*
X676187Y181096D02*
X676462Y181371D01*
X677762Y182112D02*
X678800Y183150D01*
X677762Y179829D02*
Y182112D01*
X678800Y183150D02*
Y183200D01*
X677756Y179823D02*
X677762Y179829D01*
X680630Y183020D02*
X680905Y182745D01*
X680630Y183020D02*
Y183070D01*
X680905Y179823D02*
Y182745D01*
X665628Y182970D02*
X665729Y183071D01*
X664462Y182970D02*
X665628D01*
X665729Y183071D02*
X667520D01*
X669972Y136693D02*
X671779Y138500D01*
X658389Y128697D02*
X658395Y128691D01*
X659360D02*
X660150Y127900D01*
X658389Y128697D02*
Y128842D01*
X658395Y128691D02*
X659360D01*
X660150Y127900D02*
X660200D01*
X668200Y127300D02*
X669972Y129072D01*
Y136693D01*
X662115Y128695D02*
X666841Y133421D01*
Y143237D01*
X669888Y145885D02*
X672726Y148723D01*
X669489Y145885D02*
X669888D01*
X666841Y143237D02*
X669489Y145885D01*
X671575Y152360D02*
Y152500D01*
X673025Y153950D01*
X670761Y151496D02*
Y151546D01*
X671575Y152360D01*
X669471Y152721D02*
X669612D01*
X688583Y159547D02*
X689794D01*
X689800Y159541D01*
Y158400D02*
Y159541D01*
X668839Y154021D02*
X668839Y154021D01*
X643076Y131335D02*
X643595Y131854D01*
X642935Y131335D02*
X643076D01*
X668839Y154021D02*
X669074D01*
X669876Y154823D01*
X671450Y154560D02*
Y156588D01*
X660838Y116262D02*
X664100Y113000D01*
X660838Y116262D02*
Y125927D01*
X662115Y127204D01*
Y128695D01*
X623915Y210985D02*
X647300Y187600D01*
X679331Y152905D02*
X679431D01*
X680203Y152133D01*
X680400D01*
X679331Y152905D02*
Y156595D01*
X682972Y151425D02*
X683169D01*
X682880Y151517D02*
Y152327D01*
X680905Y155095D02*
X681180Y154820D01*
X682880Y151517D02*
X682972Y151425D01*
X681180Y154027D02*
Y154820D01*
Y154027D02*
X682880Y152327D01*
X680905Y155095D02*
Y156595D01*
X673025Y153950D02*
Y156588D01*
X664370Y182878D02*
X664462Y182970D01*
X664278D02*
X664370Y182878D01*
X663690Y182970D02*
X664278D01*
X662679Y183981D02*
X663690Y182970D01*
X662679Y183981D02*
Y185996D01*
X662642Y186033D02*
X662679Y185996D01*
X662642Y186033D02*
Y186254D01*
X661810Y187086D02*
X662642Y186254D01*
X659012Y187086D02*
X661810D01*
X658821Y187276D02*
X659012Y187086D01*
X599402Y218016D02*
X601911D01*
X603010Y218756D02*
Y219516D01*
X602541Y219984D02*
X603010Y219516D01*
X688583Y172146D02*
X691643D01*
X693131Y170658D01*
Y169222D02*
Y170658D01*
X694503Y167850D02*
X694700D01*
X693131Y169222D02*
X694503Y167850D01*
X694271Y173721D02*
X694700Y174150D01*
X688583Y173721D02*
X694271D01*
X690131Y168715D02*
X690629D01*
X690690Y168653D02*
X691167D01*
X688583Y168996D02*
X689850D01*
X691167Y168653D02*
X691202Y168618D01*
X690629Y168715D02*
X690690Y168653D01*
X689850Y168996D02*
X690131Y168715D01*
X692798Y158294D02*
X693592D01*
X694545Y159248D02*
X694885D01*
X695354Y159717D02*
Y160689D01*
X693592Y158294D02*
X694545Y159248D01*
X694885D02*
X695354Y159717D01*
Y160689D02*
X695507Y160842D01*
X689835Y154999D02*
X691784Y153051D01*
X689800Y155800D02*
X689835Y155765D01*
Y154999D02*
Y155765D01*
X691784Y152854D02*
Y153051D01*
X643595Y131854D02*
Y133025D01*
X642900Y131300D02*
X642935Y131335D01*
X643595Y133025D02*
X643600Y133031D01*
X642900Y131250D02*
Y131300D01*
X643600Y133031D02*
Y133100D01*
X642733Y129503D02*
Y129700D01*
X629019Y135100D02*
X629078D01*
X627700Y140500D02*
X629681D01*
X630391Y139790D01*
Y136413D02*
Y139790D01*
X684232Y152816D02*
X684849Y152200D01*
Y147540D02*
X686234Y146155D01*
X684849Y147540D02*
Y152200D01*
X684055Y156595D02*
X684061Y156588D01*
X684230Y152816D02*
X684232D01*
X684866Y154021D02*
X686331Y152556D01*
X684061Y154823D02*
X684863Y154021D01*
X684866D01*
X686331Y152556D02*
X689373D01*
X682480Y154566D02*
Y156595D01*
Y154566D02*
X684230Y152816D01*
X684061Y154823D02*
Y156588D01*
X667421Y209958D02*
X675843D01*
X599402Y219984D02*
X602541D01*
X593447Y222002D02*
X593736Y222291D01*
Y223022D01*
X594354Y223640D01*
X593158Y221681D02*
X593447Y221970D01*
Y222002D01*
X588400Y221681D02*
X593158D01*
X599392Y222042D02*
X604460D01*
X604500Y222081D01*
X599353Y222002D02*
X599392Y222042D01*
X669876Y156588D02*
X669882Y156595D01*
X669876Y154823D02*
Y156588D01*
X668301Y155321D02*
X668307Y155327D01*
Y156595D01*
X673025Y156588D02*
X673032Y156595D01*
X671450Y156588D02*
X671457Y156595D01*
X674833Y151300D02*
X674925Y151208D01*
Y148886D02*
Y151208D01*
Y148886D02*
X675088Y148723D01*
X675925Y152589D02*
Y153589D01*
X674833Y151497D02*
X675925Y152589D01*
X674833Y151300D02*
Y151497D01*
X675925Y153589D02*
X676181Y153845D01*
Y156595D01*
X682480Y179823D02*
Y182730D01*
X682800Y183050D01*
Y183100D01*
X654817Y143058D02*
X656601Y144842D01*
Y145085D02*
X657283Y145768D01*
X658169D01*
X652453Y143058D02*
X654817D01*
X656601Y144842D02*
Y145085D01*
X656897Y141090D02*
X656949Y141142D01*
X652453Y141090D02*
X656897D01*
X642733Y129700D02*
X642825Y129792D01*
Y131175D01*
X642900Y131250D01*
X633353Y218773D02*
X634721Y220141D01*
X633353Y214863D02*
Y218773D01*
X634721Y220141D02*
Y220200D01*
X693751Y154598D02*
X695156D01*
X696013Y153740D01*
X692607Y155742D02*
X693751Y154598D01*
X696013Y153740D02*
X696063D01*
X689373Y152556D02*
X692717Y149213D01*
X692913D01*
X686522Y146155D02*
X687598Y145079D01*
X686234Y146155D02*
X686522D01*
X692607Y158104D02*
X692798Y158294D01*
X692607Y163204D02*
X695507D01*
X688589Y165840D02*
X690354D01*
X688583Y165847D02*
X688589Y165840D01*
X690354D02*
X692416Y163777D01*
Y163394D02*
Y163777D01*
Y163394D02*
X692607Y163204D01*
X695607Y157856D02*
X698407D01*
X698431D01*
X698524Y157948D01*
Y161221D01*
X633278Y214788D02*
X633353Y214863D01*
X620221Y220198D02*
Y220257D01*
X608402Y195019D02*
X608534Y195150D01*
X609564Y200981D02*
X613565D01*
X613640Y201056D01*
X608402Y199819D02*
X609564Y200981D01*
X608477Y202894D02*
X609059D01*
X608402Y202819D02*
X608477Y202894D01*
X609059D02*
X609190Y203024D01*
X613640D01*
D124*
X630827Y219236D02*
Y222359D01*
X630868Y222400D01*
X629416Y217825D02*
X630827Y219236D01*
X629416Y214863D02*
Y217825D01*
X629341Y214788D02*
X629416Y214863D01*
X647057Y214788D02*
Y219482D01*
X680281Y223219D02*
X691023Y212476D01*
X670696Y188551D02*
X679948D01*
X680543Y189146D01*
Y191543D01*
X683500Y194500D01*
X667751Y187969D02*
X670272Y190489D01*
Y191787D01*
X672111Y193626D01*
X674935D01*
X679020Y197711D01*
X667421Y197795D02*
X672205D01*
X675255Y200845D01*
X667421Y187894D02*
X667496Y187969D01*
X667751D01*
X668433Y186287D02*
X670696Y188551D01*
X683868Y202559D02*
X696395D01*
X691023Y212476D02*
X695319D01*
X685391Y200591D02*
X695394D01*
X683500Y194500D02*
Y198700D01*
X685391Y200591D01*
X679528Y208465D02*
X698228D01*
X686300Y193700D02*
Y196000D01*
X680905Y206496D02*
X698228D01*
X675255Y200845D02*
X680905Y206496D01*
X682833Y210433D02*
X695394D01*
X682800Y210400D02*
X682833Y210433D01*
X680100Y210400D02*
X682800D01*
X674976Y197024D02*
X682480Y204528D01*
X695319Y212476D02*
X695394Y212402D01*
X686300Y196000D02*
X688922Y198622D01*
X695394D01*
X682480Y204528D02*
X696774D01*
X679020Y197711D02*
X683868Y202559D01*
X673758Y202695D02*
X679528Y208465D01*
X670405Y202695D02*
X673758D01*
X670300Y202800D02*
X670405Y202695D01*
X657000Y223219D02*
X673900D01*
X648140D02*
X657000D01*
X673900D02*
X680281D01*
X675343Y215158D02*
X680100Y210400D01*
X667421Y215158D02*
X675343D01*
X673110Y195158D02*
X674976Y197024D01*
X682074Y188512D02*
Y189474D01*
X686300Y193700D01*
X642136Y214788D02*
X643120D01*
X641152D02*
X642136D01*
X679920Y187020D02*
X680583D01*
X679802Y186902D02*
X679920Y187020D01*
X680583D02*
X682074Y188512D01*
X672298Y186902D02*
X679802D01*
X667421Y202695D02*
X670195D01*
X670300Y202800D01*
X649101Y169682D02*
Y172644D01*
X650882Y174425D01*
X658401D01*
X659681Y175705D02*
Y175719D01*
X658401Y174425D02*
X659681Y175705D01*
X649026Y169607D02*
X649101Y169682D01*
X671100Y185705D02*
X672298Y186902D01*
X677826Y150267D02*
X680400D01*
X693502Y127389D02*
X693529Y127362D01*
X693268Y130149D02*
X693502Y129914D01*
X693307Y124238D02*
X693529Y124460D01*
Y127362D01*
X693502Y127389D02*
Y129914D01*
X677728Y135457D02*
X677878D01*
X677705Y135630D02*
Y138039D01*
X677878Y135457D02*
X678635Y134700D01*
X692000D02*
X693600Y133100D01*
X677705Y135630D02*
Y135780D01*
X678635Y134700D02*
X692000D01*
X677705Y135480D02*
X677728Y135457D01*
X677756Y152559D02*
X677756Y152559D01*
X677705Y142913D02*
Y143063D01*
X677756Y143114D01*
X677728Y140480D02*
Y142890D01*
X677756Y147736D02*
Y150197D01*
Y143114D02*
Y145374D01*
X677705Y142913D02*
X677728Y142890D01*
X677756Y152559D02*
Y156595D01*
X677728Y140480D02*
X677756Y140453D01*
X620724Y160676D02*
X622368Y159032D01*
X613306Y160676D02*
X620724D01*
X622368Y159032D02*
X623659D01*
X648221Y160900D02*
X648402Y160719D01*
X648221Y160900D02*
Y163919D01*
Y164069D01*
X649026Y164874D02*
Y169607D01*
X648221Y164069D02*
X649026Y164874D01*
X664321Y184768D02*
Y186819D01*
Y184768D02*
X664345Y184744D01*
X664321Y186819D02*
Y188486D01*
X664345Y184744D02*
X664370D01*
X607206Y150720D02*
X611820D01*
X614226Y153126D01*
X620133D01*
X606947Y150461D02*
X607206Y150720D01*
X601253Y150461D02*
X606947D01*
X667421Y195158D02*
X673110D01*
X668374Y186287D02*
X668433D01*
X667520Y185433D02*
X668374Y186287D01*
X621467Y214788D02*
X623435D01*
X641551Y132492D02*
Y134125D01*
X640669Y131610D02*
X641551Y132492D01*
X638181Y130000D02*
X639791Y131610D01*
X640669D01*
X603346Y152067D02*
X603421Y152142D01*
X604504Y159866D02*
X604791Y159579D01*
X603421Y159866D02*
X604504D01*
X603346Y159941D02*
X603421Y159866D01*
X612209Y159579D02*
X613306Y160676D01*
X623781Y159153D02*
X626626D01*
X604791Y159579D02*
X612209D01*
X623659Y159032D02*
X623781Y159153D01*
X621928Y154921D02*
X626626D01*
X620133Y153126D02*
X621928Y154921D01*
X599915Y151798D02*
Y152623D01*
Y151798D02*
X601253Y150461D01*
X598578Y153961D02*
X599915Y152623D01*
X596847Y153961D02*
X598578D01*
X596772Y154035D02*
X596847Y153961D01*
X641551Y134125D02*
X641626Y134200D01*
X633525Y137607D02*
X633979Y137153D01*
X636705D01*
X632872Y137607D02*
X633525D01*
X632600Y137879D02*
X632872Y137607D01*
X632600Y137879D02*
Y138322D01*
X693307Y114764D02*
Y121038D01*
X664298Y211095D02*
X664448D01*
X667346Y212720D02*
X667421Y212795D01*
X664448Y211095D02*
X666073Y212720D01*
X667346D01*
X664321Y190352D02*
X667325D01*
X667421Y190256D01*
X658896Y191138D02*
X661858D01*
X662644Y190352D01*
X658821Y191213D02*
X658896Y191138D01*
X662644Y190352D02*
X664321D01*
X664471Y193686D02*
X664680Y193477D01*
Y193399D02*
Y193477D01*
X665284Y192795D02*
X667421D01*
X664321Y193686D02*
X664471D01*
X664680Y193399D02*
X665284Y192795D01*
X663224Y193709D02*
X664298D01*
X658821Y195150D02*
X658896Y195076D01*
X661858D01*
X663224Y193709D01*
X664298D02*
X664321Y193686D01*
Y195552D02*
Y197219D01*
Y198886D01*
X664298Y200729D02*
X664321Y200752D01*
X663547Y200729D02*
X664298D01*
X661980Y199162D02*
X663547Y200729D01*
X658896Y199162D02*
X661980D01*
X658821Y199087D02*
X658896Y199162D01*
X666827Y200752D02*
X667421Y200157D01*
X664321Y200752D02*
X666827D01*
X664398Y207595D02*
X667421D01*
X664321Y207519D02*
X664398Y207595D01*
X665994Y203886D02*
X667091Y204982D01*
X664321Y203886D02*
X665994D01*
X667091Y204982D02*
X667346D01*
X667421Y205058D01*
X664171Y203886D02*
X664321D01*
X658821Y203024D02*
X663310D01*
X664171Y203886D01*
X664321Y205752D02*
Y207519D01*
Y209253D01*
X662482Y208310D02*
Y210031D01*
X663547Y211095D01*
X664298D01*
X664321Y211119D01*
X658821Y206961D02*
X661134D01*
X662482Y208310D01*
X637843Y220119D02*
X638116Y220392D01*
Y223625D02*
X638310Y223819D01*
X638116Y220392D02*
Y223625D01*
X646810Y219729D02*
Y219808D01*
Y219729D02*
X647057Y219482D01*
X646499Y220119D02*
X646810Y219808D01*
X647731Y222868D02*
X648081Y223219D01*
X648140D01*
X646420Y220119D02*
X646499D01*
X647731Y221350D01*
Y222868D01*
X637215Y214788D02*
Y219491D01*
X637843Y220119D01*
X637922D01*
X609454Y181371D02*
X613640D01*
X608402Y180319D02*
X609454Y181371D01*
X608413Y183329D02*
X613630D01*
X613640Y183339D01*
X608402Y183319D02*
X608413Y183329D01*
X608402Y186219D02*
X609313Y185308D01*
X613640D01*
X608415Y189232D02*
X613627D01*
X613640Y189245D01*
X608402Y189219D02*
X608415Y189232D01*
D125*
X631310Y164550D02*
Y167291D01*
X658821Y179402D02*
Y181371D01*
X631310Y167291D02*
Y169607D01*
X627077Y165499D02*
X627282Y165704D01*
X627077Y165356D02*
Y165499D01*
X627282Y165704D02*
Y169517D01*
X626021Y164300D02*
X627077Y165356D01*
X604500Y219719D02*
X607556D01*
X658800Y181350D02*
X658821Y181371D01*
X658800Y181179D02*
Y181350D01*
X658821Y177821D02*
Y179402D01*
X658800Y177455D02*
X658821Y177434D01*
X658800Y177455D02*
Y177821D01*
X658821Y183339D02*
Y185308D01*
Y181371D02*
Y183339D01*
X668520Y133120D02*
Y142541D01*
X663515Y128115D02*
X668520Y133120D01*
X646000Y122641D02*
X646060D01*
X645930Y121605D02*
X648947Y118587D01*
X645930Y121605D02*
Y121900D01*
X633622Y132273D02*
Y132561D01*
X631298Y129950D02*
X633622Y132273D01*
X646060Y122029D02*
Y122641D01*
Y126159D01*
X662700Y121830D02*
X663584Y120946D01*
X662700Y124170D02*
X663515Y124985D01*
X662700Y121830D02*
Y124170D01*
X663515Y124985D02*
Y128115D01*
X663584Y118516D02*
X664100Y118000D01*
X663584Y118516D02*
Y120946D01*
X594700Y201400D02*
X600000D01*
X650500Y116600D02*
Y118013D01*
X650216Y118297D02*
X650500Y118013D01*
X649700Y118297D02*
X650216D01*
X649700D02*
X649991Y118587D01*
X648947D02*
X649991D01*
X650278Y118300D01*
X656369Y122306D02*
Y125759D01*
X656331Y119239D02*
Y120519D01*
X655527Y118435D02*
X656331Y119239D01*
X653263Y118435D02*
X655527D01*
X653028Y118200D02*
X653263Y118435D01*
X657208Y127090D02*
X657700D01*
X657019Y126901D02*
X657208Y127090D01*
X657019Y126409D02*
Y126901D01*
X656369Y125759D02*
X657019Y126409D01*
X630400Y161900D02*
X631215Y162715D01*
X599355Y208056D02*
Y211544D01*
X599299Y211600D02*
X599355Y211544D01*
Y208056D02*
X599411Y208000D01*
X593200Y205100D02*
X599900D01*
X588400Y209900D02*
Y219319D01*
Y209900D02*
X593200Y205100D01*
X599900D02*
X600000Y205200D01*
X632065Y162335D02*
Y163853D01*
X631215Y162715D02*
Y163853D01*
X632065Y162335D02*
X632500Y161900D01*
X631310Y167291D02*
X631408Y167192D01*
X631310Y164550D02*
X631640Y164219D01*
X631581D02*
X631640D01*
X631215Y163853D02*
X631581Y164219D01*
X634420Y141180D02*
X636614D01*
X636705Y141090D01*
X633800Y141800D02*
X634420Y141180D01*
X645529Y126200D02*
X646189D01*
X646060Y126159D02*
X646145Y126244D01*
X642399Y125868D02*
X645198D01*
X645529Y126200D01*
X646145Y126244D02*
Y129556D01*
X646101Y129600D02*
X646145Y129556D01*
X646101Y129600D02*
Y131927D01*
X645930Y121900D02*
X646060Y122029D01*
X642399Y123900D02*
Y125868D01*
X645653Y132374D02*
Y133496D01*
Y132374D02*
X646101Y131927D01*
X645550Y133600D02*
X645653Y133496D01*
X646040Y162809D02*
X646347Y163117D01*
X646040Y160719D02*
Y162809D01*
X646347Y163911D02*
X646355Y163919D01*
X646347Y163117D02*
Y163911D01*
X645089Y165203D02*
X646185Y164108D01*
X646347D01*
X645089Y165203D02*
Y169607D01*
X646347Y164108D02*
X646355Y164100D01*
Y163919D02*
Y164100D01*
X631200Y129950D02*
X631298D01*
X633876Y120921D02*
X634456Y120341D01*
X634794D01*
X631699Y164219D02*
X632065Y163853D01*
X627282Y169517D02*
X627372Y169607D01*
X634812Y161329D02*
Y164209D01*
X634822Y164219D01*
X634802Y161319D02*
X634812Y161329D01*
X633278Y165787D02*
X634416Y164648D01*
Y164546D02*
X634743Y164219D01*
X633278Y165787D02*
Y169607D01*
X634416Y164546D02*
Y164648D01*
X634743Y164219D02*
X634822D01*
X631640D02*
X631699D01*
X640965Y118300D02*
X644019D01*
X640522D02*
X640965D01*
X641252Y118587D02*
Y118694D01*
X640965Y118300D02*
X641252Y118587D01*
X642399Y119841D02*
Y121932D01*
X641252Y118694D02*
X642399Y119841D01*
X644019Y118300D02*
X644119Y118200D01*
X635456Y123900D02*
X635801D01*
X631200Y123650D02*
X635207D01*
X635456Y123900D01*
D126*
X663195Y173293D02*
X663579Y173677D01*
X662907Y173293D02*
X663195D01*
X665311Y173677D02*
X665354Y173721D01*
X663579Y173677D02*
X665311D01*
X662477Y172864D02*
X662907Y173293D01*
X662400Y172864D02*
X662477D01*
D127*
X659719Y175719D02*
X659893Y175893D01*
X659681Y175719D02*
X659719D01*
X662118Y175893D02*
X662731Y176506D01*
X659893Y175893D02*
X662118D01*
X662731Y176506D02*
Y178831D01*
X666627Y181219D02*
X666634Y181226D01*
X665119Y181219D02*
X666627D01*
X662731Y178831D02*
X665119Y181219D01*
D128*
X654114Y135078D02*
X654899D01*
X655013Y135193D02*
X656493D01*
X656500Y135200D01*
X654899Y135078D02*
X655013Y135193D01*
X653541Y135652D02*
X654114Y135078D01*
X654886Y139004D02*
X655890Y138000D01*
X652570Y139004D02*
X654886D01*
X655890Y138000D02*
X655900D01*
X652453Y137153D02*
X653424D01*
X653541Y137036D01*
Y135652D02*
Y137036D01*
X619409Y158888D02*
X619416Y158881D01*
X616258Y158888D02*
X619409D01*
X616189Y158957D02*
X616258Y158888D01*
X608165Y157712D02*
X614010D01*
X592610Y157900D02*
X592683Y157972D01*
X596772D01*
X592600Y157900D02*
X592610D01*
X607810Y155900D02*
X608175Y156265D01*
X607800Y155900D02*
X607810D01*
X608175Y156265D02*
X614010D01*
X603346Y156004D02*
X603443Y155907D01*
X607793D02*
X607800Y155900D01*
X603443Y155907D02*
X607793D01*
X607904Y157972D02*
X608165Y157712D01*
X603346Y157972D02*
X607904D01*
X616189Y155020D02*
X616280Y154928D01*
X614010Y156265D02*
X615138Y155137D01*
X614010Y157712D02*
X615138Y158839D01*
X616072Y155137D02*
X616189Y155020D01*
X599865Y156004D02*
X600700Y156839D01*
Y156998D02*
X601557Y157855D01*
X603229D01*
X596772Y156004D02*
X599865D01*
X600700Y156839D02*
Y156998D01*
X603229Y157855D02*
X603346Y157972D01*
X619383Y154928D02*
X619390Y154921D01*
X652453Y139121D02*
X652570Y139004D01*
X616280Y154928D02*
X619383D01*
X616072Y158839D02*
X616189Y158957D01*
X615138Y158839D02*
X616072D01*
X615138Y155137D02*
X616072D01*
D129*
X636089Y106400D02*
D03*
X647900D02*
D03*
D130*
X662600Y103000D02*
D03*
X670600D02*
D03*
X666600Y123000D02*
D03*
D131*
X669100Y108000D02*
D03*
X664100D02*
D03*
X669100Y113000D02*
D03*
X664100D02*
D03*
X669100Y118000D02*
D03*
X664100D02*
D03*
D132*
X597000Y194300D02*
D03*
X661400Y218100D02*
D03*
X640250Y156350D02*
D03*
D133*
X608524Y147539D02*
D03*
Y166437D02*
D03*
X591595D02*
D03*
Y147539D02*
D03*
D134*
X600059Y171752D02*
D03*
D135*
Y142224D02*
D03*
D136*
X656300Y220000D02*
D03*
X591700Y202600D02*
D03*
X589300D02*
D03*
X696400Y189500D02*
D03*
X663459Y141291D02*
D03*
X653600Y165400D02*
D03*
X674800Y184300D02*
D03*
X669800Y183600D02*
D03*
X673483Y182900D02*
D03*
X670100Y212400D02*
D03*
X673200Y208100D02*
D03*
X650200Y181600D02*
D03*
X626700Y189200D02*
D03*
X589300Y140800D02*
D03*
X596200Y141600D02*
D03*
X603900Y141500D02*
D03*
X608800Y141400D02*
D03*
X677800Y193600D02*
D03*
X695000Y222800D02*
D03*
X697400D02*
D03*
X617770Y167759D02*
D03*
X624000Y192100D02*
D03*
X680820Y220142D02*
D03*
X687000Y216500D02*
D03*
X682800Y210400D02*
D03*
X690000Y196500D02*
D03*
X686300Y193700D02*
D03*
X683500Y194500D02*
D03*
X680231Y193769D02*
D03*
X616800Y130000D02*
D03*
Y134000D02*
D03*
Y126300D02*
D03*
Y122300D02*
D03*
X642600Y175900D02*
D03*
X641105Y179867D02*
D03*
X645500Y174200D02*
D03*
X623000Y161800D02*
D03*
X629200Y176900D02*
D03*
X672967Y151300D02*
D03*
X658998Y110515D02*
D03*
X655061D02*
D03*
X615691Y118389D02*
D03*
X611754D02*
D03*
X613723Y114452D02*
D03*
X611754Y110515D02*
D03*
X613723Y106578D02*
D03*
X607817Y118389D02*
D03*
X609786Y114452D02*
D03*
X607817Y110515D02*
D03*
X609786Y106578D02*
D03*
X603880Y118389D02*
D03*
X605849Y114452D02*
D03*
X603880Y110515D02*
D03*
X605849Y106578D02*
D03*
X599943Y118389D02*
D03*
X601912Y114452D02*
D03*
Y106578D02*
D03*
X596006Y134137D02*
D03*
X597975Y130200D02*
D03*
X596006Y126263D02*
D03*
X597975Y122326D02*
D03*
X596006Y118389D02*
D03*
X592069Y173507D02*
D03*
X594038Y138074D02*
D03*
X592069Y134137D02*
D03*
X594038Y130200D02*
D03*
X592069Y126263D02*
D03*
X594038Y122326D02*
D03*
X592069Y118389D02*
D03*
X638900Y124200D02*
D03*
X629330Y118800D02*
D03*
X668400Y219800D02*
D03*
X651300Y220000D02*
D03*
X656300Y212400D02*
D03*
X649400Y209600D02*
D03*
X591800Y185500D02*
D03*
X589400D02*
D03*
Y188200D02*
D03*
X591800D02*
D03*
X591807Y191258D02*
D03*
X589407D02*
D03*
Y193957D02*
D03*
X591807D02*
D03*
X591800Y196700D02*
D03*
X589400D02*
D03*
Y199400D02*
D03*
X591800D02*
D03*
X596000Y177200D02*
D03*
X589200D02*
D03*
X672800Y109000D02*
D03*
Y106600D02*
D03*
X665407Y145108D02*
D03*
X666605Y146605D02*
D03*
X662100Y146600D02*
D03*
X630400Y135200D02*
D03*
X627800Y178100D02*
D03*
X617770Y163359D02*
D03*
X614100Y167800D02*
D03*
Y163400D02*
D03*
X611500Y209400D02*
D03*
X609500Y211600D02*
D03*
X593400Y213500D02*
D03*
X591000D02*
D03*
Y210800D02*
D03*
X593400D02*
D03*
X590800Y218600D02*
D03*
X634711Y224803D02*
D03*
X603900Y180300D02*
D03*
Y183200D02*
D03*
Y186200D02*
D03*
Y189200D02*
D03*
X607556Y219719D02*
D03*
X605610D02*
D03*
X608571Y191893D02*
D03*
X692471Y182693D02*
D03*
X697371Y220293D02*
D03*
X693971Y193693D02*
D03*
X696471D02*
D03*
X696400Y191600D02*
D03*
X635300Y209400D02*
D03*
X645100D02*
D03*
X639100D02*
D03*
X641932Y223819D02*
D03*
X617000Y220300D02*
D03*
X613900D02*
D03*
Y223000D02*
D03*
X617000D02*
D03*
X679020Y197711D02*
D03*
X670300Y202800D02*
D03*
X674900Y197100D02*
D03*
X675300Y200800D02*
D03*
X651900Y150900D02*
D03*
X656600Y160400D02*
D03*
X655200Y161800D02*
D03*
X661993Y158950D02*
D03*
X649500Y158000D02*
D03*
X655615Y154315D02*
D03*
X656915Y153015D02*
D03*
X652717Y156900D02*
D03*
X659307Y158707D02*
D03*
X637200Y167420D02*
D03*
X639200D02*
D03*
X635300Y167991D02*
D03*
X639600Y161300D02*
D03*
X641200Y167991D02*
D03*
X660882Y160749D02*
D03*
X620300Y179402D02*
D03*
X665300Y157580D02*
D03*
X663892Y152720D02*
D03*
X668291Y151591D02*
D03*
X665100Y151300D02*
D03*
X648100Y174200D02*
D03*
X639588Y178188D02*
D03*
X662400Y172864D02*
D03*
X660800Y174164D02*
D03*
X664200Y188500D02*
D03*
X661121Y193219D02*
D03*
Y189319D02*
D03*
X660981Y201089D02*
D03*
X661121Y197119D02*
D03*
Y205019D02*
D03*
X664321Y197219D02*
D03*
Y207519D02*
D03*
X661579Y167863D02*
D03*
X637396Y173790D02*
D03*
X634760Y178265D02*
D03*
X645034Y180334D02*
D03*
X652900Y169400D02*
D03*
X654500Y184539D02*
D03*
Y181179D02*
D03*
X658800D02*
D03*
X661900Y164500D02*
D03*
X660900Y166200D02*
D03*
X627025Y179840D02*
D03*
X658312Y164012D02*
D03*
X647600Y183400D02*
D03*
X643538Y184238D02*
D03*
X660900Y162600D02*
D03*
X677100Y183900D02*
D03*
X678800Y183200D02*
D03*
X671700Y183600D02*
D03*
X666634Y181226D02*
D03*
X671100Y185705D02*
D03*
X680630Y183070D02*
D03*
X671779Y138500D02*
D03*
X668200Y127300D02*
D03*
X668520Y142541D02*
D03*
X664436Y139936D02*
D03*
X661700Y137900D02*
D03*
X670761Y151496D02*
D03*
X689800Y158400D02*
D03*
X654100Y152600D02*
D03*
X654200Y149800D02*
D03*
X653100Y154600D02*
D03*
X656500Y135200D02*
D03*
X655900Y138000D02*
D03*
X651000Y129520D02*
D03*
X642900Y131300D02*
D03*
X632900Y143800D02*
D03*
X635700Y143100D02*
D03*
X631500Y142300D02*
D03*
X635900Y132100D02*
D03*
X635600Y127433D02*
D03*
X642733Y129503D02*
D03*
X652900Y122479D02*
D03*
X646000Y122641D02*
D03*
X633622Y132561D02*
D03*
X664200Y133700D02*
D03*
X660200Y127900D02*
D03*
X650500Y116600D02*
D03*
X646400Y116100D02*
D03*
X642000Y114200D02*
D03*
X647300Y187600D02*
D03*
X639000Y114200D02*
D03*
X619416Y158881D02*
D03*
X630400Y161900D02*
D03*
X628600Y161500D02*
D03*
X633200Y157100D02*
D03*
X635000Y155000D02*
D03*
Y159000D02*
D03*
X642900Y152900D02*
D03*
X604500Y209900D02*
D03*
X602700Y211400D02*
D03*
X645576Y157176D02*
D03*
X632500Y161900D02*
D03*
X631408Y167192D02*
D03*
X623500Y167400D02*
D03*
X690948Y170466D02*
D03*
X695900Y177300D02*
D03*
X692600D02*
D03*
X691252Y168618D02*
D03*
X698300Y172400D02*
D03*
X692607Y160842D02*
D03*
X695400Y151800D02*
D03*
X698600Y153600D02*
D03*
X689800Y155800D02*
D03*
X688000Y155900D02*
D03*
X698400Y176600D02*
D03*
X633800Y141800D02*
D03*
X631200Y129950D02*
D03*
X646189Y126200D02*
D03*
X645550Y133600D02*
D03*
X628400Y152600D02*
D03*
X655100Y128400D02*
D03*
X640867Y129700D02*
D03*
X626400Y129200D02*
D03*
Y130900D02*
D03*
Y132500D02*
D03*
X634456Y120341D02*
D03*
X637278Y118300D02*
D03*
X633070Y118800D02*
D03*
X632900Y146900D02*
D03*
X631400Y148400D02*
D03*
X631500Y145200D02*
D03*
X620252Y142717D02*
D03*
X661800Y135500D02*
D03*
X626100Y149400D02*
D03*
X603489Y164626D02*
D03*
X601489D02*
D03*
X598489D02*
D03*
X596489D02*
D03*
X589100Y162400D02*
D03*
X591100D02*
D03*
X589100Y160100D02*
D03*
X591100D02*
D03*
X616400Y143700D02*
D03*
X611100Y154000D02*
D03*
X613000Y146400D02*
D03*
Y149200D02*
D03*
X608300Y154100D02*
D03*
X609600Y152600D02*
D03*
X591200Y152300D02*
D03*
X607200Y152600D02*
D03*
X589200Y152300D02*
D03*
X591200Y154600D02*
D03*
X589200D02*
D03*
X683169Y151425D02*
D03*
X675843Y209958D02*
D03*
X653300Y145000D02*
D03*
X602700Y208500D02*
D03*
X682800Y183100D02*
D03*
X635700Y145000D02*
D03*
X635900Y114200D02*
D03*
X673900Y223200D02*
D03*
X657000Y223100D02*
D03*
X642136Y214788D02*
D03*
X647000Y218500D02*
D03*
X616300Y150800D02*
D03*
X592600Y157900D02*
D03*
X607800Y155900D02*
D03*
X619390Y154921D02*
D03*
X696063Y153740D02*
D03*
X698524Y161221D02*
D03*
X650984Y216831D02*
D03*
X643600Y133100D02*
D03*
D137*
X675330Y130475D02*
D03*
X696930Y137375D02*
D03*
X673700Y142700D02*
D03*
X677132Y132915D02*
D03*
X681027Y132336D02*
D03*
X684964D02*
D03*
X688901D02*
D03*
X696142Y132106D02*
D03*
X694644Y135747D02*
D03*
X690934Y137064D02*
D03*
X686997D02*
D03*
X683060D02*
D03*
X680116Y139679D02*
D03*
X680120Y143616D02*
D03*
X680153Y147553D02*
D03*
X673500Y135900D02*
D03*
X657701Y113500D02*
D03*
X646900Y199998D02*
D03*
X642500Y200000D02*
D03*
X648900Y204100D02*
D03*
X644300D02*
D03*
X639900Y204102D02*
D03*
X589000Y106000D02*
D03*
Y110600D02*
D03*
X589002Y115000D02*
D03*
X627300Y102700D02*
D03*
X642200Y105900D02*
D03*
X657900Y106500D02*
D03*
X697002Y150000D02*
D03*
X697000Y145600D02*
D03*
Y141000D02*
D03*
X692000Y139998D02*
D03*
X687600Y140000D02*
D03*
X683000D02*
D03*
X696800Y127500D02*
D03*
X677900Y128200D02*
D03*
X682500D02*
D03*
X686900Y128198D02*
D03*
X683000Y144100D02*
D03*
X675339Y140453D02*
D03*
Y145276D02*
D03*
D138*
X644302Y145702D02*
D03*
X641000Y138400D02*
D03*
X647900Y145600D02*
D03*
X683500Y165600D02*
D03*
X679000D02*
D03*
Y161300D02*
D03*
X674500D02*
D03*
Y165600D02*
D03*
X670000Y161300D02*
D03*
X683500D02*
D03*
X670000Y165600D02*
D03*
Y170100D02*
D03*
X674500D02*
D03*
X683500D02*
D03*
X679000D02*
D03*
Y175000D02*
D03*
X683500D02*
D03*
X674500D02*
D03*
X670000D02*
D03*
M02*
