G04*
G04 #@! TF.GenerationSoftware,Altium Limited,Altium Designer,24.10.1 (45)*
G04*
G04 Layer_Color=8421504*
%FSLAX25Y25*%
%MOIN*%
G70*
G04*
G04 #@! TF.SameCoordinates,FC073F2D-740C-46EC-94A2-EC185A9C6A3E*
G04*
G04*
G04 #@! TF.FilePolarity,Positive*
G04*
G01*
G75*
%ADD16R,0.03937X0.13780*%
%ADD17R,0.05906X0.13386*%
%ADD18R,0.07480X0.02559*%
%ADD19R,0.06929X0.01181*%
%ADD20R,0.01476X0.01378*%
%ADD21R,0.01378X0.01476*%
%ADD22C,0.03000*%
%ADD23R,0.01378X0.00984*%
%ADD24R,0.01181X0.01181*%
%ADD25R,0.01181X0.01181*%
%ADD26R,0.05807X0.01181*%
%ADD27R,0.01181X0.05807*%
%ADD28R,0.01811X0.01654*%
%ADD29R,0.01850X0.01732*%
%ADD30R,0.00984X0.01378*%
%ADD31R,0.02717X0.02835*%
%ADD32R,0.01732X0.01850*%
%ADD33R,0.18504X0.18504*%
%ADD34R,0.03347X0.00787*%
%ADD35R,0.00787X0.03347*%
%ADD36R,0.02362X0.02008*%
%ADD37R,0.03543X0.02756*%
%ADD38R,0.01378X0.00787*%
%ADD39R,0.01181X0.01083*%
%ADD40R,0.03937X0.03543*%
%ADD41R,0.02835X0.02717*%
%ADD42R,0.02362X0.02756*%
%ADD43R,0.01772X0.02362*%
%ADD44R,0.03347X0.02953*%
%ADD45R,0.01600X0.02100*%
%ADD46R,0.00787X0.01102*%
%ADD47R,0.01181X0.03150*%
%ADD48R,0.10827X0.10827*%
%ADD49R,0.03150X0.01181*%
%ADD50R,0.03819X0.05787*%
%ADD51R,0.03347X0.01378*%
%ADD52R,0.01575X0.02461*%
%ADD53R,0.02461X0.01575*%
%ADD54R,0.01870X0.01181*%
%ADD55R,0.01181X0.00957*%
%ADD56R,0.01654X0.01811*%
%ADD57R,0.03937X0.02165*%
%ADD58R,0.03347X0.01181*%
%ADD59R,0.07087X0.04724*%
%ADD60R,0.02362X0.01378*%
%ADD61R,0.03937X0.03740*%
%ADD62R,0.02800X0.01500*%
%ADD63R,0.02100X0.01600*%
G36*
X625909Y139417D02*
Y137882D01*
X626932D01*
Y138827D01*
X626342Y139417D01*
X625909D01*
D02*
G37*
G36*
X629491D02*
Y137882D01*
X628468D01*
Y138827D01*
X629058Y139417D01*
X629491D01*
D02*
G37*
G36*
X625909Y141583D02*
Y143118D01*
X626932D01*
Y142173D01*
X626342Y141583D01*
X625909D01*
D02*
G37*
G36*
X629491D02*
Y143118D01*
X628468D01*
Y142173D01*
X629058Y141583D01*
X629491D01*
D02*
G37*
D16*
X612537Y130195D02*
D03*
X604663D02*
D03*
D17*
X595411Y107557D02*
D03*
X621789D02*
D03*
D18*
X675787Y220177D02*
D03*
Y190847D02*
D03*
D19*
X695394Y214370D02*
D03*
Y212402D02*
D03*
Y210433D02*
D03*
Y208465D02*
D03*
Y206496D02*
D03*
Y204528D02*
D03*
Y202559D02*
D03*
Y200591D02*
D03*
Y198622D02*
D03*
Y196653D02*
D03*
D20*
X593398Y219984D02*
D03*
Y218016D02*
D03*
X599402Y219984D02*
D03*
Y218016D02*
D03*
D21*
X593447Y222002D02*
D03*
X597384Y215998D02*
D03*
X599353D02*
D03*
X593447D02*
D03*
X595416D02*
D03*
Y222002D02*
D03*
X597384D02*
D03*
X599353D02*
D03*
D22*
X590700Y181400D02*
D03*
X594700Y201400D02*
D03*
D23*
X660900Y160767D02*
D03*
Y162633D02*
D03*
X664321Y211119D02*
D03*
Y209253D02*
D03*
Y205752D02*
D03*
Y203886D02*
D03*
Y200752D02*
D03*
Y198886D02*
D03*
Y195552D02*
D03*
Y193686D02*
D03*
Y190352D02*
D03*
Y188486D02*
D03*
X698407Y155990D02*
D03*
Y157856D02*
D03*
X695607Y155990D02*
D03*
Y157856D02*
D03*
X698500Y168767D02*
D03*
Y170633D02*
D03*
X692507Y178490D02*
D03*
Y180356D02*
D03*
X680400Y152133D02*
D03*
X683169Y149559D02*
D03*
X653300Y127867D02*
D03*
X616339Y146213D02*
D03*
X680400Y150267D02*
D03*
X683169Y151425D02*
D03*
X664370Y182878D02*
D03*
Y184744D02*
D03*
X653300Y129733D02*
D03*
X616339Y148079D02*
D03*
D24*
X608402Y180319D02*
D03*
X606040D02*
D03*
X608402Y183319D02*
D03*
X606040D02*
D03*
X608402Y186219D02*
D03*
X606040D02*
D03*
X608402Y189219D02*
D03*
X606040D02*
D03*
Y199819D02*
D03*
X608402D02*
D03*
X606040Y202819D02*
D03*
X608402D02*
D03*
X606040Y195019D02*
D03*
X608402D02*
D03*
X648402Y160719D02*
D03*
X646040D02*
D03*
X677756Y138091D02*
D03*
Y140453D02*
D03*
Y147736D02*
D03*
Y145374D02*
D03*
Y150197D02*
D03*
Y152559D02*
D03*
X646481Y118200D02*
D03*
X635819Y130000D02*
D03*
X675088Y148723D02*
D03*
X672726D02*
D03*
X644119Y118200D02*
D03*
X638181Y130000D02*
D03*
D25*
X626021Y161938D02*
D03*
Y164300D02*
D03*
X667421Y207595D02*
D03*
Y209958D02*
D03*
Y192795D02*
D03*
Y195158D02*
D03*
Y200157D02*
D03*
Y197795D02*
D03*
Y205058D02*
D03*
Y202695D02*
D03*
Y212795D02*
D03*
Y215158D02*
D03*
X692607Y160842D02*
D03*
Y163204D02*
D03*
X695507D02*
D03*
Y160842D02*
D03*
X692607Y158104D02*
D03*
Y155742D02*
D03*
X667421Y187894D02*
D03*
Y190256D02*
D03*
X667520Y185433D02*
D03*
Y183071D02*
D03*
X604500Y219719D02*
D03*
Y222081D02*
D03*
X588400Y219319D02*
D03*
Y221681D02*
D03*
D26*
X658821Y177434D02*
D03*
Y179402D02*
D03*
Y181371D02*
D03*
Y183339D02*
D03*
Y185308D02*
D03*
Y187276D02*
D03*
Y189245D02*
D03*
Y191213D02*
D03*
Y193182D02*
D03*
Y195150D02*
D03*
Y197119D02*
D03*
Y199087D02*
D03*
Y201056D02*
D03*
Y203024D02*
D03*
Y204993D02*
D03*
Y206961D02*
D03*
X613640Y204993D02*
D03*
Y203024D02*
D03*
Y201056D02*
D03*
Y199087D02*
D03*
Y197119D02*
D03*
Y195150D02*
D03*
Y193182D02*
D03*
Y189245D02*
D03*
Y187276D02*
D03*
Y185308D02*
D03*
Y183339D02*
D03*
Y181371D02*
D03*
Y179402D02*
D03*
Y177434D02*
D03*
Y206961D02*
D03*
Y191213D02*
D03*
D27*
X650994Y214788D02*
D03*
X647057D02*
D03*
X643120D02*
D03*
X641152D02*
D03*
X637215D02*
D03*
X633278D02*
D03*
X631310D02*
D03*
X629341D02*
D03*
X627372D02*
D03*
X625404D02*
D03*
X623435Y169607D02*
D03*
X627372D02*
D03*
X631310D02*
D03*
X633278D02*
D03*
X635247D02*
D03*
X641152D02*
D03*
X645089D02*
D03*
X649026D02*
D03*
X650994D02*
D03*
X621467D02*
D03*
X629341D02*
D03*
X625404D02*
D03*
X621467Y214788D02*
D03*
X623435D02*
D03*
X635247D02*
D03*
X639184Y169607D02*
D03*
X637215D02*
D03*
X647057D02*
D03*
X643120D02*
D03*
X639184Y214788D02*
D03*
X645089D02*
D03*
X649026D02*
D03*
D28*
X608321Y177376D02*
D03*
X605722D02*
D03*
X637922Y220119D02*
D03*
X640520D02*
D03*
X634822Y164219D02*
D03*
X637421D02*
D03*
X646420Y220119D02*
D03*
X643822D02*
D03*
X648699Y129600D02*
D03*
X596701Y211600D02*
D03*
X646101Y129600D02*
D03*
X599299Y211600D02*
D03*
D29*
X622940Y164076D02*
D03*
X620302D02*
D03*
X631640Y164219D02*
D03*
X629002D02*
D03*
X634802Y161319D02*
D03*
X637440D02*
D03*
X648140Y223219D02*
D03*
X645502D02*
D03*
X629019Y135100D02*
D03*
X626481Y146200D02*
D03*
X626381Y135100D02*
D03*
X629119Y146200D02*
D03*
D30*
X648221Y163919D02*
D03*
X646355D02*
D03*
X675839Y135630D02*
D03*
X677705D02*
D03*
X675839Y142913D02*
D03*
X677705D02*
D03*
X669767Y183600D02*
D03*
X671633D02*
D03*
X693650Y152854D02*
D03*
X672967Y151300D02*
D03*
X640867Y129700D02*
D03*
X674833Y151300D02*
D03*
X691784Y152854D02*
D03*
X642733Y129700D02*
D03*
D31*
X638310Y223819D02*
D03*
X641932D02*
D03*
X646189Y126200D02*
D03*
X649811D02*
D03*
X660571Y141142D02*
D03*
X595789Y208000D02*
D03*
X656949Y141142D02*
D03*
X599411Y208000D02*
D03*
D32*
X634721Y220200D02*
D03*
Y222838D02*
D03*
X620221Y220257D02*
D03*
Y222895D02*
D03*
D33*
X676968Y168209D02*
D03*
D34*
X688583Y170571D02*
D03*
X665354Y176870D02*
D03*
Y175295D02*
D03*
Y173721D02*
D03*
Y172146D02*
D03*
Y170571D02*
D03*
Y168996D02*
D03*
Y167421D02*
D03*
Y165847D02*
D03*
Y164272D02*
D03*
Y162697D02*
D03*
Y161122D02*
D03*
Y159547D02*
D03*
X688583D02*
D03*
Y161122D02*
D03*
Y162697D02*
D03*
Y164272D02*
D03*
Y165847D02*
D03*
Y167421D02*
D03*
Y168996D02*
D03*
Y172146D02*
D03*
Y173721D02*
D03*
Y175295D02*
D03*
Y176870D02*
D03*
D35*
X679331Y156595D02*
D03*
X685630Y179823D02*
D03*
X684055D02*
D03*
X682480D02*
D03*
X680905D02*
D03*
X679331D02*
D03*
X677756D02*
D03*
X676181D02*
D03*
X674606D02*
D03*
X673032D02*
D03*
X671457D02*
D03*
X669882D02*
D03*
X668307D02*
D03*
Y156595D02*
D03*
X669882D02*
D03*
X671457D02*
D03*
X673032D02*
D03*
X674606D02*
D03*
X676181D02*
D03*
X677756D02*
D03*
X680905D02*
D03*
X682480D02*
D03*
X684055D02*
D03*
X685630D02*
D03*
D36*
X638058Y111439D02*
D03*
X645931D02*
D03*
X641994D02*
D03*
D37*
X630184Y106105D02*
D03*
X653805D02*
D03*
D38*
X656300Y122200D02*
D03*
Y120625D02*
D03*
D39*
X698500Y165335D02*
D03*
Y163265D02*
D03*
D40*
X694700Y174150D02*
D03*
Y167850D02*
D03*
D41*
X695907Y179212D02*
D03*
Y182834D02*
D03*
D42*
X661469Y132400D02*
D03*
X657531D02*
D03*
X620968Y139600D02*
D03*
X617031D02*
D03*
D43*
X645730Y154700D02*
D03*
X649670Y121900D02*
D03*
X629330Y118800D02*
D03*
X633070D02*
D03*
X645930Y121900D02*
D03*
X649470Y154700D02*
D03*
D44*
X687598Y149213D02*
D03*
X692913Y145079D02*
D03*
Y149213D02*
D03*
X687598Y145079D02*
D03*
D45*
X690329Y127362D02*
D03*
X693529D02*
D03*
D46*
X657011Y128842D02*
D03*
X658389D02*
D03*
D47*
X643595Y149948D02*
D03*
X645563D02*
D03*
X647532D02*
D03*
X641626D02*
D03*
X639657D02*
D03*
X649500D02*
D03*
X639657Y134200D02*
D03*
X641626D02*
D03*
X643595D02*
D03*
X645563D02*
D03*
X647532D02*
D03*
X649500D02*
D03*
D48*
X644579Y142074D02*
D03*
D49*
X652453Y145027D02*
D03*
X636705Y146995D02*
D03*
Y139121D02*
D03*
Y145027D02*
D03*
Y143058D02*
D03*
Y141090D02*
D03*
Y137153D02*
D03*
X652453D02*
D03*
Y139121D02*
D03*
Y141090D02*
D03*
Y143058D02*
D03*
Y146995D02*
D03*
D50*
X624332Y222400D02*
D03*
X630868D02*
D03*
D51*
X596772Y167815D02*
D03*
X603346D02*
D03*
X596772Y146161D02*
D03*
X603346D02*
D03*
D52*
X632600Y135078D02*
D03*
Y138322D02*
D03*
D53*
X629870Y159153D02*
D03*
Y154921D02*
D03*
X637278Y118300D02*
D03*
X640522D02*
D03*
X650278D02*
D03*
X653522D02*
D03*
X626626Y154921D02*
D03*
Y159153D02*
D03*
D54*
X635801Y125868D02*
D03*
X622787Y156988D02*
D03*
X642399Y121932D02*
D03*
Y123900D02*
D03*
Y125868D02*
D03*
X635801Y123900D02*
D03*
Y121932D02*
D03*
X622787Y155020D02*
D03*
Y158957D02*
D03*
X616189D02*
D03*
Y156988D02*
D03*
Y155020D02*
D03*
D55*
X622835Y146331D02*
D03*
Y147961D02*
D03*
D56*
X619587Y145945D02*
D03*
Y148543D02*
D03*
D57*
X658169Y145768D02*
D03*
Y150689D02*
D03*
D58*
X603346Y152067D02*
D03*
Y154035D02*
D03*
Y156004D02*
D03*
Y157972D02*
D03*
Y159941D02*
D03*
Y161909D02*
D03*
X596772D02*
D03*
Y159941D02*
D03*
Y157972D02*
D03*
Y156004D02*
D03*
Y154035D02*
D03*
Y152067D02*
D03*
D59*
X693307Y114764D02*
D03*
Y103347D02*
D03*
D60*
X657700Y127090D02*
D03*
D61*
X631200Y123650D02*
D03*
Y129950D02*
D03*
D62*
X693012Y133237D02*
D03*
Y130149D02*
D03*
D63*
X693307Y121038D02*
D03*
Y124238D02*
D03*
M02*
